<svg width="1172" height="252" viewBox="0 0 1172 252" fill="none" xmlns="http://www.w3.org/2000/svg">
<path d="M859.5 17.0625H874.156C874.156 17.5417 877.156 28.8125 883.156 50.875H892.844C892.844 50.5208 895.844 39.25 901.844 17.0625H916.5V62H910.812V22.9688H906.562C906.188 22.9688 904.615 28.6458 901.844 40C901.531 40.8125 899.948 46.4167 897.094 56.8125H878.656L869.656 22.9688H865.406V62H859.5V17.0625ZM922 17.1562H978.812V22.9062H922V17.1562ZM922 33.7188H978.812V39.4688H927.75V43.5938C927.75 48.5938 930.74 52.5833 936.719 55.5625C938.448 56.0208 939.823 56.25 940.844 56.25H978.562V62H940.156C934.802 62 929.979 59.3958 925.688 54.1875C923.229 50.7083 922 47.3333 922 44.0625V33.7188ZM1004.41 17.1562H1041.47V22.875H1005.31C997.938 22.875 993.135 26.2292 990.906 32.9375C990.448 34.0833 990.219 35.7604 990.219 37.9688V41.4062C990.219 48.1979 993.198 52.8542 999.156 55.375C1000.66 55.9792 1002.18 56.2812 1003.72 56.2812H1041.47V62H1003.25C995.708 62 989.917 57.9583 985.875 49.875C984.958 47.4375 984.5 44.6875 984.5 41.625V37.0625C984.5 28.0833 989 21.75 998 18.0625C1000.19 17.4583 1002.32 17.1562 1004.41 17.1562ZM1047 17.1562H1103.75V22.875H1078.34V61.5312C1078.34 61.8438 1078.19 62 1077.88 62H1072.62V22.875H1047V17.1562ZM1109.5 17.1562H1147.47C1155.11 17.1562 1160.99 21.2708 1165.09 29.5C1165.86 31.9792 1166.25 33.8854 1166.25 35.2188V62H1129.62C1120.71 62 1114.39 57.6562 1110.66 48.9688C1109.89 46.7812 1109.5 44.6458 1109.5 42.5625V17.1562ZM1115.22 22.875V42.0938C1115.22 49.1562 1118.96 53.8125 1126.44 56.0625C1128 56.2083 1129.22 56.2812 1130.09 56.2812H1160.53V35.9062C1160.53 30.1354 1157.25 25.9479 1150.69 23.3438C1149.54 23.0312 1148.47 22.875 1147.47 22.875H1115.22ZM547 84.1562H603.875V129H598.219V90.0625H552.906V129H547V84.1562ZM609.5 83.9062H646.75C655.583 83.9062 661.833 88.1771 665.5 96.7188C666.292 98.5104 666.688 100.573 666.688 102.906V106.469H615.438V129H609.5V100.75H660.531C660.531 98.0208 658.552 95.0938 654.594 91.9688C652.344 90.5521 650.208 89.8438 648.188 89.8438H609.5V83.9062ZM672 84.1562H709.969C717.615 84.1562 723.49 88.2708 727.594 96.5C728.365 98.9792 728.75 100.885 728.75 102.219V129H692.125C683.208 129 676.885 124.656 673.156 115.969C672.385 113.781 672 111.646 672 109.562V84.1562ZM677.719 89.875V109.094C677.719 116.156 681.458 120.812 688.938 123.062C690.5 123.208 691.719 123.281 692.594 123.281H723.031V102.906C723.031 97.1354 719.75 92.9479 713.188 90.3438C712.042 90.0312 710.969 89.875 709.969 89.875H677.719ZM743.938 84.1562H772.906V100.719C776.031 100.719 779.635 102.021 783.719 104.625C788.927 108.479 791.531 114.531 791.531 122.781V129H743.938V106.469H734.5V100.719H743.938V84.1562ZM749.688 89.9062V100.719H767.156V89.9062H749.688ZM749.688 106.469V123.25H785.781V122.781C785.781 115.135 782.948 110.083 777.281 107.625C775.26 106.854 773.031 106.469 770.594 106.469H749.688ZM797 84.1562H853.812V89.9062H797V84.1562ZM797 100.719H853.812V106.469H802.75V110.594C802.75 115.594 805.74 119.583 811.719 122.562C813.448 123.021 814.823 123.25 815.844 123.25H853.562V129H815.156C809.802 129 804.979 126.396 800.688 121.188C798.229 117.708 797 114.333 797 111.062V100.719ZM868.719 84.0938H896.562C904.667 84.0938 910.656 87.8542 914.531 95.375C915.76 97.75 916.375 100.51 916.375 103.656V129H859.5V123.25H868.719V84.0938ZM874.469 89.8438V123.25H910.625V104.125C910.625 97.0625 906.938 92.3854 899.562 90.0938C898.25 89.9271 897.177 89.8438 896.344 89.8438H874.469ZM922 84.1562H978.812V89.9062H922V84.1562ZM922 100.719H978.812V106.469H927.75V110.594C927.75 115.594 930.74 119.583 936.719 122.562C938.448 123.021 939.823 123.25 940.844 123.25H978.562V129H940.156C934.802 129 929.979 126.396 925.688 121.188C923.229 117.708 922 114.333 922 111.062V100.719ZM984.5 84.1562H990.156V100.219H1035.72V84.1562H1041.38V129H1035.72V105.875H990.156V129H984.5V84.1562ZM1047 84.0312H1052.75V123.25H1060.31C1061.21 122.208 1070.23 109.135 1087.38 84.0312H1104.12V129H1098.16V89.7812H1090.81C1090.02 90.4062 1081 103.479 1063.75 129H1047V84.0312ZM1128.34 84.1562H1166.75V89.9062H1128.34C1123.97 89.9062 1120.22 92.2812 1117.09 97.0312C1116.64 97.8021 1116.18 99.0312 1115.72 100.719H1166.75V129H1161V106.469H1134.56C1133.83 107.031 1128.77 113.625 1119.38 126.25C1117.98 128.083 1117.22 129 1117.09 129H1109.5V128.781L1126.28 106.688V106.469H1109.72V102.781C1109.72 95.5938 1113.48 89.9271 1121 85.7812C1123.6 84.6979 1126.05 84.1562 1128.34 84.1562Z" fill="white"/>
<path d="M859.5 17.0625V14.5625H857V17.0625H859.5ZM874.156 17.0625H876.656V14.5625H874.156V17.0625ZM883.156 50.875L880.744 51.5311L881.245 53.375H883.156V50.875ZM892.844 50.875V53.375H895.344V50.875H892.844ZM901.844 17.0625V14.5625H899.93L899.43 16.4099L901.844 17.0625ZM916.5 17.0625H919V14.5625H916.5V17.0625ZM916.5 62V64.5H919V62H916.5ZM910.812 62H908.312V64.5H910.812V62ZM910.812 22.9688H913.312V20.4688H910.812V22.9688ZM901.844 40L904.177 40.8974L904.235 40.7481L904.272 40.5927L901.844 40ZM897.094 56.8125V59.3125H899L899.505 57.4744L897.094 56.8125ZM878.656 56.8125L876.24 57.455L876.734 59.3125H878.656V56.8125ZM869.656 22.9688L872.072 22.3263L871.578 20.4688H869.656V22.9688ZM865.406 22.9688V20.4688H862.906V22.9688H865.406ZM865.406 62V64.5H867.906V62H865.406ZM859.5 62H857V64.5H859.5V62ZM859.5 19.5625H874.156V14.5625H859.5V19.5625ZM871.656 17.0625C871.656 17.4026 871.737 17.7564 871.742 17.7812C871.773 17.9308 871.815 18.1147 871.864 18.3224C871.963 18.7418 872.108 19.3249 872.296 20.0638C872.675 21.5451 873.24 23.6981 873.99 26.518C875.492 32.1602 877.744 40.4987 880.744 51.5311L885.569 50.2189C882.569 39.1888 880.32 30.8607 878.822 25.232C878.073 22.4164 877.513 20.283 877.141 18.8269C876.955 18.097 876.819 17.5486 876.73 17.1737C876.685 16.9842 876.657 16.8553 876.64 16.7764C876.599 16.5727 876.656 16.7822 876.656 17.0625H871.656ZM883.156 53.375H892.844V48.375H883.156V53.375ZM895.344 50.875C895.344 51.0428 895.326 51.1697 895.324 51.1845C895.318 51.2241 895.313 51.2504 895.313 51.2549C895.311 51.2648 895.312 51.2546 895.321 51.2136C895.339 51.135 895.368 51.0074 895.414 50.8213C895.503 50.4531 895.64 49.9105 895.827 49.1872C896.2 47.7435 896.76 45.6154 897.51 42.7993C899.008 37.1688 901.257 28.8081 904.257 17.7151L899.43 16.4099C896.43 27.5044 894.179 35.8729 892.678 41.5132C891.927 44.3325 891.363 46.4753 890.986 47.9378C890.797 48.6676 890.653 49.237 890.555 49.6396C890.507 49.8389 890.466 50.0114 890.436 50.1477C890.422 50.2141 890.406 50.2901 890.392 50.3648C890.386 50.4016 890.377 50.455 890.368 50.5163C890.363 50.5528 890.344 50.6961 890.344 50.875H895.344ZM901.844 19.5625H916.5V14.5625H901.844V19.5625ZM914 17.0625V62H919V17.0625H914ZM916.5 59.5H910.812V64.5H916.5V59.5ZM913.312 62V22.9688H908.312V62H913.312ZM910.812 20.4688H906.562V25.4688H910.812V20.4688ZM906.562 20.4688C905.761 20.4688 905.21 20.8378 904.976 21.0224C904.72 21.2241 904.554 21.4332 904.468 21.5489C904.293 21.7856 904.174 22.0214 904.108 22.1618C903.962 22.4694 903.822 22.8425 903.692 23.2218C903.423 24.0048 903.089 25.128 902.692 26.559C901.895 29.4361 900.802 33.7244 899.415 39.4073L904.272 40.5927C905.656 34.9214 906.735 30.6941 907.511 27.8941C907.901 26.4866 908.203 25.4808 908.421 24.8446C908.535 24.5143 908.601 24.3552 908.624 24.3079C908.641 24.2709 908.598 24.3736 908.488 24.5217C908.436 24.593 908.3 24.7688 908.072 24.9483C907.866 25.1108 907.341 25.4688 906.562 25.4688V20.4688ZM899.51 39.1026C899.301 39.6469 898.786 41.4065 898.016 44.1328C897.222 46.9438 896.111 50.9508 894.683 56.1506L899.505 57.4744C900.931 52.2783 902.039 48.2853 902.828 45.4922C903.222 44.0949 903.536 43.0043 903.769 42.2162C903.885 41.8216 903.98 41.51 904.053 41.2771C904.089 41.1607 904.118 41.0693 904.142 41.0004C904.166 40.9266 904.177 40.8974 904.177 40.8974L899.51 39.1026ZM897.094 54.3125H878.656V59.3125H897.094V54.3125ZM881.072 56.17L872.072 22.3263L867.24 23.6112L876.24 57.455L881.072 56.17ZM869.656 20.4688H865.406V25.4688H869.656V20.4688ZM862.906 22.9688V62H867.906V22.9688H862.906ZM865.406 59.5H859.5V64.5H865.406V59.5ZM862 62V17.0625H857V62H862ZM922 17.1562V14.6562H919.5V17.1562H922ZM978.812 17.1562H981.312V14.6562H978.812V17.1562ZM978.812 22.9062V25.4062H981.312V22.9062H978.812ZM922 22.9062H919.5V25.4062H922V22.9062ZM922 33.7188V31.2188H919.5V33.7188H922ZM978.812 33.7188H981.312V31.2188H978.812V33.7188ZM978.812 39.4688V41.9688H981.312V39.4688H978.812ZM927.75 39.4688V36.9688H925.25V39.4688H927.75ZM936.719 55.5625L935.604 57.8001L935.832 57.9138L936.078 57.979L936.719 55.5625ZM978.562 56.25H981.062V53.75H978.562V56.25ZM978.562 62V64.5H981.062V62H978.562ZM925.688 54.1875L923.646 55.6302L923.699 55.7058L923.758 55.7773L925.688 54.1875ZM922 19.6562H978.812V14.6562H922V19.6562ZM976.312 17.1562V22.9062H981.312V17.1562H976.312ZM978.812 20.4062H922V25.4062H978.812V20.4062ZM924.5 22.9062V17.1562H919.5V22.9062H924.5ZM922 36.2188H978.812V31.2188H922V36.2188ZM976.312 33.7188V39.4688H981.312V33.7188H976.312ZM978.812 36.9688H927.75V41.9688H978.812V36.9688ZM925.25 39.4688V43.5938H930.25V39.4688H925.25ZM925.25 43.5938C925.25 49.8647 929.11 54.5643 935.604 57.8001L937.834 53.3249C932.37 50.6024 930.25 47.3228 930.25 43.5938H925.25ZM936.078 57.979C937.885 58.4579 939.503 58.75 940.844 58.75V53.75C940.142 53.75 939.011 53.5837 937.359 53.146L936.078 57.979ZM940.844 58.75H978.562V53.75H940.844V58.75ZM976.062 56.25V62H981.062V56.25H976.062ZM978.562 59.5H940.156V64.5H978.562V59.5ZM940.156 59.5C935.737 59.5 931.568 57.393 927.617 52.5977L923.758 55.7773C928.39 61.3987 933.867 64.5 940.156 64.5V59.5ZM927.729 52.7448C925.479 49.5608 924.5 46.6804 924.5 44.0625H919.5C919.5 47.9863 920.979 51.8559 923.646 55.6302L927.729 52.7448ZM924.5 44.0625V33.7188H919.5V44.0625H924.5ZM1041.47 17.1562H1043.97V14.6562H1041.47V17.1562ZM1041.47 22.875V25.375H1043.97V22.875H1041.47ZM990.906 32.9375L993.227 33.866L993.255 33.7967L993.279 33.7259L990.906 32.9375ZM999.156 55.375L998.182 57.6774L998.202 57.6859L998.222 57.694L999.156 55.375ZM1041.47 56.2812H1043.97V53.7812H1041.47V56.2812ZM1041.47 62V64.5H1043.97V62H1041.47ZM985.875 49.875L983.535 50.755L983.581 50.8767L983.639 50.993L985.875 49.875ZM998 18.0625L997.334 15.6527L997.19 15.6925L997.052 15.7491L998 18.0625ZM1004.41 19.6562H1041.47V14.6562H1004.41V19.6562ZM1038.97 17.1562V22.875H1043.97V17.1562H1038.97ZM1041.47 20.375H1005.31V25.375H1041.47V20.375ZM1005.31 20.375C1001.25 20.375 997.666 21.3028 994.748 23.3411C991.821 25.3859 989.782 28.3926 988.534 32.1491L993.279 33.7259C994.26 30.774 995.737 28.7496 997.611 27.4402C999.495 26.1243 1002 25.375 1005.31 25.375V20.375ZM988.585 32.009C987.95 33.5974 987.719 35.6532 987.719 37.9688H992.719C992.719 35.8676 992.946 34.5692 993.227 33.866L988.585 32.009ZM987.719 37.9688V41.4062H992.719V37.9688H987.719ZM987.719 41.4062C987.719 45.1701 988.547 48.5259 990.347 51.3396C992.153 54.1618 994.819 56.2546 998.182 57.6774L1000.13 53.0726C997.535 51.9745 995.732 50.4789 994.559 48.6448C993.38 46.8022 992.719 44.4341 992.719 41.4062H987.719ZM998.222 57.694C1000 58.4118 1001.84 58.7812 1003.72 58.7812V53.7812C1002.51 53.7812 1001.31 53.5466 1000.09 53.056L998.222 57.694ZM1003.72 58.7812H1041.47V53.7812H1003.72V58.7812ZM1038.97 56.2812V62H1043.97V56.2812H1038.97ZM1041.47 59.5H1003.25V64.5H1041.47V59.5ZM1003.25 59.5C999.954 59.5 997.128 58.6263 994.681 56.9186C992.209 55.194 989.996 52.5274 988.111 48.757L983.639 50.993C985.795 55.306 988.499 58.7018 991.819 61.0189C995.164 63.3529 999.004 64.5 1003.25 64.5V59.5ZM988.215 48.995C987.421 46.8836 987 44.4388 987 41.625H982C982 44.9362 982.496 47.9914 983.535 50.755L988.215 48.995ZM987 41.625V37.0625H982V41.625H987ZM987 37.0625C987 33.0083 988.009 29.7064 989.913 27.0261C991.827 24.3318 994.776 22.0852 998.948 20.3759L997.052 15.7491C992.224 17.7273 988.423 20.4911 985.837 24.1301C983.241 27.7832 982 32.1375 982 37.0625H987ZM998.666 20.4723C1000.66 19.9227 1002.57 19.6562 1004.41 19.6562V14.6562C1002.08 14.6562 999.72 14.994 997.334 15.6527L998.666 20.4723ZM1047 17.1562V14.6562H1044.5V17.1562H1047ZM1103.75 17.1562H1106.25V14.6562H1103.75V17.1562ZM1103.75 22.875V25.375H1106.25V22.875H1103.75ZM1078.34 22.875V20.375H1075.84V22.875H1078.34ZM1072.62 62H1070.12V64.5H1072.62V62ZM1072.62 22.875H1075.12V20.375H1072.62V22.875ZM1047 22.875H1044.5V25.375H1047V22.875ZM1047 19.6562H1103.75V14.6562H1047V19.6562ZM1101.25 17.1562V22.875H1106.25V17.1562H1101.25ZM1103.75 20.375H1078.34V25.375H1103.75V20.375ZM1075.84 22.875V61.5312H1080.84V22.875H1075.84ZM1075.84 61.5312C1075.84 61.3021 1075.9 60.6711 1076.46 60.115C1077.01 59.559 1077.65 59.5 1077.88 59.5V64.5C1078.42 64.5 1079.28 64.3629 1079.99 63.6506C1080.71 62.9383 1080.84 62.0729 1080.84 61.5312H1075.84ZM1077.88 59.5H1072.62V64.5H1077.88V59.5ZM1075.12 62V22.875H1070.12V62H1075.12ZM1072.62 20.375H1047V25.375H1072.62V20.375ZM1049.5 22.875V17.1562H1044.5V22.875H1049.5ZM1109.5 17.1562V14.6562H1107V17.1562H1109.5ZM1165.09 29.5L1167.48 28.7577L1167.42 28.5649L1167.33 28.3842L1165.09 29.5ZM1166.25 62V64.5H1168.75V62H1166.25ZM1110.66 48.9688L1108.3 49.7996L1108.33 49.8783L1108.36 49.9549L1110.66 48.9688ZM1115.22 22.875V20.375H1112.72V22.875H1115.22ZM1126.44 56.0625L1125.72 58.4565L1125.96 58.5285L1126.21 58.5517L1126.44 56.0625ZM1160.53 56.2812V58.7812H1163.03V56.2812H1160.53ZM1150.69 23.3438L1151.61 21.02L1151.48 20.9686L1151.35 20.9318L1150.69 23.3438ZM1109.5 19.6562H1147.47V14.6562H1109.5V19.6562ZM1147.47 19.6562C1150.81 19.6562 1153.69 20.5469 1156.18 22.2899C1158.69 24.0503 1160.94 26.7714 1162.86 30.6158L1167.33 28.3842C1165.14 23.9994 1162.41 20.5487 1159.04 18.1944C1155.66 15.8229 1151.77 14.6562 1147.47 14.6562V19.6562ZM1162.71 30.2423C1163.46 32.6633 1163.75 34.2751 1163.75 35.2188H1168.75C1168.75 33.4958 1168.27 31.2951 1167.48 28.7577L1162.71 30.2423ZM1163.75 35.2188V62H1168.75V35.2188H1163.75ZM1166.25 59.5H1129.62V64.5H1166.25V59.5ZM1129.62 59.5C1125.59 59.5 1122.29 58.5229 1119.61 56.6816C1116.92 54.8334 1114.68 51.9931 1112.95 47.9826L1108.36 49.9549C1110.37 54.6319 1113.15 58.3072 1116.78 60.8028C1120.42 63.3052 1124.75 64.5 1129.62 64.5V59.5ZM1113.01 48.1379C1112.33 46.1873 1112 44.3327 1112 42.5625H1107C1107 44.959 1107.44 47.3752 1108.3 49.7996L1113.01 48.1379ZM1112 42.5625V17.1562H1107V42.5625H1112ZM1112.72 22.875V42.0938H1117.72V22.875H1112.72ZM1112.72 42.0938C1112.72 46.086 1113.79 49.5986 1116.07 52.4483C1118.34 55.2755 1121.64 57.2303 1125.72 58.4565L1127.16 53.6685C1123.75 52.6447 1121.44 51.1464 1119.97 49.3174C1118.52 47.5108 1117.72 45.164 1117.72 42.0938H1112.72ZM1126.21 58.5517C1127.79 58.7 1129.1 58.7812 1130.09 58.7812V53.7812C1129.33 53.7812 1128.21 53.7166 1126.67 53.5733L1126.21 58.5517ZM1130.09 58.7812H1160.53V53.7812H1130.09V58.7812ZM1163.03 56.2812V35.9062H1158.03V56.2812H1163.03ZM1163.03 35.9062C1163.03 32.5123 1162.05 29.4675 1160.04 26.8955C1158.05 24.3571 1155.17 22.4337 1151.61 21.02L1149.77 25.6675C1152.77 26.858 1154.81 28.3304 1156.1 29.9795C1157.37 31.595 1158.03 33.5294 1158.03 35.9062H1163.03ZM1151.35 20.9318C1150.02 20.5715 1148.73 20.375 1147.47 20.375V25.375C1148.21 25.375 1149.06 25.491 1150.03 25.7557L1151.35 20.9318ZM1147.47 20.375H1115.22V25.375H1147.47V20.375ZM547 84.1562V81.6562H544.5V84.1562H547ZM603.875 84.1562H606.375V81.6562H603.875V84.1562ZM603.875 129V131.5H606.375V129H603.875ZM598.219 129H595.719V131.5H598.219V129ZM598.219 90.0625H600.719V87.5625H598.219V90.0625ZM552.906 90.0625V87.5625H550.406V90.0625H552.906ZM552.906 129V131.5H555.406V129H552.906ZM547 129H544.5V131.5H547V129ZM547 86.6562H603.875V81.6562H547V86.6562ZM601.375 84.1562V129H606.375V84.1562H601.375ZM603.875 126.5H598.219V131.5H603.875V126.5ZM600.719 129V90.0625H595.719V129H600.719ZM598.219 87.5625H552.906V92.5625H598.219V87.5625ZM550.406 90.0625V129H555.406V90.0625H550.406ZM552.906 126.5H547V131.5H552.906V126.5ZM549.5 129V84.1562H544.5V129H549.5ZM609.5 83.9062V81.4062H607V83.9062H609.5ZM665.5 96.7188L663.203 97.7049L663.208 97.7171L663.213 97.7292L665.5 96.7188ZM666.688 106.469V108.969H669.188V106.469H666.688ZM615.438 106.469V103.969H612.938V106.469H615.438ZM615.438 129V131.5H617.938V129H615.438ZM609.5 129H607V131.5H609.5V129ZM609.5 100.75V98.25H607V100.75H609.5ZM660.531 100.75V103.25H663.031V100.75H660.531ZM654.594 91.9688L656.143 90.0065L656.038 89.9241L655.926 89.8532L654.594 91.9688ZM609.5 89.8438H607V92.3438H609.5V89.8438ZM609.5 86.4062H646.75V81.4062H609.5V86.4062ZM646.75 86.4062C650.75 86.4062 654.008 87.3671 656.652 89.1735C659.304 90.9858 661.514 93.7706 663.203 97.7049L667.797 95.7326C665.819 91.1252 663.071 87.5038 659.473 85.0453C655.867 82.5808 651.584 81.4062 646.75 81.4062V86.4062ZM663.213 97.7292C663.84 99.1477 664.188 100.855 664.188 102.906H669.188C669.188 100.29 668.743 97.8732 667.787 95.7083L663.213 97.7292ZM664.188 102.906V106.469H669.188V102.906H664.188ZM666.688 103.969H615.438V108.969H666.688V103.969ZM612.938 106.469V129H617.938V106.469H612.938ZM615.438 126.5H609.5V131.5H615.438V126.5ZM612 129V100.75H607V129H612ZM609.5 103.25H660.531V98.25H609.5V103.25ZM663.031 100.75C663.031 96.8051 660.225 93.2293 656.143 90.0065L653.045 93.931C656.879 96.9582 658.031 99.2366 658.031 100.75H663.031ZM655.926 89.8532C653.4 88.263 650.807 87.3438 648.188 87.3438V92.3438C649.61 92.3438 651.287 92.8412 653.262 94.0843L655.926 89.8532ZM648.188 87.3438H609.5V92.3438H648.188V87.3438ZM612 89.8438V83.9062H607V89.8438H612ZM672 84.1562V81.6562H669.5V84.1562H672ZM727.594 96.5L729.981 95.7577L729.921 95.5649L729.831 95.3842L727.594 96.5ZM728.75 129V131.5H731.25V129H728.75ZM673.156 115.969L670.798 116.8L670.826 116.878L670.859 116.955L673.156 115.969ZM677.719 89.875V87.375H675.219V89.875H677.719ZM688.938 123.062L688.217 125.457L688.456 125.528L688.705 125.552L688.938 123.062ZM723.031 123.281V125.781H725.531V123.281H723.031ZM713.188 90.3438L714.11 88.02L713.98 87.9686L713.845 87.9318L713.188 90.3438ZM672 86.6562H709.969V81.6562H672V86.6562ZM709.969 86.6562C713.314 86.6562 716.186 87.5469 718.675 89.2899C721.189 91.0502 723.439 93.7714 725.357 97.6158L729.831 95.3842C727.644 90.9994 724.905 87.5487 721.544 85.1945C718.157 82.8229 714.269 81.6562 709.969 81.6562V86.6562ZM725.206 97.2423C725.959 99.6633 726.25 101.275 726.25 102.219H731.25C731.25 100.496 730.77 98.2951 729.981 95.7577L725.206 97.2423ZM726.25 102.219V129H731.25V102.219H726.25ZM728.75 126.5H692.125V131.5H728.75V126.5ZM692.125 126.5C688.088 126.5 684.791 125.523 682.111 123.682C679.421 121.833 677.175 118.993 675.454 114.983L670.859 116.955C672.867 121.632 675.647 125.307 679.28 127.803C682.922 130.305 687.246 131.5 692.125 131.5V126.5ZM675.514 115.138C674.827 113.187 674.5 111.333 674.5 109.562H669.5C669.5 111.959 669.944 114.375 670.798 116.8L675.514 115.138ZM674.5 109.562V84.1562H669.5V109.562H674.5ZM675.219 89.875V109.094H680.219V89.875H675.219ZM675.219 109.094C675.219 113.086 676.286 116.599 678.574 119.448C680.845 122.276 684.141 124.23 688.217 125.457L689.658 120.668C686.255 119.645 683.942 118.146 682.473 116.317C681.022 114.511 680.219 112.164 680.219 109.094H675.219ZM688.705 125.552C690.295 125.7 691.603 125.781 692.594 125.781V120.781C691.834 120.781 690.705 120.717 689.17 120.573L688.705 125.552ZM692.594 125.781H723.031V120.781H692.594V125.781ZM725.531 123.281V102.906H720.531V123.281H725.531ZM725.531 102.906C725.531 99.5123 724.553 96.4675 722.538 93.8955C720.549 91.3571 717.672 89.4337 714.11 88.02L712.265 92.6675C715.266 93.858 717.31 95.3304 718.602 96.9795C719.868 98.595 720.531 100.529 720.531 102.906H725.531ZM713.845 87.9318C712.524 87.5715 711.228 87.375 709.969 87.375V92.375C710.71 92.375 711.559 92.491 712.53 92.7557L713.845 87.9318ZM709.969 87.375H677.719V92.375H709.969V87.375ZM743.938 84.1562V81.6562H741.438V84.1562H743.938ZM772.906 84.1562H775.406V81.6562H772.906V84.1562ZM772.906 100.719H770.406V103.219H772.906V100.719ZM783.719 104.625L785.206 102.615L785.136 102.564L785.063 102.517L783.719 104.625ZM791.531 129V131.5H794.031V129H791.531ZM743.938 129H741.438V131.5H743.938V129ZM743.938 106.469H746.438V103.969H743.938V106.469ZM734.5 106.469H732V108.969H734.5V106.469ZM734.5 100.719V98.2188H732V100.719H734.5ZM743.938 100.719V103.219H746.438V100.719H743.938ZM749.688 89.9062V87.4062H747.188V89.9062H749.688ZM749.688 100.719H747.188V103.219H749.688V100.719ZM767.156 100.719V103.219H769.656V100.719H767.156ZM767.156 89.9062H769.656V87.4062H767.156V89.9062ZM749.688 106.469V103.969H747.188V106.469H749.688ZM749.688 123.25H747.188V125.75H749.688V123.25ZM785.781 123.25V125.75H788.281V123.25H785.781ZM777.281 107.625L778.276 105.332L778.225 105.309L778.172 105.289L777.281 107.625ZM743.938 86.6562H772.906V81.6562H743.938V86.6562ZM770.406 84.1562V100.719H775.406V84.1562H770.406ZM772.906 103.219C775.36 103.219 778.489 104.255 782.374 106.733L785.063 102.517C780.782 99.7867 776.702 98.2188 772.906 98.2188V103.219ZM782.232 106.635C786.632 109.891 789.031 115.084 789.031 122.781H794.031C794.031 113.978 791.222 107.067 785.206 102.615L782.232 106.635ZM789.031 122.781V129H794.031V122.781H789.031ZM791.531 126.5H743.938V131.5H791.531V126.5ZM746.438 129V106.469H741.438V129H746.438ZM743.938 103.969H734.5V108.969H743.938V103.969ZM737 106.469V100.719H732V106.469H737ZM734.5 103.219H743.938V98.2188H734.5V103.219ZM746.438 100.719V84.1562H741.438V100.719H746.438ZM747.188 89.9062V100.719H752.188V89.9062H747.188ZM749.688 103.219H767.156V98.2188H749.688V103.219ZM769.656 100.719V89.9062H764.656V100.719H769.656ZM767.156 87.4062H749.688V92.4062H767.156V87.4062ZM747.188 106.469V123.25H752.188V106.469H747.188ZM749.688 125.75H785.781V120.75H749.688V125.75ZM788.281 123.25V122.781H783.281V123.25H788.281ZM788.281 122.781C788.281 118.663 787.519 115.035 785.837 112.035C784.134 108.999 781.576 106.763 778.276 105.332L776.286 109.918C778.654 110.945 780.345 112.464 781.476 114.481C782.626 116.532 783.281 119.254 783.281 122.781H788.281ZM778.172 105.289C775.833 104.397 773.297 103.969 770.594 103.969V108.969C772.765 108.969 774.688 109.311 776.39 109.961L778.172 105.289ZM770.594 103.969H749.688V108.969H770.594V103.969ZM797 84.1562V81.6562H794.5V84.1562H797ZM853.812 84.1562H856.312V81.6562H853.812V84.1562ZM853.812 89.9062V92.4062H856.312V89.9062H853.812ZM797 89.9062H794.5V92.4062H797V89.9062ZM797 100.719V98.2188H794.5V100.719H797ZM853.812 100.719H856.312V98.2188H853.812V100.719ZM853.812 106.469V108.969H856.312V106.469H853.812ZM802.75 106.469V103.969H800.25V106.469H802.75ZM811.719 122.562L810.604 124.8L810.832 124.914L811.078 124.979L811.719 122.562ZM853.562 123.25H856.062V120.75H853.562V123.25ZM853.562 129V131.5H856.062V129H853.562ZM800.688 121.188L798.646 122.63L798.699 122.706L798.758 122.777L800.688 121.188ZM797 86.6562H853.812V81.6562H797V86.6562ZM851.312 84.1562V89.9062H856.312V84.1562H851.312ZM853.812 87.4062H797V92.4062H853.812V87.4062ZM799.5 89.9062V84.1562H794.5V89.9062H799.5ZM797 103.219H853.812V98.2188H797V103.219ZM851.312 100.719V106.469H856.312V100.719H851.312ZM853.812 103.969H802.75V108.969H853.812V103.969ZM800.25 106.469V110.594H805.25V106.469H800.25ZM800.25 110.594C800.25 116.865 804.11 121.564 810.604 124.8L812.834 120.325C807.37 117.602 805.25 114.323 805.25 110.594H800.25ZM811.078 124.979C812.885 125.458 814.503 125.75 815.844 125.75V120.75C815.142 120.75 814.011 120.584 812.359 120.146L811.078 124.979ZM815.844 125.75H853.562V120.75H815.844V125.75ZM851.062 123.25V129H856.062V123.25H851.062ZM853.562 126.5H815.156V131.5H853.562V126.5ZM815.156 126.5C810.737 126.5 806.568 124.393 802.617 119.598L798.758 122.777C803.39 128.399 808.867 131.5 815.156 131.5V126.5ZM802.729 119.745C800.479 116.561 799.5 113.68 799.5 111.062H794.5C794.5 114.986 795.979 118.856 798.646 122.63L802.729 119.745ZM799.5 111.062V100.719H794.5V111.062H799.5ZM868.719 84.0938V81.5938H866.219V84.0938H868.719ZM914.531 95.375L912.309 96.52L912.311 96.5241L914.531 95.375ZM916.375 129V131.5H918.875V129H916.375ZM859.5 129H857V131.5H859.5V129ZM859.5 123.25V120.75H857V123.25H859.5ZM868.719 123.25V125.75H871.219V123.25H868.719ZM874.469 89.8438V87.3438H871.969V89.8438H874.469ZM874.469 123.25H871.969V125.75H874.469V123.25ZM910.625 123.25V125.75H913.125V123.25H910.625ZM899.562 90.0938L900.304 87.7064L900.095 87.6413L899.877 87.6137L899.562 90.0938ZM868.719 86.5938H896.562V81.5938H868.719V86.5938ZM896.562 86.5938C900.215 86.5938 903.263 87.4361 905.804 89.0314C908.35 90.6304 910.536 93.0794 912.309 96.52L916.754 94.23C914.651 90.1498 911.905 86.9581 908.462 84.7968C905.013 82.6316 901.015 81.5938 896.562 81.5938V86.5938ZM912.311 96.5241C913.327 98.4863 913.875 100.84 913.875 103.656H918.875C918.875 100.181 918.194 97.0137 916.752 94.2259L912.311 96.5241ZM913.875 103.656V129H918.875V103.656H913.875ZM916.375 126.5H859.5V131.5H916.375V126.5ZM862 129V123.25H857V129H862ZM859.5 125.75H868.719V120.75H859.5V125.75ZM871.219 123.25V84.0938H866.219V123.25H871.219ZM871.969 89.8438V123.25H876.969V89.8438H871.969ZM874.469 125.75H910.625V120.75H874.469V125.75ZM913.125 123.25V104.125H908.125V123.25H913.125ZM913.125 104.125C913.125 100.141 912.076 96.6302 909.823 93.7725C907.585 90.9344 904.332 88.958 900.304 87.7064L898.821 92.4811C902.168 93.5212 904.446 95.0292 905.896 96.8681C907.331 98.6875 908.125 101.047 908.125 104.125H913.125ZM899.877 87.6137C898.513 87.4405 897.325 87.3438 896.344 87.3438V92.3438C897.029 92.3438 897.987 92.4137 899.248 92.5738L899.877 87.6137ZM896.344 87.3438H874.469V92.3438H896.344V87.3438ZM922 84.1562V81.6562H919.5V84.1562H922ZM978.812 84.1562H981.312V81.6562H978.812V84.1562ZM978.812 89.9062V92.4062H981.312V89.9062H978.812ZM922 89.9062H919.5V92.4062H922V89.9062ZM922 100.719V98.2188H919.5V100.719H922ZM978.812 100.719H981.312V98.2188H978.812V100.719ZM978.812 106.469V108.969H981.312V106.469H978.812ZM927.75 106.469V103.969H925.25V106.469H927.75ZM936.719 122.562L935.604 124.8L935.832 124.914L936.078 124.979L936.719 122.562ZM978.562 123.25H981.062V120.75H978.562V123.25ZM978.562 129V131.5H981.062V129H978.562ZM925.688 121.188L923.646 122.63L923.699 122.706L923.758 122.777L925.688 121.188ZM922 86.6562H978.812V81.6562H922V86.6562ZM976.312 84.1562V89.9062H981.312V84.1562H976.312ZM978.812 87.4062H922V92.4062H978.812V87.4062ZM924.5 89.9062V84.1562H919.5V89.9062H924.5ZM922 103.219H978.812V98.2188H922V103.219ZM976.312 100.719V106.469H981.312V100.719H976.312ZM978.812 103.969H927.75V108.969H978.812V103.969ZM925.25 106.469V110.594H930.25V106.469H925.25ZM925.25 110.594C925.25 116.865 929.11 121.564 935.604 124.8L937.834 120.325C932.37 117.602 930.25 114.323 930.25 110.594H925.25ZM936.078 124.979C937.885 125.458 939.503 125.75 940.844 125.75V120.75C940.142 120.75 939.011 120.584 937.359 120.146L936.078 124.979ZM940.844 125.75H978.562V120.75H940.844V125.75ZM976.062 123.25V129H981.062V123.25H976.062ZM978.562 126.5H940.156V131.5H978.562V126.5ZM940.156 126.5C935.737 126.5 931.568 124.393 927.617 119.598L923.758 122.777C928.39 128.399 933.867 131.5 940.156 131.5V126.5ZM927.729 119.745C925.479 116.561 924.5 113.68 924.5 111.062H919.5C919.5 114.986 920.979 118.856 923.646 122.63L927.729 119.745ZM924.5 111.062V100.719H919.5V111.062H924.5ZM984.5 84.1562V81.6562H982V84.1562H984.5ZM990.156 84.1562H992.656V81.6562H990.156V84.1562ZM990.156 100.219H987.656V102.719H990.156V100.219ZM1035.72 100.219V102.719H1038.22V100.219H1035.72ZM1035.72 84.1562V81.6562H1033.22V84.1562H1035.72ZM1041.38 84.1562H1043.88V81.6562H1041.38V84.1562ZM1041.38 129V131.5H1043.88V129H1041.38ZM1035.72 129H1033.22V131.5H1035.72V129ZM1035.72 105.875H1038.22V103.375H1035.72V105.875ZM990.156 105.875V103.375H987.656V105.875H990.156ZM990.156 129V131.5H992.656V129H990.156ZM984.5 129H982V131.5H984.5V129ZM984.5 86.6562H990.156V81.6562H984.5V86.6562ZM987.656 84.1562V100.219H992.656V84.1562H987.656ZM990.156 102.719H1035.72V97.7188H990.156V102.719ZM1038.22 100.219V84.1562H1033.22V100.219H1038.22ZM1035.72 86.6562H1041.38V81.6562H1035.72V86.6562ZM1038.88 84.1562V129H1043.88V84.1562H1038.88ZM1041.38 126.5H1035.72V131.5H1041.38V126.5ZM1038.22 129V105.875H1033.22V129H1038.22ZM1035.72 103.375H990.156V108.375H1035.72V103.375ZM987.656 105.875V129H992.656V105.875H987.656ZM990.156 126.5H984.5V131.5H990.156V126.5ZM987 129V84.1562H982V129H987ZM1047 84.0312V81.5312H1044.5V84.0312H1047ZM1052.75 84.0312H1055.25V81.5312H1052.75V84.0312ZM1052.75 123.25H1050.25V125.75H1052.75V123.25ZM1060.31 123.25V125.75H1061.46L1062.21 124.88L1060.31 123.25ZM1087.38 84.0312V81.5312H1086.05L1085.31 82.6213L1087.38 84.0312ZM1104.12 84.0312H1106.62V81.5312H1104.12V84.0312ZM1104.12 129V131.5H1106.62V129H1104.12ZM1098.16 129H1095.66V131.5H1098.16V129ZM1098.16 89.7812H1100.66V87.2812H1098.16V89.7812ZM1090.81 89.7812V87.2812H1089.94L1089.26 87.819L1090.81 89.7812ZM1063.75 129V131.5H1065.08L1065.82 130.4L1063.75 129ZM1047 129H1044.5V131.5H1047V129ZM1047 86.5312H1052.75V81.5312H1047V86.5312ZM1050.25 84.0312V123.25H1055.25V84.0312H1050.25ZM1052.75 125.75H1060.31V120.75H1052.75V125.75ZM1062.21 124.88C1062.53 124.501 1063.36 123.349 1064.55 121.65C1065.8 119.877 1067.55 117.354 1069.81 114.084C1074.32 107.542 1080.87 97.9942 1089.44 85.4412L1085.31 82.6213C1076.74 95.1724 1070.2 104.713 1065.69 111.244C1063.44 114.511 1061.7 117.02 1060.46 118.776C1059.84 119.654 1059.36 120.338 1059 120.831C1058.82 121.078 1058.68 121.27 1058.58 121.413C1058.46 121.57 1058.41 121.623 1058.42 121.62L1062.21 124.88ZM1087.38 86.5312H1104.12V81.5312H1087.38V86.5312ZM1101.62 84.0312V129H1106.62V84.0312H1101.62ZM1104.12 126.5H1098.16V131.5H1104.12V126.5ZM1100.66 129V89.7812H1095.66V129H1100.66ZM1098.16 87.2812H1090.81V92.2812H1098.16V87.2812ZM1089.26 87.819C1088.98 88.0432 1088.74 88.3308 1088.65 88.4424C1088.5 88.6191 1088.33 88.8368 1088.14 89.0834C1087.76 89.5799 1087.26 90.2649 1086.64 91.1281C1085.4 92.8585 1083.65 95.3631 1081.4 98.6348C1076.88 105.181 1070.3 114.838 1061.68 127.6L1065.82 130.4C1074.45 117.641 1081.01 108.001 1085.51 101.475C1087.76 98.2099 1089.49 95.734 1090.71 94.0399C1091.32 93.1908 1091.78 92.5526 1092.12 92.1148C1092.29 91.8943 1092.41 91.7421 1092.49 91.6462C1092.62 91.4852 1092.55 91.5974 1092.36 91.7435L1089.26 87.819ZM1063.75 126.5H1047V131.5H1063.75V126.5ZM1049.5 129V84.0312H1044.5V129H1049.5ZM1166.75 84.1562H1169.25V81.6562H1166.75V84.1562ZM1166.75 89.9062V92.4062H1169.25V89.9062H1166.75ZM1117.09 97.0312L1115.01 95.6572L1114.97 95.7047L1114.94 95.7536L1117.09 97.0312ZM1115.72 100.719L1113.31 100.063L1112.45 103.219H1115.72V100.719ZM1166.75 100.719H1169.25V98.2188H1166.75V100.719ZM1166.75 129V131.5H1169.25V129H1166.75ZM1161 129H1158.5V131.5H1161V129ZM1161 106.469H1163.5V103.969H1161V106.469ZM1134.56 106.469V103.969H1133.71L1133.04 104.489L1134.56 106.469ZM1119.38 126.25L1121.36 127.764L1121.37 127.754L1121.38 127.743L1119.38 126.25ZM1109.5 129H1107V131.5H1109.5V129ZM1109.5 128.781L1107.51 127.269L1107 127.939V128.781H1109.5ZM1126.28 106.688L1128.27 108.2L1128.78 107.529V106.688H1126.28ZM1126.28 106.469H1128.78V103.969H1126.28V106.469ZM1109.72 106.469H1107.22V108.969H1109.72V106.469ZM1121 85.7812L1120.04 83.473L1119.91 83.5257L1119.79 83.5919L1121 85.7812ZM1128.34 86.6562H1166.75V81.6562H1128.34V86.6562ZM1164.25 84.1562V89.9062H1169.25V84.1562H1164.25ZM1166.75 87.4062H1128.34V92.4062H1166.75V87.4062ZM1128.34 87.4062C1122.88 87.4062 1118.44 90.4405 1115.01 95.6572L1119.18 98.4053C1122 94.122 1125.06 92.4062 1128.34 92.4062V87.4062ZM1114.94 95.7536C1114.31 96.8255 1113.78 98.323 1113.31 100.063L1118.13 101.374C1118.58 99.7395 1118.96 98.7787 1119.24 98.3089L1114.94 95.7536ZM1115.72 103.219H1166.75V98.2188H1115.72V103.219ZM1164.25 100.719V129H1169.25V100.719H1164.25ZM1166.75 126.5H1161V131.5H1166.75V126.5ZM1163.5 129V106.469H1158.5V129H1163.5ZM1161 103.969H1134.56V108.969H1161V103.969ZM1133.04 104.489C1132.72 104.733 1132.4 105.088 1132.2 105.316C1131.95 105.609 1131.63 105.991 1131.26 106.449C1130.52 107.368 1129.51 108.659 1128.24 110.313C1125.69 113.625 1122.07 118.442 1117.37 124.757L1121.38 127.743C1126.08 121.433 1129.68 116.64 1132.2 113.358C1133.46 111.716 1134.44 110.464 1135.15 109.594C1135.5 109.158 1135.77 108.833 1135.97 108.609C1136.22 108.32 1136.22 108.345 1136.09 108.448L1133.04 104.489ZM1117.39 124.736C1116.69 125.645 1116.18 126.299 1115.83 126.716C1115.66 126.931 1115.55 127.045 1115.51 127.091C1115.48 127.12 1115.52 127.078 1115.6 127.012C1115.64 126.981 1115.74 126.897 1115.9 126.808C1115.98 126.763 1116.11 126.696 1116.29 126.636C1116.45 126.58 1116.73 126.5 1117.09 126.5V131.5C1117.76 131.5 1118.24 131.233 1118.35 131.17C1118.53 131.067 1118.67 130.962 1118.74 130.902C1118.89 130.778 1119.02 130.65 1119.1 130.565C1119.28 130.382 1119.48 130.152 1119.68 129.909C1120.1 129.409 1120.66 128.688 1121.36 127.764L1117.39 124.736ZM1117.09 126.5H1109.5V131.5H1117.09V126.5ZM1112 129V128.781H1107V129H1112ZM1111.49 130.293L1128.27 108.2L1124.29 105.175L1107.51 127.269L1111.49 130.293ZM1128.78 106.688V106.469H1123.78V106.688H1128.78ZM1126.28 103.969H1109.72V108.969H1126.28V103.969ZM1112.22 106.469V102.781H1107.22V106.469H1112.22ZM1112.22 102.781C1112.22 96.6983 1115.3 91.7789 1122.21 87.9706L1119.79 83.5919C1111.66 88.0752 1107.22 94.4892 1107.22 102.781H1112.22ZM1121.96 88.0895C1124.33 87.1044 1126.45 86.6562 1128.34 86.6562V81.6562C1125.66 81.6562 1122.88 82.2915 1120.04 83.473L1121.96 88.0895Z" fill="white"/>
<path d="M586.062 16.7422H613.543C613.543 17.6406 619.168 38.7734 630.418 80.1406H648.582C648.582 79.4766 654.207 58.3438 665.457 16.7422H692.938V101H682.273V27.8164H674.305C673.602 27.8164 670.652 38.4609 665.457 59.75C664.871 61.2734 661.902 71.7812 656.551 91.2734H621.98L605.105 27.8164H597.137V101H586.062V16.7422ZM703.25 16.918H809.773V27.6992H703.25V16.918ZM703.25 47.9727H809.773V58.7539H714.031V66.4883C714.031 75.8633 719.637 83.3438 730.848 88.9297C734.09 89.7891 736.668 90.2188 738.582 90.2188H809.305V101H737.293C727.254 101 718.211 96.1172 710.164 86.3516C705.555 79.8281 703.25 73.5 703.25 67.3672V47.9727ZM857.762 16.918H927.254V27.6406H859.461C845.633 27.6406 836.629 33.9297 832.449 46.5078C831.59 48.6562 831.16 51.8008 831.16 55.9414V62.3867C831.16 75.1211 836.746 83.8516 847.918 88.5781C850.73 89.7109 853.582 90.2773 856.473 90.2773H927.254V101H855.594C841.453 101 830.594 93.4219 823.016 78.2656C821.297 73.6953 820.438 68.5391 820.438 62.7969V54.2422C820.438 37.4062 828.875 25.5312 845.75 18.6172C849.852 17.4844 853.855 16.918 857.762 16.918ZM937.625 16.918H1044.03V27.6406H996.395V100.121C996.395 100.707 996.102 101 995.516 101H985.672V27.6406H937.625V16.918ZM1054.81 16.918H1126C1140.34 16.918 1151.36 24.6328 1159.05 40.0625C1160.5 44.7109 1161.22 48.2852 1161.22 50.7852V101H1092.55C1075.83 101 1063.97 92.8555 1056.98 76.5664C1055.54 72.4648 1054.81 68.4609 1054.81 64.5547V16.918ZM1065.54 27.6406V63.6758C1065.54 76.918 1072.55 85.6484 1086.57 89.8672C1089.5 90.1406 1091.79 90.2773 1093.43 90.2773H1150.5V52.0742C1150.5 41.2539 1144.34 33.4023 1132.04 28.5195C1129.89 27.9336 1127.88 27.6406 1126 27.6406H1065.54ZM0.125 142.918H106.766V227H96.1602V153.992H11.1992V227H0.125V142.918ZM117.312 142.449H187.156C203.719 142.449 215.438 150.457 222.312 166.473C223.797 169.832 224.539 173.699 224.539 178.074V184.754H128.445V227H117.312V174.031H212.996C212.996 168.914 209.285 163.426 201.863 157.566C197.645 154.91 193.641 153.582 189.852 153.582H117.312V142.449ZM234.5 142.918H305.691C320.027 142.918 331.043 150.633 338.738 166.062C340.184 170.711 340.906 174.285 340.906 176.785V227H272.234C255.516 227 243.66 218.855 236.668 202.566C235.223 198.465 234.5 194.461 234.5 190.555V142.918ZM245.223 153.641V189.676C245.223 202.918 252.234 211.648 266.258 215.867C269.188 216.141 271.473 216.277 273.113 216.277H330.184V178.074C330.184 167.254 324.031 159.402 311.727 154.52C309.578 153.934 307.566 153.641 305.691 153.641H245.223ZM369.383 142.918H423.699V173.973C429.559 173.973 436.316 176.414 443.973 181.297C453.738 188.523 458.621 199.871 458.621 215.34V227H369.383V184.754H351.688V173.973H369.383V142.918ZM380.164 153.699V173.973H412.918V153.699H380.164ZM380.164 184.754V216.219H447.84V215.34C447.84 201.004 442.527 191.531 431.902 186.922C428.113 185.477 423.934 184.754 419.363 184.754H380.164ZM468.875 142.918H575.398V153.699H468.875V142.918ZM468.875 173.973H575.398V184.754H479.656V192.488C479.656 201.863 485.262 209.344 496.473 214.93C499.715 215.789 502.293 216.219 504.207 216.219H574.93V227H502.918C492.879 227 483.836 222.117 475.789 212.352C471.18 205.828 468.875 199.5 468.875 193.367V173.973ZM603.348 142.801H655.555C670.75 142.801 681.98 149.852 689.246 163.953C691.551 168.406 692.703 173.582 692.703 179.48V227H586.062V216.219H603.348V142.801ZM614.129 153.582V216.219H681.922V180.359C681.922 167.117 675.008 158.348 661.18 154.051C658.719 153.738 656.707 153.582 655.145 153.582H614.129ZM703.25 142.918H809.773V153.699H703.25V142.918ZM703.25 173.973H809.773V184.754H714.031V192.488C714.031 201.863 719.637 209.344 730.848 214.93C734.09 215.789 736.668 216.219 738.582 216.219H809.305V227H737.293C727.254 227 718.211 222.117 710.164 212.352C705.555 205.828 703.25 199.5 703.25 193.367V173.973ZM820.438 142.918H831.043V173.035H916.473V142.918H927.078V227H916.473V183.641H831.043V227H820.438V142.918ZM937.625 142.684H948.406V216.219H962.586C964.266 214.266 981.18 189.754 1013.33 142.684H1044.73V227H1033.54V153.465H1019.77C1018.29 154.637 1001.38 179.148 969.031 227H937.625V142.684ZM1090.14 142.918H1162.16V153.699H1090.14C1081.94 153.699 1074.91 158.152 1069.05 167.059C1068.19 168.504 1067.33 170.809 1066.47 173.973H1162.16V227H1151.38V184.754H1101.8C1100.44 185.809 1090.95 198.172 1073.33 221.844C1070.71 225.281 1069.29 227 1069.05 227H1054.81V226.59L1086.28 185.164V184.754H1055.22V177.84C1055.22 164.363 1062.27 153.738 1076.38 145.965C1081.26 143.934 1085.85 142.918 1090.14 142.918Z" fill="white" fill-opacity="0.05"/>
<path d="M586.062 16.7422V10.3369H579.657V16.7422H586.062ZM613.543 16.7422H619.948V10.3369H613.543V16.7422ZM630.418 80.1406L624.237 81.8215L625.522 86.5459H630.418V80.1406ZM648.582 80.1406V86.5459H654.987V80.1406H648.582ZM665.457 16.7422V10.3369H660.554L659.274 15.0701L665.457 16.7422ZM692.938 16.7422H699.343V10.3369H692.938V16.7422ZM692.938 101V107.405H699.343V101H692.938ZM682.273 101H675.868V107.405H682.273V101ZM682.273 27.8164H688.679V21.4112H682.273V27.8164ZM665.457 59.75L671.435 62.0493L671.582 61.6668L671.68 61.2686L665.457 59.75ZM656.551 91.2734V97.6787H661.435L662.727 92.9692L656.551 91.2734ZM621.98 91.2734L615.79 92.9196L617.056 97.6787H621.98V91.2734ZM605.105 27.8164L611.296 26.1703L610.03 21.4112H605.105V27.8164ZM597.137 27.8164V21.4112H590.732V27.8164H597.137ZM597.137 101V107.405H603.542V101H597.137ZM586.062 101H579.657V107.405H586.062V101ZM586.062 23.1474H613.543V10.3369H586.062V23.1474ZM607.138 16.7422C607.138 17.3432 607.227 17.8512 607.237 17.9132C607.268 18.103 607.304 18.2857 607.334 18.4349C607.397 18.7398 607.479 19.1036 607.573 19.4992C607.762 20.3008 608.037 21.4059 608.391 22.7945C609.103 25.5806 610.164 29.6243 611.572 34.9132C614.389 45.4967 618.611 61.1352 624.237 81.8215L636.599 78.4597C630.974 57.7789 626.759 42.1673 623.951 31.6181C622.547 26.3405 621.499 22.3471 620.804 19.6254C620.455 18.2601 620.203 17.2436 620.041 16.556C619.958 16.207 619.909 15.9841 619.883 15.8607C619.792 15.4172 619.948 16.0036 619.948 16.7422H607.138ZM630.418 86.5459H648.582V73.7354H630.418V86.5459ZM654.987 80.1406C654.987 80.5744 654.94 80.9052 654.934 80.9504C654.919 81.0594 654.906 81.1362 654.901 81.1586C654.893 81.2063 654.891 81.2098 654.906 81.1416C654.934 81.0142 654.986 80.7903 655.069 80.446C655.235 79.7674 655.489 78.7592 655.839 77.4052C656.536 74.7047 657.585 70.7197 658.991 65.4405C661.8 54.8868 666.016 39.2131 671.64 18.4143L659.274 15.0701C653.648 35.8729 649.427 51.5664 646.611 62.1454C645.204 67.4326 644.144 71.4554 643.435 74.2042C643.081 75.5748 642.808 76.6516 642.622 77.4182C642.53 77.7966 642.45 78.1354 642.39 78.4109C642.361 78.5441 642.326 78.7091 642.296 78.8782C642.281 78.9613 642.259 79.0888 642.238 79.2386C642.227 79.3246 642.177 79.6861 642.177 80.1406H654.987ZM665.457 23.1474H692.938V10.3369H665.457V23.1474ZM686.532 16.7422V101H699.343V16.7422H686.532ZM692.938 94.5948H682.273V107.405H692.938V94.5948ZM688.679 101V27.8164H675.868V101H688.679ZM682.273 21.4112H674.305V34.2216H682.273V21.4112ZM674.305 21.4112C672.258 21.4112 670.856 22.3529 670.266 22.8184C669.62 23.3275 669.204 23.8518 668.996 24.1329C668.57 24.7089 668.293 25.2673 668.151 25.5661C667.834 26.2322 667.548 27.0053 667.298 27.7335C666.777 29.252 666.138 31.3982 665.393 34.0896C663.891 39.5105 661.836 47.5721 659.234 58.2314L671.68 61.2686C674.274 50.6389 676.291 42.7336 677.738 37.51C678.467 34.8791 679.023 33.0337 679.415 31.8911C679.621 31.2887 679.721 31.0638 679.721 31.0647C679.714 31.0797 679.683 31.1437 679.628 31.2407C679.579 31.3281 679.47 31.5154 679.297 31.7494C679.15 31.9474 678.792 32.4092 678.199 32.8768C677.661 33.3007 676.307 34.2216 674.305 34.2216V21.4112ZM659.479 57.4507C659.05 58.5662 658.057 61.9722 656.627 67.032C655.136 72.3088 653.051 79.8268 650.374 89.5776L662.727 92.9692C665.402 83.2279 667.477 75.7459 668.955 70.5149C669.694 67.8974 670.28 65.8601 670.714 64.3921C670.931 63.6568 671.105 63.0824 671.238 62.6584C671.385 62.1867 671.443 62.0302 671.435 62.0493L659.479 57.4507ZM656.551 84.8682H621.98V97.6787H656.551V84.8682ZM628.171 89.6273L611.296 26.1703L598.915 29.4625L615.79 92.9196L628.171 89.6273ZM605.105 21.4112H597.137V34.2216H605.105V21.4112ZM590.732 27.8164V101H603.542V27.8164H590.732ZM597.137 94.5948H586.062V107.405H597.137V94.5948ZM592.468 101V16.7422H579.657V101H592.468ZM703.25 16.918V10.5127H696.845V16.918H703.25ZM809.773 16.918H816.179V10.5127H809.773V16.918ZM809.773 27.6992V34.1045H816.179V27.6992H809.773ZM703.25 27.6992H696.845V34.1045H703.25V27.6992ZM703.25 47.9727V41.5674H696.845V47.9727H703.25ZM809.773 47.9727H816.179V41.5674H809.773V47.9727ZM809.773 58.7539V65.1591H816.179V58.7539H809.773ZM714.031 58.7539V52.3487H707.626V58.7539H714.031ZM730.848 88.9297L727.991 94.6627L728.576 94.9539L729.207 95.1211L730.848 88.9297ZM809.305 90.2188H815.71V83.8135H809.305V90.2188ZM809.305 101V107.405H815.71V101H809.305ZM710.164 86.3516L704.933 90.0478L705.07 90.2416L705.221 90.4248L710.164 86.3516ZM703.25 23.3232H809.773V10.5127H703.25V23.3232ZM803.368 16.918V27.6992H816.179V16.918H803.368ZM809.773 21.294H703.25V34.1045H809.773V21.294ZM709.655 27.6992V16.918H696.845V27.6992H709.655ZM703.25 54.3779H809.773V41.5674H703.25V54.3779ZM803.368 47.9727V58.7539H816.179V47.9727H803.368ZM809.773 52.3487H714.031V65.1591H809.773V52.3487ZM707.626 58.7539V66.4883H720.436V58.7539H707.626ZM707.626 66.4883C707.626 79.1195 715.46 88.4192 727.991 94.6627L733.704 83.1967C723.813 78.2683 720.436 72.607 720.436 66.4883H707.626ZM729.207 95.1211C732.647 96.0332 735.849 96.624 738.582 96.624V83.8135C737.487 83.8135 735.532 83.545 732.489 82.7383L729.207 95.1211ZM738.582 96.624H809.305V83.8135H738.582V96.624ZM802.899 90.2188V101H815.71V90.2188H802.899ZM809.305 94.5948H737.293V107.405H809.305V94.5948ZM737.293 94.5948C729.65 94.5948 722.282 90.9856 715.107 82.2783L705.221 90.4248C714.14 101.249 724.858 107.405 737.293 107.405V94.5948ZM715.395 82.6553C711.32 76.8879 709.655 71.8272 709.655 67.3672H696.845C696.845 75.1728 699.789 82.7683 704.933 90.0478L715.395 82.6553ZM709.655 67.3672V47.9727H696.845V67.3672H709.655ZM927.254 16.918H933.659V10.5127H927.254V16.918ZM927.254 27.6406V34.0459H933.659V27.6406H927.254ZM832.449 46.5078L838.396 48.8867L838.467 48.7091L838.528 48.5277L832.449 46.5078ZM847.918 88.5781L845.422 94.4771L845.473 94.4988L845.525 94.5195L847.918 88.5781ZM927.254 90.2773H933.659V83.8721H927.254V90.2773ZM927.254 101V107.405H933.659V101H927.254ZM823.016 78.2656L817.02 80.5203L817.138 80.8321L817.287 81.1301L823.016 78.2656ZM845.75 18.6172L844.045 12.4431L843.676 12.545L843.322 12.6901L845.75 18.6172ZM857.762 23.3232H927.254V10.5127H857.762V23.3232ZM920.849 16.918V27.6406H933.659V16.918H920.849ZM927.254 21.2354H859.461V34.0459H927.254V21.2354ZM859.461 21.2354C851.576 21.2354 844.496 23.0362 838.669 27.1063C832.818 31.1929 828.803 37.168 826.371 44.488L838.528 48.5277C840.275 43.2695 842.852 39.811 846.005 37.6085C849.182 35.3896 853.517 34.0459 859.461 34.0459V21.2354ZM826.502 44.129C825.189 47.4113 824.755 51.5262 824.755 55.9414H837.565C837.565 52.0754 837.991 49.9012 838.396 48.8867L826.502 44.129ZM824.755 55.9414V62.3867H837.565V55.9414H824.755ZM824.755 62.3867C824.755 69.6968 826.365 76.3283 829.954 81.9374C833.557 87.5685 838.853 91.6979 845.422 94.4771L850.414 82.6791C845.811 80.7318 842.728 78.1326 840.745 75.0333C838.748 71.912 837.565 67.811 837.565 62.3867H824.755ZM845.525 94.5195C849.06 95.9435 852.722 96.6826 856.473 96.6826V83.8721C854.442 83.8721 852.401 83.4784 850.311 82.6367L845.525 94.5195ZM856.473 96.6826H927.254V83.8721H856.473V96.6826ZM920.849 90.2773V101H933.659V90.2773H920.849ZM927.254 94.5948H855.594V107.405H927.254V94.5948ZM855.594 94.5948C849.741 94.5948 844.789 93.0505 840.509 90.0637C836.167 87.0337 832.186 82.2842 828.745 75.4011L817.287 81.1301C821.423 89.4033 826.661 96.021 833.178 100.569C839.758 105.16 847.306 107.405 855.594 107.405V94.5948ZM829.011 76.011C827.606 72.2761 826.843 67.9018 826.843 62.7969H814.032C814.032 69.1763 814.987 75.1145 817.02 80.5203L829.011 76.011ZM826.843 62.7969V54.2422H814.032V62.7969H826.843ZM826.843 54.2422C826.843 46.9397 828.654 41.1103 831.987 36.4189C835.346 31.6917 840.582 27.6568 848.178 24.5442L843.322 12.6901C834.043 16.4916 826.623 21.8513 821.544 28.999C816.44 36.1827 814.032 44.7087 814.032 54.2422H826.843ZM847.455 24.7913C851.051 23.7983 854.481 23.3232 857.762 23.3232V10.5127C853.23 10.5127 848.653 11.1705 844.045 12.4431L847.455 24.7913ZM937.625 16.918V10.5127H931.22V16.918H937.625ZM1044.03 16.918H1050.44V10.5127H1044.03V16.918ZM1044.03 27.6406V34.0459H1050.44V27.6406H1044.03ZM996.395 27.6406V21.2354H989.989V27.6406H996.395ZM985.672 101H979.267V107.405H985.672V101ZM985.672 27.6406H992.077V21.2354H985.672V27.6406ZM937.625 27.6406H931.22V34.0459H937.625V27.6406ZM937.625 23.3232H1044.03V10.5127H937.625V23.3232ZM1037.63 16.918V27.6406H1050.44V16.918H1037.63ZM1044.03 21.2354H996.395V34.0459H1044.03V21.2354ZM989.989 27.6406V100.121H1002.8V27.6406H989.989ZM989.989 100.121C989.989 99.4267 990.167 97.7295 991.646 96.2511C993.124 94.7727 994.821 94.5948 995.516 94.5948V107.405C996.796 107.405 998.933 107.081 1000.7 105.309C1002.48 103.538 1002.8 101.401 1002.8 100.121H989.989ZM995.516 94.5948H985.672V107.405H995.516V94.5948ZM992.077 101V27.6406H979.267V101H992.077ZM985.672 21.2354H937.625V34.0459H985.672V21.2354ZM944.03 27.6406V16.918H931.22V27.6406H944.03ZM1054.81 16.918V10.5127H1048.41V16.918H1054.81ZM1159.05 40.0625L1165.17 38.1608L1165.01 37.6667L1164.78 37.2038L1159.05 40.0625ZM1161.22 101V107.405H1167.62V101H1161.22ZM1056.98 76.5664L1050.94 78.6952L1051.01 78.8967L1051.09 79.093L1056.98 76.5664ZM1065.54 27.6406V21.2354H1059.13V27.6406H1065.54ZM1086.57 89.8672L1084.73 96.0009L1085.34 96.1852L1085.98 96.2447L1086.57 89.8672ZM1150.5 90.2773V96.6826H1156.9V90.2773H1150.5ZM1132.04 28.5195L1134.4 22.5659L1134.07 22.4341L1133.72 22.34L1132.04 28.5195ZM1054.81 23.3232H1126V10.5127H1054.81V23.3232ZM1126 23.3232C1131.95 23.3232 1136.98 24.8983 1141.34 27.9506C1145.76 31.0472 1149.82 35.8987 1153.32 42.9212L1164.78 37.2038C1160.59 28.7966 1155.29 22.0759 1148.69 17.4576C1142.03 12.7951 1134.39 10.5127 1126 10.5127V23.3232ZM1152.93 41.9642C1154.33 46.4636 1154.81 49.2835 1154.81 50.7852H1167.62C1167.62 47.2868 1166.66 42.9582 1165.17 38.1608L1152.93 41.9642ZM1154.81 50.7852V101H1167.62V50.7852H1154.81ZM1161.22 94.5948H1092.55V107.405H1161.22V94.5948ZM1092.55 94.5948C1085.27 94.5948 1079.44 92.8376 1074.74 89.6121C1070.02 86.3692 1066 81.3305 1062.87 74.0398L1051.09 79.093C1054.96 88.0914 1060.35 95.2694 1067.49 100.171C1074.65 105.09 1083.11 107.405 1092.55 107.405V94.5948ZM1063.02 74.4376C1061.79 70.943 1061.22 67.6585 1061.22 64.5547H1048.41C1048.41 69.2633 1049.28 73.9867 1050.94 78.6952L1063.02 74.4376ZM1061.22 64.5547V16.918H1048.41V64.5547H1061.22ZM1059.13 27.6406V63.6758H1071.94V27.6406H1059.13ZM1059.13 63.6758C1059.13 71.478 1061.22 78.4646 1065.8 84.1661C1070.33 89.8102 1076.85 93.6321 1084.73 96.0009L1088.42 83.7335C1082.27 81.8835 1078.27 79.2309 1075.79 76.1444C1073.36 73.1155 1071.94 69.1158 1071.94 63.6758H1059.13ZM1085.98 96.2447C1088.97 96.5246 1091.49 96.6826 1093.43 96.6826V83.8721C1092.08 83.8721 1090.03 83.7566 1087.17 83.4897L1085.98 96.2447ZM1093.43 96.6826H1150.5V83.8721H1093.43V96.6826ZM1156.9 90.2773V52.0742H1144.09V90.2773H1156.9ZM1156.9 52.0742C1156.9 45.3611 1154.96 39.2706 1150.92 34.1197C1146.95 29.0547 1141.27 25.2931 1134.4 22.5659L1129.68 34.4731C1135.11 36.6287 1138.66 39.2344 1140.84 42.021C1142.96 44.7216 1144.09 47.967 1144.09 52.0742H1156.9ZM1133.72 22.34C1131.13 21.6314 1128.54 21.2354 1126 21.2354V34.0459C1127.21 34.0459 1128.65 34.2358 1130.35 34.6991L1133.72 22.34ZM1126 21.2354H1065.54V34.0459H1126V21.2354ZM0.125 142.918V136.513H-6.28024V142.918H0.125ZM106.766 142.918H113.171V136.513H106.766V142.918ZM106.766 227V233.405H113.171V227H106.766ZM96.1602 227H89.7549V233.405H96.1602V227ZM96.1602 153.992H102.565V147.587H96.1602V153.992ZM11.1992 153.992V147.587H4.79398V153.992H11.1992ZM11.1992 227V233.405H17.6045V227H11.1992ZM0.125 227H-6.28024V233.405H0.125V227ZM0.125 149.323H106.766V136.513H0.125V149.323ZM100.36 142.918V227H113.171V142.918H100.36ZM106.766 220.595H96.1602V233.405H106.766V220.595ZM102.565 227V153.992H89.7549V227H102.565ZM96.1602 147.587H11.1992V160.397H96.1602V147.587ZM4.79398 153.992V227H17.6045V153.992H4.79398ZM11.1992 220.595H0.125V233.405H11.1992V220.595ZM6.53024 227V142.918H-6.28024V227H6.53024ZM117.312 142.449V136.044H110.907V142.449H117.312ZM222.312 166.473L216.427 168.999L216.44 169.03L216.454 169.061L222.312 166.473ZM224.539 184.754V191.159H230.944V184.754H224.539ZM128.445 184.754V178.349H122.04V184.754H128.445ZM128.445 227V233.405H134.851V227H128.445ZM117.312 227H110.907V233.405H117.312V227ZM117.312 174.031V167.626H110.907V174.031H117.312ZM212.996 174.031V180.436H219.401V174.031H212.996ZM201.863 157.566L205.832 152.539L205.565 152.328L205.276 152.146L201.863 157.566ZM117.312 153.582H110.907V159.987H117.312V153.582ZM117.312 148.854H187.156V136.044H117.312V148.854ZM187.156 148.854C194.369 148.854 200.128 150.583 204.753 153.744C209.401 156.92 213.359 161.854 216.427 168.999L228.198 163.946C224.391 155.076 219.052 147.998 211.981 143.167C204.888 138.32 196.506 136.044 187.156 136.044V148.854ZM216.454 169.061C217.516 171.465 218.134 174.423 218.134 178.074H230.944C230.944 172.975 230.078 168.199 228.171 163.884L216.454 169.061ZM218.134 178.074V184.754H230.944V178.074H218.134ZM224.539 178.349H128.445V191.159H224.539V178.349ZM122.04 184.754V227H134.851V184.754H122.04ZM128.445 220.595H117.312V233.405H128.445V220.595ZM123.718 227V174.031H110.907V227H123.718ZM117.312 180.436H212.996V167.626H117.312V180.436ZM219.401 174.031C219.401 165.799 213.572 158.649 205.832 152.539L197.894 162.594C204.999 168.203 206.591 172.029 206.591 174.031H219.401ZM205.276 152.146C200.351 149.045 195.174 147.177 189.852 147.177V159.987C192.107 159.987 194.938 160.775 198.45 162.987L205.276 152.146ZM189.852 147.177H117.312V159.987H189.852V147.177ZM123.718 153.582V142.449H110.907V153.582H123.718ZM234.5 142.918V136.513H228.095V142.918H234.5ZM338.738 166.062L344.855 164.161L344.701 163.667L344.47 163.204L338.738 166.062ZM340.906 227V233.405H347.311V227H340.906ZM236.668 202.566L230.627 204.695L230.698 204.897L230.782 205.093L236.668 202.566ZM245.223 153.641V147.235H238.817V153.641H245.223ZM266.258 215.867L264.413 222.001L265.025 222.185L265.663 222.245L266.258 215.867ZM330.184 216.277V222.683H336.589V216.277H330.184ZM311.727 154.52L314.089 148.566L313.757 148.434L313.412 148.34L311.727 154.52ZM234.5 149.323H305.691V136.513H234.5V149.323ZM305.691 149.323C311.636 149.323 316.672 150.898 321.031 153.951C325.452 157.047 329.504 161.899 333.006 168.921L344.47 163.204C340.277 154.797 334.974 148.076 328.379 143.458C321.722 138.795 314.082 136.513 305.691 136.513V149.323ZM332.622 167.964C334.021 172.464 334.501 175.283 334.501 176.785H347.311C347.311 173.287 346.346 168.958 344.855 164.161L332.622 167.964ZM334.501 176.785V227H347.311V176.785H334.501ZM340.906 220.595H272.234V233.405H340.906V220.595ZM272.234 220.595C264.954 220.595 259.126 218.838 254.431 215.612C249.71 212.369 245.683 207.33 242.554 200.04L230.782 205.093C234.645 214.091 240.042 221.269 247.177 226.171C254.337 231.09 262.796 233.405 272.234 233.405V220.595ZM242.709 200.438C241.478 196.943 240.905 193.659 240.905 190.555H228.095C228.095 195.263 228.968 199.987 230.627 204.695L242.709 200.438ZM240.905 190.555V142.918H228.095V190.555H240.905ZM238.817 153.641V189.676H251.628V153.641H238.817ZM238.817 189.676C238.817 197.478 240.908 204.465 245.487 210.166C250.02 215.81 256.539 219.632 264.413 222.001L268.103 209.733C261.954 207.883 257.954 205.231 255.475 202.144C253.043 199.115 251.628 195.116 251.628 189.676H238.817ZM265.663 222.245C268.662 222.525 271.177 222.683 273.113 222.683V209.872C271.768 209.872 269.713 209.757 266.853 209.49L265.663 222.245ZM273.113 222.683H330.184V209.872H273.113V222.683ZM336.589 216.277V178.074H323.778V216.277H336.589ZM336.589 178.074C336.589 171.361 334.647 165.271 330.611 160.12C326.642 155.055 320.962 151.293 314.089 148.566L309.364 160.473C314.796 162.629 318.344 165.234 320.528 168.021C322.644 170.722 323.778 173.967 323.778 178.074H336.589ZM313.412 148.34C310.814 147.631 308.23 147.235 305.691 147.235V160.046C306.902 160.046 308.342 160.236 310.041 160.699L313.412 148.34ZM305.691 147.235H245.223V160.046H305.691V147.235ZM369.383 142.918V136.513H362.978V142.918H369.383ZM423.699 142.918H430.104V136.513H423.699V142.918ZM423.699 173.973H417.294V180.378H423.699V173.973ZM443.973 181.297L447.783 176.148L447.604 176.016L447.417 175.896L443.973 181.297ZM458.621 227V233.405H465.026V227H458.621ZM369.383 227H362.978V233.405H369.383V227ZM369.383 184.754H375.788V178.349H369.383V184.754ZM351.688 184.754H345.282V191.159H351.688V184.754ZM351.688 173.973V167.567H345.282V173.973H351.688ZM369.383 173.973V180.378H375.788V173.973H369.383ZM380.164 153.699V147.294H373.759V153.699H380.164ZM380.164 173.973H373.759V180.378H380.164V173.973ZM412.918 173.973V180.378H419.323V173.973H412.918ZM412.918 153.699H419.323V147.294H412.918V153.699ZM380.164 184.754V178.349H373.759V184.754H380.164ZM380.164 216.219H373.759V222.624H380.164V216.219ZM447.84 216.219V222.624H454.245V216.219H447.84ZM431.902 186.922L434.452 181.046L434.32 180.989L434.185 180.937L431.902 186.922ZM369.383 149.323H423.699V136.513H369.383V149.323ZM417.294 142.918V173.973H430.104V142.918H417.294ZM423.699 180.378C427.84 180.378 433.38 182.138 440.529 186.697L447.417 175.896C439.253 170.69 431.277 167.567 423.699 167.567V180.378ZM440.163 186.446C447.859 192.141 452.216 201.289 452.216 215.34H465.026C465.026 198.454 459.618 184.906 447.783 176.148L440.163 186.446ZM452.216 215.34V227H465.026V215.34H452.216ZM458.621 220.595H369.383V233.405H458.621V220.595ZM375.788 227V184.754H362.978V227H375.788ZM369.383 178.349H351.688V191.159H369.383V178.349ZM358.093 184.754V173.973H345.282V184.754H358.093ZM351.688 180.378H369.383V167.567H351.688V180.378ZM375.788 173.973V142.918H362.978V173.973H375.788ZM373.759 153.699V173.973H386.569V153.699H373.759ZM380.164 180.378H412.918V167.567H380.164V180.378ZM419.323 173.973V153.699H406.513V173.973H419.323ZM412.918 147.294H380.164V160.104H412.918V147.294ZM373.759 184.754V216.219H386.569V184.754H373.759ZM380.164 222.624H447.84V209.814H380.164V222.624ZM454.245 216.219V215.34H441.435V216.219H454.245ZM454.245 215.34C454.245 207.414 452.78 200.302 449.442 194.35C446.054 188.308 440.958 183.869 434.452 181.046L429.353 192.798C433.471 194.585 436.345 197.186 438.269 200.617C440.244 204.138 441.435 208.929 441.435 215.34H454.245ZM434.185 180.937C429.581 179.181 424.615 178.349 419.363 178.349V191.159C423.252 191.159 426.646 191.772 429.62 192.907L434.185 180.937ZM419.363 178.349H380.164V191.159H419.363V178.349ZM468.875 142.918V136.513H462.47V142.918H468.875ZM575.398 142.918H581.804V136.513H575.398V142.918ZM575.398 153.699V160.104H581.804V153.699H575.398ZM468.875 153.699H462.47V160.104H468.875V153.699ZM468.875 173.973V167.567H462.47V173.973H468.875ZM575.398 173.973H581.804V167.567H575.398V173.973ZM575.398 184.754V191.159H581.804V184.754H575.398ZM479.656 184.754V178.349H473.251V184.754H479.656ZM496.473 214.93L493.616 220.663L494.2 220.954L494.832 221.121L496.473 214.93ZM574.93 216.219H581.335V209.814H574.93V216.219ZM574.93 227V233.405H581.335V227H574.93ZM475.789 212.352L470.558 216.048L470.695 216.242L470.846 216.425L475.789 212.352ZM468.875 149.323H575.398V136.513H468.875V149.323ZM568.993 142.918V153.699H581.804V142.918H568.993ZM575.398 147.294H468.875V160.104H575.398V147.294ZM475.28 153.699V142.918H462.47V153.699H475.28ZM468.875 180.378H575.398V167.567H468.875V180.378ZM568.993 173.973V184.754H581.804V173.973H568.993ZM575.398 178.349H479.656V191.159H575.398V178.349ZM473.251 184.754V192.488H486.061V184.754H473.251ZM473.251 192.488C473.251 205.12 481.085 214.419 493.616 220.663L499.329 209.197C489.438 204.268 486.061 198.607 486.061 192.488H473.251ZM494.832 221.121C498.272 222.033 501.474 222.624 504.207 222.624V209.814C503.112 209.814 501.157 209.545 498.114 208.738L494.832 221.121ZM504.207 222.624H574.93V209.814H504.207V222.624ZM568.524 216.219V227H581.335V216.219H568.524ZM574.93 220.595H502.918V233.405H574.93V220.595ZM502.918 220.595C495.275 220.595 487.907 216.986 480.732 208.278L470.846 216.425C479.765 227.249 490.483 233.405 502.918 233.405V220.595ZM481.02 208.655C476.945 202.888 475.28 197.827 475.28 193.367H462.47C462.47 201.173 465.414 208.768 470.558 216.048L481.02 208.655ZM475.28 193.367V173.973H462.47V193.367H475.28ZM603.348 142.801V136.396H596.942V142.801H603.348ZM689.246 163.953L683.552 166.887L683.558 166.897L689.246 163.953ZM692.703 227V233.405H699.108V227H692.703ZM586.062 227H579.657V233.405H586.062V227ZM586.062 216.219V209.814H579.657V216.219H586.062ZM603.348 216.219V222.624H609.753V216.219H603.348ZM614.129 153.582V147.177H607.724V153.582H614.129ZM614.129 216.219H607.724V222.624H614.129V216.219ZM681.922 216.219V222.624H688.327V216.219H681.922ZM661.18 154.051L663.08 147.934L662.544 147.767L661.987 147.697L661.18 154.051ZM603.348 149.206H655.555V136.396H603.348V149.206ZM655.555 149.206C662.127 149.206 667.516 150.718 671.968 153.514C676.436 156.319 680.341 160.655 683.552 166.887L694.94 161.019C690.885 153.149 685.542 146.91 678.78 142.664C672.002 138.409 664.177 136.396 655.555 136.396V149.206ZM683.558 166.897C685.315 170.293 686.298 174.426 686.298 179.48H699.108C699.108 172.738 697.787 166.52 694.935 161.009L683.558 166.897ZM686.298 179.48V227H699.108V179.48H686.298ZM692.703 220.595H586.062V233.405H692.703V220.595ZM592.468 227V216.219H579.657V227H592.468ZM586.062 222.624H603.348V209.814H586.062V222.624ZM609.753 216.219V142.801H596.942V216.219H609.753ZM607.724 153.582V216.219H620.534V153.582H607.724ZM614.129 222.624H681.922V209.814H614.129V222.624ZM688.327 216.219V180.359H675.517V216.219H688.327ZM688.327 180.359C688.327 172.577 686.272 165.6 681.766 159.885C677.3 154.22 670.867 150.354 663.08 147.934L659.279 160.168C665.321 162.045 669.258 164.711 671.706 167.816C674.115 170.871 675.517 174.899 675.517 180.359H688.327ZM661.987 147.697C659.394 147.367 657.086 147.177 655.145 147.177V159.987C656.328 159.987 658.044 160.109 660.373 160.405L661.987 147.697ZM655.145 147.177H614.129V159.987H655.145V147.177ZM703.25 142.918V136.513H696.845V142.918H703.25ZM809.773 142.918H816.179V136.513H809.773V142.918ZM809.773 153.699V160.104H816.179V153.699H809.773ZM703.25 153.699H696.845V160.104H703.25V153.699ZM703.25 173.973V167.567H696.845V173.973H703.25ZM809.773 173.973H816.179V167.567H809.773V173.973ZM809.773 184.754V191.159H816.179V184.754H809.773ZM714.031 184.754V178.349H707.626V184.754H714.031ZM730.848 214.93L727.991 220.663L728.576 220.954L729.207 221.121L730.848 214.93ZM809.305 216.219H815.71V209.814H809.305V216.219ZM809.305 227V233.405H815.71V227H809.305ZM710.164 212.352L704.933 216.048L705.07 216.242L705.221 216.425L710.164 212.352ZM703.25 149.323H809.773V136.513H703.25V149.323ZM803.368 142.918V153.699H816.179V142.918H803.368ZM809.773 147.294H703.25V160.104H809.773V147.294ZM709.655 153.699V142.918H696.845V153.699H709.655ZM703.25 180.378H809.773V167.567H703.25V180.378ZM803.368 173.973V184.754H816.179V173.973H803.368ZM809.773 178.349H714.031V191.159H809.773V178.349ZM707.626 184.754V192.488H720.436V184.754H707.626ZM707.626 192.488C707.626 205.12 715.46 214.419 727.991 220.663L733.704 209.197C723.813 204.268 720.436 198.607 720.436 192.488H707.626ZM729.207 221.121C732.647 222.033 735.849 222.624 738.582 222.624V209.814C737.487 209.814 735.532 209.545 732.489 208.738L729.207 221.121ZM738.582 222.624H809.305V209.814H738.582V222.624ZM802.899 216.219V227H815.71V216.219H802.899ZM809.305 220.595H737.293V233.405H809.305V220.595ZM737.293 220.595C729.65 220.595 722.282 216.986 715.107 208.278L705.221 216.425C714.14 227.249 724.858 233.405 737.293 233.405V220.595ZM715.395 208.655C711.32 202.888 709.655 197.827 709.655 193.367H696.845C696.845 201.173 699.789 208.768 704.933 216.048L715.395 208.655ZM709.655 193.367V173.973H696.845V193.367H709.655ZM820.438 142.918V136.513H814.032V142.918H820.438ZM831.043 142.918H837.448V136.513H831.043V142.918ZM831.043 173.035H824.638V179.44H831.043V173.035ZM916.473 173.035V179.44H922.878V173.035H916.473ZM916.473 142.918V136.513H910.067V142.918H916.473ZM927.078 142.918H933.483V136.513H927.078V142.918ZM927.078 227V233.405H933.483V227H927.078ZM916.473 227H910.067V233.405H916.473V227ZM916.473 183.641H922.878V177.235H916.473V183.641ZM831.043 183.641V177.235H824.638V183.641H831.043ZM831.043 227V233.405H837.448V227H831.043ZM820.438 227H814.032V233.405H820.438V227ZM820.438 149.323H831.043V136.513H820.438V149.323ZM824.638 142.918V173.035H837.448V142.918H824.638ZM831.043 179.44H916.473V166.63H831.043V179.44ZM922.878 173.035V142.918H910.067V173.035H922.878ZM916.473 149.323H927.078V136.513H916.473V149.323ZM920.673 142.918V227H933.483V142.918H920.673ZM927.078 220.595H916.473V233.405H927.078V220.595ZM922.878 227V183.641H910.067V227H922.878ZM916.473 177.235H831.043V190.046H916.473V177.235ZM824.638 183.641V227H837.448V183.641H824.638ZM831.043 220.595H820.438V233.405H831.043V220.595ZM826.843 227V142.918H814.032V227H826.843ZM937.625 142.684V136.278H931.22V142.684H937.625ZM948.406 142.684H954.811V136.278H948.406V142.684ZM948.406 216.219H942.001V222.624H948.406V216.219ZM962.586 216.219V222.624H965.526L967.442 220.395L962.586 216.219ZM1013.33 142.684V136.278H1009.95L1008.04 139.071L1013.33 142.684ZM1044.73 142.684H1051.14V136.278H1044.73V142.684ZM1044.73 227V233.405H1051.14V227H1044.73ZM1033.54 227H1027.14V233.405H1033.54V227ZM1033.54 153.465H1039.95V147.06H1033.54V153.465ZM1019.77 153.465V147.06H1017.55L1015.8 148.437L1019.77 153.465ZM969.031 227V233.405H972.433L974.338 230.587L969.031 227ZM937.625 227H931.22V233.405H937.625V227ZM937.625 149.089H948.406V136.278H937.625V149.089ZM942.001 142.684V216.219H954.811V142.684H942.001ZM948.406 222.624H962.586V209.814H948.406V222.624ZM967.442 220.395C968.125 219.602 969.736 217.347 971.943 214.206C974.283 210.876 977.571 206.141 981.803 200.008C990.269 187.739 1002.54 169.834 1018.62 146.296L1008.04 139.071C991.966 162.604 979.707 180.489 971.259 192.732C967.034 198.855 963.77 203.556 961.461 206.842C960.306 208.487 959.4 209.761 958.739 210.677C958.004 211.693 957.726 212.046 957.73 212.042L967.442 220.395ZM1013.33 149.089H1044.73V136.278H1013.33V149.089ZM1038.33 142.684V227H1051.14V142.684H1038.33ZM1044.73 220.595H1033.54V233.405H1044.73V220.595ZM1039.95 227V153.465H1027.14V227H1039.95ZM1033.54 147.06H1019.77V159.87H1033.54V147.06ZM1015.8 148.437C1015.11 148.985 1014.56 149.662 1014.4 149.854C1014.1 150.213 1013.76 150.644 1013.4 151.115C1012.67 152.066 1011.72 153.367 1010.56 154.99C1008.23 158.247 1004.94 162.953 1000.7 169.09C992.228 181.372 979.899 199.483 963.725 223.413L974.338 230.587C990.507 206.666 1002.81 188.595 1011.25 176.365C1015.47 170.246 1018.71 165.614 1020.97 162.45C1022.11 160.863 1022.98 159.682 1023.59 158.882C1023.9 158.477 1024.1 158.214 1024.23 158.062C1024.5 157.743 1024.25 158.091 1023.74 158.492L1015.8 148.437ZM969.031 220.595H937.625V233.405H969.031V220.595ZM944.03 227V142.684H931.22V227H944.03ZM1162.16 142.918H1168.56V136.513H1162.16V142.918ZM1162.16 153.699V160.104H1168.56V153.699H1162.16ZM1069.05 167.059L1063.7 163.538L1063.62 163.66L1063.55 163.785L1069.05 167.059ZM1066.47 173.973L1060.29 172.294L1058.1 180.378H1066.47V173.973ZM1162.16 173.973H1168.56V167.567H1162.16V173.973ZM1162.16 227V233.405H1168.56V227H1162.16ZM1151.38 227H1144.97V233.405H1151.38V227ZM1151.38 184.754H1157.78V178.349H1151.38V184.754ZM1101.8 184.754V178.349H1099.62L1097.89 179.682L1101.8 184.754ZM1073.33 221.844L1078.42 225.724L1078.45 225.696L1078.47 225.668L1073.33 221.844ZM1054.81 227H1048.41V233.405H1054.81V227ZM1054.81 226.59L1049.71 222.716L1048.41 224.433V226.59H1054.81ZM1086.28 185.164L1091.38 189.038L1092.68 187.321V185.164H1086.28ZM1086.28 184.754H1092.68V178.349H1086.28V184.754ZM1055.22 184.754H1048.82V191.159H1055.22V184.754ZM1076.38 145.965L1073.91 140.051L1073.59 140.186L1073.28 140.355L1076.38 145.965ZM1090.14 149.323H1162.16V136.513H1090.14V149.323ZM1155.75 142.918V153.699H1168.56V142.918H1155.75ZM1162.16 147.294H1090.14V160.104H1162.16V147.294ZM1090.14 147.294C1079.15 147.294 1070.35 153.436 1063.7 163.538L1074.4 170.579C1079.47 162.869 1084.73 160.104 1090.14 160.104V147.294ZM1063.55 163.785C1062.23 166.002 1061.19 168.994 1060.29 172.294L1072.65 175.652C1073.48 172.623 1074.16 171.006 1074.56 170.332L1063.55 163.785ZM1066.47 180.378H1162.16V167.567H1066.47V180.378ZM1155.75 173.973V227H1168.56V173.973H1155.75ZM1162.16 220.595H1151.38V233.405H1162.16V220.595ZM1157.78 227V184.754H1144.97V227H1157.78ZM1151.38 178.349H1101.8V191.159H1151.38V178.349ZM1097.89 179.682C1097.14 180.259 1096.45 181.054 1096.09 181.46C1095.59 182.035 1094.98 182.769 1094.28 183.636C1092.87 185.376 1090.96 187.811 1088.58 190.917C1083.8 197.137 1077 206.176 1068.19 218.02L1078.47 225.668C1087.27 213.839 1094.02 204.861 1098.74 198.718C1101.1 195.642 1102.93 193.309 1104.23 191.695C1104.89 190.884 1105.38 190.294 1105.73 189.899C1106.22 189.334 1106.12 189.512 1105.72 189.825L1097.89 179.682ZM1068.23 217.964C1066.94 219.664 1065.99 220.867 1065.37 221.621C1065.21 221.805 1065.09 221.949 1065 222.057C1064.95 222.111 1064.91 222.152 1064.89 222.182C1064.87 222.197 1064.86 222.208 1064.85 222.216C1064.85 222.224 1064.84 222.228 1064.84 222.228C1064.84 222.228 1064.84 222.226 1064.85 222.224C1064.85 222.222 1064.85 222.218 1064.86 222.213C1064.87 222.204 1064.88 222.188 1064.91 222.166C1064.94 222.13 1065.04 222.045 1065.17 221.936C1065.28 221.846 1065.56 221.623 1065.98 221.392C1066.19 221.273 1066.53 221.099 1066.97 220.945C1067.39 220.799 1068.12 220.595 1069.05 220.595V233.405C1070.76 233.405 1071.96 232.723 1072.24 232.567C1072.7 232.309 1073.04 232.046 1073.22 231.903C1073.59 231.606 1073.88 231.307 1074.06 231.128C1074.43 230.737 1074.84 230.268 1075.23 229.8C1076.03 228.836 1077.1 227.461 1078.42 225.724L1068.23 217.964ZM1069.05 220.595H1054.81V233.405H1069.05V220.595ZM1061.22 227V226.59H1048.41V227H1061.22ZM1059.91 230.464L1091.38 189.038L1081.18 181.29L1049.71 222.716L1059.91 230.464ZM1092.68 185.164V184.754H1079.87V185.164H1092.68ZM1086.28 178.349H1055.22V191.159H1086.28V178.349ZM1061.63 184.754V177.84H1048.82V184.754H1061.63ZM1061.63 177.84C1061.63 167.193 1066.93 158.483 1079.47 151.574L1073.28 140.355C1057.61 148.994 1048.82 161.533 1048.82 177.84H1061.63ZM1078.84 151.879C1083.11 150.099 1086.86 149.323 1090.14 149.323V136.513C1084.83 136.513 1079.4 137.768 1073.91 140.051L1078.84 151.879Z" fill="white" fill-opacity="0.05"/>
</svg>
