<svg width="364" height="90" viewBox="0 0 364 90" fill="none" xmlns="http://www.w3.org/2000/svg">
<path d="M0 0.375H113.625V11.8125H0V0.375ZM0.9375 33.3125H113.562C113.604 33.3958 113.625 33.7083 113.625 34.25V44.75H11.4375V90H0.9375C0.3125 90 0 89.6875 0 89.0625V34.25C0.0833333 33.625 0.395833 33.3125 0.9375 33.3125ZM161.5 0.5H238.688V11.9375H162.438C151.479 11.9375 143.104 18.3333 137.312 31.125C137.312 32.125 137.167 32.875 136.875 33.375H237.812C238.396 33.4583 238.688 33.7708 238.688 34.3125V90H227.312V44.8125H136.438V90H125V38.875C125 22.7917 133.375 10.7708 150.125 2.8125C154.75 1.27083 158.542 0.5 161.5 0.5ZM288 0.3125H363.938V48.8125C363.938 58.6042 361.333 67.1458 356.125 74.4375C356.542 74.4375 359 76.875 363.5 81.75C363.5 82.1667 360.896 84.7708 355.688 89.5625C355.312 89.5625 352.875 87.125 348.375 82.25C340.875 87.4167 332.646 90 323.688 90H250.938C250.312 90 250 89.6875 250 89.0625V44.25C250 23.625 258.396 9.75 275.188 2.625C279.854 1.08333 284.125 0.3125 288 0.3125ZM261.875 37.375V78.5625H322.75C328.833 78.5625 334.479 77.1875 339.688 74.4375V74L327.812 61.625C327.812 61.25 330.396 58.6667 335.562 53.875L347.938 65.75H348.375C351.125 60.5417 352.5 54.8958 352.5 48.8125V11.75H288C276.375 11.75 267.979 18.3125 262.812 31.4375C262.188 32.8125 261.875 34.7917 261.875 37.375Z" fill="white"/>
<path d="M0 0.375V-2.625H-3V0.375H0ZM113.625 0.375H116.625V-2.625H113.625V0.375ZM113.625 11.8125V14.8125H116.625V11.8125H113.625ZM0 11.8125H-3V14.8125H0V11.8125ZM113.562 33.3125L116.246 31.9709L115.417 30.3125H113.562V33.3125ZM113.625 44.75V47.75H116.625V44.75H113.625ZM11.4375 44.75V41.75H8.4375V44.75H11.4375ZM11.4375 90V93H14.4375V90H11.4375ZM0 34.25L-2.97368 33.8535L-3 34.0509V34.25H0ZM0 3.375H113.625V-2.625H0V3.375ZM110.625 0.375V11.8125H116.625V0.375H110.625ZM113.625 8.8125H0V14.8125H113.625V8.8125ZM3 11.8125V0.375H-3V11.8125H3ZM0.9375 36.3125H113.562V30.3125H0.9375V36.3125ZM110.879 34.6541C110.812 34.5189 110.766 34.402 110.737 34.3189C110.708 34.2336 110.687 34.1611 110.673 34.1074C110.646 34.0033 110.633 33.924 110.627 33.8859C110.615 33.8116 110.614 33.7768 110.616 33.8089C110.62 33.868 110.625 34.0054 110.625 34.25H116.625C116.625 33.953 116.62 33.6633 116.603 33.4098C116.594 33.2857 116.58 33.1233 116.553 32.9501C116.539 32.8634 116.477 32.4339 116.246 31.9709L110.879 34.6541ZM110.625 34.25V44.75H116.625V34.25H110.625ZM113.625 41.75H11.4375V47.75H113.625V41.75ZM8.4375 44.75V90H14.4375V44.75H8.4375ZM11.4375 87H0.9375V93H11.4375V87ZM0.9375 87C1.08743 87 1.75091 87.0395 2.3557 87.6443C2.96048 88.2491 3 88.9126 3 89.0625H-3C-3 89.8374 -2.80423 90.9697 -1.88695 91.8869C-0.969656 92.8042 0.162566 93 0.9375 93V87ZM3 89.0625V34.25H-3V89.0625H3ZM2.97368 34.6465C2.96437 34.7163 2.88958 35.1968 2.4182 35.6682C1.88989 36.1965 1.27145 36.3125 0.9375 36.3125V30.3125C0.0618858 30.3125 -0.98364 30.5847 -1.82445 31.4256C-2.60833 32.2094 -2.88104 33.1587 -2.97368 33.8535L2.97368 34.6465ZM238.688 0.5H241.688V-2.5H238.688V0.5ZM238.688 11.9375V14.9375H241.688V11.9375H238.688ZM137.312 31.125L134.58 29.8876L134.312 30.4775V31.125H137.312ZM136.875 33.375L134.284 31.8634L131.652 36.375H136.875V33.375ZM237.812 33.375L238.237 30.4052L238.026 30.375H237.812V33.375ZM238.688 90V93H241.688V90H238.688ZM227.312 90H224.312V93H227.312V90ZM227.312 44.8125H230.312V41.8125H227.312V44.8125ZM136.438 44.8125V41.8125H133.438V44.8125H136.438ZM136.438 90V93H139.438V90H136.438ZM125 90H122V93H125V90ZM150.125 2.8125L149.176 -0.0335503L149.003 0.0242958L148.838 0.102798L150.125 2.8125ZM161.5 3.5H238.688V-2.5H161.5V3.5ZM235.688 0.5V11.9375H241.688V0.5H235.688ZM238.688 8.9375H162.438V14.9375H238.688V8.9375ZM162.438 8.9375C156.328 8.9375 150.849 10.736 146.117 14.3501C141.426 17.9325 137.615 23.1844 134.58 29.8876L140.045 32.3624C142.802 26.2739 146.074 21.9321 149.758 19.1186C153.401 16.3369 157.588 14.9375 162.438 14.9375V8.9375ZM134.312 31.125C134.312 31.488 134.285 31.726 134.258 31.8649C134.23 32.0088 134.215 31.9806 134.284 31.8634L139.466 34.8866C140.156 33.7047 140.312 32.3184 140.312 31.125H134.312ZM136.875 36.375H237.812V30.375H136.875V36.375ZM237.388 36.3448C237.256 36.326 236.746 36.2229 236.276 35.7188C235.775 35.1823 235.688 34.5903 235.688 34.3125H241.688C241.688 33.493 241.454 32.4739 240.662 31.6249C239.9 30.8083 238.952 30.5074 238.237 30.4052L237.388 36.3448ZM235.688 34.3125V90H241.688V34.3125H235.688ZM238.688 87H227.312V93H238.688V87ZM230.312 90V44.8125H224.312V90H230.312ZM227.312 41.8125H136.438V47.8125H227.312V41.8125ZM133.438 44.8125V90H139.438V44.8125H133.438ZM136.438 87H125V93H136.438V87ZM128 90V38.875H122V90H128ZM128 38.875C128 31.3838 129.94 24.9699 133.743 19.5118C137.563 14.0289 143.386 9.33599 151.412 5.5222L148.838 0.102798C140.114 4.24734 133.375 9.54405 128.82 16.0819C124.247 22.6447 122 30.2829 122 38.875H128ZM151.074 5.65855C155.564 4.16179 159.005 3.5 161.5 3.5V-2.5C158.078 -2.5 153.936 -1.62012 149.176 -0.0335503L151.074 5.65855ZM363.938 0.3125H366.938V-2.6875H363.938V0.3125ZM356.125 74.4375L353.684 72.6938L350.295 77.4375H356.125V74.4375ZM363.5 81.75H366.5V80.577L365.704 79.7152L363.5 81.75ZM355.688 89.5625V92.5625H356.858L357.719 91.7703L355.688 89.5625ZM348.375 82.25L350.579 80.2152L348.815 78.3038L346.673 79.7795L348.375 82.25ZM275.188 2.625L274.246 -0.223583L274.129 -0.184874L274.016 -0.136671L275.188 2.625ZM261.875 78.5625H258.875V81.5625H261.875V78.5625ZM339.688 74.4375L341.088 77.0904L342.688 76.246V74.4375H339.688ZM339.688 74H342.688V72.7934L341.852 71.9229L339.688 74ZM327.812 61.625H324.812V62.8316L325.648 63.7021L327.812 61.625ZM335.562 53.875L337.64 51.7104L335.598 49.7509L333.523 51.6754L335.562 53.875ZM347.938 65.75L345.86 67.9146L346.731 68.75H347.938V65.75ZM348.375 65.75V68.75H350.184L351.028 67.1507L348.375 65.75ZM352.5 11.75H355.5V8.75H352.5V11.75ZM262.812 31.4375L265.544 32.6789L265.576 32.6084L265.604 32.5364L262.812 31.4375ZM288 3.3125H363.938V-2.6875H288V3.3125ZM360.938 0.3125V48.8125H366.938V0.3125H360.938ZM360.938 48.8125C360.938 58.0399 358.495 65.9584 353.684 72.6938L358.566 76.1812C364.172 68.3333 366.938 59.1685 366.938 48.8125H360.938ZM356.125 77.4375C355.512 77.4375 355.081 77.2402 354.988 77.1982C354.837 77.1295 354.743 77.0681 354.729 77.0587C354.697 77.0377 354.739 77.063 354.88 77.1828C355.15 77.4117 355.572 77.8043 356.169 78.396C357.35 79.5671 359.054 81.3562 361.296 83.7848L365.704 79.7152C363.446 77.2688 361.671 75.4017 360.394 74.1353C359.761 73.5082 359.209 72.9867 358.76 72.6063C358.542 72.4213 358.288 72.2181 358.025 72.0448C357.895 71.9592 357.702 71.8407 357.466 71.7339C357.29 71.6538 356.79 71.4375 356.125 71.4375V77.4375ZM360.5 81.75C360.5 81.1039 360.719 80.652 360.756 80.5739C360.826 80.4263 360.886 80.3377 360.892 80.3292C360.907 80.3079 360.871 80.3608 360.74 80.5138C360.487 80.807 360.06 81.2598 359.426 81.8943C358.169 83.1513 356.252 84.9665 353.656 87.3547L357.719 91.7703C360.331 89.3669 362.321 87.4841 363.668 86.1369C364.336 85.4694 364.886 84.8935 365.284 84.4315C365.478 84.2069 365.687 83.9505 365.864 83.6884C365.951 83.5595 366.072 83.3675 366.183 83.1336C366.26 82.9692 366.5 82.4482 366.5 81.75H360.5ZM355.688 86.5625C356.355 86.5625 356.823 86.7963 356.894 86.8309C357.043 86.9025 357.134 86.9651 357.144 86.9723C357.171 86.9903 357.126 86.9612 356.984 86.8384C356.714 86.6042 356.293 86.2067 355.699 85.6131C354.524 84.4376 352.822 82.6448 350.579 80.2152L346.171 84.2848C348.428 86.7302 350.195 88.5936 351.457 89.8557C352.082 90.4808 352.622 90.9974 353.055 91.3725C353.265 91.5545 353.507 91.7538 353.756 91.9242C353.878 92.0076 354.064 92.1273 354.292 92.2369C354.443 92.3097 354.973 92.5625 355.688 92.5625V86.5625ZM346.673 79.7795C339.665 84.6074 332.027 87 323.688 87V93C333.264 93 342.085 90.2259 350.077 84.7205L346.673 79.7795ZM323.688 87H250.938V93H323.688V87ZM250.938 87C251.087 87 251.751 87.0395 252.356 87.6443C252.96 88.2491 253 88.9126 253 89.0625H247C247 89.8374 247.196 90.9697 248.113 91.8869C249.03 92.8042 250.163 93 250.938 93V87ZM253 89.0625V44.25H247V89.0625H253ZM253 44.25C253 34.3382 255.017 26.2857 258.864 19.9281C262.695 13.5963 268.468 8.73498 276.359 5.38667L274.016 -0.136671C265.115 3.64002 258.295 9.27872 253.73 16.8219C249.181 24.3393 247 33.5368 247 44.25H253ZM276.129 5.47358C280.569 4.0066 284.517 3.3125 288 3.3125V-2.6875C283.733 -2.6875 279.139 -1.83994 274.246 -0.223583L276.129 5.47358ZM258.875 37.375V78.5625H264.875V37.375H258.875ZM261.875 81.5625H322.75V75.5625H261.875V81.5625ZM322.75 81.5625C329.305 81.5625 335.434 80.076 341.088 77.0904L338.287 71.7846C333.525 74.299 328.362 75.5625 322.75 75.5625V81.5625ZM342.688 74.4375V74H336.688V74.4375H342.688ZM341.852 71.9229L329.977 59.5479L325.648 63.7021L337.523 76.0771L341.852 71.9229ZM330.812 61.625C330.812 62.3217 330.558 62.8066 330.53 62.8618C330.459 63.0054 330.399 63.0908 330.395 63.0957C330.384 63.1115 330.423 63.056 330.557 62.9029C330.812 62.6101 331.24 62.1587 331.871 61.5276C333.122 60.2767 335.026 58.4637 337.602 56.0746L333.523 51.6754C330.932 54.078 328.961 55.9524 327.629 57.2849C326.968 57.9454 326.427 58.5097 326.037 58.9564C325.848 59.1732 325.645 59.4184 325.472 59.666C325.388 59.7868 325.267 59.9709 325.155 60.1958C325.087 60.3324 324.812 60.8814 324.812 61.625H330.812ZM333.485 56.0396L345.86 67.9146L350.015 63.5854L337.64 51.7104L333.485 56.0396ZM347.938 68.75H348.375V62.75H347.938V68.75ZM351.028 67.1507C354.013 61.4962 355.5 55.3674 355.5 48.8125H349.5C349.5 54.4243 348.237 59.5871 345.722 64.3493L351.028 67.1507ZM355.5 48.8125V11.75H349.5V48.8125H355.5ZM352.5 8.75H288V14.75H352.5V8.75ZM288 8.75C281.583 8.75 275.911 10.5765 271.137 14.3082C266.402 18.0094 262.739 23.4344 260.021 30.3386L265.604 32.5364C268.053 26.3156 271.171 21.8968 274.832 19.0355C278.453 16.2048 282.792 14.75 288 14.75V8.75ZM260.081 30.1961C259.196 32.1445 258.875 34.6258 258.875 37.375H264.875C264.875 34.9576 265.179 33.4805 265.544 32.6789L260.081 30.1961Z" fill="white"/>
</svg>
