<svg width="310" height="34" viewBox="0 0 310 34" fill="none" xmlns="http://www.w3.org/2000/svg">
<path d="M0.174454 0.536109H42.6165V34H38.3956V4.94355H4.58189V34H0.174454V0.536109ZM46.814 0.349551H74.6112C81.2029 0.349551 85.8669 3.53659 88.6031 9.91066C89.1938 11.2477 89.4892 12.7868 89.4892 14.528V17.1864H51.2448V34H46.814V12.9189H84.8952C84.8952 10.8823 83.4183 8.69803 80.4645 6.36606C78.7854 5.30889 77.1919 4.78031 75.6839 4.78031H46.814V0.349551ZM107.072 0.606069H135.872V4.87359H107.422C103.333 4.87359 100.209 7.25998 98.0476 12.0328C98.0476 12.4059 97.9932 12.6857 97.8843 12.8723H135.546C135.763 12.9034 135.872 13.02 135.872 13.2221V34H131.628V17.1398H97.7211V34H93.4536V14.9244C93.4536 8.92346 96.5784 4.43829 102.828 1.4689C104.554 0.893679 105.969 0.606069 107.072 0.606069ZM147.136 0.536109H168.753V12.8956C171.085 12.8956 173.775 13.8673 176.822 15.8106C180.708 18.6867 182.652 23.2029 182.652 29.3594V34H147.136V17.1864H140.093V12.8956H147.136V0.536109ZM151.427 4.82695V12.8956H164.462V4.82695H151.427ZM151.427 17.1864V29.7092H178.361V29.3594C178.361 23.6538 176.247 19.8838 172.018 18.0493C170.51 17.474 168.846 17.1864 167.028 17.1864H151.427ZM186.733 0.44283H191.024V29.7092H196.667C197.335 28.9318 204.067 19.1764 216.862 0.44283H229.361V34H224.907V4.73367H219.427C218.836 5.20007 212.105 14.9555 199.232 34H186.733V0.44283ZM255.619 0.44283L263.735 34H259.514C259.203 34 258.2 30.059 256.506 22.1769C255.806 19.7827 254.391 14.0149 252.261 4.87359H244.846C240.617 22.5966 238.262 32.3054 237.78 34H233.372L241.488 0.44283H255.619ZM280.805 0.606069H309.605V4.87359H281.155C277.066 4.87359 273.941 7.25998 271.78 12.0328C271.78 12.4059 271.726 12.6857 271.617 12.8723H309.278C309.496 12.9034 309.605 13.02 309.605 13.2221V34H305.36V17.1398H271.453V34H267.186V14.9244C267.186 8.92346 270.311 4.43829 276.561 1.4689C278.286 0.893679 279.701 0.606069 280.805 0.606069Z" fill="white"/>
<path d="M0.174454 0.536109V-0.463891H-0.825546V0.536109H0.174454ZM42.6165 0.536109H43.6165V-0.463891H42.6165V0.536109ZM42.6165 34V35H43.6165V34H42.6165ZM38.3956 34H37.3956V35H38.3956V34ZM38.3956 4.94355H39.3956V3.94355H38.3956V4.94355ZM4.58189 4.94355V3.94355H3.58189V4.94355H4.58189ZM4.58189 34V35H5.58189V34H4.58189ZM0.174454 34H-0.825546V35H0.174454V34ZM0.174454 1.53611H42.6165V-0.463891H0.174454V1.53611ZM41.6165 0.536109V34H43.6165V0.536109H41.6165ZM42.6165 33H38.3956V35H42.6165V33ZM39.3956 34V4.94355H37.3956V34H39.3956ZM38.3956 3.94355H4.58189V5.94355H38.3956V3.94355ZM3.58189 4.94355V34H5.58189V4.94355H3.58189ZM4.58189 33H0.174454V35H4.58189V33ZM1.17445 34V0.536109H-0.825546V34H1.17445ZM46.814 0.349551V-0.650449H45.814V0.349551H46.814ZM88.6031 9.91066L87.6841 10.3051L87.6884 10.3148L88.6031 9.91066ZM89.4892 17.1864V18.1864H90.4892V17.1864H89.4892ZM51.2448 17.1864V16.1864H50.2448V17.1864H51.2448ZM51.2448 34V35H52.2448V34H51.2448ZM46.814 34H45.814V35H46.814V34ZM46.814 12.9189V11.9189H45.814V12.9189H46.814ZM84.8952 12.9189V13.9189H85.8952V12.9189H84.8952ZM80.4645 6.36606L81.0841 5.58117L81.0423 5.54819L80.9973 5.51982L80.4645 6.36606ZM46.814 4.78031H45.814V5.78031H46.814V4.78031ZM46.814 1.34955H74.6112V-0.650449H46.814V1.34955ZM74.6112 1.34955C77.7402 1.34955 80.3494 2.10356 82.4888 3.56547C84.6316 5.02976 86.3739 7.2527 87.6842 10.3051L89.522 9.5162C88.0961 6.19455 86.1383 3.63694 83.6172 1.91418C81.0926 0.189063 78.0739 -0.650449 74.6112 -0.650449V1.34955ZM87.6884 10.3148C88.2132 11.5026 88.4892 12.8998 88.4892 14.528H90.4892C90.4892 12.6738 90.1745 10.9928 89.5178 9.5065L87.6884 10.3148ZM88.4892 14.528V17.1864H90.4892V14.528H88.4892ZM89.4892 16.1864H51.2448V18.1864H89.4892V16.1864ZM50.2448 17.1864V34H52.2448V17.1864H50.2448ZM51.2448 33H46.814V35H51.2448V33ZM47.814 34V12.9189H45.814V34H47.814ZM46.814 13.9189H84.8952V11.9189H46.814V13.9189ZM85.8952 12.9189C85.8952 10.396 84.0875 7.95227 81.0841 5.58117L79.8448 7.15094C82.7491 9.4438 83.8952 11.3686 83.8952 12.9189H85.8952ZM80.9973 5.51982C79.208 4.39325 77.4313 3.78031 75.6839 3.78031V5.78031C76.9525 5.78031 78.3629 6.22453 79.9317 7.21229L80.9973 5.51982ZM75.6839 3.78031H46.814V5.78031H75.6839V3.78031ZM47.814 4.78031V0.349551H45.814V4.78031H47.814ZM135.872 0.606069H136.872V-0.393931H135.872V0.606069ZM135.872 4.87359V5.87359H136.872V4.87359H135.872ZM98.0476 12.0328L97.1366 11.6203L97.0476 11.8169V12.0328H98.0476ZM97.8843 12.8723L97.0206 12.3684L96.1433 13.8723H97.8843V12.8723ZM135.546 12.8723L135.687 11.8823L135.617 11.8723H135.546V12.8723ZM135.872 34V35H136.872V34H135.872ZM131.628 34H130.628V35H131.628V34ZM131.628 17.1398H132.628V16.1398H131.628V17.1398ZM97.7211 17.1398V16.1398H96.7211V17.1398H97.7211ZM97.7211 34V35H98.7211V34H97.7211ZM93.4536 34H92.4536V35H93.4536V34ZM102.828 1.4689L102.512 0.520217L102.454 0.539499L102.399 0.565667L102.828 1.4689ZM107.072 1.60607H135.872V-0.393931H107.072V1.60607ZM134.872 0.606069V4.87359H136.872V0.606069H134.872ZM135.872 3.87359H107.422V5.87359H135.872V3.87359ZM107.422 3.87359C105.168 3.87359 103.149 4.53671 101.405 5.86863C99.6748 7.18997 98.2635 9.13145 97.1366 11.6203L98.9586 12.4452C99.9927 10.1613 101.224 8.52318 102.619 7.45813C104 6.40366 105.588 5.87359 107.422 5.87359V3.87359ZM97.0476 12.0328C97.0476 12.1737 97.0371 12.2704 97.0252 12.3316C97.0129 12.3945 97.0036 12.3975 97.0206 12.3684L98.7481 13.3761C98.9896 12.9623 99.0476 12.4704 99.0476 12.0328H97.0476ZM97.8843 13.8723H135.546V11.8723H97.8843V13.8723ZM135.404 13.8622C135.372 13.8576 135.211 13.8272 135.06 13.6654C134.898 13.4927 134.872 13.3039 134.872 13.2221H136.872C136.872 12.9381 136.792 12.5899 136.522 12.3007C136.262 12.0223 135.937 11.9181 135.687 11.8823L135.404 13.8622ZM134.872 13.2221V34H136.872V13.2221H134.872ZM135.872 33H131.628V35H135.872V33ZM132.628 34V17.1398H130.628V34H132.628ZM131.628 16.1398H97.7211V18.1398H131.628V16.1398ZM96.7211 17.1398V34H98.7211V17.1398H96.7211ZM97.7211 33H93.4536V35H97.7211V33ZM94.4536 34V14.9244H92.4536V34H94.4536ZM94.4536 14.9244C94.4536 12.1074 95.1836 9.68994 96.6177 7.63147C98.0577 5.5647 100.248 3.8017 103.257 2.37213L102.399 0.565667C99.1581 2.10549 96.6617 4.06976 94.9767 6.48817C93.286 8.91487 92.4536 11.7405 92.4536 14.9244H94.4536ZM103.144 2.41758C104.825 1.85733 106.123 1.60607 107.072 1.60607V-0.393931C105.814 -0.393931 104.282 -0.0699717 102.512 0.520217L103.144 2.41758ZM147.136 0.536109V-0.463891H146.136V0.536109H147.136ZM168.753 0.536109H169.753V-0.463891H168.753V0.536109ZM168.753 12.8956H167.753V13.8956H168.753V12.8956ZM176.822 15.8106L177.417 15.0067L177.389 14.9861L177.36 14.9674L176.822 15.8106ZM182.652 34V35H183.652V34H182.652ZM147.136 34H146.136V35H147.136V34ZM147.136 17.1864H148.136V16.1864H147.136V17.1864ZM140.093 17.1864H139.093V18.1864H140.093V17.1864ZM140.093 12.8956V11.8956H139.093V12.8956H140.093ZM147.136 12.8956V13.8956H148.136V12.8956H147.136ZM151.427 4.82695V3.82695H150.427V4.82695H151.427ZM151.427 12.8956H150.427V13.8956H151.427V12.8956ZM164.462 12.8956V13.8956H165.462V12.8956H164.462ZM164.462 4.82695H165.462V3.82695H164.462V4.82695ZM151.427 17.1864V16.1864H150.427V17.1864H151.427ZM151.427 29.7092H150.427V30.7092H151.427V29.7092ZM178.361 29.7092V30.7092H179.361V29.7092H178.361ZM172.018 18.0493L172.416 17.1319L172.395 17.1229L172.374 17.1149L172.018 18.0493ZM147.136 1.53611H168.753V-0.463891H147.136V1.53611ZM167.753 0.536109V12.8956H169.753V0.536109H167.753ZM168.753 13.8956C170.817 13.8956 173.316 14.7609 176.284 16.6537L177.36 14.9674C174.233 12.9736 171.353 11.8956 168.753 11.8956V13.8956ZM176.227 16.6144C179.791 19.2514 181.652 23.4242 181.652 29.3594H183.652C183.652 22.9816 181.626 18.1219 177.417 15.0067L176.227 16.6144ZM181.652 29.3594V34H183.652V29.3594H181.652ZM182.652 33H147.136V35H182.652V33ZM148.136 34V17.1864H146.136V34H148.136ZM147.136 16.1864H140.093V18.1864H147.136V16.1864ZM141.093 17.1864V12.8956H139.093V17.1864H141.093ZM140.093 13.8956H147.136V11.8956H140.093V13.8956ZM148.136 12.8956V0.536109H146.136V12.8956H148.136ZM150.427 4.82695V12.8956H152.427V4.82695H150.427ZM151.427 13.8956H164.462V11.8956H151.427V13.8956ZM165.462 12.8956V4.82695H163.462V12.8956H165.462ZM164.462 3.82695H151.427V5.82695H164.462V3.82695ZM150.427 17.1864V29.7092H152.427V17.1864H150.427ZM151.427 30.7092H178.361V28.7092H151.427V30.7092ZM179.361 29.7092V29.3594H177.361V29.7092H179.361ZM179.361 29.3594C179.361 26.3883 178.811 23.8382 177.647 21.7635C176.476 19.6746 174.717 18.13 172.416 17.1319L171.62 18.9667C173.548 19.803 174.96 21.0606 175.903 22.7418C176.854 24.4371 177.361 26.6248 177.361 29.3594H179.361ZM172.374 17.1149C170.739 16.4911 168.953 16.1864 167.028 16.1864V18.1864C168.74 18.1864 170.281 18.4569 171.662 18.9836L172.374 17.1149ZM167.028 16.1864H151.427V18.1864H167.028V16.1864ZM186.733 0.44283V-0.55717H185.733V0.44283H186.733ZM191.024 0.44283H192.024V-0.55717H191.024V0.44283ZM191.024 29.7092H190.024V30.7092H191.024V29.7092ZM196.667 29.7092V30.7092H197.126L197.425 30.3612L196.667 29.7092ZM216.862 0.44283V-0.55717H216.334L216.036 -0.121166L216.862 0.44283ZM229.361 0.44283H230.361V-0.55717H229.361V0.44283ZM229.361 34V35H230.361V34H229.361ZM224.907 34H223.907V35H224.907V34ZM224.907 4.73367H225.907V3.73367H224.907V4.73367ZM219.427 4.73367V3.73367H219.08L218.807 3.94879L219.427 4.73367ZM199.232 34V35H199.763L200.061 34.56L199.232 34ZM186.733 34H185.733V35H186.733V34ZM186.733 1.44283H191.024V-0.55717H186.733V1.44283ZM190.024 0.44283V29.7092H192.024V0.44283H190.024ZM191.024 30.7092H196.667V28.7092H191.024V30.7092ZM197.425 30.3612C197.633 30.1193 198.217 29.3081 199.123 28.0176C200.051 26.6976 201.357 24.8171 203.04 22.3775C206.407 17.4978 211.29 10.374 217.688 1.00683L216.036 -0.121166C209.639 9.24525 204.758 16.3659 201.394 21.2416C199.712 23.6798 198.41 25.5548 197.487 26.8679C196.544 28.2106 196.035 28.9104 195.909 29.0571L197.425 30.3612ZM216.862 1.44283H229.361V-0.55717H216.862V1.44283ZM228.361 0.44283V34H230.361V0.44283H228.361ZM229.361 33H224.907V35H229.361V33ZM225.907 34V4.73367H223.907V34H225.907ZM224.907 3.73367H219.427V5.73367H224.907V3.73367ZM218.807 3.94879C218.677 4.05199 218.553 4.19737 218.477 4.28921C218.378 4.4071 218.259 4.55821 218.122 4.73772C217.848 5.09803 217.479 5.60112 217.02 6.24281C216.099 7.52779 214.796 9.39183 213.112 11.8321C209.744 16.7139 204.84 23.9171 198.404 33.44L200.061 34.56C206.496 25.0384 211.395 17.8417 214.758 12.968C216.44 10.5305 217.735 8.67799 218.646 7.40751C219.101 6.77148 219.456 6.28712 219.713 5.95027C219.842 5.7812 219.941 5.65629 220.012 5.57075C220.105 5.45914 220.104 5.47365 220.047 5.51855L218.807 3.94879ZM199.232 33H186.733V35H199.232V33ZM187.733 34V0.44283H185.733V34H187.733ZM255.619 0.44283L256.591 0.207771L256.406 -0.55717H255.619V0.44283ZM263.735 34V35H265.005L264.707 33.7649L263.735 34ZM256.506 22.1769L257.483 21.9667L257.476 21.9312L257.465 21.8964L256.506 22.1769ZM252.261 4.87359L253.235 4.64667L253.055 3.87359H252.261V4.87359ZM244.846 4.87359V3.87359H244.056L243.873 4.64151L244.846 4.87359ZM237.78 34V35H238.535L238.742 34.2736L237.78 34ZM233.372 34L232.4 33.7649L232.102 35H233.372V34ZM241.488 0.44283V-0.55717H240.701L240.516 0.207771L241.488 0.44283ZM254.647 0.677889L262.763 34.2351L264.707 33.7649L256.591 0.207771L254.647 0.677889ZM263.735 33H259.514V35H263.735V33ZM259.514 33C259.773 33 259.96 33.1025 260.054 33.1675C260.148 33.2328 260.204 33.2985 260.226 33.3259C260.269 33.38 260.28 33.4104 260.262 33.3744C260.232 33.3127 260.178 33.179 260.1 32.9448C259.947 32.4876 259.747 31.7771 259.498 30.7976C259.001 28.8458 258.33 25.9049 257.483 21.9667L255.528 22.3871C256.376 26.3309 257.053 29.3016 257.559 31.2908C257.812 32.2818 258.026 33.0492 258.202 33.5773C258.288 33.8358 258.376 34.0715 258.467 34.2561C258.51 34.3433 258.576 34.4661 258.669 34.5817C258.716 34.6399 258.796 34.7287 258.912 34.8094C259.027 34.8898 259.235 35 259.514 35V33ZM257.465 21.8964C256.775 19.5346 255.367 13.797 253.235 4.64667L251.287 5.1005C253.415 14.2329 254.837 20.0309 255.546 22.4573L257.465 21.8964ZM252.261 3.87359H244.846V5.87359H252.261V3.87359ZM243.873 4.64151C239.64 22.383 237.292 32.0589 236.818 33.7264L238.742 34.2736C239.231 32.5519 241.594 22.8103 245.818 5.10567L243.873 4.64151ZM237.78 33H233.372V35H237.78V33ZM234.344 34.2351L242.46 0.677889L240.516 0.207771L232.4 33.7649L234.344 34.2351ZM241.488 1.44283H255.619V-0.55717H241.488V1.44283ZM309.605 0.606069H310.605V-0.393931H309.605V0.606069ZM309.605 4.87359V5.87359H310.605V4.87359H309.605ZM271.78 12.0328L270.869 11.6203L270.78 11.8169V12.0328H271.78ZM271.617 12.8723L270.753 12.3684L269.876 13.8723H271.617V12.8723ZM309.278 12.8723L309.42 11.8823L309.349 11.8723H309.278V12.8723ZM309.605 34V35H310.605V34H309.605ZM305.36 34H304.36V35H305.36V34ZM305.36 17.1398H306.36V16.1398H305.36V17.1398ZM271.453 17.1398V16.1398H270.453V17.1398H271.453ZM271.453 34V35H272.453V34H271.453ZM267.186 34H266.186V35H267.186V34ZM276.561 1.4689L276.244 0.520217L276.186 0.539499L276.131 0.565667L276.561 1.4689ZM280.805 1.60607H309.605V-0.393931H280.805V1.60607ZM308.605 0.606069V4.87359H310.605V0.606069H308.605ZM309.605 3.87359H281.155V5.87359H309.605V3.87359ZM281.155 3.87359C278.9 3.87359 276.881 4.53671 275.137 5.86863C273.407 7.18997 271.996 9.13145 270.869 11.6203L272.691 12.4452C273.725 10.1613 274.957 8.52318 276.351 7.45813C277.732 6.40366 279.32 5.87359 281.155 5.87359V3.87359ZM270.78 12.0328C270.78 12.1737 270.769 12.2704 270.758 12.3316C270.745 12.3945 270.736 12.3975 270.753 12.3684L272.481 13.3761C272.722 12.9623 272.78 12.4704 272.78 12.0328H270.78ZM271.617 13.8723H309.278V11.8723H271.617V13.8723ZM309.137 13.8622C309.104 13.8576 308.943 13.8272 308.792 13.6654C308.631 13.4927 308.605 13.3039 308.605 13.2221H310.605C310.605 12.9381 310.524 12.5899 310.254 12.3007C309.994 12.0223 309.67 11.9181 309.42 11.8823L309.137 13.8622ZM308.605 13.2221V34H310.605V13.2221H308.605ZM309.605 33H305.36V35H309.605V33ZM306.36 34V17.1398H304.36V34H306.36ZM305.36 16.1398H271.453V18.1398H305.36V16.1398ZM270.453 17.1398V34H272.453V17.1398H270.453ZM271.453 33H267.186V35H271.453V33ZM268.186 34V14.9244H266.186V34H268.186ZM268.186 14.9244C268.186 12.1074 268.916 9.68994 270.35 7.63147C271.79 5.5647 273.981 3.8017 276.99 2.37213L276.131 0.565667C272.891 2.10549 270.394 4.06976 268.709 6.48817C267.018 8.91487 266.186 11.7405 266.186 14.9244H268.186ZM276.877 2.41758C278.558 1.85733 279.855 1.60607 280.805 1.60607V-0.393931C279.546 -0.393931 278.015 -0.0699717 276.244 0.520217L276.877 2.41758Z" fill="white"/>
</svg>
