<svg width="370" height="41" viewBox="0 0 370 41" fill="none" xmlns="http://www.w3.org/2000/svg">
<path d="M0.441727 7.53611H42.8837V41H38.6629V11.9435H4.84917V41H0.441727V7.53611ZM60.7 7.60607H89.5V11.8736H61.0498C56.9611 11.8736 53.8363 14.26 51.6753 19.0328C51.6753 19.4059 51.6209 19.6857 51.5121 19.8723H89.1735C89.3912 19.9034 89.5 20.02 89.5 20.2221V41H85.2558V24.1398H51.3488V41H47.0813V21.9244C47.0813 15.9235 50.2061 11.4383 56.4558 8.4689C58.1815 7.89368 59.5962 7.60607 60.7 7.60607ZM93.7209 7.34955H121.518C128.11 7.34955 132.774 10.5366 135.51 16.9107C136.101 18.2477 136.396 19.7868 136.396 21.528V24.1864H98.1516V41H93.7209V19.9189H131.802C131.802 17.8823 130.325 15.698 127.371 13.3661C125.692 12.3089 124.099 11.7803 122.591 11.7803H93.7209V7.34955ZM140.36 7.53611H182.709V11.8036H163.75V40.6502C163.75 40.8834 163.634 41 163.4 41H159.483V11.8036H140.36V7.53611ZM187 7.53611H191.221V19.5225H225.221V7.53611H229.442V41H225.221V23.7434H191.221V41H187V7.53611ZM248.681 0.703412H252.948V5.15749H248.681V0.703412ZM256.866 0.703412H261.134V5.15749H256.866V0.703412ZM233.64 7.51279H276.175V11.7803H233.64V7.51279ZM233.64 19.8256H276.175V24.0932H237.907V25.6323C237.907 31.0735 240.527 34.657 245.766 36.3827C246.901 36.6159 248.043 36.7325 249.194 36.7325H276.012V41H248.494C241.856 41 237.192 37.7508 234.502 31.2523C233.927 29.962 233.64 28.143 233.64 25.7955V19.8256ZM280.279 7.34955H308.076C314.668 7.34955 319.332 10.5366 322.068 16.9107C322.659 18.2477 322.954 19.7868 322.954 21.528V24.1864H284.71V41H280.279V19.9189H318.36C318.36 17.8823 316.883 15.698 313.93 13.3661C312.251 12.3089 310.657 11.7803 309.149 11.7803H280.279V7.34955ZM326.919 7.53611H331.186V20.0122H344.852C350.029 20.0122 354.18 22.5152 357.304 27.5212C358.439 29.6199 359.007 31.7809 359.007 34.0041V41H326.919V7.53611ZM365 7.53611H369.431V41H365V7.53611ZM331.186 24.2797V36.7325H354.739V34.1673C354.739 29.7055 352.182 26.5184 347.067 24.6062C346.15 24.3885 345.178 24.2797 344.152 24.2797H331.186Z" fill="white"/>
<path d="M0.441727 7.53611V6.53611H-0.558273V7.53611H0.441727ZM42.8837 7.53611H43.8837V6.53611H42.8837V7.53611ZM42.8837 41V42H43.8837V41H42.8837ZM38.6629 41H37.6629V42H38.6629V41ZM38.6629 11.9435H39.6629V10.9435H38.6629V11.9435ZM4.84917 11.9435V10.9435H3.84917V11.9435H4.84917ZM4.84917 41V42H5.84917V41H4.84917ZM0.441727 41H-0.558273V42H0.441727V41ZM0.441727 8.53611H42.8837V6.53611H0.441727V8.53611ZM41.8837 7.53611V41H43.8837V7.53611H41.8837ZM42.8837 40H38.6629V42H42.8837V40ZM39.6629 41V11.9435H37.6629V41H39.6629ZM38.6629 10.9435H4.84917V12.9435H38.6629V10.9435ZM3.84917 11.9435V41H5.84917V11.9435H3.84917ZM4.84917 40H0.441727V42H4.84917V40ZM1.44173 41V7.53611H-0.558273V41H1.44173ZM89.5 7.60607H90.5V6.60607H89.5V7.60607ZM89.5 11.8736V12.8736H90.5V11.8736H89.5ZM51.6753 19.0328L50.7643 18.6203L50.6753 18.8169V19.0328H51.6753ZM51.5121 19.8723L50.6483 19.3684L49.771 20.8723H51.5121V19.8723ZM89.1735 19.8723L89.3149 18.8823L89.2446 18.8723H89.1735V19.8723ZM89.5 41V42H90.5V41H89.5ZM85.2558 41H84.2558V42H85.2558V41ZM85.2558 24.1398H86.2558V23.1398H85.2558V24.1398ZM51.3488 24.1398V23.1398H50.3488V24.1398H51.3488ZM51.3488 41V42H52.3488V41H51.3488ZM47.0813 41H46.0813V42H47.0813V41ZM56.4558 8.4689L56.1396 7.52022L56.0818 7.5395L56.0267 7.56567L56.4558 8.4689ZM60.7001 8.60607H89.5V6.60607H60.7001V8.60607ZM88.5 7.60607V11.8736H90.5V7.60607H88.5ZM89.5 10.8736H61.0498V12.8736H89.5V10.8736ZM61.0498 10.8736C58.7955 10.8736 56.7768 11.5367 55.0327 12.8686C53.3025 14.19 51.8912 16.1314 50.7643 18.6203L52.5863 19.4452C53.6204 17.1613 54.852 15.5232 56.2466 14.4581C57.6274 13.4037 59.2154 12.8736 61.0498 12.8736V10.8736ZM50.6753 19.0328C50.6753 19.1737 50.6648 19.2704 50.6529 19.3316C50.6406 19.3945 50.6313 19.3975 50.6483 19.3684L52.3758 20.3761C52.6173 19.9623 52.6753 19.4704 52.6753 19.0328H50.6753ZM51.5121 20.8723H89.1735V18.8723H51.5121V20.8723ZM89.0321 20.8622C88.9997 20.8576 88.8383 20.8272 88.6873 20.6654C88.5262 20.4927 88.5 20.3039 88.5 20.2221H90.5C90.5 19.9381 90.4194 19.5899 90.1494 19.3007C89.8896 19.0223 89.565 18.9181 89.3149 18.8823L89.0321 20.8622ZM88.5 20.2221V41H90.5V20.2221H88.5ZM89.5 40H85.2558V42H89.5V40ZM86.2558 41V24.1398H84.2558V41H86.2558ZM85.2558 23.1398H51.3488V25.1398H85.2558V23.1398ZM50.3488 24.1398V41H52.3488V24.1398H50.3488ZM51.3488 40H47.0813V42H51.3488V40ZM48.0813 41V21.9244H46.0813V41H48.0813ZM48.0813 21.9244C48.0813 19.1074 48.8113 16.6899 50.2454 14.6315C51.6854 12.5647 53.8762 10.8017 56.885 9.37213L56.0267 7.56567C52.7858 9.10549 50.2894 11.0698 48.6044 13.4882C46.9137 15.9149 46.0813 18.7405 46.0813 21.9244H48.0813ZM56.7721 9.41758C58.4528 8.85733 59.7508 8.60607 60.7001 8.60607V6.60607C59.4417 6.60607 57.9102 6.93003 56.1396 7.52022L56.7721 9.41758ZM93.7209 7.34955V6.34955H92.7209V7.34955H93.7209ZM135.51 16.9107L134.591 17.3051L134.595 17.3148L135.51 16.9107ZM136.396 24.1864V25.1864H137.396V24.1864H136.396ZM98.1516 24.1864V23.1864H97.1516V24.1864H98.1516ZM98.1516 41V42H99.1516V41H98.1516ZM93.7209 41H92.7209V42H93.7209V41ZM93.7209 19.9189V18.9189H92.7209V19.9189H93.7209ZM131.802 19.9189V20.9189H132.802V19.9189H131.802ZM127.371 13.3661L127.991 12.5812L127.949 12.5482L127.904 12.5198L127.371 13.3661ZM93.7209 11.7803H92.7209V12.7803H93.7209V11.7803ZM93.7209 8.34955H121.518V6.34955H93.7209V8.34955ZM121.518 8.34955C124.647 8.34955 127.256 9.10356 129.396 10.5655C131.538 12.0298 133.281 14.2527 134.591 17.3051L136.429 16.5162C135.003 13.1946 133.045 10.6369 130.524 8.91418C127.999 7.18906 124.981 6.34955 121.518 6.34955V8.34955ZM134.595 17.3148C135.12 18.5026 135.396 19.8998 135.396 21.528H137.396C137.396 19.6738 137.081 17.9928 136.425 16.5065L134.595 17.3148ZM135.396 21.528V24.1864H137.396V21.528H135.396ZM136.396 23.1864H98.1516V25.1864H136.396V23.1864ZM97.1516 24.1864V41H99.1516V24.1864H97.1516ZM98.1516 40H93.7209V42H98.1516V40ZM94.7209 41V19.9189H92.7209V41H94.7209ZM93.7209 20.9189H131.802V18.9189H93.7209V20.9189ZM132.802 19.9189C132.802 17.396 130.994 14.9523 127.991 12.5812L126.752 14.1509C129.656 16.4438 130.802 18.3686 130.802 19.9189H132.802ZM127.904 12.5198C126.115 11.3932 124.338 10.7803 122.591 10.7803V12.7803C123.859 12.7803 125.27 13.2245 126.839 14.2123L127.904 12.5198ZM122.591 10.7803H93.7209V12.7803H122.591V10.7803ZM94.7209 11.7803V7.34955H92.7209V11.7803H94.7209ZM140.36 7.53611V6.53611H139.36V7.53611H140.36ZM182.709 7.53611H183.709V6.53611H182.709V7.53611ZM182.709 11.8036V12.8036H183.709V11.8036H182.709ZM163.75 11.8036V10.8036H162.75V11.8036H163.75ZM159.483 41H158.483V42H159.483V41ZM159.483 11.8036H160.483V10.8036H159.483V11.8036ZM140.36 11.8036H139.36V12.8036H140.36V11.8036ZM140.36 8.53611H182.709V6.53611H140.36V8.53611ZM181.709 7.53611V11.8036H183.709V7.53611H181.709ZM182.709 10.8036H163.75V12.8036H182.709V10.8036ZM162.75 11.8036V40.6502H164.75V11.8036H162.75ZM162.75 40.6502C162.75 40.6127 162.76 40.4008 162.956 40.2054C163.151 40.0101 163.363 40 163.4 40V42C163.671 42 164.058 41.9316 164.37 41.6197C164.682 41.3077 164.75 40.9209 164.75 40.6502H162.75ZM163.4 40H159.483V42H163.4V40ZM160.483 41V11.8036H158.483V41H160.483ZM159.483 10.8036H140.36V12.8036H159.483V10.8036ZM141.36 11.8036V7.53611H139.36V11.8036H141.36ZM187 7.53611V6.53611H186V7.53611H187ZM191.221 7.53611H192.221V6.53611H191.221V7.53611ZM191.221 19.5225H190.221V20.5225H191.221V19.5225ZM225.221 19.5225V20.5225H226.221V19.5225H225.221ZM225.221 7.53611V6.53611H224.221V7.53611H225.221ZM229.442 7.53611H230.442V6.53611H229.442V7.53611ZM229.442 41V42H230.442V41H229.442ZM225.221 41H224.221V42H225.221V41ZM225.221 23.7434H226.221V22.7434H225.221V23.7434ZM191.221 23.7434V22.7434H190.221V23.7434H191.221ZM191.221 41V42H192.221V41H191.221ZM187 41H186V42H187V41ZM187 8.53611H191.221V6.53611H187V8.53611ZM190.221 7.53611V19.5225H192.221V7.53611H190.221ZM191.221 20.5225H225.221V18.5225H191.221V20.5225ZM226.221 19.5225V7.53611H224.221V19.5225H226.221ZM225.221 8.53611H229.442V6.53611H225.221V8.53611ZM228.442 7.53611V41H230.442V7.53611H228.442ZM229.442 40H225.221V42H229.442V40ZM226.221 41V23.7434H224.221V41H226.221ZM225.221 22.7434H191.221V24.7434H225.221V22.7434ZM190.221 23.7434V41H192.221V23.7434H190.221ZM191.221 40H187V42H191.221V40ZM188 41V7.53611H186V41H188ZM248.681 0.703412V-0.296588H247.681V0.703412H248.681ZM252.948 0.703412H253.948V-0.296588H252.948V0.703412ZM252.948 5.15749V6.15749H253.948V5.15749H252.948ZM248.681 5.15749H247.681V6.15749H248.681V5.15749ZM256.866 0.703412V-0.296588H255.866V0.703412H256.866ZM261.134 0.703412H262.134V-0.296588H261.134V0.703412ZM261.134 5.15749V6.15749H262.134V5.15749H261.134ZM256.866 5.15749H255.866V6.15749H256.866V5.15749ZM233.64 7.51279V6.51279H232.64V7.51279H233.64ZM276.175 7.51279H277.175V6.51279H276.175V7.51279ZM276.175 11.7803V12.7803H277.175V11.7803H276.175ZM233.64 11.7803H232.64V12.7803H233.64V11.7803ZM233.64 19.8256V18.8256H232.64V19.8256H233.64ZM276.175 19.8256H277.175V18.8256H276.175V19.8256ZM276.175 24.0932V25.0932H277.175V24.0932H276.175ZM237.907 24.0932V23.0932H236.907V24.0932H237.907ZM245.766 36.3827L245.453 37.3325L245.508 37.3506L245.565 37.3622L245.766 36.3827ZM276.012 36.7325H277.012V35.7325H276.012V36.7325ZM276.012 41V42H277.012V41H276.012ZM234.502 31.2523L235.426 30.8699L235.421 30.8575L235.416 30.8452L234.502 31.2523ZM248.681 1.70341H252.948V-0.296588H248.681V1.70341ZM251.948 0.703412V5.15749H253.948V0.703412H251.948ZM252.948 4.15749H248.681V6.15749H252.948V4.15749ZM249.681 5.15749V0.703412H247.681V5.15749H249.681ZM256.866 1.70341H261.134V-0.296588H256.866V1.70341ZM260.134 0.703412V5.15749H262.134V0.703412H260.134ZM261.134 4.15749H256.866V6.15749H261.134V4.15749ZM257.866 5.15749V0.703412H255.866V5.15749H257.866ZM233.64 8.51279H276.175V6.51279H233.64V8.51279ZM275.175 7.51279V11.7803H277.175V7.51279H275.175ZM276.175 10.7803H233.64V12.7803H276.175V10.7803ZM234.64 11.7803V7.51279H232.64V11.7803H234.64ZM233.64 20.8256H276.175V18.8256H233.64V20.8256ZM275.175 19.8256V24.0932H277.175V19.8256H275.175ZM276.175 23.0932H237.907V25.0932H276.175V23.0932ZM236.907 24.0932V25.6323H238.907V24.0932H236.907ZM236.907 25.6323C236.907 28.5163 237.603 30.9924 239.064 32.991C240.525 34.9884 242.684 36.4204 245.453 37.3325L246.079 35.4329C243.609 34.6193 241.839 33.3967 240.679 31.8107C239.521 30.2258 238.907 28.1895 238.907 25.6323H236.907ZM245.565 37.3622C246.765 37.6089 247.975 37.7325 249.194 37.7325V35.7325C248.112 35.7325 247.036 35.6228 245.967 35.4031L245.565 37.3622ZM249.194 37.7325H276.012V35.7325H249.194V37.7325ZM275.012 36.7325V41H277.012V36.7325H275.012ZM276.012 40H248.494V42H276.012V40ZM248.494 40C245.344 40 242.727 39.2317 240.589 37.7426C238.448 36.2506 236.715 33.9844 235.426 30.8699L233.578 31.6347C234.979 35.0187 236.923 37.6263 239.446 39.3836C241.972 41.1437 245.006 42 248.494 42V40ZM235.416 30.8452C234.923 29.7406 234.64 28.0837 234.64 25.7955H232.64C232.64 28.2024 232.931 30.1834 233.589 31.6595L235.416 30.8452ZM234.64 25.7955V19.8256H232.64V25.7955H234.64ZM280.279 7.34955V6.34955H279.279V7.34955H280.279ZM322.068 16.9107L321.149 17.3051L321.153 17.3148L322.068 16.9107ZM322.954 24.1864V25.1864H323.954V24.1864H322.954ZM284.71 24.1864V23.1864H283.71V24.1864H284.71ZM284.71 41V42H285.71V41H284.71ZM280.279 41H279.279V42H280.279V41ZM280.279 19.9189V18.9189H279.279V19.9189H280.279ZM318.36 19.9189V20.9189H319.36V19.9189H318.36ZM313.93 13.3661L314.549 12.5812L314.507 12.5482L314.462 12.5198L313.93 13.3661ZM280.279 11.7803H279.279V12.7803H280.279V11.7803ZM280.279 8.34955H308.076V6.34955H280.279V8.34955ZM308.076 8.34955C311.205 8.34955 313.814 9.10356 315.954 10.5655C318.097 12.0298 319.839 14.2527 321.149 17.3051L322.987 16.5162C321.561 13.1946 319.603 10.6369 317.082 8.91418C314.558 7.18906 311.539 6.34955 308.076 6.34955V8.34955ZM321.153 17.3148C321.678 18.5026 321.954 19.8998 321.954 21.528H323.954C323.954 19.6738 323.64 17.9928 322.983 16.5065L321.153 17.3148ZM321.954 21.528V24.1864H323.954V21.528H321.954ZM322.954 23.1864H284.71V25.1864H322.954V23.1864ZM283.71 24.1864V41H285.71V24.1864H283.71ZM284.71 40H280.279V42H284.71V40ZM281.279 41V19.9189H279.279V41H281.279ZM280.279 20.9189H318.36V18.9189H280.279V20.9189ZM319.36 19.9189C319.36 17.396 317.553 14.9523 314.549 12.5812L313.31 14.1509C316.214 16.4438 317.36 18.3686 317.36 19.9189H319.36ZM314.462 12.5198C312.673 11.3932 310.896 10.7803 309.149 10.7803V12.7803C310.418 12.7803 311.828 13.2245 313.397 14.2123L314.462 12.5198ZM309.149 10.7803H280.279V12.7803H309.149V10.7803ZM281.279 11.7803V7.34955H279.279V11.7803H281.279ZM326.919 7.53611V6.53611H325.919V7.53611H326.919ZM331.186 7.53611H332.186V6.53611H331.186V7.53611ZM331.186 20.0122H330.186V21.0122H331.186V20.0122ZM357.304 27.5212L358.184 27.0455L358.169 27.0181L358.153 26.9916L357.304 27.5212ZM359.007 41V42H360.007V41H359.007ZM326.919 41H325.919V42H326.919V41ZM365 7.53611V6.53611H364V7.53611H365ZM369.431 7.53611H370.431V6.53611H369.431V7.53611ZM369.431 41V42H370.431V41H369.431ZM365 41H364V42H365V41ZM331.186 24.2797V23.2797H330.186V24.2797H331.186ZM331.186 36.7325H330.186V37.7325H331.186V36.7325ZM354.739 36.7325V37.7325H355.739V36.7325H354.739ZM347.067 24.6062L347.417 23.6695L347.359 23.6476L347.298 23.6332L347.067 24.6062ZM326.919 8.53611H331.186V6.53611H326.919V8.53611ZM330.186 7.53611V20.0122H332.186V7.53611H330.186ZM331.186 21.0122H344.852V19.0122H331.186V21.0122ZM344.852 21.0122C349.63 21.0122 353.484 23.289 356.456 28.0507L358.153 26.9916C354.875 21.7414 350.427 19.0122 344.852 19.0122V21.0122ZM356.425 27.9968C357.487 29.9605 358.007 31.9591 358.007 34.0041H360.007C360.007 31.6027 359.392 29.2794 358.184 27.0455L356.425 27.9968ZM358.007 34.0041V41H360.007V34.0041H358.007ZM359.007 40H326.919V42H359.007V40ZM327.919 41V7.53611H325.919V41H327.919ZM365 8.53611H369.431V6.53611H365V8.53611ZM368.431 7.53611V41H370.431V7.53611H368.431ZM369.431 40H365V42H369.431V40ZM366 41V7.53611H364V41H366ZM330.186 24.2797V36.7325H332.186V24.2797H330.186ZM331.186 37.7325H354.739V35.7325H331.186V37.7325ZM355.739 36.7325V34.1673H353.739V36.7325H355.739ZM355.739 34.1673C355.739 31.7311 355.036 29.5925 353.601 27.8048C352.178 26.0313 350.088 24.6681 347.417 23.6695L346.717 25.5429C349.161 26.4565 350.907 27.643 352.041 29.0565C353.164 30.4559 353.739 32.1416 353.739 34.1673H355.739ZM347.298 23.6332C346.299 23.3961 345.249 23.2797 344.152 23.2797V25.2797C345.107 25.2797 346.001 25.381 346.836 25.5792L347.298 23.6332ZM344.152 23.2797H331.186V25.2797H344.152V23.2797Z" fill="white"/>
</svg>
