<svg width="180" height="220" viewBox="0 0 180 220" fill="none" xmlns="http://www.w3.org/2000/svg">
<g clip-path="url(#clip0_461_6651)">
<path d="M0 0H180V220H0V0Z" fill="#B8B8B8"/>
<mask id="mask0_461_6651" style="mask-type:alpha" maskUnits="userSpaceOnUse" x="-15" y="36" width="210" height="185">
<path d="M-2.68973 184.366C-11.4872 195.832 -14 219.602 -14 219.602L193.5 220.037C193.5 220.037 189.211 211.228 187.41 205.247C186.055 200.748 186.074 198.024 184.8 193.502C183.285 188.123 183.361 184.492 180.015 180.016C177.708 176.932 175.82 175.633 172.62 173.491C167.743 170.228 164.012 170.326 158.699 167.836C153.469 165.384 151.102 162.78 145.649 160.876C140.742 159.163 132.599 158.266 132.599 158.266C132.599 158.266 130.538 155.043 129.118 153.046C126.736 149.694 125.603 147.583 122.593 144.78C120.281 142.627 116.068 139.995 116.068 139.995C116.068 139.995 128.044 121.327 129.118 107.804C129.401 104.248 129.638 102.199 129.118 98.6693C128.602 95.1598 126.508 89.9691 126.508 89.9691V87.794C126.508 87.794 127.459 83.508 126.943 80.8338C126.525 78.6653 124.768 75.6137 124.768 75.6137C124.768 75.6137 124.551 70.6867 123.463 67.7835C122.174 64.3419 120.327 62.9809 118.243 59.9533C115.758 56.3417 114.606 54.1167 111.718 50.8181C108.947 47.6535 107.319 45.8554 103.888 43.4229C100.602 41.0938 98.5965 39.8396 94.7526 38.6378C91.864 37.7347 90.0974 37.591 87.14 37.3505L86.9224 37.3328C82.5168 36.9739 79.8918 36.6618 75.6122 37.7678C73.687 38.2653 70.827 39.5078 70.827 39.5078C70.827 39.5078 66.2819 39.446 63.4319 39.9429C60.0973 40.5241 58.2253 41.103 55.1667 42.5529C51.2051 44.4309 49.2665 46.1192 46.0314 49.0781C42.2917 52.4985 40.1548 54.6134 37.7662 59.0833C35.7407 62.8738 35.0653 65.2971 34.2862 69.5236C33.2698 75.0368 33.2473 78.3699 34.2862 83.8789C34.844 86.8371 35.811 88.3348 36.4612 91.2741C37.3487 95.286 37.1083 97.6585 37.7662 101.714C38.2091 104.444 38.1151 106.08 39.0713 108.675C40.0184 111.245 40.7818 112.674 42.5514 114.765C44.4845 117.049 46.0169 117.971 48.5594 119.5L48.6415 119.55C50.269 120.529 52.9916 121.725 52.9916 121.725C52.9916 121.725 45.7911 136.255 42.5514 146.085C40.5133 152.269 38.2013 162.181 38.2013 162.181L5.14046 176.101C5.14046 176.101 0.0168705 180.839 -2.68973 184.366Z" fill="#484848" stroke="black"/>
</mask>
<g mask="url(#mask0_461_6651)">
<rect x="-110.137" y="11.6675" width="313.208" height="208.805" fill="#484848"/>
</g>
</g>
<defs>
<clipPath id="clip0_461_6651">
<rect width="180" height="220" fill="white"/>
</clipPath>
</defs>
</svg>
