<svg width="180" height="220" viewBox="0 0 180 220" fill="none" xmlns="http://www.w3.org/2000/svg">
<g clip-path="url(#clip0_461_6655)">
<path d="M0 0H180V220H0V0Z" fill="#B8B8B8"/>
<mask id="mask0_461_6655" style="mask-type:alpha" maskUnits="userSpaceOnUse" x="-11" y="44" width="198" height="186">
<path d="M-0.259037 210.78L1.36446 229.081L180.982 229.376L179.801 217.717C179.801 217.717 183.277 213.048 184.524 209.599C185.447 207.047 186 202.81 186 202.81C186 202.81 178.906 187.713 171.979 179.786C168.895 176.256 167.226 174.107 163.419 171.373C156.739 166.576 143.642 164.141 143.642 164.141C143.642 164.141 143.632 161.622 143.642 160.009C143.699 150.375 144.045 144.974 144.675 135.361C145.132 128.378 146.034 124.5 146.151 117.503C146.29 109.13 145.63 104.437 144.822 96.102C144.229 89.9754 144.531 86.3937 142.904 80.4575C142.045 77.3278 141.37 75.6213 140.099 72.6352C138.181 68.127 137.048 65.5489 134.196 61.5659C132.15 58.7094 130.824 57.213 128.292 54.7767C124.671 51.2917 122.781 48.5248 117.961 47.102C115.023 46.2348 113.185 46.8386 110.139 46.5117C106.548 46.1263 104.599 45.2217 100.988 45.1834C97.0918 45.142 94.8821 45.5771 91.0994 46.5117C87.3466 47.4389 85.2941 48.2503 81.8012 49.9063C78.4159 51.5112 76.3812 52.3392 73.5361 54.7767C71.2097 56.7699 70.2213 58.2392 68.3705 60.6803C64.9237 65.2264 63.6613 68.2563 61.1385 73.3731C58.5682 78.5865 56.9027 81.4888 55.3825 87.099C54.0863 91.8827 54.1381 94.7341 53.4639 99.6442C52.5875 106.026 51.5452 116.027 51.5452 116.027C51.5452 116.027 50.3997 126.667 48.741 133.295C47.7759 137.151 47.4274 139.414 45.7892 143.036C43.6677 147.726 41.1454 149.597 38.4096 153.957C36.8021 156.52 35.4934 157.769 34.4247 160.599C33.5898 162.81 33.0964 166.503 33.0964 166.503C33.0964 166.503 29.849 167.277 27.7831 167.831C23.4157 169.001 20.8959 169.507 16.7139 171.226C13.3761 172.597 11.2629 173.099 8.44879 175.358C5.86489 177.432 5.02512 179.239 2.98795 181.852C0.343297 185.245 -0.576717 187.574 -3.35843 190.855C-4.62459 192.349 -5.63486 192.938 -6.75301 194.545C-8.88744 197.613 -10 203.548 -10 203.548C-10 203.548 -7.96119 203.163 -6.75301 203.548C-5.00512 204.105 -4.59129 205.436 -3.35843 206.795C-2.03348 208.255 -0.259037 210.78 -0.259037 210.78Z" fill="#484848" stroke="black"/>
</mask>
<g mask="url(#mask0_461_6655)">
<rect x="-59.2952" y="32.4902" width="295.181" height="196.886" fill="#484848"/>
</g>
</g>
<defs>
<clipPath id="clip0_461_6655">
<rect width="180" height="220" fill="white"/>
</clipPath>
</defs>
</svg>
