<svg width="1179" height="226" viewBox="0 0 1179 226" fill="none" xmlns="http://www.w3.org/2000/svg">
<path d="M866.5 9.0625H881.156C881.156 9.54167 884.156 20.8125 890.156 42.875H899.844C899.844 42.5208 902.844 31.25 908.844 9.0625H923.5V54H917.812V14.9688H913.562C913.188 14.9688 911.615 20.6458 908.844 32C908.531 32.8125 906.948 38.4167 904.094 48.8125H885.656L876.656 14.9688H872.406V54H866.5V9.0625ZM929 9.15625H985.812V14.9062H929V9.15625ZM929 25.7188H985.812V31.4688H934.75V35.5938C934.75 40.5938 937.74 44.5833 943.719 47.5625C945.448 48.0208 946.823 48.25 947.844 48.25H985.562V54H947.156C941.802 54 936.979 51.3958 932.688 46.1875C930.229 42.7083 929 39.3333 929 36.0625V25.7188ZM1011.41 9.15625H1048.47V14.875H1012.31C1004.94 14.875 1000.14 18.2292 997.906 24.9375C997.448 26.0833 997.219 27.7604 997.219 29.9688V33.4062C997.219 40.1979 1000.2 44.8542 1006.16 47.375C1007.66 47.9792 1009.18 48.2812 1010.72 48.2812H1048.47V54H1010.25C1002.71 54 996.917 49.9583 992.875 41.875C991.958 39.4375 991.5 36.6875 991.5 33.625V29.0625C991.5 20.0833 996 13.75 1005 10.0625C1007.19 9.45833 1009.32 9.15625 1011.41 9.15625ZM1054 9.15625H1110.75V14.875H1085.34V53.5312C1085.34 53.8438 1085.19 54 1084.88 54H1079.62V14.875H1054V9.15625ZM1116.5 9.15625H1154.47C1162.11 9.15625 1167.99 13.2708 1172.09 21.5C1172.86 23.9792 1173.25 25.8854 1173.25 27.2188V54H1136.62C1127.71 54 1121.39 49.6562 1117.66 40.9688C1116.89 38.7812 1116.5 36.6458 1116.5 34.5625V9.15625ZM1122.22 14.875V34.0938C1122.22 41.1562 1125.96 45.8125 1133.44 48.0625C1135 48.2083 1136.22 48.2812 1137.09 48.2812H1167.53V27.9062C1167.53 22.1354 1164.25 17.9479 1157.69 15.3438C1156.54 15.0312 1155.47 14.875 1154.47 14.875H1122.22ZM554 76.1562H610.875V121H605.219V82.0625H559.906V121H554V76.1562ZM616.5 75.9062H653.75C662.583 75.9062 668.833 80.1771 672.5 88.7188C673.292 90.5104 673.688 92.5729 673.688 94.9062V98.4688H622.438V121H616.5V92.75H667.531C667.531 90.0208 665.552 87.0938 661.594 83.9688C659.344 82.5521 657.208 81.8438 655.188 81.8438H616.5V75.9062ZM679 76.1562H716.969C724.615 76.1562 730.49 80.2708 734.594 88.5C735.365 90.9792 735.75 92.8854 735.75 94.2188V121H699.125C690.208 121 683.885 116.656 680.156 107.969C679.385 105.781 679 103.646 679 101.562V76.1562ZM684.719 81.875V101.094C684.719 108.156 688.458 112.812 695.938 115.062C697.5 115.208 698.719 115.281 699.594 115.281H730.031V94.9062C730.031 89.1354 726.75 84.9479 720.188 82.3438C719.042 82.0312 717.969 81.875 716.969 81.875H684.719ZM750.938 76.1562H779.906V92.7188C783.031 92.7188 786.635 94.0208 790.719 96.625C795.927 100.479 798.531 106.531 798.531 114.781V121H750.938V98.4688H741.5V92.7188H750.938V76.1562ZM756.688 81.9062V92.7188H774.156V81.9062H756.688ZM756.688 98.4688V115.25H792.781V114.781C792.781 107.135 789.948 102.083 784.281 99.625C782.26 98.8542 780.031 98.4688 777.594 98.4688H756.688ZM804 76.1562H860.812V81.9062H804V76.1562ZM804 92.7188H860.812V98.4688H809.75V102.594C809.75 107.594 812.74 111.583 818.719 114.562C820.448 115.021 821.823 115.25 822.844 115.25H860.562V121H822.156C816.802 121 811.979 118.396 807.688 113.188C805.229 109.708 804 106.333 804 103.062V92.7188ZM875.719 76.0938H903.562C911.667 76.0938 917.656 79.8542 921.531 87.375C922.76 89.75 923.375 92.5104 923.375 95.6562V121H866.5V115.25H875.719V76.0938ZM881.469 81.8438V115.25H917.625V96.125C917.625 89.0625 913.938 84.3854 906.562 82.0938C905.25 81.9271 904.177 81.8438 903.344 81.8438H881.469ZM929 76.1562H985.812V81.9062H929V76.1562ZM929 92.7188H985.812V98.4688H934.75V102.594C934.75 107.594 937.74 111.583 943.719 114.562C945.448 115.021 946.823 115.25 947.844 115.25H985.562V121H947.156C941.802 121 936.979 118.396 932.688 113.188C930.229 109.708 929 106.333 929 103.062V92.7188ZM991.5 76.1562H997.156V92.2188H1042.72V76.1562H1048.38V121H1042.72V97.875H997.156V121H991.5V76.1562ZM1054 76.0312H1059.75V115.25H1067.31C1068.21 114.208 1077.23 101.135 1094.38 76.0312H1111.12V121H1105.16V81.7812H1097.81C1097.02 82.4062 1088 95.4792 1070.75 121H1054V76.0312ZM1135.34 76.1562H1173.75V81.9062H1135.34C1130.97 81.9062 1127.22 84.2812 1124.09 89.0312C1123.64 89.8021 1123.18 91.0312 1122.72 92.7188H1173.75V121H1168V98.4688H1141.56C1140.83 99.0312 1135.77 105.625 1126.38 118.25C1124.98 120.083 1124.22 121 1124.09 121H1116.5V120.781L1133.28 98.6875V98.4688H1116.72V94.7812C1116.72 87.5938 1120.48 81.9271 1128 77.7812C1130.6 76.6979 1133.05 76.1562 1135.34 76.1562Z" fill="white"/>
<path d="M866.5 9.0625V6.5625H864V9.0625H866.5ZM881.156 9.0625H883.656V6.5625H881.156V9.0625ZM890.156 42.875L887.744 43.5311L888.245 45.375H890.156V42.875ZM899.844 42.875V45.375H902.344V42.875H899.844ZM908.844 9.0625V6.5625H906.93L906.43 8.40989L908.844 9.0625ZM923.5 9.0625H926V6.5625H923.5V9.0625ZM923.5 54V56.5H926V54H923.5ZM917.812 54H915.312V56.5H917.812V54ZM917.812 14.9688H920.312V12.4688H917.812V14.9688ZM908.844 32L911.177 32.8974L911.235 32.7481L911.272 32.5927L908.844 32ZM904.094 48.8125V51.3125H906L906.505 49.4744L904.094 48.8125ZM885.656 48.8125L883.24 49.455L883.734 51.3125H885.656V48.8125ZM876.656 14.9688L879.072 14.3263L878.578 12.4688H876.656V14.9688ZM872.406 14.9688V12.4688H869.906V14.9688H872.406ZM872.406 54V56.5H874.906V54H872.406ZM866.5 54H864V56.5H866.5V54ZM866.5 11.5625H881.156V6.5625H866.5V11.5625ZM878.656 9.0625C878.656 9.40265 878.737 9.75638 878.742 9.78117C878.773 9.93085 878.815 10.1147 878.864 10.3224C878.963 10.7418 879.108 11.3249 879.296 12.0638C879.675 13.5451 880.24 15.6981 880.99 18.518C882.492 24.1602 884.744 32.4987 887.744 43.5311L892.569 42.2189C889.569 31.1888 887.32 22.8607 885.822 17.232C885.073 14.4164 884.513 12.283 884.141 10.8269C883.955 10.097 883.819 9.54857 883.73 9.17367C883.685 8.98421 883.657 8.85528 883.64 8.77645C883.599 8.57272 883.656 8.78225 883.656 9.0625H878.656ZM890.156 45.375H899.844V40.375H890.156V45.375ZM902.344 42.875C902.344 43.0428 902.326 43.1697 902.324 43.1845C902.318 43.2241 902.313 43.2504 902.313 43.2549C902.311 43.2648 902.312 43.2546 902.321 43.2136C902.339 43.135 902.368 43.0074 902.414 42.8213C902.503 42.4531 902.64 41.9105 902.827 41.1872C903.2 39.7435 903.76 37.6154 904.51 34.7993C906.008 29.1688 908.257 20.8081 911.257 9.71511L906.43 8.40989C903.43 19.5044 901.179 27.8729 899.678 33.5132C898.927 36.3325 898.363 38.4753 897.986 39.9378C897.797 40.6676 897.653 41.237 897.555 41.6396C897.507 41.8389 897.466 42.0114 897.436 42.1477C897.422 42.2141 897.406 42.2901 897.392 42.3648C897.386 42.4016 897.377 42.455 897.368 42.5163C897.363 42.5528 897.344 42.6961 897.344 42.875H902.344ZM908.844 11.5625H923.5V6.5625H908.844V11.5625ZM921 9.0625V54H926V9.0625H921ZM923.5 51.5H917.812V56.5H923.5V51.5ZM920.312 54V14.9688H915.312V54H920.312ZM917.812 12.4688H913.562V17.4688H917.812V12.4688ZM913.562 12.4688C912.761 12.4688 912.21 12.8378 911.976 13.0224C911.72 13.2241 911.554 13.4332 911.468 13.5489C911.293 13.7856 911.174 14.0214 911.108 14.1618C910.962 14.4694 910.822 14.8425 910.692 15.2218C910.423 16.0048 910.089 17.128 909.692 18.559C908.895 21.4361 907.802 25.7244 906.415 31.4073L911.272 32.5927C912.656 26.9214 913.735 22.6941 914.511 19.8941C914.901 18.4866 915.203 17.4808 915.421 16.8446C915.535 16.5143 915.601 16.3552 915.624 16.3079C915.641 16.2709 915.598 16.3736 915.488 16.5217C915.436 16.593 915.3 16.7688 915.072 16.9483C914.866 17.1108 914.341 17.4688 913.562 17.4688V12.4688ZM906.51 31.1026C906.301 31.6469 905.786 33.4065 905.016 36.1328C904.222 38.9438 903.111 42.9508 901.683 48.1506L906.505 49.4744C907.931 44.2783 909.039 40.2853 909.828 37.4922C910.222 36.0949 910.536 35.0043 910.769 34.2162C910.885 33.8216 910.98 33.51 911.053 33.2771C911.089 33.1607 911.118 33.0693 911.142 33.0004C911.166 32.9266 911.177 32.8974 911.177 32.8974L906.51 31.1026ZM904.094 46.3125H885.656V51.3125H904.094V46.3125ZM888.072 48.17L879.072 14.3263L874.24 15.6112L883.24 49.455L888.072 48.17ZM876.656 12.4688H872.406V17.4688H876.656V12.4688ZM869.906 14.9688V54H874.906V14.9688H869.906ZM872.406 51.5H866.5V56.5H872.406V51.5ZM869 54V9.0625H864V54H869ZM929 9.15625V6.65625H926.5V9.15625H929ZM985.812 9.15625H988.312V6.65625H985.812V9.15625ZM985.812 14.9062V17.4062H988.312V14.9062H985.812ZM929 14.9062H926.5V17.4062H929V14.9062ZM929 25.7188V23.2188H926.5V25.7188H929ZM985.812 25.7188H988.312V23.2188H985.812V25.7188ZM985.812 31.4688V33.9688H988.312V31.4688H985.812ZM934.75 31.4688V28.9688H932.25V31.4688H934.75ZM943.719 47.5625L942.604 49.8001L942.832 49.9138L943.078 49.979L943.719 47.5625ZM985.562 48.25H988.062V45.75H985.562V48.25ZM985.562 54V56.5H988.062V54H985.562ZM932.688 46.1875L930.646 47.6302L930.699 47.7058L930.758 47.7773L932.688 46.1875ZM929 11.6562H985.812V6.65625H929V11.6562ZM983.312 9.15625V14.9062H988.312V9.15625H983.312ZM985.812 12.4062H929V17.4062H985.812V12.4062ZM931.5 14.9062V9.15625H926.5V14.9062H931.5ZM929 28.2188H985.812V23.2188H929V28.2188ZM983.312 25.7188V31.4688H988.312V25.7188H983.312ZM985.812 28.9688H934.75V33.9688H985.812V28.9688ZM932.25 31.4688V35.5938H937.25V31.4688H932.25ZM932.25 35.5938C932.25 41.8647 936.11 46.5643 942.604 49.8001L944.834 45.3249C939.37 42.6024 937.25 39.3228 937.25 35.5938H932.25ZM943.078 49.979C944.885 50.4579 946.503 50.75 947.844 50.75V45.75C947.142 45.75 946.011 45.5837 944.359 45.146L943.078 49.979ZM947.844 50.75H985.562V45.75H947.844V50.75ZM983.062 48.25V54H988.062V48.25H983.062ZM985.562 51.5H947.156V56.5H985.562V51.5ZM947.156 51.5C942.737 51.5 938.568 49.393 934.617 44.5977L930.758 47.7773C935.39 53.3987 940.867 56.5 947.156 56.5V51.5ZM934.729 44.7448C932.479 41.5608 931.5 38.6804 931.5 36.0625H926.5C926.5 39.9863 927.979 43.8559 930.646 47.6302L934.729 44.7448ZM931.5 36.0625V25.7188H926.5V36.0625H931.5ZM1048.47 9.15625H1050.97V6.65625H1048.47V9.15625ZM1048.47 14.875V17.375H1050.97V14.875H1048.47ZM997.906 24.9375L1000.23 25.866L1000.26 25.7967L1000.28 25.7259L997.906 24.9375ZM1006.16 47.375L1005.18 49.6774L1005.2 49.6859L1005.22 49.694L1006.16 47.375ZM1048.47 48.2812H1050.97V45.7812H1048.47V48.2812ZM1048.47 54V56.5H1050.97V54H1048.47ZM992.875 41.875L990.535 42.755L990.581 42.8767L990.639 42.993L992.875 41.875ZM1005 10.0625L1004.33 7.65272L1004.19 7.6925L1004.05 7.74914L1005 10.0625ZM1011.41 11.6562H1048.47V6.65625H1011.41V11.6562ZM1045.97 9.15625V14.875H1050.97V9.15625H1045.97ZM1048.47 12.375H1012.31V17.375H1048.47V12.375ZM1012.31 12.375C1008.25 12.375 1004.67 13.3028 1001.75 15.3411C998.821 17.3859 996.782 20.3926 995.534 24.1491L1000.28 25.7259C1001.26 22.774 1002.74 20.7496 1004.61 19.4402C1006.5 18.1243 1009 17.375 1012.31 17.375V12.375ZM995.585 24.009C994.95 25.5974 994.719 27.6532 994.719 29.9688H999.719C999.719 27.8676 999.946 26.5692 1000.23 25.866L995.585 24.009ZM994.719 29.9688V33.4062H999.719V29.9688H994.719ZM994.719 33.4062C994.719 37.1701 995.547 40.5259 997.347 43.3396C999.153 46.1618 1001.82 48.2546 1005.18 49.6774L1007.13 45.0726C1004.53 43.9745 1002.73 42.4789 1001.56 40.6448C1000.38 38.8022 999.719 36.4341 999.719 33.4062H994.719ZM1005.22 49.694C1007 50.4118 1008.84 50.7812 1010.72 50.7812V45.7812C1009.51 45.7812 1008.31 45.5466 1007.09 45.056L1005.22 49.694ZM1010.72 50.7812H1048.47V45.7812H1010.72V50.7812ZM1045.97 48.2812V54H1050.97V48.2812H1045.97ZM1048.47 51.5H1010.25V56.5H1048.47V51.5ZM1010.25 51.5C1006.95 51.5 1004.13 50.6263 1001.68 48.9186C999.209 47.194 996.996 44.5274 995.111 40.757L990.639 42.993C992.795 47.306 995.499 50.7018 998.819 53.0189C1002.16 55.3529 1006 56.5 1010.25 56.5V51.5ZM995.215 40.995C994.421 38.8836 994 36.4388 994 33.625H989C989 36.9362 989.496 39.9914 990.535 42.755L995.215 40.995ZM994 33.625V29.0625H989V33.625H994ZM994 29.0625C994 25.0083 995.009 21.7064 996.913 19.0261C998.827 16.3318 1001.78 14.0852 1005.95 12.3759L1004.05 7.74914C999.224 9.72732 995.423 12.4911 992.837 16.1301C990.241 19.7832 989 24.1375 989 29.0625H994ZM1005.67 12.4723C1007.66 11.9227 1009.57 11.6562 1011.41 11.6562V6.65625C1009.08 6.65625 1006.72 6.99398 1004.33 7.65272L1005.67 12.4723ZM1054 9.15625V6.65625H1051.5V9.15625H1054ZM1110.75 9.15625H1113.25V6.65625H1110.75V9.15625ZM1110.75 14.875V17.375H1113.25V14.875H1110.75ZM1085.34 14.875V12.375H1082.84V14.875H1085.34ZM1079.62 54H1077.12V56.5H1079.62V54ZM1079.62 14.875H1082.12V12.375H1079.62V14.875ZM1054 14.875H1051.5V17.375H1054V14.875ZM1054 11.6562H1110.75V6.65625H1054V11.6562ZM1108.25 9.15625V14.875H1113.25V9.15625H1108.25ZM1110.75 12.375H1085.34V17.375H1110.75V12.375ZM1082.84 14.875V53.5312H1087.84V14.875H1082.84ZM1082.84 53.5312C1082.84 53.3021 1082.9 52.6711 1083.46 52.115C1084.01 51.559 1084.65 51.5 1084.88 51.5V56.5C1085.42 56.5 1086.28 56.3629 1086.99 55.6506C1087.71 54.9383 1087.84 54.0729 1087.84 53.5312H1082.84ZM1084.88 51.5H1079.62V56.5H1084.88V51.5ZM1082.12 54V14.875H1077.12V54H1082.12ZM1079.62 12.375H1054V17.375H1079.62V12.375ZM1056.5 14.875V9.15625H1051.5V14.875H1056.5ZM1116.5 9.15625V6.65625H1114V9.15625H1116.5ZM1172.09 21.5L1174.48 20.7577L1174.42 20.5649L1174.33 20.3842L1172.09 21.5ZM1173.25 54V56.5H1175.75V54H1173.25ZM1117.66 40.9688L1115.3 41.7996L1115.33 41.8783L1115.36 41.9549L1117.66 40.9688ZM1122.22 14.875V12.375H1119.72V14.875H1122.22ZM1133.44 48.0625L1132.72 50.4565L1132.96 50.5285L1133.21 50.5517L1133.44 48.0625ZM1167.53 48.2812V50.7812H1170.03V48.2812H1167.53ZM1157.69 15.3438L1158.61 13.02L1158.48 12.9686L1158.35 12.9318L1157.69 15.3438ZM1116.5 11.6562H1154.47V6.65625H1116.5V11.6562ZM1154.47 11.6562C1157.81 11.6562 1160.69 12.5469 1163.18 14.2899C1165.69 16.0503 1167.94 18.7714 1169.86 22.6158L1174.33 20.3842C1172.14 15.9994 1169.41 12.5487 1166.04 10.1944C1162.66 7.82292 1158.77 6.65625 1154.47 6.65625V11.6562ZM1169.71 22.2423C1170.46 24.6633 1170.75 26.2751 1170.75 27.2188H1175.75C1175.75 25.4958 1175.27 23.2951 1174.48 20.7577L1169.71 22.2423ZM1170.75 27.2188V54H1175.75V27.2188H1170.75ZM1173.25 51.5H1136.62V56.5H1173.25V51.5ZM1136.62 51.5C1132.59 51.5 1129.29 50.5229 1126.61 48.6816C1123.92 46.8334 1121.68 43.9931 1119.95 39.9826L1115.36 41.9549C1117.37 46.6319 1120.15 50.3072 1123.78 52.8028C1127.42 55.3052 1131.75 56.5 1136.62 56.5V51.5ZM1120.01 40.1379C1119.33 38.1873 1119 36.3327 1119 34.5625H1114C1114 36.959 1114.44 39.3752 1115.3 41.7996L1120.01 40.1379ZM1119 34.5625V9.15625H1114V34.5625H1119ZM1119.72 14.875V34.0938H1124.72V14.875H1119.72ZM1119.72 34.0938C1119.72 38.086 1120.79 41.5986 1123.07 44.4483C1125.34 47.2755 1128.64 49.2303 1132.72 50.4565L1134.16 45.6685C1130.75 44.6447 1128.44 43.1464 1126.97 41.3174C1125.52 39.5108 1124.72 37.164 1124.72 34.0938H1119.72ZM1133.21 50.5517C1134.79 50.7 1136.1 50.7812 1137.09 50.7812V45.7812C1136.33 45.7812 1135.21 45.7166 1133.67 45.5733L1133.21 50.5517ZM1137.09 50.7812H1167.53V45.7812H1137.09V50.7812ZM1170.03 48.2812V27.9062H1165.03V48.2812H1170.03ZM1170.03 27.9062C1170.03 24.5123 1169.05 21.4675 1167.04 18.8955C1165.05 16.3571 1162.17 14.4337 1158.61 13.02L1156.77 17.6675C1159.77 18.858 1161.81 20.3304 1163.1 21.9795C1164.37 23.595 1165.03 25.5294 1165.03 27.9062H1170.03ZM1158.35 12.9318C1157.02 12.5715 1155.73 12.375 1154.47 12.375V17.375C1155.21 17.375 1156.06 17.491 1157.03 17.7557L1158.35 12.9318ZM1154.47 12.375H1122.22V17.375H1154.47V12.375ZM554 76.1562V73.6562H551.5V76.1562H554ZM610.875 76.1562H613.375V73.6562H610.875V76.1562ZM610.875 121V123.5H613.375V121H610.875ZM605.219 121H602.719V123.5H605.219V121ZM605.219 82.0625H607.719V79.5625H605.219V82.0625ZM559.906 82.0625V79.5625H557.406V82.0625H559.906ZM559.906 121V123.5H562.406V121H559.906ZM554 121H551.5V123.5H554V121ZM554 78.6562H610.875V73.6562H554V78.6562ZM608.375 76.1562V121H613.375V76.1562H608.375ZM610.875 118.5H605.219V123.5H610.875V118.5ZM607.719 121V82.0625H602.719V121H607.719ZM605.219 79.5625H559.906V84.5625H605.219V79.5625ZM557.406 82.0625V121H562.406V82.0625H557.406ZM559.906 118.5H554V123.5H559.906V118.5ZM556.5 121V76.1562H551.5V121H556.5ZM616.5 75.9062V73.4062H614V75.9062H616.5ZM672.5 88.7188L670.203 89.7049L670.208 89.7171L670.213 89.7292L672.5 88.7188ZM673.688 98.4688V100.969H676.188V98.4688H673.688ZM622.438 98.4688V95.9688H619.938V98.4688H622.438ZM622.438 121V123.5H624.938V121H622.438ZM616.5 121H614V123.5H616.5V121ZM616.5 92.75V90.25H614V92.75H616.5ZM667.531 92.75V95.25H670.031V92.75H667.531ZM661.594 83.9688L663.143 82.0065L663.038 81.9241L662.926 81.8532L661.594 83.9688ZM616.5 81.8438H614V84.3438H616.5V81.8438ZM616.5 78.4062H653.75V73.4062H616.5V78.4062ZM653.75 78.4062C657.75 78.4062 661.008 79.3671 663.652 81.1735C666.304 82.9858 668.514 85.7706 670.203 89.7049L674.797 87.7326C672.819 83.1252 670.071 79.5038 666.473 77.0453C662.867 74.5808 658.584 73.4062 653.75 73.4062V78.4062ZM670.213 89.7292C670.84 91.1477 671.188 92.8554 671.188 94.9062H676.188C676.188 92.2904 675.743 89.8732 674.787 87.7083L670.213 89.7292ZM671.188 94.9062V98.4688H676.188V94.9062H671.188ZM673.688 95.9688H622.438V100.969H673.688V95.9688ZM619.938 98.4688V121H624.938V98.4688H619.938ZM622.438 118.5H616.5V123.5H622.438V118.5ZM619 121V92.75H614V121H619ZM616.5 95.25H667.531V90.25H616.5V95.25ZM670.031 92.75C670.031 88.8051 667.225 85.2293 663.143 82.0065L660.045 85.931C663.879 88.9582 665.031 91.2366 665.031 92.75H670.031ZM662.926 81.8532C660.4 80.263 657.807 79.3438 655.188 79.3438V84.3438C656.61 84.3438 658.287 84.8412 660.262 86.0843L662.926 81.8532ZM655.188 79.3438H616.5V84.3438H655.188V79.3438ZM619 81.8438V75.9062H614V81.8438H619ZM679 76.1562V73.6562H676.5V76.1562H679ZM734.594 88.5L736.981 87.7577L736.921 87.5649L736.831 87.3842L734.594 88.5ZM735.75 121V123.5H738.25V121H735.75ZM680.156 107.969L677.798 108.8L677.826 108.878L677.859 108.955L680.156 107.969ZM684.719 81.875V79.375H682.219V81.875H684.719ZM695.938 115.062L695.217 117.457L695.456 117.528L695.705 117.552L695.938 115.062ZM730.031 115.281V117.781H732.531V115.281H730.031ZM720.188 82.3438L721.11 80.02L720.98 79.9686L720.845 79.9318L720.188 82.3438ZM679 78.6562H716.969V73.6562H679V78.6562ZM716.969 78.6562C720.314 78.6562 723.186 79.5469 725.675 81.2899C728.189 83.0502 730.439 85.7714 732.357 89.6158L736.831 87.3842C734.644 82.9994 731.905 79.5487 728.544 77.1945C725.157 74.8229 721.269 73.6562 716.969 73.6562V78.6562ZM732.206 89.2423C732.959 91.6633 733.25 93.2751 733.25 94.2188H738.25C738.25 92.4958 737.77 90.2951 736.981 87.7577L732.206 89.2423ZM733.25 94.2188V121H738.25V94.2188H733.25ZM735.75 118.5H699.125V123.5H735.75V118.5ZM699.125 118.5C695.088 118.5 691.791 117.523 689.111 115.682C686.421 113.833 684.175 110.993 682.454 106.983L677.859 108.955C679.867 113.632 682.647 117.307 686.28 119.803C689.922 122.305 694.246 123.5 699.125 123.5V118.5ZM682.514 107.138C681.827 105.187 681.5 103.333 681.5 101.562H676.5C676.5 103.959 676.944 106.375 677.798 108.8L682.514 107.138ZM681.5 101.562V76.1562H676.5V101.562H681.5ZM682.219 81.875V101.094H687.219V81.875H682.219ZM682.219 101.094C682.219 105.086 683.286 108.599 685.574 111.448C687.845 114.276 691.141 116.23 695.217 117.457L696.658 112.668C693.255 111.645 690.942 110.146 689.473 108.317C688.022 106.511 687.219 104.164 687.219 101.094H682.219ZM695.705 117.552C697.295 117.7 698.603 117.781 699.594 117.781V112.781C698.834 112.781 697.705 112.717 696.17 112.573L695.705 117.552ZM699.594 117.781H730.031V112.781H699.594V117.781ZM732.531 115.281V94.9062H727.531V115.281H732.531ZM732.531 94.9062C732.531 91.5123 731.553 88.4675 729.538 85.8955C727.549 83.3571 724.672 81.4337 721.11 80.02L719.265 84.6675C722.266 85.858 724.31 87.3304 725.602 88.9795C726.868 90.595 727.531 92.5294 727.531 94.9062H732.531ZM720.845 79.9318C719.524 79.5715 718.228 79.375 716.969 79.375V84.375C717.71 84.375 718.559 84.491 719.53 84.7557L720.845 79.9318ZM716.969 79.375H684.719V84.375H716.969V79.375ZM750.938 76.1562V73.6562H748.438V76.1562H750.938ZM779.906 76.1562H782.406V73.6562H779.906V76.1562ZM779.906 92.7188H777.406V95.2188H779.906V92.7188ZM790.719 96.625L792.206 94.6154L792.136 94.5638L792.063 94.5172L790.719 96.625ZM798.531 121V123.5H801.031V121H798.531ZM750.938 121H748.438V123.5H750.938V121ZM750.938 98.4688H753.438V95.9688H750.938V98.4688ZM741.5 98.4688H739V100.969H741.5V98.4688ZM741.5 92.7188V90.2188H739V92.7188H741.5ZM750.938 92.7188V95.2188H753.438V92.7188H750.938ZM756.688 81.9062V79.4062H754.188V81.9062H756.688ZM756.688 92.7188H754.188V95.2188H756.688V92.7188ZM774.156 92.7188V95.2188H776.656V92.7188H774.156ZM774.156 81.9062H776.656V79.4062H774.156V81.9062ZM756.688 98.4688V95.9688H754.188V98.4688H756.688ZM756.688 115.25H754.188V117.75H756.688V115.25ZM792.781 115.25V117.75H795.281V115.25H792.781ZM784.281 99.625L785.276 97.3315L785.225 97.3092L785.172 97.2892L784.281 99.625ZM750.938 78.6562H779.906V73.6562H750.938V78.6562ZM777.406 76.1562V92.7188H782.406V76.1562H777.406ZM779.906 95.2188C782.36 95.2188 785.489 96.2549 789.374 98.7328L792.063 94.5172C787.782 91.7867 783.702 90.2188 779.906 90.2188V95.2188ZM789.232 98.6346C793.632 101.891 796.031 107.084 796.031 114.781H801.031C801.031 105.978 798.222 99.0672 792.206 94.6154L789.232 98.6346ZM796.031 114.781V121H801.031V114.781H796.031ZM798.531 118.5H750.938V123.5H798.531V118.5ZM753.438 121V98.4688H748.438V121H753.438ZM750.938 95.9688H741.5V100.969H750.938V95.9688ZM744 98.4688V92.7188H739V98.4688H744ZM741.5 95.2188H750.938V90.2188H741.5V95.2188ZM753.438 92.7188V76.1562H748.438V92.7188H753.438ZM754.188 81.9062V92.7188H759.188V81.9062H754.188ZM756.688 95.2188H774.156V90.2188H756.688V95.2188ZM776.656 92.7188V81.9062H771.656V92.7188H776.656ZM774.156 79.4062H756.688V84.4062H774.156V79.4062ZM754.188 98.4688V115.25H759.188V98.4688H754.188ZM756.688 117.75H792.781V112.75H756.688V117.75ZM795.281 115.25V114.781H790.281V115.25H795.281ZM795.281 114.781C795.281 110.663 794.519 107.035 792.837 104.035C791.134 100.999 788.576 98.7629 785.276 97.3315L783.286 101.918C785.654 102.945 787.345 104.464 788.476 106.481C789.626 108.532 790.281 111.254 790.281 114.781H795.281ZM785.172 97.2892C782.833 96.3969 780.297 95.9688 777.594 95.9688V100.969C779.765 100.969 781.688 101.311 783.39 101.961L785.172 97.2892ZM777.594 95.9688H756.688V100.969H777.594V95.9688ZM804 76.1562V73.6562H801.5V76.1562H804ZM860.812 76.1562H863.312V73.6562H860.812V76.1562ZM860.812 81.9062V84.4062H863.312V81.9062H860.812ZM804 81.9062H801.5V84.4062H804V81.9062ZM804 92.7188V90.2188H801.5V92.7188H804ZM860.812 92.7188H863.312V90.2188H860.812V92.7188ZM860.812 98.4688V100.969H863.312V98.4688H860.812ZM809.75 98.4688V95.9688H807.25V98.4688H809.75ZM818.719 114.562L817.604 116.8L817.832 116.914L818.078 116.979L818.719 114.562ZM860.562 115.25H863.062V112.75H860.562V115.25ZM860.562 121V123.5H863.062V121H860.562ZM807.688 113.188L805.646 114.63L805.699 114.706L805.758 114.777L807.688 113.188ZM804 78.6562H860.812V73.6562H804V78.6562ZM858.312 76.1562V81.9062H863.312V76.1562H858.312ZM860.812 79.4062H804V84.4062H860.812V79.4062ZM806.5 81.9062V76.1562H801.5V81.9062H806.5ZM804 95.2188H860.812V90.2188H804V95.2188ZM858.312 92.7188V98.4688H863.312V92.7188H858.312ZM860.812 95.9688H809.75V100.969H860.812V95.9688ZM807.25 98.4688V102.594H812.25V98.4688H807.25ZM807.25 102.594C807.25 108.865 811.11 113.564 817.604 116.8L819.834 112.325C814.37 109.602 812.25 106.323 812.25 102.594H807.25ZM818.078 116.979C819.885 117.458 821.503 117.75 822.844 117.75V112.75C822.142 112.75 821.011 112.584 819.359 112.146L818.078 116.979ZM822.844 117.75H860.562V112.75H822.844V117.75ZM858.062 115.25V121H863.062V115.25H858.062ZM860.562 118.5H822.156V123.5H860.562V118.5ZM822.156 118.5C817.737 118.5 813.568 116.393 809.617 111.598L805.758 114.777C810.39 120.399 815.867 123.5 822.156 123.5V118.5ZM809.729 111.745C807.479 108.561 806.5 105.68 806.5 103.062H801.5C801.5 106.986 802.979 110.856 805.646 114.63L809.729 111.745ZM806.5 103.062V92.7188H801.5V103.062H806.5ZM875.719 76.0938V73.5938H873.219V76.0938H875.719ZM921.531 87.375L919.309 88.52L919.311 88.5241L921.531 87.375ZM923.375 121V123.5H925.875V121H923.375ZM866.5 121H864V123.5H866.5V121ZM866.5 115.25V112.75H864V115.25H866.5ZM875.719 115.25V117.75H878.219V115.25H875.719ZM881.469 81.8438V79.3438H878.969V81.8438H881.469ZM881.469 115.25H878.969V117.75H881.469V115.25ZM917.625 115.25V117.75H920.125V115.25H917.625ZM906.562 82.0938L907.304 79.7064L907.095 79.6413L906.877 79.6137L906.562 82.0938ZM875.719 78.5938H903.562V73.5938H875.719V78.5938ZM903.562 78.5938C907.215 78.5938 910.263 79.4361 912.804 81.0314C915.35 82.6304 917.536 85.0794 919.309 88.52L923.754 86.23C921.651 82.1498 918.905 78.9581 915.462 76.7968C912.013 74.6316 908.015 73.5938 903.562 73.5938V78.5938ZM919.311 88.5241C920.327 90.4863 920.875 92.8399 920.875 95.6562H925.875C925.875 92.1809 925.194 89.0137 923.752 86.2259L919.311 88.5241ZM920.875 95.6562V121H925.875V95.6562H920.875ZM923.375 118.5H866.5V123.5H923.375V118.5ZM869 121V115.25H864V121H869ZM866.5 117.75H875.719V112.75H866.5V117.75ZM878.219 115.25V76.0938H873.219V115.25H878.219ZM878.969 81.8438V115.25H883.969V81.8438H878.969ZM881.469 117.75H917.625V112.75H881.469V117.75ZM920.125 115.25V96.125H915.125V115.25H920.125ZM920.125 96.125C920.125 92.1405 919.076 88.6302 916.823 85.7725C914.585 82.9344 911.332 80.958 907.304 79.7064L905.821 84.4811C909.168 85.5212 911.446 87.0292 912.896 88.8681C914.331 90.6875 915.125 93.047 915.125 96.125H920.125ZM906.877 79.6137C905.513 79.4405 904.325 79.3438 903.344 79.3438V84.3438C904.029 84.3438 904.987 84.4137 906.248 84.5738L906.877 79.6137ZM903.344 79.3438H881.469V84.3438H903.344V79.3438ZM929 76.1562V73.6562H926.5V76.1562H929ZM985.812 76.1562H988.312V73.6562H985.812V76.1562ZM985.812 81.9062V84.4062H988.312V81.9062H985.812ZM929 81.9062H926.5V84.4062H929V81.9062ZM929 92.7188V90.2188H926.5V92.7188H929ZM985.812 92.7188H988.312V90.2188H985.812V92.7188ZM985.812 98.4688V100.969H988.312V98.4688H985.812ZM934.75 98.4688V95.9688H932.25V98.4688H934.75ZM943.719 114.562L942.604 116.8L942.832 116.914L943.078 116.979L943.719 114.562ZM985.562 115.25H988.062V112.75H985.562V115.25ZM985.562 121V123.5H988.062V121H985.562ZM932.688 113.188L930.646 114.63L930.699 114.706L930.758 114.777L932.688 113.188ZM929 78.6562H985.812V73.6562H929V78.6562ZM983.312 76.1562V81.9062H988.312V76.1562H983.312ZM985.812 79.4062H929V84.4062H985.812V79.4062ZM931.5 81.9062V76.1562H926.5V81.9062H931.5ZM929 95.2188H985.812V90.2188H929V95.2188ZM983.312 92.7188V98.4688H988.312V92.7188H983.312ZM985.812 95.9688H934.75V100.969H985.812V95.9688ZM932.25 98.4688V102.594H937.25V98.4688H932.25ZM932.25 102.594C932.25 108.865 936.11 113.564 942.604 116.8L944.834 112.325C939.37 109.602 937.25 106.323 937.25 102.594H932.25ZM943.078 116.979C944.885 117.458 946.503 117.75 947.844 117.75V112.75C947.142 112.75 946.011 112.584 944.359 112.146L943.078 116.979ZM947.844 117.75H985.562V112.75H947.844V117.75ZM983.062 115.25V121H988.062V115.25H983.062ZM985.562 118.5H947.156V123.5H985.562V118.5ZM947.156 118.5C942.737 118.5 938.568 116.393 934.617 111.598L930.758 114.777C935.39 120.399 940.867 123.5 947.156 123.5V118.5ZM934.729 111.745C932.479 108.561 931.5 105.68 931.5 103.062H926.5C926.5 106.986 927.979 110.856 930.646 114.63L934.729 111.745ZM931.5 103.062V92.7188H926.5V103.062H931.5ZM991.5 76.1562V73.6562H989V76.1562H991.5ZM997.156 76.1562H999.656V73.6562H997.156V76.1562ZM997.156 92.2188H994.656V94.7188H997.156V92.2188ZM1042.72 92.2188V94.7188H1045.22V92.2188H1042.72ZM1042.72 76.1562V73.6562H1040.22V76.1562H1042.72ZM1048.38 76.1562H1050.88V73.6562H1048.38V76.1562ZM1048.38 121V123.5H1050.88V121H1048.38ZM1042.72 121H1040.22V123.5H1042.72V121ZM1042.72 97.875H1045.22V95.375H1042.72V97.875ZM997.156 97.875V95.375H994.656V97.875H997.156ZM997.156 121V123.5H999.656V121H997.156ZM991.5 121H989V123.5H991.5V121ZM991.5 78.6562H997.156V73.6562H991.5V78.6562ZM994.656 76.1562V92.2188H999.656V76.1562H994.656ZM997.156 94.7188H1042.72V89.7188H997.156V94.7188ZM1045.22 92.2188V76.1562H1040.22V92.2188H1045.22ZM1042.72 78.6562H1048.38V73.6562H1042.72V78.6562ZM1045.88 76.1562V121H1050.88V76.1562H1045.88ZM1048.38 118.5H1042.72V123.5H1048.38V118.5ZM1045.22 121V97.875H1040.22V121H1045.22ZM1042.72 95.375H997.156V100.375H1042.72V95.375ZM994.656 97.875V121H999.656V97.875H994.656ZM997.156 118.5H991.5V123.5H997.156V118.5ZM994 121V76.1562H989V121H994ZM1054 76.0312V73.5312H1051.5V76.0312H1054ZM1059.75 76.0312H1062.25V73.5312H1059.75V76.0312ZM1059.75 115.25H1057.25V117.75H1059.75V115.25ZM1067.31 115.25V117.75H1068.46L1069.21 116.88L1067.31 115.25ZM1094.38 76.0312V73.5312H1093.05L1092.31 74.6213L1094.38 76.0312ZM1111.12 76.0312H1113.62V73.5312H1111.12V76.0312ZM1111.12 121V123.5H1113.62V121H1111.12ZM1105.16 121H1102.66V123.5H1105.16V121ZM1105.16 81.7812H1107.66V79.2812H1105.16V81.7812ZM1097.81 81.7812V79.2812H1096.94L1096.26 79.819L1097.81 81.7812ZM1070.75 121V123.5H1072.08L1072.82 122.4L1070.75 121ZM1054 121H1051.5V123.5H1054V121ZM1054 78.5312H1059.75V73.5312H1054V78.5312ZM1057.25 76.0312V115.25H1062.25V76.0312H1057.25ZM1059.75 117.75H1067.31V112.75H1059.75V117.75ZM1069.21 116.88C1069.53 116.501 1070.36 115.349 1071.55 113.65C1072.8 111.877 1074.55 109.354 1076.81 106.084C1081.32 99.5424 1087.87 89.9942 1096.44 77.4412L1092.31 74.6213C1083.74 87.1724 1077.2 96.7128 1072.69 103.244C1070.44 106.511 1068.7 109.02 1067.46 110.776C1066.84 111.654 1066.36 112.338 1066 112.831C1065.82 113.078 1065.68 113.27 1065.58 113.413C1065.46 113.57 1065.41 113.623 1065.42 113.62L1069.21 116.88ZM1094.38 78.5312H1111.12V73.5312H1094.38V78.5312ZM1108.62 76.0312V121H1113.62V76.0312H1108.62ZM1111.12 118.5H1105.16V123.5H1111.12V118.5ZM1107.66 121V81.7812H1102.66V121H1107.66ZM1105.16 79.2812H1097.81V84.2812H1105.16V79.2812ZM1096.26 79.819C1095.98 80.0432 1095.74 80.3308 1095.65 80.4424C1095.5 80.6191 1095.33 80.8368 1095.14 81.0834C1094.76 81.5799 1094.26 82.2649 1093.64 83.1281C1092.4 84.8585 1090.65 87.3631 1088.4 90.6348C1083.88 97.1814 1077.3 106.838 1068.68 119.6L1072.82 122.4C1081.45 109.641 1088.01 100.001 1092.51 93.4746C1094.76 90.2099 1096.49 87.734 1097.71 86.0399C1098.32 85.1908 1098.78 84.5526 1099.12 84.1148C1099.29 83.8943 1099.41 83.7421 1099.49 83.6462C1099.62 83.4852 1099.55 83.5974 1099.36 83.7435L1096.26 79.819ZM1070.75 118.5H1054V123.5H1070.75V118.5ZM1056.5 121V76.0312H1051.5V121H1056.5ZM1173.75 76.1562H1176.25V73.6562H1173.75V76.1562ZM1173.75 81.9062V84.4062H1176.25V81.9062H1173.75ZM1124.09 89.0312L1122.01 87.6572L1121.97 87.7047L1121.94 87.7536L1124.09 89.0312ZM1122.72 92.7188L1120.31 92.0635L1119.45 95.2188H1122.72V92.7188ZM1173.75 92.7188H1176.25V90.2188H1173.75V92.7188ZM1173.75 121V123.5H1176.25V121H1173.75ZM1168 121H1165.5V123.5H1168V121ZM1168 98.4688H1170.5V95.9688H1168V98.4688ZM1141.56 98.4688V95.9688H1140.71L1140.04 96.4893L1141.56 98.4688ZM1126.38 118.25L1128.36 119.764L1128.37 119.754L1128.38 119.743L1126.38 118.25ZM1116.5 121H1114V123.5H1116.5V121ZM1116.5 120.781L1114.51 119.269L1114 119.939V120.781H1116.5ZM1133.28 98.6875L1135.27 100.2L1135.78 99.5293V98.6875H1133.28ZM1133.28 98.4688H1135.78V95.9688H1133.28V98.4688ZM1116.72 98.4688H1114.22V100.969H1116.72V98.4688ZM1128 77.7812L1127.04 75.473L1126.91 75.5257L1126.79 75.5919L1128 77.7812ZM1135.34 78.6562H1173.75V73.6562H1135.34V78.6562ZM1171.25 76.1562V81.9062H1176.25V76.1562H1171.25ZM1173.75 79.4062H1135.34V84.4062H1173.75V79.4062ZM1135.34 79.4062C1129.88 79.4062 1125.44 82.4405 1122.01 87.6572L1126.18 90.4053C1129 86.122 1132.06 84.4062 1135.34 84.4062V79.4062ZM1121.94 87.7536C1121.31 88.8255 1120.78 90.323 1120.31 92.0635L1125.13 93.374C1125.58 91.7395 1125.96 90.7787 1126.24 90.3089L1121.94 87.7536ZM1122.72 95.2188H1173.75V90.2188H1122.72V95.2188ZM1171.25 92.7188V121H1176.25V92.7188H1171.25ZM1173.75 118.5H1168V123.5H1173.75V118.5ZM1170.5 121V98.4688H1165.5V121H1170.5ZM1168 95.9688H1141.56V100.969H1168V95.9688ZM1140.04 96.4893C1139.72 96.7334 1139.4 97.0877 1139.2 97.3156C1138.95 97.6094 1138.63 97.9906 1138.26 98.4487C1137.52 99.368 1136.51 100.659 1135.24 102.313C1132.69 105.625 1129.07 110.442 1124.37 116.757L1128.38 119.743C1133.08 113.433 1136.68 108.64 1139.2 105.358C1140.46 103.716 1141.44 102.464 1142.15 101.594C1142.5 101.158 1142.77 100.833 1142.97 100.609C1143.22 100.32 1143.22 100.345 1143.09 100.448L1140.04 96.4893ZM1124.39 116.736C1123.69 117.645 1123.18 118.299 1122.83 118.716C1122.66 118.931 1122.55 119.045 1122.51 119.091C1122.48 119.12 1122.52 119.078 1122.6 119.012C1122.64 118.981 1122.74 118.897 1122.9 118.808C1122.98 118.763 1123.11 118.696 1123.29 118.636C1123.45 118.58 1123.73 118.5 1124.09 118.5V123.5C1124.76 123.5 1125.24 123.233 1125.35 123.17C1125.53 123.067 1125.67 122.962 1125.74 122.902C1125.89 122.778 1126.02 122.65 1126.1 122.565C1126.28 122.382 1126.48 122.152 1126.68 121.909C1127.1 121.409 1127.66 120.688 1128.36 119.764L1124.39 116.736ZM1124.09 118.5H1116.5V123.5H1124.09V118.5ZM1119 121V120.781H1114V121H1119ZM1118.49 122.293L1135.27 100.2L1131.29 97.1754L1114.51 119.269L1118.49 122.293ZM1135.78 98.6875V98.4688H1130.78V98.6875H1135.78ZM1133.28 95.9688H1116.72V100.969H1133.28V95.9688ZM1119.22 98.4688V94.7812H1114.22V98.4688H1119.22ZM1119.22 94.7812C1119.22 88.6983 1122.3 83.7789 1129.21 79.9706L1126.79 75.5919C1118.66 80.0752 1114.22 86.4892 1114.22 94.7812H1119.22ZM1128.96 80.0895C1131.33 79.1044 1133.45 78.6562 1135.34 78.6562V73.6562C1132.66 73.6562 1129.88 74.2915 1127.04 75.473L1128.96 80.0895Z" fill="white"/>
<mask id="path-3-outside-1_240_188" maskUnits="userSpaceOnUse" x="0.125" y="1.74219" width="1176" height="224" fill="black">
<rect fill="white" x="0.125" y="1.74219" width="1176" height="224"/>
<path d="M593.062 8.74219H620.543C620.543 9.64062 626.168 30.7734 637.418 72.1406H655.582C655.582 71.4766 661.207 50.3438 672.457 8.74219H699.938V93H689.273V19.8164H681.305C680.602 19.8164 677.652 30.4609 672.457 51.75C671.871 53.2734 668.902 63.7812 663.551 83.2734H628.98L612.105 19.8164H604.137V93H593.062V8.74219Z"/>
<path d="M710.25 8.91797H816.773V19.6992H710.25V8.91797ZM710.25 39.9727H816.773V50.7539H721.031V58.4883C721.031 67.8633 726.637 75.3438 737.848 80.9297C741.09 81.7891 743.668 82.2188 745.582 82.2188H816.305V93H744.293C734.254 93 725.211 88.1172 717.164 78.3516C712.555 71.8281 710.25 65.5 710.25 59.3672V39.9727Z"/>
<path d="M864.762 8.91797H934.254V19.6406H866.461C852.633 19.6406 843.629 25.9297 839.449 38.5078C838.59 40.6562 838.16 43.8008 838.16 47.9414V54.3867C838.16 67.1211 843.746 75.8516 854.918 80.5781C857.73 81.7109 860.582 82.2773 863.473 82.2773H934.254V93H862.594C848.453 93 837.594 85.4219 830.016 70.2656C828.297 65.6953 827.438 60.5391 827.438 54.7969V46.2422C827.438 29.4062 835.875 17.5312 852.75 10.6172C856.852 9.48438 860.855 8.91797 864.762 8.91797Z"/>
<path d="M944.625 8.91797H1051.03V19.6406H1003.39V92.1211C1003.39 92.707 1003.1 93 1002.52 93H992.672V19.6406H944.625V8.91797Z"/>
<path d="M1061.81 8.91797H1133C1147.34 8.91797 1158.36 16.6328 1166.05 32.0625C1167.5 36.7109 1168.22 40.2852 1168.22 42.7852V93H1099.55C1082.83 93 1070.97 84.8555 1063.98 68.5664C1062.54 64.4648 1061.81 60.4609 1061.81 56.5547V8.91797ZM1072.54 19.6406V55.6758C1072.54 68.918 1079.55 77.6484 1093.57 81.8672C1096.5 82.1406 1098.79 82.2773 1100.43 82.2773H1157.5V44.0742C1157.5 33.2539 1151.34 25.4023 1139.04 20.5195C1136.89 19.9336 1134.88 19.6406 1133 19.6406H1072.54Z"/>
<path d="M7.125 134.918H113.766V219H103.16V145.992H18.1992V219H7.125V134.918Z"/>
<path d="M124.312 134.449H194.156C210.719 134.449 222.438 142.457 229.312 158.473C230.797 161.832 231.539 165.699 231.539 170.074V176.754H135.445V219H124.312V166.031H219.996C219.996 160.914 216.285 155.426 208.863 149.566C204.645 146.91 200.641 145.582 196.852 145.582H124.312V134.449Z"/>
<path d="M241.5 134.918H312.691C327.027 134.918 338.043 142.633 345.738 158.062C347.184 162.711 347.906 166.285 347.906 168.785V219H279.234C262.516 219 250.66 210.855 243.668 194.566C242.223 190.465 241.5 186.461 241.5 182.555V134.918ZM252.223 145.641V181.676C252.223 194.918 259.234 203.648 273.258 207.867C276.188 208.141 278.473 208.277 280.113 208.277H337.184V170.074C337.184 159.254 331.031 151.402 318.727 146.52C316.578 145.934 314.566 145.641 312.691 145.641H252.223Z"/>
<path d="M376.383 134.918H430.699V165.973C436.559 165.973 443.316 168.414 450.973 173.297C460.738 180.523 465.621 191.871 465.621 207.34V219H376.383V176.754H358.688V165.973H376.383V134.918ZM387.164 145.699V165.973H419.918V145.699H387.164ZM387.164 176.754V208.219H454.84V207.34C454.84 193.004 449.527 183.531 438.902 178.922C435.113 177.477 430.934 176.754 426.363 176.754H387.164Z"/>
<path d="M475.875 134.918H582.398V145.699H475.875V134.918ZM475.875 165.973H582.398V176.754H486.656V184.488C486.656 193.863 492.262 201.344 503.473 206.93C506.715 207.789 509.293 208.219 511.207 208.219H581.93V219H509.918C499.879 219 490.836 214.117 482.789 204.352C478.18 197.828 475.875 191.5 475.875 185.367V165.973Z"/>
<path d="M610.348 134.801H662.555C677.75 134.801 688.98 141.852 696.246 155.953C698.551 160.406 699.703 165.582 699.703 171.48V219H593.062V208.219H610.348V134.801ZM621.129 145.582V208.219H688.922V172.359C688.922 159.117 682.008 150.348 668.18 146.051C665.719 145.738 663.707 145.582 662.145 145.582H621.129Z"/>
<path d="M710.25 134.918H816.773V145.699H710.25V134.918ZM710.25 165.973H816.773V176.754H721.031V184.488C721.031 193.863 726.637 201.344 737.848 206.93C741.09 207.789 743.668 208.219 745.582 208.219H816.305V219H744.293C734.254 219 725.211 214.117 717.164 204.352C712.555 197.828 710.25 191.5 710.25 185.367V165.973Z"/>
<path d="M827.438 134.918H838.043V165.035H923.473V134.918H934.078V219H923.473V175.641H838.043V219H827.438V134.918Z"/>
<path d="M944.625 134.684H955.406V208.219H969.586C971.266 206.266 988.18 181.754 1020.33 134.684H1051.73V219H1040.54V145.465H1026.77C1025.29 146.637 1008.38 171.148 976.031 219H944.625V134.684Z"/>
<path d="M1097.14 134.918H1169.16V145.699H1097.14C1088.94 145.699 1081.91 150.152 1076.05 159.059C1075.19 160.504 1074.33 162.809 1073.47 165.973H1169.16V219H1158.38V176.754H1108.8C1107.44 177.809 1097.95 190.172 1080.33 213.844C1077.71 217.281 1076.29 219 1076.05 219H1061.81V218.59L1093.28 177.164V176.754H1062.22V169.84C1062.22 156.363 1069.27 145.738 1083.38 137.965C1088.26 135.934 1092.85 134.918 1097.14 134.918Z"/>
</mask>
<path d="M593.062 8.74219H620.543C620.543 9.64062 626.168 30.7734 637.418 72.1406H655.582C655.582 71.4766 661.207 50.3438 672.457 8.74219H699.938V93H689.273V19.8164H681.305C680.602 19.8164 677.652 30.4609 672.457 51.75C671.871 53.2734 668.902 63.7812 663.551 83.2734H628.98L612.105 19.8164H604.137V93H593.062V8.74219Z" fill="white" fill-opacity="0.05"/>
<path d="M710.25 8.91797H816.773V19.6992H710.25V8.91797ZM710.25 39.9727H816.773V50.7539H721.031V58.4883C721.031 67.8633 726.637 75.3438 737.848 80.9297C741.09 81.7891 743.668 82.2188 745.582 82.2188H816.305V93H744.293C734.254 93 725.211 88.1172 717.164 78.3516C712.555 71.8281 710.25 65.5 710.25 59.3672V39.9727Z" fill="white" fill-opacity="0.05"/>
<path d="M864.762 8.91797H934.254V19.6406H866.461C852.633 19.6406 843.629 25.9297 839.449 38.5078C838.59 40.6562 838.16 43.8008 838.16 47.9414V54.3867C838.16 67.1211 843.746 75.8516 854.918 80.5781C857.73 81.7109 860.582 82.2773 863.473 82.2773H934.254V93H862.594C848.453 93 837.594 85.4219 830.016 70.2656C828.297 65.6953 827.438 60.5391 827.438 54.7969V46.2422C827.438 29.4062 835.875 17.5312 852.75 10.6172C856.852 9.48438 860.855 8.91797 864.762 8.91797Z" fill="white" fill-opacity="0.05"/>
<path d="M944.625 8.91797H1051.03V19.6406H1003.39V92.1211C1003.39 92.707 1003.1 93 1002.52 93H992.672V19.6406H944.625V8.91797Z" fill="white" fill-opacity="0.05"/>
<path d="M1061.81 8.91797H1133C1147.34 8.91797 1158.36 16.6328 1166.05 32.0625C1167.5 36.7109 1168.22 40.2852 1168.22 42.7852V93H1099.55C1082.83 93 1070.97 84.8555 1063.98 68.5664C1062.54 64.4648 1061.81 60.4609 1061.81 56.5547V8.91797ZM1072.54 19.6406V55.6758C1072.54 68.918 1079.55 77.6484 1093.57 81.8672C1096.5 82.1406 1098.79 82.2773 1100.43 82.2773H1157.5V44.0742C1157.5 33.2539 1151.34 25.4023 1139.04 20.5195C1136.89 19.9336 1134.88 19.6406 1133 19.6406H1072.54Z" fill="white" fill-opacity="0.05"/>
<path d="M7.125 134.918H113.766V219H103.16V145.992H18.1992V219H7.125V134.918Z" fill="white" fill-opacity="0.05"/>
<path d="M124.312 134.449H194.156C210.719 134.449 222.438 142.457 229.312 158.473C230.797 161.832 231.539 165.699 231.539 170.074V176.754H135.445V219H124.312V166.031H219.996C219.996 160.914 216.285 155.426 208.863 149.566C204.645 146.91 200.641 145.582 196.852 145.582H124.312V134.449Z" fill="white" fill-opacity="0.05"/>
<path d="M241.5 134.918H312.691C327.027 134.918 338.043 142.633 345.738 158.062C347.184 162.711 347.906 166.285 347.906 168.785V219H279.234C262.516 219 250.66 210.855 243.668 194.566C242.223 190.465 241.5 186.461 241.5 182.555V134.918ZM252.223 145.641V181.676C252.223 194.918 259.234 203.648 273.258 207.867C276.188 208.141 278.473 208.277 280.113 208.277H337.184V170.074C337.184 159.254 331.031 151.402 318.727 146.52C316.578 145.934 314.566 145.641 312.691 145.641H252.223Z" fill="white" fill-opacity="0.05"/>
<path d="M376.383 134.918H430.699V165.973C436.559 165.973 443.316 168.414 450.973 173.297C460.738 180.523 465.621 191.871 465.621 207.34V219H376.383V176.754H358.688V165.973H376.383V134.918ZM387.164 145.699V165.973H419.918V145.699H387.164ZM387.164 176.754V208.219H454.84V207.34C454.84 193.004 449.527 183.531 438.902 178.922C435.113 177.477 430.934 176.754 426.363 176.754H387.164Z" fill="white" fill-opacity="0.05"/>
<path d="M475.875 134.918H582.398V145.699H475.875V134.918ZM475.875 165.973H582.398V176.754H486.656V184.488C486.656 193.863 492.262 201.344 503.473 206.93C506.715 207.789 509.293 208.219 511.207 208.219H581.93V219H509.918C499.879 219 490.836 214.117 482.789 204.352C478.18 197.828 475.875 191.5 475.875 185.367V165.973Z" fill="white" fill-opacity="0.05"/>
<path d="M610.348 134.801H662.555C677.75 134.801 688.98 141.852 696.246 155.953C698.551 160.406 699.703 165.582 699.703 171.48V219H593.062V208.219H610.348V134.801ZM621.129 145.582V208.219H688.922V172.359C688.922 159.117 682.008 150.348 668.18 146.051C665.719 145.738 663.707 145.582 662.145 145.582H621.129Z" fill="white" fill-opacity="0.05"/>
<path d="M710.25 134.918H816.773V145.699H710.25V134.918ZM710.25 165.973H816.773V176.754H721.031V184.488C721.031 193.863 726.637 201.344 737.848 206.93C741.09 207.789 743.668 208.219 745.582 208.219H816.305V219H744.293C734.254 219 725.211 214.117 717.164 204.352C712.555 197.828 710.25 191.5 710.25 185.367V165.973Z" fill="white" fill-opacity="0.05"/>
<path d="M827.438 134.918H838.043V165.035H923.473V134.918H934.078V219H923.473V175.641H838.043V219H827.438V134.918Z" fill="white" fill-opacity="0.05"/>
<path d="M944.625 134.684H955.406V208.219H969.586C971.266 206.266 988.18 181.754 1020.33 134.684H1051.73V219H1040.54V145.465H1026.77C1025.29 146.637 1008.38 171.148 976.031 219H944.625V134.684Z" fill="white" fill-opacity="0.05"/>
<path d="M1097.14 134.918H1169.16V145.699H1097.14C1088.94 145.699 1081.91 150.152 1076.05 159.059C1075.19 160.504 1074.33 162.809 1073.47 165.973H1169.16V219H1158.38V176.754H1108.8C1107.44 177.809 1097.95 190.172 1080.33 213.844C1077.71 217.281 1076.29 219 1076.05 219H1061.81V218.59L1093.28 177.164V176.754H1062.22V169.84C1062.22 156.363 1069.27 145.738 1083.38 137.965C1088.26 135.934 1092.85 134.918 1097.14 134.918Z" fill="white" fill-opacity="0.05"/>
<path d="M593.062 8.74219H620.543C620.543 9.64062 626.168 30.7734 637.418 72.1406H655.582C655.582 71.4766 661.207 50.3438 672.457 8.74219H699.938V93H689.273V19.8164H681.305C680.602 19.8164 677.652 30.4609 672.457 51.75C671.871 53.2734 668.902 63.7812 663.551 83.2734H628.98L612.105 19.8164H604.137V93H593.062V8.74219Z" stroke="white" stroke-opacity="0.05" stroke-width="12.8105" mask="url(#path-3-outside-1_240_188)"/>
<path d="M710.25 8.91797H816.773V19.6992H710.25V8.91797ZM710.25 39.9727H816.773V50.7539H721.031V58.4883C721.031 67.8633 726.637 75.3438 737.848 80.9297C741.09 81.7891 743.668 82.2188 745.582 82.2188H816.305V93H744.293C734.254 93 725.211 88.1172 717.164 78.3516C712.555 71.8281 710.25 65.5 710.25 59.3672V39.9727Z" stroke="white" stroke-opacity="0.05" stroke-width="12.8105" mask="url(#path-3-outside-1_240_188)"/>
<path d="M864.762 8.91797H934.254V19.6406H866.461C852.633 19.6406 843.629 25.9297 839.449 38.5078C838.59 40.6562 838.16 43.8008 838.16 47.9414V54.3867C838.16 67.1211 843.746 75.8516 854.918 80.5781C857.73 81.7109 860.582 82.2773 863.473 82.2773H934.254V93H862.594C848.453 93 837.594 85.4219 830.016 70.2656C828.297 65.6953 827.438 60.5391 827.438 54.7969V46.2422C827.438 29.4062 835.875 17.5312 852.75 10.6172C856.852 9.48438 860.855 8.91797 864.762 8.91797Z" stroke="white" stroke-opacity="0.05" stroke-width="12.8105" mask="url(#path-3-outside-1_240_188)"/>
<path d="M944.625 8.91797H1051.03V19.6406H1003.39V92.1211C1003.39 92.707 1003.1 93 1002.52 93H992.672V19.6406H944.625V8.91797Z" stroke="white" stroke-opacity="0.05" stroke-width="12.8105" mask="url(#path-3-outside-1_240_188)"/>
<path d="M1061.81 8.91797H1133C1147.34 8.91797 1158.36 16.6328 1166.05 32.0625C1167.5 36.7109 1168.22 40.2852 1168.22 42.7852V93H1099.55C1082.83 93 1070.97 84.8555 1063.98 68.5664C1062.54 64.4648 1061.81 60.4609 1061.81 56.5547V8.91797ZM1072.54 19.6406V55.6758C1072.54 68.918 1079.55 77.6484 1093.57 81.8672C1096.5 82.1406 1098.79 82.2773 1100.43 82.2773H1157.5V44.0742C1157.5 33.2539 1151.34 25.4023 1139.04 20.5195C1136.89 19.9336 1134.88 19.6406 1133 19.6406H1072.54Z" stroke="white" stroke-opacity="0.05" stroke-width="12.8105" mask="url(#path-3-outside-1_240_188)"/>
<path d="M7.125 134.918H113.766V219H103.16V145.992H18.1992V219H7.125V134.918Z" stroke="white" stroke-opacity="0.05" stroke-width="12.8105" mask="url(#path-3-outside-1_240_188)"/>
<path d="M124.312 134.449H194.156C210.719 134.449 222.438 142.457 229.312 158.473C230.797 161.832 231.539 165.699 231.539 170.074V176.754H135.445V219H124.312V166.031H219.996C219.996 160.914 216.285 155.426 208.863 149.566C204.645 146.91 200.641 145.582 196.852 145.582H124.312V134.449Z" stroke="white" stroke-opacity="0.05" stroke-width="12.8105" mask="url(#path-3-outside-1_240_188)"/>
<path d="M241.5 134.918H312.691C327.027 134.918 338.043 142.633 345.738 158.062C347.184 162.711 347.906 166.285 347.906 168.785V219H279.234C262.516 219 250.66 210.855 243.668 194.566C242.223 190.465 241.5 186.461 241.5 182.555V134.918ZM252.223 145.641V181.676C252.223 194.918 259.234 203.648 273.258 207.867C276.188 208.141 278.473 208.277 280.113 208.277H337.184V170.074C337.184 159.254 331.031 151.402 318.727 146.52C316.578 145.934 314.566 145.641 312.691 145.641H252.223Z" stroke="white" stroke-opacity="0.05" stroke-width="12.8105" mask="url(#path-3-outside-1_240_188)"/>
<path d="M376.383 134.918H430.699V165.973C436.559 165.973 443.316 168.414 450.973 173.297C460.738 180.523 465.621 191.871 465.621 207.34V219H376.383V176.754H358.688V165.973H376.383V134.918ZM387.164 145.699V165.973H419.918V145.699H387.164ZM387.164 176.754V208.219H454.84V207.34C454.84 193.004 449.527 183.531 438.902 178.922C435.113 177.477 430.934 176.754 426.363 176.754H387.164Z" stroke="white" stroke-opacity="0.05" stroke-width="12.8105" mask="url(#path-3-outside-1_240_188)"/>
<path d="M475.875 134.918H582.398V145.699H475.875V134.918ZM475.875 165.973H582.398V176.754H486.656V184.488C486.656 193.863 492.262 201.344 503.473 206.93C506.715 207.789 509.293 208.219 511.207 208.219H581.93V219H509.918C499.879 219 490.836 214.117 482.789 204.352C478.18 197.828 475.875 191.5 475.875 185.367V165.973Z" stroke="white" stroke-opacity="0.05" stroke-width="12.8105" mask="url(#path-3-outside-1_240_188)"/>
<path d="M610.348 134.801H662.555C677.75 134.801 688.98 141.852 696.246 155.953C698.551 160.406 699.703 165.582 699.703 171.48V219H593.062V208.219H610.348V134.801ZM621.129 145.582V208.219H688.922V172.359C688.922 159.117 682.008 150.348 668.18 146.051C665.719 145.738 663.707 145.582 662.145 145.582H621.129Z" stroke="white" stroke-opacity="0.05" stroke-width="12.8105" mask="url(#path-3-outside-1_240_188)"/>
<path d="M710.25 134.918H816.773V145.699H710.25V134.918ZM710.25 165.973H816.773V176.754H721.031V184.488C721.031 193.863 726.637 201.344 737.848 206.93C741.09 207.789 743.668 208.219 745.582 208.219H816.305V219H744.293C734.254 219 725.211 214.117 717.164 204.352C712.555 197.828 710.25 191.5 710.25 185.367V165.973Z" stroke="white" stroke-opacity="0.05" stroke-width="12.8105" mask="url(#path-3-outside-1_240_188)"/>
<path d="M827.438 134.918H838.043V165.035H923.473V134.918H934.078V219H923.473V175.641H838.043V219H827.438V134.918Z" stroke="white" stroke-opacity="0.05" stroke-width="12.8105" mask="url(#path-3-outside-1_240_188)"/>
<path d="M944.625 134.684H955.406V208.219H969.586C971.266 206.266 988.18 181.754 1020.33 134.684H1051.73V219H1040.54V145.465H1026.77C1025.29 146.637 1008.38 171.148 976.031 219H944.625V134.684Z" stroke="white" stroke-opacity="0.05" stroke-width="12.8105" mask="url(#path-3-outside-1_240_188)"/>
<path d="M1097.14 134.918H1169.16V145.699H1097.14C1088.94 145.699 1081.91 150.152 1076.05 159.059C1075.19 160.504 1074.33 162.809 1073.47 165.973H1169.16V219H1158.38V176.754H1108.8C1107.44 177.809 1097.95 190.172 1080.33 213.844C1077.71 217.281 1076.29 219 1076.05 219H1061.81V218.59L1093.28 177.164V176.754H1062.22V169.84C1062.22 156.363 1069.27 145.738 1083.38 137.965C1088.26 135.934 1092.85 134.918 1097.14 134.918Z" stroke="white" stroke-opacity="0.05" stroke-width="12.8105" mask="url(#path-3-outside-1_240_188)"/>
</svg>
