<svg width="1163" height="211" viewBox="0 0 1163 211" fill="none" xmlns="http://www.w3.org/2000/svg">
<path d="M586.062 0.742188H613.543C613.543 1.64062 619.168 22.7734 630.418 64.1406H648.582C648.582 63.4766 654.207 42.3438 665.457 0.742188H692.938V85H682.273V11.8164H674.305C673.602 11.8164 670.652 22.4609 665.457 43.75C664.871 45.2734 661.902 55.7812 656.551 75.2734H621.98L605.105 11.8164H597.137V85H586.062V0.742188ZM703.25 0.917969H809.773V11.6992H703.25V0.917969ZM703.25 31.9727H809.773V42.7539H714.031V50.4883C714.031 59.8633 719.637 67.3438 730.848 72.9297C734.09 73.7891 736.668 74.2188 738.582 74.2188H809.305V85H737.293C727.254 85 718.211 80.1172 710.164 70.3516C705.555 63.8281 703.25 57.5 703.25 51.3672V31.9727ZM857.762 0.917969H927.254V11.6406H859.461C845.633 11.6406 836.629 17.9297 832.449 30.5078C831.59 32.6562 831.16 35.8008 831.16 39.9414V46.3867C831.16 59.1211 836.746 67.8516 847.918 72.5781C850.73 73.7109 853.582 74.2773 856.473 74.2773H927.254V85H855.594C841.453 85 830.594 77.4219 823.016 62.2656C821.297 57.6953 820.438 52.5391 820.438 46.7969V38.2422C820.438 21.4062 828.875 9.53125 845.75 2.61719C849.852 1.48438 853.855 0.917969 857.762 0.917969ZM937.625 0.917969H1044.03V11.6406H996.395V84.1211C996.395 84.707 996.102 85 995.516 85H985.672V11.6406H937.625V0.917969ZM1054.81 0.917969H1126C1140.34 0.917969 1151.36 8.63281 1159.05 24.0625C1160.5 28.7109 1161.22 32.2852 1161.22 34.7852V85H1092.55C1075.83 85 1063.97 76.8555 1056.98 60.5664C1055.54 56.4648 1054.81 52.4609 1054.81 48.5547V0.917969ZM1065.54 11.6406V47.6758C1065.54 60.918 1072.55 69.6484 1086.57 73.8672C1089.5 74.1406 1091.79 74.2773 1093.43 74.2773H1150.5V36.0742C1150.5 25.2539 1144.34 17.4023 1132.04 12.5195C1129.89 11.9336 1127.88 11.6406 1126 11.6406H1065.54ZM0.125 126.918H106.766V211H96.1602V137.992H11.1992V211H0.125V126.918ZM117.312 126.449H187.156C203.719 126.449 215.438 134.457 222.312 150.473C223.797 153.832 224.539 157.699 224.539 162.074V168.754H128.445V211H117.312V158.031H212.996C212.996 152.914 209.285 147.426 201.863 141.566C197.645 138.91 193.641 137.582 189.852 137.582H117.312V126.449ZM234.5 126.918H305.691C320.027 126.918 331.043 134.633 338.738 150.062C340.184 154.711 340.906 158.285 340.906 160.785V211H272.234C255.516 211 243.66 202.855 236.668 186.566C235.223 182.465 234.5 178.461 234.5 174.555V126.918ZM245.223 137.641V173.676C245.223 186.918 252.234 195.648 266.258 199.867C269.188 200.141 271.473 200.277 273.113 200.277H330.184V162.074C330.184 151.254 324.031 143.402 311.727 138.52C309.578 137.934 307.566 137.641 305.691 137.641H245.223ZM369.383 126.918H423.699V157.973C429.559 157.973 436.316 160.414 443.973 165.297C453.738 172.523 458.621 183.871 458.621 199.34V211H369.383V168.754H351.688V157.973H369.383V126.918ZM380.164 137.699V157.973H412.918V137.699H380.164ZM380.164 168.754V200.219H447.84V199.34C447.84 185.004 442.527 175.531 431.902 170.922C428.113 169.477 423.934 168.754 419.363 168.754H380.164ZM468.875 126.918H575.398V137.699H468.875V126.918ZM468.875 157.973H575.398V168.754H479.656V176.488C479.656 185.863 485.262 193.344 496.473 198.93C499.715 199.789 502.293 200.219 504.207 200.219H574.93V211H502.918C492.879 211 483.836 206.117 475.789 196.352C471.18 189.828 468.875 183.5 468.875 177.367V157.973ZM603.348 126.801H655.555C670.75 126.801 681.98 133.852 689.246 147.953C691.551 152.406 692.703 157.582 692.703 163.48V211H586.062V200.219H603.348V126.801ZM614.129 137.582V200.219H681.922V164.359C681.922 151.117 675.008 142.348 661.18 138.051C658.719 137.738 656.707 137.582 655.145 137.582H614.129ZM703.25 126.918H809.773V137.699H703.25V126.918ZM703.25 157.973H809.773V168.754H714.031V176.488C714.031 185.863 719.637 193.344 730.848 198.93C734.09 199.789 736.668 200.219 738.582 200.219H809.305V211H737.293C727.254 211 718.211 206.117 710.164 196.352C705.555 189.828 703.25 183.5 703.25 177.367V157.973ZM820.438 126.918H831.043V157.035H916.473V126.918H927.078V211H916.473V167.641H831.043V211H820.438V126.918ZM937.625 126.684H948.406V200.219H962.586C964.266 198.266 981.18 173.754 1013.33 126.684H1044.73V211H1033.54V137.465H1019.77C1018.29 138.637 1001.38 163.148 969.031 211H937.625V126.684ZM1090.14 126.918H1162.16V137.699H1090.14C1081.94 137.699 1074.91 142.152 1069.05 151.059C1068.19 152.504 1067.33 154.809 1066.47 157.973H1162.16V211H1151.38V168.754H1101.8C1100.44 169.809 1090.95 182.172 1073.33 205.844C1070.71 209.281 1069.29 211 1069.05 211H1054.81V210.59L1086.28 169.164V168.754H1055.22V161.84C1055.22 148.363 1062.27 137.738 1076.38 129.965C1081.26 127.934 1085.85 126.918 1090.14 126.918Z" fill="white" fill-opacity="0.05"/>
<path d="M586.062 0.742188V-5.66306H579.657V0.742188H586.062ZM613.543 0.742188H619.948V-5.66306H613.543V0.742188ZM630.418 64.1406L624.237 65.8215L625.522 70.5459H630.418V64.1406ZM648.582 64.1406V70.5459H654.987V64.1406H648.582ZM665.457 0.742188V-5.66306H660.554L659.274 -0.929875L665.457 0.742188ZM692.938 0.742188H699.343V-5.66306H692.938V0.742188ZM692.938 85V91.4052H699.343V85H692.938ZM682.273 85H675.868V91.4052H682.273V85ZM682.273 11.8164H688.679V5.41116H682.273V11.8164ZM665.457 43.75L671.435 46.0493L671.582 45.6668L671.68 45.2686L665.457 43.75ZM656.551 75.2734V81.6787H661.435L662.727 76.9692L656.551 75.2734ZM621.98 75.2734L615.79 76.9196L617.056 81.6787H621.98V75.2734ZM605.105 11.8164L611.296 10.1703L610.03 5.41116H605.105V11.8164ZM597.137 11.8164V5.41116H590.732V11.8164H597.137ZM597.137 85V91.4052H603.542V85H597.137ZM586.062 85H579.657V91.4052H586.062V85ZM586.062 7.14743H613.543V-5.66306H586.062V7.14743ZM607.138 0.742188C607.138 1.34324 607.227 1.85121 607.237 1.91325C607.268 2.10301 607.304 2.28574 607.334 2.43486C607.397 2.73985 607.479 3.10355 607.573 3.4992C607.762 4.3008 608.037 5.40592 608.391 6.79451C609.103 9.58063 610.164 13.6243 611.572 18.9132C614.389 29.4967 618.611 45.1352 624.237 65.8215L636.599 62.4597C630.974 41.7789 626.759 26.1673 623.951 15.6181C622.547 10.3405 621.499 6.34711 620.804 3.62541C620.455 2.26009 620.203 1.24363 620.041 0.555979C619.958 0.206995 619.909 -0.0158501 619.883 -0.13933C619.792 -0.582803 619.948 0.00357437 619.948 0.742188H607.138ZM630.418 70.5459H648.582V57.7354H630.418V70.5459ZM654.987 64.1406C654.987 64.5744 654.94 64.9052 654.934 64.9504C654.919 65.0594 654.906 65.1362 654.901 65.1586C654.893 65.2063 654.891 65.2098 654.906 65.1416C654.934 65.0142 654.986 64.7903 655.069 64.446C655.235 63.7674 655.489 62.7592 655.839 61.4052C656.536 58.7047 657.585 54.7197 658.991 49.4405C661.8 38.8868 666.016 23.2131 671.64 2.41425L659.274 -0.929875C653.648 19.8729 649.427 35.5664 646.611 46.1454C645.204 51.4326 644.144 55.4554 643.435 58.2042C643.081 59.5748 642.808 60.6516 642.622 61.4182C642.53 61.7966 642.45 62.1354 642.39 62.4109C642.361 62.5441 642.326 62.7091 642.296 62.8782C642.281 62.9613 642.259 63.0888 642.238 63.2386C642.227 63.3246 642.177 63.6861 642.177 64.1406H654.987ZM665.457 7.14743H692.938V-5.66306H665.457V7.14743ZM686.532 0.742188V85H699.343V0.742188H686.532ZM692.938 78.5948H682.273V91.4052H692.938V78.5948ZM688.679 85V11.8164H675.868V85H688.679ZM682.273 5.41116H674.305V18.2216H682.273V5.41116ZM674.305 5.41116C672.258 5.41116 670.856 6.35292 670.266 6.81837C669.62 7.32752 669.204 7.85178 668.996 8.13287C668.57 8.7089 668.293 9.26726 668.151 9.56607C667.834 10.2322 667.548 11.0053 667.298 11.7335C666.777 13.252 666.138 15.3982 665.393 18.0896C663.891 23.5105 661.836 31.5721 659.234 42.2314L671.68 45.2686C674.274 34.6389 676.291 26.7336 677.738 21.51C678.467 18.8791 679.023 17.0337 679.415 15.8911C679.621 15.2887 679.721 15.0638 679.721 15.0647C679.714 15.0797 679.683 15.1437 679.628 15.2407C679.579 15.3281 679.47 15.5154 679.297 15.7494C679.15 15.9474 678.792 16.4092 678.199 16.8768C677.661 17.3007 676.307 18.2216 674.305 18.2216V5.41116ZM659.479 41.4507C659.05 42.5662 658.057 45.9722 656.627 51.032C655.136 56.3088 653.051 63.8268 650.374 73.5776L662.727 76.9692C665.402 67.2279 667.477 59.7459 668.955 54.5149C669.694 51.8974 670.28 49.8601 670.714 48.3921C670.931 47.6568 671.105 47.0824 671.238 46.6584C671.385 46.1867 671.443 46.0302 671.435 46.0493L659.479 41.4507ZM656.551 68.8682H621.98V81.6787H656.551V68.8682ZM628.171 73.6273L611.296 10.1703L598.915 13.4625L615.79 76.9196L628.171 73.6273ZM605.105 5.41116H597.137V18.2216H605.105V5.41116ZM590.732 11.8164V85H603.542V11.8164H590.732ZM597.137 78.5948H586.062V91.4052H597.137V78.5948ZM592.468 85V0.742188H579.657V85H592.468ZM703.25 0.917969V-5.48727H696.845V0.917969H703.25ZM809.773 0.917969H816.179V-5.48727H809.773V0.917969ZM809.773 11.6992V18.1045H816.179V11.6992H809.773ZM703.25 11.6992H696.845V18.1045H703.25V11.6992ZM703.25 31.9727V25.5674H696.845V31.9727H703.25ZM809.773 31.9727H816.179V25.5674H809.773V31.9727ZM809.773 42.7539V49.1591H816.179V42.7539H809.773ZM714.031 42.7539V36.3487H707.626V42.7539H714.031ZM730.848 72.9297L727.991 78.6627L728.576 78.9539L729.207 79.1211L730.848 72.9297ZM809.305 74.2188H815.71V67.8135H809.305V74.2188ZM809.305 85V91.4052H815.71V85H809.305ZM710.164 70.3516L704.933 74.0478L705.07 74.2416L705.221 74.4248L710.164 70.3516ZM703.25 7.32321H809.773V-5.48727H703.25V7.32321ZM803.368 0.917969V11.6992H816.179V0.917969H803.368ZM809.773 5.29398H703.25V18.1045H809.773V5.29398ZM709.655 11.6992V0.917969H696.845V11.6992H709.655ZM703.25 38.3779H809.773V25.5674H703.25V38.3779ZM803.368 31.9727V42.7539H816.179V31.9727H803.368ZM809.773 36.3487H714.031V49.1591H809.773V36.3487ZM707.626 42.7539V50.4883H720.436V42.7539H707.626ZM707.626 50.4883C707.626 63.1195 715.46 72.4192 727.991 78.6627L733.704 67.1967C723.813 62.2683 720.436 56.607 720.436 50.4883H707.626ZM729.207 79.1211C732.647 80.0332 735.849 80.624 738.582 80.624V67.8135C737.487 67.8135 735.532 67.545 732.489 66.7383L729.207 79.1211ZM738.582 80.624H809.305V67.8135H738.582V80.624ZM802.899 74.2188V85H815.71V74.2188H802.899ZM809.305 78.5948H737.293V91.4052H809.305V78.5948ZM737.293 78.5948C729.65 78.5948 722.282 74.9856 715.107 66.2783L705.221 74.4248C714.14 85.2487 724.858 91.4052 737.293 91.4052V78.5948ZM715.395 66.6553C711.32 60.8879 709.655 55.8272 709.655 51.3672H696.845C696.845 59.1728 699.789 66.7683 704.933 74.0478L715.395 66.6553ZM709.655 51.3672V31.9727H696.845V51.3672H709.655ZM927.254 0.917969H933.659V-5.48727H927.254V0.917969ZM927.254 11.6406V18.0459H933.659V11.6406H927.254ZM832.449 30.5078L838.396 32.8867L838.467 32.7091L838.528 32.5277L832.449 30.5078ZM847.918 72.5781L845.422 78.4771L845.473 78.4988L845.525 78.5195L847.918 72.5781ZM927.254 74.2773H933.659V67.8721H927.254V74.2773ZM927.254 85V91.4052H933.659V85H927.254ZM823.016 62.2656L817.02 64.5203L817.138 64.8321L817.287 65.1301L823.016 62.2656ZM845.75 2.61719L844.045 -3.5569L843.676 -3.45499L843.322 -3.30985L845.75 2.61719ZM857.762 7.32321H927.254V-5.48727H857.762V7.32321ZM920.849 0.917969V11.6406H933.659V0.917969H920.849ZM927.254 5.23538H859.461V18.0459H927.254V5.23538ZM859.461 5.23538C851.576 5.23538 844.496 7.03623 838.669 11.1063C832.818 15.1929 828.803 21.168 826.371 28.488L838.528 32.5277C840.275 27.2695 842.852 23.811 846.005 21.6085C849.182 19.3896 853.517 18.0459 859.461 18.0459V5.23538ZM826.502 28.129C825.189 31.4113 824.755 35.5262 824.755 39.9414H837.565C837.565 36.0754 837.991 33.9012 838.396 32.8867L826.502 28.129ZM824.755 39.9414V46.3867H837.565V39.9414H824.755ZM824.755 46.3867C824.755 53.6968 826.365 60.3283 829.954 65.9374C833.557 71.5685 838.853 75.6979 845.422 78.4771L850.414 66.6791C845.811 64.7318 842.728 62.1326 840.745 59.0333C838.748 55.912 837.565 51.811 837.565 46.3867H824.755ZM845.525 78.5195C849.06 79.9435 852.722 80.6826 856.473 80.6826V67.8721C854.442 67.8721 852.401 67.4784 850.311 66.6367L845.525 78.5195ZM856.473 80.6826H927.254V67.8721H856.473V80.6826ZM920.849 74.2773V85H933.659V74.2773H920.849ZM927.254 78.5948H855.594V91.4052H927.254V78.5948ZM855.594 78.5948C849.741 78.5948 844.789 77.0505 840.509 74.0637C836.167 71.0337 832.186 66.2842 828.745 59.4011L817.287 65.1301C821.423 73.4033 826.661 80.021 833.178 84.5691C839.758 89.1604 847.306 91.4052 855.594 91.4052V78.5948ZM829.011 60.011C827.606 56.2761 826.843 51.9018 826.843 46.7969H814.032C814.032 53.1763 814.987 59.1145 817.02 64.5203L829.011 60.011ZM826.843 46.7969V38.2422H814.032V46.7969H826.843ZM826.843 38.2422C826.843 30.9397 828.654 25.1103 831.987 20.4189C835.346 15.6917 840.582 11.6568 848.178 8.54423L843.322 -3.30985C834.043 0.491592 826.623 5.8513 821.544 12.999C816.44 20.1827 814.032 28.7087 814.032 38.2422H826.843ZM847.455 8.79127C851.051 7.79828 854.481 7.32321 857.762 7.32321V-5.48727C853.23 -5.48727 848.653 -4.82953 844.045 -3.5569L847.455 8.79127ZM937.625 0.917969V-5.48727H931.22V0.917969H937.625ZM1044.03 0.917969H1050.44V-5.48727H1044.03V0.917969ZM1044.03 11.6406V18.0459H1050.44V11.6406H1044.03ZM996.395 11.6406V5.23538H989.989V11.6406H996.395ZM985.672 85H979.267V91.4052H985.672V85ZM985.672 11.6406H992.077V5.23538H985.672V11.6406ZM937.625 11.6406H931.22V18.0459H937.625V11.6406ZM937.625 7.32321H1044.03V-5.48727H937.625V7.32321ZM1037.63 0.917969V11.6406H1050.44V0.917969H1037.63ZM1044.03 5.23538H996.395V18.0459H1044.03V5.23538ZM989.989 11.6406V84.1211H1002.8V11.6406H989.989ZM989.989 84.1211C989.989 83.4267 990.167 81.7295 991.646 80.2511C993.124 78.7727 994.821 78.5948 995.516 78.5948V91.4052C996.796 91.4052 998.933 91.0808 1000.7 89.3095C1002.48 87.5381 1002.8 85.4014 1002.8 84.1211H989.989ZM995.516 78.5948H985.672V91.4052H995.516V78.5948ZM992.077 85V11.6406H979.267V85H992.077ZM985.672 5.23538H937.625V18.0459H985.672V5.23538ZM944.03 11.6406V0.917969H931.22V11.6406H944.03ZM1054.81 0.917969V-5.48727H1048.41V0.917969H1054.81ZM1159.05 24.0625L1165.17 22.1608L1165.01 21.6667L1164.78 21.2038L1159.05 24.0625ZM1161.22 85V91.4052H1167.62V85H1161.22ZM1056.98 60.5664L1050.94 62.6952L1051.01 62.8967L1051.09 63.093L1056.98 60.5664ZM1065.54 11.6406V5.23538H1059.13V11.6406H1065.54ZM1086.57 73.8672L1084.73 80.0009L1085.34 80.1852L1085.98 80.2447L1086.57 73.8672ZM1150.5 74.2773V80.6826H1156.9V74.2773H1150.5ZM1132.04 12.5195L1134.4 6.56592L1134.07 6.43405L1133.72 6.33998L1132.04 12.5195ZM1054.81 7.32321H1126V-5.48727H1054.81V7.32321ZM1126 7.32321C1131.95 7.32321 1136.98 8.89828 1141.34 11.9506C1145.76 15.0472 1149.82 19.8987 1153.32 26.9212L1164.78 21.2038C1160.59 12.7966 1155.29 6.07588 1148.69 1.4576C1142.03 -3.20492 1134.39 -5.48727 1126 -5.48727V7.32321ZM1152.93 25.9642C1154.33 30.4636 1154.81 33.2835 1154.81 34.7852H1167.62C1167.62 31.2868 1166.66 26.9582 1165.17 22.1608L1152.93 25.9642ZM1154.81 34.7852V85H1167.62V34.7852H1154.81ZM1161.22 78.5948H1092.55V91.4052H1161.22V78.5948ZM1092.55 78.5948C1085.27 78.5948 1079.44 76.8376 1074.74 73.6121C1070.02 70.3692 1066 65.3305 1062.87 58.0398L1051.09 63.093C1054.96 72.0914 1060.35 79.2694 1067.49 84.1711C1074.65 89.0901 1083.11 91.4052 1092.55 91.4052V78.5948ZM1063.02 58.4376C1061.79 54.943 1061.22 51.6585 1061.22 48.5547H1048.41C1048.41 53.2633 1049.28 57.9867 1050.94 62.6952L1063.02 58.4376ZM1061.22 48.5547V0.917969H1048.41V48.5547H1061.22ZM1059.13 11.6406V47.6758H1071.94V11.6406H1059.13ZM1059.13 47.6758C1059.13 55.478 1061.22 62.4646 1065.8 68.1661C1070.33 73.8102 1076.85 77.6321 1084.73 80.0009L1088.42 67.7335C1082.27 65.8835 1078.27 63.2309 1075.79 60.1444C1073.36 57.1155 1071.94 53.1158 1071.94 47.6758H1059.13ZM1085.98 80.2447C1088.97 80.5246 1091.49 80.6826 1093.43 80.6826V67.8721C1092.08 67.8721 1090.03 67.7566 1087.17 67.4897L1085.98 80.2447ZM1093.43 80.6826H1150.5V67.8721H1093.43V80.6826ZM1156.9 74.2773V36.0742H1144.09V74.2773H1156.9ZM1156.9 36.0742C1156.9 29.3611 1154.96 23.2706 1150.92 18.1197C1146.95 13.0547 1141.27 9.29315 1134.4 6.56592L1129.68 18.4731C1135.11 20.6287 1138.66 23.2344 1140.84 26.021C1142.96 28.7216 1144.09 31.967 1144.09 36.0742H1156.9ZM1133.72 6.33998C1131.13 5.63141 1128.54 5.23538 1126 5.23538V18.0459C1127.21 18.0459 1128.65 18.2358 1130.35 18.6991L1133.72 6.33998ZM1126 5.23538H1065.54V18.0459H1126V5.23538ZM0.125 126.918V120.513H-6.28024V126.918H0.125ZM106.766 126.918H113.171V120.513H106.766V126.918ZM106.766 211V217.405H113.171V211H106.766ZM96.1602 211H89.7549V217.405H96.1602V211ZM96.1602 137.992H102.565V131.587H96.1602V137.992ZM11.1992 137.992V131.587H4.79398V137.992H11.1992ZM11.1992 211V217.405H17.6045V211H11.1992ZM0.125 211H-6.28024V217.405H0.125V211ZM0.125 133.323H106.766V120.513H0.125V133.323ZM100.36 126.918V211H113.171V126.918H100.36ZM106.766 204.595H96.1602V217.405H106.766V204.595ZM102.565 211V137.992H89.7549V211H102.565ZM96.1602 131.587H11.1992V144.397H96.1602V131.587ZM4.79398 137.992V211H17.6045V137.992H4.79398ZM11.1992 204.595H0.125V217.405H11.1992V204.595ZM6.53024 211V126.918H-6.28024V211H6.53024ZM117.312 126.449V120.044H110.907V126.449H117.312ZM222.312 150.473L216.427 152.999L216.44 153.03L216.454 153.061L222.312 150.473ZM224.539 168.754V175.159H230.944V168.754H224.539ZM128.445 168.754V162.349H122.04V168.754H128.445ZM128.445 211V217.405H134.851V211H128.445ZM117.312 211H110.907V217.405H117.312V211ZM117.312 158.031V151.626H110.907V158.031H117.312ZM212.996 158.031V164.436H219.401V158.031H212.996ZM201.863 141.566L205.832 136.539L205.565 136.328L205.276 136.146L201.863 141.566ZM117.312 137.582H110.907V143.987H117.312V137.582ZM117.312 132.854H187.156V120.044H117.312V132.854ZM187.156 132.854C194.369 132.854 200.128 134.583 204.753 137.744C209.401 140.92 213.359 145.854 216.427 152.999L228.198 147.946C224.391 139.076 219.052 131.998 211.981 127.167C204.888 122.32 196.506 120.044 187.156 120.044V132.854ZM216.454 153.061C217.516 155.465 218.134 158.423 218.134 162.074H230.944C230.944 156.975 230.078 152.199 228.171 147.884L216.454 153.061ZM218.134 162.074V168.754H230.944V162.074H218.134ZM224.539 162.349H128.445V175.159H224.539V162.349ZM122.04 168.754V211H134.851V168.754H122.04ZM128.445 204.595H117.312V217.405H128.445V204.595ZM123.718 211V158.031H110.907V211H123.718ZM117.312 164.436H212.996V151.626H117.312V164.436ZM219.401 158.031C219.401 149.799 213.572 142.649 205.832 136.539L197.894 146.594C204.999 152.203 206.591 156.029 206.591 158.031H219.401ZM205.276 136.146C200.351 133.045 195.174 131.177 189.852 131.177V143.987C192.107 143.987 194.938 144.775 198.45 146.987L205.276 136.146ZM189.852 131.177H117.312V143.987H189.852V131.177ZM123.718 137.582V126.449H110.907V137.582H123.718ZM234.5 126.918V120.513H228.095V126.918H234.5ZM338.738 150.062L344.855 148.161L344.701 147.667L344.47 147.204L338.738 150.062ZM340.906 211V217.405H347.311V211H340.906ZM236.668 186.566L230.627 188.695L230.698 188.897L230.782 189.093L236.668 186.566ZM245.223 137.641V131.235H238.817V137.641H245.223ZM266.258 199.867L264.413 206.001L265.025 206.185L265.663 206.245L266.258 199.867ZM330.184 200.277V206.683H336.589V200.277H330.184ZM311.727 138.52L314.089 132.566L313.757 132.434L313.412 132.34L311.727 138.52ZM234.5 133.323H305.691V120.513H234.5V133.323ZM305.691 133.323C311.636 133.323 316.672 134.898 321.031 137.951C325.452 141.047 329.504 145.899 333.006 152.921L344.47 147.204C340.277 138.797 334.974 132.076 328.379 127.458C321.722 122.795 314.082 120.513 305.691 120.513V133.323ZM332.622 151.964C334.021 156.464 334.501 159.283 334.501 160.785H347.311C347.311 157.287 346.346 152.958 344.855 148.161L332.622 151.964ZM334.501 160.785V211H347.311V160.785H334.501ZM340.906 204.595H272.234V217.405H340.906V204.595ZM272.234 204.595C264.954 204.595 259.126 202.838 254.431 199.612C249.71 196.369 245.683 191.33 242.554 184.04L230.782 189.093C234.645 198.091 240.042 205.269 247.177 210.171C254.337 215.09 262.796 217.405 272.234 217.405V204.595ZM242.709 184.438C241.478 180.943 240.905 177.659 240.905 174.555H228.095C228.095 179.263 228.968 183.987 230.627 188.695L242.709 184.438ZM240.905 174.555V126.918H228.095V174.555H240.905ZM238.817 137.641V173.676H251.628V137.641H238.817ZM238.817 173.676C238.817 181.478 240.908 188.465 245.487 194.166C250.02 199.81 256.539 203.632 264.413 206.001L268.103 193.733C261.954 191.883 257.954 189.231 255.475 186.144C253.043 183.115 251.628 179.116 251.628 173.676H238.817ZM265.663 206.245C268.662 206.525 271.177 206.683 273.113 206.683V193.872C271.768 193.872 269.713 193.757 266.853 193.49L265.663 206.245ZM273.113 206.683H330.184V193.872H273.113V206.683ZM336.589 200.277V162.074H323.778V200.277H336.589ZM336.589 162.074C336.589 155.361 334.647 149.271 330.611 144.12C326.642 139.055 320.962 135.293 314.089 132.566L309.364 144.473C314.796 146.629 318.344 149.234 320.528 152.021C322.644 154.722 323.778 157.967 323.778 162.074H336.589ZM313.412 132.34C310.814 131.631 308.23 131.235 305.691 131.235V144.046C306.902 144.046 308.342 144.236 310.041 144.699L313.412 132.34ZM305.691 131.235H245.223V144.046H305.691V131.235ZM369.383 126.918V120.513H362.978V126.918H369.383ZM423.699 126.918H430.104V120.513H423.699V126.918ZM423.699 157.973H417.294V164.378H423.699V157.973ZM443.973 165.297L447.783 160.148L447.604 160.016L447.417 159.896L443.973 165.297ZM458.621 211V217.405H465.026V211H458.621ZM369.383 211H362.978V217.405H369.383V211ZM369.383 168.754H375.788V162.349H369.383V168.754ZM351.688 168.754H345.282V175.159H351.688V168.754ZM351.688 157.973V151.567H345.282V157.973H351.688ZM369.383 157.973V164.378H375.788V157.973H369.383ZM380.164 137.699V131.294H373.759V137.699H380.164ZM380.164 157.973H373.759V164.378H380.164V157.973ZM412.918 157.973V164.378H419.323V157.973H412.918ZM412.918 137.699H419.323V131.294H412.918V137.699ZM380.164 168.754V162.349H373.759V168.754H380.164ZM380.164 200.219H373.759V206.624H380.164V200.219ZM447.84 200.219V206.624H454.245V200.219H447.84ZM431.902 170.922L434.452 165.046L434.32 164.989L434.185 164.937L431.902 170.922ZM369.383 133.323H423.699V120.513H369.383V133.323ZM417.294 126.918V157.973H430.104V126.918H417.294ZM423.699 164.378C427.84 164.378 433.38 166.138 440.529 170.697L447.417 159.896C439.253 154.69 431.277 151.567 423.699 151.567V164.378ZM440.163 170.446C447.859 176.141 452.216 185.289 452.216 199.34H465.026C465.026 182.454 459.618 168.906 447.783 160.148L440.163 170.446ZM452.216 199.34V211H465.026V199.34H452.216ZM458.621 204.595H369.383V217.405H458.621V204.595ZM375.788 211V168.754H362.978V211H375.788ZM369.383 162.349H351.688V175.159H369.383V162.349ZM358.093 168.754V157.973H345.282V168.754H358.093ZM351.688 164.378H369.383V151.567H351.688V164.378ZM375.788 157.973V126.918H362.978V157.973H375.788ZM373.759 137.699V157.973H386.569V137.699H373.759ZM380.164 164.378H412.918V151.567H380.164V164.378ZM419.323 157.973V137.699H406.513V157.973H419.323ZM412.918 131.294H380.164V144.104H412.918V131.294ZM373.759 168.754V200.219H386.569V168.754H373.759ZM380.164 206.624H447.84V193.814H380.164V206.624ZM454.245 200.219V199.34H441.435V200.219H454.245ZM454.245 199.34C454.245 191.414 452.78 184.302 449.442 178.35C446.054 172.308 440.958 167.869 434.452 165.046L429.353 176.798C433.471 178.585 436.345 181.186 438.269 184.617C440.244 188.138 441.435 192.929 441.435 199.34H454.245ZM434.185 164.937C429.581 163.181 424.615 162.349 419.363 162.349V175.159C423.252 175.159 426.646 175.772 429.62 176.907L434.185 164.937ZM419.363 162.349H380.164V175.159H419.363V162.349ZM468.875 126.918V120.513H462.47V126.918H468.875ZM575.398 126.918H581.804V120.513H575.398V126.918ZM575.398 137.699V144.104H581.804V137.699H575.398ZM468.875 137.699H462.47V144.104H468.875V137.699ZM468.875 157.973V151.567H462.47V157.973H468.875ZM575.398 157.973H581.804V151.567H575.398V157.973ZM575.398 168.754V175.159H581.804V168.754H575.398ZM479.656 168.754V162.349H473.251V168.754H479.656ZM496.473 198.93L493.616 204.663L494.2 204.954L494.832 205.121L496.473 198.93ZM574.93 200.219H581.335V193.814H574.93V200.219ZM574.93 211V217.405H581.335V211H574.93ZM475.789 196.352L470.558 200.048L470.695 200.242L470.846 200.425L475.789 196.352ZM468.875 133.323H575.398V120.513H468.875V133.323ZM568.993 126.918V137.699H581.804V126.918H568.993ZM575.398 131.294H468.875V144.104H575.398V131.294ZM475.28 137.699V126.918H462.47V137.699H475.28ZM468.875 164.378H575.398V151.567H468.875V164.378ZM568.993 157.973V168.754H581.804V157.973H568.993ZM575.398 162.349H479.656V175.159H575.398V162.349ZM473.251 168.754V176.488H486.061V168.754H473.251ZM473.251 176.488C473.251 189.12 481.085 198.419 493.616 204.663L499.329 193.197C489.438 188.268 486.061 182.607 486.061 176.488H473.251ZM494.832 205.121C498.272 206.033 501.474 206.624 504.207 206.624V193.814C503.112 193.814 501.157 193.545 498.114 192.738L494.832 205.121ZM504.207 206.624H574.93V193.814H504.207V206.624ZM568.524 200.219V211H581.335V200.219H568.524ZM574.93 204.595H502.918V217.405H574.93V204.595ZM502.918 204.595C495.275 204.595 487.907 200.986 480.732 192.278L470.846 200.425C479.765 211.249 490.483 217.405 502.918 217.405V204.595ZM481.02 192.655C476.945 186.888 475.28 181.827 475.28 177.367H462.47C462.47 185.173 465.414 192.768 470.558 200.048L481.02 192.655ZM475.28 177.367V157.973H462.47V177.367H475.28ZM603.348 126.801V120.396H596.942V126.801H603.348ZM689.246 147.953L683.552 150.887L683.558 150.897L689.246 147.953ZM692.703 211V217.405H699.108V211H692.703ZM586.062 211H579.657V217.405H586.062V211ZM586.062 200.219V193.814H579.657V200.219H586.062ZM603.348 200.219V206.624H609.753V200.219H603.348ZM614.129 137.582V131.177H607.724V137.582H614.129ZM614.129 200.219H607.724V206.624H614.129V200.219ZM681.922 200.219V206.624H688.327V200.219H681.922ZM661.18 138.051L663.08 131.934L662.544 131.767L661.987 131.697L661.18 138.051ZM603.348 133.206H655.555V120.396H603.348V133.206ZM655.555 133.206C662.127 133.206 667.516 134.718 671.968 137.514C676.436 140.319 680.341 144.655 683.552 150.887L694.94 145.019C690.885 137.149 685.542 130.91 678.78 126.664C672.002 122.409 664.177 120.396 655.555 120.396V133.206ZM683.558 150.897C685.315 154.293 686.298 158.426 686.298 163.48H699.108C699.108 156.738 697.787 150.52 694.935 145.009L683.558 150.897ZM686.298 163.48V211H699.108V163.48H686.298ZM692.703 204.595H586.062V217.405H692.703V204.595ZM592.468 211V200.219H579.657V211H592.468ZM586.062 206.624H603.348V193.814H586.062V206.624ZM609.753 200.219V126.801H596.942V200.219H609.753ZM607.724 137.582V200.219H620.534V137.582H607.724ZM614.129 206.624H681.922V193.814H614.129V206.624ZM688.327 200.219V164.359H675.517V200.219H688.327ZM688.327 164.359C688.327 156.577 686.272 149.6 681.766 143.885C677.3 138.22 670.867 134.354 663.08 131.934L659.279 144.168C665.321 146.045 669.258 148.711 671.706 151.816C674.115 154.871 675.517 158.899 675.517 164.359H688.327ZM661.987 131.697C659.394 131.367 657.086 131.177 655.145 131.177V143.987C656.328 143.987 658.044 144.109 660.373 144.405L661.987 131.697ZM655.145 131.177H614.129V143.987H655.145V131.177ZM703.25 126.918V120.513H696.845V126.918H703.25ZM809.773 126.918H816.179V120.513H809.773V126.918ZM809.773 137.699V144.104H816.179V137.699H809.773ZM703.25 137.699H696.845V144.104H703.25V137.699ZM703.25 157.973V151.567H696.845V157.973H703.25ZM809.773 157.973H816.179V151.567H809.773V157.973ZM809.773 168.754V175.159H816.179V168.754H809.773ZM714.031 168.754V162.349H707.626V168.754H714.031ZM730.848 198.93L727.991 204.663L728.576 204.954L729.207 205.121L730.848 198.93ZM809.305 200.219H815.71V193.814H809.305V200.219ZM809.305 211V217.405H815.71V211H809.305ZM710.164 196.352L704.933 200.048L705.07 200.242L705.221 200.425L710.164 196.352ZM703.25 133.323H809.773V120.513H703.25V133.323ZM803.368 126.918V137.699H816.179V126.918H803.368ZM809.773 131.294H703.25V144.104H809.773V131.294ZM709.655 137.699V126.918H696.845V137.699H709.655ZM703.25 164.378H809.773V151.567H703.25V164.378ZM803.368 157.973V168.754H816.179V157.973H803.368ZM809.773 162.349H714.031V175.159H809.773V162.349ZM707.626 168.754V176.488H720.436V168.754H707.626ZM707.626 176.488C707.626 189.12 715.46 198.419 727.991 204.663L733.704 193.197C723.813 188.268 720.436 182.607 720.436 176.488H707.626ZM729.207 205.121C732.647 206.033 735.849 206.624 738.582 206.624V193.814C737.487 193.814 735.532 193.545 732.489 192.738L729.207 205.121ZM738.582 206.624H809.305V193.814H738.582V206.624ZM802.899 200.219V211H815.71V200.219H802.899ZM809.305 204.595H737.293V217.405H809.305V204.595ZM737.293 204.595C729.65 204.595 722.282 200.986 715.107 192.278L705.221 200.425C714.14 211.249 724.858 217.405 737.293 217.405V204.595ZM715.395 192.655C711.32 186.888 709.655 181.827 709.655 177.367H696.845C696.845 185.173 699.789 192.768 704.933 200.048L715.395 192.655ZM709.655 177.367V157.973H696.845V177.367H709.655ZM820.438 126.918V120.513H814.032V126.918H820.438ZM831.043 126.918H837.448V120.513H831.043V126.918ZM831.043 157.035H824.638V163.44H831.043V157.035ZM916.473 157.035V163.44H922.878V157.035H916.473ZM916.473 126.918V120.513H910.067V126.918H916.473ZM927.078 126.918H933.483V120.513H927.078V126.918ZM927.078 211V217.405H933.483V211H927.078ZM916.473 211H910.067V217.405H916.473V211ZM916.473 167.641H922.878V161.235H916.473V167.641ZM831.043 167.641V161.235H824.638V167.641H831.043ZM831.043 211V217.405H837.448V211H831.043ZM820.438 211H814.032V217.405H820.438V211ZM820.438 133.323H831.043V120.513H820.438V133.323ZM824.638 126.918V157.035H837.448V126.918H824.638ZM831.043 163.44H916.473V150.63H831.043V163.44ZM922.878 157.035V126.918H910.067V157.035H922.878ZM916.473 133.323H927.078V120.513H916.473V133.323ZM920.673 126.918V211H933.483V126.918H920.673ZM927.078 204.595H916.473V217.405H927.078V204.595ZM922.878 211V167.641H910.067V211H922.878ZM916.473 161.235H831.043V174.046H916.473V161.235ZM824.638 167.641V211H837.448V167.641H824.638ZM831.043 204.595H820.438V217.405H831.043V204.595ZM826.843 211V126.918H814.032V211H826.843ZM937.625 126.684V120.278H931.22V126.684H937.625ZM948.406 126.684H954.811V120.278H948.406V126.684ZM948.406 200.219H942.001V206.624H948.406V200.219ZM962.586 200.219V206.624H965.526L967.442 204.395L962.586 200.219ZM1013.33 126.684V120.278H1009.95L1008.04 123.071L1013.33 126.684ZM1044.73 126.684H1051.14V120.278H1044.73V126.684ZM1044.73 211V217.405H1051.14V211H1044.73ZM1033.54 211H1027.14V217.405H1033.54V211ZM1033.54 137.465H1039.95V131.06H1033.54V137.465ZM1019.77 137.465V131.06H1017.55L1015.8 132.437L1019.77 137.465ZM969.031 211V217.405H972.433L974.338 214.587L969.031 211ZM937.625 211H931.22V217.405H937.625V211ZM937.625 133.089H948.406V120.278H937.625V133.089ZM942.001 126.684V200.219H954.811V126.684H942.001ZM948.406 206.624H962.586V193.814H948.406V206.624ZM967.442 204.395C968.125 203.602 969.736 201.347 971.943 198.206C974.283 194.876 977.571 190.141 981.803 184.008C990.269 171.739 1002.54 153.834 1018.62 130.296L1008.04 123.071C991.966 146.604 979.707 164.489 971.259 176.732C967.034 182.855 963.77 187.556 961.461 190.842C960.306 192.487 959.4 193.761 958.739 194.677C958.004 195.693 957.726 196.046 957.73 196.042L967.442 204.395ZM1013.33 133.089H1044.73V120.278H1013.33V133.089ZM1038.33 126.684V211H1051.14V126.684H1038.33ZM1044.73 204.595H1033.54V217.405H1044.73V204.595ZM1039.95 211V137.465H1027.14V211H1039.95ZM1033.54 131.06H1019.77V143.87H1033.54V131.06ZM1015.8 132.437C1015.11 132.985 1014.56 133.662 1014.4 133.854C1014.1 134.213 1013.76 134.644 1013.4 135.115C1012.67 136.066 1011.72 137.367 1010.56 138.99C1008.23 142.247 1004.94 146.953 1000.7 153.09C992.228 165.372 979.899 183.483 963.725 207.413L974.338 214.587C990.507 190.666 1002.81 172.595 1011.25 160.365C1015.47 154.246 1018.71 149.614 1020.97 146.45C1022.11 144.863 1022.98 143.682 1023.59 142.882C1023.9 142.477 1024.1 142.214 1024.23 142.062C1024.5 141.743 1024.25 142.091 1023.74 142.492L1015.8 132.437ZM969.031 204.595H937.625V217.405H969.031V204.595ZM944.03 211V126.684H931.22V211H944.03ZM1162.16 126.918H1168.56V120.513H1162.16V126.918ZM1162.16 137.699V144.104H1168.56V137.699H1162.16ZM1069.05 151.059L1063.7 147.538L1063.62 147.66L1063.55 147.785L1069.05 151.059ZM1066.47 157.973L1060.29 156.294L1058.1 164.378H1066.47V157.973ZM1162.16 157.973H1168.56V151.567H1162.16V157.973ZM1162.16 211V217.405H1168.56V211H1162.16ZM1151.38 211H1144.97V217.405H1151.38V211ZM1151.38 168.754H1157.78V162.349H1151.38V168.754ZM1101.8 168.754V162.349H1099.62L1097.89 163.682L1101.8 168.754ZM1073.33 205.844L1078.42 209.724L1078.45 209.696L1078.47 209.668L1073.33 205.844ZM1054.81 211H1048.41V217.405H1054.81V211ZM1054.81 210.59L1049.71 206.716L1048.41 208.433V210.59H1054.81ZM1086.28 169.164L1091.38 173.038L1092.68 171.321V169.164H1086.28ZM1086.28 168.754H1092.68V162.349H1086.28V168.754ZM1055.22 168.754H1048.82V175.159H1055.22V168.754ZM1076.38 129.965L1073.91 124.051L1073.59 124.186L1073.28 124.355L1076.38 129.965ZM1090.14 133.323H1162.16V120.513H1090.14V133.323ZM1155.75 126.918V137.699H1168.56V126.918H1155.75ZM1162.16 131.294H1090.14V144.104H1162.16V131.294ZM1090.14 131.294C1079.15 131.294 1070.35 137.436 1063.7 147.538L1074.4 154.579C1079.47 146.869 1084.73 144.104 1090.14 144.104V131.294ZM1063.55 147.785C1062.23 150.002 1061.19 152.994 1060.29 156.294L1072.65 159.652C1073.48 156.623 1074.16 155.006 1074.56 154.332L1063.55 147.785ZM1066.47 164.378H1162.16V151.567H1066.47V164.378ZM1155.75 157.973V211H1168.56V157.973H1155.75ZM1162.16 204.595H1151.38V217.405H1162.16V204.595ZM1157.78 211V168.754H1144.97V211H1157.78ZM1151.38 162.349H1101.8V175.159H1151.38V162.349ZM1097.89 163.682C1097.14 164.259 1096.45 165.054 1096.09 165.46C1095.59 166.035 1094.98 166.769 1094.28 167.636C1092.87 169.376 1090.96 171.811 1088.58 174.917C1083.8 181.137 1077 190.176 1068.19 202.02L1078.47 209.668C1087.27 197.839 1094.02 188.861 1098.74 182.718C1101.1 179.642 1102.93 177.309 1104.23 175.695C1104.89 174.884 1105.38 174.294 1105.73 173.899C1106.22 173.334 1106.12 173.512 1105.72 173.825L1097.89 163.682ZM1068.23 201.964C1066.94 203.664 1065.99 204.867 1065.37 205.621C1065.21 205.805 1065.09 205.949 1065 206.057C1064.95 206.111 1064.91 206.152 1064.89 206.182C1064.87 206.197 1064.86 206.208 1064.85 206.216C1064.85 206.224 1064.84 206.228 1064.84 206.228C1064.84 206.228 1064.84 206.226 1064.85 206.224C1064.85 206.222 1064.85 206.218 1064.86 206.213C1064.87 206.204 1064.88 206.188 1064.91 206.166C1064.94 206.13 1065.04 206.045 1065.17 205.936C1065.28 205.846 1065.56 205.623 1065.98 205.392C1066.19 205.273 1066.53 205.099 1066.97 204.945C1067.39 204.799 1068.12 204.595 1069.05 204.595V217.405C1070.76 217.405 1071.96 216.723 1072.24 216.567C1072.7 216.309 1073.04 216.046 1073.22 215.903C1073.59 215.606 1073.88 215.307 1074.06 215.128C1074.43 214.737 1074.84 214.268 1075.23 213.8C1076.03 212.836 1077.1 211.461 1078.42 209.724L1068.23 201.964ZM1069.05 204.595H1054.81V217.405H1069.05V204.595ZM1061.22 211V210.59H1048.41V211H1061.22ZM1059.91 214.464L1091.38 173.038L1081.18 165.29L1049.71 206.716L1059.91 214.464ZM1092.68 169.164V168.754H1079.87V169.164H1092.68ZM1086.28 162.349H1055.22V175.159H1086.28V162.349ZM1061.63 168.754V161.84H1048.82V168.754H1061.63ZM1061.63 161.84C1061.63 151.193 1066.93 142.483 1079.47 135.574L1073.28 124.355C1057.61 132.994 1048.82 145.533 1048.82 161.84H1061.63ZM1078.84 135.879C1083.11 134.099 1086.86 133.323 1090.14 133.323V120.513C1084.83 120.513 1079.4 121.768 1073.91 124.051L1078.84 135.879Z" fill="white" fill-opacity="0.05"/>
</svg>
