<svg width="1212" height="229" viewBox="0 0 1212 229" fill="none" xmlns="http://www.w3.org/2000/svg">
<mask id="path-1-outside-1_504_193" maskUnits="userSpaceOnUse" x="-31.2578" y="4.68359" width="1243" height="224" fill="black">
<rect fill="white" x="-31.2578" y="4.68359" width="1243" height="224"/>
<path d="M-24.2578 11.918H46.9336C61.2695 11.918 72.2852 19.6328 79.9805 35.0625C81.4258 39.7109 82.1484 43.2852 82.1484 45.7852V96H13.4766C-3.24219 96 -15.0977 87.8555 -22.0898 71.5664C-23.5352 67.4648 -24.2578 63.4609 -24.2578 59.5547V11.918ZM-13.5352 22.6406V58.6758C-13.5352 71.918 -6.52344 80.6484 7.5 84.8672C10.4297 85.1406 12.7148 85.2773 14.3555 85.2773H71.4258V47.0742C71.4258 36.2539 65.2734 28.4023 52.9688 23.5195C50.8203 22.9336 48.8086 22.6406 46.9336 22.6406H-13.5352Z"/>
<path d="M92.9297 11.918H161.133C178.984 11.918 191.133 20.3555 197.578 37.2305C198.75 40.9414 199.336 44.5156 199.336 47.9531V65.1211H151.289V96H140.566V65.1211H131.543C113.535 65.1211 101.23 56.8203 94.6289 40.2188C93.4961 36.5078 92.9297 32.9336 92.9297 29.4961V11.918ZM103.652 22.6406V29.0859C103.652 40.4141 110.078 48.5586 122.93 53.5195C126.523 54.1055 129.531 54.3984 131.953 54.3984H140.566V22.6406H103.652ZM151.289 22.6406V54.3984H188.613V49.6523C188.613 35.668 181.309 26.8008 166.699 23.0508C164.902 22.7773 162.91 22.6406 160.723 22.6406H151.289Z"/>
<path d="M210.117 11.6836H220.898V85.2188H235.078C236.758 83.2656 253.672 58.7539 285.82 11.6836H317.227V96H306.035V22.4648H292.266C290.781 23.6367 273.867 48.1484 241.523 96H210.117V11.6836Z"/>
<path d="M327.305 11.918H337.676V85.6289H405.762V11.918H416.133V85.6289H434.238V96H327.305V11.918Z"/>
<path d="M444.492 11.6836H455.273V85.2188H469.453C471.133 83.2656 488.047 58.7539 520.195 11.6836H551.602V96H540.41V22.4648H526.641C525.156 23.6367 508.242 48.1484 475.898 96H444.492V11.6836Z"/>
<path d="M595.898 12.0938H668.262V22.8164H596.777C586.504 22.8164 578.652 28.8125 573.223 40.8047C573.223 41.7422 573.086 42.4453 572.812 42.9141H667.441C667.988 42.9922 668.262 43.2852 668.262 43.793V96H657.598V53.6367H572.402V96H561.68V48.0703C561.68 32.9922 569.531 21.7227 585.234 14.2617C589.57 12.8164 593.125 12.0938 595.898 12.0938Z"/>
<path d="M734.766 11.6836L755.156 96H744.551C743.77 96 741.25 86.0977 736.992 66.293C735.234 60.2773 731.68 45.7852 726.328 22.8164H707.695C697.07 67.3477 691.152 91.7422 689.941 96H678.867L699.258 11.6836H734.766Z"/>
<path d="M763.828 11.6836H774.609V43.0898H817.148C830.195 43.0898 840.664 49.3984 848.555 62.0156C851.445 67.2891 852.891 72.7383 852.891 78.3633V96H763.828V11.6836ZM774.609 53.8711V85.2188H842.109V78.7734C842.109 67.5625 835.664 59.5352 822.773 54.6914C820.469 54.1445 818.027 53.8711 815.449 53.8711H774.609Z"/>
<path d="M863.438 11.918H874.043V42.0352H959.473V11.918H970.078V96H959.473V52.6406H874.043V96H863.438V11.918Z"/>
<path d="M980.625 11.918H991.348V43.2656H1025.68C1038.69 43.2656 1049.12 49.5547 1056.97 62.1328C1059.82 67.4062 1061.25 72.8359 1061.25 78.4219V96H980.625V11.918ZM1076.31 11.918H1087.44V96H1076.31V11.918ZM991.348 53.9883V85.2773H1050.53V78.832C1050.53 67.6211 1044.1 59.6133 1031.25 54.8086C1028.95 54.2617 1026.5 53.9883 1023.93 53.9883H991.348Z"/>
<path d="M1097.81 11.918H1204.34V22.6992H1097.81V11.918ZM1097.81 42.9727H1204.34V53.7539H1108.59V61.4883C1108.59 70.8633 1114.2 78.3438 1125.41 83.9297C1128.65 84.7891 1131.23 85.2188 1133.14 85.2188H1203.87V96H1131.86C1121.82 96 1112.77 91.1172 1104.73 81.3516C1100.12 74.8281 1097.81 68.5 1097.81 62.3672V42.9727Z"/>
<path d="M177.598 137.801H229.805C245 137.801 256.23 144.852 263.496 158.953C265.801 163.406 266.953 168.582 266.953 174.48V222H160.312V211.219H177.598V137.801ZM188.379 148.582V211.219H256.172V175.359C256.172 162.117 249.258 153.348 235.43 149.051C232.969 148.738 230.957 148.582 229.395 148.582H188.379Z"/>
<path d="M277.5 137.918H348.691C363.027 137.918 374.043 145.633 381.738 161.062C383.184 165.711 383.906 169.285 383.906 171.785V222H315.234C298.516 222 286.66 213.855 279.668 197.566C278.223 193.465 277.5 189.461 277.5 185.555V137.918ZM288.223 148.641V184.676C288.223 197.918 295.234 206.648 309.258 210.867C312.188 211.141 314.473 211.277 316.113 211.277H373.184V173.074C373.184 162.254 367.031 154.402 354.727 149.52C352.578 148.934 350.566 148.641 348.691 148.641H288.223Z"/>
<path d="M412.266 137.918H422.988V168.797H444.902C454.785 168.797 462.363 163.504 467.637 152.918C469.043 149.793 469.746 146.082 469.746 141.785V137.918H480.469V142.664C480.469 152.898 476.895 161.766 469.746 169.266C477.09 170.398 483.672 173.543 489.492 178.699C497.227 186.199 501.094 195.203 501.094 205.711V222H490.371V207.41C490.371 193.855 483.789 184.852 470.625 180.398C466.836 179.812 463.105 179.52 459.434 179.52H422.988V222H412.266V179.52H394.688V168.797H412.266V137.918Z"/>
<path d="M511.875 137.918H522.598V169.266H607.559V137.918H618.281V186.375C618.281 199.812 611.699 210.398 598.535 218.133C593.574 220.711 588.418 222 583.066 222H511.875V211.277H582.656C593.672 211.277 601.68 204.988 606.68 192.41C607.266 189.715 607.559 187.566 607.559 185.965V179.988H511.875V137.918Z"/>
<path d="M629.062 137.742H656.543C656.543 138.641 662.168 159.773 673.418 201.141H691.582C691.582 200.477 697.207 179.344 708.457 137.742H735.938V222H725.273V148.816H717.305C716.602 148.816 713.652 159.461 708.457 180.75C707.871 182.273 704.902 192.781 699.551 212.273H664.98L648.105 148.816H640.137V222H629.062V137.742Z"/>
<path d="M746.25 137.918H852.773V148.699H746.25V137.918ZM746.25 168.973H852.773V179.754H757.031V187.488C757.031 196.863 762.637 204.344 773.848 209.93C777.09 210.789 779.668 211.219 781.582 211.219H852.305V222H780.293C770.254 222 761.211 217.117 753.164 207.352C748.555 200.828 746.25 194.5 746.25 188.367V168.973Z"/>
<path d="M863.438 137.918H874.043V168.035H959.473V137.918H970.078V222H959.473V178.641H874.043V222H863.438V137.918Z"/>
<path d="M980.625 137.918H1087.03V148.641H1039.39V221.121C1039.39 221.707 1039.1 222 1038.52 222H1028.67V148.641H980.625V137.918Z"/>
<path d="M1097.81 137.918H1108.54V169.266H1142.87C1155.88 169.266 1166.31 175.555 1174.16 188.133C1177.01 193.406 1178.44 198.836 1178.44 204.422V222H1097.81V137.918ZM1193.5 137.918H1204.63V222H1193.5V137.918ZM1108.54 179.988V211.277H1167.71V204.832C1167.71 193.621 1161.29 185.613 1148.44 180.809C1146.13 180.262 1143.69 179.988 1141.11 179.988H1108.54Z"/>
</mask>
<path d="M-24.2578 11.918H46.9336C61.2695 11.918 72.2852 19.6328 79.9805 35.0625C81.4258 39.7109 82.1484 43.2852 82.1484 45.7852V96H13.4766C-3.24219 96 -15.0977 87.8555 -22.0898 71.5664C-23.5352 67.4648 -24.2578 63.4609 -24.2578 59.5547V11.918ZM-13.5352 22.6406V58.6758C-13.5352 71.918 -6.52344 80.6484 7.5 84.8672C10.4297 85.1406 12.7148 85.2773 14.3555 85.2773H71.4258V47.0742C71.4258 36.2539 65.2734 28.4023 52.9688 23.5195C50.8203 22.9336 48.8086 22.6406 46.9336 22.6406H-13.5352Z" fill="white" fill-opacity="0.05"/>
<path d="M92.9297 11.918H161.133C178.984 11.918 191.133 20.3555 197.578 37.2305C198.75 40.9414 199.336 44.5156 199.336 47.9531V65.1211H151.289V96H140.566V65.1211H131.543C113.535 65.1211 101.23 56.8203 94.6289 40.2188C93.4961 36.5078 92.9297 32.9336 92.9297 29.4961V11.918ZM103.652 22.6406V29.0859C103.652 40.4141 110.078 48.5586 122.93 53.5195C126.523 54.1055 129.531 54.3984 131.953 54.3984H140.566V22.6406H103.652ZM151.289 22.6406V54.3984H188.613V49.6523C188.613 35.668 181.309 26.8008 166.699 23.0508C164.902 22.7773 162.91 22.6406 160.723 22.6406H151.289Z" fill="white" fill-opacity="0.05"/>
<path d="M210.117 11.6836H220.898V85.2188H235.078C236.758 83.2656 253.672 58.7539 285.82 11.6836H317.227V96H306.035V22.4648H292.266C290.781 23.6367 273.867 48.1484 241.523 96H210.117V11.6836Z" fill="white" fill-opacity="0.05"/>
<path d="M327.305 11.918H337.676V85.6289H405.762V11.918H416.133V85.6289H434.238V96H327.305V11.918Z" fill="white" fill-opacity="0.05"/>
<path d="M444.492 11.6836H455.273V85.2188H469.453C471.133 83.2656 488.047 58.7539 520.195 11.6836H551.602V96H540.41V22.4648H526.641C525.156 23.6367 508.242 48.1484 475.898 96H444.492V11.6836Z" fill="white" fill-opacity="0.05"/>
<path d="M595.898 12.0938H668.262V22.8164H596.777C586.504 22.8164 578.652 28.8125 573.223 40.8047C573.223 41.7422 573.086 42.4453 572.812 42.9141H667.441C667.988 42.9922 668.262 43.2852 668.262 43.793V96H657.598V53.6367H572.402V96H561.68V48.0703C561.68 32.9922 569.531 21.7227 585.234 14.2617C589.57 12.8164 593.125 12.0938 595.898 12.0938Z" fill="white" fill-opacity="0.05"/>
<path d="M734.766 11.6836L755.156 96H744.551C743.77 96 741.25 86.0977 736.992 66.293C735.234 60.2773 731.68 45.7852 726.328 22.8164H707.695C697.07 67.3477 691.152 91.7422 689.941 96H678.867L699.258 11.6836H734.766Z" fill="white" fill-opacity="0.05"/>
<path d="M763.828 11.6836H774.609V43.0898H817.148C830.195 43.0898 840.664 49.3984 848.555 62.0156C851.445 67.2891 852.891 72.7383 852.891 78.3633V96H763.828V11.6836ZM774.609 53.8711V85.2188H842.109V78.7734C842.109 67.5625 835.664 59.5352 822.773 54.6914C820.469 54.1445 818.027 53.8711 815.449 53.8711H774.609Z" fill="white" fill-opacity="0.05"/>
<path d="M863.438 11.918H874.043V42.0352H959.473V11.918H970.078V96H959.473V52.6406H874.043V96H863.438V11.918Z" fill="white" fill-opacity="0.05"/>
<path d="M980.625 11.918H991.348V43.2656H1025.68C1038.69 43.2656 1049.12 49.5547 1056.97 62.1328C1059.82 67.4062 1061.25 72.8359 1061.25 78.4219V96H980.625V11.918ZM1076.31 11.918H1087.44V96H1076.31V11.918ZM991.348 53.9883V85.2773H1050.53V78.832C1050.53 67.6211 1044.1 59.6133 1031.25 54.8086C1028.95 54.2617 1026.5 53.9883 1023.93 53.9883H991.348Z" fill="white" fill-opacity="0.05"/>
<path d="M1097.81 11.918H1204.34V22.6992H1097.81V11.918ZM1097.81 42.9727H1204.34V53.7539H1108.59V61.4883C1108.59 70.8633 1114.2 78.3438 1125.41 83.9297C1128.65 84.7891 1131.23 85.2188 1133.14 85.2188H1203.87V96H1131.86C1121.82 96 1112.77 91.1172 1104.73 81.3516C1100.12 74.8281 1097.81 68.5 1097.81 62.3672V42.9727Z" fill="white" fill-opacity="0.05"/>
<path d="M177.598 137.801H229.805C245 137.801 256.23 144.852 263.496 158.953C265.801 163.406 266.953 168.582 266.953 174.48V222H160.312V211.219H177.598V137.801ZM188.379 148.582V211.219H256.172V175.359C256.172 162.117 249.258 153.348 235.43 149.051C232.969 148.738 230.957 148.582 229.395 148.582H188.379Z" fill="white" fill-opacity="0.05"/>
<path d="M277.5 137.918H348.691C363.027 137.918 374.043 145.633 381.738 161.062C383.184 165.711 383.906 169.285 383.906 171.785V222H315.234C298.516 222 286.66 213.855 279.668 197.566C278.223 193.465 277.5 189.461 277.5 185.555V137.918ZM288.223 148.641V184.676C288.223 197.918 295.234 206.648 309.258 210.867C312.188 211.141 314.473 211.277 316.113 211.277H373.184V173.074C373.184 162.254 367.031 154.402 354.727 149.52C352.578 148.934 350.566 148.641 348.691 148.641H288.223Z" fill="white" fill-opacity="0.05"/>
<path d="M412.266 137.918H422.988V168.797H444.902C454.785 168.797 462.363 163.504 467.637 152.918C469.043 149.793 469.746 146.082 469.746 141.785V137.918H480.469V142.664C480.469 152.898 476.895 161.766 469.746 169.266C477.09 170.398 483.672 173.543 489.492 178.699C497.227 186.199 501.094 195.203 501.094 205.711V222H490.371V207.41C490.371 193.855 483.789 184.852 470.625 180.398C466.836 179.812 463.105 179.52 459.434 179.52H422.988V222H412.266V179.52H394.688V168.797H412.266V137.918Z" fill="white" fill-opacity="0.05"/>
<path d="M511.875 137.918H522.598V169.266H607.559V137.918H618.281V186.375C618.281 199.812 611.699 210.398 598.535 218.133C593.574 220.711 588.418 222 583.066 222H511.875V211.277H582.656C593.672 211.277 601.68 204.988 606.68 192.41C607.266 189.715 607.559 187.566 607.559 185.965V179.988H511.875V137.918Z" fill="white" fill-opacity="0.05"/>
<path d="M629.062 137.742H656.543C656.543 138.641 662.168 159.773 673.418 201.141H691.582C691.582 200.477 697.207 179.344 708.457 137.742H735.938V222H725.273V148.816H717.305C716.602 148.816 713.652 159.461 708.457 180.75C707.871 182.273 704.902 192.781 699.551 212.273H664.98L648.105 148.816H640.137V222H629.062V137.742Z" fill="white" fill-opacity="0.05"/>
<path d="M746.25 137.918H852.773V148.699H746.25V137.918ZM746.25 168.973H852.773V179.754H757.031V187.488C757.031 196.863 762.637 204.344 773.848 209.93C777.09 210.789 779.668 211.219 781.582 211.219H852.305V222H780.293C770.254 222 761.211 217.117 753.164 207.352C748.555 200.828 746.25 194.5 746.25 188.367V168.973Z" fill="white" fill-opacity="0.05"/>
<path d="M863.438 137.918H874.043V168.035H959.473V137.918H970.078V222H959.473V178.641H874.043V222H863.438V137.918Z" fill="white" fill-opacity="0.05"/>
<path d="M980.625 137.918H1087.03V148.641H1039.39V221.121C1039.39 221.707 1039.1 222 1038.52 222H1028.67V148.641H980.625V137.918Z" fill="white" fill-opacity="0.05"/>
<path d="M1097.81 137.918H1108.54V169.266H1142.87C1155.88 169.266 1166.31 175.555 1174.16 188.133C1177.01 193.406 1178.44 198.836 1178.44 204.422V222H1097.81V137.918ZM1193.5 137.918H1204.63V222H1193.5V137.918ZM1108.54 179.988V211.277H1167.71V204.832C1167.71 193.621 1161.29 185.613 1148.44 180.809C1146.13 180.262 1143.69 179.988 1141.11 179.988H1108.54Z" fill="white" fill-opacity="0.05"/>
<path d="M-24.2578 11.918H46.9336C61.2695 11.918 72.2852 19.6328 79.9805 35.0625C81.4258 39.7109 82.1484 43.2852 82.1484 45.7852V96H13.4766C-3.24219 96 -15.0977 87.8555 -22.0898 71.5664C-23.5352 67.4648 -24.2578 63.4609 -24.2578 59.5547V11.918ZM-13.5352 22.6406V58.6758C-13.5352 71.918 -6.52344 80.6484 7.5 84.8672C10.4297 85.1406 12.7148 85.2773 14.3555 85.2773H71.4258V47.0742C71.4258 36.2539 65.2734 28.4023 52.9688 23.5195C50.8203 22.9336 48.8086 22.6406 46.9336 22.6406H-13.5352Z" stroke="white" stroke-opacity="0.05" stroke-width="12.82" mask="url(#path-1-outside-1_504_193)"/>
<path d="M92.9297 11.918H161.133C178.984 11.918 191.133 20.3555 197.578 37.2305C198.75 40.9414 199.336 44.5156 199.336 47.9531V65.1211H151.289V96H140.566V65.1211H131.543C113.535 65.1211 101.23 56.8203 94.6289 40.2188C93.4961 36.5078 92.9297 32.9336 92.9297 29.4961V11.918ZM103.652 22.6406V29.0859C103.652 40.4141 110.078 48.5586 122.93 53.5195C126.523 54.1055 129.531 54.3984 131.953 54.3984H140.566V22.6406H103.652ZM151.289 22.6406V54.3984H188.613V49.6523C188.613 35.668 181.309 26.8008 166.699 23.0508C164.902 22.7773 162.91 22.6406 160.723 22.6406H151.289Z" stroke="white" stroke-opacity="0.05" stroke-width="12.82" mask="url(#path-1-outside-1_504_193)"/>
<path d="M210.117 11.6836H220.898V85.2188H235.078C236.758 83.2656 253.672 58.7539 285.82 11.6836H317.227V96H306.035V22.4648H292.266C290.781 23.6367 273.867 48.1484 241.523 96H210.117V11.6836Z" stroke="white" stroke-opacity="0.05" stroke-width="12.82" mask="url(#path-1-outside-1_504_193)"/>
<path d="M327.305 11.918H337.676V85.6289H405.762V11.918H416.133V85.6289H434.238V96H327.305V11.918Z" stroke="white" stroke-opacity="0.05" stroke-width="12.82" mask="url(#path-1-outside-1_504_193)"/>
<path d="M444.492 11.6836H455.273V85.2188H469.453C471.133 83.2656 488.047 58.7539 520.195 11.6836H551.602V96H540.41V22.4648H526.641C525.156 23.6367 508.242 48.1484 475.898 96H444.492V11.6836Z" stroke="white" stroke-opacity="0.05" stroke-width="12.82" mask="url(#path-1-outside-1_504_193)"/>
<path d="M595.898 12.0938H668.262V22.8164H596.777C586.504 22.8164 578.652 28.8125 573.223 40.8047C573.223 41.7422 573.086 42.4453 572.812 42.9141H667.441C667.988 42.9922 668.262 43.2852 668.262 43.793V96H657.598V53.6367H572.402V96H561.68V48.0703C561.68 32.9922 569.531 21.7227 585.234 14.2617C589.57 12.8164 593.125 12.0938 595.898 12.0938Z" stroke="white" stroke-opacity="0.05" stroke-width="12.82" mask="url(#path-1-outside-1_504_193)"/>
<path d="M734.766 11.6836L755.156 96H744.551C743.77 96 741.25 86.0977 736.992 66.293C735.234 60.2773 731.68 45.7852 726.328 22.8164H707.695C697.07 67.3477 691.152 91.7422 689.941 96H678.867L699.258 11.6836H734.766Z" stroke="white" stroke-opacity="0.05" stroke-width="12.82" mask="url(#path-1-outside-1_504_193)"/>
<path d="M763.828 11.6836H774.609V43.0898H817.148C830.195 43.0898 840.664 49.3984 848.555 62.0156C851.445 67.2891 852.891 72.7383 852.891 78.3633V96H763.828V11.6836ZM774.609 53.8711V85.2188H842.109V78.7734C842.109 67.5625 835.664 59.5352 822.773 54.6914C820.469 54.1445 818.027 53.8711 815.449 53.8711H774.609Z" stroke="white" stroke-opacity="0.05" stroke-width="12.82" mask="url(#path-1-outside-1_504_193)"/>
<path d="M863.438 11.918H874.043V42.0352H959.473V11.918H970.078V96H959.473V52.6406H874.043V96H863.438V11.918Z" stroke="white" stroke-opacity="0.05" stroke-width="12.82" mask="url(#path-1-outside-1_504_193)"/>
<path d="M980.625 11.918H991.348V43.2656H1025.68C1038.69 43.2656 1049.12 49.5547 1056.97 62.1328C1059.82 67.4062 1061.25 72.8359 1061.25 78.4219V96H980.625V11.918ZM1076.31 11.918H1087.44V96H1076.31V11.918ZM991.348 53.9883V85.2773H1050.53V78.832C1050.53 67.6211 1044.1 59.6133 1031.25 54.8086C1028.95 54.2617 1026.5 53.9883 1023.93 53.9883H991.348Z" stroke="white" stroke-opacity="0.05" stroke-width="12.82" mask="url(#path-1-outside-1_504_193)"/>
<path d="M1097.81 11.918H1204.34V22.6992H1097.81V11.918ZM1097.81 42.9727H1204.34V53.7539H1108.59V61.4883C1108.59 70.8633 1114.2 78.3438 1125.41 83.9297C1128.65 84.7891 1131.23 85.2188 1133.14 85.2188H1203.87V96H1131.86C1121.82 96 1112.77 91.1172 1104.73 81.3516C1100.12 74.8281 1097.81 68.5 1097.81 62.3672V42.9727Z" stroke="white" stroke-opacity="0.05" stroke-width="12.82" mask="url(#path-1-outside-1_504_193)"/>
<path d="M177.598 137.801H229.805C245 137.801 256.23 144.852 263.496 158.953C265.801 163.406 266.953 168.582 266.953 174.48V222H160.312V211.219H177.598V137.801ZM188.379 148.582V211.219H256.172V175.359C256.172 162.117 249.258 153.348 235.43 149.051C232.969 148.738 230.957 148.582 229.395 148.582H188.379Z" stroke="white" stroke-opacity="0.05" stroke-width="12.82" mask="url(#path-1-outside-1_504_193)"/>
<path d="M277.5 137.918H348.691C363.027 137.918 374.043 145.633 381.738 161.062C383.184 165.711 383.906 169.285 383.906 171.785V222H315.234C298.516 222 286.66 213.855 279.668 197.566C278.223 193.465 277.5 189.461 277.5 185.555V137.918ZM288.223 148.641V184.676C288.223 197.918 295.234 206.648 309.258 210.867C312.188 211.141 314.473 211.277 316.113 211.277H373.184V173.074C373.184 162.254 367.031 154.402 354.727 149.52C352.578 148.934 350.566 148.641 348.691 148.641H288.223Z" stroke="white" stroke-opacity="0.05" stroke-width="12.82" mask="url(#path-1-outside-1_504_193)"/>
<path d="M412.266 137.918H422.988V168.797H444.902C454.785 168.797 462.363 163.504 467.637 152.918C469.043 149.793 469.746 146.082 469.746 141.785V137.918H480.469V142.664C480.469 152.898 476.895 161.766 469.746 169.266C477.09 170.398 483.672 173.543 489.492 178.699C497.227 186.199 501.094 195.203 501.094 205.711V222H490.371V207.41C490.371 193.855 483.789 184.852 470.625 180.398C466.836 179.812 463.105 179.52 459.434 179.52H422.988V222H412.266V179.52H394.688V168.797H412.266V137.918Z" stroke="white" stroke-opacity="0.05" stroke-width="12.82" mask="url(#path-1-outside-1_504_193)"/>
<path d="M511.875 137.918H522.598V169.266H607.559V137.918H618.281V186.375C618.281 199.812 611.699 210.398 598.535 218.133C593.574 220.711 588.418 222 583.066 222H511.875V211.277H582.656C593.672 211.277 601.68 204.988 606.68 192.41C607.266 189.715 607.559 187.566 607.559 185.965V179.988H511.875V137.918Z" stroke="white" stroke-opacity="0.05" stroke-width="12.82" mask="url(#path-1-outside-1_504_193)"/>
<path d="M629.062 137.742H656.543C656.543 138.641 662.168 159.773 673.418 201.141H691.582C691.582 200.477 697.207 179.344 708.457 137.742H735.938V222H725.273V148.816H717.305C716.602 148.816 713.652 159.461 708.457 180.75C707.871 182.273 704.902 192.781 699.551 212.273H664.98L648.105 148.816H640.137V222H629.062V137.742Z" stroke="white" stroke-opacity="0.05" stroke-width="12.82" mask="url(#path-1-outside-1_504_193)"/>
<path d="M746.25 137.918H852.773V148.699H746.25V137.918ZM746.25 168.973H852.773V179.754H757.031V187.488C757.031 196.863 762.637 204.344 773.848 209.93C777.09 210.789 779.668 211.219 781.582 211.219H852.305V222H780.293C770.254 222 761.211 217.117 753.164 207.352C748.555 200.828 746.25 194.5 746.25 188.367V168.973Z" stroke="white" stroke-opacity="0.05" stroke-width="12.82" mask="url(#path-1-outside-1_504_193)"/>
<path d="M863.438 137.918H874.043V168.035H959.473V137.918H970.078V222H959.473V178.641H874.043V222H863.438V137.918Z" stroke="white" stroke-opacity="0.05" stroke-width="12.82" mask="url(#path-1-outside-1_504_193)"/>
<path d="M980.625 137.918H1087.03V148.641H1039.39V221.121C1039.39 221.707 1039.1 222 1038.52 222H1028.67V148.641H980.625V137.918Z" stroke="white" stroke-opacity="0.05" stroke-width="12.82" mask="url(#path-1-outside-1_504_193)"/>
<path d="M1097.81 137.918H1108.54V169.266H1142.87C1155.88 169.266 1166.31 175.555 1174.16 188.133C1177.01 193.406 1178.44 198.836 1178.44 204.422V222H1097.81V137.918ZM1193.5 137.918H1204.63V222H1193.5V137.918ZM1108.54 179.988V211.277H1167.71V204.832C1167.71 193.621 1161.29 185.613 1148.44 180.809C1146.13 180.262 1143.69 179.988 1141.11 179.988H1108.54Z" stroke="white" stroke-opacity="0.05" stroke-width="12.82" mask="url(#path-1-outside-1_504_193)"/>
<path d="M549.062 9.15625H587.031C594.677 9.15625 600.552 13.2708 604.656 21.5C605.427 23.9792 605.812 25.8854 605.812 27.2188V54H569.188C560.271 54 553.948 49.6562 550.219 40.9688C549.448 38.7812 549.062 36.6458 549.062 34.5625V9.15625ZM554.781 14.875V34.0938C554.781 41.1562 558.521 45.8125 566 48.0625C567.562 48.2083 568.781 48.2812 569.656 48.2812H600.094V27.9062C600.094 22.1354 596.812 17.9479 590.25 15.3438C589.104 15.0312 588.031 14.875 587.031 14.875H554.781ZM611.562 9.15625H647.938C657.458 9.15625 663.938 13.6562 667.375 22.6562C668 24.6354 668.312 26.5417 668.312 28.375V37.5312H642.688V54H636.969V37.5312H632.156C622.552 37.5312 615.99 33.1042 612.469 24.25C611.865 22.2708 611.562 20.3646 611.562 18.5312V9.15625ZM617.281 14.875V18.3125C617.281 24.3542 620.708 28.6979 627.562 31.3438C629.479 31.6562 631.083 31.8125 632.375 31.8125H636.969V14.875H617.281ZM642.688 14.875V31.8125H662.594V29.2812C662.594 21.8229 658.698 17.0938 650.906 15.0938C649.948 14.9479 648.885 14.875 647.719 14.875H642.688ZM674.062 9.03125H679.812V48.25H687.375C688.271 47.2083 697.292 34.1354 714.438 9.03125H731.188V54H725.219V14.7812H717.875C717.083 15.4062 708.062 28.4792 690.812 54H674.062V9.03125ZM736.562 9.15625H742.094V48.4688H778.406V9.15625H783.938V48.4688H793.594V54H736.562V9.15625ZM799.062 9.03125H804.812V48.25H812.375C813.271 47.2083 822.292 34.1354 839.438 9.03125H856.188V54H850.219V14.7812H842.875C842.083 15.4062 833.062 28.4792 815.812 54H799.062V9.03125ZM879.812 9.25H918.406V14.9688H880.281C874.802 14.9688 870.615 18.1667 867.719 24.5625C867.719 25.0625 867.646 25.4375 867.5 25.6875H917.969C918.26 25.7292 918.406 25.8854 918.406 26.1562V54H912.719V31.4062H867.281V54H861.562V28.4375C861.562 20.3958 865.75 14.3854 874.125 10.4062C876.438 9.63542 878.333 9.25 879.812 9.25ZM953.875 9.03125L964.75 54H959.094C958.677 54 957.333 48.7188 955.062 38.1562C954.125 34.9479 952.229 27.2188 949.375 14.9688H939.438C933.771 38.7188 930.615 51.7292 929.969 54H924.062L934.938 9.03125H953.875ZM969.375 9.03125H975.125V25.7812H997.812C1004.77 25.7812 1010.35 29.1458 1014.56 35.875C1016.1 38.6875 1016.88 41.5938 1016.88 44.5938V54H969.375V9.03125ZM975.125 31.5312V48.25H1011.12V44.8125C1011.12 38.8333 1007.69 34.5521 1000.81 31.9688C999.583 31.6771 998.281 31.5312 996.906 31.5312H975.125ZM1022.5 9.15625H1028.16V25.2188H1073.72V9.15625H1079.38V54H1073.72V30.875H1028.16V54H1022.5V9.15625ZM1085 9.15625H1090.72V25.875H1109.03C1115.97 25.875 1121.53 29.2292 1125.72 35.9375C1127.24 38.75 1128 41.6458 1128 44.625V54H1085V9.15625ZM1136.03 9.15625H1141.97V54H1136.03V9.15625ZM1090.72 31.5938V48.2812H1122.28V44.8438C1122.28 38.8646 1118.85 34.5938 1112 32.0312C1110.77 31.7396 1109.47 31.5938 1108.09 31.5938H1090.72ZM1147.5 9.15625H1204.31V14.9062H1147.5V9.15625ZM1147.5 25.7188H1204.31V31.4688H1153.25V35.5938C1153.25 40.5938 1156.24 44.5833 1162.22 47.5625C1163.95 48.0208 1165.32 48.25 1166.34 48.25H1204.06V54H1165.66C1160.3 54 1155.48 51.3958 1151.19 46.1875C1148.73 42.7083 1147.5 39.3333 1147.5 36.0625V25.7188ZM656.719 76.0938H684.562C692.667 76.0938 698.656 79.8542 702.531 87.375C703.76 89.75 704.375 92.5104 704.375 95.6562V121H647.5V115.25H656.719V76.0938ZM662.469 81.8438V115.25H698.625V96.125C698.625 89.0625 694.938 84.3854 687.562 82.0938C686.25 81.9271 685.177 81.8438 684.344 81.8438H662.469ZM710 76.1562H747.969C755.615 76.1562 761.49 80.2708 765.594 88.5C766.365 90.9792 766.75 92.8854 766.75 94.2188V121H730.125C721.208 121 714.885 116.656 711.156 107.969C710.385 105.781 710 103.646 710 101.562V76.1562ZM715.719 81.875V101.094C715.719 108.156 719.458 112.812 726.938 115.062C728.5 115.208 729.719 115.281 730.594 115.281H761.031V94.9062C761.031 89.1354 757.75 84.9479 751.188 82.3438C750.042 82.0312 748.969 81.875 747.969 81.875H715.719ZM781.875 76.1562H787.594V92.625H799.281C804.552 92.625 808.594 89.8021 811.406 84.1562C812.156 82.4896 812.531 80.5104 812.531 78.2188V76.1562H818.25V78.6875C818.25 84.1458 816.344 88.875 812.531 92.875C816.448 93.4792 819.958 95.1562 823.062 97.9062C827.188 101.906 829.25 106.708 829.25 112.312V121H823.531V113.219C823.531 105.99 820.021 101.188 813 98.8125C810.979 98.5 808.99 98.3438 807.031 98.3438H787.594V121H781.875V98.3438H772.5V92.625H781.875V76.1562ZM835 76.1562H840.719V92.875H886.031V76.1562H891.75V102C891.75 109.167 888.24 114.812 881.219 118.938C878.573 120.312 875.823 121 872.969 121H835V115.281H872.75C878.625 115.281 882.896 111.927 885.562 105.219C885.875 103.781 886.031 102.635 886.031 101.781V98.5938H835V76.1562ZM897.5 76.0625H912.156C912.156 76.5417 915.156 87.8125 921.156 109.875H930.844C930.844 109.521 933.844 98.25 939.844 76.0625H954.5V121H948.812V81.9688H944.562C944.188 81.9688 942.615 87.6458 939.844 99C939.531 99.8125 937.948 105.417 935.094 115.812H916.656L907.656 81.9688H903.406V121H897.5V76.0625ZM960 76.1562H1016.81V81.9062H960V76.1562ZM960 92.7188H1016.81V98.4688H965.75V102.594C965.75 107.594 968.74 111.583 974.719 114.562C976.448 115.021 977.823 115.25 978.844 115.25H1016.56V121H978.156C972.802 121 967.979 118.396 963.688 113.188C961.229 109.708 960 106.333 960 103.062V92.7188ZM1022.5 76.1562H1028.16V92.2188H1073.72V76.1562H1079.38V121H1073.72V97.875H1028.16V121H1022.5V76.1562ZM1085 76.1562H1141.75V81.875H1116.34V120.531C1116.34 120.844 1116.19 121 1115.88 121H1110.62V81.875H1085V76.1562ZM1147.5 76.1562H1153.22V92.875H1171.53C1178.47 92.875 1184.03 96.2292 1188.22 102.938C1189.74 105.75 1190.5 108.646 1190.5 111.625V121H1147.5V76.1562ZM1198.53 76.1562H1204.47V121H1198.53V76.1562ZM1153.22 98.5938V115.281H1184.78V111.844C1184.78 105.865 1181.35 101.594 1174.5 99.0312C1173.27 98.7396 1171.97 98.5938 1170.59 98.5938H1153.22Z" fill="white"/>
<path d="M549.062 9.15625V5.40625H545.312V9.15625H549.062ZM604.656 21.5L608.237 20.3866L608.147 20.0974L608.012 19.8263L604.656 21.5ZM605.812 54V57.75H609.562V54H605.812ZM550.219 40.9688L546.682 42.2151L546.723 42.333L546.773 42.4479L550.219 40.9688ZM554.781 14.875V11.125H551.031V14.875H554.781ZM566 48.0625L564.92 51.6535L565.278 51.7615L565.652 51.7963L566 48.0625ZM600.094 48.2812V52.0312H603.844V48.2812H600.094ZM590.25 15.3438L591.633 11.8582L591.439 11.781L591.237 11.7259L590.25 15.3438ZM549.062 12.9062H587.031V5.40625H549.062V12.9062ZM587.031 12.9062C590.138 12.9062 592.756 13.7279 595.021 15.3138C597.322 16.9256 599.451 19.4644 601.3 23.1737L608.012 19.8263C605.758 15.3064 602.897 11.6733 599.323 9.17058C595.713 6.64194 591.57 5.40625 587.031 5.40625V12.9062ZM601.075 22.6134C601.819 25.0053 602.062 26.4699 602.062 27.2188H609.562C609.562 25.3009 609.035 22.953 608.237 20.3866L601.075 22.6134ZM602.062 27.2188V54H609.562V27.2188H602.062ZM605.812 50.25H569.188V57.75H605.812V50.25ZM569.188 50.25C565.361 50.25 562.321 49.3274 559.881 47.6513C557.427 45.965 555.315 43.3334 553.665 39.4896L546.773 42.4479C548.852 47.2916 551.766 51.1757 555.634 53.8331C559.518 56.5007 564.098 57.75 569.188 57.75V50.25ZM553.756 39.7224C553.11 37.8903 552.812 36.1761 552.812 34.5625H545.312C545.312 37.1156 545.786 39.6722 546.682 42.2151L553.756 39.7224ZM552.812 34.5625V9.15625H545.312V34.5625H552.812ZM551.031 14.875V34.0938H558.531V14.875H551.031ZM551.031 34.0938C551.031 38.3165 552.164 42.1205 554.662 45.231C557.133 48.3078 560.675 50.3767 564.92 51.6535L567.08 44.4715C563.846 43.4983 561.778 42.1141 560.51 40.5346C559.268 38.9888 558.531 36.9335 558.531 34.0938H551.031ZM565.652 51.7963C567.255 51.9459 568.608 52.0312 569.656 52.0312V44.5312C568.954 44.5312 567.87 44.4708 566.348 44.3287L565.652 51.7963ZM569.656 52.0312H600.094V44.5312H569.656V52.0312ZM603.844 48.2812V27.9062H596.344V48.2812H603.844ZM603.844 27.9062C603.844 24.258 602.787 20.9356 600.585 18.1246C598.421 15.3638 595.336 13.3276 591.633 11.8582L588.867 18.8293C591.726 19.9641 593.563 21.3237 594.681 22.7504C595.76 24.1269 596.344 25.7837 596.344 27.9062H603.844ZM591.237 11.7259C589.828 11.3416 588.42 11.125 587.031 11.125V18.625C587.642 18.625 588.381 18.7209 589.263 18.9616L591.237 11.7259ZM587.031 11.125H554.781V18.625H587.031V11.125ZM611.562 9.15625V5.40625H607.812V9.15625H611.562ZM667.375 22.6562L670.951 21.527L670.918 21.4215L670.878 21.3182L667.375 22.6562ZM668.312 37.5312V41.2812H672.062V37.5312H668.312ZM642.688 37.5312V33.7812H638.938V37.5312H642.688ZM642.688 54V57.75H646.438V54H642.688ZM636.969 54H633.219V57.75H636.969V54ZM636.969 37.5312H640.719V33.7812H636.969V37.5312ZM612.469 24.25L608.882 25.3449L608.927 25.4923L608.984 25.6356L612.469 24.25ZM617.281 14.875V11.125H613.531V14.875H617.281ZM627.562 31.3438L626.212 34.8421L626.575 34.9823L626.959 35.0449L627.562 31.3438ZM636.969 31.8125V35.5625H640.719V31.8125H636.969ZM636.969 14.875H640.719V11.125H636.969V14.875ZM642.688 14.875V11.125H638.938V14.875H642.688ZM642.688 31.8125H638.938V35.5625H642.688V31.8125ZM662.594 31.8125V35.5625H666.344V31.8125H662.594ZM650.906 15.0938L651.839 11.4615L651.656 11.4147L651.47 11.3864L650.906 15.0938ZM611.562 12.9062H647.938V5.40625H611.562V12.9062ZM647.938 12.9062C652.094 12.9062 655.307 13.8811 657.798 15.6113C660.293 17.3438 662.362 20.0411 663.872 23.9943L670.878 21.3182C668.951 16.2714 666.061 12.2187 662.077 9.45124C658.089 6.68141 653.302 5.40625 647.938 5.40625V12.9062ZM663.799 23.7855C664.324 25.4468 664.562 26.9716 664.562 28.375H672.062C672.062 26.1118 671.676 23.824 670.951 21.527L663.799 23.7855ZM664.562 28.375V37.5312H672.062V28.375H664.562ZM668.312 33.7812H642.688V41.2812H668.312V33.7812ZM638.938 37.5312V54H646.438V37.5312H638.938ZM642.688 50.25H636.969V57.75H642.688V50.25ZM640.719 54V37.5312H633.219V54H640.719ZM636.969 33.7812H632.156V41.2812H636.969V33.7812ZM632.156 33.7812C627.94 33.7812 624.669 32.8158 622.128 31.1022C619.59 29.39 617.493 26.7357 615.953 22.8644L608.984 25.6356C610.966 30.6185 613.91 34.6048 617.934 37.3197C621.956 40.0331 626.768 41.2812 632.156 41.2812V33.7812ZM616.055 23.1551C615.546 21.4859 615.312 19.9493 615.312 18.5312H607.812C607.812 20.7799 608.183 23.0558 608.882 25.3449L616.055 23.1551ZM615.312 18.5312V9.15625H607.812V18.5312H615.312ZM613.531 14.875V18.3125H621.031V14.875H613.531ZM613.531 18.3125C613.531 22.0937 614.623 25.5288 616.908 28.4243C619.152 31.2696 622.357 33.3542 626.212 34.8421L628.913 27.8454C625.913 26.6874 623.978 25.2773 622.796 23.7788C621.653 22.3306 621.031 20.573 621.031 18.3125H613.531ZM626.959 35.0449C628.986 35.3754 630.808 35.5625 632.375 35.5625V28.0625C631.359 28.0625 629.972 27.9371 628.166 27.6426L626.959 35.0449ZM632.375 35.5625H636.969V28.0625H632.375V35.5625ZM640.719 31.8125V14.875H633.219V31.8125H640.719ZM636.969 11.125H617.281V18.625H636.969V11.125ZM638.938 14.875V31.8125H646.438V14.875H638.938ZM642.688 35.5625H662.594V28.0625H642.688V35.5625ZM666.344 31.8125V29.2812H658.844V31.8125H666.344ZM666.344 29.2812C666.344 24.8779 665.18 20.9293 662.566 17.7563C659.976 14.6115 656.264 12.5976 651.839 11.4615L649.974 18.726C653.34 19.5899 655.472 20.9405 656.778 22.525C658.059 24.0811 658.844 26.2262 658.844 29.2812H666.344ZM651.47 11.3864C650.292 11.2072 649.038 11.125 647.719 11.125V18.625C648.733 18.625 649.604 18.6887 650.342 18.8011L651.47 11.3864ZM647.719 11.125H642.688V18.625H647.719V11.125ZM674.062 9.03125V5.28125H670.312V9.03125H674.062ZM679.812 9.03125H683.562V5.28125H679.812V9.03125ZM679.812 48.25H676.062V52H679.812V48.25ZM687.375 48.25V52H689.096L690.218 50.6951L687.375 48.25ZM714.438 9.03125V5.28125H712.458L711.341 6.91627L714.438 9.03125ZM731.188 9.03125H734.938V5.28125H731.188V9.03125ZM731.188 54V57.75H734.938V54H731.188ZM725.219 54H721.469V57.75H725.219V54ZM725.219 14.7812H728.969V11.0312H725.219V14.7812ZM717.875 14.7812V11.0312H716.573L715.551 11.8379L717.875 14.7812ZM690.812 54V57.75H692.804L693.919 56.1L690.812 54ZM674.062 54H670.312V57.75H674.062V54ZM674.062 12.7812H679.812V5.28125H674.062V12.7812ZM676.062 9.03125V48.25H683.562V9.03125H676.062ZM679.812 52H687.375V44.5H679.812V52ZM690.218 50.6951C690.596 50.2562 691.468 49.0351 692.639 47.3687C693.887 45.5914 695.642 43.0649 697.899 39.7939C702.415 33.2499 708.96 23.6997 717.534 11.1462L711.341 6.91627C702.769 19.467 696.231 29.0053 691.726 35.5343C689.473 38.7997 687.732 41.3058 686.502 43.0571C685.886 43.9338 685.404 44.6123 685.053 45.0986C684.658 45.6443 684.519 45.8198 684.532 45.8049L690.218 50.6951ZM714.438 12.7812H731.188V5.28125H714.438V12.7812ZM727.438 9.03125V54H734.938V9.03125H727.438ZM731.188 50.25H725.219V57.75H731.188V50.25ZM728.969 54V14.7812H721.469V54H728.969ZM725.219 11.0312H717.875V18.5312H725.219V11.0312ZM715.551 11.8379C715.15 12.1547 714.834 12.5422 714.751 12.6414C714.587 12.8384 714.403 13.0724 714.21 13.3256C713.821 13.8367 713.311 14.5334 712.69 15.4002C711.444 17.1396 709.688 19.6514 707.429 22.9249C702.908 29.4766 696.332 39.137 687.706 51.9L693.919 56.1C702.543 43.3421 709.102 33.7057 713.602 27.1845C715.854 23.9216 717.58 21.4528 718.787 19.7678C719.392 18.9223 719.852 18.2958 720.175 17.8727C720.338 17.6587 720.446 17.5229 720.509 17.4472C720.654 17.2738 720.501 17.4859 720.199 17.7246L715.551 11.8379ZM690.812 50.25H674.062V57.75H690.812V50.25ZM677.812 54V9.03125H670.312V54H677.812ZM736.562 9.15625V5.40625H732.812V9.15625H736.562ZM742.094 9.15625H745.844V5.40625H742.094V9.15625ZM742.094 48.4688H738.344V52.2188H742.094V48.4688ZM778.406 48.4688V52.2188H782.156V48.4688H778.406ZM778.406 9.15625V5.40625H774.656V9.15625H778.406ZM783.938 9.15625H787.688V5.40625H783.938V9.15625ZM783.938 48.4688H780.188V52.2188H783.938V48.4688ZM793.594 48.4688H797.344V44.7188H793.594V48.4688ZM793.594 54V57.75H797.344V54H793.594ZM736.562 54H732.812V57.75H736.562V54ZM736.562 12.9062H742.094V5.40625H736.562V12.9062ZM738.344 9.15625V48.4688H745.844V9.15625H738.344ZM742.094 52.2188H778.406V44.7188H742.094V52.2188ZM782.156 48.4688V9.15625H774.656V48.4688H782.156ZM778.406 12.9062H783.938V5.40625H778.406V12.9062ZM780.188 9.15625V48.4688H787.688V9.15625H780.188ZM783.938 52.2188H793.594V44.7188H783.938V52.2188ZM789.844 48.4688V54H797.344V48.4688H789.844ZM793.594 50.25H736.562V57.75H793.594V50.25ZM740.312 54V9.15625H732.812V54H740.312ZM799.062 9.03125V5.28125H795.312V9.03125H799.062ZM804.812 9.03125H808.562V5.28125H804.812V9.03125ZM804.812 48.25H801.062V52H804.812V48.25ZM812.375 48.25V52H814.096L815.218 50.6951L812.375 48.25ZM839.438 9.03125V5.28125H837.458L836.341 6.91627L839.438 9.03125ZM856.188 9.03125H859.938V5.28125H856.188V9.03125ZM856.188 54V57.75H859.938V54H856.188ZM850.219 54H846.469V57.75H850.219V54ZM850.219 14.7812H853.969V11.0312H850.219V14.7812ZM842.875 14.7812V11.0312H841.573L840.551 11.8379L842.875 14.7812ZM815.812 54V57.75H817.804L818.919 56.1L815.812 54ZM799.062 54H795.312V57.75H799.062V54ZM799.062 12.7812H804.812V5.28125H799.062V12.7812ZM801.062 9.03125V48.25H808.562V9.03125H801.062ZM804.812 52H812.375V44.5H804.812V52ZM815.218 50.6951C815.596 50.2562 816.468 49.0351 817.639 47.3687C818.887 45.5914 820.642 43.0649 822.899 39.7939C827.415 33.2499 833.96 23.6997 842.534 11.1462L836.341 6.91627C827.769 19.467 821.231 29.0053 816.726 35.5343C814.473 38.7997 812.732 41.3058 811.502 43.0571C810.886 43.9338 810.404 44.6123 810.053 45.0986C809.658 45.6443 809.519 45.8198 809.532 45.8049L815.218 50.6951ZM839.438 12.7812H856.188V5.28125H839.438V12.7812ZM852.438 9.03125V54H859.938V9.03125H852.438ZM856.188 50.25H850.219V57.75H856.188V50.25ZM853.969 54V14.7812H846.469V54H853.969ZM850.219 11.0312H842.875V18.5312H850.219V11.0312ZM840.551 11.8379C840.15 12.1547 839.834 12.5422 839.751 12.6414C839.587 12.8384 839.403 13.0724 839.21 13.3256C838.821 13.8367 838.311 14.5334 837.69 15.4002C836.444 17.1396 834.688 19.6514 832.429 22.9249C827.908 29.4766 821.332 39.137 812.706 51.9L818.919 56.1C827.543 43.3421 834.102 33.7057 838.602 27.1845C840.854 23.9216 842.58 21.4528 843.787 19.7678C844.392 18.9223 844.852 18.2958 845.175 17.8727C845.338 17.6587 845.446 17.5229 845.509 17.4472C845.654 17.2738 845.501 17.4859 845.199 17.7246L840.551 11.8379ZM815.812 50.25H799.062V57.75H815.812V50.25ZM802.812 54V9.03125H795.312V54H802.812ZM918.406 9.25H922.156V5.5H918.406V9.25ZM918.406 14.9688V18.7188H922.156V14.9688H918.406ZM867.719 24.5625L864.303 23.0158L863.969 23.7531V24.5625H867.719ZM867.5 25.6875L864.261 23.798L860.971 29.4375H867.5V25.6875ZM917.969 25.6875L918.499 21.9752L918.235 21.9375H917.969V25.6875ZM918.406 54V57.75H922.156V54H918.406ZM912.719 54H908.969V57.75H912.719V54ZM912.719 31.4062H916.469V27.6562H912.719V31.4062ZM867.281 31.4062V27.6562H863.531V31.4062H867.281ZM867.281 54V57.75H871.031V54H867.281ZM861.562 54H857.812V57.75H861.562V54ZM874.125 10.4062L872.939 6.84869L872.722 6.921L872.516 7.01912L874.125 10.4062ZM879.812 13H918.406V5.5H879.812V13ZM914.656 9.25V14.9688H922.156V9.25H914.656ZM918.406 11.2188H880.281V18.7188H918.406V11.2188ZM880.281 11.2188C876.754 11.2188 873.53 12.2677 870.755 14.3869C868.032 16.4664 865.924 19.4336 864.303 23.0158L871.135 26.1092C872.409 23.2955 873.843 21.4659 875.307 20.3475C876.72 19.2688 878.329 18.7188 880.281 18.7188V11.2188ZM863.969 24.5625C863.969 24.6413 863.962 24.6106 863.983 24.503C864.003 24.4016 864.066 24.132 864.261 23.798L870.739 27.577C871.382 26.4746 871.469 25.3043 871.469 24.5625H863.969ZM867.5 29.4375H917.969V21.9375H867.5V29.4375ZM917.438 29.3998C917.055 29.345 916.253 29.1419 915.555 28.3946C914.82 27.6068 914.656 26.7066 914.656 26.1562H922.156C922.156 25.335 921.919 24.2213 921.038 23.2772C920.195 22.3737 919.175 22.0717 918.499 21.9752L917.438 29.3998ZM914.656 26.1562V54H922.156V26.1562H914.656ZM918.406 50.25H912.719V57.75H918.406V50.25ZM916.469 54V31.4062H908.969V54H916.469ZM912.719 27.6562H867.281V35.1562H912.719V27.6562ZM863.531 31.4062V54H871.031V31.4062H863.531ZM867.281 50.25H861.562V57.75H867.281V50.25ZM865.312 54V28.4375H857.812V54H865.312ZM865.312 28.4375C865.312 25.1047 866.167 22.3569 867.78 20.0421C869.414 17.6962 871.982 15.5762 875.734 13.7934L872.516 7.01912C867.893 9.21543 864.179 12.0902 861.626 15.7548C859.051 19.4504 857.812 23.7286 857.812 28.4375H865.312ZM875.311 13.9638C877.455 13.2491 878.913 13 879.812 13V5.5C877.754 5.5 875.42 6.02173 872.939 6.84869L875.311 13.9638ZM953.875 9.03125L957.52 8.14978L956.826 5.28125H953.875V9.03125ZM964.75 54V57.75H969.515L968.395 53.1185L964.75 54ZM955.062 38.1562L958.729 37.368L958.7 37.235L958.662 37.1045L955.062 38.1562ZM949.375 14.9688L953.027 14.1178L952.352 11.2188H949.375V14.9688ZM939.438 14.9688V11.2188H936.477L935.79 14.0984L939.438 14.9688ZM929.969 54V57.75H932.801L933.576 55.0258L929.969 54ZM924.062 54L920.418 53.1185L919.298 57.75H924.062V54ZM934.938 9.03125V5.28125H931.986L931.293 8.14978L934.938 9.03125ZM950.23 9.91272L961.105 54.8815L968.395 53.1185L957.52 8.14978L950.23 9.91272ZM964.75 50.25H959.094V57.75H964.75V50.25ZM959.094 50.25C960.091 50.25 960.816 50.6435 961.193 50.9059C961.572 51.1695 961.811 51.4437 961.923 51.5836C962.147 51.8604 962.253 52.0856 962.26 52.0993C962.292 52.1648 962.26 52.1083 962.165 51.8239C961.989 51.2966 961.738 50.413 961.408 49.1144C960.754 46.544 959.862 42.6387 958.729 37.368L951.396 38.9445C952.534 44.2363 953.449 48.2529 954.139 50.9637C954.481 52.3058 954.786 53.4026 955.05 54.1956C955.175 54.5714 955.334 55.01 955.528 55.4055C955.616 55.5843 955.796 55.9333 956.086 56.2926C956.232 56.4737 956.502 56.7789 956.911 57.0632C957.318 57.3462 958.071 57.75 959.094 57.75V50.25ZM958.662 37.1045C957.76 34.0173 955.889 26.4014 953.027 14.1178L945.723 15.8197C948.569 28.0361 950.49 35.8785 951.463 39.208L958.662 37.1045ZM949.375 11.2188H939.438V18.7188H949.375V11.2188ZM935.79 14.0984C930.107 37.9176 926.979 50.8048 926.362 52.9742L933.576 55.0258C934.25 52.6535 937.435 39.5199 943.085 15.8391L935.79 14.0984ZM929.969 50.25H924.062V57.75H929.969V50.25ZM927.707 54.8815L938.582 9.91272L931.293 8.14978L920.418 53.1185L927.707 54.8815ZM934.938 12.7812H953.875V5.28125H934.938V12.7812ZM969.375 9.03125V5.28125H965.625V9.03125H969.375ZM975.125 9.03125H978.875V5.28125H975.125V9.03125ZM975.125 25.7812H971.375V29.5312H975.125V25.7812ZM1014.56 35.875L1017.85 34.0725L1017.8 33.978L1017.74 33.8866L1014.56 35.875ZM1016.88 54V57.75H1020.62V54H1016.88ZM969.375 54H965.625V57.75H969.375V54ZM975.125 31.5312V27.7812H971.375V31.5312H975.125ZM975.125 48.25H971.375V52H975.125V48.25ZM1011.12 48.25V52H1014.88V48.25H1011.12ZM1000.81 31.9688L1002.13 28.4584L1001.91 28.3749L1001.68 28.3201L1000.81 31.9688ZM969.375 12.7812H975.125V5.28125H969.375V12.7812ZM971.375 9.03125V25.7812H978.875V9.03125H971.375ZM975.125 29.5312H997.812V22.0312H975.125V29.5312ZM997.812 29.5312C1003.28 29.5312 1007.75 32.0481 1011.38 37.8634L1017.74 33.8866C1012.96 26.2436 1006.26 22.0312 997.812 22.0312V29.5312ZM1011.27 37.6775C1012.53 39.9769 1013.12 42.2672 1013.12 44.5938H1020.62C1020.62 40.9203 1019.67 37.3981 1017.85 34.0725L1011.27 37.6775ZM1013.12 44.5938V54H1020.62V44.5938H1013.12ZM1016.88 50.25H969.375V57.75H1016.88V50.25ZM973.125 54V9.03125H965.625V54H973.125ZM971.375 31.5312V48.25H978.875V31.5312H971.375ZM975.125 52H1011.12V44.5H975.125V52ZM1014.88 48.25V44.8125H1007.38V48.25H1014.88ZM1014.88 44.8125C1014.88 41.0502 1013.77 37.6364 1011.47 34.7694C1009.21 31.956 1005.99 29.9093 1002.13 28.4584L999.493 35.4791C1002.51 36.6115 1004.44 37.9971 1005.62 39.465C1006.76 40.8792 1007.38 42.5956 1007.38 44.8125H1014.88ZM1001.68 28.3201C1000.14 27.9554 998.547 27.7812 996.906 27.7812V35.2812C998.015 35.2812 999.025 35.3987 999.947 35.6174L1001.68 28.3201ZM996.906 27.7812H975.125V35.2812H996.906V27.7812ZM1022.5 9.15625V5.40625H1018.75V9.15625H1022.5ZM1028.16 9.15625H1031.91V5.40625H1028.16V9.15625ZM1028.16 25.2188H1024.41V28.9688H1028.16V25.2188ZM1073.72 25.2188V28.9688H1077.47V25.2188H1073.72ZM1073.72 9.15625V5.40625H1069.97V9.15625H1073.72ZM1079.38 9.15625H1083.12V5.40625H1079.38V9.15625ZM1079.38 54V57.75H1083.12V54H1079.38ZM1073.72 54H1069.97V57.75H1073.72V54ZM1073.72 30.875H1077.47V27.125H1073.72V30.875ZM1028.16 30.875V27.125H1024.41V30.875H1028.16ZM1028.16 54V57.75H1031.91V54H1028.16ZM1022.5 54H1018.75V57.75H1022.5V54ZM1022.5 12.9062H1028.16V5.40625H1022.5V12.9062ZM1024.41 9.15625V25.2188H1031.91V9.15625H1024.41ZM1028.16 28.9688H1073.72V21.4688H1028.16V28.9688ZM1077.47 25.2188V9.15625H1069.97V25.2188H1077.47ZM1073.72 12.9062H1079.38V5.40625H1073.72V12.9062ZM1075.62 9.15625V54H1083.12V9.15625H1075.62ZM1079.38 50.25H1073.72V57.75H1079.38V50.25ZM1077.47 54V30.875H1069.97V54H1077.47ZM1073.72 27.125H1028.16V34.625H1073.72V27.125ZM1024.41 30.875V54H1031.91V30.875H1024.41ZM1028.16 50.25H1022.5V57.75H1028.16V50.25ZM1026.25 54V9.15625H1018.75V54H1026.25ZM1085 9.15625V5.40625H1081.25V9.15625H1085ZM1090.72 9.15625H1094.47V5.40625H1090.72V9.15625ZM1090.72 25.875H1086.97V29.625H1090.72V25.875ZM1125.72 35.9375L1129.02 34.1538L1128.96 34.051L1128.9 33.9518L1125.72 35.9375ZM1128 54V57.75H1131.75V54H1128ZM1085 54H1081.25V57.75H1085V54ZM1136.03 9.15625V5.40625H1132.28V9.15625H1136.03ZM1141.97 9.15625H1145.72V5.40625H1141.97V9.15625ZM1141.97 54V57.75H1145.72V54H1141.97ZM1136.03 54H1132.28V57.75H1136.03V54ZM1090.72 31.5938V27.8438H1086.97V31.5938H1090.72ZM1090.72 48.2812H1086.97V52.0312H1090.72V48.2812ZM1122.28 48.2812V52.0312H1126.03V48.2812H1122.28ZM1112 32.0312L1113.31 28.5187L1113.09 28.4367L1112.87 28.3826L1112 32.0312ZM1085 12.9062H1090.72V5.40625H1085V12.9062ZM1086.97 9.15625V25.875H1094.47V9.15625H1086.97ZM1090.72 29.625H1109.03V22.125H1090.72V29.625ZM1109.03 29.625C1114.47 29.625 1118.92 32.1308 1122.54 37.9232L1128.9 33.9518C1124.14 26.3275 1117.46 22.125 1109.03 22.125V29.625ZM1122.42 37.7212C1123.67 40.0271 1124.25 42.3139 1124.25 44.625H1131.75C1131.75 40.9777 1130.81 37.4729 1129.02 34.1538L1122.42 37.7212ZM1124.25 44.625V54H1131.75V44.625H1124.25ZM1128 50.25H1085V57.75H1128V50.25ZM1088.75 54V9.15625H1081.25V54H1088.75ZM1136.03 12.9062H1141.97V5.40625H1136.03V12.9062ZM1138.22 9.15625V54H1145.72V9.15625H1138.22ZM1141.97 50.25H1136.03V57.75H1141.97V50.25ZM1139.78 54V9.15625H1132.28V54H1139.78ZM1086.97 31.5938V48.2812H1094.47V31.5938H1086.97ZM1090.72 52.0312H1122.28V44.5312H1090.72V52.0312ZM1126.03 48.2812V44.8438H1118.53V48.2812H1126.03ZM1126.03 44.8438C1126.03 41.0844 1124.93 37.6728 1122.64 34.8093C1120.38 31.9989 1117.17 29.9593 1113.31 28.5187L1110.69 35.5438C1113.69 36.6657 1115.61 38.0428 1116.79 39.5032C1117.92 40.9105 1118.53 42.6239 1118.53 44.8438H1126.03ZM1112.87 28.3826C1111.33 28.0179 1109.73 27.8438 1108.09 27.8438V35.3438C1109.2 35.3438 1110.21 35.4612 1111.13 35.6799L1112.87 28.3826ZM1108.09 27.8438H1090.72V35.3438H1108.09V27.8438ZM1147.5 9.15625V5.40625H1143.75V9.15625H1147.5ZM1204.31 9.15625H1208.06V5.40625H1204.31V9.15625ZM1204.31 14.9062V18.6562H1208.06V14.9062H1204.31ZM1147.5 14.9062H1143.75V18.6562H1147.5V14.9062ZM1147.5 25.7188V21.9688H1143.75V25.7188H1147.5ZM1204.31 25.7188H1208.06V21.9688H1204.31V25.7188ZM1204.31 31.4688V35.2188H1208.06V31.4688H1204.31ZM1153.25 31.4688V27.7188H1149.5V31.4688H1153.25ZM1162.22 47.5625L1160.55 50.9189L1160.89 51.0894L1161.26 51.1873L1162.22 47.5625ZM1204.06 48.25H1207.81V44.5H1204.06V48.25ZM1204.06 54V57.75H1207.81V54H1204.06ZM1151.19 46.1875L1148.12 48.3515L1148.21 48.465L1148.29 48.5722L1151.19 46.1875ZM1147.5 12.9062H1204.31V5.40625H1147.5V12.9062ZM1200.56 9.15625V14.9062H1208.06V9.15625H1200.56ZM1204.31 11.1562H1147.5V18.6562H1204.31V11.1562ZM1151.25 14.9062V9.15625H1143.75V14.9062H1151.25ZM1147.5 29.4688H1204.31V21.9688H1147.5V29.4688ZM1200.56 25.7188V31.4688H1208.06V25.7188H1200.56ZM1204.31 27.7188H1153.25V35.2188H1204.31V27.7188ZM1149.5 31.4688V35.5938H1157V31.4688H1149.5ZM1149.5 35.5938C1149.5 42.5001 1153.79 47.5548 1160.55 50.9189L1163.89 44.2061C1158.68 41.6119 1157 38.6874 1157 35.5938H1149.5ZM1161.26 51.1873C1163.1 51.6765 1164.84 52 1166.34 52V44.5C1165.8 44.5 1164.79 44.3652 1163.18 43.9377L1161.26 51.1873ZM1166.34 52H1204.06V44.5H1166.34V52ZM1200.31 48.25V54H1207.81V48.25H1200.31ZM1204.06 50.25H1165.66V57.75H1204.06V50.25ZM1165.66 50.25C1161.71 50.25 1157.86 48.3915 1154.08 43.8028L1148.29 48.5722C1153.1 54.4001 1158.9 57.75 1165.66 57.75V50.25ZM1154.25 44.0235C1152.1 40.987 1151.25 38.354 1151.25 36.0625H1143.75C1143.75 40.3127 1145.35 44.4297 1148.12 48.3515L1154.25 44.0235ZM1151.25 36.0625V25.7188H1143.75V36.0625H1151.25ZM656.719 76.0938V72.3438H652.969V76.0938H656.719ZM702.531 87.375L699.198 89.0926L699.201 89.0986L702.531 87.375ZM704.375 121V124.75H708.125V121H704.375ZM647.5 121H643.75V124.75H647.5V121ZM647.5 115.25V111.5H643.75V115.25H647.5ZM656.719 115.25V119H660.469V115.25H656.719ZM662.469 81.8438V78.0938H658.719V81.8438H662.469ZM662.469 115.25H658.719V119H662.469V115.25ZM698.625 115.25V119H702.375V115.25H698.625ZM687.562 82.0938L688.675 78.5127L688.361 78.4151L688.035 78.3736L687.562 82.0938ZM656.719 79.8438H684.562V72.3438H656.719V79.8438ZM684.562 79.8438C688.014 79.8438 690.825 80.6372 693.139 82.09C695.462 83.5485 697.507 85.8118 699.198 89.0926L705.865 85.6574C703.68 81.4174 700.793 78.04 697.127 75.7381C693.451 73.4305 689.215 72.3438 684.562 72.3438V79.8438ZM699.201 89.0986C700.11 90.8544 700.625 93.0046 700.625 95.6562H708.125C708.125 92.0162 707.411 88.6456 705.862 85.6514L699.201 89.0986ZM700.625 95.6562V121H708.125V95.6562H700.625ZM704.375 117.25H647.5V124.75H704.375V117.25ZM651.25 121V115.25H643.75V121H651.25ZM647.5 119H656.719V111.5H647.5V119ZM660.469 115.25V76.0938H652.969V115.25H660.469ZM658.719 81.8438V115.25H666.219V81.8438H658.719ZM662.469 119H698.625V111.5H662.469V119ZM702.375 115.25V96.125H694.875V115.25H702.375ZM702.375 96.125C702.375 91.9139 701.262 88.1159 698.804 84.9986C696.37 81.9107 692.874 79.8172 688.675 78.5127L686.45 85.6748C689.626 86.662 691.662 88.0529 692.915 89.6421C694.144 91.2018 694.875 93.2736 694.875 96.125H702.375ZM688.035 78.3736C686.645 78.1972 685.399 78.0938 684.344 78.0938V85.5938C684.955 85.5938 685.855 85.657 687.09 85.8139L688.035 78.3736ZM684.344 78.0938H662.469V85.5938H684.344V78.0938ZM710 76.1562V72.4062H706.25V76.1562H710ZM765.594 88.5L769.175 87.3866L769.085 87.0974L768.95 86.8263L765.594 88.5ZM766.75 121V124.75H770.5V121H766.75ZM711.156 107.969L707.619 109.215L707.661 109.333L707.71 109.448L711.156 107.969ZM715.719 81.875V78.125H711.969V81.875H715.719ZM726.938 115.062L725.857 118.654L726.216 118.761L726.589 118.796L726.938 115.062ZM761.031 115.281V119.031H764.781V115.281H761.031ZM751.188 82.3438L752.571 78.8582L752.376 78.781L752.174 78.7259L751.188 82.3438ZM710 79.9062H747.969V72.4062H710V79.9062ZM747.969 79.9062C751.076 79.9062 753.694 80.7279 755.958 82.3138C758.26 83.9256 760.388 86.4644 762.238 90.1737L768.95 86.8263C766.695 82.3064 763.834 78.6733 760.261 76.1706C756.65 73.6419 752.508 72.4062 747.969 72.4062V79.9062ZM762.013 89.6134C762.757 92.0053 763 93.4699 763 94.2188H770.5C770.5 92.3009 769.973 89.953 769.175 87.3866L762.013 89.6134ZM763 94.2188V121H770.5V94.2188H763ZM766.75 117.25H730.125V124.75H766.75V117.25ZM730.125 117.25C726.298 117.25 723.259 116.327 720.819 114.651C718.364 112.965 716.252 110.333 714.602 106.49L707.71 109.448C709.789 114.292 712.704 118.176 716.572 120.833C720.455 123.501 725.035 124.75 730.125 124.75V117.25ZM714.693 106.722C714.047 104.89 713.75 103.176 713.75 101.562H706.25C706.25 104.116 706.723 106.672 707.619 109.215L714.693 106.722ZM713.75 101.562V76.1562H706.25V101.562H713.75ZM711.969 81.875V101.094H719.469V81.875H711.969ZM711.969 101.094C711.969 105.316 713.102 109.121 715.6 112.231C718.071 115.308 721.613 117.377 725.857 118.654L728.018 111.471C724.783 110.498 722.716 109.114 721.447 107.535C720.206 105.989 719.469 103.934 719.469 101.094H711.969ZM726.589 118.796C728.192 118.946 729.546 119.031 730.594 119.031V111.531C729.892 111.531 728.808 111.471 727.286 111.329L726.589 118.796ZM730.594 119.031H761.031V111.531H730.594V119.031ZM764.781 115.281V94.9062H757.281V115.281H764.781ZM764.781 94.9062C764.781 91.258 763.725 87.9356 761.522 85.1246C759.359 82.3638 756.274 80.3276 752.571 78.8582L749.804 85.8293C752.664 86.9641 754.501 88.3237 755.619 89.7504C756.697 91.1269 757.281 92.7837 757.281 94.9062H764.781ZM752.174 78.7259C750.765 78.3416 749.358 78.125 747.969 78.125V85.625C748.58 85.625 749.318 85.7209 750.201 85.9616L752.174 78.7259ZM747.969 78.125H715.719V85.625H747.969V78.125ZM781.875 76.1562V72.4062H778.125V76.1562H781.875ZM787.594 76.1562H791.344V72.4062H787.594V76.1562ZM787.594 92.625H783.844V96.375H787.594V92.625ZM811.406 84.1562L814.763 85.8283L814.796 85.7624L814.826 85.6951L811.406 84.1562ZM812.531 76.1562V72.4062H808.781V76.1562H812.531ZM818.25 76.1562H822V72.4062H818.25V76.1562ZM812.531 92.875L809.817 90.2877L804.862 95.4863L811.96 96.5812L812.531 92.875ZM823.062 97.9062L825.673 95.2141L825.612 95.1553L825.549 95.0993L823.062 97.9062ZM829.25 121V124.75H833V121H829.25ZM823.531 121H819.781V124.75H823.531V121ZM813 98.8125L814.202 95.2602L813.894 95.1562L813.573 95.1066L813 98.8125ZM787.594 98.3438V94.5938H783.844V98.3438H787.594ZM787.594 121V124.75H791.344V121H787.594ZM781.875 121H778.125V124.75H781.875V121ZM781.875 98.3438H785.625V94.5938H781.875V98.3438ZM772.5 98.3438H768.75V102.094H772.5V98.3438ZM772.5 92.625V88.875H768.75V92.625H772.5ZM781.875 92.625V96.375H785.625V92.625H781.875ZM781.875 79.9062H787.594V72.4062H781.875V79.9062ZM783.844 76.1562V92.625H791.344V76.1562H783.844ZM787.594 96.375H799.281V88.875H787.594V96.375ZM799.281 96.375C802.629 96.375 805.718 95.4645 808.413 93.5822C811.072 91.7251 813.153 89.0594 814.763 85.8283L808.05 82.4842C806.847 84.8989 805.501 86.4676 804.118 87.4335C802.772 88.3741 801.205 88.875 799.281 88.875V96.375ZM814.826 85.6951C815.842 83.4383 816.281 80.9104 816.281 78.2188H808.781C808.781 80.1104 808.471 81.5409 807.987 82.6174L814.826 85.6951ZM816.281 78.2188V76.1562H808.781V78.2188H816.281ZM812.531 79.9062H818.25V72.4062H812.531V79.9062ZM814.5 76.1562V78.6875H822V76.1562H814.5ZM814.5 78.6875C814.5 83.1692 812.974 86.9755 809.817 90.2877L815.246 95.4623C819.714 90.7745 822 85.1225 822 78.6875H814.5ZM811.96 96.5812C815.131 97.0704 817.984 98.4172 820.576 100.713L825.549 95.0993C821.933 91.8953 817.765 89.888 813.103 89.1688L811.96 96.5812ZM820.452 100.598C823.869 103.912 825.5 107.751 825.5 112.312H833C833 105.665 830.506 99.9003 825.673 95.2141L820.452 100.598ZM825.5 112.312V121H833V112.312H825.5ZM829.25 117.25H823.531V124.75H829.25V117.25ZM827.281 121V113.219H819.781V121H827.281ZM827.281 113.219C827.281 108.983 826.244 105.154 823.926 101.982C821.613 98.8186 818.262 96.6339 814.202 95.2602L811.798 102.365C814.758 103.366 816.673 104.77 817.871 106.408C819.063 108.039 819.781 110.225 819.781 113.219H827.281ZM813.573 95.1066C811.371 94.766 809.19 94.5938 807.031 94.5938V102.094C808.789 102.094 810.587 102.234 812.427 102.518L813.573 95.1066ZM807.031 94.5938H787.594V102.094H807.031V94.5938ZM783.844 98.3438V121H791.344V98.3438H783.844ZM787.594 117.25H781.875V124.75H787.594V117.25ZM785.625 121V98.3438H778.125V121H785.625ZM781.875 94.5938H772.5V102.094H781.875V94.5938ZM776.25 98.3438V92.625H768.75V98.3438H776.25ZM772.5 96.375H781.875V88.875H772.5V96.375ZM785.625 92.625V76.1562H778.125V92.625H785.625ZM835 76.1562V72.4062H831.25V76.1562H835ZM840.719 76.1562H844.469V72.4062H840.719V76.1562ZM840.719 92.875H836.969V96.625H840.719V92.875ZM886.031 92.875V96.625H889.781V92.875H886.031ZM886.031 76.1562V72.4062H882.281V76.1562H886.031ZM891.75 76.1562H895.5V72.4062H891.75V76.1562ZM881.219 118.938L882.948 122.265L883.034 122.22L883.118 122.171L881.219 118.938ZM835 121H831.25V124.75H835V121ZM835 115.281V111.531H831.25V115.281H835ZM885.562 105.219L889.047 106.604L889.161 106.317L889.227 106.015L885.562 105.219ZM886.031 98.5938H889.781V94.8438H886.031V98.5938ZM835 98.5938H831.25V102.344H835V98.5938ZM835 79.9062H840.719V72.4062H835V79.9062ZM836.969 76.1562V92.875H844.469V76.1562H836.969ZM840.719 96.625H886.031V89.125H840.719V96.625ZM889.781 92.875V76.1562H882.281V92.875H889.781ZM886.031 79.9062H891.75V72.4062H886.031V79.9062ZM888 76.1562V102H895.5V76.1562H888ZM888 102C888 107.634 885.381 112.143 879.319 115.704L883.118 122.171C891.099 117.482 895.5 110.7 895.5 102H888ZM879.49 115.61C877.353 116.72 875.194 117.25 872.969 117.25V124.75C876.452 124.75 879.793 123.905 882.948 122.265L879.49 115.61ZM872.969 117.25H835V124.75H872.969V117.25ZM838.75 121V115.281H831.25V121H838.75ZM835 119.031H872.75V111.531H835V119.031ZM872.75 119.031C876.454 119.031 879.824 117.954 882.676 115.715C885.476 113.516 887.547 110.377 889.047 106.604L882.078 103.834C880.911 106.769 879.514 108.662 878.043 109.816C876.624 110.931 874.921 111.531 872.75 111.531V119.031ZM889.227 106.015C889.562 104.475 889.781 103.028 889.781 101.781H882.281C882.281 102.243 882.188 103.088 881.898 104.422L889.227 106.015ZM889.781 101.781V98.5938H882.281V101.781H889.781ZM886.031 94.8438H835V102.344H886.031V94.8438ZM838.75 98.5938V76.1562H831.25V98.5938H838.75ZM897.5 76.0625V72.3125H893.75V76.0625H897.5ZM912.156 76.0625H915.906V72.3125H912.156V76.0625ZM921.156 109.875L917.538 110.859L918.29 113.625H921.156V109.875ZM930.844 109.875V113.625H934.594V109.875H930.844ZM939.844 76.0625V72.3125H936.973L936.224 75.0836L939.844 76.0625ZM954.5 76.0625H958.25V72.3125H954.5V76.0625ZM954.5 121V124.75H958.25V121H954.5ZM948.812 121H945.062V124.75H948.812V121ZM948.812 81.9688H952.562V78.2188H948.812V81.9688ZM939.844 99L943.344 100.346L943.43 100.122L943.487 99.889L939.844 99ZM935.094 115.812V119.562H937.953L938.71 116.805L935.094 115.812ZM916.656 115.812L913.032 116.776L913.773 119.562H916.656V115.812ZM907.656 81.9688L911.28 81.005L910.539 78.2188H907.656V81.9688ZM903.406 81.9688V78.2188H899.656V81.9688H903.406ZM903.406 121V124.75H907.156V121H903.406ZM897.5 121H893.75V124.75H897.5V121ZM897.5 79.8125H912.156V72.3125H897.5V79.8125ZM908.406 76.0625C908.406 76.4129 908.458 76.7078 908.464 76.7406C908.481 76.8482 908.501 76.9506 908.518 77.0323C908.552 77.1997 908.597 77.3974 908.647 77.6096C908.749 78.0401 908.896 78.6318 909.085 79.373C909.465 80.8606 910.032 83.0186 910.782 85.8396C912.285 91.485 914.537 99.8262 917.538 110.859L924.775 108.891C921.775 97.8613 919.527 89.5358 918.03 83.9104C917.281 81.096 916.722 78.9675 916.352 77.5176C916.166 76.7901 916.032 76.2503 915.947 75.8865C915.903 75.7016 915.877 75.5864 915.865 75.5253C915.814 75.2768 915.906 75.6271 915.906 76.0625H908.406ZM921.156 113.625H930.844V106.125H921.156V113.625ZM934.594 109.875C934.594 110.13 934.566 110.324 934.562 110.351C934.554 110.416 934.545 110.463 934.543 110.477C934.537 110.508 934.535 110.515 934.543 110.48C934.557 110.416 934.584 110.3 934.628 110.117C934.716 109.757 934.851 109.221 935.037 108.5C935.409 107.061 935.968 104.936 936.718 102.121C938.216 96.4928 940.464 88.134 943.464 77.0414L936.224 75.0836C933.223 86.1785 930.972 94.5489 929.47 100.192C928.719 103.012 928.154 105.158 927.775 106.625C927.586 107.357 927.441 107.933 927.341 108.344C927.291 108.547 927.248 108.731 927.215 108.881C927.199 108.954 927.18 109.046 927.162 109.142C927.154 109.189 927.141 109.263 927.13 109.349C927.123 109.399 927.094 109.609 927.094 109.875H934.594ZM939.844 79.8125H954.5V72.3125H939.844V79.8125ZM950.75 76.0625V121H958.25V76.0625H950.75ZM954.5 117.25H948.812V124.75H954.5V117.25ZM952.562 121V81.9688H945.062V121H952.562ZM948.812 78.2188H944.562V85.7188H948.812V78.2188ZM944.562 78.2188C943.366 78.2188 942.546 78.7696 942.202 79.041C941.825 79.338 941.583 79.6433 941.463 79.8057C941.217 80.1386 941.058 80.459 940.979 80.6253C940.802 80.9979 940.644 81.4245 940.51 81.8162C940.228 82.6358 939.886 83.7883 939.488 85.2253C938.685 88.1216 937.588 92.4252 936.201 98.111L943.487 99.889C944.87 94.2207 945.945 90.0086 946.715 87.2278C947.104 85.8263 947.398 84.8498 947.604 84.2503C947.713 83.9323 947.761 83.8266 947.753 83.8445C947.746 83.8576 947.727 83.8989 947.693 83.9589C947.662 84.0134 947.596 84.1257 947.493 84.2649C947.406 84.3829 947.195 84.655 946.846 84.9298C946.53 85.179 945.736 85.7188 944.562 85.7188V78.2188ZM936.344 97.6538C936.108 98.2672 935.573 100.105 934.813 102.793C934.018 105.608 932.905 109.619 931.478 114.82L938.71 116.805C940.136 111.61 941.243 107.621 942.031 104.832C942.425 103.437 942.737 102.351 942.967 101.57C943.083 101.179 943.175 100.875 943.245 100.651C943.324 100.399 943.352 100.325 943.344 100.346L936.344 97.6538ZM935.094 112.062H916.656V119.562H935.094V112.062ZM920.28 114.849L911.28 81.005L904.032 82.9325L913.032 116.776L920.28 114.849ZM907.656 78.2188H903.406V85.7188H907.656V78.2188ZM899.656 81.9688V121H907.156V81.9688H899.656ZM903.406 117.25H897.5V124.75H903.406V117.25ZM901.25 121V76.0625H893.75V121H901.25ZM960 76.1562V72.4062H956.25V76.1562H960ZM1016.81 76.1562H1020.56V72.4062H1016.81V76.1562ZM1016.81 81.9062V85.6562H1020.56V81.9062H1016.81ZM960 81.9062H956.25V85.6562H960V81.9062ZM960 92.7188V88.9688H956.25V92.7188H960ZM1016.81 92.7188H1020.56V88.9688H1016.81V92.7188ZM1016.81 98.4688V102.219H1020.56V98.4688H1016.81ZM965.75 98.4688V94.7188H962V98.4688H965.75ZM974.719 114.562L973.046 117.919L973.388 118.089L973.758 118.187L974.719 114.562ZM1016.56 115.25H1020.31V111.5H1016.56V115.25ZM1016.56 121V124.75H1020.31V121H1016.56ZM963.688 113.188L960.625 115.352L960.705 115.465L960.793 115.572L963.688 113.188ZM960 79.9062H1016.81V72.4062H960V79.9062ZM1013.06 76.1562V81.9062H1020.56V76.1562H1013.06ZM1016.81 78.1562H960V85.6562H1016.81V78.1562ZM963.75 81.9062V76.1562H956.25V81.9062H963.75ZM960 96.4688H1016.81V88.9688H960V96.4688ZM1013.06 92.7188V98.4688H1020.56V92.7188H1013.06ZM1016.81 94.7188H965.75V102.219H1016.81V94.7188ZM962 98.4688V102.594H969.5V98.4688H962ZM962 102.594C962 109.5 966.295 114.555 973.046 117.919L976.391 111.206C971.185 108.612 969.5 105.687 969.5 102.594H962ZM973.758 118.187C975.603 118.676 977.344 119 978.844 119V111.5C978.302 111.5 977.292 111.365 975.68 110.938L973.758 118.187ZM978.844 119H1016.56V111.5H978.844V119ZM1012.81 115.25V121H1020.31V115.25H1012.81ZM1016.56 117.25H978.156V124.75H1016.56V117.25ZM978.156 117.25C974.205 117.25 970.363 115.392 966.582 110.803L960.793 115.572C965.596 121.4 971.399 124.75 978.156 124.75V117.25ZM966.75 111.023C964.605 107.987 963.75 105.354 963.75 103.062H956.25C956.25 107.313 957.854 111.43 960.625 115.352L966.75 111.023ZM963.75 103.062V92.7188H956.25V103.062H963.75ZM1022.5 76.1562V72.4062H1018.75V76.1562H1022.5ZM1028.16 76.1562H1031.91V72.4062H1028.16V76.1562ZM1028.16 92.2188H1024.41V95.9688H1028.16V92.2188ZM1073.72 92.2188V95.9688H1077.47V92.2188H1073.72ZM1073.72 76.1562V72.4062H1069.97V76.1562H1073.72ZM1079.38 76.1562H1083.12V72.4062H1079.38V76.1562ZM1079.38 121V124.75H1083.12V121H1079.38ZM1073.72 121H1069.97V124.75H1073.72V121ZM1073.72 97.875H1077.47V94.125H1073.72V97.875ZM1028.16 97.875V94.125H1024.41V97.875H1028.16ZM1028.16 121V124.75H1031.91V121H1028.16ZM1022.5 121H1018.75V124.75H1022.5V121ZM1022.5 79.9062H1028.16V72.4062H1022.5V79.9062ZM1024.41 76.1562V92.2188H1031.91V76.1562H1024.41ZM1028.16 95.9688H1073.72V88.4688H1028.16V95.9688ZM1077.47 92.2188V76.1562H1069.97V92.2188H1077.47ZM1073.72 79.9062H1079.38V72.4062H1073.72V79.9062ZM1075.62 76.1562V121H1083.12V76.1562H1075.62ZM1079.38 117.25H1073.72V124.75H1079.38V117.25ZM1077.47 121V97.875H1069.97V121H1077.47ZM1073.72 94.125H1028.16V101.625H1073.72V94.125ZM1024.41 97.875V121H1031.91V97.875H1024.41ZM1028.16 117.25H1022.5V124.75H1028.16V117.25ZM1026.25 121V76.1562H1018.75V121H1026.25ZM1085 76.1562V72.4062H1081.25V76.1562H1085ZM1141.75 76.1562H1145.5V72.4062H1141.75V76.1562ZM1141.75 81.875V85.625H1145.5V81.875H1141.75ZM1116.34 81.875V78.125H1112.59V81.875H1116.34ZM1110.62 121H1106.88V124.75H1110.62V121ZM1110.62 81.875H1114.38V78.125H1110.62V81.875ZM1085 81.875H1081.25V85.625H1085V81.875ZM1085 79.9062H1141.75V72.4062H1085V79.9062ZM1138 76.1562V81.875H1145.5V76.1562H1138ZM1141.75 78.125H1116.34V85.625H1141.75V78.125ZM1112.59 81.875V120.531H1120.09V81.875H1112.59ZM1112.59 120.531C1112.59 120.109 1112.7 119.104 1113.57 118.231C1114.45 117.358 1115.45 117.25 1115.88 117.25V124.75C1116.61 124.75 1117.85 124.564 1118.88 123.534C1119.91 122.505 1120.09 121.266 1120.09 120.531H1112.59ZM1115.88 117.25H1110.62V124.75H1115.88V117.25ZM1114.38 121V81.875H1106.88V121H1114.38ZM1110.62 78.125H1085V85.625H1110.62V78.125ZM1088.75 81.875V76.1562H1081.25V81.875H1088.75ZM1147.5 76.1562V72.4062H1143.75V76.1562H1147.5ZM1153.22 76.1562H1156.97V72.4062H1153.22V76.1562ZM1153.22 92.875H1149.47V96.625H1153.22V92.875ZM1188.22 102.938L1191.52 101.154L1191.46 101.051L1191.4 100.952L1188.22 102.938ZM1190.5 121V124.75H1194.25V121H1190.5ZM1147.5 121H1143.75V124.75H1147.5V121ZM1198.53 76.1562V72.4062H1194.78V76.1562H1198.53ZM1204.47 76.1562H1208.22V72.4062H1204.47V76.1562ZM1204.47 121V124.75H1208.22V121H1204.47ZM1198.53 121H1194.78V124.75H1198.53V121ZM1153.22 98.5938V94.8438H1149.47V98.5938H1153.22ZM1153.22 115.281H1149.47V119.031H1153.22V115.281ZM1184.78 115.281V119.031H1188.53V115.281H1184.78ZM1174.5 99.0312L1175.81 95.5187L1175.59 95.4367L1175.37 95.3826L1174.5 99.0312ZM1147.5 79.9062H1153.22V72.4062H1147.5V79.9062ZM1149.47 76.1562V92.875H1156.97V76.1562H1149.47ZM1153.22 96.625H1171.53V89.125H1153.22V96.625ZM1171.53 96.625C1176.97 96.625 1181.42 99.1309 1185.04 104.923L1191.4 100.952C1186.64 93.3275 1179.96 89.125 1171.53 89.125V96.625ZM1184.92 104.721C1186.17 107.027 1186.75 109.314 1186.75 111.625H1194.25C1194.25 107.978 1193.31 104.473 1191.52 101.154L1184.92 104.721ZM1186.75 111.625V121H1194.25V111.625H1186.75ZM1190.5 117.25H1147.5V124.75H1190.5V117.25ZM1151.25 121V76.1562H1143.75V121H1151.25ZM1198.53 79.9062H1204.47V72.4062H1198.53V79.9062ZM1200.72 76.1562V121H1208.22V76.1562H1200.72ZM1204.47 117.25H1198.53V124.75H1204.47V117.25ZM1202.28 121V76.1562H1194.78V121H1202.28ZM1149.47 98.5938V115.281H1156.97V98.5938H1149.47ZM1153.22 119.031H1184.78V111.531H1153.22V119.031ZM1188.53 115.281V111.844H1181.03V115.281H1188.53ZM1188.53 111.844C1188.53 108.084 1187.43 104.673 1185.14 101.809C1182.88 98.9989 1179.67 96.9593 1175.81 95.5187L1173.19 102.544C1176.19 103.666 1178.11 105.043 1179.29 106.503C1180.42 107.911 1181.03 109.624 1181.03 111.844H1188.53ZM1175.37 95.3826C1173.83 95.0179 1172.23 94.8438 1170.59 94.8438V102.344C1171.7 102.344 1172.71 102.461 1173.63 102.68L1175.37 95.3826ZM1170.59 94.8438H1153.22V102.344H1170.59V94.8438Z" fill="white"/>
</svg>
