<svg width="1230" height="211" viewBox="0 0 1230 211" fill="none" xmlns="http://www.w3.org/2000/svg">
<path d="M0.742188 0.917969H71.9336C86.2695 0.917969 97.2852 8.63281 104.98 24.0625C106.426 28.7109 107.148 32.2852 107.148 34.7852V85H38.4766C21.7578 85 9.90234 76.8555 2.91016 60.5664C1.46484 56.4648 0.742188 52.4609 0.742188 48.5547V0.917969ZM11.4648 11.6406V47.6758C11.4648 60.918 18.4766 69.6484 32.5 73.8672C35.4297 74.1406 37.7148 74.2773 39.3555 74.2773H96.4258V36.0742C96.4258 25.2539 90.2734 17.4023 77.9688 12.5195C75.8203 11.9336 73.8086 11.6406 71.9336 11.6406H11.4648ZM117.93 0.917969H186.133C203.984 0.917969 216.133 9.35547 222.578 26.2305C223.75 29.9414 224.336 33.5156 224.336 36.9531V54.1211H176.289V85H165.566V54.1211H156.543C138.535 54.1211 126.23 45.8203 119.629 29.2188C118.496 25.5078 117.93 21.9336 117.93 18.4961V0.917969ZM128.652 11.6406V18.0859C128.652 29.4141 135.078 37.5586 147.93 42.5195C151.523 43.1055 154.531 43.3984 156.953 43.3984H165.566V11.6406H128.652ZM176.289 11.6406V43.3984H213.613V38.6523C213.613 24.668 206.309 15.8008 191.699 12.0508C189.902 11.7773 187.91 11.6406 185.723 11.6406H176.289ZM235.117 0.683594H245.898V74.2188H260.078C261.758 72.2656 278.672 47.7539 310.82 0.683594H342.227V85H331.035V11.4648H317.266C315.781 12.6367 298.867 37.1484 266.523 85H235.117V0.683594ZM352.305 0.917969H362.676V74.6289H430.762V0.917969H441.133V74.6289H459.238V85H352.305V0.917969ZM469.492 0.683594H480.273V74.2188H494.453C496.133 72.2656 513.047 47.7539 545.195 0.683594H576.602V85H565.41V11.4648H551.641C550.156 12.6367 533.242 37.1484 500.898 85H469.492V0.683594ZM620.898 1.09375H693.262V11.8164H621.777C611.504 11.8164 603.652 17.8125 598.223 29.8047C598.223 30.7422 598.086 31.4453 597.812 31.9141H692.441C692.988 31.9922 693.262 32.2852 693.262 32.793V85H682.598V42.6367H597.402V85H586.68V37.0703C586.68 21.9922 594.531 10.7227 610.234 3.26172C614.57 1.81641 618.125 1.09375 620.898 1.09375ZM759.766 0.683594L780.156 85H769.551C768.77 85 766.25 75.0977 761.992 55.293C760.234 49.2773 756.68 34.7852 751.328 11.8164H732.695C722.07 56.3477 716.152 80.7422 714.941 85H703.867L724.258 0.683594H759.766ZM788.828 0.683594H799.609V32.0898H842.148C855.195 32.0898 865.664 38.3984 873.555 51.0156C876.445 56.2891 877.891 61.7383 877.891 67.3633V85H788.828V0.683594ZM799.609 42.8711V74.2188H867.109V67.7734C867.109 56.5625 860.664 48.5352 847.773 43.6914C845.469 43.1445 843.027 42.8711 840.449 42.8711H799.609ZM888.438 0.917969H899.043V31.0352H984.473V0.917969H995.078V85H984.473V41.6406H899.043V85H888.438V0.917969ZM1005.62 0.917969H1016.35V32.2656H1050.68C1063.69 32.2656 1074.12 38.5547 1081.97 51.1328C1084.82 56.4062 1086.25 61.8359 1086.25 67.4219V85H1005.62V0.917969ZM1101.31 0.917969H1112.44V85H1101.31V0.917969ZM1016.35 42.9883V74.2773H1075.53V67.832C1075.53 56.6211 1069.1 48.6133 1056.25 43.8086C1053.95 43.2617 1051.5 42.9883 1048.93 42.9883H1016.35ZM1122.81 0.917969H1229.34V11.6992H1122.81V0.917969ZM1122.81 31.9727H1229.34V42.7539H1133.59V50.4883C1133.59 59.8633 1139.2 67.3438 1150.41 72.9297C1153.65 73.7891 1156.23 74.2188 1158.14 74.2188H1228.87V85H1156.86C1146.82 85 1137.77 80.1172 1129.73 70.3516C1125.12 63.8281 1122.81 57.5 1122.81 51.3672V31.9727ZM202.598 126.801H254.805C270 126.801 281.23 133.852 288.496 147.953C290.801 152.406 291.953 157.582 291.953 163.48V211H185.312V200.219H202.598V126.801ZM213.379 137.582V200.219H281.172V164.359C281.172 151.117 274.258 142.348 260.43 138.051C257.969 137.738 255.957 137.582 254.395 137.582H213.379ZM302.5 126.918H373.691C388.027 126.918 399.043 134.633 406.738 150.062C408.184 154.711 408.906 158.285 408.906 160.785V211H340.234C323.516 211 311.66 202.855 304.668 186.566C303.223 182.465 302.5 178.461 302.5 174.555V126.918ZM313.223 137.641V173.676C313.223 186.918 320.234 195.648 334.258 199.867C337.188 200.141 339.473 200.277 341.113 200.277H398.184V162.074C398.184 151.254 392.031 143.402 379.727 138.52C377.578 137.934 375.566 137.641 373.691 137.641H313.223ZM437.266 126.918H447.988V157.797H469.902C479.785 157.797 487.363 152.504 492.637 141.918C494.043 138.793 494.746 135.082 494.746 130.785V126.918H505.469V131.664C505.469 141.898 501.895 150.766 494.746 158.266C502.09 159.398 508.672 162.543 514.492 167.699C522.227 175.199 526.094 184.203 526.094 194.711V211H515.371V196.41C515.371 182.855 508.789 173.852 495.625 169.398C491.836 168.812 488.105 168.52 484.434 168.52H447.988V211H437.266V168.52H419.688V157.797H437.266V126.918ZM536.875 126.918H547.598V158.266H632.559V126.918H643.281V175.375C643.281 188.812 636.699 199.398 623.535 207.133C618.574 209.711 613.418 211 608.066 211H536.875V200.277H607.656C618.672 200.277 626.68 193.988 631.68 181.41C632.266 178.715 632.559 176.566 632.559 174.965V168.988H536.875V126.918ZM654.062 126.742H681.543C681.543 127.641 687.168 148.773 698.418 190.141H716.582C716.582 189.477 722.207 168.344 733.457 126.742H760.938V211H750.273V137.816H742.305C741.602 137.816 738.652 148.461 733.457 169.75C732.871 171.273 729.902 181.781 724.551 201.273H689.98L673.105 137.816H665.137V211H654.062V126.742ZM771.25 126.918H877.773V137.699H771.25V126.918ZM771.25 157.973H877.773V168.754H782.031V176.488C782.031 185.863 787.637 193.344 798.848 198.93C802.09 199.789 804.668 200.219 806.582 200.219H877.305V211H805.293C795.254 211 786.211 206.117 778.164 196.352C773.555 189.828 771.25 183.5 771.25 177.367V157.973ZM888.438 126.918H899.043V157.035H984.473V126.918H995.078V211H984.473V167.641H899.043V211H888.438V126.918ZM1005.62 126.918H1112.03V137.641H1064.39V210.121C1064.39 210.707 1064.1 211 1063.52 211H1053.67V137.641H1005.62V126.918ZM1122.81 126.918H1133.54V158.266H1167.87C1180.88 158.266 1191.31 164.555 1199.16 177.133C1202.01 182.406 1203.44 187.836 1203.44 193.422V211H1122.81V126.918ZM1218.5 126.918H1229.63V211H1218.5V126.918ZM1133.54 168.988V200.277H1192.71V193.832C1192.71 182.621 1186.29 174.613 1173.44 169.809C1171.13 169.262 1168.69 168.988 1166.11 168.988H1133.54Z" fill="white" fill-opacity="0.05"/>
<path d="M0.742188 0.917969V-5.49203H-5.66779V0.917969H0.742188ZM104.98 24.0625L111.101 22.1593L110.948 21.665L110.717 21.2017L104.98 24.0625ZM107.148 85V91.41H113.558V85H107.148ZM2.91016 60.5664L-3.1355 62.6968L-3.06445 62.8984L-2.9801 63.0948L2.91016 60.5664ZM11.4648 11.6406V5.23063H5.05487V11.6406H11.4648ZM32.5 73.8672L30.6534 80.0054L31.2667 80.1899L31.9043 80.2495L32.5 73.8672ZM96.4258 74.2773V80.6873H102.836V74.2773H96.4258ZM77.9688 12.5195L80.3331 6.5615L80.0005 6.42953L79.6553 6.3354L77.9688 12.5195ZM0.742188 7.32797H71.9336V-5.49203H0.742188V7.32797ZM71.9336 7.32797C77.8776 7.32797 82.9127 8.90278 87.2701 11.9545C91.6907 15.0505 95.7422 19.9013 99.2443 26.9233L110.717 21.2017C106.523 12.794 101.219 6.07254 94.6244 1.4537C87.9662 -3.20942 80.3256 -5.49203 71.9336 -5.49203V7.32797ZM98.8595 25.9657C100.258 30.465 100.738 33.2842 100.738 34.7852H113.558C113.558 31.2861 112.593 26.9569 111.101 22.1593L98.8595 25.9657ZM100.738 34.7852V85H113.558V34.7852H100.738ZM107.148 78.59H38.4766V91.41H107.148V78.59ZM38.4766 78.59C31.1968 78.59 25.3697 76.833 20.6755 73.6082C15.9559 70.3659 11.9297 65.328 8.80042 58.038L-2.9801 63.0948C0.882812 72.0939 6.2804 79.2727 13.4163 84.175C20.5776 89.0947 29.0376 91.41 38.4766 91.41V78.59ZM8.95581 58.436C7.72449 54.9419 7.15216 51.6579 7.15216 48.5547H-5.66779C-5.66779 53.2639 -4.7948 57.9878 -3.1355 62.6968L8.95581 58.436ZM7.15216 48.5547V0.917969H-5.66779V48.5547H7.15216ZM5.05487 11.6406V47.6758H17.8748V11.6406H5.05487ZM5.05487 47.6758C5.05487 55.4789 7.14606 62.4666 11.7259 68.1691C16.2596 73.8141 22.7788 77.6365 30.6534 80.0054L34.3466 67.7289C28.1978 65.8791 24.1994 63.2269 21.7214 60.1414C19.2895 57.1135 17.8748 53.1149 17.8748 47.6758H5.05487ZM31.9043 80.2495C34.9034 80.5294 37.4189 80.6873 39.3555 80.6873V67.8673C38.0108 67.8673 35.956 67.7519 33.0957 67.4849L31.9043 80.2495ZM39.3555 80.6873H96.4258V67.8673H39.3555V80.6873ZM102.836 74.2773V36.0742H90.0158V74.2773H102.836ZM102.836 36.0742C102.836 29.3601 100.894 23.2686 96.8571 18.1167C92.8875 13.0509 87.2062 9.28894 80.3331 6.5615L75.6044 18.4776C81.0359 20.6329 84.5832 23.2382 86.766 26.0239C88.8815 28.7236 90.0158 31.968 90.0158 36.0742H102.836ZM79.6553 6.3354C77.0569 5.62673 74.4731 5.23063 71.9336 5.23063V18.0506C73.144 18.0506 74.5837 18.2405 76.2822 18.7037L79.6553 6.3354ZM71.9336 5.23063H11.4648V18.0506H71.9336V5.23063ZM117.93 0.917969V-5.49203H111.52V0.917969H117.93ZM222.578 26.2305L228.691 24.3002L228.634 24.1199L228.566 23.9434L222.578 26.2305ZM224.336 54.1211V60.5311H230.746V54.1211H224.336ZM176.289 54.1211V47.7111H169.879V54.1211H176.289ZM176.289 85V91.41H182.699V85H176.289ZM165.566 85H159.156V91.41H165.566V85ZM165.566 54.1211H171.976V47.7111H165.566V54.1211ZM119.629 29.2188L113.498 31.0902L113.575 31.3423L113.673 31.5873L119.629 29.2188ZM128.652 11.6406V5.23063H122.242V11.6406H128.652ZM147.93 42.5195L145.621 48.4995L146.242 48.739L146.898 48.846L147.93 42.5195ZM165.566 43.3984V49.8084H171.976V43.3984H165.566ZM165.566 11.6406H171.976V5.23063H165.566V11.6406ZM176.289 11.6406V5.23063H169.879V11.6406H176.289ZM176.289 43.3984H169.879V49.8084H176.289V43.3984ZM213.613 43.3984V49.8084H220.023V43.3984H213.613ZM191.699 12.0508L193.293 5.84206L192.981 5.76211L192.664 5.71374L191.699 12.0508ZM117.93 7.32797H186.133V-5.49203H117.93V7.32797ZM186.133 7.32797C194.027 7.32797 200.181 9.18067 204.976 12.5109C209.777 15.8451 213.724 21.0149 216.59 28.5176L228.566 23.9434C224.987 14.5711 219.637 7.0846 212.289 1.98133C204.936 -3.12598 196.091 -5.49203 186.133 -5.49203V7.32797ZM216.466 28.1607C217.466 31.3284 217.926 34.2505 217.926 36.9531H230.746C230.746 32.7808 230.034 28.5544 228.691 24.3002L216.466 28.1607ZM217.926 36.9531V54.1211H230.746V36.9531H217.926ZM224.336 47.7111H176.289V60.5311H224.336V47.7111ZM169.879 54.1211V85H182.699V54.1211H169.879ZM176.289 78.59H165.566V91.41H176.289V78.59ZM171.976 85V54.1211H159.156V85H171.976ZM165.566 47.7111H156.543V60.5311H165.566V47.7111ZM156.543 47.7111C148.541 47.7111 142.279 45.8775 137.393 42.5816C132.511 39.2883 128.508 34.2011 125.585 26.8502L113.673 31.5873C117.351 40.838 122.801 48.202 130.224 53.2094C137.643 58.2143 146.537 60.5311 156.543 60.5311V47.7111ZM125.76 27.3473C124.789 24.1661 124.34 21.2238 124.34 18.4961H111.52C111.52 22.6434 112.204 26.8496 113.498 31.0902L125.76 27.3473ZM124.34 18.4961V0.917969H111.52V18.4961H124.34ZM122.242 11.6406V18.0859H135.062V11.6406H122.242ZM122.242 18.0859C122.242 25.0497 124.251 31.3516 128.439 36.6608C132.56 41.8841 138.465 45.7369 145.621 48.4995L150.238 36.5396C144.543 34.3412 140.809 31.6413 138.504 28.7201C136.267 25.8848 135.062 22.4503 135.062 18.0859H122.242ZM146.898 48.846C150.681 49.4628 154.06 49.8084 156.953 49.8084V36.9884C155.002 36.9884 152.366 36.7481 148.961 36.1931L146.898 48.846ZM156.953 49.8084H165.566V36.9884H156.953V49.8084ZM171.976 43.3984V11.6406H159.156V43.3984H171.976ZM165.566 5.23063H128.652V18.0506H165.566V5.23063ZM169.879 11.6406V43.3984H182.699V11.6406H169.879ZM176.289 49.8084H213.613V36.9884H176.289V49.8084ZM220.023 43.3984V38.6523H207.203V43.3984H220.023ZM220.023 38.6523C220.023 30.5078 217.873 23.2536 213.082 17.438C208.331 11.6709 201.504 7.94961 193.293 5.84206L190.106 18.2595C196.504 19.9019 200.634 22.4893 203.187 25.5893C205.701 28.6409 207.203 32.8125 207.203 38.6523H220.023ZM192.664 5.71374C190.491 5.38314 188.17 5.23063 185.723 5.23063V18.0506C187.65 18.0506 189.314 18.1716 190.735 18.3878L192.664 5.71374ZM185.723 5.23063H176.289V18.0506H185.723V5.23063ZM235.117 0.683594V-5.72641H228.707V0.683594H235.117ZM245.898 0.683594H252.308V-5.72641H245.898V0.683594ZM245.898 74.2188H239.488V80.6288H245.898V74.2188ZM260.078 74.2188V80.6288H263.02L264.938 78.3983L260.078 74.2188ZM310.82 0.683594V-5.72641H307.436L305.527 -2.93162L310.82 0.683594ZM342.227 0.683594H348.637V-5.72641H342.227V0.683594ZM342.227 85V91.41H348.637V85H342.227ZM331.035 85H324.625V91.41H331.035V85ZM331.035 11.4648H337.445V5.05484H331.035V11.4648ZM317.266 11.4648V5.05484H315.04L313.294 6.43374L317.266 11.4648ZM266.523 85V91.41H269.928L271.834 88.5896L266.523 85ZM235.117 85H228.707V91.41H235.117V85ZM235.117 7.09359H245.898V-5.72641H235.117V7.09359ZM239.488 0.683594V74.2188H252.308V0.683594H239.488ZM245.898 80.6288H260.078V67.8087H245.898V80.6288ZM264.938 78.3983C265.62 77.6048 267.233 75.3499 269.439 72.2092C271.779 68.8788 275.068 64.1433 279.299 58.0107C287.765 45.7419 300.038 27.8363 316.114 4.29881L305.527 -2.93162C289.454 20.6012 277.196 38.4866 268.748 50.7296C264.522 56.8528 261.258 61.5533 258.949 64.8392C257.794 66.4839 256.889 67.7587 256.227 68.6738C255.492 69.6905 255.215 70.0432 255.218 70.0392L264.938 78.3983ZM310.82 7.09359H342.227V-5.72641H310.82V7.09359ZM335.817 0.683594V85H348.637V0.683594H335.817ZM342.227 78.59H331.035V91.41H342.227V78.59ZM337.445 85V11.4648H324.625V85H337.445ZM331.035 5.05484H317.266V17.8748H331.035V5.05484ZM313.294 6.43374C312.6 6.98169 312.046 7.65851 311.885 7.85075C311.585 8.21002 311.247 8.64073 310.888 9.11212C310.163 10.0632 309.211 11.3637 308.048 12.9871C305.715 16.244 302.426 20.95 298.191 27.087C289.716 39.3689 277.388 57.4802 261.213 81.4104L271.834 88.5896C288.003 64.6682 300.304 46.5979 308.743 34.3681C312.965 28.2492 316.204 23.6168 318.47 20.4528C319.607 18.8658 320.473 17.6852 321.083 16.8846C321.392 16.4801 321.601 16.2173 321.728 16.0654C321.994 15.7465 321.746 16.0945 321.238 16.4959L313.294 6.43374ZM266.523 78.59H235.117V91.41H266.523V78.59ZM241.527 85V0.683594H228.707V85H241.527ZM352.305 0.917969V-5.49203H345.895V0.917969H352.305ZM362.676 0.917969H369.086V-5.49203H362.676V0.917969ZM362.676 74.6289H356.266V81.0389H362.676V74.6289ZM430.762 74.6289V81.0389H437.172V74.6289H430.762ZM430.762 0.917969V-5.49203H424.352V0.917969H430.762ZM441.133 0.917969H447.543V-5.49203H441.133V0.917969ZM441.133 74.6289H434.723V81.0389H441.133V74.6289ZM459.238 74.6289H465.648V68.2189H459.238V74.6289ZM459.238 85V91.41H465.648V85H459.238ZM352.305 85H345.895V91.41H352.305V85ZM352.305 7.32797H362.676V-5.49203H352.305V7.32797ZM356.266 0.917969V74.6289H369.086V0.917969H356.266ZM362.676 81.0389H430.762V68.2189H362.676V81.0389ZM437.172 74.6289V0.917969H424.352V74.6289H437.172ZM430.762 7.32797H441.133V-5.49203H430.762V7.32797ZM434.723 0.917969V74.6289H447.543V0.917969H434.723ZM441.133 81.0389H459.238V68.2189H441.133V81.0389ZM452.828 74.6289V85H465.648V74.6289H452.828ZM459.238 78.59H352.305V91.41H459.238V78.59ZM358.715 85V0.917969H345.895V85H358.715ZM469.492 0.683594V-5.72641H463.082V0.683594H469.492ZM480.273 0.683594H486.683V-5.72641H480.273V0.683594ZM480.273 74.2188H473.863V80.6288H480.273V74.2188ZM494.453 74.2188V80.6288H497.395L499.313 78.3983L494.453 74.2188ZM545.195 0.683594V-5.72641H541.811L539.902 -2.93162L545.195 0.683594ZM576.602 0.683594H583.012V-5.72641H576.602V0.683594ZM576.602 85V91.41H583.012V85H576.602ZM565.41 85H559V91.41H565.41V85ZM565.41 11.4648H571.82V5.05484H565.41V11.4648ZM551.641 11.4648V5.05484H549.415L547.669 6.43374L551.641 11.4648ZM500.898 85V91.41H504.303L506.209 88.5896L500.898 85ZM469.492 85H463.082V91.41H469.492V85ZM469.492 7.09359H480.273V-5.72641H469.492V7.09359ZM473.863 0.683594V74.2188H486.683V0.683594H473.863ZM480.273 80.6288H494.453V67.8087H480.273V80.6288ZM499.313 78.3983C499.995 77.6048 501.608 75.3499 503.814 72.2092C506.154 68.8788 509.443 64.1433 513.674 58.0107C522.14 45.7419 534.413 27.8363 550.489 4.29881L539.902 -2.93162C523.829 20.6012 511.571 38.4866 503.123 50.7296C498.897 56.8528 495.633 61.5533 493.324 64.8392C492.169 66.4839 491.264 67.7587 490.602 68.6738C489.867 69.6905 489.59 70.0432 489.593 70.0392L499.313 78.3983ZM545.195 7.09359H576.602V-5.72641H545.195V7.09359ZM570.192 0.683594V85H583.012V0.683594H570.192ZM576.602 78.59H565.41V91.41H576.602V78.59ZM571.82 85V11.4648H559V85H571.82ZM565.41 5.05484H551.641V17.8748H565.41V5.05484ZM547.669 6.43374C546.975 6.98169 546.421 7.65851 546.26 7.85075C545.96 8.21002 545.623 8.64073 545.263 9.11212C544.538 10.0632 543.586 11.3637 542.423 12.9871C540.09 16.244 536.801 20.95 532.566 27.087C524.091 39.3689 511.763 57.4802 495.588 81.4104L506.209 88.5896C522.378 64.6682 534.679 46.5979 543.118 34.3681C547.34 28.2492 550.579 23.6168 552.845 20.4528C553.982 18.8658 554.848 17.6852 555.458 16.8846C555.767 16.4801 555.976 16.2173 556.103 16.0654C556.369 15.7465 556.121 16.0945 555.613 16.4959L547.669 6.43374ZM500.898 78.59H469.492V91.41H500.898V78.59ZM475.902 85V0.683594H463.082V85H475.902ZM693.262 1.09375H699.672V-5.31625H693.262V1.09375ZM693.262 11.8164V18.2264H699.672V11.8164H693.262ZM598.223 29.8047L592.383 27.1608L591.813 28.4212V29.8047H598.223ZM597.812 31.9141L592.276 28.6842L586.652 38.3241H597.812V31.9141ZM692.441 31.9141L693.348 25.5685L692.897 25.5041H692.441V31.9141ZM693.262 85V91.41H699.672V85H693.262ZM682.598 85H676.188V91.41H682.598V85ZM682.598 42.6367H689.008V36.2267H682.598V42.6367ZM597.402 42.6367V36.2267H590.992V42.6367H597.402ZM597.402 85V91.41H603.812V85H597.402ZM586.68 85H580.27V91.41H586.68V85ZM610.234 3.26172L608.207 -2.81934L607.837 -2.69574L607.484 -2.52801L610.234 3.26172ZM620.898 7.50375H693.262V-5.31625H620.898V7.50375ZM686.852 1.09375V11.8164H699.672V1.09375H686.852ZM693.262 5.40641H621.777V18.2264H693.262V5.40641ZM621.777 5.40641C615.295 5.40641 609.383 7.33185 604.293 11.2191C599.292 15.0386 595.396 20.5079 592.383 27.1608L604.062 32.4486C606.479 27.1092 609.224 23.5845 612.074 21.4078C614.835 19.299 617.986 18.2264 621.777 18.2264V5.40641ZM591.813 29.8047C591.813 29.9808 591.798 29.9645 591.828 29.8117C591.856 29.6695 591.955 29.2345 592.276 28.6842L603.349 35.1439C604.473 33.218 604.633 31.1555 604.633 29.8047H591.813ZM597.812 38.3241H692.441V25.5041H597.812V38.3241ZM691.535 38.2596C690.903 38.1694 689.551 37.8305 688.371 36.566C687.126 35.2323 686.852 33.7113 686.852 32.793H699.672C699.672 31.3668 699.261 29.4454 697.743 27.8187C696.289 26.2613 694.527 25.7369 693.348 25.5685L691.535 38.2596ZM686.852 32.793V85H699.672V32.793H686.852ZM693.262 78.59H682.598V91.41H693.262V78.59ZM689.008 85V42.6367H676.188V85H689.008ZM682.598 36.2267H597.402V49.0467H682.598V36.2267ZM590.992 42.6367V85H603.812V42.6367H590.992ZM597.402 78.59H586.68V91.41H597.402V78.59ZM593.09 85V37.0703H580.27V85H593.09ZM593.09 37.0703C593.09 30.7074 594.724 25.4284 597.828 20.9738C600.968 16.4661 605.877 12.4286 612.985 9.05145L607.484 -2.52801C598.888 1.55582 592.02 6.88353 587.309 13.6453C582.561 20.4603 580.27 28.3551 580.27 37.0703H593.09ZM612.261 9.34278C616.309 7.99341 619.115 7.50375 620.898 7.50375V-5.31625C617.135 -5.31625 612.831 -4.3606 608.207 -2.81934L612.261 9.34278ZM759.766 0.683594L765.996 -0.823133L764.81 -5.72641H759.766V0.683594ZM780.156 85V91.41H788.301L786.387 83.4933L780.156 85ZM761.992 55.293L768.259 53.9457L768.21 53.7183L768.145 53.4951L761.992 55.293ZM751.328 11.8164L757.571 10.3619L756.416 5.40641H751.328V11.8164ZM732.695 11.8164V5.40641H727.635L726.46 10.3288L732.695 11.8164ZM714.941 85V91.41H719.783L721.107 86.7535L714.941 85ZM703.867 85L697.637 83.4933L695.722 91.41H703.867V85ZM724.258 0.683594V-5.72641H719.213L718.027 -0.823133L724.258 0.683594ZM753.535 2.19032L773.926 86.5067L786.387 83.4933L765.996 -0.823133L753.535 2.19032ZM780.156 78.59H769.551V91.41H780.156V78.59ZM769.551 78.59C771.253 78.59 772.49 79.2617 773.132 79.7085C773.778 80.1575 774.183 80.6237 774.373 80.8593C774.749 81.3256 774.925 81.7003 774.93 81.7101C774.971 81.7946 774.9 81.6572 774.72 81.1163C774.383 80.1056 773.908 78.4311 773.287 75.9927C772.058 71.1615 770.384 63.8299 768.259 53.9457L755.725 56.6403C757.858 66.5608 759.573 74.0826 760.863 79.1538C761.502 81.6665 762.07 83.7054 762.558 85.1703C762.79 85.8673 763.077 86.6582 763.423 87.3615C763.58 87.6808 763.894 88.2876 764.395 88.9086C764.647 89.2216 765.111 89.7458 765.812 90.2334C766.511 90.7189 767.8 91.41 769.551 91.41V78.59ZM768.145 53.4951C766.448 47.6867 762.936 33.388 757.571 10.3619L745.085 13.2709C750.424 36.1824 754.021 50.868 755.839 57.0908L768.145 53.4951ZM751.328 5.40641H732.695V18.2264H751.328V5.40641ZM726.46 10.3288C715.807 54.9782 709.938 79.1622 708.776 83.2465L721.107 86.7535C722.367 82.3222 728.333 57.7171 738.93 13.3041L726.46 10.3288ZM714.941 78.59H703.867V91.41H714.941V78.59ZM710.098 86.5067L730.488 2.19032L718.027 -0.823133L697.637 83.4933L710.098 86.5067ZM724.258 7.09359H759.766V-5.72641H724.258V7.09359ZM788.828 0.683594V-5.72641H782.418V0.683594H788.828ZM799.609 0.683594H806.019V-5.72641H799.609V0.683594ZM799.609 32.0898H793.199V38.4998H799.609V32.0898ZM873.555 51.0156L879.176 47.9345L879.087 47.773L878.989 47.6168L873.555 51.0156ZM877.891 85V91.41H884.301V85H877.891ZM788.828 85H782.418V91.41H788.828V85ZM799.609 42.8711V36.4611H793.199V42.8711H799.609ZM799.609 74.2188H793.199V80.6288H799.609V74.2188ZM867.109 74.2188V80.6288H873.519V74.2188H867.109ZM847.773 43.6914L850.028 37.691L849.648 37.5483L849.253 37.4546L847.773 43.6914ZM788.828 7.09359H799.609V-5.72641H788.828V7.09359ZM793.199 0.683594V32.0898H806.019V0.683594H793.199ZM799.609 38.4998H842.148V25.6798H799.609V38.4998ZM842.148 38.4998C852.642 38.4998 861.206 43.3594 868.12 54.4144L878.989 47.6168C870.122 33.4375 857.749 25.6798 842.148 25.6798V38.4998ZM867.934 54.0967C870.344 58.493 871.481 62.8895 871.481 67.3633H884.301C884.301 60.5871 882.547 54.0851 879.176 47.9345L867.934 54.0967ZM871.481 67.3633V85H884.301V67.3633H871.481ZM877.891 78.59H788.828V91.41H877.891V78.59ZM795.238 85V0.683594H782.418V85H795.238ZM793.199 42.8711V74.2188H806.019V42.8711H793.199ZM799.609 80.6288H867.109V67.8087H799.609V80.6288ZM873.519 74.2188V67.7734H860.699V74.2188H873.519ZM873.519 67.7734C873.519 60.8472 871.493 54.5868 867.274 49.3315C863.128 44.1679 857.198 40.3851 850.028 37.691L845.519 49.6918C851.24 51.8414 854.978 54.4942 857.277 57.3579C859.503 60.13 860.699 63.4887 860.699 67.7734H873.519ZM849.253 37.4546C846.423 36.783 843.482 36.4611 840.449 36.4611V49.2811C842.573 49.2811 844.514 49.5061 846.293 49.9282L849.253 37.4546ZM840.449 36.4611H799.609V49.2811H840.449V36.4611ZM888.438 0.917969V-5.49203H882.027V0.917969H888.438ZM899.043 0.917969H905.453V-5.49203H899.043V0.917969ZM899.043 31.0352H892.633V37.4452H899.043V31.0352ZM984.473 31.0352V37.4452H990.883V31.0352H984.473ZM984.473 0.917969V-5.49203H978.063V0.917969H984.473ZM995.078 0.917969H1001.49V-5.49203H995.078V0.917969ZM995.078 85V91.41H1001.49V85H995.078ZM984.473 85H978.063V91.41H984.473V85ZM984.473 41.6406H990.883V35.2306H984.473V41.6406ZM899.043 41.6406V35.2306H892.633V41.6406H899.043ZM899.043 85V91.41H905.453V85H899.043ZM888.438 85H882.027V91.41H888.438V85ZM888.438 7.32797H899.043V-5.49203H888.438V7.32797ZM892.633 0.917969V31.0352H905.453V0.917969H892.633ZM899.043 37.4452H984.473V24.6252H899.043V37.4452ZM990.883 31.0352V0.917969H978.063V31.0352H990.883ZM984.473 7.32797H995.078V-5.49203H984.473V7.32797ZM988.668 0.917969V85H1001.49V0.917969H988.668ZM995.078 78.59H984.473V91.41H995.078V78.59ZM990.883 85V41.6406H978.063V85H990.883ZM984.473 35.2306H899.043V48.0506H984.473V35.2306ZM892.633 41.6406V85H905.453V41.6406H892.633ZM899.043 78.59H888.438V91.41H899.043V78.59ZM894.848 85V0.917969H882.027V85H894.848ZM1005.62 0.917969V-5.49203H999.215V0.917969H1005.62ZM1016.35 0.917969H1022.76V-5.49203H1016.35V0.917969ZM1016.35 32.2656H1009.94V38.6756H1016.35V32.2656ZM1081.97 51.1328L1087.61 48.0839L1087.52 47.9081L1087.41 47.7386L1081.97 51.1328ZM1086.25 85V91.41H1092.66V85H1086.25ZM1005.62 85H999.215V91.41H1005.62V85ZM1101.31 0.917969V-5.49203H1094.9V0.917969H1101.31ZM1112.44 0.917969H1118.85V-5.49203H1112.44V0.917969ZM1112.44 85V91.41H1118.85V85H1112.44ZM1101.31 85H1094.9V91.41H1101.31V85ZM1016.35 42.9883V36.5783H1009.94V42.9883H1016.35ZM1016.35 74.2773H1009.94V80.6873H1016.35V74.2773ZM1075.53 74.2773V80.6873H1081.94V74.2773H1075.53ZM1056.25 43.8086L1058.49 37.8045L1058.12 37.6642L1057.73 37.5718L1056.25 43.8086ZM1005.62 7.32797H1016.35V-5.49203H1005.62V7.32797ZM1009.94 0.917969V32.2656H1022.76V0.917969H1009.94ZM1016.35 38.6756H1050.68V25.8556H1016.35V38.6756ZM1050.68 38.6756C1061.14 38.6756 1069.66 43.5146 1076.54 54.5271L1087.41 47.7386C1078.58 33.5947 1066.25 25.8556 1050.68 25.8556V38.6756ZM1076.33 54.1817C1078.72 58.5893 1079.84 62.978 1079.84 67.4219H1092.66C1092.66 60.6939 1090.93 54.2232 1087.61 48.0839L1076.33 54.1817ZM1079.84 67.4219V85H1092.66V67.4219H1079.84ZM1086.25 78.59H1005.62V91.41H1086.25V78.59ZM1012.04 85V0.917969H999.215V85H1012.04ZM1101.31 7.32797H1112.44V-5.49203H1101.31V7.32797ZM1106.03 0.917969V85H1118.85V0.917969H1106.03ZM1112.44 78.59H1101.31V91.41H1112.44V78.59ZM1107.72 85V0.917969H1094.9V85H1107.72ZM1009.94 42.9883V74.2773H1022.76V42.9883H1009.94ZM1016.35 80.6873H1075.53V67.8673H1016.35V80.6873ZM1081.94 74.2773V67.832H1069.12V74.2773H1081.94ZM1081.94 67.832C1081.94 60.9108 1079.92 54.6547 1075.71 49.4062C1071.57 44.2485 1065.65 40.4793 1058.49 37.8045L1054.01 49.8127C1059.7 51.9426 1063.42 54.5796 1065.71 57.4297C1067.92 60.1891 1069.12 63.5423 1069.12 67.832H1081.94ZM1057.73 37.5718C1054.9 36.9002 1051.96 36.5783 1048.93 36.5783V49.3983C1051.05 49.3983 1052.99 49.6232 1054.77 50.0454L1057.73 37.5718ZM1048.93 36.5783H1016.35V49.3983H1048.93V36.5783ZM1122.81 0.917969V-5.49203H1116.4V0.917969H1122.81ZM1229.34 0.917969H1235.75V-5.49203H1229.34V0.917969ZM1229.34 11.6992V18.1092H1235.75V11.6992H1229.34ZM1122.81 11.6992H1116.4V18.1092H1122.81V11.6992ZM1122.81 31.9727V25.5627H1116.4V31.9727H1122.81ZM1229.34 31.9727H1235.75V25.5627H1229.34V31.9727ZM1229.34 42.7539V49.1639H1235.75V42.7539H1229.34ZM1133.59 42.7539V36.3439H1127.18V42.7539H1133.59ZM1150.41 72.9297L1147.55 78.667L1148.14 78.9583L1148.77 79.1257L1150.41 72.9297ZM1228.87 74.2188H1235.28V67.8087H1228.87V74.2188ZM1228.87 85V91.41H1235.28V85H1228.87ZM1129.73 70.3516L1124.49 74.0506L1124.63 74.2445L1124.78 74.4278L1129.73 70.3516ZM1122.81 7.32797H1229.34V-5.49203H1122.81V7.32797ZM1222.93 0.917969V11.6992H1235.75V0.917969H1222.93ZM1229.34 5.28922H1122.81V18.1092H1229.34V5.28922ZM1129.22 11.6992V0.917969H1116.4V11.6992H1129.22ZM1122.81 38.3827H1229.34V25.5627H1122.81V38.3827ZM1222.93 31.9727V42.7539H1235.75V31.9727H1222.93ZM1229.34 36.3439H1133.59V49.1639H1229.34V36.3439ZM1127.18 42.7539V50.4883H1140V42.7539H1127.18ZM1127.18 50.4883C1127.18 63.122 1135.02 72.4229 1147.55 78.667L1153.27 67.1924C1143.38 62.2646 1140 56.6046 1140 50.4883H1127.18ZM1148.77 79.1257C1152.21 80.0378 1155.41 80.6288 1158.14 80.6288V67.8087C1157.05 67.8087 1155.1 67.5403 1152.05 66.7337L1148.77 79.1257ZM1158.14 80.6288H1228.87V67.8087H1158.14V80.6288ZM1222.46 74.2188V85H1235.28V74.2188H1222.46ZM1228.87 78.59H1156.86V91.41H1228.87V78.59ZM1156.86 78.59C1149.21 78.59 1141.85 74.9818 1134.67 66.2753L1124.78 74.4278C1133.7 85.2525 1144.42 91.41 1156.86 91.41V78.59ZM1134.96 66.6526C1130.89 60.8857 1129.22 55.8259 1129.22 51.3672H1116.4C1116.4 59.1741 1119.35 66.7705 1124.49 74.0506L1134.96 66.6526ZM1129.22 51.3672V31.9727H1116.4V51.3672H1129.22ZM202.598 126.801V120.391H196.188V126.801H202.598ZM288.496 147.953L282.798 150.889L282.803 150.899L288.496 147.953ZM291.953 211V217.41H298.363V211H291.953ZM185.312 211H178.903V217.41H185.312V211ZM185.312 200.219V193.809H178.903V200.219H185.312ZM202.598 200.219V206.629H209.008V200.219H202.598ZM213.379 137.582V131.172H206.969V137.582H213.379ZM213.379 200.219H206.969V206.629H213.379V200.219ZM281.172 200.219V206.629H287.582V200.219H281.172ZM260.43 138.051L262.332 131.929L261.795 131.763L261.237 131.692L260.43 138.051ZM202.598 133.211H254.805V120.391H202.598V133.211ZM254.805 133.211C261.377 133.211 266.764 134.723 271.216 137.518C275.683 140.322 279.588 144.658 282.798 150.889L294.194 145.017C290.139 137.147 284.796 130.906 278.032 126.66C271.253 122.404 263.428 120.391 254.805 120.391V133.211ZM282.803 150.899C284.56 154.294 285.543 158.427 285.543 163.48H298.363C298.363 156.737 297.041 150.518 294.189 145.007L282.803 150.899ZM285.543 163.48V211H298.363V163.48H285.543ZM291.953 204.59H185.312V217.41H291.953V204.59ZM191.722 211V200.219H178.903V211H191.722ZM185.312 206.629H202.598V193.809H185.312V206.629ZM209.008 200.219V126.801H196.188V200.219H209.008ZM206.969 137.582V200.219H219.789V137.582H206.969ZM213.379 206.629H281.172V193.809H213.379V206.629ZM287.582 200.219V164.359H274.762V200.219H287.582ZM287.582 164.359C287.582 156.576 285.527 149.598 281.02 143.882C276.553 138.216 270.119 134.349 262.332 131.929L258.528 144.172C264.569 146.049 268.505 148.715 270.953 151.819C273.36 154.873 274.762 158.9 274.762 164.359H287.582ZM261.237 131.692C258.644 131.363 256.336 131.172 254.395 131.172V143.992C255.578 143.992 257.293 144.114 259.622 144.41L261.237 131.692ZM254.395 131.172H213.379V143.992H254.395V131.172ZM302.5 126.918V120.508H296.09V126.918H302.5ZM406.738 150.062L412.859 148.159L412.706 147.665L412.474 147.202L406.738 150.062ZM408.906 211V217.41H415.316V211H408.906ZM304.668 186.566L298.622 188.697L298.693 188.898L298.778 189.095L304.668 186.566ZM313.223 137.641V131.231H306.813V137.641H313.223ZM334.258 199.867L332.411 206.005L333.024 206.19L333.662 206.249L334.258 199.867ZM398.184 200.277V206.687H404.594V200.277H398.184ZM379.727 138.52L382.091 132.561L381.758 132.43L381.413 132.335L379.727 138.52ZM302.5 133.328H373.691V120.508H302.5V133.328ZM373.691 133.328C379.635 133.328 384.671 134.903 389.028 137.954C393.449 141.051 397.5 145.901 401.002 152.923L412.474 147.202C408.281 138.794 402.977 132.073 396.382 127.454C389.724 122.791 382.083 120.508 373.691 120.508V133.328ZM400.617 151.966C402.016 156.465 402.496 159.284 402.496 160.785H415.316C415.316 157.286 414.351 152.957 412.859 148.159L400.617 151.966ZM402.496 160.785V211H415.316V160.785H402.496ZM408.906 204.59H340.234V217.41H408.906V204.59ZM340.234 204.59C332.955 204.59 327.128 202.833 322.433 199.608C317.714 196.366 313.688 191.328 310.558 184.038L298.778 189.095C302.641 198.094 308.038 205.273 315.174 210.175C322.335 215.095 330.795 217.41 340.234 217.41V204.59ZM310.714 184.436C309.482 180.942 308.91 177.658 308.91 174.555H296.09C296.09 179.264 296.963 183.988 298.622 188.697L310.714 184.436ZM308.91 174.555V126.918H296.09V174.555H308.91ZM306.813 137.641V173.676H319.633V137.641H306.813ZM306.813 173.676C306.813 181.479 308.904 188.467 313.484 194.169C318.017 199.814 324.537 203.636 332.411 206.005L336.104 193.729C329.956 191.879 325.957 189.227 323.479 186.141C321.047 183.113 319.633 179.115 319.633 173.676H306.813ZM333.662 206.249C336.661 206.529 339.177 206.687 341.113 206.687V193.867C339.769 193.867 337.714 193.752 334.854 193.485L333.662 206.249ZM341.113 206.687H398.184V193.867H341.113V206.687ZM404.594 200.277V162.074H391.774V200.277H404.594ZM404.594 162.074C404.594 155.36 402.652 149.269 398.615 144.117C394.645 139.051 388.964 135.289 382.091 132.561L377.362 144.478C382.794 146.633 386.341 149.238 388.524 152.024C390.639 154.724 391.774 157.968 391.774 162.074H404.594ZM381.413 132.335C378.815 131.627 376.231 131.231 373.691 131.231V144.051C374.902 144.051 376.342 144.24 378.04 144.704L381.413 132.335ZM373.691 131.231H313.223V144.051H373.691V131.231ZM437.266 126.918V120.508H430.856V126.918H437.266ZM447.988 126.918H454.398V120.508H447.988V126.918ZM447.988 157.797H441.578V164.207H447.988V157.797ZM492.637 141.918L498.374 144.776L498.43 144.663L498.482 144.548L492.637 141.918ZM494.746 126.918V120.508H488.336V126.918H494.746ZM505.469 126.918H511.879V120.508H505.469V126.918ZM494.746 158.266L490.106 153.843L481.637 162.729L493.769 164.601L494.746 158.266ZM514.492 167.699L518.954 163.097L518.851 162.997L518.743 162.901L514.492 167.699ZM526.094 211V217.41H532.504V211H526.094ZM515.371 211H508.961V217.41H515.371V211ZM495.625 169.398L497.679 163.326L497.153 163.149L496.605 163.064L495.625 169.398ZM447.988 168.52V162.11H441.578V168.52H447.988ZM447.988 211V217.41H454.398V211H447.988ZM437.266 211H430.856V217.41H437.266V211ZM437.266 168.52H443.676V162.11H437.266V168.52ZM419.688 168.52H413.278V174.93H419.688V168.52ZM419.688 157.797V151.387H413.278V157.797H419.688ZM437.266 157.797V164.207H443.676V157.797H437.266ZM437.266 133.328H447.988V120.508H437.266V133.328ZM441.578 126.918V157.797H454.398V126.918H441.578ZM447.988 164.207H469.902V151.387H447.988V164.207ZM469.902 164.207C476.061 164.207 481.727 162.534 486.668 159.082C491.548 155.674 495.39 150.767 498.374 144.776L486.899 139.06C484.61 143.655 482.026 146.687 479.328 148.572C476.691 150.414 473.627 151.387 469.902 151.387V164.207ZM498.482 144.548C500.342 140.415 501.156 135.766 501.156 130.785H488.336C488.336 134.398 487.744 137.171 486.791 139.288L498.482 144.548ZM501.156 130.785V126.918H488.336V130.785H501.156ZM494.746 133.328H505.469V120.508H494.746V133.328ZM499.059 126.918V131.664H511.879V126.918H499.059ZM499.059 131.664C499.059 140.229 496.134 147.519 490.106 153.843L499.386 162.688C507.655 154.012 511.879 143.568 511.879 131.664H499.059ZM493.769 164.601C499.839 165.537 505.297 168.117 510.242 172.497L518.743 162.901C512.047 156.969 504.341 153.26 495.723 151.931L493.769 164.601ZM510.03 172.301C516.555 178.628 519.684 185.986 519.684 194.711H532.504C532.504 182.42 527.898 171.77 518.954 163.097L510.03 172.301ZM519.684 194.711V211H532.504V194.711H519.684ZM526.094 204.59H515.371V217.41H526.094V204.59ZM521.781 211V196.41H508.961V211H521.781ZM521.781 196.41C521.781 188.572 519.863 181.527 515.609 175.708C511.365 169.903 505.202 165.871 497.679 163.326L493.571 175.47C499.212 177.379 502.922 180.076 505.26 183.274C507.588 186.459 508.961 190.694 508.961 196.41H521.781ZM496.605 163.064C492.506 162.43 488.448 162.11 484.434 162.11V174.93C487.763 174.93 491.166 175.195 494.645 175.733L496.605 163.064ZM484.434 162.11H447.988V174.93H484.434V162.11ZM441.578 168.52V211H454.398V168.52H441.578ZM447.988 204.59H437.266V217.41H447.988V204.59ZM443.676 211V168.52H430.856V211H443.676ZM437.266 162.11H419.688V174.93H437.266V162.11ZM426.098 168.52V157.797H413.278V168.52H426.098ZM419.688 164.207H437.266V151.387H419.688V164.207ZM443.676 157.797V126.918H430.856V157.797H443.676ZM536.875 126.918V120.508H530.465V126.918H536.875ZM547.598 126.918H554.008V120.508H547.598V126.918ZM547.598 158.266H541.188V164.676H547.598V158.266ZM632.559 158.266V164.676H638.969V158.266H632.559ZM632.559 126.918V120.508H626.149V126.918H632.559ZM643.281 126.918H649.691V120.508H643.281V126.918ZM623.535 207.133L626.491 212.821L626.639 212.744L626.782 212.66L623.535 207.133ZM536.875 211H530.465V217.41H536.875V211ZM536.875 200.277V193.867H530.465V200.277H536.875ZM631.68 181.41L637.636 183.778L637.831 183.288L637.943 182.772L631.68 181.41ZM632.559 168.988H638.969V162.578H632.559V168.988ZM536.875 168.988H530.465V175.398H536.875V168.988ZM536.875 133.328H547.598V120.508H536.875V133.328ZM541.188 126.918V158.266H554.008V126.918H541.188ZM547.598 164.676H632.559V151.856H547.598V164.676ZM638.969 158.266V126.918H626.149V158.266H638.969ZM632.559 133.328H643.281V120.508H632.559V133.328ZM636.871 126.918V175.375H649.691V126.918H636.871ZM636.871 175.375C636.871 186.192 631.812 194.835 620.288 201.606L626.782 212.66C641.586 203.962 649.691 191.433 649.691 175.375H636.871ZM620.579 201.445C616.489 203.571 612.343 204.59 608.066 204.59V217.41C614.493 217.41 620.659 215.851 626.491 212.821L620.579 201.445ZM608.066 204.59H536.875V217.41H608.066V204.59ZM543.285 211V200.277H530.465V211H543.285ZM536.875 206.687H607.656V193.867H536.875V206.687ZM607.656 206.687C614.474 206.687 620.655 204.707 625.883 200.602C631.023 196.565 634.852 190.783 637.636 183.778L625.723 179.042C623.508 184.615 620.832 188.268 617.965 190.519C615.185 192.703 611.854 193.867 607.656 193.867V206.687ZM637.943 182.772C638.568 179.9 638.969 177.237 638.969 174.965H626.149C626.149 175.896 625.964 177.529 625.416 180.048L637.943 182.772ZM638.969 174.965V168.988H626.149V174.965H638.969ZM632.559 162.578H536.875V175.398H632.559V162.578ZM543.285 168.988V126.918H530.465V168.988H543.285ZM654.062 126.742V120.332H647.652V126.742H654.062ZM681.543 126.742H687.953V120.332H681.543V126.742ZM698.418 190.141L692.233 191.823L693.518 196.551H698.418V190.141ZM716.582 190.141V196.551H722.992V190.141H716.582ZM733.457 126.742V120.332H728.55L727.269 125.069L733.457 126.742ZM760.938 126.742H767.348V120.332H760.938V126.742ZM760.938 211V217.41H767.348V211H760.938ZM750.273 211H743.863V217.41H750.273V211ZM750.273 137.816H756.683V131.406H750.273V137.816ZM733.457 169.75L739.44 172.051L739.587 171.668L739.684 171.27L733.457 169.75ZM724.551 201.273V207.683H729.438L730.732 202.971L724.551 201.273ZM689.98 201.273L683.786 202.921L685.052 207.683H689.98V201.273ZM673.105 137.816L679.3 136.169L678.034 131.406H673.105V137.816ZM665.137 137.816V131.406H658.727V137.816H665.137ZM665.137 211V217.41H671.547V211H665.137ZM654.062 211H647.652V217.41H654.062V211ZM654.062 133.152H681.543V120.332H654.062V133.152ZM675.133 126.742C675.133 127.344 675.222 127.852 675.232 127.914C675.263 128.104 675.299 128.287 675.33 128.436C675.392 128.741 675.475 129.105 675.568 129.5C675.757 130.302 676.032 131.407 676.387 132.796C677.098 135.582 678.16 139.626 679.567 144.914C682.385 155.498 686.607 171.136 692.233 191.823L704.603 188.458C698.979 167.778 694.764 152.166 691.956 141.617C690.551 136.339 689.503 132.346 688.808 129.624C688.46 128.259 688.208 127.242 688.045 126.555C687.963 126.206 687.913 125.983 687.888 125.86C687.797 125.416 687.953 126.003 687.953 126.742H675.133ZM698.418 196.551H716.582V183.731H698.418V196.551ZM722.992 190.141C722.992 190.575 722.945 190.906 722.939 190.951C722.924 191.06 722.91 191.137 722.906 191.159C722.897 191.207 722.896 191.211 722.911 191.143C722.938 191.015 722.99 190.791 723.074 190.447C723.239 189.769 723.494 188.76 723.843 187.406C724.54 184.706 725.59 180.721 726.995 175.442C729.804 164.888 734.02 149.214 739.645 128.415L727.269 125.069C721.644 145.872 717.422 161.565 714.606 172.144C713.199 177.431 712.139 181.454 711.43 184.203C711.076 185.574 710.804 186.65 710.617 187.417C710.525 187.795 710.445 188.134 710.385 188.41C710.356 188.543 710.322 188.708 710.291 188.877C710.276 188.961 710.254 189.088 710.234 189.238C710.222 189.324 710.172 189.686 710.172 190.141H722.992ZM733.457 133.152H760.938V120.332H733.457V133.152ZM754.527 126.742V211H767.348V126.742H754.527ZM760.938 204.59H750.273V217.41H760.938V204.59ZM756.683 211V137.816H743.863V211H756.683ZM750.273 131.406H742.305V144.226H750.273V131.406ZM742.305 131.406C740.257 131.406 738.853 132.349 738.263 132.815C737.617 133.324 737.201 133.849 736.993 134.13C736.566 134.706 736.288 135.265 736.146 135.564C735.83 136.23 735.543 137.004 735.293 137.732C734.772 139.251 734.134 141.397 733.388 144.088C731.886 149.509 729.831 157.571 727.23 168.23L739.684 171.27C742.278 160.64 744.295 152.735 745.743 147.511C746.472 144.88 747.027 143.035 747.419 141.893C747.626 141.29 747.726 141.066 747.725 141.067C747.718 141.082 747.687 141.146 747.633 141.243C747.583 141.331 747.474 141.518 747.301 141.752C747.154 141.95 746.795 142.413 746.202 142.881C745.664 143.305 744.308 144.226 742.305 144.226V131.406ZM727.474 167.449C727.045 168.565 726.052 171.971 724.622 177.031C723.132 182.308 721.047 189.826 718.37 199.576L730.732 202.971C733.406 193.229 735.482 185.747 736.96 180.516C737.699 177.899 738.284 175.861 738.718 174.393C738.935 173.658 739.109 173.084 739.242 172.66C739.39 172.188 739.447 172.032 739.44 172.051L727.474 167.449ZM724.551 194.863H689.98V207.683H724.551V194.863ZM696.175 199.626L679.3 136.169L666.911 139.464L683.786 202.921L696.175 199.626ZM673.105 131.406H665.137V144.226H673.105V131.406ZM658.727 137.816V211H671.547V137.816H658.727ZM665.137 204.59H654.062V217.41H665.137V204.59ZM660.473 211V126.742H647.652V211H660.473ZM771.25 126.918V120.508H764.84V126.918H771.25ZM877.773 126.918H884.183V120.508H877.773V126.918ZM877.773 137.699V144.109H884.183V137.699H877.773ZM771.25 137.699H764.84V144.109H771.25V137.699ZM771.25 157.973V151.563H764.84V157.973H771.25ZM877.773 157.973H884.183V151.563H877.773V157.973ZM877.773 168.754V175.164H884.183V168.754H877.773ZM782.031 168.754V162.344H775.621V168.754H782.031ZM798.848 198.93L795.989 204.667L796.574 204.958L797.205 205.126L798.848 198.93ZM877.305 200.219H883.715V193.809H877.305V200.219ZM877.305 211V217.41H883.715V211H877.305ZM778.164 196.352L772.929 200.051L773.066 200.245L773.217 200.428L778.164 196.352ZM771.25 133.328H877.773V120.508H771.25V133.328ZM871.363 126.918V137.699H884.183V126.918H871.363ZM877.773 131.289H771.25V144.109H877.773V131.289ZM777.66 137.699V126.918H764.84V137.699H777.66ZM771.25 164.383H877.773V151.563H771.25V164.383ZM871.363 157.973V168.754H884.183V157.973H871.363ZM877.773 162.344H782.031V175.164H877.773V162.344ZM775.621 168.754V176.488H788.441V168.754H775.621ZM775.621 176.488C775.621 189.122 783.457 198.423 795.989 204.667L801.706 193.192C791.816 188.265 788.441 182.605 788.441 176.488H775.621ZM797.205 205.126C800.646 206.038 803.849 206.629 806.582 206.629V193.809C805.487 193.809 803.533 193.54 800.49 192.734L797.205 205.126ZM806.582 206.629H877.305V193.809H806.582V206.629ZM870.895 200.219V211H883.715V200.219H870.895ZM877.305 204.59H805.293V217.41H877.305V204.59ZM805.293 204.59C797.652 204.59 790.285 200.982 783.111 192.275L773.217 200.428C782.137 211.253 792.856 217.41 805.293 217.41V204.59ZM783.399 192.653C779.324 186.886 777.66 181.826 777.66 177.367H764.84C764.84 185.174 767.785 192.771 772.929 200.051L783.399 192.653ZM777.66 177.367V157.973H764.84V177.367H777.66ZM888.438 126.918V120.508H882.027V126.918H888.438ZM899.043 126.918H905.453V120.508H899.043V126.918ZM899.043 157.035H892.633V163.445H899.043V157.035ZM984.473 157.035V163.445H990.883V157.035H984.473ZM984.473 126.918V120.508H978.063V126.918H984.473ZM995.078 126.918H1001.49V120.508H995.078V126.918ZM995.078 211V217.41H1001.49V211H995.078ZM984.473 211H978.063V217.41H984.473V211ZM984.473 167.641H990.883V161.231H984.473V167.641ZM899.043 167.641V161.231H892.633V167.641H899.043ZM899.043 211V217.41H905.453V211H899.043ZM888.438 211H882.027V217.41H888.438V211ZM888.438 133.328H899.043V120.508H888.438V133.328ZM892.633 126.918V157.035H905.453V126.918H892.633ZM899.043 163.445H984.473V150.625H899.043V163.445ZM990.883 157.035V126.918H978.063V157.035H990.883ZM984.473 133.328H995.078V120.508H984.473V133.328ZM988.668 126.918V211H1001.49V126.918H988.668ZM995.078 204.59H984.473V217.41H995.078V204.59ZM990.883 211V167.641H978.063V211H990.883ZM984.473 161.231H899.043V174.051H984.473V161.231ZM892.633 167.641V211H905.453V167.641H892.633ZM899.043 204.59H888.438V217.41H899.043V204.59ZM894.848 211V126.918H882.027V211H894.848ZM1005.62 126.918V120.508H999.215V126.918H1005.62ZM1112.03 126.918H1118.44V120.508H1112.03V126.918ZM1112.03 137.641V144.051H1118.44V137.641H1112.03ZM1064.39 137.641V131.231H1057.98V137.641H1064.39ZM1053.67 211H1047.26V217.41H1053.67V211ZM1053.67 137.641H1060.08V131.231H1053.67V137.641ZM1005.62 137.641H999.215V144.051H1005.62V137.641ZM1005.62 133.328H1112.03V120.508H1005.62V133.328ZM1105.62 126.918V137.641H1118.44V126.918H1105.62ZM1112.03 131.231H1064.39V144.051H1112.03V131.231ZM1057.98 137.641V210.121H1070.8V137.641H1057.98ZM1057.98 210.121C1057.98 209.426 1058.16 207.727 1059.64 206.248C1061.12 204.768 1062.82 204.59 1063.52 204.59V217.41C1064.8 217.41 1066.93 217.085 1068.71 215.313C1070.48 213.54 1070.8 211.402 1070.8 210.121H1057.98ZM1063.52 204.59H1053.67V217.41H1063.52V204.59ZM1060.08 211V137.641H1047.26V211H1060.08ZM1053.67 131.231H1005.62V144.051H1053.67V131.231ZM1012.04 137.641V126.918H999.215V137.641H1012.04ZM1122.81 126.918V120.508H1116.4V126.918H1122.81ZM1133.54 126.918H1139.95V120.508H1133.54V126.918ZM1133.54 158.266H1127.13V164.676H1133.54V158.266ZM1199.16 177.133L1204.8 174.084L1204.7 173.908L1204.6 173.739L1199.16 177.133ZM1203.44 211V217.41H1209.85V211H1203.44ZM1122.81 211H1116.4V217.41H1122.81V211ZM1218.5 126.918V120.508H1212.09V126.918H1218.5ZM1229.63 126.918H1236.04V120.508H1229.63V126.918ZM1229.63 211V217.41H1236.04V211H1229.63ZM1218.5 211H1212.09V217.41H1218.5V211ZM1133.54 168.988V162.578H1127.13V168.988H1133.54ZM1133.54 200.277H1127.13V206.687H1133.54V200.277ZM1192.71 200.277V206.687H1199.12V200.277H1192.71ZM1173.44 169.809L1175.68 163.804L1175.31 163.664L1174.92 163.572L1173.44 169.809ZM1122.81 133.328H1133.54V120.508H1122.81V133.328ZM1127.13 126.918V158.266H1139.95V126.918H1127.13ZM1133.54 164.676H1167.87V151.856H1133.54V164.676ZM1167.87 164.676C1178.32 164.676 1186.85 169.515 1193.72 180.527L1204.6 173.739C1195.77 159.595 1183.43 151.856 1167.87 151.856V164.676ZM1193.52 180.182C1195.91 184.589 1197.03 188.978 1197.03 193.422H1209.85C1209.85 186.694 1208.12 180.223 1204.8 174.084L1193.52 180.182ZM1197.03 193.422V211H1209.85V193.422H1197.03ZM1203.44 204.59H1122.81V217.41H1203.44V204.59ZM1129.22 211V126.918H1116.4V211H1129.22ZM1218.5 133.328H1229.63V120.508H1218.5V133.328ZM1223.22 126.918V211H1236.04V126.918H1223.22ZM1229.63 204.59H1218.5V217.41H1229.63V204.59ZM1224.91 211V126.918H1212.09V211H1224.91ZM1127.13 168.988V200.277H1139.95V168.988H1127.13ZM1133.54 206.687H1192.71V193.867H1133.54V206.687ZM1199.12 200.277V193.832H1186.3V200.277H1199.12ZM1199.12 193.832C1199.12 186.911 1197.11 180.655 1192.89 175.406C1188.76 170.249 1182.84 166.479 1175.68 163.804L1171.19 175.813C1176.89 177.943 1180.61 180.58 1182.9 183.43C1185.11 186.189 1186.3 189.542 1186.3 193.832H1199.12ZM1174.92 163.572C1172.09 162.9 1169.15 162.578 1166.11 162.578V175.398C1168.24 175.398 1170.18 175.623 1171.96 176.045L1174.92 163.572ZM1166.11 162.578H1133.54V175.398H1166.11V162.578Z" fill="white" fill-opacity="0.05"/>
</svg>
