<svg width="1215" height="252" viewBox="0 0 1215 252" fill="none" xmlns="http://www.w3.org/2000/svg">
<path d="M-24.2578 16.918H46.9336C61.2695 16.918 72.2852 24.6328 79.9805 40.0625C81.4258 44.7109 82.1484 48.2852 82.1484 50.7852V101H13.4766C-3.24219 101 -15.0977 92.8555 -22.0898 76.5664C-23.5352 72.4648 -24.2578 68.4609 -24.2578 64.5547V16.918ZM-13.5352 27.6406V63.6758C-13.5352 76.918 -6.52344 85.6484 7.5 89.8672C10.4297 90.1406 12.7148 90.2773 14.3555 90.2773H71.4258V52.0742C71.4258 41.2539 65.2734 33.4023 52.9688 28.5195C50.8203 27.9336 48.8086 27.6406 46.9336 27.6406H-13.5352ZM92.9297 16.918H161.133C178.984 16.918 191.133 25.3555 197.578 42.2305C198.75 45.9414 199.336 49.5156 199.336 52.9531V70.1211H151.289V101H140.566V70.1211H131.543C113.535 70.1211 101.23 61.8203 94.6289 45.2188C93.4961 41.5078 92.9297 37.9336 92.9297 34.4961V16.918ZM103.652 27.6406V34.0859C103.652 45.4141 110.078 53.5586 122.93 58.5195C126.523 59.1055 129.531 59.3984 131.953 59.3984H140.566V27.6406H103.652ZM151.289 27.6406V59.3984H188.613V54.6523C188.613 40.668 181.309 31.8008 166.699 28.0508C164.902 27.7773 162.91 27.6406 160.723 27.6406H151.289ZM210.117 16.6836H220.898V90.2188H235.078C236.758 88.2656 253.672 63.7539 285.82 16.6836H317.227V101H306.035V27.4648H292.266C290.781 28.6367 273.867 53.1484 241.523 101H210.117V16.6836ZM327.305 16.918H337.676V90.6289H405.762V16.918H416.133V90.6289H434.238V101H327.305V16.918ZM444.492 16.6836H455.273V90.2188H469.453C471.133 88.2656 488.047 63.7539 520.195 16.6836H551.602V101H540.41V27.4648H526.641C525.156 28.6367 508.242 53.1484 475.898 101H444.492V16.6836ZM595.898 17.0938H668.262V27.8164H596.777C586.504 27.8164 578.652 33.8125 573.223 45.8047C573.223 46.7422 573.086 47.4453 572.812 47.9141H667.441C667.988 47.9922 668.262 48.2852 668.262 48.793V101H657.598V58.6367H572.402V101H561.68V53.0703C561.68 37.9922 569.531 26.7227 585.234 19.2617C589.57 17.8164 593.125 17.0938 595.898 17.0938ZM734.766 16.6836L755.156 101H744.551C743.77 101 741.25 91.0977 736.992 71.293C735.234 65.2773 731.68 50.7852 726.328 27.8164H707.695C697.07 72.3477 691.152 96.7422 689.941 101H678.867L699.258 16.6836H734.766ZM763.828 16.6836H774.609V48.0898H817.148C830.195 48.0898 840.664 54.3984 848.555 67.0156C851.445 72.2891 852.891 77.7383 852.891 83.3633V101H763.828V16.6836ZM774.609 58.8711V90.2188H842.109V83.7734C842.109 72.5625 835.664 64.5352 822.773 59.6914C820.469 59.1445 818.027 58.8711 815.449 58.8711H774.609ZM863.438 16.918H874.043V47.0352H959.473V16.918H970.078V101H959.473V57.6406H874.043V101H863.438V16.918ZM980.625 16.918H991.348V48.2656H1025.68C1038.69 48.2656 1049.12 54.5547 1056.97 67.1328C1059.82 72.4062 1061.25 77.8359 1061.25 83.4219V101H980.625V16.918ZM1076.31 16.918H1087.44V101H1076.31V16.918ZM991.348 58.9883V90.2773H1050.53V83.832C1050.53 72.6211 1044.1 64.6133 1031.25 59.8086C1028.95 59.2617 1026.5 58.9883 1023.93 58.9883H991.348ZM1097.81 16.918H1204.34V27.6992H1097.81V16.918ZM1097.81 47.9727H1204.34V58.7539H1108.59V66.4883C1108.59 75.8633 1114.2 83.3438 1125.41 88.9297C1128.65 89.7891 1131.23 90.2188 1133.14 90.2188H1203.87V101H1131.86C1121.82 101 1112.77 96.1172 1104.73 86.3516C1100.12 79.8281 1097.81 73.5 1097.81 67.3672V47.9727ZM177.598 142.801H229.805C245 142.801 256.23 149.852 263.496 163.953C265.801 168.406 266.953 173.582 266.953 179.48V227H160.312V216.219H177.598V142.801ZM188.379 153.582V216.219H256.172V180.359C256.172 167.117 249.258 158.348 235.43 154.051C232.969 153.738 230.957 153.582 229.395 153.582H188.379ZM277.5 142.918H348.691C363.027 142.918 374.043 150.633 381.738 166.062C383.184 170.711 383.906 174.285 383.906 176.785V227H315.234C298.516 227 286.66 218.855 279.668 202.566C278.223 198.465 277.5 194.461 277.5 190.555V142.918ZM288.223 153.641V189.676C288.223 202.918 295.234 211.648 309.258 215.867C312.188 216.141 314.473 216.277 316.113 216.277H373.184V178.074C373.184 167.254 367.031 159.402 354.727 154.52C352.578 153.934 350.566 153.641 348.691 153.641H288.223ZM412.266 142.918H422.988V173.797H444.902C454.785 173.797 462.363 168.504 467.637 157.918C469.043 154.793 469.746 151.082 469.746 146.785V142.918H480.469V147.664C480.469 157.898 476.895 166.766 469.746 174.266C477.09 175.398 483.672 178.543 489.492 183.699C497.227 191.199 501.094 200.203 501.094 210.711V227H490.371V212.41C490.371 198.855 483.789 189.852 470.625 185.398C466.836 184.812 463.105 184.52 459.434 184.52H422.988V227H412.266V184.52H394.688V173.797H412.266V142.918ZM511.875 142.918H522.598V174.266H607.559V142.918H618.281V191.375C618.281 204.812 611.699 215.398 598.535 223.133C593.574 225.711 588.418 227 583.066 227H511.875V216.277H582.656C593.672 216.277 601.68 209.988 606.68 197.41C607.266 194.715 607.559 192.566 607.559 190.965V184.988H511.875V142.918ZM629.062 142.742H656.543C656.543 143.641 662.168 164.773 673.418 206.141H691.582C691.582 205.477 697.207 184.344 708.457 142.742H735.938V227H725.273V153.816H717.305C716.602 153.816 713.652 164.461 708.457 185.75C707.871 187.273 704.902 197.781 699.551 217.273H664.98L648.105 153.816H640.137V227H629.062V142.742ZM746.25 142.918H852.773V153.699H746.25V142.918ZM746.25 173.973H852.773V184.754H757.031V192.488C757.031 201.863 762.637 209.344 773.848 214.93C777.09 215.789 779.668 216.219 781.582 216.219H852.305V227H780.293C770.254 227 761.211 222.117 753.164 212.352C748.555 205.828 746.25 199.5 746.25 193.367V173.973ZM863.438 142.918H874.043V173.035H959.473V142.918H970.078V227H959.473V183.641H874.043V227H863.438V142.918ZM980.625 142.918H1087.03V153.641H1039.39V226.121C1039.39 226.707 1039.1 227 1038.52 227H1028.67V153.641H980.625V142.918ZM1097.81 142.918H1108.54V174.266H1142.87C1155.88 174.266 1166.31 180.555 1174.16 193.133C1177.01 198.406 1178.44 203.836 1178.44 209.422V227H1097.81V142.918ZM1193.5 142.918H1204.63V227H1193.5V142.918ZM1108.54 184.988V216.277H1167.71V209.832C1167.71 198.621 1161.29 190.613 1148.44 185.809C1146.13 185.262 1143.69 184.988 1141.11 184.988H1108.54Z" fill="white" fill-opacity="0.05"/>
<path d="M-24.2578 16.918V10.508H-30.6678V16.918H-24.2578ZM79.9805 40.0625L86.1014 38.1593L85.9477 37.665L85.7167 37.2017L79.9805 40.0625ZM82.1484 101V107.41H88.5584V101H82.1484ZM-22.0898 76.5664L-28.1355 78.6968L-28.0645 78.8984L-27.9801 79.0948L-22.0898 76.5664ZM-13.5352 27.6406V21.2306H-19.9451V27.6406H-13.5352ZM7.5 89.8672L5.65338 96.0054L6.26666 96.1899L6.9043 96.2495L7.5 89.8672ZM71.4258 90.2773V96.6873H77.8358V90.2773H71.4258ZM52.9688 28.5195L55.3331 22.5615L55.0005 22.4295L54.6553 22.3354L52.9688 28.5195ZM-24.2578 23.328H46.9336V10.508H-24.2578V23.328ZM46.9336 23.328C52.8776 23.328 57.9127 24.9028 62.2701 27.9545C66.6907 31.0505 70.7422 35.9013 74.2443 42.9233L85.7167 37.2017C81.5234 28.794 76.2194 22.0725 69.6244 17.4537C62.9662 12.7906 55.3256 10.508 46.9336 10.508V23.328ZM73.8595 41.9657C75.2585 46.465 75.7385 49.2842 75.7385 50.7852H88.5584C88.5584 47.2861 87.5931 42.9569 86.1014 38.1593L73.8595 41.9657ZM75.7385 50.7852V101H88.5584V50.7852H75.7385ZM82.1484 94.59H13.4766V107.41H82.1484V94.59ZM13.4766 94.59C6.19678 94.59 0.36969 92.833 -4.32452 89.6082C-9.04407 86.3659 -13.0703 81.328 -16.1996 74.038L-27.9801 79.0948C-24.1172 88.0939 -18.7196 95.2727 -11.5837 100.175C-4.42242 105.095 4.0376 107.41 13.4766 107.41V94.59ZM-16.0442 74.436C-17.2755 70.9419 -17.8478 67.6579 -17.8478 64.5547H-30.6678C-30.6678 69.2639 -29.7948 73.9878 -28.1355 78.6968L-16.0442 74.436ZM-17.8478 64.5547V16.918H-30.6678V64.5547H-17.8478ZM-19.9451 27.6406V63.6758H-7.12518V27.6406H-19.9451ZM-19.9451 63.6758C-19.9451 71.4789 -17.8539 78.4666 -13.2741 84.1691C-8.74042 89.8141 -2.22119 93.6365 5.65338 96.0054L9.34662 83.7289C3.19775 81.8791 -0.800598 79.2269 -3.27863 76.1414C-5.71051 73.1135 -7.12518 69.1149 -7.12518 63.6758H-19.9451ZM6.9043 96.2495C9.90338 96.5294 12.4189 96.6873 14.3555 96.6873V83.8673C13.0108 83.8673 10.956 83.7519 8.0957 83.4849L6.9043 96.2495ZM14.3555 96.6873H71.4258V83.8673H14.3555V96.6873ZM77.8358 90.2773V52.0742H65.0158V90.2773H77.8358ZM77.8358 52.0742C77.8358 45.3601 75.8939 39.2686 71.8571 34.1167C67.8875 29.0509 62.2062 25.2889 55.3331 22.5615L50.6044 34.4776C56.0359 36.6329 59.5832 39.2382 61.766 42.0239C63.8815 44.7236 65.0158 47.968 65.0158 52.0742H77.8358ZM54.6553 22.3354C52.0569 21.6267 49.4731 21.2306 46.9336 21.2306V34.0506C48.144 34.0506 49.5837 34.2405 51.2822 34.7037L54.6553 22.3354ZM46.9336 21.2306H-13.5352V34.0506H46.9336V21.2306ZM92.9297 16.918V10.508H86.5197V16.918H92.9297ZM197.578 42.2305L203.691 40.3002L203.634 40.1199L203.566 39.9434L197.578 42.2305ZM199.336 70.1211V76.5311H205.746V70.1211H199.336ZM151.289 70.1211V63.7111H144.879V70.1211H151.289ZM151.289 101V107.41H157.699V101H151.289ZM140.566 101H134.156V107.41H140.566V101ZM140.566 70.1211H146.976V63.7111H140.566V70.1211ZM94.6289 45.2188L88.4982 47.0902L88.5751 47.3423L88.6725 47.5873L94.6289 45.2188ZM103.652 27.6406V21.2306H97.2424V27.6406H103.652ZM122.93 58.5195L120.621 64.4995L121.242 64.739L121.898 64.846L122.93 58.5195ZM140.566 59.3984V65.8084H146.976V59.3984H140.566ZM140.566 27.6406H146.976V21.2306H140.566V27.6406ZM151.289 27.6406V21.2306H144.879V27.6406H151.289ZM151.289 59.3984H144.879V65.8084H151.289V59.3984ZM188.613 59.3984V65.8084H195.023V59.3984H188.613ZM166.699 28.0508L168.293 21.8421L167.981 21.7621L167.664 21.7137L166.699 28.0508ZM92.9297 23.328H161.133V10.508H92.9297V23.328ZM161.133 23.328C169.027 23.328 175.181 25.1807 179.976 28.5109C184.777 31.8451 188.724 37.0149 191.59 44.5176L203.566 39.9434C199.987 30.5711 194.637 23.0846 187.289 17.9813C179.936 12.874 171.091 10.508 161.133 10.508V23.328ZM191.466 44.1607C192.466 47.3284 192.926 50.2505 192.926 52.9531H205.746C205.746 48.7808 205.034 44.5544 203.691 40.3002L191.466 44.1607ZM192.926 52.9531V70.1211H205.746V52.9531H192.926ZM199.336 63.7111H151.289V76.5311H199.336V63.7111ZM144.879 70.1211V101H157.699V70.1211H144.879ZM151.289 94.59H140.566V107.41H151.289V94.59ZM146.976 101V70.1211H134.156V101H146.976ZM140.566 63.7111H131.543V76.5311H140.566V63.7111ZM131.543 63.7111C123.541 63.7111 117.279 61.8775 112.393 58.5816C107.511 55.2883 103.508 50.2011 100.585 42.8502L88.6725 47.5873C92.3511 56.838 97.801 64.202 105.224 69.2094C112.643 74.2143 121.537 76.5311 131.543 76.5311V63.7111ZM100.76 43.3473C99.7885 40.1661 99.3397 37.2238 99.3397 34.4961H86.5197C86.5197 38.6434 87.2037 42.8496 88.4982 47.0902L100.76 43.3473ZM99.3397 34.4961V16.918H86.5197V34.4961H99.3397ZM97.2424 27.6406V34.0859H110.062V27.6406H97.2424ZM97.2424 34.0859C97.2424 41.0497 99.2505 47.3516 103.439 52.6608C107.56 57.8841 113.465 61.7369 120.621 64.4995L125.238 52.5396C119.543 50.3412 115.809 47.6413 113.504 44.7201C111.267 41.8848 110.062 38.4503 110.062 34.0859H97.2424ZM121.898 64.846C125.681 65.4628 129.06 65.8084 131.953 65.8084V52.9884C130.002 52.9884 127.366 52.7481 123.961 52.1931L121.898 64.846ZM131.953 65.8084H140.566V52.9884H131.953V65.8084ZM146.976 59.3984V27.6406H134.156V59.3984H146.976ZM140.566 21.2306H103.652V34.0506H140.566V21.2306ZM144.879 27.6406V59.3984H157.699V27.6406H144.879ZM151.289 65.8084H188.613V52.9884H151.289V65.8084ZM195.023 59.3984V54.6523H182.203V59.3984H195.023ZM195.023 54.6523C195.023 46.5078 192.873 39.2536 188.082 33.438C183.331 27.6709 176.504 23.9496 168.293 21.8421L165.106 34.2595C171.504 35.9019 175.634 38.4893 178.187 41.5893C180.701 44.6409 182.203 48.8125 182.203 54.6523H195.023ZM167.664 21.7137C165.491 21.3831 163.17 21.2306 160.723 21.2306V34.0506C162.65 34.0506 164.314 34.1716 165.735 34.3878L167.664 21.7137ZM160.723 21.2306H151.289V34.0506H160.723V21.2306ZM210.117 16.6836V10.2736H203.707V16.6836H210.117ZM220.898 16.6836H227.308V10.2736H220.898V16.6836ZM220.898 90.2188H214.488V96.6288H220.898V90.2188ZM235.078 90.2188V96.6288H238.02L239.938 94.3983L235.078 90.2188ZM285.82 16.6836V10.2736H282.436L280.527 13.0684L285.82 16.6836ZM317.227 16.6836H323.637V10.2736H317.227V16.6836ZM317.227 101V107.41H323.637V101H317.227ZM306.035 101H299.625V107.41H306.035V101ZM306.035 27.4648H312.445V21.0548H306.035V27.4648ZM292.266 27.4648V21.0548H290.04L288.294 22.4337L292.266 27.4648ZM241.523 101V107.41H244.928L246.834 104.59L241.523 101ZM210.117 101H203.707V107.41H210.117V101ZM210.117 23.0936H220.898V10.2736H210.117V23.0936ZM214.488 16.6836V90.2188H227.308V16.6836H214.488ZM220.898 96.6288H235.078V83.8087H220.898V96.6288ZM239.938 94.3983C240.62 93.6048 242.233 91.3499 244.439 88.2092C246.779 84.8788 250.068 80.1433 254.299 74.0107C262.765 61.7419 275.038 43.8363 291.114 20.2988L280.527 13.0684C264.454 36.6012 252.196 54.4866 243.748 66.7296C239.522 72.8528 236.258 77.5533 233.949 80.8392C232.794 82.4839 231.889 83.7587 231.227 84.6738C230.492 85.6905 230.215 86.0432 230.218 86.0392L239.938 94.3983ZM285.82 23.0936H317.227V10.2736H285.82V23.0936ZM310.817 16.6836V101H323.637V16.6836H310.817ZM317.227 94.59H306.035V107.41H317.227V94.59ZM312.445 101V27.4648H299.625V101H312.445ZM306.035 21.0548H292.266V33.8748H306.035V21.0548ZM288.294 22.4337C287.6 22.9817 287.046 23.6585 286.885 23.8507C286.585 24.21 286.247 24.6407 285.888 25.1121C285.163 26.0632 284.211 27.3637 283.048 28.9871C280.715 32.244 277.426 36.95 273.191 43.087C264.716 55.3689 252.388 73.4802 236.213 97.4104L246.834 104.59C263.003 80.6682 275.304 62.5979 283.743 50.3681C287.965 44.2492 291.204 39.6168 293.47 36.4528C294.607 34.8658 295.473 33.6852 296.083 32.8846C296.392 32.4801 296.601 32.2173 296.728 32.0654C296.994 31.7465 296.746 32.0945 296.238 32.4959L288.294 22.4337ZM241.523 94.59H210.117V107.41H241.523V94.59ZM216.527 101V16.6836H203.707V101H216.527ZM327.305 16.918V10.508H320.895V16.918H327.305ZM337.676 16.918H344.086V10.508H337.676V16.918ZM337.676 90.6289H331.266V97.0389H337.676V90.6289ZM405.762 90.6289V97.0389H412.172V90.6289H405.762ZM405.762 16.918V10.508H399.352V16.918H405.762ZM416.133 16.918H422.543V10.508H416.133V16.918ZM416.133 90.6289H409.723V97.0389H416.133V90.6289ZM434.238 90.6289H440.648V84.2189H434.238V90.6289ZM434.238 101V107.41H440.648V101H434.238ZM327.305 101H320.895V107.41H327.305V101ZM327.305 23.328H337.676V10.508H327.305V23.328ZM331.266 16.918V90.6289H344.086V16.918H331.266ZM337.676 97.0389H405.762V84.2189H337.676V97.0389ZM412.172 90.6289V16.918H399.352V90.6289H412.172ZM405.762 23.328H416.133V10.508H405.762V23.328ZM409.723 16.918V90.6289H422.543V16.918H409.723ZM416.133 97.0389H434.238V84.2189H416.133V97.0389ZM427.828 90.6289V101H440.648V90.6289H427.828ZM434.238 94.59H327.305V107.41H434.238V94.59ZM333.715 101V16.918H320.895V101H333.715ZM444.492 16.6836V10.2736H438.082V16.6836H444.492ZM455.273 16.6836H461.683V10.2736H455.273V16.6836ZM455.273 90.2188H448.863V96.6288H455.273V90.2188ZM469.453 90.2188V96.6288H472.395L474.313 94.3983L469.453 90.2188ZM520.195 16.6836V10.2736H516.811L514.902 13.0684L520.195 16.6836ZM551.602 16.6836H558.012V10.2736H551.602V16.6836ZM551.602 101V107.41H558.012V101H551.602ZM540.41 101H534V107.41H540.41V101ZM540.41 27.4648H546.82V21.0548H540.41V27.4648ZM526.641 27.4648V21.0548H524.415L522.669 22.4337L526.641 27.4648ZM475.898 101V107.41H479.303L481.209 104.59L475.898 101ZM444.492 101H438.082V107.41H444.492V101ZM444.492 23.0936H455.273V10.2736H444.492V23.0936ZM448.863 16.6836V90.2188H461.683V16.6836H448.863ZM455.273 96.6288H469.453V83.8087H455.273V96.6288ZM474.313 94.3983C474.995 93.6048 476.608 91.3499 478.814 88.2092C481.154 84.8788 484.443 80.1433 488.674 74.0107C497.14 61.7419 509.413 43.8363 525.489 20.2988L514.902 13.0684C498.829 36.6012 486.571 54.4866 478.123 66.7296C473.897 72.8528 470.633 77.5533 468.324 80.8392C467.169 82.4839 466.264 83.7587 465.602 84.6738C464.867 85.6905 464.59 86.0432 464.593 86.0392L474.313 94.3983ZM520.195 23.0936H551.602V10.2736H520.195V23.0936ZM545.192 16.6836V101H558.012V16.6836H545.192ZM551.602 94.59H540.41V107.41H551.602V94.59ZM546.82 101V27.4648H534V101H546.82ZM540.41 21.0548H526.641V33.8748H540.41V21.0548ZM522.669 22.4337C521.975 22.9817 521.421 23.6585 521.26 23.8507C520.96 24.21 520.623 24.6407 520.263 25.1121C519.538 26.0632 518.586 27.3637 517.423 28.9871C515.09 32.244 511.801 36.95 507.566 43.087C499.091 55.3689 486.763 73.4802 470.588 97.4104L481.209 104.59C497.378 80.6682 509.679 62.5979 518.118 50.3681C522.34 44.2492 525.579 39.6168 527.845 36.4528C528.982 34.8658 529.848 33.6852 530.458 32.8846C530.767 32.4801 530.976 32.2173 531.103 32.0654C531.369 31.7465 531.121 32.0945 530.613 32.4959L522.669 22.4337ZM475.898 94.59H444.492V107.41H475.898V94.59ZM450.902 101V16.6836H438.082V101H450.902ZM668.262 17.0938H674.672V10.6838H668.262V17.0938ZM668.262 27.8164V34.2264H674.672V27.8164H668.262ZM573.223 45.8047L567.383 43.1608L566.813 44.4212V45.8047H573.223ZM572.812 47.9141L567.276 44.6842L561.652 54.3241H572.812V47.9141ZM667.441 47.9141L668.348 41.5685L667.897 41.5041H667.441V47.9141ZM668.262 101V107.41H674.672V101H668.262ZM657.598 101H651.188V107.41H657.598V101ZM657.598 58.6367H664.008V52.2267H657.598V58.6367ZM572.402 58.6367V52.2267H565.992V58.6367H572.402ZM572.402 101V107.41H578.812V101H572.402ZM561.68 101H555.27V107.41H561.68V101ZM585.234 19.2617L583.207 13.1807L582.837 13.3043L582.484 13.472L585.234 19.2617ZM595.898 23.5037H668.262V10.6838H595.898V23.5037ZM661.852 17.0938V27.8164H674.672V17.0938H661.852ZM668.262 21.4064H596.777V34.2264H668.262V21.4064ZM596.777 21.4064C590.295 21.4064 584.383 23.3319 579.293 27.2191C574.292 31.0386 570.396 36.5079 567.383 43.1608L579.062 48.4486C581.479 43.1092 584.224 39.5845 587.074 37.4078C589.835 35.299 592.986 34.2264 596.777 34.2264V21.4064ZM566.813 45.8047C566.813 45.9808 566.798 45.9645 566.828 45.8117C566.856 45.6695 566.955 45.2345 567.276 44.6842L578.349 51.1439C579.473 49.218 579.633 47.1555 579.633 45.8047H566.813ZM572.812 54.3241H667.441V41.5041H572.812V54.3241ZM666.535 54.2596C665.903 54.1694 664.551 53.8305 663.371 52.566C662.126 51.2323 661.852 49.7113 661.852 48.793H674.672C674.672 47.3668 674.261 45.4454 672.743 43.8187C671.289 42.2613 669.527 41.7369 668.348 41.5685L666.535 54.2596ZM661.852 48.793V101H674.672V48.793H661.852ZM668.262 94.59H657.598V107.41H668.262V94.59ZM664.008 101V58.6367H651.188V101H664.008ZM657.598 52.2267H572.402V65.0467H657.598V52.2267ZM565.992 58.6367V101H578.812V58.6367H565.992ZM572.402 94.59H561.68V107.41H572.402V94.59ZM568.09 101V53.0703H555.27V101H568.09ZM568.09 53.0703C568.09 46.7074 569.724 41.4284 572.828 36.9738C575.968 32.4661 580.877 28.4286 587.985 25.0514L582.484 13.472C573.888 17.5558 567.02 22.8835 562.309 29.6453C557.561 36.4603 555.27 44.3551 555.27 53.0703H568.09ZM587.261 25.3428C591.309 23.9934 594.115 23.5037 595.898 23.5037V10.6838C592.135 10.6838 587.831 11.6394 583.207 13.1807L587.261 25.3428ZM734.766 16.6836L740.996 15.1769L739.81 10.2736H734.766V16.6836ZM755.156 101V107.41H763.301L761.387 99.4933L755.156 101ZM736.992 71.293L743.259 69.9457L743.21 69.7183L743.145 69.4951L736.992 71.293ZM726.328 27.8164L732.571 26.3619L731.416 21.4064H726.328V27.8164ZM707.695 27.8164V21.4064H702.635L701.46 26.3288L707.695 27.8164ZM689.941 101V107.41H694.783L696.107 102.753L689.941 101ZM678.867 101L672.637 99.4933L670.722 107.41H678.867V101ZM699.258 16.6836V10.2736H694.213L693.027 15.1769L699.258 16.6836ZM728.535 18.1903L748.926 102.507L761.387 99.4933L740.996 15.1769L728.535 18.1903ZM755.156 94.59H744.551V107.41H755.156V94.59ZM744.551 94.59C746.253 94.59 747.49 95.2617 748.132 95.7085C748.778 96.1575 749.183 96.6237 749.373 96.8593C749.749 97.3256 749.925 97.7003 749.93 97.7101C749.971 97.7946 749.9 97.6572 749.72 97.1163C749.383 96.1056 748.908 94.4311 748.287 91.9927C747.058 87.1615 745.384 79.8299 743.259 69.9457L730.725 72.6403C732.858 82.5608 734.573 90.0826 735.863 95.1538C736.502 97.6665 737.07 99.7054 737.558 101.17C737.79 101.867 738.077 102.658 738.423 103.362C738.58 103.681 738.894 104.288 739.395 104.909C739.647 105.222 740.111 105.746 740.812 106.233C741.511 106.719 742.8 107.41 744.551 107.41V94.59ZM743.145 69.4951C741.448 63.6867 737.936 49.388 732.571 26.3619L720.085 29.2709C725.424 52.1824 729.021 66.868 730.839 73.0908L743.145 69.4951ZM726.328 21.4064H707.695V34.2264H726.328V21.4064ZM701.46 26.3288C690.807 70.9782 684.938 95.1622 683.776 99.2465L696.107 102.753C697.367 98.3222 703.333 73.7171 713.93 29.3041L701.46 26.3288ZM689.941 94.59H678.867V107.41H689.941V94.59ZM685.098 102.507L705.488 18.1903L693.027 15.1769L672.637 99.4933L685.098 102.507ZM699.258 23.0936H734.766V10.2736H699.258V23.0936ZM763.828 16.6836V10.2736H757.418V16.6836H763.828ZM774.609 16.6836H781.019V10.2736H774.609V16.6836ZM774.609 48.0898H768.199V54.4998H774.609V48.0898ZM848.555 67.0156L854.176 63.9345L854.087 63.773L853.989 63.6168L848.555 67.0156ZM852.891 101V107.41H859.301V101H852.891ZM763.828 101H757.418V107.41H763.828V101ZM774.609 58.8711V52.4611H768.199V58.8711H774.609ZM774.609 90.2188H768.199V96.6288H774.609V90.2188ZM842.109 90.2188V96.6288H848.519V90.2188H842.109ZM822.773 59.6914L825.028 53.691L824.648 53.5483L824.253 53.4546L822.773 59.6914ZM763.828 23.0936H774.609V10.2736H763.828V23.0936ZM768.199 16.6836V48.0898H781.019V16.6836H768.199ZM774.609 54.4998H817.148V41.6798H774.609V54.4998ZM817.148 54.4998C827.642 54.4998 836.206 59.3594 843.12 70.4144L853.989 63.6168C845.122 49.4375 832.749 41.6798 817.148 41.6798V54.4998ZM842.934 70.0967C845.344 74.493 846.481 78.8895 846.481 83.3633H859.301C859.301 76.5871 857.547 70.0851 854.176 63.9345L842.934 70.0967ZM846.481 83.3633V101H859.301V83.3633H846.481ZM852.891 94.59H763.828V107.41H852.891V94.59ZM770.238 101V16.6836H757.418V101H770.238ZM768.199 58.8711V90.2188H781.019V58.8711H768.199ZM774.609 96.6288H842.109V83.8087H774.609V96.6288ZM848.519 90.2188V83.7734H835.699V90.2188H848.519ZM848.519 83.7734C848.519 76.8472 846.493 70.5868 842.274 65.3315C838.128 60.1679 832.198 56.3851 825.028 53.691L820.519 65.6918C826.24 67.8414 829.978 70.4942 832.277 73.3579C834.503 76.13 835.699 79.4887 835.699 83.7734H848.519ZM824.253 53.4546C821.423 52.783 818.482 52.4611 815.449 52.4611V65.2811C817.573 65.2811 819.514 65.5061 821.293 65.9282L824.253 53.4546ZM815.449 52.4611H774.609V65.2811H815.449V52.4611ZM863.438 16.918V10.508H857.027V16.918H863.438ZM874.043 16.918H880.453V10.508H874.043V16.918ZM874.043 47.0352H867.633V53.4452H874.043V47.0352ZM959.473 47.0352V53.4452H965.883V47.0352H959.473ZM959.473 16.918V10.508H953.063V16.918H959.473ZM970.078 16.918H976.488V10.508H970.078V16.918ZM970.078 101V107.41H976.488V101H970.078ZM959.473 101H953.063V107.41H959.473V101ZM959.473 57.6406H965.883V51.2306H959.473V57.6406ZM874.043 57.6406V51.2306H867.633V57.6406H874.043ZM874.043 101V107.41H880.453V101H874.043ZM863.438 101H857.027V107.41H863.438V101ZM863.438 23.328H874.043V10.508H863.438V23.328ZM867.633 16.918V47.0352H880.453V16.918H867.633ZM874.043 53.4452H959.473V40.6252H874.043V53.4452ZM965.883 47.0352V16.918H953.063V47.0352H965.883ZM959.473 23.328H970.078V10.508H959.473V23.328ZM963.668 16.918V101H976.488V16.918H963.668ZM970.078 94.59H959.473V107.41H970.078V94.59ZM965.883 101V57.6406H953.063V101H965.883ZM959.473 51.2306H874.043V64.0506H959.473V51.2306ZM867.633 57.6406V101H880.453V57.6406H867.633ZM874.043 94.59H863.438V107.41H874.043V94.59ZM869.848 101V16.918H857.027V101H869.848ZM980.625 16.918V10.508H974.215V16.918H980.625ZM991.348 16.918H997.758V10.508H991.348V16.918ZM991.348 48.2656H984.938V54.6756H991.348V48.2656ZM1056.97 67.1328L1062.61 64.0839L1062.52 63.9081L1062.41 63.7386L1056.97 67.1328ZM1061.25 101V107.41H1067.66V101H1061.25ZM980.625 101H974.215V107.41H980.625V101ZM1076.31 16.918V10.508H1069.9V16.918H1076.31ZM1087.44 16.918H1093.85V10.508H1087.44V16.918ZM1087.44 101V107.41H1093.85V101H1087.44ZM1076.31 101H1069.9V107.41H1076.31V101ZM991.348 58.9883V52.5783H984.938V58.9883H991.348ZM991.348 90.2773H984.938V96.6873H991.348V90.2773ZM1050.53 90.2773V96.6873H1056.94V90.2773H1050.53ZM1031.25 59.8086L1033.49 53.8045L1033.12 53.6642L1032.73 53.5718L1031.25 59.8086ZM980.625 23.328H991.348V10.508H980.625V23.328ZM984.938 16.918V48.2656H997.758V16.918H984.938ZM991.348 54.6756H1025.68V41.8556H991.348V54.6756ZM1025.68 54.6756C1036.14 54.6756 1044.66 59.5146 1051.54 70.5271L1062.41 63.7386C1053.58 49.5947 1041.25 41.8556 1025.68 41.8556V54.6756ZM1051.33 70.1817C1053.72 74.5893 1054.84 78.978 1054.84 83.4219H1067.66C1067.66 76.6939 1065.93 70.2232 1062.61 64.0839L1051.33 70.1817ZM1054.84 83.4219V101H1067.66V83.4219H1054.84ZM1061.25 94.59H980.625V107.41H1061.25V94.59ZM987.035 101V16.918H974.215V101H987.035ZM1076.31 23.328H1087.44V10.508H1076.31V23.328ZM1081.03 16.918V101H1093.85V16.918H1081.03ZM1087.44 94.59H1076.31V107.41H1087.44V94.59ZM1082.72 101V16.918H1069.9V101H1082.72ZM984.938 58.9883V90.2773H997.758V58.9883H984.938ZM991.348 96.6873H1050.53V83.8673H991.348V96.6873ZM1056.94 90.2773V83.832H1044.12V90.2773H1056.94ZM1056.94 83.832C1056.94 76.9108 1054.92 70.6547 1050.71 65.4062C1046.57 60.2485 1040.65 56.4793 1033.49 53.8045L1029.01 65.8127C1034.7 67.9426 1038.42 70.5796 1040.71 73.4297C1042.92 76.1891 1044.12 79.5423 1044.12 83.832H1056.94ZM1032.73 53.5718C1029.9 52.9002 1026.96 52.5783 1023.93 52.5783V65.3983C1026.05 65.3983 1027.99 65.6232 1029.77 66.0454L1032.73 53.5718ZM1023.93 52.5783H991.348V65.3983H1023.93V52.5783ZM1097.81 16.918V10.508H1091.4V16.918H1097.81ZM1204.34 16.918H1210.75V10.508H1204.34V16.918ZM1204.34 27.6992V34.1092H1210.75V27.6992H1204.34ZM1097.81 27.6992H1091.4V34.1092H1097.81V27.6992ZM1097.81 47.9727V41.5627H1091.4V47.9727H1097.81ZM1204.34 47.9727H1210.75V41.5627H1204.34V47.9727ZM1204.34 58.7539V65.1639H1210.75V58.7539H1204.34ZM1108.59 58.7539V52.3439H1102.18V58.7539H1108.59ZM1125.41 88.9297L1122.55 94.667L1123.14 94.9583L1123.77 95.1257L1125.41 88.9297ZM1203.87 90.2188H1210.28V83.8087H1203.87V90.2188ZM1203.87 101V107.41H1210.28V101H1203.87ZM1104.73 86.3516L1099.49 90.0506L1099.63 90.2445L1099.78 90.4278L1104.73 86.3516ZM1097.81 23.328H1204.34V10.508H1097.81V23.328ZM1197.93 16.918V27.6992H1210.75V16.918H1197.93ZM1204.34 21.2892H1097.81V34.1092H1204.34V21.2892ZM1104.22 27.6992V16.918H1091.4V27.6992H1104.22ZM1097.81 54.3827H1204.34V41.5627H1097.81V54.3827ZM1197.93 47.9727V58.7539H1210.75V47.9727H1197.93ZM1204.34 52.3439H1108.59V65.1639H1204.34V52.3439ZM1102.18 58.7539V66.4883H1115V58.7539H1102.18ZM1102.18 66.4883C1102.18 79.122 1110.02 88.4229 1122.55 94.667L1128.27 83.1924C1118.38 78.2646 1115 72.6046 1115 66.4883H1102.18ZM1123.77 95.1257C1127.21 96.0378 1130.41 96.6288 1133.14 96.6288V83.8087C1132.05 83.8087 1130.1 83.5403 1127.05 82.7337L1123.77 95.1257ZM1133.14 96.6288H1203.87V83.8087H1133.14V96.6288ZM1197.46 90.2188V101H1210.28V90.2188H1197.46ZM1203.87 94.59H1131.86V107.41H1203.87V94.59ZM1131.86 94.59C1124.21 94.59 1116.85 90.9818 1109.67 82.2753L1099.78 90.4278C1108.7 101.253 1119.42 107.41 1131.86 107.41V94.59ZM1109.96 82.6526C1105.89 76.8857 1104.22 71.8259 1104.22 67.3672H1091.4C1091.4 75.1741 1094.35 82.7705 1099.49 90.0506L1109.96 82.6526ZM1104.22 67.3672V47.9727H1091.4V67.3672H1104.22ZM177.598 142.801V136.391H171.188V142.801H177.598ZM263.496 163.953L257.798 166.889L257.803 166.899L263.496 163.953ZM266.953 227V233.41H273.363V227H266.953ZM160.312 227H153.903V233.41H160.312V227ZM160.312 216.219V209.809H153.903V216.219H160.312ZM177.598 216.219V222.629H184.008V216.219H177.598ZM188.379 153.582V147.172H181.969V153.582H188.379ZM188.379 216.219H181.969V222.629H188.379V216.219ZM256.172 216.219V222.629H262.582V216.219H256.172ZM235.43 154.051L237.332 147.929L236.795 147.763L236.237 147.692L235.43 154.051ZM177.598 149.211H229.805V136.391H177.598V149.211ZM229.805 149.211C236.377 149.211 241.764 150.723 246.216 153.518C250.683 156.322 254.588 160.658 257.798 166.889L269.194 161.017C265.139 153.147 259.796 146.906 253.032 142.66C246.253 138.404 238.428 136.391 229.805 136.391V149.211ZM257.803 166.899C259.56 170.294 260.543 174.427 260.543 179.48H273.363C273.363 172.737 272.041 166.518 269.189 161.007L257.803 166.899ZM260.543 179.48V227H273.363V179.48H260.543ZM266.953 220.59H160.312V233.41H266.953V220.59ZM166.722 227V216.219H153.903V227H166.722ZM160.312 222.629H177.598V209.809H160.312V222.629ZM184.008 216.219V142.801H171.188V216.219H184.008ZM181.969 153.582V216.219H194.789V153.582H181.969ZM188.379 222.629H256.172V209.809H188.379V222.629ZM262.582 216.219V180.359H249.762V216.219H262.582ZM262.582 180.359C262.582 172.576 260.527 165.598 256.02 159.882C251.553 154.216 245.119 150.349 237.332 147.929L233.528 160.172C239.569 162.049 243.505 164.715 245.953 167.819C248.36 170.873 249.762 174.9 249.762 180.359H262.582ZM236.237 147.692C233.644 147.363 231.336 147.172 229.395 147.172V159.992C230.578 159.992 232.293 160.114 234.622 160.41L236.237 147.692ZM229.395 147.172H188.379V159.992H229.395V147.172ZM277.5 142.918V136.508H271.09V142.918H277.5ZM381.738 166.062L387.859 164.159L387.706 163.665L387.474 163.202L381.738 166.062ZM383.906 227V233.41H390.316V227H383.906ZM279.668 202.566L273.622 204.697L273.693 204.898L273.778 205.095L279.668 202.566ZM288.223 153.641V147.231H281.813V153.641H288.223ZM309.258 215.867L307.411 222.005L308.024 222.19L308.662 222.249L309.258 215.867ZM373.184 216.277V222.687H379.594V216.277H373.184ZM354.727 154.52L357.091 148.561L356.758 148.43L356.413 148.335L354.727 154.52ZM277.5 149.328H348.691V136.508H277.5V149.328ZM348.691 149.328C354.635 149.328 359.671 150.903 364.028 153.954C368.449 157.051 372.5 161.901 376.002 168.923L387.474 163.202C383.281 154.794 377.977 148.073 371.382 143.454C364.724 138.791 357.083 136.508 348.691 136.508V149.328ZM375.617 167.966C377.016 172.465 377.496 175.284 377.496 176.785H390.316C390.316 173.286 389.351 168.957 387.859 164.159L375.617 167.966ZM377.496 176.785V227H390.316V176.785H377.496ZM383.906 220.59H315.234V233.41H383.906V220.59ZM315.234 220.59C307.955 220.59 302.128 218.833 297.433 215.608C292.714 212.366 288.688 207.328 285.558 200.038L273.778 205.095C277.641 214.094 283.038 221.273 290.174 226.175C297.335 231.095 305.795 233.41 315.234 233.41V220.59ZM285.714 200.436C284.482 196.942 283.91 193.658 283.91 190.555H271.09C271.09 195.264 271.963 199.988 273.622 204.697L285.714 200.436ZM283.91 190.555V142.918H271.09V190.555H283.91ZM281.813 153.641V189.676H294.633V153.641H281.813ZM281.813 189.676C281.813 197.479 283.904 204.467 288.484 210.169C293.017 215.814 299.537 219.636 307.411 222.005L311.104 209.729C304.956 207.879 300.957 205.227 298.479 202.141C296.047 199.113 294.633 195.115 294.633 189.676H281.813ZM308.662 222.249C311.661 222.529 314.177 222.687 316.113 222.687V209.867C314.769 209.867 312.714 209.752 309.854 209.485L308.662 222.249ZM316.113 222.687H373.184V209.867H316.113V222.687ZM379.594 216.277V178.074H366.774V216.277H379.594ZM379.594 178.074C379.594 171.36 377.652 165.269 373.615 160.117C369.645 155.051 363.964 151.289 357.091 148.561L352.362 160.478C357.794 162.633 361.341 165.238 363.524 168.024C365.639 170.724 366.774 173.968 366.774 178.074H379.594ZM356.413 148.335C353.815 147.627 351.231 147.231 348.691 147.231V160.051C349.902 160.051 351.342 160.24 353.04 160.704L356.413 148.335ZM348.691 147.231H288.223V160.051H348.691V147.231ZM412.266 142.918V136.508H405.856V142.918H412.266ZM422.988 142.918H429.398V136.508H422.988V142.918ZM422.988 173.797H416.578V180.207H422.988V173.797ZM467.637 157.918L473.374 160.776L473.43 160.663L473.482 160.548L467.637 157.918ZM469.746 142.918V136.508H463.336V142.918H469.746ZM480.469 142.918H486.879V136.508H480.469V142.918ZM469.746 174.266L465.106 169.843L456.637 178.729L468.769 180.601L469.746 174.266ZM489.492 183.699L493.954 179.097L493.851 178.997L493.743 178.901L489.492 183.699ZM501.094 227V233.41H507.504V227H501.094ZM490.371 227H483.961V233.41H490.371V227ZM470.625 185.398L472.679 179.326L472.153 179.149L471.605 179.064L470.625 185.398ZM422.988 184.52V178.11H416.578V184.52H422.988ZM422.988 227V233.41H429.398V227H422.988ZM412.266 227H405.856V233.41H412.266V227ZM412.266 184.52H418.676V178.11H412.266V184.52ZM394.688 184.52H388.278V190.93H394.688V184.52ZM394.688 173.797V167.387H388.278V173.797H394.688ZM412.266 173.797V180.207H418.676V173.797H412.266ZM412.266 149.328H422.988V136.508H412.266V149.328ZM416.578 142.918V173.797H429.398V142.918H416.578ZM422.988 180.207H444.902V167.387H422.988V180.207ZM444.902 180.207C451.061 180.207 456.727 178.534 461.668 175.082C466.548 171.674 470.39 166.767 473.374 160.776L461.899 155.06C459.61 159.655 457.026 162.687 454.328 164.572C451.691 166.414 448.627 167.387 444.902 167.387V180.207ZM473.482 160.548C475.342 156.415 476.156 151.766 476.156 146.785H463.336C463.336 150.398 462.744 153.171 461.791 155.288L473.482 160.548ZM476.156 146.785V142.918H463.336V146.785H476.156ZM469.746 149.328H480.469V136.508H469.746V149.328ZM474.059 142.918V147.664H486.879V142.918H474.059ZM474.059 147.664C474.059 156.229 471.134 163.519 465.106 169.843L474.386 178.688C482.655 170.012 486.879 159.568 486.879 147.664H474.059ZM468.769 180.601C474.839 181.537 480.297 184.117 485.242 188.497L493.743 178.901C487.047 172.969 479.341 169.26 470.723 167.931L468.769 180.601ZM485.03 188.301C491.555 194.628 494.684 201.986 494.684 210.711H507.504C507.504 198.42 502.898 187.77 493.954 179.097L485.03 188.301ZM494.684 210.711V227H507.504V210.711H494.684ZM501.094 220.59H490.371V233.41H501.094V220.59ZM496.781 227V212.41H483.961V227H496.781ZM496.781 212.41C496.781 204.572 494.863 197.527 490.609 191.708C486.365 185.903 480.202 181.871 472.679 179.326L468.571 191.47C474.212 193.379 477.922 196.076 480.26 199.274C482.588 202.459 483.961 206.694 483.961 212.41H496.781ZM471.605 179.064C467.506 178.43 463.448 178.11 459.434 178.11V190.93C462.763 190.93 466.166 191.195 469.645 191.733L471.605 179.064ZM459.434 178.11H422.988V190.93H459.434V178.11ZM416.578 184.52V227H429.398V184.52H416.578ZM422.988 220.59H412.266V233.41H422.988V220.59ZM418.676 227V184.52H405.856V227H418.676ZM412.266 178.11H394.688V190.93H412.266V178.11ZM401.098 184.52V173.797H388.278V184.52H401.098ZM394.688 180.207H412.266V167.387H394.688V180.207ZM418.676 173.797V142.918H405.856V173.797H418.676ZM511.875 142.918V136.508H505.465V142.918H511.875ZM522.598 142.918H529.008V136.508H522.598V142.918ZM522.598 174.266H516.188V180.676H522.598V174.266ZM607.559 174.266V180.676H613.969V174.266H607.559ZM607.559 142.918V136.508H601.149V142.918H607.559ZM618.281 142.918H624.691V136.508H618.281V142.918ZM598.535 223.133L601.491 228.821L601.639 228.744L601.782 228.66L598.535 223.133ZM511.875 227H505.465V233.41H511.875V227ZM511.875 216.277V209.867H505.465V216.277H511.875ZM606.68 197.41L612.636 199.778L612.831 199.288L612.943 198.772L606.68 197.41ZM607.559 184.988H613.969V178.578H607.559V184.988ZM511.875 184.988H505.465V191.398H511.875V184.988ZM511.875 149.328H522.598V136.508H511.875V149.328ZM516.188 142.918V174.266H529.008V142.918H516.188ZM522.598 180.676H607.559V167.856H522.598V180.676ZM613.969 174.266V142.918H601.149V174.266H613.969ZM607.559 149.328H618.281V136.508H607.559V149.328ZM611.871 142.918V191.375H624.691V142.918H611.871ZM611.871 191.375C611.871 202.192 606.812 210.835 595.288 217.606L601.782 228.66C616.586 219.962 624.691 207.433 624.691 191.375H611.871ZM595.579 217.445C591.489 219.571 587.343 220.59 583.066 220.59V233.41C589.493 233.41 595.659 231.851 601.491 228.821L595.579 217.445ZM583.066 220.59H511.875V233.41H583.066V220.59ZM518.285 227V216.277H505.465V227H518.285ZM511.875 222.687H582.656V209.867H511.875V222.687ZM582.656 222.687C589.474 222.687 595.655 220.707 600.883 216.602C606.023 212.565 609.852 206.783 612.636 199.778L600.723 195.042C598.508 200.615 595.832 204.268 592.965 206.519C590.185 208.703 586.854 209.867 582.656 209.867V222.687ZM612.943 198.772C613.568 195.9 613.969 193.237 613.969 190.965H601.149C601.149 191.896 600.964 193.529 600.416 196.048L612.943 198.772ZM613.969 190.965V184.988H601.149V190.965H613.969ZM607.559 178.578H511.875V191.398H607.559V178.578ZM518.285 184.988V142.918H505.465V184.988H518.285ZM629.062 142.742V136.332H622.652V142.742H629.062ZM656.543 142.742H662.953V136.332H656.543V142.742ZM673.418 206.141L667.233 207.823L668.518 212.551H673.418V206.141ZM691.582 206.141V212.551H697.992V206.141H691.582ZM708.457 142.742V136.332H703.55L702.269 141.069L708.457 142.742ZM735.938 142.742H742.348V136.332H735.938V142.742ZM735.938 227V233.41H742.348V227H735.938ZM725.273 227H718.863V233.41H725.273V227ZM725.273 153.816H731.683V147.406H725.273V153.816ZM708.457 185.75L714.44 188.051L714.587 187.668L714.684 187.27L708.457 185.75ZM699.551 217.273V223.683H704.438L705.732 218.971L699.551 217.273ZM664.98 217.273L658.786 218.921L660.052 223.683H664.98V217.273ZM648.105 153.816L654.3 152.169L653.034 147.406H648.105V153.816ZM640.137 153.816V147.406H633.727V153.816H640.137ZM640.137 227V233.41H646.547V227H640.137ZM629.062 227H622.652V233.41H629.062V227ZM629.062 149.152H656.543V136.332H629.062V149.152ZM650.133 142.742C650.133 143.344 650.222 143.852 650.232 143.914C650.263 144.104 650.299 144.287 650.33 144.436C650.392 144.741 650.475 145.105 650.568 145.5C650.757 146.302 651.032 147.407 651.387 148.796C652.098 151.582 653.16 155.626 654.567 160.914C657.385 171.498 661.607 187.136 667.233 207.823L679.603 204.458C673.979 183.778 669.764 168.166 666.956 157.617C665.551 152.339 664.503 148.346 663.808 145.624C663.46 144.259 663.208 143.242 663.045 142.555C662.963 142.206 662.913 141.983 662.888 141.86C662.797 141.416 662.953 142.003 662.953 142.742H650.133ZM673.418 212.551H691.582V199.731H673.418V212.551ZM697.992 206.141C697.992 206.575 697.945 206.906 697.939 206.951C697.924 207.06 697.91 207.137 697.906 207.159C697.897 207.207 697.896 207.211 697.911 207.143C697.938 207.015 697.99 206.791 698.074 206.447C698.239 205.769 698.494 204.76 698.843 203.406C699.54 200.706 700.59 196.721 701.995 191.442C704.804 180.888 709.02 165.214 714.645 144.415L702.269 141.069C696.644 161.872 692.422 177.565 689.606 188.144C688.199 193.431 687.139 197.454 686.43 200.203C686.076 201.574 685.804 202.65 685.617 203.417C685.525 203.795 685.445 204.134 685.385 204.41C685.356 204.543 685.322 204.708 685.291 204.877C685.276 204.961 685.254 205.088 685.234 205.238C685.222 205.324 685.172 205.686 685.172 206.141H697.992ZM708.457 149.152H735.938V136.332H708.457V149.152ZM729.527 142.742V227H742.348V142.742H729.527ZM735.938 220.59H725.273V233.41H735.938V220.59ZM731.683 227V153.816H718.863V227H731.683ZM725.273 147.406H717.305V160.226H725.273V147.406ZM717.305 147.406C715.257 147.406 713.853 148.349 713.263 148.815C712.617 149.324 712.201 149.849 711.993 150.13C711.566 150.706 711.288 151.265 711.146 151.564C710.83 152.23 710.543 153.004 710.293 153.732C709.772 155.251 709.134 157.397 708.388 160.088C706.886 165.509 704.831 173.571 702.23 184.23L714.684 187.27C717.278 176.64 719.295 168.735 720.743 163.511C721.472 160.88 722.027 159.035 722.419 157.893C722.626 157.29 722.726 157.066 722.725 157.067C722.718 157.082 722.687 157.146 722.633 157.243C722.583 157.331 722.474 157.518 722.301 157.752C722.154 157.95 721.795 158.413 721.202 158.881C720.664 159.305 719.308 160.226 717.305 160.226V147.406ZM702.474 183.449C702.045 184.565 701.052 187.971 699.622 193.031C698.132 198.308 696.047 205.826 693.37 215.576L705.732 218.971C708.406 209.229 710.482 201.747 711.96 196.516C712.699 193.899 713.284 191.861 713.718 190.393C713.935 189.658 714.109 189.084 714.242 188.66C714.39 188.188 714.447 188.032 714.44 188.051L702.474 183.449ZM699.551 210.863H664.98V223.683H699.551V210.863ZM671.175 215.626L654.3 152.169L641.911 155.464L658.786 218.921L671.175 215.626ZM648.105 147.406H640.137V160.226H648.105V147.406ZM633.727 153.816V227H646.547V153.816H633.727ZM640.137 220.59H629.062V233.41H640.137V220.59ZM635.473 227V142.742H622.652V227H635.473ZM746.25 142.918V136.508H739.84V142.918H746.25ZM852.773 142.918H859.183V136.508H852.773V142.918ZM852.773 153.699V160.109H859.183V153.699H852.773ZM746.25 153.699H739.84V160.109H746.25V153.699ZM746.25 173.973V167.563H739.84V173.973H746.25ZM852.773 173.973H859.183V167.563H852.773V173.973ZM852.773 184.754V191.164H859.183V184.754H852.773ZM757.031 184.754V178.344H750.621V184.754H757.031ZM773.848 214.93L770.989 220.667L771.574 220.958L772.205 221.126L773.848 214.93ZM852.305 216.219H858.715V209.809H852.305V216.219ZM852.305 227V233.41H858.715V227H852.305ZM753.164 212.352L747.929 216.051L748.066 216.245L748.217 216.428L753.164 212.352ZM746.25 149.328H852.773V136.508H746.25V149.328ZM846.363 142.918V153.699H859.183V142.918H846.363ZM852.773 147.289H746.25V160.109H852.773V147.289ZM752.66 153.699V142.918H739.84V153.699H752.66ZM746.25 180.383H852.773V167.563H746.25V180.383ZM846.363 173.973V184.754H859.183V173.973H846.363ZM852.773 178.344H757.031V191.164H852.773V178.344ZM750.621 184.754V192.488H763.441V184.754H750.621ZM750.621 192.488C750.621 205.122 758.457 214.423 770.989 220.667L776.706 209.192C766.816 204.265 763.441 198.605 763.441 192.488H750.621ZM772.205 221.126C775.646 222.038 778.849 222.629 781.582 222.629V209.809C780.487 209.809 778.533 209.54 775.49 208.734L772.205 221.126ZM781.582 222.629H852.305V209.809H781.582V222.629ZM845.895 216.219V227H858.715V216.219H845.895ZM852.305 220.59H780.293V233.41H852.305V220.59ZM780.293 220.59C772.652 220.59 765.285 216.982 758.111 208.275L748.217 216.428C757.137 227.253 767.856 233.41 780.293 233.41V220.59ZM758.399 208.653C754.324 202.886 752.66 197.826 752.66 193.367H739.84C739.84 201.174 742.785 208.771 747.929 216.051L758.399 208.653ZM752.66 193.367V173.973H739.84V193.367H752.66ZM863.438 142.918V136.508H857.027V142.918H863.438ZM874.043 142.918H880.453V136.508H874.043V142.918ZM874.043 173.035H867.633V179.445H874.043V173.035ZM959.473 173.035V179.445H965.883V173.035H959.473ZM959.473 142.918V136.508H953.063V142.918H959.473ZM970.078 142.918H976.488V136.508H970.078V142.918ZM970.078 227V233.41H976.488V227H970.078ZM959.473 227H953.063V233.41H959.473V227ZM959.473 183.641H965.883V177.231H959.473V183.641ZM874.043 183.641V177.231H867.633V183.641H874.043ZM874.043 227V233.41H880.453V227H874.043ZM863.438 227H857.027V233.41H863.438V227ZM863.438 149.328H874.043V136.508H863.438V149.328ZM867.633 142.918V173.035H880.453V142.918H867.633ZM874.043 179.445H959.473V166.625H874.043V179.445ZM965.883 173.035V142.918H953.063V173.035H965.883ZM959.473 149.328H970.078V136.508H959.473V149.328ZM963.668 142.918V227H976.488V142.918H963.668ZM970.078 220.59H959.473V233.41H970.078V220.59ZM965.883 227V183.641H953.063V227H965.883ZM959.473 177.231H874.043V190.051H959.473V177.231ZM867.633 183.641V227H880.453V183.641H867.633ZM874.043 220.59H863.438V233.41H874.043V220.59ZM869.848 227V142.918H857.027V227H869.848ZM980.625 142.918V136.508H974.215V142.918H980.625ZM1087.03 142.918H1093.44V136.508H1087.03V142.918ZM1087.03 153.641V160.051H1093.44V153.641H1087.03ZM1039.39 153.641V147.231H1032.98V153.641H1039.39ZM1028.67 227H1022.26V233.41H1028.67V227ZM1028.67 153.641H1035.08V147.231H1028.67V153.641ZM980.625 153.641H974.215V160.051H980.625V153.641ZM980.625 149.328H1087.03V136.508H980.625V149.328ZM1080.62 142.918V153.641H1093.44V142.918H1080.62ZM1087.03 147.231H1039.39V160.051H1087.03V147.231ZM1032.98 153.641V226.121H1045.8V153.641H1032.98ZM1032.98 226.121C1032.98 225.426 1033.16 223.727 1034.64 222.248C1036.12 220.768 1037.82 220.59 1038.52 220.59V233.41C1039.8 233.41 1041.93 233.085 1043.71 231.313C1045.48 229.54 1045.8 227.402 1045.8 226.121H1032.98ZM1038.52 220.59H1028.67V233.41H1038.52V220.59ZM1035.08 227V153.641H1022.26V227H1035.08ZM1028.67 147.231H980.625V160.051H1028.67V147.231ZM987.035 153.641V142.918H974.215V153.641H987.035ZM1097.81 142.918V136.508H1091.4V142.918H1097.81ZM1108.54 142.918H1114.95V136.508H1108.54V142.918ZM1108.54 174.266H1102.13V180.676H1108.54V174.266ZM1174.16 193.133L1179.8 190.084L1179.7 189.908L1179.6 189.739L1174.16 193.133ZM1178.44 227V233.41H1184.85V227H1178.44ZM1097.81 227H1091.4V233.41H1097.81V227ZM1193.5 142.918V136.508H1187.09V142.918H1193.5ZM1204.63 142.918H1211.04V136.508H1204.63V142.918ZM1204.63 227V233.41H1211.04V227H1204.63ZM1193.5 227H1187.09V233.41H1193.5V227ZM1108.54 184.988V178.578H1102.13V184.988H1108.54ZM1108.54 216.277H1102.13V222.687H1108.54V216.277ZM1167.71 216.277V222.687H1174.12V216.277H1167.71ZM1148.44 185.809L1150.68 179.804L1150.31 179.664L1149.92 179.572L1148.44 185.809ZM1097.81 149.328H1108.54V136.508H1097.81V149.328ZM1102.13 142.918V174.266H1114.95V142.918H1102.13ZM1108.54 180.676H1142.87V167.856H1108.54V180.676ZM1142.87 180.676C1153.32 180.676 1161.85 185.515 1168.72 196.527L1179.6 189.739C1170.77 175.595 1158.43 167.856 1142.87 167.856V180.676ZM1168.52 196.182C1170.91 200.589 1172.03 204.978 1172.03 209.422H1184.85C1184.85 202.694 1183.12 196.223 1179.8 190.084L1168.52 196.182ZM1172.03 209.422V227H1184.85V209.422H1172.03ZM1178.44 220.59H1097.81V233.41H1178.44V220.59ZM1104.22 227V142.918H1091.4V227H1104.22ZM1193.5 149.328H1204.63V136.508H1193.5V149.328ZM1198.22 142.918V227H1211.04V142.918H1198.22ZM1204.63 220.59H1193.5V233.41H1204.63V220.59ZM1199.91 227V142.918H1187.09V227H1199.91ZM1102.13 184.988V216.277H1114.95V184.988H1102.13ZM1108.54 222.687H1167.71V209.867H1108.54V222.687ZM1174.12 216.277V209.832H1161.3V216.277H1174.12ZM1174.12 209.832C1174.12 202.911 1172.11 196.655 1167.89 191.406C1163.76 186.249 1157.84 182.479 1150.68 179.804L1146.19 191.813C1151.89 193.943 1155.61 196.58 1157.9 199.43C1160.11 202.189 1161.3 205.542 1161.3 209.832H1174.12ZM1149.92 179.572C1147.09 178.9 1144.15 178.578 1141.11 178.578V191.398C1143.24 191.398 1145.18 191.623 1146.96 192.045L1149.92 179.572ZM1141.11 178.578H1108.54V191.398H1141.11V178.578Z" fill="white" fill-opacity="0.05"/>
<path d="M549.062 14.1562H587.031C594.677 14.1562 600.552 18.2708 604.656 26.5C605.427 28.9792 605.812 30.8854 605.812 32.2188V59H569.188C560.271 59 553.948 54.6562 550.219 45.9688C549.448 43.7812 549.062 41.6458 549.062 39.5625V14.1562ZM554.781 19.875V39.0938C554.781 46.1562 558.521 50.8125 566 53.0625C567.562 53.2083 568.781 53.2812 569.656 53.2812H600.094V32.9062C600.094 27.1354 596.812 22.9479 590.25 20.3438C589.104 20.0312 588.031 19.875 587.031 19.875H554.781ZM611.562 14.1562H647.938C657.458 14.1562 663.938 18.6562 667.375 27.6562C668 29.6354 668.312 31.5417 668.312 33.375V42.5312H642.688V59H636.969V42.5312H632.156C622.552 42.5312 615.99 38.1042 612.469 29.25C611.865 27.2708 611.562 25.3646 611.562 23.5312V14.1562ZM617.281 19.875V23.3125C617.281 29.3542 620.708 33.6979 627.562 36.3438C629.479 36.6562 631.083 36.8125 632.375 36.8125H636.969V19.875H617.281ZM642.688 19.875V36.8125H662.594V34.2812C662.594 26.8229 658.698 22.0938 650.906 20.0938C649.948 19.9479 648.885 19.875 647.719 19.875H642.688ZM674.062 14.0312H679.812V53.25H687.375C688.271 52.2083 697.292 39.1354 714.438 14.0312H731.188V59H725.219V19.7812H717.875C717.083 20.4062 708.062 33.4792 690.812 59H674.062V14.0312ZM736.562 14.1562H742.094V53.4688H778.406V14.1562H783.938V53.4688H793.594V59H736.562V14.1562ZM799.062 14.0312H804.812V53.25H812.375C813.271 52.2083 822.292 39.1354 839.438 14.0312H856.188V59H850.219V19.7812H842.875C842.083 20.4062 833.062 33.4792 815.812 59H799.062V14.0312ZM879.812 14.25H918.406V19.9688H880.281C874.802 19.9688 870.615 23.1667 867.719 29.5625C867.719 30.0625 867.646 30.4375 867.5 30.6875H917.969C918.26 30.7292 918.406 30.8854 918.406 31.1562V59H912.719V36.4062H867.281V59H861.562V33.4375C861.562 25.3958 865.75 19.3854 874.125 15.4062C876.438 14.6354 878.333 14.25 879.812 14.25ZM953.875 14.0312L964.75 59H959.094C958.677 59 957.333 53.7188 955.062 43.1562C954.125 39.9479 952.229 32.2188 949.375 19.9688H939.438C933.771 43.7188 930.615 56.7292 929.969 59H924.062L934.938 14.0312H953.875ZM969.375 14.0312H975.125V30.7812H997.812C1004.77 30.7812 1010.35 34.1458 1014.56 40.875C1016.1 43.6875 1016.88 46.5938 1016.88 49.5938V59H969.375V14.0312ZM975.125 36.5312V53.25H1011.12V49.8125C1011.12 43.8333 1007.69 39.5521 1000.81 36.9688C999.583 36.6771 998.281 36.5312 996.906 36.5312H975.125ZM1022.5 14.1562H1028.16V30.2188H1073.72V14.1562H1079.38V59H1073.72V35.875H1028.16V59H1022.5V14.1562ZM1085 14.1562H1090.72V30.875H1109.03C1115.97 30.875 1121.53 34.2292 1125.72 40.9375C1127.24 43.75 1128 46.6458 1128 49.625V59H1085V14.1562ZM1136.03 14.1562H1141.97V59H1136.03V14.1562ZM1090.72 36.5938V53.2812H1122.28V49.8438C1122.28 43.8646 1118.85 39.5938 1112 37.0312C1110.77 36.7396 1109.47 36.5938 1108.09 36.5938H1090.72ZM1147.5 14.1562H1204.31V19.9062H1147.5V14.1562ZM1147.5 30.7188H1204.31V36.4688H1153.25V40.5938C1153.25 45.5938 1156.24 49.5833 1162.22 52.5625C1163.95 53.0208 1165.32 53.25 1166.34 53.25H1204.06V59H1165.66C1160.3 59 1155.48 56.3958 1151.19 51.1875C1148.73 47.7083 1147.5 44.3333 1147.5 41.0625V30.7188ZM656.719 81.0938H684.562C692.667 81.0938 698.656 84.8542 702.531 92.375C703.76 94.75 704.375 97.5104 704.375 100.656V126H647.5V120.25H656.719V81.0938ZM662.469 86.8438V120.25H698.625V101.125C698.625 94.0625 694.938 89.3854 687.562 87.0938C686.25 86.9271 685.177 86.8438 684.344 86.8438H662.469ZM710 81.1562H747.969C755.615 81.1562 761.49 85.2708 765.594 93.5C766.365 95.9792 766.75 97.8854 766.75 99.2188V126H730.125C721.208 126 714.885 121.656 711.156 112.969C710.385 110.781 710 108.646 710 106.562V81.1562ZM715.719 86.875V106.094C715.719 113.156 719.458 117.812 726.938 120.062C728.5 120.208 729.719 120.281 730.594 120.281H761.031V99.9062C761.031 94.1354 757.75 89.9479 751.188 87.3438C750.042 87.0312 748.969 86.875 747.969 86.875H715.719ZM781.875 81.1562H787.594V97.625H799.281C804.552 97.625 808.594 94.8021 811.406 89.1562C812.156 87.4896 812.531 85.5104 812.531 83.2188V81.1562H818.25V83.6875C818.25 89.1458 816.344 93.875 812.531 97.875C816.448 98.4792 819.958 100.156 823.062 102.906C827.188 106.906 829.25 111.708 829.25 117.312V126H823.531V118.219C823.531 110.99 820.021 106.188 813 103.812C810.979 103.5 808.99 103.344 807.031 103.344H787.594V126H781.875V103.344H772.5V97.625H781.875V81.1562ZM835 81.1562H840.719V97.875H886.031V81.1562H891.75V107C891.75 114.167 888.24 119.812 881.219 123.938C878.573 125.312 875.823 126 872.969 126H835V120.281H872.75C878.625 120.281 882.896 116.927 885.562 110.219C885.875 108.781 886.031 107.635 886.031 106.781V103.594H835V81.1562ZM897.5 81.0625H912.156C912.156 81.5417 915.156 92.8125 921.156 114.875H930.844C930.844 114.521 933.844 103.25 939.844 81.0625H954.5V126H948.812V86.9688H944.562C944.188 86.9688 942.615 92.6458 939.844 104C939.531 104.812 937.948 110.417 935.094 120.812H916.656L907.656 86.9688H903.406V126H897.5V81.0625ZM960 81.1562H1016.81V86.9062H960V81.1562ZM960 97.7188H1016.81V103.469H965.75V107.594C965.75 112.594 968.74 116.583 974.719 119.562C976.448 120.021 977.823 120.25 978.844 120.25H1016.56V126H978.156C972.802 126 967.979 123.396 963.688 118.188C961.229 114.708 960 111.333 960 108.062V97.7188ZM1022.5 81.1562H1028.16V97.2188H1073.72V81.1562H1079.38V126H1073.72V102.875H1028.16V126H1022.5V81.1562ZM1085 81.1562H1141.75V86.875H1116.34V125.531C1116.34 125.844 1116.19 126 1115.88 126H1110.62V86.875H1085V81.1562ZM1147.5 81.1562H1153.22V97.875H1171.53C1178.47 97.875 1184.03 101.229 1188.22 107.938C1189.74 110.75 1190.5 113.646 1190.5 116.625V126H1147.5V81.1562ZM1198.53 81.1562H1204.47V126H1198.53V81.1562ZM1153.22 103.594V120.281H1184.78V116.844C1184.78 110.865 1181.35 106.594 1174.5 104.031C1173.27 103.74 1171.97 103.594 1170.59 103.594H1153.22Z" fill="white"/>
<path d="M549.062 14.1562V10.4062H545.312V14.1562H549.062ZM604.656 26.5L608.237 25.3866L608.147 25.0974L608.012 24.8263L604.656 26.5ZM605.812 59V62.75H609.562V59H605.812ZM550.219 45.9688L546.682 47.2151L546.723 47.333L546.773 47.4479L550.219 45.9688ZM554.781 19.875V16.125H551.031V19.875H554.781ZM566 53.0625L564.92 56.6535L565.278 56.7615L565.652 56.7963L566 53.0625ZM600.094 53.2812V57.0312H603.844V53.2812H600.094ZM590.25 20.3438L591.633 16.8582L591.439 16.781L591.237 16.7259L590.25 20.3438ZM549.062 17.9062H587.031V10.4062H549.062V17.9062ZM587.031 17.9062C590.138 17.9062 592.756 18.7279 595.021 20.3138C597.322 21.9256 599.451 24.4644 601.3 28.1737L608.012 24.8263C605.758 20.3064 602.897 16.6733 599.323 14.1706C595.713 11.6419 591.57 10.4062 587.031 10.4062V17.9062ZM601.075 27.6134C601.819 30.0053 602.062 31.4699 602.062 32.2188H609.562C609.562 30.3009 609.035 27.953 608.237 25.3866L601.075 27.6134ZM602.062 32.2188V59H609.562V32.2188H602.062ZM605.812 55.25H569.188V62.75H605.812V55.25ZM569.188 55.25C565.361 55.25 562.321 54.3274 559.881 52.6513C557.427 50.965 555.315 48.3334 553.665 44.4896L546.773 47.4479C548.852 52.2916 551.766 56.1757 555.634 58.8331C559.518 61.5007 564.098 62.75 569.188 62.75V55.25ZM553.756 44.7224C553.11 42.8903 552.812 41.1761 552.812 39.5625H545.312C545.312 42.1156 545.786 44.6722 546.682 47.2151L553.756 44.7224ZM552.812 39.5625V14.1562H545.312V39.5625H552.812ZM551.031 19.875V39.0938H558.531V19.875H551.031ZM551.031 39.0938C551.031 43.3165 552.164 47.1205 554.662 50.231C557.133 53.3078 560.675 55.3767 564.92 56.6535L567.08 49.4715C563.846 48.4983 561.778 47.1141 560.51 45.5346C559.268 43.9888 558.531 41.9335 558.531 39.0938H551.031ZM565.652 56.7963C567.255 56.9459 568.608 57.0312 569.656 57.0312V49.5312C568.954 49.5312 567.87 49.4708 566.348 49.3287L565.652 56.7963ZM569.656 57.0312H600.094V49.5312H569.656V57.0312ZM603.844 53.2812V32.9062H596.344V53.2812H603.844ZM603.844 32.9062C603.844 29.258 602.787 25.9356 600.585 23.1246C598.421 20.3638 595.336 18.3276 591.633 16.8582L588.867 23.8293C591.726 24.9641 593.563 26.3237 594.681 27.7504C595.76 29.1269 596.344 30.7837 596.344 32.9062H603.844ZM591.237 16.7259C589.828 16.3416 588.42 16.125 587.031 16.125V23.625C587.642 23.625 588.381 23.7209 589.263 23.9616L591.237 16.7259ZM587.031 16.125H554.781V23.625H587.031V16.125ZM611.562 14.1562V10.4062H607.812V14.1562H611.562ZM667.375 27.6562L670.951 26.527L670.918 26.4215L670.878 26.3182L667.375 27.6562ZM668.312 42.5312V46.2812H672.062V42.5312H668.312ZM642.688 42.5312V38.7812H638.938V42.5312H642.688ZM642.688 59V62.75H646.438V59H642.688ZM636.969 59H633.219V62.75H636.969V59ZM636.969 42.5312H640.719V38.7812H636.969V42.5312ZM612.469 29.25L608.882 30.3449L608.927 30.4923L608.984 30.6356L612.469 29.25ZM617.281 19.875V16.125H613.531V19.875H617.281ZM627.562 36.3438L626.212 39.8421L626.575 39.9823L626.959 40.0449L627.562 36.3438ZM636.969 36.8125V40.5625H640.719V36.8125H636.969ZM636.969 19.875H640.719V16.125H636.969V19.875ZM642.688 19.875V16.125H638.938V19.875H642.688ZM642.688 36.8125H638.938V40.5625H642.688V36.8125ZM662.594 36.8125V40.5625H666.344V36.8125H662.594ZM650.906 20.0938L651.839 16.4615L651.656 16.4147L651.47 16.3864L650.906 20.0938ZM611.562 17.9062H647.938V10.4062H611.562V17.9062ZM647.938 17.9062C652.094 17.9062 655.307 18.8811 657.798 20.6113C660.293 22.3438 662.362 25.0411 663.872 28.9943L670.878 26.3182C668.951 21.2714 666.061 17.2187 662.077 14.4512C658.089 11.6814 653.302 10.4062 647.938 10.4062V17.9062ZM663.799 28.7855C664.324 30.4468 664.562 31.9716 664.562 33.375H672.062C672.062 31.1118 671.676 28.824 670.951 26.527L663.799 28.7855ZM664.562 33.375V42.5312H672.062V33.375H664.562ZM668.312 38.7812H642.688V46.2812H668.312V38.7812ZM638.938 42.5312V59H646.438V42.5312H638.938ZM642.688 55.25H636.969V62.75H642.688V55.25ZM640.719 59V42.5312H633.219V59H640.719ZM636.969 38.7812H632.156V46.2812H636.969V38.7812ZM632.156 38.7812C627.94 38.7812 624.669 37.8158 622.128 36.1022C619.59 34.39 617.493 31.7357 615.953 27.8644L608.984 30.6356C610.966 35.6185 613.91 39.6048 617.934 42.3197C621.956 45.0331 626.768 46.2812 632.156 46.2812V38.7812ZM616.055 28.1551C615.546 26.4859 615.312 24.9493 615.312 23.5312H607.812C607.812 25.7799 608.183 28.0558 608.882 30.3449L616.055 28.1551ZM615.312 23.5312V14.1562H607.812V23.5312H615.312ZM613.531 19.875V23.3125H621.031V19.875H613.531ZM613.531 23.3125C613.531 27.0937 614.623 30.5288 616.908 33.4243C619.152 36.2696 622.357 38.3542 626.212 39.8421L628.913 32.8454C625.913 31.6874 623.978 30.2773 622.796 28.7788C621.653 27.3306 621.031 25.573 621.031 23.3125H613.531ZM626.959 40.0449C628.986 40.3754 630.808 40.5625 632.375 40.5625V33.0625C631.359 33.0625 629.972 32.9371 628.166 32.6426L626.959 40.0449ZM632.375 40.5625H636.969V33.0625H632.375V40.5625ZM640.719 36.8125V19.875H633.219V36.8125H640.719ZM636.969 16.125H617.281V23.625H636.969V16.125ZM638.938 19.875V36.8125H646.438V19.875H638.938ZM642.688 40.5625H662.594V33.0625H642.688V40.5625ZM666.344 36.8125V34.2812H658.844V36.8125H666.344ZM666.344 34.2812C666.344 29.8779 665.18 25.9293 662.566 22.7563C659.976 19.6115 656.264 17.5976 651.839 16.4615L649.974 23.726C653.34 24.5899 655.472 25.9405 656.778 27.525C658.059 29.0811 658.844 31.2262 658.844 34.2812H666.344ZM651.47 16.3864C650.292 16.2072 649.038 16.125 647.719 16.125V23.625C648.733 23.625 649.604 23.6887 650.342 23.8011L651.47 16.3864ZM647.719 16.125H642.688V23.625H647.719V16.125ZM674.062 14.0312V10.2812H670.312V14.0312H674.062ZM679.812 14.0312H683.562V10.2812H679.812V14.0312ZM679.812 53.25H676.062V57H679.812V53.25ZM687.375 53.25V57H689.096L690.218 55.6951L687.375 53.25ZM714.438 14.0312V10.2812H712.458L711.341 11.9163L714.438 14.0312ZM731.188 14.0312H734.938V10.2812H731.188V14.0312ZM731.188 59V62.75H734.938V59H731.188ZM725.219 59H721.469V62.75H725.219V59ZM725.219 19.7812H728.969V16.0312H725.219V19.7812ZM717.875 19.7812V16.0312H716.573L715.551 16.8379L717.875 19.7812ZM690.812 59V62.75H692.804L693.919 61.1L690.812 59ZM674.062 59H670.312V62.75H674.062V59ZM674.062 17.7812H679.812V10.2812H674.062V17.7812ZM676.062 14.0312V53.25H683.562V14.0312H676.062ZM679.812 57H687.375V49.5H679.812V57ZM690.218 55.6951C690.596 55.2562 691.468 54.0351 692.639 52.3687C693.887 50.5914 695.642 48.0649 697.899 44.7939C702.415 38.2499 708.96 28.6997 717.534 16.1462L711.341 11.9163C702.769 24.467 696.231 34.0053 691.726 40.5343C689.473 43.7997 687.732 46.3058 686.502 48.0571C685.886 48.9338 685.404 49.6123 685.053 50.0986C684.658 50.6443 684.519 50.8198 684.532 50.8049L690.218 55.6951ZM714.438 17.7812H731.188V10.2812H714.438V17.7812ZM727.438 14.0312V59H734.938V14.0312H727.438ZM731.188 55.25H725.219V62.75H731.188V55.25ZM728.969 59V19.7812H721.469V59H728.969ZM725.219 16.0312H717.875V23.5312H725.219V16.0312ZM715.551 16.8379C715.15 17.1547 714.834 17.5422 714.751 17.6414C714.587 17.8384 714.403 18.0724 714.21 18.3256C713.821 18.8367 713.311 19.5334 712.69 20.4002C711.444 22.1396 709.688 24.6514 707.429 27.9249C702.908 34.4766 696.332 44.137 687.706 56.9L693.919 61.1C702.543 48.3421 709.102 38.7057 713.602 32.1845C715.854 28.9216 717.58 26.4528 718.787 24.7678C719.392 23.9223 719.852 23.2958 720.175 22.8727C720.338 22.6587 720.446 22.5229 720.509 22.4472C720.654 22.2738 720.501 22.4859 720.199 22.7246L715.551 16.8379ZM690.812 55.25H674.062V62.75H690.812V55.25ZM677.812 59V14.0312H670.312V59H677.812ZM736.562 14.1562V10.4062H732.812V14.1562H736.562ZM742.094 14.1562H745.844V10.4062H742.094V14.1562ZM742.094 53.4688H738.344V57.2188H742.094V53.4688ZM778.406 53.4688V57.2188H782.156V53.4688H778.406ZM778.406 14.1562V10.4062H774.656V14.1562H778.406ZM783.938 14.1562H787.688V10.4062H783.938V14.1562ZM783.938 53.4688H780.188V57.2188H783.938V53.4688ZM793.594 53.4688H797.344V49.7188H793.594V53.4688ZM793.594 59V62.75H797.344V59H793.594ZM736.562 59H732.812V62.75H736.562V59ZM736.562 17.9062H742.094V10.4062H736.562V17.9062ZM738.344 14.1562V53.4688H745.844V14.1562H738.344ZM742.094 57.2188H778.406V49.7188H742.094V57.2188ZM782.156 53.4688V14.1562H774.656V53.4688H782.156ZM778.406 17.9062H783.938V10.4062H778.406V17.9062ZM780.188 14.1562V53.4688H787.688V14.1562H780.188ZM783.938 57.2188H793.594V49.7188H783.938V57.2188ZM789.844 53.4688V59H797.344V53.4688H789.844ZM793.594 55.25H736.562V62.75H793.594V55.25ZM740.312 59V14.1562H732.812V59H740.312ZM799.062 14.0312V10.2812H795.312V14.0312H799.062ZM804.812 14.0312H808.562V10.2812H804.812V14.0312ZM804.812 53.25H801.062V57H804.812V53.25ZM812.375 53.25V57H814.096L815.218 55.6951L812.375 53.25ZM839.438 14.0312V10.2812H837.458L836.341 11.9163L839.438 14.0312ZM856.188 14.0312H859.938V10.2812H856.188V14.0312ZM856.188 59V62.75H859.938V59H856.188ZM850.219 59H846.469V62.75H850.219V59ZM850.219 19.7812H853.969V16.0312H850.219V19.7812ZM842.875 19.7812V16.0312H841.573L840.551 16.8379L842.875 19.7812ZM815.812 59V62.75H817.804L818.919 61.1L815.812 59ZM799.062 59H795.312V62.75H799.062V59ZM799.062 17.7812H804.812V10.2812H799.062V17.7812ZM801.062 14.0312V53.25H808.562V14.0312H801.062ZM804.812 57H812.375V49.5H804.812V57ZM815.218 55.6951C815.596 55.2562 816.468 54.0351 817.639 52.3687C818.887 50.5914 820.642 48.0649 822.899 44.7939C827.415 38.2499 833.96 28.6997 842.534 16.1462L836.341 11.9163C827.769 24.467 821.231 34.0053 816.726 40.5343C814.473 43.7997 812.732 46.3058 811.502 48.0571C810.886 48.9338 810.404 49.6123 810.053 50.0986C809.658 50.6443 809.519 50.8198 809.532 50.8049L815.218 55.6951ZM839.438 17.7812H856.188V10.2812H839.438V17.7812ZM852.438 14.0312V59H859.938V14.0312H852.438ZM856.188 55.25H850.219V62.75H856.188V55.25ZM853.969 59V19.7812H846.469V59H853.969ZM850.219 16.0312H842.875V23.5312H850.219V16.0312ZM840.551 16.8379C840.15 17.1547 839.834 17.5422 839.751 17.6414C839.587 17.8384 839.403 18.0724 839.21 18.3256C838.821 18.8367 838.311 19.5334 837.69 20.4002C836.444 22.1396 834.688 24.6514 832.429 27.9249C827.908 34.4766 821.332 44.137 812.706 56.9L818.919 61.1C827.543 48.3421 834.102 38.7057 838.602 32.1845C840.854 28.9216 842.58 26.4528 843.787 24.7678C844.392 23.9223 844.852 23.2958 845.175 22.8727C845.338 22.6587 845.446 22.5229 845.509 22.4472C845.654 22.2738 845.501 22.4859 845.199 22.7246L840.551 16.8379ZM815.812 55.25H799.062V62.75H815.812V55.25ZM802.812 59V14.0312H795.312V59H802.812ZM918.406 14.25H922.156V10.5H918.406V14.25ZM918.406 19.9688V23.7188H922.156V19.9688H918.406ZM867.719 29.5625L864.303 28.0158L863.969 28.7531V29.5625H867.719ZM867.5 30.6875L864.261 28.798L860.971 34.4375H867.5V30.6875ZM917.969 30.6875L918.499 26.9752L918.235 26.9375H917.969V30.6875ZM918.406 59V62.75H922.156V59H918.406ZM912.719 59H908.969V62.75H912.719V59ZM912.719 36.4062H916.469V32.6562H912.719V36.4062ZM867.281 36.4062V32.6562H863.531V36.4062H867.281ZM867.281 59V62.75H871.031V59H867.281ZM861.562 59H857.812V62.75H861.562V59ZM874.125 15.4062L872.939 11.8487L872.722 11.921L872.516 12.0191L874.125 15.4062ZM879.812 18H918.406V10.5H879.812V18ZM914.656 14.25V19.9688H922.156V14.25H914.656ZM918.406 16.2188H880.281V23.7188H918.406V16.2188ZM880.281 16.2188C876.754 16.2188 873.53 17.2677 870.755 19.3869C868.032 21.4664 865.924 24.4336 864.303 28.0158L871.135 31.1092C872.409 28.2955 873.843 26.4659 875.307 25.3475C876.72 24.2688 878.329 23.7188 880.281 23.7188V16.2188ZM863.969 29.5625C863.969 29.6413 863.962 29.6106 863.983 29.503C864.003 29.4016 864.066 29.132 864.261 28.798L870.739 32.577C871.382 31.4746 871.469 30.3043 871.469 29.5625H863.969ZM867.5 34.4375H917.969V26.9375H867.5V34.4375ZM917.438 34.3998C917.055 34.345 916.253 34.1419 915.555 33.3946C914.82 32.6068 914.656 31.7066 914.656 31.1562H922.156C922.156 30.335 921.919 29.2213 921.038 28.2772C920.195 27.3737 919.175 27.0717 918.499 26.9752L917.438 34.3998ZM914.656 31.1562V59H922.156V31.1562H914.656ZM918.406 55.25H912.719V62.75H918.406V55.25ZM916.469 59V36.4062H908.969V59H916.469ZM912.719 32.6562H867.281V40.1562H912.719V32.6562ZM863.531 36.4062V59H871.031V36.4062H863.531ZM867.281 55.25H861.562V62.75H867.281V55.25ZM865.312 59V33.4375H857.812V59H865.312ZM865.312 33.4375C865.312 30.1047 866.167 27.3569 867.78 25.0421C869.414 22.6962 871.982 20.5762 875.734 18.7934L872.516 12.0191C867.893 14.2154 864.179 17.0902 861.626 20.7548C859.051 24.4504 857.812 28.7286 857.812 33.4375H865.312ZM875.311 18.9638C877.455 18.2491 878.913 18 879.812 18V10.5C877.754 10.5 875.42 11.0217 872.939 11.8487L875.311 18.9638ZM953.875 14.0312L957.52 13.1498L956.826 10.2812H953.875V14.0312ZM964.75 59V62.75H969.515L968.395 58.1185L964.75 59ZM955.062 43.1562L958.729 42.368L958.7 42.235L958.662 42.1045L955.062 43.1562ZM949.375 19.9688L953.027 19.1178L952.352 16.2188H949.375V19.9688ZM939.438 19.9688V16.2188H936.477L935.79 19.0984L939.438 19.9688ZM929.969 59V62.75H932.801L933.576 60.0258L929.969 59ZM924.062 59L920.418 58.1185L919.298 62.75H924.062V59ZM934.938 14.0312V10.2812H931.986L931.293 13.1498L934.938 14.0312ZM950.23 14.9127L961.105 59.8815L968.395 58.1185L957.52 13.1498L950.23 14.9127ZM964.75 55.25H959.094V62.75H964.75V55.25ZM959.094 55.25C960.091 55.25 960.816 55.6435 961.193 55.9059C961.572 56.1695 961.811 56.4437 961.923 56.5836C962.147 56.8604 962.253 57.0856 962.26 57.0993C962.292 57.1648 962.26 57.1083 962.165 56.8239C961.989 56.2966 961.738 55.413 961.408 54.1144C960.754 51.544 959.862 47.6387 958.729 42.368L951.396 43.9445C952.534 49.2363 953.449 53.2529 954.139 55.9637C954.481 57.3058 954.786 58.4026 955.05 59.1956C955.175 59.5714 955.334 60.01 955.528 60.4055C955.616 60.5843 955.796 60.9333 956.086 61.2926C956.232 61.4737 956.502 61.7789 956.911 62.0632C957.318 62.3462 958.071 62.75 959.094 62.75V55.25ZM958.662 42.1045C957.76 39.0173 955.889 31.4014 953.027 19.1178L945.723 20.8197C948.569 33.0361 950.49 40.8785 951.463 44.208L958.662 42.1045ZM949.375 16.2188H939.438V23.7188H949.375V16.2188ZM935.79 19.0984C930.107 42.9176 926.979 55.8048 926.362 57.9742L933.576 60.0258C934.25 57.6535 937.435 44.5199 943.085 20.8391L935.79 19.0984ZM929.969 55.25H924.062V62.75H929.969V55.25ZM927.707 59.8815L938.582 14.9127L931.293 13.1498L920.418 58.1185L927.707 59.8815ZM934.938 17.7812H953.875V10.2812H934.938V17.7812ZM969.375 14.0312V10.2812H965.625V14.0312H969.375ZM975.125 14.0312H978.875V10.2812H975.125V14.0312ZM975.125 30.7812H971.375V34.5312H975.125V30.7812ZM1014.56 40.875L1017.85 39.0725L1017.8 38.978L1017.74 38.8866L1014.56 40.875ZM1016.88 59V62.75H1020.62V59H1016.88ZM969.375 59H965.625V62.75H969.375V59ZM975.125 36.5312V32.7812H971.375V36.5312H975.125ZM975.125 53.25H971.375V57H975.125V53.25ZM1011.12 53.25V57H1014.88V53.25H1011.12ZM1000.81 36.9688L1002.13 33.4584L1001.91 33.3749L1001.68 33.3201L1000.81 36.9688ZM969.375 17.7812H975.125V10.2812H969.375V17.7812ZM971.375 14.0312V30.7812H978.875V14.0312H971.375ZM975.125 34.5312H997.812V27.0312H975.125V34.5312ZM997.812 34.5312C1003.28 34.5312 1007.75 37.0481 1011.38 42.8634L1017.74 38.8866C1012.96 31.2436 1006.26 27.0312 997.812 27.0312V34.5312ZM1011.27 42.6775C1012.53 44.9769 1013.12 47.2672 1013.12 49.5938H1020.62C1020.62 45.9203 1019.67 42.3981 1017.85 39.0725L1011.27 42.6775ZM1013.12 49.5938V59H1020.62V49.5938H1013.12ZM1016.88 55.25H969.375V62.75H1016.88V55.25ZM973.125 59V14.0312H965.625V59H973.125ZM971.375 36.5312V53.25H978.875V36.5312H971.375ZM975.125 57H1011.12V49.5H975.125V57ZM1014.88 53.25V49.8125H1007.38V53.25H1014.88ZM1014.88 49.8125C1014.88 46.0502 1013.77 42.6364 1011.47 39.7694C1009.21 36.956 1005.99 34.9093 1002.13 33.4584L999.493 40.4791C1002.51 41.6115 1004.44 42.9971 1005.62 44.465C1006.76 45.8792 1007.38 47.5956 1007.38 49.8125H1014.88ZM1001.68 33.3201C1000.14 32.9554 998.547 32.7812 996.906 32.7812V40.2812C998.015 40.2812 999.025 40.3987 999.947 40.6174L1001.68 33.3201ZM996.906 32.7812H975.125V40.2812H996.906V32.7812ZM1022.5 14.1562V10.4062H1018.75V14.1562H1022.5ZM1028.16 14.1562H1031.91V10.4062H1028.16V14.1562ZM1028.16 30.2188H1024.41V33.9688H1028.16V30.2188ZM1073.72 30.2188V33.9688H1077.47V30.2188H1073.72ZM1073.72 14.1562V10.4062H1069.97V14.1562H1073.72ZM1079.38 14.1562H1083.12V10.4062H1079.38V14.1562ZM1079.38 59V62.75H1083.12V59H1079.38ZM1073.72 59H1069.97V62.75H1073.72V59ZM1073.72 35.875H1077.47V32.125H1073.72V35.875ZM1028.16 35.875V32.125H1024.41V35.875H1028.16ZM1028.16 59V62.75H1031.91V59H1028.16ZM1022.5 59H1018.75V62.75H1022.5V59ZM1022.5 17.9062H1028.16V10.4062H1022.5V17.9062ZM1024.41 14.1562V30.2188H1031.91V14.1562H1024.41ZM1028.16 33.9688H1073.72V26.4688H1028.16V33.9688ZM1077.47 30.2188V14.1562H1069.97V30.2188H1077.47ZM1073.72 17.9062H1079.38V10.4062H1073.72V17.9062ZM1075.62 14.1562V59H1083.12V14.1562H1075.62ZM1079.38 55.25H1073.72V62.75H1079.38V55.25ZM1077.47 59V35.875H1069.97V59H1077.47ZM1073.72 32.125H1028.16V39.625H1073.72V32.125ZM1024.41 35.875V59H1031.91V35.875H1024.41ZM1028.16 55.25H1022.5V62.75H1028.16V55.25ZM1026.25 59V14.1562H1018.75V59H1026.25ZM1085 14.1562V10.4062H1081.25V14.1562H1085ZM1090.72 14.1562H1094.47V10.4062H1090.72V14.1562ZM1090.72 30.875H1086.97V34.625H1090.72V30.875ZM1125.72 40.9375L1129.02 39.1538L1128.96 39.051L1128.9 38.9518L1125.72 40.9375ZM1128 59V62.75H1131.75V59H1128ZM1085 59H1081.25V62.75H1085V59ZM1136.03 14.1562V10.4062H1132.28V14.1562H1136.03ZM1141.97 14.1562H1145.72V10.4062H1141.97V14.1562ZM1141.97 59V62.75H1145.72V59H1141.97ZM1136.03 59H1132.28V62.75H1136.03V59ZM1090.72 36.5938V32.8438H1086.97V36.5938H1090.72ZM1090.72 53.2812H1086.97V57.0312H1090.72V53.2812ZM1122.28 53.2812V57.0312H1126.03V53.2812H1122.28ZM1112 37.0312L1113.31 33.5187L1113.09 33.4367L1112.87 33.3826L1112 37.0312ZM1085 17.9062H1090.72V10.4062H1085V17.9062ZM1086.97 14.1562V30.875H1094.47V14.1562H1086.97ZM1090.72 34.625H1109.03V27.125H1090.72V34.625ZM1109.03 34.625C1114.47 34.625 1118.92 37.1308 1122.54 42.9232L1128.9 38.9518C1124.14 31.3275 1117.46 27.125 1109.03 27.125V34.625ZM1122.42 42.7212C1123.67 45.0271 1124.25 47.3139 1124.25 49.625H1131.75C1131.75 45.9777 1130.81 42.4729 1129.02 39.1538L1122.42 42.7212ZM1124.25 49.625V59H1131.75V49.625H1124.25ZM1128 55.25H1085V62.75H1128V55.25ZM1088.75 59V14.1562H1081.25V59H1088.75ZM1136.03 17.9062H1141.97V10.4062H1136.03V17.9062ZM1138.22 14.1562V59H1145.72V14.1562H1138.22ZM1141.97 55.25H1136.03V62.75H1141.97V55.25ZM1139.78 59V14.1562H1132.28V59H1139.78ZM1086.97 36.5938V53.2812H1094.47V36.5938H1086.97ZM1090.72 57.0312H1122.28V49.5312H1090.72V57.0312ZM1126.03 53.2812V49.8438H1118.53V53.2812H1126.03ZM1126.03 49.8438C1126.03 46.0844 1124.93 42.6728 1122.64 39.8093C1120.38 36.9989 1117.17 34.9593 1113.31 33.5187L1110.69 40.5438C1113.69 41.6657 1115.61 43.0428 1116.79 44.5032C1117.92 45.9105 1118.53 47.6239 1118.53 49.8438H1126.03ZM1112.87 33.3826C1111.33 33.0179 1109.73 32.8438 1108.09 32.8438V40.3438C1109.2 40.3438 1110.21 40.4612 1111.13 40.6799L1112.87 33.3826ZM1108.09 32.8438H1090.72V40.3438H1108.09V32.8438ZM1147.5 14.1562V10.4062H1143.75V14.1562H1147.5ZM1204.31 14.1562H1208.06V10.4062H1204.31V14.1562ZM1204.31 19.9062V23.6562H1208.06V19.9062H1204.31ZM1147.5 19.9062H1143.75V23.6562H1147.5V19.9062ZM1147.5 30.7188V26.9688H1143.75V30.7188H1147.5ZM1204.31 30.7188H1208.06V26.9688H1204.31V30.7188ZM1204.31 36.4688V40.2188H1208.06V36.4688H1204.31ZM1153.25 36.4688V32.7188H1149.5V36.4688H1153.25ZM1162.22 52.5625L1160.55 55.9189L1160.89 56.0894L1161.26 56.1873L1162.22 52.5625ZM1204.06 53.25H1207.81V49.5H1204.06V53.25ZM1204.06 59V62.75H1207.81V59H1204.06ZM1151.19 51.1875L1148.12 53.3515L1148.21 53.465L1148.29 53.5722L1151.19 51.1875ZM1147.5 17.9062H1204.31V10.4062H1147.5V17.9062ZM1200.56 14.1562V19.9062H1208.06V14.1562H1200.56ZM1204.31 16.1562H1147.5V23.6562H1204.31V16.1562ZM1151.25 19.9062V14.1562H1143.75V19.9062H1151.25ZM1147.5 34.4688H1204.31V26.9688H1147.5V34.4688ZM1200.56 30.7188V36.4688H1208.06V30.7188H1200.56ZM1204.31 32.7188H1153.25V40.2188H1204.31V32.7188ZM1149.5 36.4688V40.5938H1157V36.4688H1149.5ZM1149.5 40.5938C1149.5 47.5001 1153.79 52.5548 1160.55 55.9189L1163.89 49.2061C1158.68 46.6119 1157 43.6874 1157 40.5938H1149.5ZM1161.26 56.1873C1163.1 56.6765 1164.84 57 1166.34 57V49.5C1165.8 49.5 1164.79 49.3652 1163.18 48.9377L1161.26 56.1873ZM1166.34 57H1204.06V49.5H1166.34V57ZM1200.31 53.25V59H1207.81V53.25H1200.31ZM1204.06 55.25H1165.66V62.75H1204.06V55.25ZM1165.66 55.25C1161.71 55.25 1157.86 53.3915 1154.08 48.8028L1148.29 53.5722C1153.1 59.4001 1158.9 62.75 1165.66 62.75V55.25ZM1154.25 49.0235C1152.1 45.987 1151.25 43.354 1151.25 41.0625H1143.75C1143.75 45.3127 1145.35 49.4297 1148.12 53.3515L1154.25 49.0235ZM1151.25 41.0625V30.7188H1143.75V41.0625H1151.25ZM656.719 81.0938V77.3438H652.969V81.0938H656.719ZM702.531 92.375L699.198 94.0926L699.201 94.0986L702.531 92.375ZM704.375 126V129.75H708.125V126H704.375ZM647.5 126H643.75V129.75H647.5V126ZM647.5 120.25V116.5H643.75V120.25H647.5ZM656.719 120.25V124H660.469V120.25H656.719ZM662.469 86.8438V83.0938H658.719V86.8438H662.469ZM662.469 120.25H658.719V124H662.469V120.25ZM698.625 120.25V124H702.375V120.25H698.625ZM687.562 87.0938L688.675 83.5127L688.361 83.4151L688.035 83.3736L687.562 87.0938ZM656.719 84.8438H684.562V77.3438H656.719V84.8438ZM684.562 84.8438C688.014 84.8438 690.825 85.6372 693.139 87.09C695.462 88.5485 697.507 90.8118 699.198 94.0926L705.865 90.6574C703.68 86.4174 700.793 83.04 697.127 80.7381C693.451 78.4305 689.215 77.3438 684.562 77.3438V84.8438ZM699.201 94.0986C700.11 95.8544 700.625 98.0046 700.625 100.656H708.125C708.125 97.0162 707.411 93.6456 705.862 90.6514L699.201 94.0986ZM700.625 100.656V126H708.125V100.656H700.625ZM704.375 122.25H647.5V129.75H704.375V122.25ZM651.25 126V120.25H643.75V126H651.25ZM647.5 124H656.719V116.5H647.5V124ZM660.469 120.25V81.0938H652.969V120.25H660.469ZM658.719 86.8438V120.25H666.219V86.8438H658.719ZM662.469 124H698.625V116.5H662.469V124ZM702.375 120.25V101.125H694.875V120.25H702.375ZM702.375 101.125C702.375 96.9139 701.262 93.1159 698.804 89.9986C696.37 86.9107 692.874 84.8172 688.675 83.5127L686.45 90.6748C689.626 91.662 691.662 93.0529 692.915 94.6421C694.144 96.2018 694.875 98.2736 694.875 101.125H702.375ZM688.035 83.3736C686.645 83.1972 685.399 83.0938 684.344 83.0938V90.5938C684.955 90.5938 685.855 90.657 687.09 90.8139L688.035 83.3736ZM684.344 83.0938H662.469V90.5938H684.344V83.0938ZM710 81.1562V77.4062H706.25V81.1562H710ZM765.594 93.5L769.175 92.3866L769.085 92.0974L768.95 91.8263L765.594 93.5ZM766.75 126V129.75H770.5V126H766.75ZM711.156 112.969L707.619 114.215L707.661 114.333L707.71 114.448L711.156 112.969ZM715.719 86.875V83.125H711.969V86.875H715.719ZM726.938 120.062L725.857 123.654L726.216 123.761L726.589 123.796L726.938 120.062ZM761.031 120.281V124.031H764.781V120.281H761.031ZM751.188 87.3438L752.571 83.8582L752.376 83.781L752.174 83.7259L751.188 87.3438ZM710 84.9062H747.969V77.4062H710V84.9062ZM747.969 84.9062C751.076 84.9062 753.694 85.7279 755.958 87.3138C758.26 88.9256 760.388 91.4644 762.238 95.1737L768.95 91.8263C766.695 87.3064 763.834 83.6733 760.261 81.1706C756.65 78.6419 752.508 77.4062 747.969 77.4062V84.9062ZM762.013 94.6134C762.757 97.0053 763 98.4699 763 99.2188H770.5C770.5 97.3009 769.973 94.953 769.175 92.3866L762.013 94.6134ZM763 99.2188V126H770.5V99.2188H763ZM766.75 122.25H730.125V129.75H766.75V122.25ZM730.125 122.25C726.298 122.25 723.259 121.327 720.819 119.651C718.364 117.965 716.252 115.333 714.602 111.49L707.71 114.448C709.789 119.292 712.704 123.176 716.572 125.833C720.455 128.501 725.035 129.75 730.125 129.75V122.25ZM714.693 111.722C714.047 109.89 713.75 108.176 713.75 106.562H706.25C706.25 109.116 706.723 111.672 707.619 114.215L714.693 111.722ZM713.75 106.562V81.1562H706.25V106.562H713.75ZM711.969 86.875V106.094H719.469V86.875H711.969ZM711.969 106.094C711.969 110.316 713.102 114.121 715.6 117.231C718.071 120.308 721.613 122.377 725.857 123.654L728.018 116.471C724.783 115.498 722.716 114.114 721.447 112.535C720.206 110.989 719.469 108.934 719.469 106.094H711.969ZM726.589 123.796C728.192 123.946 729.546 124.031 730.594 124.031V116.531C729.892 116.531 728.808 116.471 727.286 116.329L726.589 123.796ZM730.594 124.031H761.031V116.531H730.594V124.031ZM764.781 120.281V99.9062H757.281V120.281H764.781ZM764.781 99.9062C764.781 96.258 763.725 92.9356 761.522 90.1246C759.359 87.3638 756.274 85.3276 752.571 83.8582L749.804 90.8293C752.664 91.9641 754.501 93.3237 755.619 94.7504C756.697 96.1269 757.281 97.7837 757.281 99.9062H764.781ZM752.174 83.7259C750.765 83.3416 749.358 83.125 747.969 83.125V90.625C748.58 90.625 749.318 90.7209 750.201 90.9616L752.174 83.7259ZM747.969 83.125H715.719V90.625H747.969V83.125ZM781.875 81.1562V77.4062H778.125V81.1562H781.875ZM787.594 81.1562H791.344V77.4062H787.594V81.1562ZM787.594 97.625H783.844V101.375H787.594V97.625ZM811.406 89.1562L814.763 90.8283L814.796 90.7624L814.826 90.6951L811.406 89.1562ZM812.531 81.1562V77.4062H808.781V81.1562H812.531ZM818.25 81.1562H822V77.4062H818.25V81.1562ZM812.531 97.875L809.817 95.2877L804.862 100.486L811.96 101.581L812.531 97.875ZM823.062 102.906L825.673 100.214L825.612 100.155L825.549 100.099L823.062 102.906ZM829.25 126V129.75H833V126H829.25ZM823.531 126H819.781V129.75H823.531V126ZM813 103.812L814.202 100.26L813.894 100.156L813.573 100.107L813 103.812ZM787.594 103.344V99.5938H783.844V103.344H787.594ZM787.594 126V129.75H791.344V126H787.594ZM781.875 126H778.125V129.75H781.875V126ZM781.875 103.344H785.625V99.5938H781.875V103.344ZM772.5 103.344H768.75V107.094H772.5V103.344ZM772.5 97.625V93.875H768.75V97.625H772.5ZM781.875 97.625V101.375H785.625V97.625H781.875ZM781.875 84.9062H787.594V77.4062H781.875V84.9062ZM783.844 81.1562V97.625H791.344V81.1562H783.844ZM787.594 101.375H799.281V93.875H787.594V101.375ZM799.281 101.375C802.629 101.375 805.718 100.464 808.413 98.5822C811.072 96.7251 813.153 94.0594 814.763 90.8283L808.05 87.4842C806.847 89.8989 805.501 91.4676 804.118 92.4335C802.772 93.3741 801.205 93.875 799.281 93.875V101.375ZM814.826 90.6951C815.842 88.4383 816.281 85.9104 816.281 83.2188H808.781C808.781 85.1104 808.471 86.5409 807.987 87.6174L814.826 90.6951ZM816.281 83.2188V81.1562H808.781V83.2188H816.281ZM812.531 84.9062H818.25V77.4062H812.531V84.9062ZM814.5 81.1562V83.6875H822V81.1562H814.5ZM814.5 83.6875C814.5 88.1692 812.974 91.9755 809.817 95.2877L815.246 100.462C819.714 95.7745 822 90.1225 822 83.6875H814.5ZM811.96 101.581C815.131 102.07 817.984 103.417 820.576 105.713L825.549 100.099C821.933 96.8953 817.765 94.888 813.103 94.1688L811.96 101.581ZM820.452 105.598C823.869 108.912 825.5 112.751 825.5 117.312H833C833 110.665 830.506 104.9 825.673 100.214L820.452 105.598ZM825.5 117.312V126H833V117.312H825.5ZM829.25 122.25H823.531V129.75H829.25V122.25ZM827.281 126V118.219H819.781V126H827.281ZM827.281 118.219C827.281 113.983 826.244 110.154 823.926 106.982C821.613 103.819 818.262 101.634 814.202 100.26L811.798 107.365C814.758 108.366 816.673 109.77 817.871 111.408C819.063 113.039 819.781 115.225 819.781 118.219H827.281ZM813.573 100.107C811.371 99.766 809.19 99.5938 807.031 99.5938V107.094C808.789 107.094 810.587 107.234 812.427 107.518L813.573 100.107ZM807.031 99.5938H787.594V107.094H807.031V99.5938ZM783.844 103.344V126H791.344V103.344H783.844ZM787.594 122.25H781.875V129.75H787.594V122.25ZM785.625 126V103.344H778.125V126H785.625ZM781.875 99.5938H772.5V107.094H781.875V99.5938ZM776.25 103.344V97.625H768.75V103.344H776.25ZM772.5 101.375H781.875V93.875H772.5V101.375ZM785.625 97.625V81.1562H778.125V97.625H785.625ZM835 81.1562V77.4062H831.25V81.1562H835ZM840.719 81.1562H844.469V77.4062H840.719V81.1562ZM840.719 97.875H836.969V101.625H840.719V97.875ZM886.031 97.875V101.625H889.781V97.875H886.031ZM886.031 81.1562V77.4062H882.281V81.1562H886.031ZM891.75 81.1562H895.5V77.4062H891.75V81.1562ZM881.219 123.938L882.948 127.265L883.034 127.22L883.118 127.171L881.219 123.938ZM835 126H831.25V129.75H835V126ZM835 120.281V116.531H831.25V120.281H835ZM885.562 110.219L889.047 111.604L889.161 111.317L889.227 111.015L885.562 110.219ZM886.031 103.594H889.781V99.8438H886.031V103.594ZM835 103.594H831.25V107.344H835V103.594ZM835 84.9062H840.719V77.4062H835V84.9062ZM836.969 81.1562V97.875H844.469V81.1562H836.969ZM840.719 101.625H886.031V94.125H840.719V101.625ZM889.781 97.875V81.1562H882.281V97.875H889.781ZM886.031 84.9062H891.75V77.4062H886.031V84.9062ZM888 81.1562V107H895.5V81.1562H888ZM888 107C888 112.634 885.381 117.143 879.319 120.704L883.118 127.171C891.099 122.482 895.5 115.7 895.5 107H888ZM879.49 120.61C877.353 121.72 875.194 122.25 872.969 122.25V129.75C876.452 129.75 879.793 128.905 882.948 127.265L879.49 120.61ZM872.969 122.25H835V129.75H872.969V122.25ZM838.75 126V120.281H831.25V126H838.75ZM835 124.031H872.75V116.531H835V124.031ZM872.75 124.031C876.454 124.031 879.824 122.954 882.676 120.715C885.476 118.516 887.547 115.377 889.047 111.604L882.078 108.834C880.911 111.769 879.514 113.662 878.043 114.816C876.624 115.931 874.921 116.531 872.75 116.531V124.031ZM889.227 111.015C889.562 109.475 889.781 108.028 889.781 106.781H882.281C882.281 107.243 882.188 108.088 881.898 109.422L889.227 111.015ZM889.781 106.781V103.594H882.281V106.781H889.781ZM886.031 99.8438H835V107.344H886.031V99.8438ZM838.75 103.594V81.1562H831.25V103.594H838.75ZM897.5 81.0625V77.3125H893.75V81.0625H897.5ZM912.156 81.0625H915.906V77.3125H912.156V81.0625ZM921.156 114.875L917.538 115.859L918.29 118.625H921.156V114.875ZM930.844 114.875V118.625H934.594V114.875H930.844ZM939.844 81.0625V77.3125H936.973L936.224 80.0836L939.844 81.0625ZM954.5 81.0625H958.25V77.3125H954.5V81.0625ZM954.5 126V129.75H958.25V126H954.5ZM948.812 126H945.062V129.75H948.812V126ZM948.812 86.9688H952.562V83.2188H948.812V86.9688ZM939.844 104L943.344 105.346L943.43 105.122L943.487 104.889L939.844 104ZM935.094 120.812V124.562H937.953L938.71 121.805L935.094 120.812ZM916.656 120.812L913.032 121.776L913.773 124.562H916.656V120.812ZM907.656 86.9688L911.28 86.005L910.539 83.2188H907.656V86.9688ZM903.406 86.9688V83.2188H899.656V86.9688H903.406ZM903.406 126V129.75H907.156V126H903.406ZM897.5 126H893.75V129.75H897.5V126ZM897.5 84.8125H912.156V77.3125H897.5V84.8125ZM908.406 81.0625C908.406 81.4129 908.458 81.7078 908.464 81.7406C908.481 81.8482 908.501 81.9506 908.518 82.0323C908.552 82.1997 908.597 82.3974 908.647 82.6096C908.749 83.0401 908.896 83.6318 909.085 84.373C909.465 85.8606 910.032 88.0186 910.782 90.8396C912.285 96.485 914.537 104.826 917.538 115.859L924.775 113.891C921.775 102.861 919.527 94.5358 918.03 88.9104C917.281 86.096 916.722 83.9675 916.352 82.5176C916.166 81.7901 916.032 81.2503 915.947 80.8865C915.903 80.7016 915.877 80.5864 915.865 80.5253C915.814 80.2768 915.906 80.6271 915.906 81.0625H908.406ZM921.156 118.625H930.844V111.125H921.156V118.625ZM934.594 114.875C934.594 115.13 934.566 115.324 934.562 115.351C934.554 115.416 934.545 115.463 934.543 115.477C934.537 115.508 934.535 115.515 934.543 115.48C934.557 115.416 934.584 115.3 934.628 115.117C934.716 114.757 934.851 114.221 935.037 113.5C935.409 112.061 935.968 109.936 936.718 107.121C938.216 101.493 940.464 93.134 943.464 82.0414L936.224 80.0836C933.223 91.1785 930.972 99.5489 929.47 105.192C928.719 108.012 928.154 110.158 927.775 111.625C927.586 112.357 927.441 112.933 927.341 113.344C927.291 113.547 927.248 113.731 927.215 113.881C927.199 113.954 927.18 114.046 927.162 114.142C927.154 114.189 927.141 114.263 927.13 114.349C927.123 114.399 927.094 114.609 927.094 114.875H934.594ZM939.844 84.8125H954.5V77.3125H939.844V84.8125ZM950.75 81.0625V126H958.25V81.0625H950.75ZM954.5 122.25H948.812V129.75H954.5V122.25ZM952.562 126V86.9688H945.062V126H952.562ZM948.812 83.2188H944.562V90.7188H948.812V83.2188ZM944.562 83.2188C943.366 83.2188 942.546 83.7696 942.202 84.041C941.825 84.338 941.583 84.6433 941.463 84.8057C941.217 85.1386 941.058 85.459 940.979 85.6253C940.802 85.9979 940.644 86.4245 940.51 86.8162C940.228 87.6358 939.886 88.7883 939.488 90.2253C938.685 93.1216 937.588 97.4252 936.201 103.111L943.487 104.889C944.87 99.2207 945.945 95.0086 946.715 92.2278C947.104 90.8263 947.398 89.8498 947.604 89.2503C947.713 88.9323 947.761 88.8266 947.753 88.8445C947.746 88.8576 947.727 88.8989 947.693 88.9589C947.662 89.0134 947.596 89.1257 947.493 89.2649C947.406 89.3829 947.195 89.655 946.846 89.9298C946.53 90.179 945.736 90.7188 944.562 90.7188V83.2188ZM936.344 102.654C936.108 103.267 935.573 105.105 934.813 107.793C934.018 110.608 932.905 114.619 931.478 119.82L938.71 121.805C940.136 116.61 941.243 112.621 942.031 109.832C942.425 108.437 942.737 107.351 942.967 106.57C943.083 106.179 943.175 105.875 943.245 105.651C943.324 105.399 943.352 105.325 943.344 105.346L936.344 102.654ZM935.094 117.062H916.656V124.562H935.094V117.062ZM920.28 119.849L911.28 86.005L904.032 87.9325L913.032 121.776L920.28 119.849ZM907.656 83.2188H903.406V90.7188H907.656V83.2188ZM899.656 86.9688V126H907.156V86.9688H899.656ZM903.406 122.25H897.5V129.75H903.406V122.25ZM901.25 126V81.0625H893.75V126H901.25ZM960 81.1562V77.4062H956.25V81.1562H960ZM1016.81 81.1562H1020.56V77.4062H1016.81V81.1562ZM1016.81 86.9062V90.6562H1020.56V86.9062H1016.81ZM960 86.9062H956.25V90.6562H960V86.9062ZM960 97.7188V93.9688H956.25V97.7188H960ZM1016.81 97.7188H1020.56V93.9688H1016.81V97.7188ZM1016.81 103.469V107.219H1020.56V103.469H1016.81ZM965.75 103.469V99.7188H962V103.469H965.75ZM974.719 119.562L973.046 122.919L973.388 123.089L973.758 123.187L974.719 119.562ZM1016.56 120.25H1020.31V116.5H1016.56V120.25ZM1016.56 126V129.75H1020.31V126H1016.56ZM963.688 118.188L960.625 120.352L960.705 120.465L960.793 120.572L963.688 118.188ZM960 84.9062H1016.81V77.4062H960V84.9062ZM1013.06 81.1562V86.9062H1020.56V81.1562H1013.06ZM1016.81 83.1562H960V90.6562H1016.81V83.1562ZM963.75 86.9062V81.1562H956.25V86.9062H963.75ZM960 101.469H1016.81V93.9688H960V101.469ZM1013.06 97.7188V103.469H1020.56V97.7188H1013.06ZM1016.81 99.7188H965.75V107.219H1016.81V99.7188ZM962 103.469V107.594H969.5V103.469H962ZM962 107.594C962 114.5 966.295 119.555 973.046 122.919L976.391 116.206C971.185 113.612 969.5 110.687 969.5 107.594H962ZM973.758 123.187C975.603 123.676 977.344 124 978.844 124V116.5C978.302 116.5 977.292 116.365 975.68 115.938L973.758 123.187ZM978.844 124H1016.56V116.5H978.844V124ZM1012.81 120.25V126H1020.31V120.25H1012.81ZM1016.56 122.25H978.156V129.75H1016.56V122.25ZM978.156 122.25C974.205 122.25 970.363 120.392 966.582 115.803L960.793 120.572C965.596 126.4 971.399 129.75 978.156 129.75V122.25ZM966.75 116.023C964.605 112.987 963.75 110.354 963.75 108.062H956.25C956.25 112.313 957.854 116.43 960.625 120.352L966.75 116.023ZM963.75 108.062V97.7188H956.25V108.062H963.75ZM1022.5 81.1562V77.4062H1018.75V81.1562H1022.5ZM1028.16 81.1562H1031.91V77.4062H1028.16V81.1562ZM1028.16 97.2188H1024.41V100.969H1028.16V97.2188ZM1073.72 97.2188V100.969H1077.47V97.2188H1073.72ZM1073.72 81.1562V77.4062H1069.97V81.1562H1073.72ZM1079.38 81.1562H1083.12V77.4062H1079.38V81.1562ZM1079.38 126V129.75H1083.12V126H1079.38ZM1073.72 126H1069.97V129.75H1073.72V126ZM1073.72 102.875H1077.47V99.125H1073.72V102.875ZM1028.16 102.875V99.125H1024.41V102.875H1028.16ZM1028.16 126V129.75H1031.91V126H1028.16ZM1022.5 126H1018.75V129.75H1022.5V126ZM1022.5 84.9062H1028.16V77.4062H1022.5V84.9062ZM1024.41 81.1562V97.2188H1031.91V81.1562H1024.41ZM1028.16 100.969H1073.72V93.4688H1028.16V100.969ZM1077.47 97.2188V81.1562H1069.97V97.2188H1077.47ZM1073.72 84.9062H1079.38V77.4062H1073.72V84.9062ZM1075.62 81.1562V126H1083.12V81.1562H1075.62ZM1079.38 122.25H1073.72V129.75H1079.38V122.25ZM1077.47 126V102.875H1069.97V126H1077.47ZM1073.72 99.125H1028.16V106.625H1073.72V99.125ZM1024.41 102.875V126H1031.91V102.875H1024.41ZM1028.16 122.25H1022.5V129.75H1028.16V122.25ZM1026.25 126V81.1562H1018.75V126H1026.25ZM1085 81.1562V77.4062H1081.25V81.1562H1085ZM1141.75 81.1562H1145.5V77.4062H1141.75V81.1562ZM1141.75 86.875V90.625H1145.5V86.875H1141.75ZM1116.34 86.875V83.125H1112.59V86.875H1116.34ZM1110.62 126H1106.88V129.75H1110.62V126ZM1110.62 86.875H1114.38V83.125H1110.62V86.875ZM1085 86.875H1081.25V90.625H1085V86.875ZM1085 84.9062H1141.75V77.4062H1085V84.9062ZM1138 81.1562V86.875H1145.5V81.1562H1138ZM1141.75 83.125H1116.34V90.625H1141.75V83.125ZM1112.59 86.875V125.531H1120.09V86.875H1112.59ZM1112.59 125.531C1112.59 125.109 1112.7 124.104 1113.57 123.231C1114.45 122.358 1115.45 122.25 1115.88 122.25V129.75C1116.61 129.75 1117.85 129.564 1118.88 128.534C1119.91 127.505 1120.09 126.266 1120.09 125.531H1112.59ZM1115.88 122.25H1110.62V129.75H1115.88V122.25ZM1114.38 126V86.875H1106.88V126H1114.38ZM1110.62 83.125H1085V90.625H1110.62V83.125ZM1088.75 86.875V81.1562H1081.25V86.875H1088.75ZM1147.5 81.1562V77.4062H1143.75V81.1562H1147.5ZM1153.22 81.1562H1156.97V77.4062H1153.22V81.1562ZM1153.22 97.875H1149.47V101.625H1153.22V97.875ZM1188.22 107.938L1191.52 106.154L1191.46 106.051L1191.4 105.952L1188.22 107.938ZM1190.5 126V129.75H1194.25V126H1190.5ZM1147.5 126H1143.75V129.75H1147.5V126ZM1198.53 81.1562V77.4062H1194.78V81.1562H1198.53ZM1204.47 81.1562H1208.22V77.4062H1204.47V81.1562ZM1204.47 126V129.75H1208.22V126H1204.47ZM1198.53 126H1194.78V129.75H1198.53V126ZM1153.22 103.594V99.8438H1149.47V103.594H1153.22ZM1153.22 120.281H1149.47V124.031H1153.22V120.281ZM1184.78 120.281V124.031H1188.53V120.281H1184.78ZM1174.5 104.031L1175.81 100.519L1175.59 100.437L1175.37 100.383L1174.5 104.031ZM1147.5 84.9062H1153.22V77.4062H1147.5V84.9062ZM1149.47 81.1562V97.875H1156.97V81.1562H1149.47ZM1153.22 101.625H1171.53V94.125H1153.22V101.625ZM1171.53 101.625C1176.97 101.625 1181.42 104.131 1185.04 109.923L1191.4 105.952C1186.64 98.3275 1179.96 94.125 1171.53 94.125V101.625ZM1184.92 109.721C1186.17 112.027 1186.75 114.314 1186.75 116.625H1194.25C1194.25 112.978 1193.31 109.473 1191.52 106.154L1184.92 109.721ZM1186.75 116.625V126H1194.25V116.625H1186.75ZM1190.5 122.25H1147.5V129.75H1190.5V122.25ZM1151.25 126V81.1562H1143.75V126H1151.25ZM1198.53 84.9062H1204.47V77.4062H1198.53V84.9062ZM1200.72 81.1562V126H1208.22V81.1562H1200.72ZM1204.47 122.25H1198.53V129.75H1204.47V122.25ZM1202.28 126V81.1562H1194.78V126H1202.28ZM1149.47 103.594V120.281H1156.97V103.594H1149.47ZM1153.22 124.031H1184.78V116.531H1153.22V124.031ZM1188.53 120.281V116.844H1181.03V120.281H1188.53ZM1188.53 116.844C1188.53 113.084 1187.43 109.673 1185.14 106.809C1182.88 103.999 1179.67 101.959 1175.81 100.519L1173.19 107.544C1176.19 108.666 1178.11 110.043 1179.29 111.503C1180.42 112.911 1181.03 114.624 1181.03 116.844H1188.53ZM1175.37 100.383C1173.83 100.018 1172.23 99.8438 1170.59 99.8438V107.344C1171.7 107.344 1172.71 107.461 1173.63 107.68L1175.37 100.383ZM1170.59 99.8438H1153.22V107.344H1170.59V99.8438Z" fill="white"/>
</svg>
