<svg width="1175" height="108" viewBox="0 0 1175 108" fill="none" xmlns="http://www.w3.org/2000/svg">
<path d="M3 8.90625H40.25C49.0833 8.90625 55.3333 13.1771 59 21.7188C59.7917 23.5104 60.1875 25.5729 60.1875 27.9062V31.4688H8.9375V54H3V25.75H54.0312C54.0312 23.0208 52.0521 20.0938 48.0938 16.9688C45.8438 15.5521 43.7083 14.8438 41.6875 14.8438H3V8.90625ZM83.75 9.25H122.344V14.9688H84.2188C78.7396 14.9688 74.5521 18.1667 71.6562 24.5625C71.6562 25.0625 71.5833 25.4375 71.4375 25.6875H121.906C122.198 25.7292 122.344 25.8854 122.344 26.1562V54H116.656V31.4062H71.2188V54H65.5V28.4375C65.5 20.3958 69.6875 14.3854 78.0625 10.4062C80.375 9.63542 82.2708 9.25 83.75 9.25ZM147.906 9.15625H184.969V14.875H148.812C141.438 14.875 136.635 18.2292 134.406 24.9375C133.948 26.0833 133.719 27.7604 133.719 29.9688V33.4062C133.719 40.1979 136.698 44.8542 142.656 47.375C144.156 47.9792 145.677 48.2812 147.219 48.2812H184.969V54H146.75C139.208 54 133.417 49.9583 129.375 41.875C128.458 39.4375 128 36.6875 128 33.625V29.0625C128 20.0833 132.5 13.75 141.5 10.0625C143.688 9.45833 145.823 9.15625 147.906 9.15625ZM190.5 9.15625H247.375V54H241.719V15.0625H196.406V54H190.5V9.15625ZM253 9.03125H258.75V48.25H266.312C267.208 47.2083 276.229 34.1354 293.375 9.03125H310.125V54H304.156V14.7812H296.812C296.021 15.4062 287 28.4792 269.75 54H253V9.03125ZM335.406 9.15625H372.469V14.875H336.312C328.938 14.875 324.135 18.2292 321.906 24.9375C321.448 26.0833 321.219 27.7604 321.219 29.9688V33.4062C321.219 40.1979 324.198 44.8542 330.156 47.375C331.656 47.9792 333.177 48.2812 334.719 48.2812H372.469V54H334.25C326.708 54 320.917 49.9583 316.875 41.875C315.958 39.4375 315.5 36.6875 315.5 33.625V29.0625C315.5 20.0833 320 13.75 329 10.0625C331.188 9.45833 333.323 9.15625 335.406 9.15625ZM396.25 9.25H434.844V14.9688H396.719C391.24 14.9688 387.052 18.1667 384.156 24.5625C384.156 25.0625 384.083 25.4375 383.938 25.6875H434.406C434.698 25.7292 434.844 25.8854 434.844 26.1562V54H429.156V31.4062H383.719V54H378V28.4375C378 20.3958 382.188 14.3854 390.562 10.4062C392.875 9.63542 394.771 9.25 396.25 9.25ZM440.5 9.15625H446.156V25.2188H491.719V9.15625H497.375V54H491.719V30.875H446.156V54H440.5V9.15625ZM503 9.03125H508.75V48.25H516.312C517.208 47.2083 526.229 34.1354 543.375 9.03125H560.125V54H554.156V14.7812H546.812C546.021 15.4062 537 28.4792 519.75 54H503V9.03125ZM565.5 9.15625H622.312V14.9062H565.5V9.15625ZM565.5 25.7188H622.312V31.4688H571.25V35.5938C571.25 40.5938 574.24 44.5833 580.219 47.5625C581.948 48.0208 583.323 48.25 584.344 48.25H622.062V54H583.656C578.302 54 573.479 51.3958 569.188 46.1875C566.729 42.7083 565.5 39.3333 565.5 36.0625V25.7188Z" fill="white"/>
<path d="M3 8.90625V6.40625H0.5V8.90625H3ZM59 21.7188L56.7027 22.7049L56.7079 22.7171L56.7133 22.7292L59 21.7188ZM60.1875 31.4688V33.9688H62.6875V31.4688H60.1875ZM8.9375 31.4688V28.9688H6.4375V31.4688H8.9375ZM8.9375 54V56.5H11.4375V54H8.9375ZM3 54H0.5V56.5H3V54ZM3 25.75V23.25H0.5V25.75H3ZM54.0312 25.75V28.25H56.5312V25.75H54.0312ZM48.0938 16.9688L49.6429 15.0065L49.5384 14.9241L49.4258 14.8532L48.0938 16.9688ZM3 14.8438H0.5V17.3438H3V14.8438ZM3 11.4062H40.25V6.40625H3V11.4062ZM40.25 11.4062C44.2496 11.4062 47.5085 12.3671 50.152 14.1735C52.8042 15.9858 55.0138 18.7706 56.7027 22.7049L61.2973 20.7326C59.3195 16.1252 56.5708 12.5038 52.973 10.0453C49.3665 7.58084 45.0838 6.40625 40.25 6.40625V11.4062ZM56.7133 22.7292C57.3401 24.1476 57.6875 25.8554 57.6875 27.9062H62.6875C62.6875 25.2904 62.2433 22.8732 61.2867 20.7083L56.7133 22.7292ZM57.6875 27.9062V31.4688H62.6875V27.9062H57.6875ZM60.1875 28.9688H8.9375V33.9688H60.1875V28.9688ZM6.4375 31.4688V54H11.4375V31.4688H6.4375ZM8.9375 51.5H3V56.5H8.9375V51.5ZM5.5 54V25.75H0.5V54H5.5ZM3 28.25H54.0312V23.25H3V28.25ZM56.5312 25.75C56.5312 21.8051 53.7251 18.2293 49.6429 15.0065L46.5446 18.931C50.3791 21.9582 51.5312 24.2366 51.5312 25.75H56.5312ZM49.4258 14.8532C46.9002 13.263 44.3068 12.3438 41.6875 12.3438V17.3438C43.1099 17.3438 44.7873 17.8412 46.7617 19.0843L49.4258 14.8532ZM41.6875 12.3438H3V17.3438H41.6875V12.3438ZM5.5 14.8438V8.90625H0.5V14.8438H5.5ZM122.344 9.25H124.844V6.75H122.344V9.25ZM122.344 14.9688V17.4688H124.844V14.9688H122.344ZM71.6562 24.5625L69.3788 23.5313L69.1562 24.0229V24.5625H71.6562ZM71.4375 25.6875L69.2781 24.4278L67.0849 28.1875H71.4375V25.6875ZM121.906 25.6875L122.26 23.2126L122.084 23.1875H121.906V25.6875ZM122.344 54V56.5H124.844V54H122.344ZM116.656 54H114.156V56.5H116.656V54ZM116.656 31.4062H119.156V28.9062H116.656V31.4062ZM71.2188 31.4062V28.9062H68.7188V31.4062H71.2188ZM71.2188 54V56.5H73.7188V54H71.2188ZM65.5 54H63V56.5H65.5V54ZM78.0625 10.4062L77.2719 8.03454L77.1273 8.08275L76.9896 8.14816L78.0625 10.4062ZM83.75 11.75H122.344V6.75H83.75V11.75ZM119.844 9.25V14.9688H124.844V9.25H119.844ZM122.344 12.4688H84.2188V17.4688H122.344V12.4688ZM84.2188 12.4688C80.9543 12.4688 77.9993 13.4345 75.4514 15.3803C72.9382 17.2996 70.9427 20.0773 69.3788 23.5313L73.9337 25.5937C75.2656 22.6519 76.8118 20.6327 78.4861 19.3541C80.1257 18.1019 82.004 17.4688 84.2188 17.4688V12.4688ZM69.1562 24.5625C69.1562 24.6275 69.1538 24.6748 69.1512 24.7064C69.1486 24.7384 69.1461 24.7489 69.1475 24.7416C69.1489 24.7345 69.1556 24.7021 69.1736 24.6507C69.1916 24.5992 69.2236 24.5212 69.2781 24.4278L73.5969 26.9472C74.0743 26.1289 74.1562 25.2237 74.1562 24.5625H69.1562ZM71.4375 28.1875H121.906V23.1875H71.4375V28.1875ZM121.553 28.1624C121.345 28.1328 120.847 28.0139 120.407 27.5417C119.941 27.0426 119.844 26.478 119.844 26.1562H124.844C124.844 25.5636 124.674 24.7856 124.062 24.1301C123.476 23.5017 122.759 23.2839 122.26 23.2126L121.553 28.1624ZM119.844 26.1562V54H124.844V26.1562H119.844ZM122.344 51.5H116.656V56.5H122.344V51.5ZM119.156 54V31.4062H114.156V54H119.156ZM116.656 28.9062H71.2188V33.9062H116.656V28.9062ZM68.7188 31.4062V54H73.7188V31.4062H68.7188ZM71.2188 51.5H65.5V56.5H71.2188V51.5ZM68 54V28.4375H63V54H68ZM68 28.4375C68 24.8754 68.9188 21.8725 70.6919 19.3276C72.4794 16.7619 75.2379 14.5161 79.1354 12.6643L76.9896 8.14816C72.5121 10.2756 68.9894 13.0246 66.5894 16.4693C64.1749 19.9348 63 23.958 63 28.4375H68ZM78.8531 12.778C81.0533 12.0445 82.6571 11.75 83.75 11.75V6.75C81.8845 6.75 79.6967 7.22629 77.2719 8.03454L78.8531 12.778ZM184.969 9.15625H187.469V6.65625H184.969V9.15625ZM184.969 14.875V17.375H187.469V14.875H184.969ZM134.406 24.9375L136.727 25.866L136.755 25.7967L136.779 25.7259L134.406 24.9375ZM142.656 47.375L141.682 49.6774L141.702 49.6859L141.722 49.694L142.656 47.375ZM184.969 48.2812H187.469V45.7812H184.969V48.2812ZM184.969 54V56.5H187.469V54H184.969ZM129.375 41.875L127.035 42.755L127.081 42.8767L127.139 42.993L129.375 41.875ZM141.5 10.0625L140.834 7.65272L140.69 7.6925L140.552 7.74914L141.5 10.0625ZM147.906 11.6562H184.969V6.65625H147.906V11.6562ZM182.469 9.15625V14.875H187.469V9.15625H182.469ZM184.969 12.375H148.812V17.375H184.969V12.375ZM148.812 12.375C144.746 12.375 141.166 13.3028 138.248 15.3411C135.321 17.3859 133.282 20.3926 132.034 24.1491L136.779 25.7259C137.76 22.774 139.237 20.7496 141.111 19.4402C142.995 18.1243 145.504 17.375 148.812 17.375V12.375ZM132.085 24.009C131.45 25.5974 131.219 27.6532 131.219 29.9688H136.219C136.219 27.8676 136.446 26.5692 136.727 25.866L132.085 24.009ZM131.219 29.9688V33.4062H136.219V29.9688H131.219ZM131.219 33.4062C131.219 37.1701 132.047 40.5259 133.847 43.3396C135.653 46.1618 138.319 48.2546 141.682 49.6774L143.63 45.0726C141.035 43.9745 139.232 42.4789 138.059 40.6448C136.88 38.8022 136.219 36.4341 136.219 33.4062H131.219ZM141.722 49.694C143.504 50.4118 145.341 50.7812 147.219 50.7812V45.7812C146.013 45.7812 144.808 45.5466 143.59 45.056L141.722 49.694ZM147.219 50.7812H184.969V45.7812H147.219V50.7812ZM182.469 48.2812V54H187.469V48.2812H182.469ZM184.969 51.5H146.75V56.5H184.969V51.5ZM146.75 51.5C143.454 51.5 140.628 50.6263 138.181 48.9186C135.709 47.194 133.496 44.5274 131.611 40.757L127.139 42.993C129.295 47.306 131.999 50.7018 135.319 53.0189C138.664 55.3529 142.504 56.5 146.75 56.5V51.5ZM131.715 40.995C130.921 38.8836 130.5 36.4388 130.5 33.625H125.5C125.5 36.9362 125.996 39.9914 127.035 42.755L131.715 40.995ZM130.5 33.625V29.0625H125.5V33.625H130.5ZM130.5 29.0625C130.5 25.0083 131.509 21.7064 133.413 19.0261C135.327 16.3318 138.276 14.0852 142.448 12.3759L140.552 7.74914C135.724 9.72732 131.923 12.4911 129.337 16.1301C126.741 19.7832 125.5 24.1375 125.5 29.0625H130.5ZM142.166 12.4723C144.155 11.9227 146.067 11.6562 147.906 11.6562V6.65625C145.579 6.65625 143.22 6.99398 140.834 7.65272L142.166 12.4723ZM190.5 9.15625V6.65625H188V9.15625H190.5ZM247.375 9.15625H249.875V6.65625H247.375V9.15625ZM247.375 54V56.5H249.875V54H247.375ZM241.719 54H239.219V56.5H241.719V54ZM241.719 15.0625H244.219V12.5625H241.719V15.0625ZM196.406 15.0625V12.5625H193.906V15.0625H196.406ZM196.406 54V56.5H198.906V54H196.406ZM190.5 54H188V56.5H190.5V54ZM190.5 11.6562H247.375V6.65625H190.5V11.6562ZM244.875 9.15625V54H249.875V9.15625H244.875ZM247.375 51.5H241.719V56.5H247.375V51.5ZM244.219 54V15.0625H239.219V54H244.219ZM241.719 12.5625H196.406V17.5625H241.719V12.5625ZM193.906 15.0625V54H198.906V15.0625H193.906ZM196.406 51.5H190.5V56.5H196.406V51.5ZM193 54V9.15625H188V54H193ZM253 9.03125V6.53125H250.5V9.03125H253ZM258.75 9.03125H261.25V6.53125H258.75V9.03125ZM258.75 48.25H256.25V50.75H258.75V48.25ZM266.312 48.25V50.75H267.46L268.208 49.8801L266.312 48.25ZM293.375 9.03125V6.53125H292.055L291.311 7.62126L293.375 9.03125ZM310.125 9.03125H312.625V6.53125H310.125V9.03125ZM310.125 54V56.5H312.625V54H310.125ZM304.156 54H301.656V56.5H304.156V54ZM304.156 14.7812H306.656V12.2812H304.156V14.7812ZM296.812 14.7812V12.2812H295.945L295.263 12.819L296.812 14.7812ZM269.75 54V56.5H271.078L271.821 55.4L269.75 54ZM253 54H250.5V56.5H253V54ZM253 11.5312H258.75V6.53125H253V11.5312ZM256.25 9.03125V48.25H261.25V9.03125H256.25ZM258.75 50.75H266.312V45.75H258.75V50.75ZM268.208 49.8801C268.534 49.5006 269.36 48.3491 270.553 46.6501C271.799 44.8771 273.551 42.354 275.808 39.0839C280.322 32.5424 286.866 22.9942 295.439 10.4412L291.311 7.62126C282.738 20.1724 276.199 29.7128 271.692 36.2442C269.438 39.5106 267.696 42.02 266.462 43.7757C265.845 44.6542 265.359 45.3379 265.003 45.8309C264.825 46.0777 264.683 46.2704 264.577 46.4126C264.459 46.5695 264.414 46.6233 264.417 46.6199L268.208 49.8801ZM293.375 11.5312H310.125V6.53125H293.375V11.5312ZM307.625 9.03125V54H312.625V9.03125H307.625ZM310.125 51.5H304.156V56.5H310.125V51.5ZM306.656 54V14.7812H301.656V54H306.656ZM304.156 12.2812H296.812V17.2812H304.156V12.2812ZM295.263 12.819C294.979 13.0432 294.741 13.3308 294.648 13.4424C294.501 13.6191 294.33 13.8368 294.142 14.0834C293.763 14.5799 293.262 15.2649 292.643 16.1281C291.404 17.8585 289.653 20.3631 287.395 23.6348C282.878 30.1814 276.305 39.8379 267.679 52.6L271.821 55.4C280.445 42.6413 287.007 33.0009 291.511 26.4746C293.764 23.2099 295.495 20.734 296.708 19.0399C297.316 18.1908 297.784 17.5526 298.118 17.1148C298.286 16.8943 298.407 16.7421 298.487 16.6462C298.621 16.4852 298.547 16.5974 298.362 16.7435L295.263 12.819ZM269.75 51.5H253V56.5H269.75V51.5ZM255.5 54V9.03125H250.5V54H255.5ZM372.469 9.15625H374.969V6.65625H372.469V9.15625ZM372.469 14.875V17.375H374.969V14.875H372.469ZM321.906 24.9375L324.227 25.866L324.255 25.7967L324.279 25.7259L321.906 24.9375ZM330.156 47.375L329.182 49.6774L329.202 49.6859L329.222 49.694L330.156 47.375ZM372.469 48.2812H374.969V45.7812H372.469V48.2812ZM372.469 54V56.5H374.969V54H372.469ZM316.875 41.875L314.535 42.755L314.581 42.8767L314.639 42.993L316.875 41.875ZM329 10.0625L328.334 7.65272L328.19 7.6925L328.052 7.74914L329 10.0625ZM335.406 11.6562H372.469V6.65625H335.406V11.6562ZM369.969 9.15625V14.875H374.969V9.15625H369.969ZM372.469 12.375H336.312V17.375H372.469V12.375ZM336.312 12.375C332.246 12.375 328.666 13.3028 325.748 15.3411C322.821 17.3859 320.782 20.3926 319.534 24.1491L324.279 25.7259C325.26 22.774 326.737 20.7496 328.611 19.4402C330.495 18.1243 333.004 17.375 336.312 17.375V12.375ZM319.585 24.009C318.95 25.5974 318.719 27.6532 318.719 29.9688H323.719C323.719 27.8676 323.946 26.5692 324.227 25.866L319.585 24.009ZM318.719 29.9688V33.4062H323.719V29.9688H318.719ZM318.719 33.4062C318.719 37.1701 319.547 40.5259 321.347 43.3396C323.153 46.1618 325.819 48.2546 329.182 49.6774L331.13 45.0726C328.535 43.9745 326.732 42.4789 325.559 40.6448C324.38 38.8022 323.719 36.4341 323.719 33.4062H318.719ZM329.222 49.694C331.004 50.4118 332.841 50.7812 334.719 50.7812V45.7812C333.513 45.7812 332.308 45.5466 331.09 45.056L329.222 49.694ZM334.719 50.7812H372.469V45.7812H334.719V50.7812ZM369.969 48.2812V54H374.969V48.2812H369.969ZM372.469 51.5H334.25V56.5H372.469V51.5ZM334.25 51.5C330.954 51.5 328.128 50.6263 325.681 48.9186C323.209 47.194 320.996 44.5274 319.111 40.757L314.639 42.993C316.795 47.306 319.499 50.7018 322.819 53.0189C326.164 55.3529 330.004 56.5 334.25 56.5V51.5ZM319.215 40.995C318.421 38.8836 318 36.4388 318 33.625H313C313 36.9362 313.496 39.9914 314.535 42.755L319.215 40.995ZM318 33.625V29.0625H313V33.625H318ZM318 29.0625C318 25.0083 319.009 21.7064 320.913 19.0261C322.827 16.3318 325.776 14.0852 329.948 12.3759L328.052 7.74914C323.224 9.72732 319.423 12.4911 316.837 16.1301C314.241 19.7832 313 24.1375 313 29.0625H318ZM329.666 12.4723C331.655 11.9227 333.567 11.6562 335.406 11.6562V6.65625C333.079 6.65625 330.72 6.99398 328.334 7.65272L329.666 12.4723ZM434.844 9.25H437.344V6.75H434.844V9.25ZM434.844 14.9688V17.4688H437.344V14.9688H434.844ZM384.156 24.5625L381.879 23.5313L381.656 24.0229V24.5625H384.156ZM383.938 25.6875L381.778 24.4278L379.585 28.1875H383.938V25.6875ZM434.406 25.6875L434.76 23.2126L434.584 23.1875H434.406V25.6875ZM434.844 54V56.5H437.344V54H434.844ZM429.156 54H426.656V56.5H429.156V54ZM429.156 31.4062H431.656V28.9062H429.156V31.4062ZM383.719 31.4062V28.9062H381.219V31.4062H383.719ZM383.719 54V56.5H386.219V54H383.719ZM378 54H375.5V56.5H378V54ZM390.562 10.4062L389.772 8.03454L389.627 8.08275L389.49 8.14816L390.562 10.4062ZM396.25 11.75H434.844V6.75H396.25V11.75ZM432.344 9.25V14.9688H437.344V9.25H432.344ZM434.844 12.4688H396.719V17.4688H434.844V12.4688ZM396.719 12.4688C393.454 12.4688 390.499 13.4345 387.951 15.3803C385.438 17.2996 383.443 20.0773 381.879 23.5313L386.434 25.5937C387.766 22.6519 389.312 20.6327 390.986 19.3541C392.626 18.1019 394.504 17.4688 396.719 17.4688V12.4688ZM381.656 24.5625C381.656 24.6275 381.654 24.6748 381.651 24.7064C381.649 24.7384 381.646 24.7489 381.648 24.7416C381.649 24.7345 381.656 24.7021 381.674 24.6507C381.692 24.5992 381.724 24.5212 381.778 24.4278L386.097 26.9472C386.574 26.1289 386.656 25.2237 386.656 24.5625H381.656ZM383.938 28.1875H434.406V23.1875H383.938V28.1875ZM434.053 28.1624C433.845 28.1328 433.347 28.0139 432.907 27.5417C432.441 27.0426 432.344 26.478 432.344 26.1562H437.344C437.344 25.5636 437.174 24.7856 436.562 24.1301C435.975 23.5017 435.259 23.2839 434.76 23.2126L434.053 28.1624ZM432.344 26.1562V54H437.344V26.1562H432.344ZM434.844 51.5H429.156V56.5H434.844V51.5ZM431.656 54V31.4062H426.656V54H431.656ZM429.156 28.9062H383.719V33.9062H429.156V28.9062ZM381.219 31.4062V54H386.219V31.4062H381.219ZM383.719 51.5H378V56.5H383.719V51.5ZM380.5 54V28.4375H375.5V54H380.5ZM380.5 28.4375C380.5 24.8754 381.419 21.8725 383.192 19.3276C384.979 16.7619 387.738 14.5161 391.635 12.6643L389.49 8.14816C385.012 10.2756 381.489 13.0246 379.089 16.4693C376.675 19.9348 375.5 23.958 375.5 28.4375H380.5ZM391.353 12.778C393.553 12.0445 395.157 11.75 396.25 11.75V6.75C394.385 6.75 392.197 7.22629 389.772 8.03454L391.353 12.778ZM440.5 9.15625V6.65625H438V9.15625H440.5ZM446.156 9.15625H448.656V6.65625H446.156V9.15625ZM446.156 25.2188H443.656V27.7188H446.156V25.2188ZM491.719 25.2188V27.7188H494.219V25.2188H491.719ZM491.719 9.15625V6.65625H489.219V9.15625H491.719ZM497.375 9.15625H499.875V6.65625H497.375V9.15625ZM497.375 54V56.5H499.875V54H497.375ZM491.719 54H489.219V56.5H491.719V54ZM491.719 30.875H494.219V28.375H491.719V30.875ZM446.156 30.875V28.375H443.656V30.875H446.156ZM446.156 54V56.5H448.656V54H446.156ZM440.5 54H438V56.5H440.5V54ZM440.5 11.6562H446.156V6.65625H440.5V11.6562ZM443.656 9.15625V25.2188H448.656V9.15625H443.656ZM446.156 27.7188H491.719V22.7188H446.156V27.7188ZM494.219 25.2188V9.15625H489.219V25.2188H494.219ZM491.719 11.6562H497.375V6.65625H491.719V11.6562ZM494.875 9.15625V54H499.875V9.15625H494.875ZM497.375 51.5H491.719V56.5H497.375V51.5ZM494.219 54V30.875H489.219V54H494.219ZM491.719 28.375H446.156V33.375H491.719V28.375ZM443.656 30.875V54H448.656V30.875H443.656ZM446.156 51.5H440.5V56.5H446.156V51.5ZM443 54V9.15625H438V54H443ZM503 9.03125V6.53125H500.5V9.03125H503ZM508.75 9.03125H511.25V6.53125H508.75V9.03125ZM508.75 48.25H506.25V50.75H508.75V48.25ZM516.312 48.25V50.75H517.46L518.208 49.8801L516.312 48.25ZM543.375 9.03125V6.53125H542.055L541.311 7.62126L543.375 9.03125ZM560.125 9.03125H562.625V6.53125H560.125V9.03125ZM560.125 54V56.5H562.625V54H560.125ZM554.156 54H551.656V56.5H554.156V54ZM554.156 14.7812H556.656V12.2812H554.156V14.7812ZM546.812 14.7812V12.2812H545.945L545.263 12.819L546.812 14.7812ZM519.75 54V56.5H521.078L521.821 55.4L519.75 54ZM503 54H500.5V56.5H503V54ZM503 11.5312H508.75V6.53125H503V11.5312ZM506.25 9.03125V48.25H511.25V9.03125H506.25ZM508.75 50.75H516.312V45.75H508.75V50.75ZM518.208 49.8801C518.534 49.5006 519.36 48.3491 520.553 46.6501C521.799 44.8771 523.551 42.354 525.808 39.0839C530.322 32.5424 536.866 22.9942 545.439 10.4412L541.311 7.62126C532.738 20.1724 526.199 29.7128 521.692 36.2442C519.438 39.5106 517.696 42.02 516.462 43.7757C515.845 44.6542 515.359 45.3379 515.003 45.8309C514.825 46.0777 514.683 46.2704 514.577 46.4126C514.459 46.5695 514.414 46.6233 514.417 46.6199L518.208 49.8801ZM543.375 11.5312H560.125V6.53125H543.375V11.5312ZM557.625 9.03125V54H562.625V9.03125H557.625ZM560.125 51.5H554.156V56.5H560.125V51.5ZM556.656 54V14.7812H551.656V54H556.656ZM554.156 12.2812H546.812V17.2812H554.156V12.2812ZM545.263 12.819C544.979 13.0432 544.741 13.3308 544.648 13.4424C544.501 13.6191 544.33 13.8368 544.142 14.0834C543.763 14.5799 543.262 15.2649 542.643 16.1281C541.404 17.8585 539.653 20.3631 537.395 23.6348C532.878 30.1814 526.305 39.8379 517.679 52.6L521.821 55.4C530.445 42.6413 537.007 33.0009 541.511 26.4746C543.764 23.2099 545.495 20.734 546.708 19.0399C547.316 18.1908 547.784 17.5526 548.118 17.1148C548.286 16.8943 548.407 16.7421 548.487 16.6462C548.621 16.4852 548.547 16.5974 548.362 16.7435L545.263 12.819ZM519.75 51.5H503V56.5H519.75V51.5ZM505.5 54V9.03125H500.5V54H505.5ZM565.5 9.15625V6.65625H563V9.15625H565.5ZM622.312 9.15625H624.812V6.65625H622.312V9.15625ZM622.312 14.9062V17.4062H624.812V14.9062H622.312ZM565.5 14.9062H563V17.4062H565.5V14.9062ZM565.5 25.7188V23.2188H563V25.7188H565.5ZM622.312 25.7188H624.812V23.2188H622.312V25.7188ZM622.312 31.4688V33.9688H624.812V31.4688H622.312ZM571.25 31.4688V28.9688H568.75V31.4688H571.25ZM580.219 47.5625L579.104 49.8001L579.332 49.9138L579.578 49.979L580.219 47.5625ZM622.062 48.25H624.562V45.75H622.062V48.25ZM622.062 54V56.5H624.562V54H622.062ZM569.188 46.1875L567.146 47.6302L567.199 47.7058L567.258 47.7773L569.188 46.1875ZM565.5 11.6562H622.312V6.65625H565.5V11.6562ZM619.812 9.15625V14.9062H624.812V9.15625H619.812ZM622.312 12.4062H565.5V17.4062H622.312V12.4062ZM568 14.9062V9.15625H563V14.9062H568ZM565.5 28.2188H622.312V23.2188H565.5V28.2188ZM619.812 25.7188V31.4688H624.812V25.7188H619.812ZM622.312 28.9688H571.25V33.9688H622.312V28.9688ZM568.75 31.4688V35.5938H573.75V31.4688H568.75ZM568.75 35.5938C568.75 41.8647 572.61 46.5643 579.104 49.8001L581.334 45.3249C575.87 42.6024 573.75 39.3228 573.75 35.5938H568.75ZM579.578 49.979C581.385 50.4579 583.003 50.75 584.344 50.75V45.75C583.642 45.75 582.511 45.5837 580.859 45.146L579.578 49.979ZM584.344 50.75H622.062V45.75H584.344V50.75ZM619.562 48.25V54H624.562V48.25H619.562ZM622.062 51.5H583.656V56.5H622.062V51.5ZM583.656 51.5C579.237 51.5 575.068 49.393 571.117 44.5977L567.258 47.7773C571.89 53.3987 577.367 56.5 583.656 56.5V51.5ZM571.229 44.7448C568.979 41.5608 568 38.6804 568 36.0625H563C563 39.9863 564.479 43.8559 567.146 47.6302L571.229 44.7448ZM568 36.0625V25.7188H563V36.0625H568Z" fill="white"/>
<path d="M6.99997 16.4492H76.8437C93.4062 16.4492 105.125 24.457 112 40.4726C113.484 43.832 114.227 47.6992 114.227 52.0742V58.7539H18.1328V101H6.99997V48.0312H102.684C102.684 42.914 98.9726 37.4258 91.5508 31.5664C87.332 28.9101 83.3281 27.582 79.539 27.582H6.99997V16.4492Z" fill="white" fill-opacity="0.05"/>
<path d="M158.406 17.0937H230.77V27.8164H159.285C149.012 27.8164 141.16 33.8125 135.73 45.8047C135.73 46.7422 135.594 47.4453 135.32 47.914H229.949C230.496 47.9922 230.77 48.2851 230.77 48.7929V101H220.105V58.6367H134.91V101H124.187V53.0703C124.187 37.9922 132.039 26.7226 147.742 19.2617C152.078 17.8164 155.633 17.0937 158.406 17.0937Z" fill="white" fill-opacity="0.05"/>
<path d="M278.699 16.9179H348.191V27.6406H280.398C266.57 27.6406 257.566 33.9297 253.387 46.5078C252.527 48.6562 252.098 51.8008 252.098 55.9414V62.3867C252.098 75.1211 257.684 83.8515 268.855 88.5781C271.668 89.7109 274.52 90.2773 277.41 90.2773H348.191V101H276.531C262.391 101 251.531 93.4218 243.953 78.2656C242.234 73.6953 241.375 68.539 241.375 62.7968V54.2422C241.375 37.4062 249.812 25.5312 266.687 18.6172C270.789 17.4843 274.793 16.9179 278.699 16.9179Z" fill="white" fill-opacity="0.05"/>
<path d="M358.562 16.9179H465.203V101H454.598V27.9922H369.637V101H358.562V16.9179Z" fill="white" fill-opacity="0.05"/>
<path d="M475.75 16.6836H486.531V90.2187H500.711C502.391 88.2656 519.305 63.7539 551.453 16.6836H582.859V101H571.668V27.4648H557.898C556.414 28.6367 539.5 53.1484 507.156 101H475.75V16.6836Z" fill="white" fill-opacity="0.05"/>
<path d="M630.262 16.9179H699.754V27.6406H631.961C618.133 27.6406 609.129 33.9297 604.949 46.5078C604.09 48.6562 603.66 51.8008 603.66 55.9414V62.3867C603.66 75.1211 609.246 83.8515 620.418 88.5781C623.23 89.7109 626.082 90.2773 628.973 90.2773H699.754V101H628.094C613.953 101 603.094 93.4218 595.516 78.2656C593.797 73.6953 592.937 68.539 592.937 62.7968V54.2422C592.937 37.4062 601.375 25.5312 618.25 18.6172C622.352 17.4843 626.355 16.9179 630.262 16.9179Z" fill="white" fill-opacity="0.05"/>
<path d="M744.344 17.0937H816.707V27.8164H745.223C734.949 27.8164 727.098 33.8125 721.668 45.8047C721.668 46.7422 721.531 47.4453 721.258 47.914H815.887C816.434 47.9922 816.707 48.2851 816.707 48.7929V101H806.043V58.6367H720.848V101H710.125V53.0703C710.125 37.9922 717.977 26.7226 733.68 19.2617C738.016 17.8164 741.57 17.0937 744.344 17.0937Z" fill="white" fill-opacity="0.05"/>
<path d="M827.312 16.9179H837.918V47.0351H923.348V16.9179H933.953V101H923.348V57.6406H837.918V101H827.312V16.9179Z" fill="white" fill-opacity="0.05"/>
<path d="M944.5 16.6836H955.281V90.2187H969.461C971.141 88.2656 988.055 63.7539 1020.2 16.6836H1051.61V101H1040.42V27.4648H1026.65C1025.16 28.6367 1008.25 53.1484 975.906 101H944.5V16.6836Z" fill="white" fill-opacity="0.05"/>
<path d="M1061.69 16.9179H1168.21V27.6992H1061.69V16.9179ZM1061.69 47.9726H1168.21V58.7539H1072.47V66.4883C1072.47 75.8633 1078.07 83.3437 1089.29 88.9297C1092.53 89.789 1095.11 90.2187 1097.02 90.2187H1167.74V101H1095.73C1085.69 101 1076.65 96.1172 1068.6 86.3515C1063.99 79.8281 1061.69 73.5 1061.69 67.3672V47.9726Z" fill="white" fill-opacity="0.05"/>
<path fill-rule="evenodd" clip-rule="evenodd" d="M0.594727 10.0439H76.8437C86.1936 10.0439 94.5755 12.3197 101.668 17.1666C108.731 21.9929 114.066 29.0603 117.873 37.9166C118.407 39.1296 118.86 40.379 119.233 41.6617C120.389 37.3664 122.243 33.348 124.821 29.648C129.531 22.8871 136.399 17.5598 144.993 13.4763L145.346 13.3086L145.717 13.1851C150.34 11.644 154.643 10.6885 158.406 10.6885H237.175V34.2216H159.285C155.493 34.2216 152.341 35.2945 149.579 37.404C148.214 38.4463 146.874 39.7975 145.582 41.5088H230.404L230.855 41.5732C232.033 41.7415 233.794 42.2656 235.247 43.8219C235.481 44.0724 235.688 44.3298 235.872 44.5913C236.992 38.8894 239.169 33.6615 242.482 28.999C247.56 21.8513 254.981 16.4916 264.259 12.6901L264.613 12.545L264.982 12.4431C269.59 11.1704 274.168 10.5127 278.699 10.5127H469.345V10.2783H492.936V83.8135H497.484C498.057 83.0107 498.757 82.0214 499.586 80.8419C501.895 77.556 505.159 72.8554 509.384 66.7322C517.832 54.4893 530.091 36.6039 546.164 13.071L548.071 10.2783H589.265V38.053C590.454 34.8419 592.042 31.8171 594.044 28.999C599.123 21.8513 606.543 16.4916 615.821 12.6901L616.176 12.545L616.545 12.4431C621.153 11.1704 625.73 10.5127 630.262 10.5127H706.159V34.0458H631.961C626.017 34.0458 621.682 35.3895 618.505 37.6085C615.351 39.811 612.775 43.2694 611.028 48.5276L610.967 48.7091L610.896 48.8866C610.49 49.9012 610.065 52.0754 610.065 55.9414V62.3867C610.065 67.811 611.248 71.9119 613.245 75.0332C615.22 78.1207 618.287 80.7119 622.861 82.6567C624.933 83.4846 626.958 83.8721 628.973 83.8721H703.72V53.0703C703.72 44.3559 706.011 36.4621 710.758 29.648C715.469 22.8871 722.336 17.5598 730.931 13.4763L731.284 13.3086L731.654 13.1851C736.278 11.644 740.581 10.6885 744.344 10.6885H820.907V10.5127H844.323V40.6299H916.942V10.5127H938.095V10.2783H961.686V83.8135H966.234C966.807 83.0107 967.507 82.0214 968.336 80.8419C970.645 77.556 973.909 72.8554 978.134 66.7322C986.582 54.4893 998.841 36.6039 1014.91 13.071L1016.82 10.2783H1058.01V10.5127H1174.62V34.1044H1058.01V41.5674H1174.62V65.1591H1078.87V66.4883C1078.87 72.4858 1082.12 78.0438 1091.56 82.9028C1094.24 83.5819 1096 83.8135 1097.02 83.8135H1174.15V107.405H1095.73C1083.3 107.405 1072.58 101.249 1063.66 90.4248L1063.51 90.2416L1063.37 90.0478C1061.16 86.9179 1059.35 83.7297 1058.01 80.4914V107.405H1034.01V33.8701H1029.72C1029.21 34.5643 1028.59 35.4218 1027.85 36.45C1025.58 39.614 1022.34 44.2465 1018.12 50.3653C1009.68 62.5952 997.382 80.6655 981.213 104.587L979.308 107.405H916.942V64.0458H844.323V107.405H799.638V65.0419H727.253V107.405H628.094C619.806 107.405 612.257 105.16 605.678 100.569C599.161 96.021 593.923 89.4032 589.787 81.1301L589.638 80.8321L589.52 80.5202C589.433 80.2883 589.348 80.0554 589.265 79.8215V107.405H565.263V33.8701H560.972C560.458 34.5643 559.836 35.4218 559.099 36.45C556.833 39.614 553.594 44.2465 549.371 50.3653C540.932 62.5952 528.632 80.6655 512.463 104.587L510.558 107.405H448.192V34.3974H376.042V107.405H276.531C268.244 107.405 260.695 105.16 254.116 100.569C247.598 96.021 242.361 89.4032 238.224 81.1301L238.075 80.8321L237.958 80.5202C237.676 79.7715 237.415 79.0125 237.175 78.2436V107.405H213.7V65.0419H141.315V107.405H117.782V65.1591H24.538V107.405H0.594727V41.626H93.0107C91.7707 40.2065 90.0957 38.6009 87.8549 36.8107C84.4729 34.7331 81.7338 33.9872 79.539 33.9872H0.594727V10.0439ZM91.5508 31.5664C95.9644 35.0508 99.0656 38.404 100.855 41.626C102.074 43.822 102.684 45.9571 102.684 48.0312H6.99997V101H18.1328V58.7539H114.227V52.0742C114.227 47.6992 113.484 43.832 112 40.4726C105.125 24.457 93.4062 16.4492 76.8437 16.4492H6.99997V27.582H79.539C83.3281 27.582 87.332 28.9101 91.5508 31.5664ZM134.91 58.6367H220.105V101H230.77V48.7929C230.77 48.2851 230.496 47.9922 229.949 47.914H135.32C135.594 47.4453 135.73 46.7422 135.73 45.8047C136.423 44.2752 137.155 42.8432 137.926 41.5088C143.202 32.3805 150.322 27.8164 159.285 27.8164H230.77V17.0937H158.406C155.633 17.0937 152.078 17.8164 147.742 19.2617C132.039 26.7226 124.187 37.9922 124.187 53.0703V101H134.91V58.6367ZM352.157 83.8721V34.0458H280.398C274.455 34.0458 270.119 35.3895 266.942 37.6085C263.789 39.811 261.212 43.2694 259.465 48.5276L259.405 48.7091L259.334 48.8866C258.928 49.9012 258.503 52.0754 258.503 55.9414V62.3867C258.503 67.811 259.685 71.9119 261.682 75.0332C263.658 78.1207 266.725 80.7119 271.298 82.6567C273.371 83.4846 275.395 83.8721 277.41 83.8721H352.157ZM268.855 88.5781C257.684 83.8515 252.098 75.1211 252.098 62.3867V55.9414C252.098 51.8008 252.527 48.6562 253.387 46.5078C257.566 33.9297 266.57 27.6406 280.398 27.6406H348.191V16.9179H278.699C274.793 16.9179 270.789 17.4843 266.687 18.6172C249.812 25.5312 241.375 37.4062 241.375 54.2422V62.7968C241.375 68.539 242.234 73.6953 243.953 78.2656C251.531 93.4218 262.391 101 276.531 101H348.191V90.2773H277.41C274.52 90.2773 271.668 89.7109 268.855 88.5781ZM369.637 27.9922H454.598V101H465.203V16.9179H358.562V101H369.637V27.9922ZM562.465 31.938C562.463 31.9406 562.445 31.962 562.411 31.9977C562.45 31.9533 562.467 31.9352 562.465 31.938ZM557.898 27.4648C556.414 28.6367 539.5 53.1484 507.156 101H475.75V16.6836H486.531V90.2187H500.711C502.391 88.2656 519.305 63.7539 551.453 16.6836H582.859V101H571.668V27.4648H557.898ZM720.848 58.6367H806.043V101H816.707V48.7929C816.707 48.2851 816.434 47.9922 815.887 47.914H721.258C721.531 47.4453 721.668 46.7422 721.668 45.8047C722.36 44.2752 723.092 42.8432 723.864 41.5088C729.14 32.3805 736.259 27.8164 745.223 27.8164H816.707V17.0937H744.344C741.57 17.0937 738.016 17.8164 733.68 19.2617C717.977 26.7226 710.125 37.9922 710.125 53.0703V101H720.848V58.6367ZM731.519 41.5088C732.811 39.7975 734.152 38.4463 735.516 37.404C738.279 35.2945 741.431 34.2216 745.223 34.2216H820.907V43.5406C819.513 42.2011 817.897 41.7309 816.792 41.5732L816.342 41.5088H731.519ZM837.918 57.6406H923.348V101H933.953V16.9179H923.348V47.0351H837.918V16.9179H827.312V101H837.918V57.6406ZM1031.22 31.9378C1031.22 31.9378 1031.2 31.9609 1031.16 31.998C1031.2 31.9549 1031.22 31.9378 1031.22 31.9378ZM1026.65 27.4648C1025.16 28.6367 1008.25 53.1484 975.906 101H944.5V16.6836H955.281V90.2187H969.461C971.141 88.2656 988.055 63.7539 1020.2 16.6836H1051.61V101H1040.42V27.4648H1026.65ZM1089.29 88.9297C1078.07 83.3437 1072.47 75.8633 1072.47 66.4883V58.7539H1168.21V47.9726H1061.69V67.3672C1061.69 73.5 1063.99 79.8281 1068.6 86.3515C1076.65 96.1172 1085.69 101 1095.73 101H1167.74V90.2187H1097.02C1095.11 90.2187 1092.53 89.789 1089.29 88.9297ZM620.418 88.5781C609.246 83.8515 603.66 75.1211 603.66 62.3867V55.9414C603.66 51.8008 604.09 48.6562 604.949 46.5078C609.129 33.9297 618.133 27.6406 631.961 27.6406H699.754V16.9179H630.262C626.355 16.9179 622.352 17.4843 618.25 18.6172C601.375 25.5312 592.937 37.4062 592.937 54.2422V62.7968C592.937 68.539 593.797 73.6953 595.516 78.2656C603.094 93.4218 613.953 101 628.094 101H699.754V90.2773H628.973C626.082 90.2773 623.23 89.7109 620.418 88.5781ZM1061.69 16.9179V27.6992H1168.21V16.9179H1061.69Z" fill="white" fill-opacity="0.05"/>
</svg>
