<svg width="1176" height="126" viewBox="0 0 1176 126" fill="none" xmlns="http://www.w3.org/2000/svg">
<path d="M0 8.90625H37.25C46.0833 8.90625 52.3333 13.1771 56 21.7188C56.7917 23.5104 57.1875 25.5729 57.1875 27.9062V31.4688H5.9375V54H0V25.75H51.0312C51.0312 23.0208 49.0521 20.0938 45.0938 16.9688C42.8438 15.5521 40.7083 14.8438 38.6875 14.8438H0V8.90625ZM80.75 9.25H119.344V14.9688H81.2188C75.7396 14.9688 71.5521 18.1667 68.6562 24.5625C68.6562 25.0625 68.5833 25.4375 68.4375 25.6875H118.906C119.198 25.7292 119.344 25.8854 119.344 26.1562V54H113.656V31.4062H68.2188V54H62.5V28.4375C62.5 20.3958 66.6875 14.3854 75.0625 10.4062C77.375 9.63542 79.2708 9.25 80.75 9.25ZM144.906 9.15625H181.969V14.875H145.812C138.438 14.875 133.635 18.2292 131.406 24.9375C130.948 26.0833 130.719 27.7604 130.719 29.9688V33.4062C130.719 40.1979 133.698 44.8542 139.656 47.375C141.156 47.9792 142.677 48.2812 144.219 48.2812H181.969V54H143.75C136.208 54 130.417 49.9583 126.375 41.875C125.458 39.4375 125 36.6875 125 33.625V29.0625C125 20.0833 129.5 13.75 138.5 10.0625C140.688 9.45833 142.823 9.15625 144.906 9.15625ZM187.5 9.15625H244.375V54H238.719V15.0625H193.406V54H187.5V9.15625ZM250 9.03125H255.75V48.25H263.312C264.208 47.2083 273.229 34.1354 290.375 9.03125H307.125V54H301.156V14.7812H293.812C293.021 15.4062 284 28.4792 266.75 54H250V9.03125ZM332.406 9.15625H369.469V14.875H333.312C325.938 14.875 321.135 18.2292 318.906 24.9375C318.448 26.0833 318.219 27.7604 318.219 29.9688V33.4062C318.219 40.1979 321.198 44.8542 327.156 47.375C328.656 47.9792 330.177 48.2812 331.719 48.2812H369.469V54H331.25C323.708 54 317.917 49.9583 313.875 41.875C312.958 39.4375 312.5 36.6875 312.5 33.625V29.0625C312.5 20.0833 317 13.75 326 10.0625C328.188 9.45833 330.323 9.15625 332.406 9.15625ZM393.25 9.25H431.844V14.9688H393.719C388.24 14.9688 384.052 18.1667 381.156 24.5625C381.156 25.0625 381.083 25.4375 380.938 25.6875H431.406C431.698 25.7292 431.844 25.8854 431.844 26.1562V54H426.156V31.4062H380.719V54H375V28.4375C375 20.3958 379.188 14.3854 387.562 10.4062C389.875 9.63542 391.771 9.25 393.25 9.25ZM437.5 9.15625H443.156V25.2188H488.719V9.15625H494.375V54H488.719V30.875H443.156V54H437.5V9.15625ZM500 9.03125H505.75V48.25H513.312C514.208 47.2083 523.229 34.1354 540.375 9.03125H557.125V54H551.156V14.7812H543.812C543.021 15.4062 534 28.4792 516.75 54H500V9.03125ZM562.5 9.15625H619.312V14.9062H562.5V9.15625ZM562.5 25.7188H619.312V31.4688H568.25V35.5938C568.25 40.5938 571.24 44.5833 577.219 47.5625C578.948 48.0208 580.323 48.25 581.344 48.25H619.062V54H580.656C575.302 54 570.479 51.3958 566.188 46.1875C563.729 42.7083 562.5 39.3333 562.5 36.0625V25.7188Z" fill="white"/>
<path d="M0 8.90625V6.40625H-2.5V8.90625H0ZM56 21.7188L53.7027 22.7049L53.7079 22.7171L53.7133 22.7292L56 21.7188ZM57.1875 31.4688V33.9688H59.6875V31.4688H57.1875ZM5.9375 31.4688V28.9688H3.4375V31.4688H5.9375ZM5.9375 54V56.5H8.4375V54H5.9375ZM0 54H-2.5V56.5H0V54ZM0 25.75V23.25H-2.5V25.75H0ZM51.0312 25.75V28.25H53.5312V25.75H51.0312ZM45.0938 16.9688L46.6429 15.0065L46.5384 14.9241L46.4258 14.8532L45.0938 16.9688ZM0 14.8438H-2.5V17.3438H0V14.8438ZM0 11.4062H37.25V6.40625H0V11.4062ZM37.25 11.4062C41.2496 11.4062 44.5085 12.3671 47.152 14.1735C49.8042 15.9858 52.0138 18.7706 53.7027 22.7049L58.2973 20.7326C56.3195 16.1252 53.5708 12.5038 49.973 10.0453C46.3665 7.58084 42.0838 6.40625 37.25 6.40625V11.4062ZM53.7133 22.7292C54.3401 24.1476 54.6875 25.8554 54.6875 27.9062H59.6875C59.6875 25.2904 59.2433 22.8732 58.2867 20.7083L53.7133 22.7292ZM54.6875 27.9062V31.4688H59.6875V27.9062H54.6875ZM57.1875 28.9688H5.9375V33.9688H57.1875V28.9688ZM3.4375 31.4688V54H8.4375V31.4688H3.4375ZM5.9375 51.5H0V56.5H5.9375V51.5ZM2.5 54V25.75H-2.5V54H2.5ZM0 28.25H51.0312V23.25H0V28.25ZM53.5312 25.75C53.5312 21.8051 50.7251 18.2293 46.6429 15.0065L43.5446 18.931C47.3791 21.9582 48.5312 24.2366 48.5312 25.75H53.5312ZM46.4258 14.8532C43.9002 13.263 41.3068 12.3438 38.6875 12.3438V17.3438C40.1099 17.3438 41.7873 17.8412 43.7617 19.0843L46.4258 14.8532ZM38.6875 12.3438H0V17.3438H38.6875V12.3438ZM2.5 14.8438V8.90625H-2.5V14.8438H2.5ZM119.344 9.25H121.844V6.75H119.344V9.25ZM119.344 14.9688V17.4688H121.844V14.9688H119.344ZM68.6562 24.5625L66.3788 23.5313L66.1562 24.0229V24.5625H68.6562ZM68.4375 25.6875L66.2781 24.4278L64.0849 28.1875H68.4375V25.6875ZM118.906 25.6875L119.26 23.2126L119.084 23.1875H118.906V25.6875ZM119.344 54V56.5H121.844V54H119.344ZM113.656 54H111.156V56.5H113.656V54ZM113.656 31.4062H116.156V28.9062H113.656V31.4062ZM68.2188 31.4062V28.9062H65.7188V31.4062H68.2188ZM68.2188 54V56.5H70.7188V54H68.2188ZM62.5 54H60V56.5H62.5V54ZM75.0625 10.4062L74.2719 8.03454L74.1273 8.08275L73.9896 8.14816L75.0625 10.4062ZM80.75 11.75H119.344V6.75H80.75V11.75ZM116.844 9.25V14.9688H121.844V9.25H116.844ZM119.344 12.4688H81.2188V17.4688H119.344V12.4688ZM81.2188 12.4688C77.9543 12.4688 74.9993 13.4345 72.4514 15.3803C69.9382 17.2996 67.9427 20.0773 66.3788 23.5313L70.9337 25.5937C72.2656 22.6519 73.8118 20.6327 75.4861 19.3541C77.1257 18.1019 79.004 17.4688 81.2188 17.4688V12.4688ZM66.1562 24.5625C66.1562 24.6275 66.1538 24.6748 66.1512 24.7064C66.1486 24.7384 66.1461 24.7489 66.1475 24.7416C66.1489 24.7345 66.1556 24.7021 66.1736 24.6507C66.1916 24.5992 66.2236 24.5212 66.2781 24.4278L70.5969 26.9472C71.0743 26.1289 71.1562 25.2237 71.1562 24.5625H66.1562ZM68.4375 28.1875H118.906V23.1875H68.4375V28.1875ZM118.553 28.1624C118.345 28.1328 117.847 28.0139 117.407 27.5417C116.941 27.0426 116.844 26.478 116.844 26.1562H121.844C121.844 25.5636 121.674 24.7856 121.062 24.1301C120.476 23.5017 119.759 23.2839 119.26 23.2126L118.553 28.1624ZM116.844 26.1562V54H121.844V26.1562H116.844ZM119.344 51.5H113.656V56.5H119.344V51.5ZM116.156 54V31.4062H111.156V54H116.156ZM113.656 28.9062H68.2188V33.9062H113.656V28.9062ZM65.7188 31.4062V54H70.7188V31.4062H65.7188ZM68.2188 51.5H62.5V56.5H68.2188V51.5ZM65 54V28.4375H60V54H65ZM65 28.4375C65 24.8754 65.9188 21.8725 67.6919 19.3276C69.4794 16.7619 72.2379 14.5161 76.1354 12.6643L73.9896 8.14816C69.5121 10.2756 65.9894 13.0246 63.5894 16.4693C61.1749 19.9348 60 23.958 60 28.4375H65ZM75.8531 12.778C78.0533 12.0445 79.6571 11.75 80.75 11.75V6.75C78.8845 6.75 76.6967 7.22629 74.2719 8.03454L75.8531 12.778ZM181.969 9.15625H184.469V6.65625H181.969V9.15625ZM181.969 14.875V17.375H184.469V14.875H181.969ZM131.406 24.9375L133.727 25.866L133.755 25.7967L133.779 25.7259L131.406 24.9375ZM139.656 47.375L138.682 49.6774L138.702 49.6859L138.722 49.694L139.656 47.375ZM181.969 48.2812H184.469V45.7812H181.969V48.2812ZM181.969 54V56.5H184.469V54H181.969ZM126.375 41.875L124.035 42.755L124.081 42.8767L124.139 42.993L126.375 41.875ZM138.5 10.0625L137.834 7.65272L137.69 7.6925L137.552 7.74914L138.5 10.0625ZM144.906 11.6562H181.969V6.65625H144.906V11.6562ZM179.469 9.15625V14.875H184.469V9.15625H179.469ZM181.969 12.375H145.812V17.375H181.969V12.375ZM145.812 12.375C141.746 12.375 138.166 13.3028 135.248 15.3411C132.321 17.3859 130.282 20.3926 129.034 24.1491L133.779 25.7259C134.76 22.774 136.237 20.7496 138.111 19.4402C139.995 18.1243 142.504 17.375 145.812 17.375V12.375ZM129.085 24.009C128.45 25.5974 128.219 27.6532 128.219 29.9688H133.219C133.219 27.8676 133.446 26.5692 133.727 25.866L129.085 24.009ZM128.219 29.9688V33.4062H133.219V29.9688H128.219ZM128.219 33.4062C128.219 37.1701 129.047 40.5259 130.847 43.3396C132.653 46.1618 135.319 48.2546 138.682 49.6774L140.63 45.0726C138.035 43.9745 136.232 42.4789 135.059 40.6448C133.88 38.8022 133.219 36.4341 133.219 33.4062H128.219ZM138.722 49.694C140.504 50.4118 142.341 50.7812 144.219 50.7812V45.7812C143.013 45.7812 141.808 45.5466 140.59 45.056L138.722 49.694ZM144.219 50.7812H181.969V45.7812H144.219V50.7812ZM179.469 48.2812V54H184.469V48.2812H179.469ZM181.969 51.5H143.75V56.5H181.969V51.5ZM143.75 51.5C140.454 51.5 137.628 50.6263 135.181 48.9186C132.709 47.194 130.496 44.5274 128.611 40.757L124.139 42.993C126.295 47.306 128.999 50.7018 132.319 53.0189C135.664 55.3529 139.504 56.5 143.75 56.5V51.5ZM128.715 40.995C127.921 38.8836 127.5 36.4388 127.5 33.625H122.5C122.5 36.9362 122.996 39.9914 124.035 42.755L128.715 40.995ZM127.5 33.625V29.0625H122.5V33.625H127.5ZM127.5 29.0625C127.5 25.0083 128.509 21.7064 130.413 19.0261C132.327 16.3318 135.276 14.0852 139.448 12.3759L137.552 7.74914C132.724 9.72732 128.923 12.4911 126.337 16.1301C123.741 19.7832 122.5 24.1375 122.5 29.0625H127.5ZM139.166 12.4723C141.155 11.9227 143.067 11.6562 144.906 11.6562V6.65625C142.579 6.65625 140.22 6.99398 137.834 7.65272L139.166 12.4723ZM187.5 9.15625V6.65625H185V9.15625H187.5ZM244.375 9.15625H246.875V6.65625H244.375V9.15625ZM244.375 54V56.5H246.875V54H244.375ZM238.719 54H236.219V56.5H238.719V54ZM238.719 15.0625H241.219V12.5625H238.719V15.0625ZM193.406 15.0625V12.5625H190.906V15.0625H193.406ZM193.406 54V56.5H195.906V54H193.406ZM187.5 54H185V56.5H187.5V54ZM187.5 11.6562H244.375V6.65625H187.5V11.6562ZM241.875 9.15625V54H246.875V9.15625H241.875ZM244.375 51.5H238.719V56.5H244.375V51.5ZM241.219 54V15.0625H236.219V54H241.219ZM238.719 12.5625H193.406V17.5625H238.719V12.5625ZM190.906 15.0625V54H195.906V15.0625H190.906ZM193.406 51.5H187.5V56.5H193.406V51.5ZM190 54V9.15625H185V54H190ZM250 9.03125V6.53125H247.5V9.03125H250ZM255.75 9.03125H258.25V6.53125H255.75V9.03125ZM255.75 48.25H253.25V50.75H255.75V48.25ZM263.312 48.25V50.75H264.46L265.208 49.8801L263.312 48.25ZM290.375 9.03125V6.53125H289.055L288.311 7.62126L290.375 9.03125ZM307.125 9.03125H309.625V6.53125H307.125V9.03125ZM307.125 54V56.5H309.625V54H307.125ZM301.156 54H298.656V56.5H301.156V54ZM301.156 14.7812H303.656V12.2812H301.156V14.7812ZM293.812 14.7812V12.2812H292.945L292.263 12.819L293.812 14.7812ZM266.75 54V56.5H268.078L268.821 55.4L266.75 54ZM250 54H247.5V56.5H250V54ZM250 11.5312H255.75V6.53125H250V11.5312ZM253.25 9.03125V48.25H258.25V9.03125H253.25ZM255.75 50.75H263.312V45.75H255.75V50.75ZM265.208 49.8801C265.534 49.5006 266.36 48.3491 267.553 46.6501C268.799 44.8771 270.551 42.354 272.808 39.0839C277.322 32.5424 283.866 22.9942 292.439 10.4412L288.311 7.62126C279.738 20.1724 273.199 29.7128 268.692 36.2442C266.438 39.5106 264.696 42.02 263.462 43.7757C262.845 44.6542 262.359 45.3379 262.003 45.8309C261.825 46.0777 261.683 46.2704 261.577 46.4126C261.459 46.5695 261.414 46.6233 261.417 46.6199L265.208 49.8801ZM290.375 11.5312H307.125V6.53125H290.375V11.5312ZM304.625 9.03125V54H309.625V9.03125H304.625ZM307.125 51.5H301.156V56.5H307.125V51.5ZM303.656 54V14.7812H298.656V54H303.656ZM301.156 12.2812H293.812V17.2812H301.156V12.2812ZM292.263 12.819C291.979 13.0432 291.741 13.3308 291.648 13.4424C291.501 13.6191 291.33 13.8368 291.142 14.0834C290.763 14.5799 290.262 15.2649 289.643 16.1281C288.404 17.8585 286.653 20.3631 284.395 23.6348C279.878 30.1814 273.305 39.8379 264.679 52.6L268.821 55.4C277.445 42.6413 284.007 33.0009 288.511 26.4746C290.764 23.2099 292.495 20.734 293.708 19.0399C294.316 18.1908 294.784 17.5526 295.118 17.1148C295.286 16.8943 295.407 16.7421 295.487 16.6462C295.621 16.4852 295.547 16.5974 295.362 16.7435L292.263 12.819ZM266.75 51.5H250V56.5H266.75V51.5ZM252.5 54V9.03125H247.5V54H252.5ZM369.469 9.15625H371.969V6.65625H369.469V9.15625ZM369.469 14.875V17.375H371.969V14.875H369.469ZM318.906 24.9375L321.227 25.866L321.255 25.7967L321.279 25.7259L318.906 24.9375ZM327.156 47.375L326.182 49.6774L326.202 49.6859L326.222 49.694L327.156 47.375ZM369.469 48.2812H371.969V45.7812H369.469V48.2812ZM369.469 54V56.5H371.969V54H369.469ZM313.875 41.875L311.535 42.755L311.581 42.8767L311.639 42.993L313.875 41.875ZM326 10.0625L325.334 7.65272L325.19 7.6925L325.052 7.74914L326 10.0625ZM332.406 11.6562H369.469V6.65625H332.406V11.6562ZM366.969 9.15625V14.875H371.969V9.15625H366.969ZM369.469 12.375H333.312V17.375H369.469V12.375ZM333.312 12.375C329.246 12.375 325.666 13.3028 322.748 15.3411C319.821 17.3859 317.782 20.3926 316.534 24.1491L321.279 25.7259C322.26 22.774 323.737 20.7496 325.611 19.4402C327.495 18.1243 330.004 17.375 333.312 17.375V12.375ZM316.585 24.009C315.95 25.5974 315.719 27.6532 315.719 29.9688H320.719C320.719 27.8676 320.946 26.5692 321.227 25.866L316.585 24.009ZM315.719 29.9688V33.4062H320.719V29.9688H315.719ZM315.719 33.4062C315.719 37.1701 316.547 40.5259 318.347 43.3396C320.153 46.1618 322.819 48.2546 326.182 49.6774L328.13 45.0726C325.535 43.9745 323.732 42.4789 322.559 40.6448C321.38 38.8022 320.719 36.4341 320.719 33.4062H315.719ZM326.222 49.694C328.004 50.4118 329.841 50.7812 331.719 50.7812V45.7812C330.513 45.7812 329.308 45.5466 328.09 45.056L326.222 49.694ZM331.719 50.7812H369.469V45.7812H331.719V50.7812ZM366.969 48.2812V54H371.969V48.2812H366.969ZM369.469 51.5H331.25V56.5H369.469V51.5ZM331.25 51.5C327.954 51.5 325.128 50.6263 322.681 48.9186C320.209 47.194 317.996 44.5274 316.111 40.757L311.639 42.993C313.795 47.306 316.499 50.7018 319.819 53.0189C323.164 55.3529 327.004 56.5 331.25 56.5V51.5ZM316.215 40.995C315.421 38.8836 315 36.4388 315 33.625H310C310 36.9362 310.496 39.9914 311.535 42.755L316.215 40.995ZM315 33.625V29.0625H310V33.625H315ZM315 29.0625C315 25.0083 316.009 21.7064 317.913 19.0261C319.827 16.3318 322.776 14.0852 326.948 12.3759L325.052 7.74914C320.224 9.72732 316.423 12.4911 313.837 16.1301C311.241 19.7832 310 24.1375 310 29.0625H315ZM326.666 12.4723C328.655 11.9227 330.567 11.6562 332.406 11.6562V6.65625C330.079 6.65625 327.72 6.99398 325.334 7.65272L326.666 12.4723ZM431.844 9.25H434.344V6.75H431.844V9.25ZM431.844 14.9688V17.4688H434.344V14.9688H431.844ZM381.156 24.5625L378.879 23.5313L378.656 24.0229V24.5625H381.156ZM380.938 25.6875L378.778 24.4278L376.585 28.1875H380.938V25.6875ZM431.406 25.6875L431.76 23.2126L431.584 23.1875H431.406V25.6875ZM431.844 54V56.5H434.344V54H431.844ZM426.156 54H423.656V56.5H426.156V54ZM426.156 31.4062H428.656V28.9062H426.156V31.4062ZM380.719 31.4062V28.9062H378.219V31.4062H380.719ZM380.719 54V56.5H383.219V54H380.719ZM375 54H372.5V56.5H375V54ZM387.562 10.4062L386.772 8.03454L386.627 8.08275L386.49 8.14816L387.562 10.4062ZM393.25 11.75H431.844V6.75H393.25V11.75ZM429.344 9.25V14.9688H434.344V9.25H429.344ZM431.844 12.4688H393.719V17.4688H431.844V12.4688ZM393.719 12.4688C390.454 12.4688 387.499 13.4345 384.951 15.3803C382.438 17.2996 380.443 20.0773 378.879 23.5313L383.434 25.5937C384.766 22.6519 386.312 20.6327 387.986 19.3541C389.626 18.1019 391.504 17.4688 393.719 17.4688V12.4688ZM378.656 24.5625C378.656 24.6275 378.654 24.6748 378.651 24.7064C378.649 24.7384 378.646 24.7489 378.648 24.7416C378.649 24.7345 378.656 24.7021 378.674 24.6507C378.692 24.5992 378.724 24.5212 378.778 24.4278L383.097 26.9472C383.574 26.1289 383.656 25.2237 383.656 24.5625H378.656ZM380.938 28.1875H431.406V23.1875H380.938V28.1875ZM431.053 28.1624C430.845 28.1328 430.347 28.0139 429.907 27.5417C429.441 27.0426 429.344 26.478 429.344 26.1562H434.344C434.344 25.5636 434.174 24.7856 433.562 24.1301C432.975 23.5017 432.259 23.2839 431.76 23.2126L431.053 28.1624ZM429.344 26.1562V54H434.344V26.1562H429.344ZM431.844 51.5H426.156V56.5H431.844V51.5ZM428.656 54V31.4062H423.656V54H428.656ZM426.156 28.9062H380.719V33.9062H426.156V28.9062ZM378.219 31.4062V54H383.219V31.4062H378.219ZM380.719 51.5H375V56.5H380.719V51.5ZM377.5 54V28.4375H372.5V54H377.5ZM377.5 28.4375C377.5 24.8754 378.419 21.8725 380.192 19.3276C381.979 16.7619 384.738 14.5161 388.635 12.6643L386.49 8.14816C382.012 10.2756 378.489 13.0246 376.089 16.4693C373.675 19.9348 372.5 23.958 372.5 28.4375H377.5ZM388.353 12.778C390.553 12.0445 392.157 11.75 393.25 11.75V6.75C391.385 6.75 389.197 7.22629 386.772 8.03454L388.353 12.778ZM437.5 9.15625V6.65625H435V9.15625H437.5ZM443.156 9.15625H445.656V6.65625H443.156V9.15625ZM443.156 25.2188H440.656V27.7188H443.156V25.2188ZM488.719 25.2188V27.7188H491.219V25.2188H488.719ZM488.719 9.15625V6.65625H486.219V9.15625H488.719ZM494.375 9.15625H496.875V6.65625H494.375V9.15625ZM494.375 54V56.5H496.875V54H494.375ZM488.719 54H486.219V56.5H488.719V54ZM488.719 30.875H491.219V28.375H488.719V30.875ZM443.156 30.875V28.375H440.656V30.875H443.156ZM443.156 54V56.5H445.656V54H443.156ZM437.5 54H435V56.5H437.5V54ZM437.5 11.6562H443.156V6.65625H437.5V11.6562ZM440.656 9.15625V25.2188H445.656V9.15625H440.656ZM443.156 27.7188H488.719V22.7188H443.156V27.7188ZM491.219 25.2188V9.15625H486.219V25.2188H491.219ZM488.719 11.6562H494.375V6.65625H488.719V11.6562ZM491.875 9.15625V54H496.875V9.15625H491.875ZM494.375 51.5H488.719V56.5H494.375V51.5ZM491.219 54V30.875H486.219V54H491.219ZM488.719 28.375H443.156V33.375H488.719V28.375ZM440.656 30.875V54H445.656V30.875H440.656ZM443.156 51.5H437.5V56.5H443.156V51.5ZM440 54V9.15625H435V54H440ZM500 9.03125V6.53125H497.5V9.03125H500ZM505.75 9.03125H508.25V6.53125H505.75V9.03125ZM505.75 48.25H503.25V50.75H505.75V48.25ZM513.312 48.25V50.75H514.46L515.208 49.8801L513.312 48.25ZM540.375 9.03125V6.53125H539.055L538.311 7.62126L540.375 9.03125ZM557.125 9.03125H559.625V6.53125H557.125V9.03125ZM557.125 54V56.5H559.625V54H557.125ZM551.156 54H548.656V56.5H551.156V54ZM551.156 14.7812H553.656V12.2812H551.156V14.7812ZM543.812 14.7812V12.2812H542.945L542.263 12.819L543.812 14.7812ZM516.75 54V56.5H518.078L518.821 55.4L516.75 54ZM500 54H497.5V56.5H500V54ZM500 11.5312H505.75V6.53125H500V11.5312ZM503.25 9.03125V48.25H508.25V9.03125H503.25ZM505.75 50.75H513.312V45.75H505.75V50.75ZM515.208 49.8801C515.534 49.5006 516.36 48.3491 517.553 46.6501C518.799 44.8771 520.551 42.354 522.808 39.0839C527.322 32.5424 533.866 22.9942 542.439 10.4412L538.311 7.62126C529.738 20.1724 523.199 29.7128 518.692 36.2442C516.438 39.5106 514.696 42.02 513.462 43.7757C512.845 44.6542 512.359 45.3379 512.003 45.8309C511.825 46.0777 511.683 46.2704 511.577 46.4126C511.459 46.5695 511.414 46.6233 511.417 46.6199L515.208 49.8801ZM540.375 11.5312H557.125V6.53125H540.375V11.5312ZM554.625 9.03125V54H559.625V9.03125H554.625ZM557.125 51.5H551.156V56.5H557.125V51.5ZM553.656 54V14.7812H548.656V54H553.656ZM551.156 12.2812H543.812V17.2812H551.156V12.2812ZM542.263 12.819C541.979 13.0432 541.741 13.3308 541.648 13.4424C541.501 13.6191 541.33 13.8368 541.142 14.0834C540.763 14.5799 540.262 15.2649 539.643 16.1281C538.404 17.8585 536.653 20.3631 534.395 23.6348C529.878 30.1814 523.305 39.8379 514.679 52.6L518.821 55.4C527.445 42.6413 534.007 33.0009 538.511 26.4746C540.764 23.2099 542.495 20.734 543.708 19.0399C544.316 18.1908 544.784 17.5526 545.118 17.1148C545.286 16.8943 545.407 16.7421 545.487 16.6462C545.621 16.4852 545.547 16.5974 545.362 16.7435L542.263 12.819ZM516.75 51.5H500V56.5H516.75V51.5ZM502.5 54V9.03125H497.5V54H502.5ZM562.5 9.15625V6.65625H560V9.15625H562.5ZM619.312 9.15625H621.812V6.65625H619.312V9.15625ZM619.312 14.9062V17.4062H621.812V14.9062H619.312ZM562.5 14.9062H560V17.4062H562.5V14.9062ZM562.5 25.7188V23.2188H560V25.7188H562.5ZM619.312 25.7188H621.812V23.2188H619.312V25.7188ZM619.312 31.4688V33.9688H621.812V31.4688H619.312ZM568.25 31.4688V28.9688H565.75V31.4688H568.25ZM577.219 47.5625L576.104 49.8001L576.332 49.9138L576.578 49.979L577.219 47.5625ZM619.062 48.25H621.562V45.75H619.062V48.25ZM619.062 54V56.5H621.562V54H619.062ZM566.188 46.1875L564.146 47.6302L564.199 47.7058L564.258 47.7773L566.188 46.1875ZM562.5 11.6562H619.312V6.65625H562.5V11.6562ZM616.812 9.15625V14.9062H621.812V9.15625H616.812ZM619.312 12.4062H562.5V17.4062H619.312V12.4062ZM565 14.9062V9.15625H560V14.9062H565ZM562.5 28.2188H619.312V23.2188H562.5V28.2188ZM616.812 25.7188V31.4688H621.812V25.7188H616.812ZM619.312 28.9688H568.25V33.9688H619.312V28.9688ZM565.75 31.4688V35.5938H570.75V31.4688H565.75ZM565.75 35.5938C565.75 41.8647 569.61 46.5643 576.104 49.8001L578.334 45.3249C572.87 42.6024 570.75 39.3228 570.75 35.5938H565.75ZM576.578 49.979C578.385 50.4579 580.003 50.75 581.344 50.75V45.75C580.642 45.75 579.511 45.5837 577.859 45.146L576.578 49.979ZM581.344 50.75H619.062V45.75H581.344V50.75ZM616.562 48.25V54H621.562V48.25H616.562ZM619.062 51.5H580.656V56.5H619.062V51.5ZM580.656 51.5C576.237 51.5 572.068 49.393 568.117 44.5977L564.258 47.7773C568.89 53.3987 574.367 56.5 580.656 56.5V51.5ZM568.229 44.7448C565.979 41.5608 565 38.6804 565 36.0625H560C560 39.9863 561.479 43.8559 564.146 47.6302L568.229 44.7448ZM565 36.0625V25.7188H560V36.0625H565Z" fill="white"/>
<path d="M4 16.4492H73.8438C90.4062 16.4492 102.125 24.457 109 40.4727C110.484 43.832 111.227 47.6992 111.227 52.0742V58.7539H15.1328V101H4V48.0312H99.6836C99.6836 42.9141 95.9727 37.4258 88.5508 31.5664C84.332 28.9102 80.3281 27.582 76.5391 27.582H4V16.4492ZM155.406 17.0938H227.77V27.8164H156.285C146.012 27.8164 138.16 33.8125 132.73 45.8047C132.73 46.7422 132.594 47.4453 132.32 47.9141H226.949C227.496 47.9922 227.77 48.2852 227.77 48.793V101H217.105V58.6367H131.91V101H121.188V53.0703C121.188 37.9922 129.039 26.7227 144.742 19.2617C149.078 17.8164 152.633 17.0938 155.406 17.0938ZM275.699 16.918H345.191V27.6406H277.398C263.57 27.6406 254.566 33.9297 250.387 46.5078C249.527 48.6562 249.098 51.8008 249.098 55.9414V62.3867C249.098 75.1211 254.684 83.8516 265.855 88.5781C268.668 89.7109 271.52 90.2773 274.41 90.2773H345.191V101H273.531C259.391 101 248.531 93.4219 240.953 78.2656C239.234 73.6953 238.375 68.5391 238.375 62.7969V54.2422C238.375 37.4062 246.812 25.5312 263.688 18.6172C267.789 17.4844 271.793 16.918 275.699 16.918ZM355.562 16.918H462.203V101H451.598V27.9922H366.637V101H355.562V16.918ZM472.75 16.6836H483.531V90.2188H497.711C499.391 88.2656 516.305 63.7539 548.453 16.6836H579.859V101H568.668V27.4648H554.898C553.414 28.6367 536.5 53.1484 504.156 101H472.75V16.6836ZM627.262 16.918H696.754V27.6406H628.961C615.133 27.6406 606.129 33.9297 601.949 46.5078C601.09 48.6562 600.66 51.8008 600.66 55.9414V62.3867C600.66 75.1211 606.246 83.8516 617.418 88.5781C620.23 89.7109 623.082 90.2773 625.973 90.2773H696.754V101H625.094C610.953 101 600.094 93.4219 592.516 78.2656C590.797 73.6953 589.938 68.5391 589.938 62.7969V54.2422C589.938 37.4062 598.375 25.5312 615.25 18.6172C619.352 17.4844 623.355 16.918 627.262 16.918ZM741.344 17.0938H813.707V27.8164H742.223C731.949 27.8164 724.098 33.8125 718.668 45.8047C718.668 46.7422 718.531 47.4453 718.258 47.9141H812.887C813.434 47.9922 813.707 48.2852 813.707 48.793V101H803.043V58.6367H717.848V101H707.125V53.0703C707.125 37.9922 714.977 26.7227 730.68 19.2617C735.016 17.8164 738.57 17.0938 741.344 17.0938ZM824.312 16.918H834.918V47.0352H920.348V16.918H930.953V101H920.348V57.6406H834.918V101H824.312V16.918ZM941.5 16.6836H952.281V90.2188H966.461C968.141 88.2656 985.055 63.7539 1017.2 16.6836H1048.61V101H1037.42V27.4648H1023.65C1022.16 28.6367 1005.25 53.1484 972.906 101H941.5V16.6836ZM1058.69 16.918H1165.21V27.6992H1058.69V16.918ZM1058.69 47.9727H1165.21V58.7539H1069.47V66.4883C1069.47 75.8633 1075.07 83.3438 1086.29 88.9297C1089.53 89.7891 1092.11 90.2188 1094.02 90.2188H1164.74V101H1092.73C1082.69 101 1073.65 96.1172 1065.6 86.3516C1060.99 79.8281 1058.69 73.5 1058.69 67.3672V47.9727Z" fill="white" fill-opacity="0.05"/>
<path d="M4 16.4492V10.044H-2.40524V16.4492H4ZM109 40.4727L103.114 42.9993L103.128 43.0304L103.141 43.0614L109 40.4727ZM111.227 58.7539V65.1591H117.632V58.7539H111.227ZM15.1328 58.7539V52.3487H8.72757V58.7539H15.1328ZM15.1328 101V107.405H21.5381V101H15.1328ZM4 101H-2.40524V107.405H4V101ZM4 48.0312V41.626H-2.40524V48.0312H4ZM99.6836 48.0312V54.4365H106.089V48.0312H99.6836ZM88.5508 31.5664L92.5198 26.539L92.2521 26.3278L91.9636 26.1461L88.5508 31.5664ZM4 27.582H-2.40524V33.9873H4V27.582ZM4 22.8545H73.8438V10.044H4V22.8545ZM73.8438 22.8545C81.0564 22.8545 86.8151 24.5826 91.4409 27.7435C96.0889 30.9197 100.047 35.8537 103.114 42.9993L114.886 37.946C111.078 29.076 105.739 21.9983 98.6685 17.1666C91.5755 12.3198 83.1936 10.044 73.8438 10.044V22.8545ZM103.141 43.0614C104.203 45.4647 104.821 48.423 104.821 52.0742H117.632C117.632 46.9754 116.766 42.1994 114.859 37.8839L103.141 43.0614ZM104.821 52.0742V58.7539H117.632V52.0742H104.821ZM111.227 52.3487H15.1328V65.1591H111.227V52.3487ZM8.72757 58.7539V101H21.5381V58.7539H8.72757ZM15.1328 94.5948H4V107.405H15.1328V94.5948ZM10.4052 101V48.0312H-2.40524V101H10.4052ZM4 54.4365H99.6836V41.626H4V54.4365ZM106.089 48.0312C106.089 39.7992 100.259 32.649 92.5198 26.539L84.5818 36.5938C91.6863 42.2026 93.2784 46.0289 93.2784 48.0312H106.089ZM91.9636 26.1461C87.0387 23.0452 81.8615 21.1768 76.5391 21.1768V33.9873C78.7948 33.9873 81.6253 34.7751 85.138 36.9867L91.9636 26.1461ZM76.5391 21.1768H4V33.9873H76.5391V21.1768ZM10.4052 27.582V16.4492H-2.40524V27.582H10.4052ZM227.77 17.0938H234.175V10.6885H227.77V17.0938ZM227.77 27.8164V34.2216H234.175V27.8164H227.77ZM132.73 45.8047L126.895 43.1628L126.325 44.4222V45.8047H132.73ZM132.32 47.9141L126.788 44.6866L121.169 54.3193H132.32V47.9141ZM226.949 47.9141L227.855 41.5732L227.404 41.5088H226.949V47.9141ZM227.77 101V107.405H234.175V101H227.77ZM217.105 101H210.7V107.405H217.105V101ZM217.105 58.6367H223.511V52.2315H217.105V58.6367ZM131.91 58.6367V52.2315H125.505V58.6367H131.91ZM131.91 101V107.405H138.315V101H131.91ZM121.188 101H114.782V107.405H121.188V101ZM144.742 19.2617L142.717 13.1852L142.346 13.3087L141.993 13.4763L144.742 19.2617ZM155.406 23.499H227.77V10.6885H155.406V23.499ZM221.364 17.0938V27.8164H234.175V17.0938H221.364ZM227.77 21.4112H156.285V34.2216H227.77V21.4112ZM156.285 21.4112C149.804 21.4112 143.893 23.3363 138.804 27.2229C133.803 31.0418 129.907 36.5104 126.895 43.1628L138.565 48.4466C140.983 43.1068 143.728 39.5813 146.579 37.404C149.341 35.2946 152.493 34.2216 156.285 34.2216V21.4112ZM126.325 45.8047C126.325 45.981 126.311 45.9651 126.34 45.8126C126.368 45.6708 126.467 45.2364 126.788 44.6866L137.853 51.1415C138.976 49.2167 139.136 47.1552 139.136 45.8047H126.325ZM132.32 54.3193H226.949V41.5088H132.32V54.3193ZM226.043 54.2549C225.412 54.1647 224.061 53.8262 222.882 52.5628C221.638 51.2302 221.364 49.7105 221.364 48.793H234.175C234.175 47.3677 233.764 45.4476 232.247 43.822C230.794 42.2656 229.033 41.7415 227.855 41.5732L226.043 54.2549ZM221.364 48.793V101H234.175V48.793H221.364ZM227.77 94.5948H217.105V107.405H227.77V94.5948ZM223.511 101V58.6367H210.7V101H223.511ZM217.105 52.2315H131.91V65.042H217.105V52.2315ZM125.505 58.6367V101H138.315V58.6367H125.505ZM131.91 94.5948H121.188V107.405H131.91V94.5948ZM127.593 101V53.0703H114.782V101H127.593ZM127.593 53.0703C127.593 46.7065 129.228 41.4266 132.332 36.9711C135.473 32.4625 140.383 28.4245 147.491 25.0472L141.993 13.4763C133.399 17.5599 126.531 22.8871 121.821 29.648C117.073 36.4621 114.782 44.356 114.782 53.0703H127.593ZM146.768 25.3383C150.816 23.9888 153.623 23.499 155.406 23.499V10.6885C151.643 10.6885 147.34 11.644 142.717 13.1852L146.768 25.3383ZM345.191 16.918H351.597V10.5127H345.191V16.918ZM345.191 27.6406V34.0459H351.597V27.6406H345.191ZM250.387 46.5078L256.334 48.8867L256.405 48.7091L256.465 48.5277L250.387 46.5078ZM265.855 88.5781L263.36 94.4771L263.411 94.4988L263.462 94.5195L265.855 88.5781ZM345.191 90.2773H351.597V83.8721H345.191V90.2773ZM345.191 101V107.405H351.597V101H345.191ZM240.953 78.2656L234.958 80.5203L235.075 80.8321L235.224 81.1301L240.953 78.2656ZM263.688 18.6172L261.982 12.4431L261.613 12.545L261.259 12.6901L263.688 18.6172ZM275.699 23.3232H345.191V10.5127H275.699V23.3232ZM338.786 16.918V27.6406H351.597V16.918H338.786ZM345.191 21.2354H277.398V34.0459H345.191V21.2354ZM277.398 21.2354C269.514 21.2354 262.434 23.0362 256.607 27.1063C250.756 31.1929 246.741 37.168 244.308 44.488L256.465 48.5277C258.212 43.2695 260.789 39.811 263.942 37.6085C267.119 35.3896 271.455 34.0459 277.398 34.0459V21.2354ZM244.44 44.129C243.127 47.4113 242.692 51.5262 242.692 55.9414H255.503C255.503 52.0754 255.928 49.9012 256.334 48.8867L244.44 44.129ZM242.692 55.9414V62.3867H255.503V55.9414H242.692ZM242.692 62.3867C242.692 69.6968 244.303 76.3283 247.892 81.9374C251.495 87.5685 256.791 91.6979 263.36 94.4771L268.351 82.6791C263.748 80.7318 260.666 78.1326 258.682 75.0333C256.685 71.912 255.503 67.811 255.503 62.3867H242.692ZM263.462 94.5195C266.998 95.9435 270.66 96.6826 274.41 96.6826V83.8721C272.379 83.8721 270.338 83.4784 268.249 82.6367L263.462 94.5195ZM274.41 96.6826H345.191V83.8721H274.41V96.6826ZM338.786 90.2773V101H351.597V90.2773H338.786ZM345.191 94.5948H273.531V107.405H345.191V94.5948ZM273.531 94.5948C267.678 94.5948 262.727 93.0505 258.447 90.0637C254.105 87.0337 250.124 82.2842 246.682 75.4011L235.224 81.1301C239.361 89.4033 244.598 96.021 251.116 100.569C257.695 105.16 265.244 107.405 273.531 107.405V94.5948ZM246.948 76.011C245.544 72.2761 244.78 67.9018 244.78 62.7969H231.97C231.97 69.1763 232.925 75.1145 234.958 80.5203L246.948 76.011ZM244.78 62.7969V54.2422H231.97V62.7969H244.78ZM244.78 54.2422C244.78 46.9397 246.591 41.1103 249.925 36.4189C253.283 31.6917 258.519 27.6568 266.116 24.5442L261.259 12.6901C251.981 16.4916 244.56 21.8513 239.482 28.999C234.378 36.1827 231.97 44.7087 231.97 54.2422H244.78ZM265.393 24.7913C268.988 23.7983 272.418 23.3232 275.699 23.3232V10.5127C271.168 10.5127 266.59 11.1705 261.982 12.4431L265.393 24.7913ZM355.562 16.918V10.5127H349.157V16.918H355.562ZM462.203 16.918H468.608V10.5127H462.203V16.918ZM462.203 101V107.405H468.608V101H462.203ZM451.598 101H445.192V107.405H451.598V101ZM451.598 27.9922H458.003V21.5869H451.598V27.9922ZM366.637 27.9922V21.5869H360.231V27.9922H366.637ZM366.637 101V107.405H373.042V101H366.637ZM355.562 101H349.157V107.405H355.562V101ZM355.562 23.3232H462.203V10.5127H355.562V23.3232ZM455.798 16.918V101H468.608V16.918H455.798ZM462.203 94.5948H451.598V107.405H462.203V94.5948ZM458.003 101V27.9922H445.192V101H458.003ZM451.598 21.5869H366.637V34.3974H451.598V21.5869ZM360.231 27.9922V101H373.042V27.9922H360.231ZM366.637 94.5948H355.562V107.405H366.637V94.5948ZM361.968 101V16.918H349.157V101H361.968ZM472.75 16.6836V10.2784H466.345V16.6836H472.75ZM483.531 16.6836H489.936V10.2784H483.531V16.6836ZM483.531 90.2188H477.126V96.624H483.531V90.2188ZM497.711 90.2188V96.624H500.651L502.567 94.3952L497.711 90.2188ZM548.453 16.6836V10.2784H545.071L543.164 13.0711L548.453 16.6836ZM579.859 16.6836H586.265V10.2784H579.859V16.6836ZM579.859 101V107.405H586.265V101H579.859ZM568.668 101H562.263V107.405H568.668V101ZM568.668 27.4648H575.073V21.0596H568.668V27.4648ZM554.898 27.4648V21.0596H552.675L550.929 22.4375L554.898 27.4648ZM504.156 101V107.405H507.558L509.463 104.587L504.156 101ZM472.75 101H466.345V107.405H472.75V101ZM472.75 23.0888H483.531V10.2784H472.75V23.0888ZM477.126 16.6836V90.2188H489.936V16.6836H477.126ZM483.531 96.624H497.711V83.8135H483.531V96.624ZM502.567 94.3952C503.25 93.602 504.861 91.3473 507.068 88.2064C509.408 84.8761 512.696 80.1406 516.928 74.008C525.394 61.7392 537.667 43.8336 553.742 20.2961L543.164 13.0711C527.091 36.6039 514.832 54.4893 506.384 66.7323C502.159 72.8555 498.895 77.556 496.586 80.8419C495.431 82.4867 494.525 83.7615 493.864 84.6766C493.129 85.6932 492.851 86.0461 492.855 86.0423L502.567 94.3952ZM548.453 23.0888H579.859V10.2784H548.453V23.0888ZM573.454 16.6836V101H586.265V16.6836H573.454ZM579.859 94.5948H568.668V107.405H579.859V94.5948ZM575.073 101V27.4648H562.263V101H575.073ZM568.668 21.0596H554.898V33.8701H568.668V21.0596ZM550.929 22.4375C550.236 22.9851 549.682 23.6615 549.522 23.8538C549.222 24.213 548.884 24.6436 548.525 25.115C547.8 26.066 546.848 27.3665 545.685 28.9899C543.352 32.2468 540.062 36.9527 535.828 43.0897C527.353 55.3716 515.024 73.4829 498.85 97.4131L509.463 104.587C525.632 80.6655 537.932 62.5952 546.372 50.3654C550.594 44.2465 553.833 39.6141 556.099 36.4501C557.236 34.863 558.102 33.6824 558.712 32.8817C559.021 32.4772 559.23 32.2143 559.357 32.0624C559.623 31.7435 559.375 32.0911 558.867 32.4922L550.929 22.4375ZM504.156 94.5948H472.75V107.405H504.156V94.5948ZM479.155 101V16.6836H466.345V101H479.155ZM696.754 16.918H703.159V10.5127H696.754V16.918ZM696.754 27.6406V34.0459H703.159V27.6406H696.754ZM601.949 46.5078L607.896 48.8867L607.967 48.7091L608.028 48.5277L601.949 46.5078ZM617.418 88.5781L614.922 94.4771L614.973 94.4988L615.025 94.5195L617.418 88.5781ZM696.754 90.2773H703.159V83.8721H696.754V90.2773ZM696.754 101V107.405H703.159V101H696.754ZM592.516 78.2656L586.52 80.5203L586.638 80.8321L586.787 81.1301L592.516 78.2656ZM615.25 18.6172L613.545 12.4431L613.176 12.545L612.822 12.6901L615.25 18.6172ZM627.262 23.3232H696.754V10.5127H627.262V23.3232ZM690.349 16.918V27.6406H703.159V16.918H690.349ZM696.754 21.2354H628.961V34.0459H696.754V21.2354ZM628.961 21.2354C621.076 21.2354 613.996 23.0362 608.169 27.1063C602.318 31.1929 598.303 37.168 595.871 44.488L608.028 48.5277C609.775 43.2695 612.352 39.811 615.505 37.6085C618.682 35.3896 623.017 34.0459 628.961 34.0459V21.2354ZM596.002 44.129C594.689 47.4113 594.255 51.5262 594.255 55.9414H607.065C607.065 52.0754 607.491 49.9012 607.896 48.8867L596.002 44.129ZM594.255 55.9414V62.3867H607.065V55.9414H594.255ZM594.255 62.3867C594.255 69.6968 595.865 76.3283 599.454 81.9374C603.057 87.5685 608.353 91.6979 614.922 94.4771L619.914 82.6791C615.311 80.7318 612.228 78.1326 610.245 75.0333C608.248 71.912 607.065 67.811 607.065 62.3867H594.255ZM615.025 94.5195C618.56 95.9435 622.222 96.6826 625.973 96.6826V83.8721C623.942 83.8721 621.901 83.4784 619.811 82.6367L615.025 94.5195ZM625.973 96.6826H696.754V83.8721H625.973V96.6826ZM690.349 90.2773V101H703.159V90.2773H690.349ZM696.754 94.5948H625.094V107.405H696.754V94.5948ZM625.094 94.5948C619.241 94.5948 614.289 93.0505 610.009 90.0637C605.667 87.0337 601.686 82.2842 598.245 75.4011L586.787 81.1301C590.923 89.4033 596.161 96.021 602.678 100.569C609.258 105.16 616.806 107.405 625.094 107.405V94.5948ZM598.511 76.011C597.106 72.2761 596.343 67.9018 596.343 62.7969H583.532C583.532 69.1763 584.487 75.1145 586.52 80.5203L598.511 76.011ZM596.343 62.7969V54.2422H583.532V62.7969H596.343ZM596.343 54.2422C596.343 46.9397 598.154 41.1103 601.487 36.4189C604.846 31.6917 610.082 27.6568 617.678 24.5442L612.822 12.6901C603.543 16.4916 596.123 21.8513 591.044 28.999C585.94 36.1827 583.532 44.7087 583.532 54.2422H596.343ZM616.955 24.7913C620.551 23.7983 623.981 23.3232 627.262 23.3232V10.5127C622.73 10.5127 618.153 11.1705 613.545 12.4431L616.955 24.7913ZM813.707 17.0938H820.112V10.6885H813.707V17.0938ZM813.707 27.8164V34.2216H820.112V27.8164H813.707ZM718.668 45.8047L712.833 43.1628L712.263 44.4222V45.8047H718.668ZM718.258 47.9141L712.725 44.6866L707.106 54.3193H718.258V47.9141ZM812.887 47.9141L813.793 41.5732L813.342 41.5088H812.887V47.9141ZM813.707 101V107.405H820.112V101H813.707ZM803.043 101H796.638V107.405H803.043V101ZM803.043 58.6367H809.448V52.2315H803.043V58.6367ZM717.848 58.6367V52.2315H711.442V58.6367H717.848ZM717.848 101V107.405H724.253V101H717.848ZM707.125 101H700.72V107.405H707.125V101ZM730.68 19.2617L728.654 13.1852L728.284 13.3087L727.931 13.4763L730.68 19.2617ZM741.344 23.499H813.707V10.6885H741.344V23.499ZM807.302 17.0938V27.8164H820.112V17.0938H807.302ZM813.707 21.4112H742.223V34.2216H813.707V21.4112ZM742.223 21.4112C735.741 21.4112 729.831 23.3363 724.741 27.2229C719.741 31.0418 715.845 36.5104 712.833 43.1628L724.503 48.4466C726.921 43.1068 729.666 39.5813 732.516 37.404C735.279 35.2946 738.431 34.2216 742.223 34.2216V21.4112ZM712.263 45.8047C712.263 45.981 712.248 45.9651 712.278 45.8126C712.306 45.6708 712.404 45.2364 712.725 44.6866L723.791 51.1415C724.913 49.2167 725.073 47.1552 725.073 45.8047H712.263ZM718.258 54.3193H812.887V41.5088H718.258V54.3193ZM811.981 54.2549C811.35 54.1647 809.999 53.8262 808.819 52.5628C807.576 51.2302 807.302 49.7105 807.302 48.793H820.112C820.112 47.3677 819.702 45.4476 818.185 43.822C816.732 42.2656 814.971 41.7415 813.793 41.5732L811.981 54.2549ZM807.302 48.793V101H820.112V48.793H807.302ZM813.707 94.5948H803.043V107.405H813.707V94.5948ZM809.448 101V58.6367H796.638V101H809.448ZM803.043 52.2315H717.848V65.042H803.043V52.2315ZM711.442 58.6367V101H724.253V58.6367H711.442ZM717.848 94.5948H707.125V107.405H717.848V94.5948ZM713.53 101V53.0703H700.72V101H713.53ZM713.53 53.0703C713.53 46.7065 715.165 41.4266 718.269 36.9711C721.41 32.4625 726.32 28.4245 733.428 25.0472L727.931 13.4763C719.336 17.5599 712.469 22.8871 707.758 29.648C703.011 36.4621 700.72 44.356 700.72 53.0703H713.53ZM732.705 25.3383C736.754 23.9888 739.56 23.499 741.344 23.499V10.6885C737.581 10.6885 733.278 11.644 728.654 13.1852L732.705 25.3383ZM824.312 16.918V10.5127H817.907V16.918H824.312ZM834.918 16.918H841.323V10.5127H834.918V16.918ZM834.918 47.0352H828.513V53.4404H834.918V47.0352ZM920.348 47.0352V53.4404H926.753V47.0352H920.348ZM920.348 16.918V10.5127H913.942V16.918H920.348ZM930.953 16.918H937.358V10.5127H930.953V16.918ZM930.953 101V107.405H937.358V101H930.953ZM920.348 101H913.942V107.405H920.348V101ZM920.348 57.6406H926.753V51.2354H920.348V57.6406ZM834.918 57.6406V51.2354H828.513V57.6406H834.918ZM834.918 101V107.405H841.323V101H834.918ZM824.312 101H817.907V107.405H824.312V101ZM824.312 23.3232H834.918V10.5127H824.312V23.3232ZM828.513 16.918V47.0352H841.323V16.918H828.513ZM834.918 53.4404H920.348V40.6299H834.918V53.4404ZM926.753 47.0352V16.918H913.942V47.0352H926.753ZM920.348 23.3232H930.953V10.5127H920.348V23.3232ZM924.548 16.918V101H937.358V16.918H924.548ZM930.953 94.5948H920.348V107.405H930.953V94.5948ZM926.753 101V57.6406H913.942V101H926.753ZM920.348 51.2354H834.918V64.0459H920.348V51.2354ZM828.513 57.6406V101H841.323V57.6406H828.513ZM834.918 94.5948H824.312V107.405H834.918V94.5948ZM830.718 101V16.918H817.907V101H830.718ZM941.5 16.6836V10.2784H935.095V16.6836H941.5ZM952.281 16.6836H958.686V10.2784H952.281V16.6836ZM952.281 90.2188H945.876V96.624H952.281V90.2188ZM966.461 90.2188V96.624H969.401L971.317 94.3952L966.461 90.2188ZM1017.2 16.6836V10.2784H1013.82L1011.91 13.0711L1017.2 16.6836ZM1048.61 16.6836H1055.01V10.2784H1048.61V16.6836ZM1048.61 101V107.405H1055.01V101H1048.61ZM1037.42 101H1031.01V107.405H1037.42V101ZM1037.42 27.4648H1043.82V21.0596H1037.42V27.4648ZM1023.65 27.4648V21.0596H1021.42L1019.68 22.4375L1023.65 27.4648ZM972.906 101V107.405H976.308L978.213 104.587L972.906 101ZM941.5 101H935.095V107.405H941.5V101ZM941.5 23.0888H952.281V10.2784H941.5V23.0888ZM945.876 16.6836V90.2188H958.686V16.6836H945.876ZM952.281 96.624H966.461V83.8135H952.281V96.624ZM971.317 94.3952C972 93.602 973.611 91.3473 975.818 88.2064C978.158 84.8761 981.446 80.1406 985.678 74.008C994.144 61.7392 1006.42 43.8336 1022.49 20.2961L1011.91 13.0711C995.841 36.6039 983.582 54.4893 975.134 66.7323C970.909 72.8555 967.645 77.556 965.336 80.8419C964.181 82.4867 963.275 83.7615 962.614 84.6766C961.879 85.6932 961.601 86.0461 961.605 86.0423L971.317 94.3952ZM1017.2 23.0888H1048.61V10.2784H1017.2V23.0888ZM1042.2 16.6836V101H1055.01V16.6836H1042.2ZM1048.61 94.5948H1037.42V107.405H1048.61V94.5948ZM1043.82 101V27.4648H1031.01V101H1043.82ZM1037.42 21.0596H1023.65V33.8701H1037.42V21.0596ZM1019.68 22.4375C1018.99 22.9851 1018.43 23.6615 1018.27 23.8538C1017.97 24.213 1017.63 24.6436 1017.27 25.115C1016.55 26.066 1015.6 27.3665 1014.43 28.9899C1012.1 32.2468 1008.81 36.9527 1004.58 43.0897C996.103 55.3716 983.774 73.4829 967.6 97.4131L978.213 104.587C994.382 80.6655 1006.68 62.5952 1015.12 50.3654C1019.34 44.2465 1022.58 39.6141 1024.85 36.4501C1025.99 34.863 1026.85 33.6824 1027.46 32.8817C1027.77 32.4772 1027.98 32.2143 1028.11 32.0624C1028.37 31.7435 1028.13 32.0911 1027.62 32.4922L1019.68 22.4375ZM972.906 94.5948H941.5V107.405H972.906V94.5948ZM947.905 101V16.6836H935.095V101H947.905ZM1058.69 16.918V10.5127H1052.28V16.918H1058.69ZM1165.21 16.918H1171.62V10.5127H1165.21V16.918ZM1165.21 27.6992V34.1045H1171.62V27.6992H1165.21ZM1058.69 27.6992H1052.28V34.1045H1058.69V27.6992ZM1058.69 47.9727V41.5674H1052.28V47.9727H1058.69ZM1165.21 47.9727H1171.62V41.5674H1165.21V47.9727ZM1165.21 58.7539V65.1591H1171.62V58.7539H1165.21ZM1069.47 58.7539V52.3487H1063.06V58.7539H1069.47ZM1086.29 88.9297L1083.43 94.6627L1084.01 94.9539L1084.64 95.1211L1086.29 88.9297ZM1164.74 90.2188H1171.15V83.8135H1164.74V90.2188ZM1164.74 101V107.405H1171.15V101H1164.74ZM1065.6 86.3516L1060.37 90.0478L1060.51 90.2416L1060.66 90.4248L1065.6 86.3516ZM1058.69 23.3232H1165.21V10.5127H1058.69V23.3232ZM1158.81 16.918V27.6992H1171.62V16.918H1158.81ZM1165.21 21.294H1058.69V34.1045H1165.21V21.294ZM1065.09 27.6992V16.918H1052.28V27.6992H1065.09ZM1058.69 54.3779H1165.21V41.5674H1058.69V54.3779ZM1158.81 47.9727V58.7539H1171.62V47.9727H1158.81ZM1165.21 52.3487H1069.47V65.1591H1165.21V52.3487ZM1063.06 58.7539V66.4883H1075.87V58.7539H1063.06ZM1063.06 66.4883C1063.06 79.1195 1070.9 88.4192 1083.43 94.6627L1089.14 83.1967C1079.25 78.2683 1075.87 72.607 1075.87 66.4883H1063.06ZM1084.64 95.1211C1088.08 96.0332 1091.29 96.624 1094.02 96.624V83.8135C1092.92 83.8135 1090.97 83.545 1087.93 82.7383L1084.64 95.1211ZM1094.02 96.624H1164.74V83.8135H1094.02V96.624ZM1158.34 90.2188V101H1171.15V90.2188H1158.34ZM1164.74 94.5948H1092.73V107.405H1164.74V94.5948ZM1092.73 94.5948C1085.09 94.5948 1077.72 90.9856 1070.54 82.2783L1060.66 90.4248C1069.58 101.249 1080.3 107.405 1092.73 107.405V94.5948ZM1070.83 82.6553C1066.76 76.8879 1065.09 71.8272 1065.09 67.3672H1052.28C1052.28 75.1728 1055.23 82.7683 1060.37 90.0478L1070.83 82.6553ZM1065.09 67.3672V47.9727H1052.28V67.3672H1065.09Z" fill="white" fill-opacity="0.05"/>
</svg>
