<svg width="416" height="29" viewBox="0 0 416 29" fill="none" xmlns="http://www.w3.org/2000/svg">
<path d="M0 0.972656H3.4375C3.65885 0.972656 4.46615 4.21484 5.85938 10.6992C6.6276 13.2773 7.81901 18.1862 9.43359 25.4258H15.7227C16.1133 23.4857 18.0664 15.3346 21.582 0.972656H25.1562V1.10938C24.8828 2.52865 22.6432 11.8255 18.4375 29H6.85547C6.63411 29 6.21094 27.3333 5.58594 24C4.15365 18.6354 2.29167 10.9596 0 0.972656ZM28.3203 0.992188H48.1836V4.56641H40.0391V25.4258H48.1836V29H28.3203V25.4258H36.4648V4.56641H28.6133C28.418 4.56641 28.3203 4.46875 28.3203 4.27344V0.992188ZM51.7578 0.992188H71.6211V4.56641H63.4766V25.4258H71.6211V29H51.7578V25.4258H59.9023V4.56641H52.0508C51.8555 4.56641 51.7578 4.46875 51.7578 4.27344V0.992188ZM96.6797 0.972656H100.254V11.2656H107.559C110.853 11.2656 113.379 9.5013 115.137 5.97266C115.605 4.93099 115.84 3.69401 115.84 2.26172V0.972656H119.414V2.55469C119.414 5.96615 118.223 8.92188 115.84 11.4219C118.288 11.7995 120.482 12.8477 122.422 14.5664C125 17.0664 126.289 20.0677 126.289 23.5703V29H122.715V24.1367C122.715 19.6185 120.521 16.6172 116.133 15.1328C114.87 14.9375 113.626 14.8398 112.402 14.8398H100.254V29H96.6797V14.8398H90.8203V11.2656H96.6797V0.972656ZM129.883 0.972656H133.457V11.4219H161.777V0.972656H165.352V17.125C165.352 21.6042 163.158 25.1328 158.77 27.7109C157.116 28.5703 155.397 29 153.613 29H129.883V25.4258H153.477C157.148 25.4258 159.818 23.3294 161.484 19.1367C161.68 18.2383 161.777 17.5221 161.777 16.9883V14.9961H129.883V0.972656ZM174.844 0.933594H191.25V4.52734H178.438V11.3047H191.25C197.852 11.3047 202.168 14.3255 204.199 20.3672C204.395 21.526 204.492 22.4375 204.492 23.1016V29H174.844V14.8984H168.945V11.3047H174.844V0.933594ZM178.438 14.8984V25.4062H200.898V23.2383C200.898 19.5794 198.789 16.8971 194.57 15.1914C193.359 14.9961 192.35 14.8984 191.543 14.8984H178.438ZM213.867 0.972656H217.441V11.2656H224.746C228.04 11.2656 230.566 9.5013 232.324 5.97266C232.793 4.93099 233.027 3.69401 233.027 2.26172V0.972656H236.602V2.55469C236.602 5.96615 235.41 8.92188 233.027 11.4219C235.475 11.7995 237.669 12.8477 239.609 14.5664C242.188 17.0664 243.477 20.0677 243.477 23.5703V29H239.902V24.1367C239.902 19.6185 237.708 16.6172 233.32 15.1328C232.057 14.9375 230.814 14.8398 229.59 14.8398H217.441V29H213.867V14.8398H208.008V11.2656H213.867V0.972656ZM258.477 1.03125H282.598V4.60547H258.77C255.345 4.60547 252.728 6.60417 250.918 10.6016C250.918 10.9141 250.872 11.1484 250.781 11.3047H282.324C282.507 11.3307 282.598 11.4284 282.598 11.5977V29H279.043V14.8789H250.645V29H247.07V13.0234C247.07 7.9974 249.688 4.24089 254.922 1.75391C256.367 1.27214 257.552 1.03125 258.477 1.03125ZM313.203 0.972656H337.363V4.25391C337.363 4.44922 337.363 4.54688 337.363 4.54688H313.477C310.43 4.54688 308.001 6.16797 306.191 9.41016C305.618 10.543 305.332 11.8776 305.332 13.4141V16.2656C305.332 20.9531 307.669 23.9609 312.344 25.2891C313.32 25.3802 314.082 25.4258 314.629 25.4258H337.363V29H314.336C308.763 29 304.811 26.2852 302.48 20.8555C301.999 19.4883 301.758 18.1536 301.758 16.8516V13.2773C301.758 7.99089 304.382 4.13021 309.629 1.69531C311.074 1.21354 312.266 0.972656 313.203 0.972656ZM340.82 0.972656H376.289V4.54688H360.41V28.707C360.41 28.9023 360.312 29 360.117 29H356.836V4.54688H340.82V0.972656ZM379.883 0.992188H415.391V4.56641H379.883V0.992188ZM380.176 11.2852H415.371C415.384 11.3112 415.391 11.4089 415.391 11.5781V14.8594H383.457V29H380.176C379.98 29 379.883 28.9023 379.883 28.707V11.5781C379.909 11.3828 380.007 11.2852 380.176 11.2852Z" fill="white"/>
<path d="M0 0.972656V-1.02734H-2.51091L-1.94934 1.41996L0 0.972656ZM5.85938 10.6992L3.904 11.1193L3.92039 11.1956L3.94266 11.2704L5.85938 10.6992ZM9.43359 25.4258L7.48155 25.8611L7.8305 27.4258H9.43359V25.4258ZM15.7227 25.4258V27.4258H17.3601L17.6833 25.8205L15.7227 25.4258ZM21.582 0.972656V-1.02734H20.0126L19.6394 0.497122L21.582 0.972656ZM25.1562 0.972656H27.1562V-1.02734H25.1562V0.972656ZM25.1562 1.10938L27.1201 1.48774L27.1562 1.30028V1.10938H25.1562ZM18.4375 29V31H20.0068L20.3801 29.4757L18.4375 29ZM5.58594 24L7.55168 23.6314L7.53775 23.5571L7.51825 23.4841L5.58594 24ZM0 2.97266H3.4375V-1.02734H0V2.97266ZM3.4375 2.97266C2.82568 2.97266 2.40574 2.69729 2.22454 2.55496C2.03245 2.40407 1.91672 2.25347 1.86812 2.18661C1.81143 2.10863 1.77562 2.0456 1.75897 2.01502C1.74062 1.98136 1.72998 1.95828 1.72674 1.95114C1.72266 1.94214 1.74931 2.00349 1.80703 2.18539C1.91592 2.52861 2.06889 3.08692 2.26824 3.88753C2.66379 5.47612 3.20843 7.88204 3.904 11.1193L7.81475 10.2791C7.11709 7.03202 6.56147 4.57466 6.14973 2.92106C5.94543 2.10058 5.768 1.44307 5.61973 0.975739C5.54886 0.75237 5.46525 0.509766 5.36921 0.29813C5.32624 0.203445 5.24001 0.022315 5.10362 -0.165306C5.03661 -0.257498 4.90361 -0.427099 4.69539 -0.590654C4.49808 -0.745642 4.06316 -1.02734 3.4375 -1.02734V2.97266ZM3.94266 11.2704C4.68795 13.7715 5.86539 18.6145 7.48155 25.8611L11.3856 24.9904C9.77263 17.7579 8.56726 12.7832 7.77609 10.1281L3.94266 11.2704ZM9.43359 27.4258H15.7227V23.4258H9.43359V27.4258ZM17.6833 25.8205C18.0633 23.933 20.0018 15.84 23.5247 1.44819L19.6394 0.497122C16.1311 14.8293 14.1632 23.0383 13.762 25.031L17.6833 25.8205ZM21.582 2.97266H25.1562V-1.02734H21.582V2.97266ZM23.1562 0.972656V1.10938H27.1562V0.972656H23.1562ZM23.1924 0.731012C22.9314 2.08578 20.7118 11.304 16.4949 28.5243L20.3801 29.4757C24.5746 12.347 26.8343 2.97152 27.1201 1.48774L23.1924 0.731012ZM18.4375 27H6.85547V31H18.4375V27ZM6.85547 27C7.48943 27 7.91818 27.2971 8.10235 27.4527C8.29295 27.6138 8.39966 27.7702 8.43809 27.8291C8.51782 27.9514 8.53994 28.0255 8.51698 27.9661C8.48082 27.8726 8.4111 27.6538 8.31056 27.2578C8.11505 26.4878 7.86233 25.2882 7.55168 23.6314L3.62019 24.3686C3.93455 26.0451 4.20592 27.3456 4.43358 28.2422C4.54463 28.6796 4.66127 29.0857 4.78624 29.4089C4.84385 29.5579 4.94023 29.7882 5.08791 30.0146C5.16031 30.1256 5.29942 30.3211 5.52085 30.5082C5.73584 30.6898 6.19384 31 6.85547 31V27ZM7.51825 23.4841C6.09511 18.1538 4.23933 10.505 1.94934 0.525351L-1.94934 1.41996C0.344001 11.4142 2.21218 19.117 3.65362 24.5159L7.51825 23.4841ZM28.3203 0.992188V-1.00781H26.3203V0.992188H28.3203ZM48.1836 0.992188H50.1836V-1.00781H48.1836V0.992188ZM48.1836 4.56641V6.56641H50.1836V4.56641H48.1836ZM40.0391 4.56641V2.56641H38.0391V4.56641H40.0391ZM40.0391 25.4258H38.0391V27.4258H40.0391V25.4258ZM48.1836 25.4258H50.1836V23.4258H48.1836V25.4258ZM48.1836 29V31H50.1836V29H48.1836ZM28.3203 29H26.3203V31H28.3203V29ZM28.3203 25.4258V23.4258H26.3203V25.4258H28.3203ZM36.4648 25.4258V27.4258H38.4648V25.4258H36.4648ZM36.4648 4.56641H38.4648V2.56641H36.4648V4.56641ZM28.3203 2.99219H48.1836V-1.00781H28.3203V2.99219ZM46.1836 0.992188V4.56641H50.1836V0.992188H46.1836ZM48.1836 2.56641H40.0391V6.56641H48.1836V2.56641ZM38.0391 4.56641V25.4258H42.0391V4.56641H38.0391ZM40.0391 27.4258H48.1836V23.4258H40.0391V27.4258ZM46.1836 25.4258V29H50.1836V25.4258H46.1836ZM48.1836 27H28.3203V31H48.1836V27ZM30.3203 29V25.4258H26.3203V29H30.3203ZM28.3203 27.4258H36.4648V23.4258H28.3203V27.4258ZM38.4648 25.4258V4.56641H34.4648V25.4258H38.4648ZM36.4648 2.56641H28.6133V6.56641H36.4648V2.56641ZM28.6133 2.56641C28.8239 2.56641 29.3492 2.62042 29.8078 3.07895C30.2663 3.53748 30.3203 4.06281 30.3203 4.27344H26.3203C26.3203 4.67938 26.4232 5.35119 26.9793 5.90738C27.5355 6.46357 28.2073 6.56641 28.6133 6.56641V2.56641ZM30.3203 4.27344V0.992188H26.3203V4.27344H30.3203ZM51.7578 0.992188V-1.00781H49.7578V0.992188H51.7578ZM71.6211 0.992188H73.6211V-1.00781H71.6211V0.992188ZM71.6211 4.56641V6.56641H73.6211V4.56641H71.6211ZM63.4766 4.56641V2.56641H61.4766V4.56641H63.4766ZM63.4766 25.4258H61.4766V27.4258H63.4766V25.4258ZM71.6211 25.4258H73.6211V23.4258H71.6211V25.4258ZM71.6211 29V31H73.6211V29H71.6211ZM51.7578 29H49.7578V31H51.7578V29ZM51.7578 25.4258V23.4258H49.7578V25.4258H51.7578ZM59.9023 25.4258V27.4258H61.9023V25.4258H59.9023ZM59.9023 4.56641H61.9023V2.56641H59.9023V4.56641ZM51.7578 2.99219H71.6211V-1.00781H51.7578V2.99219ZM69.6211 0.992188V4.56641H73.6211V0.992188H69.6211ZM71.6211 2.56641H63.4766V6.56641H71.6211V2.56641ZM61.4766 4.56641V25.4258H65.4766V4.56641H61.4766ZM63.4766 27.4258H71.6211V23.4258H63.4766V27.4258ZM69.6211 25.4258V29H73.6211V25.4258H69.6211ZM71.6211 27H51.7578V31H71.6211V27ZM53.7578 29V25.4258H49.7578V29H53.7578ZM51.7578 27.4258H59.9023V23.4258H51.7578V27.4258ZM61.9023 25.4258V4.56641H57.9023V25.4258H61.9023ZM59.9023 2.56641H52.0508V6.56641H59.9023V2.56641ZM52.0508 2.56641C52.2614 2.56641 52.7867 2.62042 53.2453 3.07895C53.7038 3.53748 53.7578 4.06281 53.7578 4.27344H49.7578C49.7578 4.67938 49.8607 5.35119 50.4168 5.90738C50.973 6.46357 51.6448 6.56641 52.0508 6.56641V2.56641ZM53.7578 4.27344V0.992188H49.7578V4.27344H53.7578ZM96.6797 0.972656V-1.02734H94.6797V0.972656H96.6797ZM100.254 0.972656H102.254V-1.02734H100.254V0.972656ZM100.254 11.2656H98.2539V13.2656H100.254V11.2656ZM115.137 5.97266L116.927 6.86444L116.944 6.82924L116.961 6.79339L115.137 5.97266ZM115.84 0.972656V-1.02734H113.84V0.972656H115.84ZM119.414 0.972656H121.414V-1.02734H119.414V0.972656ZM115.84 11.4219L114.392 10.042L111.749 12.8146L115.535 13.3985L115.84 11.4219ZM122.422 14.5664L123.814 13.1306L123.782 13.0992L123.748 13.0694L122.422 14.5664ZM126.289 29V31H128.289V29H126.289ZM122.715 29H120.715V31H122.715V29ZM116.133 15.1328L116.774 13.2383L116.61 13.1828L116.438 13.1563L116.133 15.1328ZM100.254 14.8398V12.8398H98.2539V14.8398H100.254ZM100.254 29V31H102.254V29H100.254ZM96.6797 29H94.6797V31H96.6797V29ZM96.6797 14.8398H98.6797V12.8398H96.6797V14.8398ZM90.8203 14.8398H88.8203V16.8398H90.8203V14.8398ZM90.8203 11.2656V9.26562H88.8203V11.2656H90.8203ZM96.6797 11.2656V13.2656H98.6797V11.2656H96.6797ZM96.6797 2.97266H100.254V-1.02734H96.6797V2.97266ZM98.2539 0.972656V11.2656H102.254V0.972656H98.2539ZM100.254 13.2656H107.559V9.26562H100.254V13.2656ZM107.559 13.2656C109.585 13.2656 111.447 12.7153 113.069 11.582C114.672 10.4622 115.94 8.84643 116.927 6.86444L113.347 5.08087C112.576 6.62752 111.701 7.65821 110.779 8.30273C109.875 8.93378 108.826 9.26562 107.559 9.26562V13.2656ZM116.961 6.79339C117.571 5.43695 117.84 3.90733 117.84 2.26172H113.84C113.84 3.48069 113.64 4.42503 113.313 5.15193L116.961 6.79339ZM117.84 2.26172V0.972656H113.84V2.26172H117.84ZM115.84 2.97266H119.414V-1.02734H115.84V2.97266ZM117.414 0.972656V2.55469H121.414V0.972656H117.414ZM117.414 2.55469C117.414 5.44528 116.425 7.90881 114.392 10.042L117.288 12.8018C120.02 9.93494 121.414 6.48701 121.414 2.55469H117.414ZM115.535 13.3985C117.585 13.7148 119.429 14.5868 121.096 16.0634L123.748 13.0694C121.535 11.1085 118.99 9.88418 116.145 9.44525L115.535 13.3985ZM121.03 16.0022C123.23 18.1362 124.289 20.624 124.289 23.5703H128.289C128.289 19.5114 126.77 15.9966 123.814 13.1306L121.03 16.0022ZM124.289 23.5703V29H128.289V23.5703H124.289ZM126.289 27H122.715V31H126.289V27ZM124.715 29V24.1367H120.715V29H124.715ZM124.715 24.1367C124.715 21.5466 124.081 19.2284 122.684 17.3168C121.29 15.4094 119.261 14.0798 116.774 13.2383L115.492 17.0273C117.392 17.6702 118.655 18.5834 119.455 19.6774C120.251 20.7671 120.715 22.2086 120.715 24.1367H124.715ZM116.438 13.1563C115.079 12.946 113.733 12.8398 112.402 12.8398V16.8398C113.52 16.8398 114.661 16.929 115.827 17.1093L116.438 13.1563ZM112.402 12.8398H100.254V16.8398H112.402V12.8398ZM98.2539 14.8398V29H102.254V14.8398H98.2539ZM100.254 27H96.6797V31H100.254V27ZM98.6797 29V14.8398H94.6797V29H98.6797ZM96.6797 12.8398H90.8203V16.8398H96.6797V12.8398ZM92.8203 14.8398V11.2656H88.8203V14.8398H92.8203ZM90.8203 13.2656H96.6797V9.26562H90.8203V13.2656ZM98.6797 11.2656V0.972656H94.6797V11.2656H98.6797ZM129.883 0.972656V-1.02734H127.883V0.972656H129.883ZM133.457 0.972656H135.457V-1.02734H133.457V0.972656ZM133.457 11.4219H131.457V13.4219H133.457V11.4219ZM161.777 11.4219V13.4219H163.777V11.4219H161.777ZM161.777 0.972656V-1.02734H159.777V0.972656H161.777ZM165.352 0.972656H167.352V-1.02734H165.352V0.972656ZM158.77 27.7109L159.692 29.4856L159.738 29.4616L159.783 29.4353L158.77 27.7109ZM129.883 29H127.883V31H129.883V29ZM129.883 25.4258V23.4258H127.883V25.4258H129.883ZM161.484 19.1367L163.343 19.8755L163.404 19.7225L163.439 19.5616L161.484 19.1367ZM161.777 14.9961H163.777V12.9961H161.777V14.9961ZM129.883 14.9961H127.883V16.9961H129.883V14.9961ZM129.883 2.97266H133.457V-1.02734H129.883V2.97266ZM131.457 0.972656V11.4219H135.457V0.972656H131.457ZM133.457 13.4219H161.777V9.42188H133.457V13.4219ZM163.777 11.4219V0.972656H159.777V11.4219H163.777ZM161.777 2.97266H165.352V-1.02734H161.777V2.97266ZM163.352 0.972656V17.125H167.352V0.972656H163.352ZM163.352 17.125C163.352 20.7866 161.633 23.7091 157.756 25.9865L159.783 29.4353C164.682 26.5566 167.352 22.4217 167.352 17.125H163.352ZM157.847 25.9363C156.465 26.6544 155.062 27 153.613 27V31C155.733 31 157.766 30.4862 159.692 29.4856L157.847 25.9363ZM153.613 27H129.883V31H153.613V27ZM131.883 29V25.4258H127.883V29H131.883ZM129.883 27.4258H153.477V23.4258H129.883V27.4258ZM153.477 27.4258C155.721 27.4258 157.751 26.7745 159.468 25.4264C161.157 24.0997 162.421 22.1954 163.343 19.8755L159.626 18.3979C158.881 20.2708 157.977 21.511 156.997 22.2806C156.044 23.0289 154.904 23.4258 153.477 23.4258V27.4258ZM163.439 19.5616C163.646 18.6081 163.777 17.7313 163.777 16.9883H159.777C159.777 17.313 159.713 17.8684 159.53 18.7119L163.439 19.5616ZM163.777 16.9883V14.9961H159.777V16.9883H163.777ZM161.777 12.9961H129.883V16.9961H161.777V12.9961ZM131.883 14.9961V0.972656H127.883V14.9961H131.883ZM174.844 0.933594V-1.06641H172.844V0.933594H174.844ZM191.25 0.933594H193.25V-1.06641H191.25V0.933594ZM191.25 4.52734V6.52734H193.25V4.52734H191.25ZM178.438 4.52734V2.52734H176.438V4.52734H178.438ZM178.438 11.3047H176.438V13.3047H178.438V11.3047ZM204.199 20.3672L206.171 20.0348L206.145 19.8793L206.095 19.7298L204.199 20.3672ZM204.492 29V31H206.492V29H204.492ZM174.844 29H172.844V31H174.844V29ZM174.844 14.8984H176.844V12.8984H174.844V14.8984ZM168.945 14.8984H166.945V16.8984H168.945V14.8984ZM168.945 11.3047V9.30469H166.945V11.3047H168.945ZM174.844 11.3047V13.3047H176.844V11.3047H174.844ZM178.438 14.8984V12.8984H176.438V14.8984H178.438ZM178.438 25.4062H176.438V27.4062H178.438V25.4062ZM200.898 25.4062V27.4062H202.898V25.4062H200.898ZM194.57 15.1914L195.32 13.3372L195.111 13.2528L194.889 13.2169L194.57 15.1914ZM174.844 2.93359H191.25V-1.06641H174.844V2.93359ZM189.25 0.933594V4.52734H193.25V0.933594H189.25ZM191.25 2.52734H178.438V6.52734H191.25V2.52734ZM176.438 4.52734V11.3047H180.438V4.52734H176.438ZM178.438 13.3047H191.25V9.30469H178.438V13.3047ZM191.25 13.3047C194.245 13.3047 196.546 13.9872 198.292 15.2089C200.031 16.4263 201.395 18.3019 202.303 21.0045L206.095 19.7298C204.972 16.3908 203.162 13.7352 200.585 11.9317C198.014 10.1325 194.857 9.30469 191.25 9.30469V13.3047ZM202.227 20.6996C202.416 21.8185 202.492 22.6024 202.492 23.1016H206.492C206.492 22.2726 206.373 21.2336 206.171 20.0348L202.227 20.6996ZM202.492 23.1016V29H206.492V23.1016H202.492ZM204.492 27H174.844V31H204.492V27ZM176.844 29V14.8984H172.844V29H176.844ZM174.844 12.8984H168.945V16.8984H174.844V12.8984ZM170.945 14.8984V11.3047H166.945V14.8984H170.945ZM168.945 13.3047H174.844V9.30469H168.945V13.3047ZM176.844 11.3047V0.933594H172.844V11.3047H176.844ZM176.438 14.8984V25.4062H180.438V14.8984H176.438ZM178.438 27.4062H200.898V23.4062H178.438V27.4062ZM202.898 25.4062V23.2383H198.898V25.4062H202.898ZM202.898 23.2383C202.898 20.9951 202.241 18.966 200.889 17.2461C199.558 15.5543 197.649 14.2787 195.32 13.3372L193.821 17.0456C195.711 17.8098 196.965 18.7283 197.744 19.7187C198.501 20.6811 198.898 21.8226 198.898 23.2383H202.898ZM194.889 13.2169C193.621 13.0124 192.497 12.8984 191.543 12.8984V16.8984C192.204 16.8984 193.098 16.9798 194.252 17.1659L194.889 13.2169ZM191.543 12.8984H178.438V16.8984H191.543V12.8984ZM213.867 0.972656V-1.02734H211.867V0.972656H213.867ZM217.441 0.972656H219.441V-1.02734H217.441V0.972656ZM217.441 11.2656H215.441V13.2656H217.441V11.2656ZM232.324 5.97266L234.114 6.86444L234.132 6.82924L234.148 6.79339L232.324 5.97266ZM233.027 0.972656V-1.02734H231.027V0.972656H233.027ZM236.602 0.972656H238.602V-1.02734H236.602V0.972656ZM233.027 11.4219L231.58 10.042L228.937 12.8146L232.722 13.3985L233.027 11.4219ZM239.609 14.5664L241.002 13.1306L240.969 13.0992L240.936 13.0694L239.609 14.5664ZM243.477 29V31H245.477V29H243.477ZM239.902 29H237.902V31H239.902V29ZM233.32 15.1328L233.961 13.2383L233.797 13.1828L233.626 13.1563L233.32 15.1328ZM217.441 14.8398V12.8398H215.441V14.8398H217.441ZM217.441 29V31H219.441V29H217.441ZM213.867 29H211.867V31H213.867V29ZM213.867 14.8398H215.867V12.8398H213.867V14.8398ZM208.008 14.8398H206.008V16.8398H208.008V14.8398ZM208.008 11.2656V9.26562H206.008V11.2656H208.008ZM213.867 11.2656V13.2656H215.867V11.2656H213.867ZM213.867 2.97266H217.441V-1.02734H213.867V2.97266ZM215.441 0.972656V11.2656H219.441V0.972656H215.441ZM217.441 13.2656H224.746V9.26562H217.441V13.2656ZM224.746 13.2656C226.773 13.2656 228.634 12.7153 230.257 11.582C231.86 10.4622 233.127 8.84643 234.114 6.86444L230.534 5.08087C229.764 6.62752 228.889 7.65821 227.966 8.30273C227.063 8.93378 226.013 9.26562 224.746 9.26562V13.2656ZM234.148 6.79339C234.758 5.43695 235.027 3.90733 235.027 2.26172H231.027C231.027 3.48069 230.827 4.42503 230.5 5.15193L234.148 6.79339ZM235.027 2.26172V0.972656H231.027V2.26172H235.027ZM233.027 2.97266H236.602V-1.02734H233.027V2.97266ZM234.602 0.972656V2.55469H238.602V0.972656H234.602ZM234.602 2.55469C234.602 5.44528 233.613 7.90881 231.58 10.042L234.475 12.8018C237.208 9.93494 238.602 6.48701 238.602 2.55469H234.602ZM232.722 13.3985C234.773 13.7148 236.616 14.5868 238.283 16.0634L240.936 13.0694C238.722 11.1085 236.178 9.88418 233.332 9.44525L232.722 13.3985ZM238.217 16.0022C240.418 18.1362 241.477 20.624 241.477 23.5703H245.477C245.477 19.5114 243.957 15.9966 241.002 13.1306L238.217 16.0022ZM241.477 23.5703V29H245.477V23.5703H241.477ZM243.477 27H239.902V31H243.477V27ZM241.902 29V24.1367H237.902V29H241.902ZM241.902 24.1367C241.902 21.5466 241.269 19.2284 239.871 17.3168C238.477 15.4094 236.449 14.0798 233.961 13.2383L232.679 17.0273C234.58 17.6702 235.843 18.5834 236.642 19.6774C237.439 20.7671 237.902 22.2086 237.902 24.1367H241.902ZM233.626 13.1563C232.266 12.946 230.921 12.8398 229.59 12.8398V16.8398C230.707 16.8398 231.848 16.929 233.015 17.1093L233.626 13.1563ZM229.59 12.8398H217.441V16.8398H229.59V12.8398ZM215.441 14.8398V29H219.441V14.8398H215.441ZM217.441 27H213.867V31H217.441V27ZM215.867 29V14.8398H211.867V29H215.867ZM213.867 12.8398H208.008V16.8398H213.867V12.8398ZM210.008 14.8398V11.2656H206.008V14.8398H210.008ZM208.008 13.2656H213.867V9.26562H208.008V13.2656ZM215.867 11.2656V0.972656H211.867V11.2656H215.867ZM282.598 1.03125H284.598V-0.96875H282.598V1.03125ZM282.598 4.60547V6.60547H284.598V4.60547H282.598ZM250.918 10.6016L249.096 9.77664L248.918 10.1699V10.6016H250.918ZM250.781 11.3047L249.054 10.2969L247.299 13.3047H250.781V11.3047ZM282.324 11.3047L282.607 9.32479L282.466 9.30469H282.324V11.3047ZM282.598 29V31H284.598V29H282.598ZM279.043 29H277.043V31H279.043V29ZM279.043 14.8789H281.043V12.8789H279.043V14.8789ZM250.645 14.8789V12.8789H248.645V14.8789H250.645ZM250.645 29V31H252.645V29H250.645ZM247.07 29H245.07V31H247.07V29ZM254.922 1.75391L254.289 -0.14346L254.174 -0.104897L254.064 -0.0525618L254.922 1.75391ZM258.477 3.03125H282.598V-0.96875H258.477V3.03125ZM280.598 1.03125V4.60547H284.598V1.03125H280.598ZM282.598 2.60547H258.77V6.60547H282.598V2.60547ZM258.77 2.60547C256.637 2.60547 254.696 3.23819 253.024 4.51499C251.38 5.77063 250.094 7.57302 249.096 9.77664L252.74 11.4265C253.552 9.63271 254.479 8.43705 255.452 7.69399C256.397 6.97209 257.477 6.60547 258.77 6.60547V2.60547ZM248.918 10.6016C248.918 10.6665 248.913 10.6702 248.921 10.63C248.928 10.5931 248.956 10.4636 249.054 10.2969L252.509 12.3124C252.865 11.7015 252.918 11.043 252.918 10.6016H248.918ZM250.781 13.3047H282.324V9.30469H250.781V13.3047ZM282.041 13.2846C281.85 13.2573 281.432 13.1535 281.067 12.7621C280.682 12.3491 280.598 11.8788 280.598 11.5977H284.598C284.598 11.1473 284.468 10.5435 283.991 10.0328C283.535 9.54378 282.981 9.37817 282.607 9.32479L282.041 13.2846ZM280.598 11.5977V29H284.598V11.5977H280.598ZM282.598 27H279.043V31H282.598V27ZM281.043 29V14.8789H277.043V29H281.043ZM279.043 12.8789H250.645V16.8789H279.043V12.8789ZM248.645 14.8789V29H252.645V14.8789H248.645ZM250.645 27H247.07V31H250.645V27ZM249.07 29V13.0234H245.07V29H249.07ZM249.07 13.0234C249.07 10.8774 249.622 9.08984 250.674 7.57982C251.738 6.05321 253.395 4.69361 255.78 3.56037L254.064 -0.0525618C251.214 1.30118 248.946 3.06333 247.392 5.29323C245.827 7.53971 245.07 10.1434 245.07 13.0234H249.07ZM255.554 3.65127C256.91 3.19944 257.861 3.03125 258.477 3.03125V-0.96875C257.243 -0.96875 255.825 -0.655167 254.289 -0.14346L255.554 3.65127ZM337.363 0.972656H339.363V-1.02734H337.363V0.972656ZM337.363 4.54688V6.54688H339.363V4.54688H337.363ZM306.191 9.41016L304.445 8.4353L304.425 8.47102L304.407 8.50753L306.191 9.41016ZM312.344 25.2891L311.797 27.2129L311.974 27.2633L312.158 27.2804L312.344 25.2891ZM337.363 25.4258H339.363V23.4258H337.363V25.4258ZM337.363 29V31H339.363V29H337.363ZM302.48 20.8555L300.594 21.5202L300.616 21.5831L300.643 21.6444L302.48 20.8555ZM309.629 1.69531L308.996 -0.202054L308.889 -0.166377L308.787 -0.11889L309.629 1.69531ZM313.203 2.97266H337.363V-1.02734H313.203V2.97266ZM335.363 0.972656V4.25391H339.363V0.972656H335.363ZM335.363 4.25391C335.363 4.25429 335.363 4.25467 335.363 4.25505C335.363 4.25543 335.363 4.25581 335.363 4.25619C335.363 4.25657 335.363 4.25695 335.363 4.25733C335.363 4.25771 335.363 4.25809 335.363 4.25847C335.363 4.25884 335.363 4.25922 335.363 4.2596C335.363 4.25998 335.363 4.26035 335.363 4.26073C335.363 4.26111 335.363 4.26149 335.363 4.26186C335.363 4.26224 335.363 4.26262 335.363 4.26299C335.363 4.26336 335.363 4.26374 335.363 4.26412C335.363 4.26449 335.363 4.26486 335.363 4.26524C335.363 4.26561 335.363 4.26599 335.363 4.26636C335.363 4.26673 335.363 4.26711 335.363 4.26748C335.363 4.26785 335.363 4.26822 335.363 4.26859C335.363 4.26897 335.363 4.26934 335.363 4.26971C335.363 4.27008 335.363 4.27045 335.363 4.27082C335.363 4.27119 335.363 4.27156 335.363 4.27193C335.363 4.2723 335.363 4.27267 335.363 4.27304C335.363 4.27341 335.363 4.27378 335.363 4.27414C335.363 4.27451 335.363 4.27488 335.363 4.27525C335.363 4.27561 335.363 4.27598 335.363 4.27635C335.363 4.27671 335.363 4.27708 335.363 4.27745C335.363 4.27781 335.363 4.27818 335.363 4.27854C335.363 4.27891 335.363 4.27927 335.363 4.27964C335.363 4.28 335.363 4.28036 335.363 4.28073C335.363 4.28109 335.363 4.28146 335.363 4.28182C335.363 4.28218 335.363 4.28254 335.363 4.28291C335.363 4.28327 335.363 4.28363 335.363 4.28399C335.363 4.28435 335.363 4.28471 335.363 4.28507C335.363 4.28543 335.363 4.2858 335.363 4.28615C335.363 4.28651 335.363 4.28687 335.363 4.28723C335.363 4.28759 335.363 4.28795 335.363 4.28831C335.363 4.28867 335.363 4.28902 335.363 4.28938C335.363 4.28974 335.363 4.2901 335.363 4.29045C335.363 4.29081 335.363 4.29117 335.363 4.29152C335.363 4.29188 335.363 4.29224 335.363 4.29259C335.363 4.29295 335.363 4.2933 335.363 4.29366C335.363 4.29401 335.363 4.29436 335.363 4.29472C335.363 4.29507 335.363 4.29543 335.363 4.29578C335.363 4.29613 335.363 4.29649 335.363 4.29684C335.363 4.29719 335.363 4.29754 335.363 4.29789C335.363 4.29825 335.363 4.2986 335.363 4.29895C335.363 4.2993 335.363 4.29965 335.363 4.3C335.363 4.30035 335.363 4.3007 335.363 4.30105C335.363 4.3014 335.363 4.30175 335.363 4.3021C335.363 4.30244 335.363 4.30279 335.363 4.30314C335.363 4.30349 335.363 4.30384 335.363 4.30418C335.363 4.30453 335.363 4.30488 335.363 4.30523C335.363 4.30557 335.363 4.30592 335.363 4.30626C335.363 4.30661 335.363 4.30695 335.363 4.3073C335.363 4.30764 335.363 4.30799 335.363 4.30833C335.363 4.30868 335.363 4.30902 335.363 4.30936C335.363 4.30971 335.363 4.31005 335.363 4.31039C335.363 4.31074 335.363 4.31108 335.363 4.31142C335.363 4.31176 335.363 4.3121 335.363 4.31244C335.363 4.31279 335.363 4.31313 335.363 4.31347C335.363 4.31381 335.363 4.31415 335.363 4.31449C335.363 4.31483 335.363 4.31517 335.363 4.31551C335.363 4.31585 335.363 4.31618 335.363 4.31652C335.363 4.31686 335.363 4.3172 335.363 4.31754C335.363 4.31787 335.363 4.31821 335.363 4.31855C335.363 4.31888 335.363 4.31922 335.363 4.31956C335.363 4.31989 335.363 4.32023 335.363 4.32056C335.363 4.3209 335.363 4.32123 335.363 4.32157C335.363 4.3219 335.363 4.32224 335.363 4.32257C335.363 4.3229 335.363 4.32324 335.363 4.32357C335.363 4.3239 335.363 4.32424 335.363 4.32457C335.363 4.3249 335.363 4.32523 335.363 4.32557C335.363 4.3259 335.363 4.32623 335.363 4.32656C335.363 4.32689 335.363 4.32722 335.363 4.32755C335.363 4.32788 335.363 4.32821 335.363 4.32854C335.363 4.32887 335.363 4.3292 335.363 4.32952C335.363 4.32985 335.363 4.33018 335.363 4.33051C335.363 4.33084 335.363 4.33117 335.363 4.33149C335.363 4.33182 335.363 4.33215 335.363 4.33247C335.363 4.3328 335.363 4.33312 335.363 4.33345C335.363 4.33378 335.363 4.3341 335.363 4.33443C335.363 4.33475 335.363 4.33508 335.363 4.3354C335.363 4.33572 335.363 4.33605 335.363 4.33637C335.363 4.33669 335.363 4.33702 335.363 4.33734C335.363 4.33766 335.363 4.33798 335.363 4.33831C335.363 4.33863 335.363 4.33895 335.363 4.33927C335.363 4.33959 335.363 4.33991 335.363 4.34023C335.363 4.34055 335.363 4.34087 335.363 4.34119C335.363 4.34151 335.363 4.34183 335.363 4.34215C335.363 4.34247 335.363 4.34279 335.363 4.34311C335.363 4.34342 335.363 4.34374 335.363 4.34406C335.363 4.34438 335.363 4.34469 335.363 4.34501C335.363 4.34533 335.363 4.34564 335.363 4.34596C335.363 4.34628 335.363 4.34659 335.363 4.34691C335.363 4.34722 335.363 4.34754 335.363 4.34785C335.363 4.34817 335.363 4.34848 335.363 4.34879C335.363 4.34911 335.363 4.34942 335.363 4.34973C335.363 4.35005 335.363 4.35036 335.363 4.35067C335.363 4.35098 335.363 4.35129 335.363 4.35161C335.363 4.35192 335.363 4.35223 335.363 4.35254C335.363 4.35285 335.363 4.35316 335.363 4.35347C335.363 4.35378 335.363 4.35409 335.363 4.3544C335.363 4.35471 335.363 4.35502 335.363 4.35533C335.363 4.35563 335.363 4.35594 335.363 4.35625C335.363 4.35656 335.363 4.35686 335.363 4.35717C335.363 4.35748 335.363 4.35778 335.363 4.35809C335.363 4.3584 335.363 4.3587 335.363 4.35901C335.363 4.35931 335.363 4.35962 335.363 4.35992C335.363 4.36023 335.363 4.36053 335.363 4.36084C335.363 4.36114 335.363 4.36144 335.363 4.36175C335.363 4.36205 335.363 4.36235 335.363 4.36266C335.363 4.36296 335.363 4.36326 335.363 4.36356C335.363 4.36386 335.363 4.36417 335.363 4.36447C335.363 4.36477 335.363 4.36507 335.363 4.36537C335.363 4.36567 335.363 4.36597 335.363 4.36627C335.363 4.36657 335.363 4.36687 335.363 4.36717C335.363 4.36746 335.363 4.36776 335.363 4.36806C335.363 4.36836 335.363 4.36866 335.363 4.36895C335.363 4.36925 335.363 4.36955 335.363 4.36984C335.363 4.37014 335.363 4.37044 335.363 4.37073C335.363 4.37103 335.363 4.37132 335.363 4.37162C335.363 4.37191 335.363 4.37221 335.363 4.3725C335.363 4.3728 335.363 4.37309 335.363 4.37338C335.363 4.37368 335.363 4.37397 335.363 4.37427C335.363 4.37456 335.363 4.37485 335.363 4.37514C335.363 4.37543 335.363 4.37573 335.363 4.37602C335.363 4.37631 335.363 4.3766 335.363 4.37689C335.363 4.37718 335.363 4.37747 335.363 4.37776C335.363 4.37805 335.363 4.37834 335.363 4.37863C335.363 4.37892 335.363 4.37921 335.363 4.3795C335.363 4.37978 335.363 4.38007 335.363 4.38036C335.363 4.38065 335.363 4.38093 335.363 4.38122C335.363 4.38151 335.363 4.38179 335.363 4.38208C335.363 4.38237 335.363 4.38265 335.363 4.38294C335.363 4.38322 335.363 4.38351 335.363 4.38379C335.363 4.38408 335.363 4.38436 335.363 4.38465C335.363 4.38493 335.363 4.38521 335.363 4.3855C335.363 4.38578 335.363 4.38606 335.363 4.38634C335.363 4.38663 335.363 4.38691 335.363 4.38719C335.363 4.38747 335.363 4.38775 335.363 4.38803C335.363 4.38832 335.363 4.3886 335.363 4.38887C335.363 4.38915 335.363 4.38943 335.363 4.38972C335.363 4.38999 335.363 4.39027 335.363 4.39055C335.363 4.39083 335.363 4.39111 335.363 4.39139C335.363 4.39166 335.363 4.39194 335.363 4.39222C335.363 4.3925 335.363 4.39277 335.363 4.39305C335.363 4.39333 335.363 4.3936 335.363 4.39388C335.363 4.39415 335.363 4.39443 335.363 4.3947C335.363 4.39498 335.363 4.39525 335.363 4.39553C335.363 4.3958 335.363 4.39607 335.363 4.39635C335.363 4.39662 335.363 4.39689 335.363 4.39717C335.363 4.39744 335.363 4.39771 335.363 4.39798C335.363 4.39826 335.363 4.39853 335.363 4.3988C335.363 4.39907 335.363 4.39934 335.363 4.39961C335.363 4.39988 335.363 4.40015 335.363 4.40042C335.363 4.40069 335.363 4.40096 335.363 4.40123C335.363 4.4015 335.363 4.40177 335.363 4.40203C335.363 4.4023 335.363 4.40257 335.363 4.40284C335.363 4.40311 335.363 4.40337 335.363 4.40364C335.363 4.40391 335.363 4.40417 335.363 4.40444C335.363 4.40471 335.363 4.40497 335.363 4.40524C335.363 4.4055 335.363 4.40577 335.363 4.40603C335.363 4.4063 335.363 4.40656 335.363 4.40682C335.363 4.40709 335.363 4.40735 335.363 4.40761C335.363 4.40788 335.363 4.40814 335.363 4.4084C335.363 4.40866 335.363 4.40893 335.363 4.40919C335.363 4.40945 335.363 4.40971 335.363 4.40997C335.363 4.41023 335.363 4.41049 335.363 4.41075C335.363 4.41101 335.363 4.41127 335.363 4.41153C335.363 4.41179 335.363 4.41205 335.363 4.41231C335.363 4.41257 335.363 4.41282 335.363 4.41308C335.363 4.41334 335.363 4.4136 335.363 4.41385C335.363 4.41411 335.363 4.41437 335.363 4.41462C335.363 4.41488 335.363 4.41514 335.363 4.41539C335.363 4.41565 335.363 4.4159 335.363 4.41616C335.363 4.41641 335.363 4.41667 335.363 4.41692C335.363 4.41718 335.363 4.41743 335.363 4.41768C335.363 4.41793 335.363 4.41819 335.363 4.41844C335.363 4.41869 335.363 4.41895 335.363 4.4192C335.363 4.41945 335.363 4.4197 335.363 4.41995C335.363 4.4202 335.363 4.42045 335.363 4.4207C335.363 4.42095 335.363 4.4212 335.363 4.42145C335.363 4.4217 335.363 4.42195 335.363 4.4222C335.363 4.42245 335.363 4.4227 335.363 4.42295C335.363 4.42319 335.363 4.42344 335.363 4.42369C335.363 4.42394 335.363 4.42418 335.363 4.42443C335.363 4.42468 335.363 4.42492 335.363 4.42517C335.363 4.42542 335.363 4.42566 335.363 4.42591C335.363 4.42615 335.363 4.4264 335.363 4.42664C335.363 4.42689 335.363 4.42713 335.363 4.42737C335.363 4.42762 335.363 4.42786 335.363 4.4281C335.363 4.42834 335.363 4.42859 335.363 4.42883C335.363 4.42907 335.363 4.42931 335.363 4.42956C335.363 4.4298 335.363 4.43004 335.363 4.43028C335.363 4.43052 335.363 4.43076 335.363 4.431C335.363 4.43124 335.363 4.43148 335.363 4.43172C335.363 4.43196 335.363 4.4322 335.363 4.43243C335.363 4.43267 335.363 4.43291 335.363 4.43315C335.363 4.43339 335.363 4.43362 335.363 4.43386C335.363 4.4341 335.363 4.43433 335.363 4.43457C335.363 4.43481 335.363 4.43504 335.363 4.43528C335.363 4.43551 335.363 4.43575 335.363 4.43598C335.363 4.43622 335.363 4.43645 335.363 4.43669C335.363 4.43692 335.363 4.43715 335.363 4.43739C335.363 4.43762 335.363 4.43785 335.363 4.43808C335.363 4.43832 335.363 4.43855 335.363 4.43878C335.363 4.43901 335.363 4.43924 335.363 4.43947C335.363 4.4397 335.363 4.43994 335.363 4.44017C335.363 4.4404 335.363 4.44063 335.363 4.44086C335.363 4.44109 335.363 4.44131 335.363 4.44154C335.363 4.44177 335.363 4.442 335.363 4.44223C335.363 4.44246 335.363 4.44268 335.363 4.44291C335.363 4.44314 335.363 4.44337 335.363 4.44359C335.363 4.44382 335.363 4.44404 335.363 4.44427C335.363 4.4445 335.363 4.44472 335.363 4.44495C335.363 4.44517 335.363 4.4454 335.363 4.44562C335.363 4.44584 335.363 4.44607 335.363 4.44629C335.363 4.44652 335.363 4.44674 335.363 4.44696C335.363 4.44718 335.363 4.44741 335.363 4.44763C335.363 4.44785 335.363 4.44807 335.363 4.44829C335.363 4.44851 335.363 4.44874 335.363 4.44896C335.363 4.44918 335.363 4.4494 335.363 4.44962C335.363 4.44984 335.363 4.45006 335.363 4.45028C335.363 4.45049 335.363 4.45071 335.363 4.45093C335.363 4.45115 335.363 4.45137 335.363 4.45159C335.363 4.4518 335.363 4.45202 335.363 4.45224C335.363 4.45245 335.363 4.45267 335.363 4.45289C335.363 4.4531 335.363 4.45332 335.363 4.45353C335.363 4.45375 335.363 4.45396 335.363 4.45418C335.363 4.45439 335.363 4.45461 335.363 4.45482C335.363 4.45503 335.363 4.45525 335.363 4.45546C335.363 4.45567 335.363 4.45589 335.363 4.4561C335.363 4.45631 335.363 4.45652 335.363 4.45674C335.363 4.45695 335.363 4.45716 335.363 4.45737C335.363 4.45758 335.363 4.45779 335.363 4.458C335.363 4.45821 335.363 4.45842 335.363 4.45863C335.363 4.45884 335.363 4.45905 335.363 4.45926C335.363 4.45947 335.363 4.45967 335.363 4.45988C335.363 4.46009 335.363 4.4603 335.363 4.4605C335.363 4.46071 335.363 4.46092 335.363 4.46112C335.363 4.46133 335.363 4.46154 335.363 4.46174C335.363 4.46195 335.363 4.46215 335.363 4.46236C335.363 4.46256 335.363 4.46277 335.363 4.46297C335.363 4.46317 335.363 4.46338 335.363 4.46358C335.363 4.46379 335.363 4.46399 335.363 4.46419C335.363 4.46439 335.363 4.4646 335.363 4.4648C335.363 4.465 335.363 4.4652 335.363 4.4654C335.363 4.4656 335.363 4.46581 335.363 4.46601C335.363 4.46621 335.363 4.46641 335.363 4.46661C335.363 4.4668 335.363 4.467 335.363 4.4672C335.363 4.4674 335.363 4.4676 335.363 4.4678C335.363 4.468 335.363 4.46819 335.363 4.46839C335.363 4.46859 335.363 4.46879 335.363 4.46898C335.363 4.46918 335.363 4.46938 335.363 4.46957C335.363 4.46977 335.363 4.46996 335.363 4.47016C335.363 4.47035 335.363 4.47055 335.363 4.47074C335.363 4.47094 335.363 4.47113 335.363 4.47133C335.363 4.47152 335.363 4.47171 335.363 4.47191C335.363 4.4721 335.363 4.47229 335.363 4.47248C335.363 4.47268 335.363 4.47287 335.363 4.47306C335.363 4.47325 335.363 4.47344 335.363 4.47363C335.363 4.47382 335.363 4.47401 335.363 4.4742C335.363 4.47439 335.363 4.47458 335.363 4.47477C335.363 4.47496 335.363 4.47515 335.363 4.47534C335.363 4.47553 335.363 4.47572 335.363 4.4759C335.363 4.47609 335.363 4.47628 335.363 4.47647C335.363 4.47665 335.363 4.47684 335.363 4.47703C335.363 4.47721 335.363 4.4774 335.363 4.47758C335.363 4.47777 335.363 4.47795 335.363 4.47814C335.363 4.47832 335.363 4.47851 335.363 4.47869C335.363 4.47888 335.363 4.47906 335.363 4.47924C335.363 4.47943 335.363 4.47961 335.363 4.47979C335.363 4.47997 335.363 4.48016 335.363 4.48034C335.363 4.48052 335.363 4.4807 335.363 4.48088C335.363 4.48106 335.363 4.48125 335.363 4.48142C335.363 4.48161 335.363 4.48178 335.363 4.48196C335.363 4.48214 335.363 4.48232 335.363 4.4825C335.363 4.48268 335.363 4.48286 335.363 4.48304C335.363 4.48322 335.363 4.48339 335.363 4.48357C335.363 4.48375 335.363 4.48392 335.363 4.4841C335.363 4.48428 335.363 4.48445 335.363 4.48463C335.363 4.48481 335.363 4.48498 335.363 4.48516C335.363 4.48533 335.363 4.48551 335.363 4.48568C335.363 4.48586 335.363 4.48603 335.363 4.4862C335.363 4.48638 335.363 4.48655 335.363 4.48672C335.363 4.48689 335.363 4.48707 335.363 4.48724C335.363 4.48741 335.363 4.48758 335.363 4.48775C335.363 4.48793 335.363 4.4881 335.363 4.48827C335.363 4.48844 335.363 4.48861 335.363 4.48878C335.363 4.48895 335.363 4.48912 335.363 4.48929C335.363 4.48946 335.363 4.48962 335.363 4.48979C335.363 4.48996 335.363 4.49013 335.363 4.4903C335.363 4.49047 335.363 4.49063 335.363 4.4908C335.363 4.49097 335.363 4.49113 335.363 4.4913C335.363 4.49146 335.363 4.49163 335.363 4.4918C335.363 4.49196 335.363 4.49213 335.363 4.49229C335.363 4.49246 335.363 4.49262 335.363 4.49278C335.363 4.49295 335.363 4.49311 335.363 4.49327C335.363 4.49344 335.363 4.4936 335.363 4.49376C335.363 4.49393 335.363 4.49409 335.363 4.49425C335.363 4.49441 335.363 4.49457 335.363 4.49473C335.363 4.49489 335.363 4.49505 335.363 4.49521C335.363 4.49537 335.363 4.49553 335.363 4.49569C335.363 4.49585 335.363 4.49601 335.363 4.49617C335.363 4.49633 335.363 4.49649 335.363 4.49665C335.363 4.4968 335.363 4.49696 335.363 4.49712C335.363 4.49728 335.363 4.49743 335.363 4.49759C335.363 4.49775 335.363 4.4979 335.363 4.49806C335.363 4.49821 335.363 4.49837 335.363 4.49852C335.363 4.49868 335.363 4.49883 335.363 4.49899C335.363 4.49914 335.363 4.4993 335.363 4.49945C335.363 4.4996 335.363 4.49976 335.363 4.49991C335.363 4.50006 335.363 4.50021 335.363 4.50037C335.363 4.50052 335.363 4.50067 335.363 4.50082C335.363 4.50097 335.363 4.50112 335.363 4.50127C335.363 4.50142 335.363 4.50157 335.363 4.50172C335.363 4.50187 335.363 4.50202 335.363 4.50217C335.363 4.50232 335.363 4.50247 335.363 4.50262C335.363 4.50277 335.363 4.50291 335.363 4.50306C335.363 4.50321 335.363 4.50336 335.363 4.5035C335.363 4.50365 335.363 4.5038 335.363 4.50394C335.363 4.50409 335.363 4.50423 335.363 4.50438C335.363 4.50452 335.363 4.50467 335.363 4.50481C335.363 4.50496 335.363 4.5051 335.363 4.50525C335.363 4.50539 335.363 4.50553 335.363 4.50568C335.363 4.50582 335.363 4.50596 335.363 4.5061C335.363 4.50625 335.363 4.50639 335.363 4.50653C335.363 4.50667 335.363 4.50681 335.363 4.50695C335.363 4.5071 335.363 4.50723 335.363 4.50738C335.363 4.50751 335.363 4.50765 335.363 4.50779C335.363 4.50793 335.363 4.50807 335.363 4.50821C335.363 4.50835 335.363 4.50849 335.363 4.50863C335.363 4.50876 335.363 4.5089 335.363 4.50904C335.363 4.50917 335.363 4.50931 335.363 4.50945C335.363 4.50958 335.363 4.50972 335.363 4.50986C335.363 4.50999 335.363 4.51013 335.363 4.51026C335.363 4.5104 335.363 4.51053 335.363 4.51067C335.363 4.5108 335.363 4.51093 335.363 4.51107C335.363 4.5112 335.363 4.51133 335.363 4.51147C335.363 4.5116 335.363 4.51173 335.363 4.51186C335.363 4.51199 335.363 4.51213 335.363 4.51226C335.363 4.51239 335.363 4.51252 335.363 4.51265C335.363 4.51278 335.363 4.51291 335.363 4.51304C335.363 4.51317 335.363 4.5133 335.363 4.51343C335.363 4.51356 335.363 4.51368 335.363 4.51381C335.363 4.51394 335.363 4.51407 335.363 4.5142C335.363 4.51432 335.363 4.51445 335.363 4.51458C335.363 4.5147 335.363 4.51483 335.363 4.51496C335.363 4.51508 335.363 4.51521 335.363 4.51533C335.363 4.51546 335.363 4.51558 335.363 4.51571C335.363 4.51583 335.363 4.51595 335.363 4.51608C335.363 4.5162 335.363 4.51632 335.363 4.51645C335.363 4.51657 335.363 4.5167 335.363 4.51682C335.363 4.51694 335.363 4.51706 335.363 4.51718C335.363 4.5173 335.363 4.51742 335.363 4.51755C335.363 4.51767 335.363 4.51779 335.363 4.51791C335.363 4.51803 335.363 4.51815 335.363 4.51826C335.363 4.51838 335.363 4.5185 335.363 4.51862C335.363 4.51874 335.363 4.51886 335.363 4.51898C335.363 4.51909 335.363 4.51921 335.363 4.51933C335.363 4.51945 335.363 4.51956 335.363 4.51968C335.363 4.51979 335.363 4.51991 335.363 4.52003C335.363 4.52014 335.363 4.52026 335.363 4.52037C335.363 4.52048 335.363 4.5206 335.363 4.52071C335.363 4.52083 335.363 4.52094 335.363 4.52105C335.363 4.52117 335.363 4.52128 335.363 4.52139C335.363 4.52151 335.363 4.52162 335.363 4.52173C335.363 4.52184 335.363 4.52195 335.363 4.52206C335.363 4.52217 335.363 4.52229 335.363 4.5224C335.363 4.5225 335.363 4.52262 335.363 4.52272C335.363 4.52283 335.363 4.52294 335.363 4.52305C335.363 4.52316 335.363 4.52327 335.363 4.52338C335.363 4.52349 335.363 4.52359 335.363 4.5237C335.363 4.52381 335.363 4.52391 335.363 4.52402C335.363 4.52413 335.363 4.52423 335.363 4.52434C335.363 4.52445 335.363 4.52455 335.363 4.52466C335.363 4.52476 335.363 4.52487 335.363 4.52497C335.363 4.52507 335.363 4.52518 335.363 4.52528C335.363 4.52538 335.363 4.52549 335.363 4.52559C335.363 4.52569 335.363 4.5258 335.363 4.5259C335.363 4.526 335.363 4.5261 335.363 4.5262C335.363 4.52631 335.363 4.52641 335.363 4.52651C335.363 4.52661 335.363 4.52671 335.363 4.52681C335.363 4.52691 335.363 4.52701 335.363 4.52711C335.363 4.5272 335.363 4.5273 335.363 4.5274C335.363 4.5275 335.363 4.5276 335.363 4.5277C335.363 4.52779 335.363 4.52789 335.363 4.52799C335.363 4.52808 335.363 4.52818 335.363 4.52828C335.363 4.52837 335.363 4.52847 335.363 4.52856C335.363 4.52866 335.363 4.52876 335.363 4.52885C335.363 4.52894 335.363 4.52904 335.363 4.52913C335.363 4.52923 335.363 4.52932 335.363 4.52941C335.363 4.52951 335.363 4.5296 335.363 4.52969C335.363 4.52978 335.363 4.52987 335.363 4.52997C335.363 4.53006 335.363 4.53015 335.363 4.53024C335.363 4.53033 335.363 4.53042 335.363 4.53051C335.363 4.5306 335.363 4.53069 335.363 4.53078C335.363 4.53087 335.363 4.53096 335.363 4.53105C335.363 4.53114 335.363 4.53123 335.363 4.53131C335.363 4.5314 335.363 4.53149 335.363 4.53158C335.363 4.53166 335.363 4.53175 335.363 4.53184C335.363 4.53192 335.363 4.53201 335.363 4.53209C335.363 4.53218 335.363 4.53227 335.363 4.53235C335.363 4.53244 335.363 4.53252 335.363 4.5326C335.363 4.53269 335.363 4.53277 335.363 4.53286C335.363 4.53294 335.363 4.53302 335.363 4.53311C335.363 4.53319 335.363 4.53327 335.363 4.53335C335.363 4.53343 335.363 4.53352 335.363 4.5336C335.363 4.53368 335.363 4.53376 335.363 4.53384C335.363 4.53392 335.363 4.534 335.363 4.53408C335.363 4.53416 335.363 4.53424 335.363 4.53432C335.363 4.5344 335.363 4.53448 335.363 4.53455C335.363 4.53463 335.363 4.53471 335.363 4.53479C335.363 4.53486 335.363 4.53494 335.363 4.53502C335.363 4.5351 335.363 4.53517 335.363 4.53525C335.363 4.53532 335.363 4.5354 335.363 4.53547C335.363 4.53555 335.363 4.53563 335.363 4.5357C335.363 4.53577 335.363 4.53585 335.363 4.53592C335.363 4.536 335.363 4.53607 335.363 4.53614C335.363 4.53621 335.363 4.53629 335.363 4.53636C335.363 4.53643 335.363 4.5365 335.363 4.53658C335.363 4.53665 335.363 4.53672 335.363 4.53679C335.363 4.53686 335.363 4.53693 335.363 4.537C335.363 4.53707 335.363 4.53714 335.363 4.53721C335.363 4.53728 335.363 4.53735 335.363 4.53742C335.363 4.53749 335.363 4.53755 335.363 4.53762C335.363 4.53769 335.363 4.53776 335.363 4.53782C335.363 4.53789 335.363 4.53796 335.363 4.53802C335.363 4.53809 335.363 4.53815 335.363 4.53822C335.363 4.53829 335.363 4.53835 335.363 4.53842C335.363 4.53848 335.363 4.53855 335.363 4.53861C335.363 4.53867 335.363 4.53874 335.363 4.5388C335.363 4.53886 335.363 4.53893 335.363 4.53899C335.363 4.53905 335.363 4.53911 335.363 4.53918C335.363 4.53924 335.363 4.5393 335.363 4.53936C335.363 4.53942 335.363 4.53948 335.363 4.53954C335.363 4.5396 335.363 4.53966 335.363 4.53972C335.363 4.53978 335.363 4.53984 335.363 4.5399C335.363 4.53996 335.363 4.54002 335.363 4.54008C335.363 4.54013 335.363 4.54019 335.363 4.54025C335.363 4.54031 335.363 4.54036 335.363 4.54042C335.363 4.54048 335.363 4.54053 335.363 4.54059C335.363 4.54064 335.363 4.5407 335.363 4.54075C335.363 4.54081 335.363 4.54086 335.363 4.54092C335.363 4.54097 335.363 4.54103 335.363 4.54108C335.363 4.54114 335.363 4.54119 335.363 4.54124C335.363 4.54129 335.363 4.54135 335.363 4.5414C335.363 4.54145 335.363 4.5415 335.363 4.54155C335.363 4.5416 335.363 4.54166 335.363 4.54171C335.363 4.54176 335.363 4.54181 335.363 4.54186C335.363 4.54191 335.363 4.54196 335.363 4.54201C335.363 4.54206 335.363 4.5421 335.363 4.54215C335.363 4.5422 335.363 4.54225 335.363 4.5423C335.363 4.54235 335.363 4.54239 335.363 4.54244C335.363 4.54249 335.363 4.54253 335.363 4.54258C335.363 4.54263 335.363 4.54267 335.363 4.54272C335.363 4.54276 335.363 4.54281 335.363 4.54285C335.363 4.5429 335.363 4.54294 335.363 4.54298C335.363 4.54303 335.363 4.54307 335.363 4.54312C335.363 4.54316 335.363 4.5432 335.363 4.54324C335.363 4.54329 335.363 4.54333 335.363 4.54337C335.363 4.54341 335.363 4.54345 335.363 4.5435C335.363 4.54354 335.363 4.54358 335.363 4.54362C335.363 4.54366 335.363 4.5437 335.363 4.54374C335.363 4.54378 335.363 4.54381 335.363 4.54385C335.363 4.54389 335.363 4.54393 335.363 4.54397C335.363 4.54401 335.363 4.54404 335.363 4.54408C335.363 4.54412 335.363 4.54416 335.363 4.54419C335.363 4.54423 335.363 4.54426 335.363 4.5443C335.363 4.54434 335.363 4.54437 335.363 4.54441C335.363 4.54444 335.363 4.54448 335.363 4.54451C335.363 4.54454 335.363 4.54458 335.363 4.54461C335.363 4.54465 335.363 4.54468 335.363 4.54471C335.363 4.54474 335.363 4.54478 335.363 4.54481C335.363 4.54484 335.363 4.54487 335.363 4.5449C335.363 4.54494 335.363 4.54497 335.363 4.545C335.363 4.54503 335.363 4.54506 335.363 4.54509C335.363 4.54512 335.363 4.54515 335.363 4.54518C335.363 4.5452 335.363 4.54523 335.363 4.54526C335.363 4.54529 335.363 4.54532 335.363 4.54535C335.363 4.54537 335.363 4.5454 335.363 4.54543C335.363 4.54545 335.363 4.54548 335.363 4.54551C335.363 4.54553 335.363 4.54556 335.363 4.54558C335.363 4.54561 335.363 4.54563 335.363 4.54566C335.363 4.54568 335.363 4.54571 335.363 4.54573C335.363 4.54575 335.363 4.54578 335.363 4.5458C335.363 4.54582 335.363 4.54585 335.363 4.54587C335.363 4.54589 335.363 4.54591 335.363 4.54593C335.363 4.54596 335.363 4.54598 335.363 4.546C335.363 4.54602 335.363 4.54604 335.363 4.54606C335.363 4.54608 335.363 4.5461 335.363 4.54612C335.363 4.54614 335.363 4.54616 335.363 4.54618C335.363 4.5462 335.363 4.54621 335.363 4.54623C335.363 4.54625 335.363 4.54627 335.363 4.54628C335.363 4.5463 335.363 4.54632 335.363 4.54633C335.363 4.54635 335.363 4.54637 335.363 4.54638C335.363 4.5464 335.363 4.54641 335.363 4.54643C335.363 4.54644 335.363 4.54646 335.363 4.54647C335.363 4.54649 335.363 4.5465 335.363 4.54651C335.363 4.54653 335.363 4.54654 335.363 4.54655C335.363 4.54656 335.363 4.54658 335.363 4.54659C335.363 4.5466 335.363 4.54661 335.363 4.54662C335.363 4.54663 335.363 4.54665 335.363 4.54666C335.363 4.54667 335.363 4.54668 335.363 4.54669C335.363 4.5467 335.363 4.54671 335.363 4.54671C335.363 4.54672 335.363 4.54673 335.363 4.54674C335.363 4.54675 335.363 4.54676 335.363 4.54676C335.363 4.54677 335.363 4.54678 335.363 4.54679C335.363 4.54679 335.363 4.5468 335.363 4.5468C335.363 4.54681 335.363 4.54682 335.363 4.54682C335.363 4.54683 335.363 4.54683 335.363 4.54683C335.363 4.54684 335.363 4.54684 335.363 4.54685C335.363 4.54685 335.363 4.54685 335.363 4.54686C335.363 4.54686 335.363 4.54686 335.363 4.54687C335.363 4.54687 335.363 4.54687 335.363 4.54687V4.54687C335.363 4.54688 335.363 4.54688 337.363 4.54688C339.363 4.54688 339.363 4.54688 339.363 4.54687V4.54687C339.363 4.54687 339.363 4.54687 339.363 4.54687C339.363 4.54686 339.363 4.54686 339.363 4.54686C339.363 4.54685 339.363 4.54685 339.363 4.54685C339.363 4.54684 339.363 4.54684 339.363 4.54683C339.363 4.54683 339.363 4.54683 339.363 4.54682C339.363 4.54682 339.363 4.54681 339.363 4.5468C339.363 4.5468 339.363 4.54679 339.363 4.54679C339.363 4.54678 339.363 4.54677 339.363 4.54676C339.363 4.54676 339.363 4.54675 339.363 4.54674C339.363 4.54673 339.363 4.54672 339.363 4.54671C339.363 4.54671 339.363 4.5467 339.363 4.54669C339.363 4.54668 339.363 4.54667 339.363 4.54666C339.363 4.54665 339.363 4.54663 339.363 4.54662C339.363 4.54661 339.363 4.5466 339.363 4.54659C339.363 4.54658 339.363 4.54656 339.363 4.54655C339.363 4.54654 339.363 4.54653 339.363 4.54651C339.363 4.5465 339.363 4.54649 339.363 4.54647C339.363 4.54646 339.363 4.54644 339.363 4.54643C339.363 4.54641 339.363 4.5464 339.363 4.54638C339.363 4.54637 339.363 4.54635 339.363 4.54633C339.363 4.54632 339.363 4.5463 339.363 4.54628C339.363 4.54627 339.363 4.54625 339.363 4.54623C339.363 4.54621 339.363 4.5462 339.363 4.54618C339.363 4.54616 339.363 4.54614 339.363 4.54612C339.363 4.5461 339.363 4.54608 339.363 4.54606C339.363 4.54604 339.363 4.54602 339.363 4.546C339.363 4.54598 339.363 4.54596 339.363 4.54593C339.363 4.54591 339.363 4.54589 339.363 4.54587C339.363 4.54585 339.363 4.54582 339.363 4.5458C339.363 4.54578 339.363 4.54575 339.363 4.54573C339.363 4.54571 339.363 4.54568 339.363 4.54566C339.363 4.54563 339.363 4.54561 339.363 4.54558C339.363 4.54556 339.363 4.54553 339.363 4.54551C339.363 4.54548 339.363 4.54545 339.363 4.54543C339.363 4.5454 339.363 4.54537 339.363 4.54535C339.363 4.54532 339.363 4.54529 339.363 4.54526C339.363 4.54523 339.363 4.5452 339.363 4.54518C339.363 4.54515 339.363 4.54512 339.363 4.54509C339.363 4.54506 339.363 4.54503 339.363 4.545C339.363 4.54497 339.363 4.54494 339.363 4.5449C339.363 4.54487 339.363 4.54484 339.363 4.54481C339.363 4.54478 339.363 4.54474 339.363 4.54471C339.363 4.54468 339.363 4.54465 339.363 4.54461C339.363 4.54458 339.363 4.54454 339.363 4.54451C339.363 4.54448 339.363 4.54444 339.363 4.54441C339.363 4.54437 339.363 4.54434 339.363 4.5443C339.363 4.54426 339.363 4.54423 339.363 4.54419C339.363 4.54416 339.363 4.54412 339.363 4.54408C339.363 4.54404 339.363 4.54401 339.363 4.54397C339.363 4.54393 339.363 4.54389 339.363 4.54385C339.363 4.54381 339.363 4.54378 339.363 4.54374C339.363 4.5437 339.363 4.54366 339.363 4.54362C339.363 4.54358 339.363 4.54354 339.363 4.5435C339.363 4.54345 339.363 4.54341 339.363 4.54337C339.363 4.54333 339.363 4.54329 339.363 4.54324C339.363 4.5432 339.363 4.54316 339.363 4.54312C339.363 4.54307 339.363 4.54303 339.363 4.54298C339.363 4.54294 339.363 4.5429 339.363 4.54285C339.363 4.54281 339.363 4.54276 339.363 4.54272C339.363 4.54267 339.363 4.54263 339.363 4.54258C339.363 4.54253 339.363 4.54249 339.363 4.54244C339.363 4.54239 339.363 4.54235 339.363 4.5423C339.363 4.54225 339.363 4.5422 339.363 4.54215C339.363 4.5421 339.363 4.54206 339.363 4.54201C339.363 4.54196 339.363 4.54191 339.363 4.54186C339.363 4.54181 339.363 4.54176 339.363 4.54171C339.363 4.54166 339.363 4.5416 339.363 4.54155C339.363 4.5415 339.363 4.54145 339.363 4.5414C339.363 4.54135 339.363 4.54129 339.363 4.54124C339.363 4.54119 339.363 4.54114 339.363 4.54108C339.363 4.54103 339.363 4.54097 339.363 4.54092C339.363 4.54086 339.363 4.54081 339.363 4.54075C339.363 4.5407 339.363 4.54064 339.363 4.54059C339.363 4.54053 339.363 4.54048 339.363 4.54042C339.363 4.54036 339.363 4.54031 339.363 4.54025C339.363 4.54019 339.363 4.54013 339.363 4.54008C339.363 4.54002 339.363 4.53996 339.363 4.5399C339.363 4.53984 339.363 4.53978 339.363 4.53972C339.363 4.53966 339.363 4.5396 339.363 4.53954C339.363 4.53948 339.363 4.53942 339.363 4.53936C339.363 4.5393 339.363 4.53924 339.363 4.53918C339.363 4.53911 339.363 4.53905 339.363 4.53899C339.363 4.53893 339.363 4.53886 339.363 4.5388C339.363 4.53874 339.363 4.53867 339.363 4.53861C339.363 4.53855 339.363 4.53848 339.363 4.53842C339.363 4.53835 339.363 4.53829 339.363 4.53822C339.363 4.53815 339.363 4.53809 339.363 4.53802C339.363 4.53796 339.363 4.53789 339.363 4.53782C339.363 4.53776 339.363 4.53769 339.363 4.53762C339.363 4.53755 339.363 4.53749 339.363 4.53742C339.363 4.53735 339.363 4.53728 339.363 4.53721C339.363 4.53714 339.363 4.53707 339.363 4.537C339.363 4.53693 339.363 4.53686 339.363 4.53679C339.363 4.53672 339.363 4.53665 339.363 4.53658C339.363 4.5365 339.363 4.53643 339.363 4.53636C339.363 4.53629 339.363 4.53621 339.363 4.53614C339.363 4.53607 339.363 4.536 339.363 4.53592C339.363 4.53585 339.363 4.53577 339.363 4.5357C339.363 4.53563 339.363 4.53555 339.363 4.53547C339.363 4.5354 339.363 4.53532 339.363 4.53525C339.363 4.53517 339.363 4.5351 339.363 4.53502C339.363 4.53494 339.363 4.53486 339.363 4.53479C339.363 4.53471 339.363 4.53463 339.363 4.53455C339.363 4.53448 339.363 4.5344 339.363 4.53432C339.363 4.53424 339.363 4.53416 339.363 4.53408C339.363 4.534 339.363 4.53392 339.363 4.53384C339.363 4.53376 339.363 4.53368 339.363 4.5336C339.363 4.53352 339.363 4.53343 339.363 4.53335C339.363 4.53327 339.363 4.53319 339.363 4.53311C339.363 4.53302 339.363 4.53294 339.363 4.53286C339.363 4.53277 339.363 4.53269 339.363 4.5326C339.363 4.53252 339.363 4.53244 339.363 4.53235C339.363 4.53227 339.363 4.53218 339.363 4.53209C339.363 4.53201 339.363 4.53192 339.363 4.53184C339.363 4.53175 339.363 4.53166 339.363 4.53158C339.363 4.53149 339.363 4.5314 339.363 4.53131C339.363 4.53123 339.363 4.53114 339.363 4.53105C339.363 4.53096 339.363 4.53087 339.363 4.53078C339.363 4.53069 339.363 4.5306 339.363 4.53051C339.363 4.53042 339.363 4.53033 339.363 4.53024C339.363 4.53015 339.363 4.53006 339.363 4.52997C339.363 4.52987 339.363 4.52978 339.363 4.52969C339.363 4.5296 339.363 4.52951 339.363 4.52941C339.363 4.52932 339.363 4.52923 339.363 4.52913C339.363 4.52904 339.363 4.52894 339.363 4.52885C339.363 4.52876 339.363 4.52866 339.363 4.52856C339.363 4.52847 339.363 4.52837 339.363 4.52828C339.363 4.52818 339.363 4.52808 339.363 4.52799C339.363 4.52789 339.363 4.52779 339.363 4.5277C339.363 4.5276 339.363 4.5275 339.363 4.5274C339.363 4.5273 339.363 4.5272 339.363 4.52711C339.363 4.52701 339.363 4.52691 339.363 4.52681C339.363 4.52671 339.363 4.52661 339.363 4.52651C339.363 4.52641 339.363 4.52631 339.363 4.5262C339.363 4.5261 339.363 4.526 339.363 4.5259C339.363 4.5258 339.363 4.52569 339.363 4.52559C339.363 4.52549 339.363 4.52538 339.363 4.52528C339.363 4.52518 339.363 4.52507 339.363 4.52497C339.363 4.52487 339.363 4.52476 339.363 4.52466C339.363 4.52455 339.363 4.52445 339.363 4.52434C339.363 4.52423 339.363 4.52413 339.363 4.52402C339.363 4.52391 339.363 4.52381 339.363 4.5237C339.363 4.52359 339.363 4.52349 339.363 4.52338C339.363 4.52327 339.363 4.52316 339.363 4.52305C339.363 4.52294 339.363 4.52283 339.363 4.52272C339.363 4.52262 339.363 4.5225 339.363 4.5224C339.363 4.52229 339.363 4.52217 339.363 4.52206C339.363 4.52195 339.363 4.52184 339.363 4.52173C339.363 4.52162 339.363 4.52151 339.363 4.52139C339.363 4.52128 339.363 4.52117 339.363 4.52105C339.363 4.52094 339.363 4.52083 339.363 4.52071C339.363 4.5206 339.363 4.52048 339.363 4.52037C339.363 4.52026 339.363 4.52014 339.363 4.52003C339.363 4.51991 339.363 4.51979 339.363 4.51968C339.363 4.51956 339.363 4.51945 339.363 4.51933C339.363 4.51921 339.363 4.51909 339.363 4.51898C339.363 4.51886 339.363 4.51874 339.363 4.51862C339.363 4.5185 339.363 4.51838 339.363 4.51826C339.363 4.51815 339.363 4.51803 339.363 4.51791C339.363 4.51779 339.363 4.51767 339.363 4.51755C339.363 4.51742 339.363 4.5173 339.363 4.51718C339.363 4.51706 339.363 4.51694 339.363 4.51682C339.363 4.5167 339.363 4.51657 339.363 4.51645C339.363 4.51632 339.363 4.5162 339.363 4.51608C339.363 4.51595 339.363 4.51583 339.363 4.51571C339.363 4.51558 339.363 4.51546 339.363 4.51533C339.363 4.51521 339.363 4.51508 339.363 4.51496C339.363 4.51483 339.363 4.5147 339.363 4.51458C339.363 4.51445 339.363 4.51432 339.363 4.5142C339.363 4.51407 339.363 4.51394 339.363 4.51381C339.363 4.51368 339.363 4.51356 339.363 4.51343C339.363 4.5133 339.363 4.51317 339.363 4.51304C339.363 4.51291 339.363 4.51278 339.363 4.51265C339.363 4.51252 339.363 4.51239 339.363 4.51226C339.363 4.51213 339.363 4.51199 339.363 4.51186C339.363 4.51173 339.363 4.5116 339.363 4.51147C339.363 4.51133 339.363 4.5112 339.363 4.51107C339.363 4.51093 339.363 4.5108 339.363 4.51067C339.363 4.51053 339.363 4.5104 339.363 4.51026C339.363 4.51013 339.363 4.50999 339.363 4.50986C339.363 4.50972 339.363 4.50958 339.363 4.50945C339.363 4.50931 339.363 4.50917 339.363 4.50904C339.363 4.5089 339.363 4.50876 339.363 4.50863C339.363 4.50849 339.363 4.50835 339.363 4.50821C339.363 4.50807 339.363 4.50793 339.363 4.50779C339.363 4.50765 339.363 4.50751 339.363 4.50738C339.363 4.50723 339.363 4.5071 339.363 4.50695C339.363 4.50681 339.363 4.50667 339.363 4.50653C339.363 4.50639 339.363 4.50625 339.363 4.5061C339.363 4.50596 339.363 4.50582 339.363 4.50568C339.363 4.50553 339.363 4.50539 339.363 4.50525C339.363 4.5051 339.363 4.50496 339.363 4.50481C339.363 4.50467 339.363 4.50452 339.363 4.50438C339.363 4.50423 339.363 4.50409 339.363 4.50394C339.363 4.5038 339.363 4.50365 339.363 4.5035C339.363 4.50336 339.363 4.50321 339.363 4.50306C339.363 4.50291 339.363 4.50277 339.363 4.50262C339.363 4.50247 339.363 4.50232 339.363 4.50217C339.363 4.50202 339.363 4.50187 339.363 4.50172C339.363 4.50157 339.363 4.50142 339.363 4.50127C339.363 4.50112 339.363 4.50097 339.363 4.50082C339.363 4.50067 339.363 4.50052 339.363 4.50037C339.363 4.50021 339.363 4.50006 339.363 4.49991C339.363 4.49976 339.363 4.4996 339.363 4.49945C339.363 4.4993 339.363 4.49914 339.363 4.49899C339.363 4.49883 339.363 4.49868 339.363 4.49852C339.363 4.49837 339.363 4.49821 339.363 4.49806C339.363 4.4979 339.363 4.49775 339.363 4.49759C339.363 4.49743 339.363 4.49728 339.363 4.49712C339.363 4.49696 339.363 4.4968 339.363 4.49665C339.363 4.49649 339.363 4.49633 339.363 4.49617C339.363 4.49601 339.363 4.49585 339.363 4.49569C339.363 4.49553 339.363 4.49537 339.363 4.49521C339.363 4.49505 339.363 4.49489 339.363 4.49473C339.363 4.49457 339.363 4.49441 339.363 4.49425C339.363 4.49409 339.363 4.49393 339.363 4.49376C339.363 4.4936 339.363 4.49344 339.363 4.49327C339.363 4.49311 339.363 4.49295 339.363 4.49278C339.363 4.49262 339.363 4.49246 339.363 4.49229C339.363 4.49213 339.363 4.49196 339.363 4.4918C339.363 4.49163 339.363 4.49146 339.363 4.4913C339.363 4.49113 339.363 4.49097 339.363 4.4908C339.363 4.49063 339.363 4.49047 339.363 4.4903C339.363 4.49013 339.363 4.48996 339.363 4.48979C339.363 4.48962 339.363 4.48946 339.363 4.48929C339.363 4.48912 339.363 4.48895 339.363 4.48878C339.363 4.48861 339.363 4.48844 339.363 4.48827C339.363 4.4881 339.363 4.48793 339.363 4.48775C339.363 4.48758 339.363 4.48741 339.363 4.48724C339.363 4.48707 339.363 4.48689 339.363 4.48672C339.363 4.48655 339.363 4.48638 339.363 4.4862C339.363 4.48603 339.363 4.48586 339.363 4.48568C339.363 4.48551 339.363 4.48533 339.363 4.48516C339.363 4.48498 339.363 4.48481 339.363 4.48463C339.363 4.48445 339.363 4.48428 339.363 4.4841C339.363 4.48392 339.363 4.48375 339.363 4.48357C339.363 4.48339 339.363 4.48322 339.363 4.48304C339.363 4.48286 339.363 4.48268 339.363 4.4825C339.363 4.48232 339.363 4.48214 339.363 4.48196C339.363 4.48178 339.363 4.48161 339.363 4.48142C339.363 4.48125 339.363 4.48106 339.363 4.48088C339.363 4.4807 339.363 4.48052 339.363 4.48034C339.363 4.48016 339.363 4.47997 339.363 4.47979C339.363 4.47961 339.363 4.47943 339.363 4.47924C339.363 4.47906 339.363 4.47888 339.363 4.47869C339.363 4.47851 339.363 4.47832 339.363 4.47814C339.363 4.47795 339.363 4.47777 339.363 4.47758C339.363 4.4774 339.363 4.47721 339.363 4.47703C339.363 4.47684 339.363 4.47665 339.363 4.47647C339.363 4.47628 339.363 4.47609 339.363 4.4759C339.363 4.47572 339.363 4.47553 339.363 4.47534C339.363 4.47515 339.363 4.47496 339.363 4.47477C339.363 4.47458 339.363 4.47439 339.363 4.4742C339.363 4.47401 339.363 4.47382 339.363 4.47363C339.363 4.47344 339.363 4.47325 339.363 4.47306C339.363 4.47287 339.363 4.47268 339.363 4.47248C339.363 4.47229 339.363 4.4721 339.363 4.47191C339.363 4.47171 339.363 4.47152 339.363 4.47133C339.363 4.47113 339.363 4.47094 339.363 4.47074C339.363 4.47055 339.363 4.47035 339.363 4.47016C339.363 4.46996 339.363 4.46977 339.363 4.46957C339.363 4.46938 339.363 4.46918 339.363 4.46898C339.363 4.46879 339.363 4.46859 339.363 4.46839C339.363 4.46819 339.363 4.468 339.363 4.4678C339.363 4.4676 339.363 4.4674 339.363 4.4672C339.363 4.467 339.363 4.4668 339.363 4.46661C339.363 4.46641 339.363 4.46621 339.363 4.46601C339.363 4.46581 339.363 4.4656 339.363 4.4654C339.363 4.4652 339.363 4.465 339.363 4.4648C339.363 4.4646 339.363 4.46439 339.363 4.46419C339.363 4.46399 339.363 4.46379 339.363 4.46358C339.363 4.46338 339.363 4.46317 339.363 4.46297C339.363 4.46277 339.363 4.46256 339.363 4.46236C339.363 4.46215 339.363 4.46195 339.363 4.46174C339.363 4.46154 339.363 4.46133 339.363 4.46112C339.363 4.46092 339.363 4.46071 339.363 4.4605C339.363 4.4603 339.363 4.46009 339.363 4.45988C339.363 4.45967 339.363 4.45947 339.363 4.45926C339.363 4.45905 339.363 4.45884 339.363 4.45863C339.363 4.45842 339.363 4.45821 339.363 4.458C339.363 4.45779 339.363 4.45758 339.363 4.45737C339.363 4.45716 339.363 4.45695 339.363 4.45674C339.363 4.45652 339.363 4.45631 339.363 4.4561C339.363 4.45589 339.363 4.45567 339.363 4.45546C339.363 4.45525 339.363 4.45503 339.363 4.45482C339.363 4.45461 339.363 4.45439 339.363 4.45418C339.363 4.45396 339.363 4.45375 339.363 4.45353C339.363 4.45332 339.363 4.4531 339.363 4.45289C339.363 4.45267 339.363 4.45245 339.363 4.45224C339.363 4.45202 339.363 4.4518 339.363 4.45159C339.363 4.45137 339.363 4.45115 339.363 4.45093C339.363 4.45071 339.363 4.45049 339.363 4.45028C339.363 4.45006 339.363 4.44984 339.363 4.44962C339.363 4.4494 339.363 4.44918 339.363 4.44896C339.363 4.44874 339.363 4.44851 339.363 4.44829C339.363 4.44807 339.363 4.44785 339.363 4.44763C339.363 4.44741 339.363 4.44718 339.363 4.44696C339.363 4.44674 339.363 4.44652 339.363 4.44629C339.363 4.44607 339.363 4.44584 339.363 4.44562C339.363 4.4454 339.363 4.44517 339.363 4.44495C339.363 4.44472 339.363 4.4445 339.363 4.44427C339.363 4.44404 339.363 4.44382 339.363 4.44359C339.363 4.44337 339.363 4.44314 339.363 4.44291C339.363 4.44268 339.363 4.44246 339.363 4.44223C339.363 4.442 339.363 4.44177 339.363 4.44154C339.363 4.44131 339.363 4.44109 339.363 4.44086C339.363 4.44063 339.363 4.4404 339.363 4.44017C339.363 4.43994 339.363 4.4397 339.363 4.43947C339.363 4.43924 339.363 4.43901 339.363 4.43878C339.363 4.43855 339.363 4.43832 339.363 4.43808C339.363 4.43785 339.363 4.43762 339.363 4.43739C339.363 4.43715 339.363 4.43692 339.363 4.43669C339.363 4.43645 339.363 4.43622 339.363 4.43598C339.363 4.43575 339.363 4.43551 339.363 4.43528C339.363 4.43504 339.363 4.43481 339.363 4.43457C339.363 4.43433 339.363 4.4341 339.363 4.43386C339.363 4.43362 339.363 4.43339 339.363 4.43315C339.363 4.43291 339.363 4.43267 339.363 4.43243C339.363 4.4322 339.363 4.43196 339.363 4.43172C339.363 4.43148 339.363 4.43124 339.363 4.431C339.363 4.43076 339.363 4.43052 339.363 4.43028C339.363 4.43004 339.363 4.4298 339.363 4.42956C339.363 4.42931 339.363 4.42907 339.363 4.42883C339.363 4.42859 339.363 4.42834 339.363 4.4281C339.363 4.42786 339.363 4.42762 339.363 4.42737C339.363 4.42713 339.363 4.42689 339.363 4.42664C339.363 4.4264 339.363 4.42615 339.363 4.42591C339.363 4.42566 339.363 4.42542 339.363 4.42517C339.363 4.42492 339.363 4.42468 339.363 4.42443C339.363 4.42418 339.363 4.42394 339.363 4.42369C339.363 4.42344 339.363 4.42319 339.363 4.42295C339.363 4.4227 339.363 4.42245 339.363 4.4222C339.363 4.42195 339.363 4.4217 339.363 4.42145C339.363 4.4212 339.363 4.42095 339.363 4.4207C339.363 4.42045 339.363 4.4202 339.363 4.41995C339.363 4.4197 339.363 4.41945 339.363 4.4192C339.363 4.41895 339.363 4.41869 339.363 4.41844C339.363 4.41819 339.363 4.41793 339.363 4.41768C339.363 4.41743 339.363 4.41718 339.363 4.41692C339.363 4.41667 339.363 4.41641 339.363 4.41616C339.363 4.4159 339.363 4.41565 339.363 4.41539C339.363 4.41514 339.363 4.41488 339.363 4.41462C339.363 4.41437 339.363 4.41411 339.363 4.41385C339.363 4.4136 339.363 4.41334 339.363 4.41308C339.363 4.41282 339.363 4.41257 339.363 4.41231C339.363 4.41205 339.363 4.41179 339.363 4.41153C339.363 4.41127 339.363 4.41101 339.363 4.41075C339.363 4.41049 339.363 4.41023 339.363 4.40997C339.363 4.40971 339.363 4.40945 339.363 4.40919C339.363 4.40893 339.363 4.40866 339.363 4.4084C339.363 4.40814 339.363 4.40788 339.363 4.40761C339.363 4.40735 339.363 4.40709 339.363 4.40682C339.363 4.40656 339.363 4.4063 339.363 4.40603C339.363 4.40577 339.363 4.4055 339.363 4.40524C339.363 4.40497 339.363 4.40471 339.363 4.40444C339.363 4.40417 339.363 4.40391 339.363 4.40364C339.363 4.40337 339.363 4.40311 339.363 4.40284C339.363 4.40257 339.363 4.4023 339.363 4.40203C339.363 4.40177 339.363 4.4015 339.363 4.40123C339.363 4.40096 339.363 4.40069 339.363 4.40042C339.363 4.40015 339.363 4.39988 339.363 4.39961C339.363 4.39934 339.363 4.39907 339.363 4.3988C339.363 4.39853 339.363 4.39826 339.363 4.39798C339.363 4.39771 339.363 4.39744 339.363 4.39717C339.363 4.39689 339.363 4.39662 339.363 4.39635C339.363 4.39607 339.363 4.3958 339.363 4.39553C339.363 4.39525 339.363 4.39498 339.363 4.3947C339.363 4.39443 339.363 4.39415 339.363 4.39388C339.363 4.3936 339.363 4.39333 339.363 4.39305C339.363 4.39277 339.363 4.3925 339.363 4.39222C339.363 4.39194 339.363 4.39166 339.363 4.39139C339.363 4.39111 339.363 4.39083 339.363 4.39055C339.363 4.39027 339.363 4.38999 339.363 4.38972C339.363 4.38943 339.363 4.38915 339.363 4.38887C339.363 4.3886 339.363 4.38832 339.363 4.38803C339.363 4.38775 339.363 4.38747 339.363 4.38719C339.363 4.38691 339.363 4.38663 339.363 4.38634C339.363 4.38606 339.363 4.38578 339.363 4.3855C339.363 4.38521 339.363 4.38493 339.363 4.38465C339.363 4.38436 339.363 4.38408 339.363 4.38379C339.363 4.38351 339.363 4.38322 339.363 4.38294C339.363 4.38265 339.363 4.38237 339.363 4.38208C339.363 4.38179 339.363 4.38151 339.363 4.38122C339.363 4.38093 339.363 4.38065 339.363 4.38036C339.363 4.38007 339.363 4.37978 339.363 4.3795C339.363 4.37921 339.363 4.37892 339.363 4.37863C339.363 4.37834 339.363 4.37805 339.363 4.37776C339.363 4.37747 339.363 4.37718 339.363 4.37689C339.363 4.3766 339.363 4.37631 339.363 4.37602C339.363 4.37573 339.363 4.37543 339.363 4.37514C339.363 4.37485 339.363 4.37456 339.363 4.37427C339.363 4.37397 339.363 4.37368 339.363 4.37338C339.363 4.37309 339.363 4.3728 339.363 4.3725C339.363 4.37221 339.363 4.37191 339.363 4.37162C339.363 4.37132 339.363 4.37103 339.363 4.37073C339.363 4.37044 339.363 4.37014 339.363 4.36984C339.363 4.36955 339.363 4.36925 339.363 4.36895C339.363 4.36866 339.363 4.36836 339.363 4.36806C339.363 4.36776 339.363 4.36746 339.363 4.36717C339.363 4.36687 339.363 4.36657 339.363 4.36627C339.363 4.36597 339.363 4.36567 339.363 4.36537C339.363 4.36507 339.363 4.36477 339.363 4.36447C339.363 4.36417 339.363 4.36386 339.363 4.36356C339.363 4.36326 339.363 4.36296 339.363 4.36266C339.363 4.36235 339.363 4.36205 339.363 4.36175C339.363 4.36144 339.363 4.36114 339.363 4.36084C339.363 4.36053 339.363 4.36023 339.363 4.35992C339.363 4.35962 339.363 4.35931 339.363 4.35901C339.363 4.3587 339.363 4.3584 339.363 4.35809C339.363 4.35778 339.363 4.35748 339.363 4.35717C339.363 4.35686 339.363 4.35656 339.363 4.35625C339.363 4.35594 339.363 4.35563 339.363 4.35533C339.363 4.35502 339.363 4.35471 339.363 4.3544C339.363 4.35409 339.363 4.35378 339.363 4.35347C339.363 4.35316 339.363 4.35285 339.363 4.35254C339.363 4.35223 339.363 4.35192 339.363 4.35161C339.363 4.35129 339.363 4.35098 339.363 4.35067C339.363 4.35036 339.363 4.35005 339.363 4.34973C339.363 4.34942 339.363 4.34911 339.363 4.34879C339.363 4.34848 339.363 4.34817 339.363 4.34785C339.363 4.34754 339.363 4.34722 339.363 4.34691C339.363 4.34659 339.363 4.34628 339.363 4.34596C339.363 4.34564 339.363 4.34533 339.363 4.34501C339.363 4.34469 339.363 4.34438 339.363 4.34406C339.363 4.34374 339.363 4.34342 339.363 4.34311C339.363 4.34279 339.363 4.34247 339.363 4.34215C339.363 4.34183 339.363 4.34151 339.363 4.34119C339.363 4.34087 339.363 4.34055 339.363 4.34023C339.363 4.33991 339.363 4.33959 339.363 4.33927C339.363 4.33895 339.363 4.33863 339.363 4.33831C339.363 4.33798 339.363 4.33766 339.363 4.33734C339.363 4.33702 339.363 4.33669 339.363 4.33637C339.363 4.33605 339.363 4.33572 339.363 4.3354C339.363 4.33508 339.363 4.33475 339.363 4.33443C339.363 4.3341 339.363 4.33378 339.363 4.33345C339.363 4.33312 339.363 4.3328 339.363 4.33247C339.363 4.33215 339.363 4.33182 339.363 4.33149C339.363 4.33117 339.363 4.33084 339.363 4.33051C339.363 4.33018 339.363 4.32985 339.363 4.32952C339.363 4.3292 339.363 4.32887 339.363 4.32854C339.363 4.32821 339.363 4.32788 339.363 4.32755C339.363 4.32722 339.363 4.32689 339.363 4.32656C339.363 4.32623 339.363 4.3259 339.363 4.32557C339.363 4.32523 339.363 4.3249 339.363 4.32457C339.363 4.32424 339.363 4.3239 339.363 4.32357C339.363 4.32324 339.363 4.3229 339.363 4.32257C339.363 4.32224 339.363 4.3219 339.363 4.32157C339.363 4.32123 339.363 4.3209 339.363 4.32056C339.363 4.32023 339.363 4.31989 339.363 4.31956C339.363 4.31922 339.363 4.31888 339.363 4.31855C339.363 4.31821 339.363 4.31787 339.363 4.31754C339.363 4.3172 339.363 4.31686 339.363 4.31652C339.363 4.31618 339.363 4.31585 339.363 4.31551C339.363 4.31517 339.363 4.31483 339.363 4.31449C339.363 4.31415 339.363 4.31381 339.363 4.31347C339.363 4.31313 339.363 4.31279 339.363 4.31244C339.363 4.3121 339.363 4.31176 339.363 4.31142C339.363 4.31108 339.363 4.31074 339.363 4.31039C339.363 4.31005 339.363 4.30971 339.363 4.30936C339.363 4.30902 339.363 4.30868 339.363 4.30833C339.363 4.30799 339.363 4.30764 339.363 4.3073C339.363 4.30695 339.363 4.30661 339.363 4.30626C339.363 4.30592 339.363 4.30557 339.363 4.30523C339.363 4.30488 339.363 4.30453 339.363 4.30418C339.363 4.30384 339.363 4.30349 339.363 4.30314C339.363 4.30279 339.363 4.30244 339.363 4.3021C339.363 4.30175 339.363 4.3014 339.363 4.30105C339.363 4.3007 339.363 4.30035 339.363 4.3C339.363 4.29965 339.363 4.2993 339.363 4.29895C339.363 4.2986 339.363 4.29825 339.363 4.29789C339.363 4.29754 339.363 4.29719 339.363 4.29684C339.363 4.29649 339.363 4.29613 339.363 4.29578C339.363 4.29543 339.363 4.29507 339.363 4.29472C339.363 4.29436 339.363 4.29401 339.363 4.29366C339.363 4.2933 339.363 4.29295 339.363 4.29259C339.363 4.29224 339.363 4.29188 339.363 4.29152C339.363 4.29117 339.363 4.29081 339.363 4.29045C339.363 4.2901 339.363 4.28974 339.363 4.28938C339.363 4.28902 339.363 4.28867 339.363 4.28831C339.363 4.28795 339.363 4.28759 339.363 4.28723C339.363 4.28687 339.363 4.28651 339.363 4.28615C339.363 4.2858 339.363 4.28543 339.363 4.28507C339.363 4.28471 339.363 4.28435 339.363 4.28399C339.363 4.28363 339.363 4.28327 339.363 4.28291C339.363 4.28254 339.363 4.28218 339.363 4.28182C339.363 4.28146 339.363 4.28109 339.363 4.28073C339.363 4.28036 339.363 4.28 339.363 4.27964C339.363 4.27927 339.363 4.27891 339.363 4.27854C339.363 4.27818 339.363 4.27781 339.363 4.27745C339.363 4.27708 339.363 4.27671 339.363 4.27635C339.363 4.27598 339.363 4.27561 339.363 4.27525C339.363 4.27488 339.363 4.27451 339.363 4.27414C339.363 4.27378 339.363 4.27341 339.363 4.27304C339.363 4.27267 339.363 4.2723 339.363 4.27193C339.363 4.27156 339.363 4.27119 339.363 4.27082C339.363 4.27045 339.363 4.27008 339.363 4.26971C339.363 4.26934 339.363 4.26897 339.363 4.26859C339.363 4.26822 339.363 4.26785 339.363 4.26748C339.363 4.26711 339.363 4.26673 339.363 4.26636C339.363 4.26599 339.363 4.26561 339.363 4.26524C339.363 4.26486 339.363 4.26449 339.363 4.26412C339.363 4.26374 339.363 4.26336 339.363 4.26299C339.363 4.26262 339.363 4.26224 339.363 4.26186C339.363 4.26149 339.363 4.26111 339.363 4.26073C339.363 4.26035 339.363 4.25998 339.363 4.2596C339.363 4.25922 339.363 4.25884 339.363 4.25847C339.363 4.25809 339.363 4.25771 339.363 4.25733C339.363 4.25695 339.363 4.25657 339.363 4.25619C339.363 4.25581 339.363 4.25543 339.363 4.25505C339.363 4.25467 339.363 4.25429 339.363 4.25391H335.363ZM337.363 2.54688H313.477V6.54688H337.363V2.54688ZM313.477 2.54688C309.535 2.54688 306.517 4.72382 304.445 8.4353L307.938 10.385C309.486 7.61212 311.324 6.54688 313.477 6.54688V2.54688ZM304.407 8.50753C303.665 9.97305 303.332 11.6292 303.332 13.4141H307.332C307.332 12.126 307.571 11.1129 307.976 10.3128L304.407 8.50753ZM303.332 13.4141V16.2656H307.332V13.4141H303.332ZM303.332 16.2656C303.332 18.9488 304.006 21.3347 305.506 23.2643C307 25.187 309.164 26.4648 311.797 27.2129L312.89 23.3652C310.849 22.7852 309.507 21.895 308.664 20.8099C307.826 19.7318 307.332 18.2699 307.332 16.2656H303.332ZM312.158 27.2804C313.156 27.3736 313.99 27.4258 314.629 27.4258V23.4258C314.174 23.4258 313.485 23.3868 312.53 23.2977L312.158 27.2804ZM314.629 27.4258H337.363V23.4258H314.629V27.4258ZM335.363 25.4258V29H339.363V25.4258H335.363ZM337.363 27H314.336V31H337.363V27ZM314.336 27C311.886 27 309.916 26.4084 308.325 25.3154C306.726 24.2169 305.369 22.5148 304.318 20.0666L300.643 21.6444C301.922 24.6258 303.707 26.996 306.06 28.6123C308.421 30.2342 311.213 31 314.336 31V27ZM304.367 20.1908C303.952 19.0131 303.758 17.9031 303.758 16.8516H299.758C299.758 18.4042 300.046 19.9635 300.594 21.5202L304.367 20.1908ZM303.758 16.8516V13.2773H299.758V16.8516H303.758ZM303.758 13.2773C303.758 10.98 304.322 9.09717 305.38 7.54115C306.445 5.97404 308.097 4.61089 310.471 3.50951L308.787 -0.11889C305.913 1.21463 303.63 2.99927 302.071 5.29283C300.505 7.5975 299.758 10.2882 299.758 13.2773H303.758ZM310.261 3.59268C311.613 3.14197 312.572 2.97266 313.203 2.97266V-1.02734C311.959 -1.02734 310.535 -0.71489 308.996 -0.202054L310.261 3.59268ZM340.82 0.972656V-1.02734H338.82V0.972656H340.82ZM376.289 0.972656H378.289V-1.02734H376.289V0.972656ZM376.289 4.54688V6.54688H378.289V4.54688H376.289ZM360.41 4.54688V2.54688H358.41V4.54688H360.41ZM356.836 29H354.836V31H356.836V29ZM356.836 4.54688H358.836V2.54688H356.836V4.54688ZM340.82 4.54688H338.82V6.54688H340.82V4.54688ZM340.82 2.97266H376.289V-1.02734H340.82V2.97266ZM374.289 0.972656V4.54688H378.289V0.972656H374.289ZM376.289 2.54688H360.41V6.54688H376.289V2.54688ZM358.41 4.54688V28.707H362.41V4.54688H358.41ZM358.41 28.707C358.41 28.4964 358.464 27.9711 358.923 27.5125C359.381 27.054 359.907 27 360.117 27V31C360.523 31 361.195 30.8972 361.751 30.341C362.307 29.7848 362.41 29.113 362.41 28.707H358.41ZM360.117 27H356.836V31H360.117V27ZM358.836 29V4.54688H354.836V29H358.836ZM356.836 2.54688H340.82V6.54688H356.836V2.54688ZM342.82 4.54688V0.972656H338.82V4.54688H342.82ZM379.883 0.992188V-1.00781H377.883V0.992188H379.883ZM415.391 0.992188H417.391V-1.00781H415.391V0.992188ZM415.391 4.56641V6.56641H417.391V4.56641H415.391ZM379.883 4.56641H377.883V6.56641H379.883V4.56641ZM415.371 11.2852L417.16 10.3907L416.607 9.28516H415.371V11.2852ZM415.391 14.8594V16.8594H417.391V14.8594H415.391ZM383.457 14.8594V12.8594H381.457V14.8594H383.457ZM383.457 29V31H385.457V29H383.457ZM379.883 11.5781L377.9 11.3138L377.883 11.4454V11.5781H379.883ZM379.883 2.99219H415.391V-1.00781H379.883V2.99219ZM413.391 0.992188V4.56641H417.391V0.992188H413.391ZM415.391 2.56641H379.883V6.56641H415.391V2.56641ZM381.883 4.56641V0.992188H377.883V4.56641H381.883ZM380.176 13.2852H415.371V9.28516H380.176V13.2852ZM413.582 12.1796C413.497 12.0083 413.456 11.8641 413.44 11.8002C413.42 11.7246 413.41 11.6642 413.404 11.63C413.394 11.563 413.391 11.5172 413.39 11.511C413.389 11.495 413.391 11.511 413.391 11.5781H417.391C417.391 11.476 417.389 11.3585 417.381 11.2449C417.378 11.1898 417.371 11.1042 417.355 11.0062C417.349 10.966 417.311 10.692 417.16 10.3907L413.582 12.1796ZM413.391 11.5781V14.8594H417.391V11.5781H413.391ZM415.391 12.8594H383.457V16.8594H415.391V12.8594ZM381.457 14.8594V29H385.457V14.8594H381.457ZM383.457 27H380.176V31H383.457V27ZM380.176 27C380.386 27 380.912 27.054 381.37 27.5125C381.829 27.9711 381.883 28.4964 381.883 28.707H377.883C377.883 29.113 377.986 29.7848 378.542 30.341C379.098 30.8972 379.77 31 380.176 31V27ZM381.883 28.707V11.5781H377.883V28.707H381.883ZM381.865 11.8425C381.844 11.9997 381.759 12.403 381.39 12.7726C380.982 13.1802 380.494 13.2852 380.176 13.2852V9.28516C379.688 9.28516 379.067 9.43899 378.561 9.94419C378.094 10.4114 377.947 10.9613 377.9 11.3138L381.865 11.8425Z" fill="white"/>
</svg>
