<svg width="33" height="30" viewBox="0 0 33 30" fill="none" xmlns="http://www.w3.org/2000/svg">
<path d="M18.438 10.2095C18.6608 10.2001 18.7692 10.1909 18.9888 10.1723L18.9983 10.1714V9.1632C19.3122 9.13721 19.4742 9.11915 19.7602 9.0873L19.8478 9.07757C19.9635 8.94095 20.0485 8.84186 20.1342 8.74179C20.2157 8.64667 20.298 8.55068 20.4081 8.4207C19.8478 8.49693 19.5677 8.52445 18.9983 8.57291V7.85822C19.658 7.79156 19.983 7.75447 20.625 7.65828C20.643 7.67255 20.6544 7.68447 20.6656 7.69639C20.6769 7.70831 20.6881 7.72024 20.7062 7.73451L20.7663 7.72547L20.7727 7.72453L20.7757 7.72407L20.7781 7.72374L20.7845 7.72279C20.9881 7.69206 21.1123 7.67333 21.3298 7.63934V6.96326C20.399 7.11576 20.0085 7.16633 19.0689 7.25192C18.843 7.50916 18.664 7.70679 18.438 7.95416V10.2095Z" fill="#BF5AF2"/>
<path d="M13.2105 9.99677C14.2204 10.0959 14.5571 10.106 14.5571 10.106V9.54211C14.1242 9.51489 13.9021 9.49649 13.4703 9.46011C12.3544 9.35104 12.2292 8.91499 12.2292 8.49601C12.2292 8.06862 12.4986 7.71383 13.4317 7.80474C13.696 7.8311 13.8247 7.84022 14.0143 7.85362C14.0869 7.85874 14.1688 7.86456 14.2703 7.87215C14.3891 7.76857 14.4771 7.68986 14.5647 7.61145C14.6541 7.53142 14.7435 7.45148 14.8648 7.34588C14.1819 7.30946 13.9128 7.28644 13.2297 7.22201C12.5746 7.14916 12.1042 7.26734 11.8445 7.61297C11.7099 7.804 11.6328 8.06788 11.6328 8.41351C11.6328 8.75915 11.7001 9.04109 11.8445 9.26829C12.0948 9.69672 12.566 9.93308 13.2105 9.99677Z" fill="#BF5AF2"/>
<path d="M16.2838 10.2098V7.95532C15.5569 7.95532 15.2521 7.93968 14.5251 7.8939L14.5465 7.87459C14.7684 7.67502 14.8827 7.57219 15.1113 7.35727C16.6316 7.43103 17.2667 7.42521 18.7777 7.30518C18.5416 7.55461 18.4289 7.67292 18.1928 7.91328C18.1928 7.91328 17.6626 7.94599 16.8693 7.95532V10.2098H16.2838Z" fill="#BF5AF2"/>
<path fill-rule="evenodd" clip-rule="evenodd" d="M9.63424 13.2798C5.0137 12.4796 1.70093 8.11391 1.70093 3.38539C2.46506 6.79713 4.04972 7.96913 4.12039 8.02139L4.12267 8.02308C1.6995 5.46727 2.05519 0.814032 2.05519 0.814032C2.05519 0.814032 2.86452 8.12105 9.75691 10.8208C9.72721 10.2764 9.70436 9.70658 9.70436 9.23426C9.70436 8.38868 9.73431 7.94504 9.75724 7.60477C9.77151 7.39311 9.78307 7.22147 9.78307 7.01803C9.78307 6.84168 9.73736 6.67223 9.68109 6.46358C9.56799 6.04436 9.41215 5.4669 9.49869 4.35723C9.49869 4.35723 12.6987 5.123 16.4995 5.123C20.3006 5.123 23.5003 4.35723 23.5003 4.35723C23.5872 5.46818 23.4313 6.04638 23.3183 6.46573C23.2621 6.67408 23.2165 6.84325 23.2165 7.01902C23.2165 7.22197 23.228 7.39324 23.2423 7.60456C23.2652 7.94475 23.2952 8.38864 23.2952 9.23525C23.2952 9.70757 23.2723 10.2774 23.2424 10.8218C30.1355 8.12105 30.9449 0.8125 30.9449 0.8125C30.9449 0.8125 31.2988 5.46666 28.8769 8.02168C28.8769 8.02168 30.5172 6.87538 31.2988 3.38539C31.2988 8.11391 27.9864 12.4796 23.3632 13.2806C23.3632 13.2806 22.5937 15.8168 19.0842 16.4495C19.0842 16.4495 19.0859 16.4519 19.0894 16.4564C19.092 16.4598 19.0958 16.4645 19.1007 16.4702C19.5162 16.8559 20.0784 17.21 20.8352 17.4688C21.1526 17.5734 21.476 17.6584 21.8037 17.7235C21.8037 17.7235 20.9855 18 20.2506 18C19.8562 18 19.2262 17.8848 18.652 17.545C18.2581 18.0488 17.6479 19.1098 17.8455 21.5116C17.8119 21.4367 17.5254 20.7735 17.2845 19.0499C17.2845 19.0499 17.2195 19.992 18.1166 24.5817C17.4094 20.9065 19.3394 18.0585 19.3394 18.0585C19.9522 18.299 20.6887 18.1905 20.6887 18.1905C18.843 20.2944 18.7226 23.5905 18.8531 25.5354L19.2086 25.7319L19.6841 26.7697L19.0408 27.1159L18.4907 27.4058C17.4076 25.875 17.0841 23.8437 17.0656 23.7184C17.0747 23.842 17.2331 25.6745 18.3043 27.5087L17.6052 27.8826C17.6052 27.8826 16.9434 26.4892 16.934 25.6384C16.934 25.6384 16.9094 26.6576 17.4033 28.0042L16.4987 28.4915L15.594 28.0042C16.0889 26.6574 16.0635 25.6384 16.0635 25.6384C16.0541 26.4892 15.3923 27.8826 15.3923 27.8826L14.6929 27.5087C15.7641 25.6748 15.9226 23.842 15.932 23.7184C15.9134 23.8437 15.5898 25.875 14.5065 27.4058L13.9565 27.1159L13.3135 26.7697L13.7889 25.7319L14.1443 25.5354C14.2749 23.591 14.1546 20.2944 12.3089 18.1905C12.3089 18.1905 13.0458 18.299 13.6578 18.0585C13.6578 18.0585 15.5891 20.9055 14.8818 24.5809C15.7791 19.9918 15.7141 19.0492 15.7141 19.0492C15.473 20.7721 15.1866 21.4359 15.1531 21.5108C15.3507 19.1091 14.7404 18.0481 14.3466 17.5442C13.7711 17.8841 13.1413 17.9991 12.7466 17.9991C12.012 17.9991 11.1935 17.7228 11.1935 17.7228C11.5213 17.6577 11.8447 17.5726 12.162 17.468C12.9188 17.2082 13.481 16.8551 13.8965 16.4694C13.908 16.4562 13.9133 16.4488 13.9133 16.4488C10.4035 15.816 9.63424 13.2798 9.63424 13.2798ZM16.4997 6.53425C13.1941 6.53425 11.1625 6.13251 11.1625 6.13251C11.1625 6.13251 10.6821 8.96144 11.0528 11.2241C11.3096 12.7854 12.8335 14.3673 13.9831 14.9673C14.2642 15.1017 14.5058 15.1851 14.6723 15.2105C14.7053 15.2149 14.7376 15.2189 14.7686 15.2189L14.7795 15.2172C14.9819 14.738 15.035 14.3138 15.035 14.0708C15.035 11.1433 13.186 11.8469 13.186 11.8469C13.186 11.8469 12.7937 10.9714 13.6939 10.9714C14.5657 10.9714 15.8502 11.5873 15.8502 11.5873C15.8502 11.5873 15.5926 11.7557 15.7231 11.9988C15.76 12.0641 15.7986 12.1301 15.8382 12.1977C16.0883 12.6255 16.3756 13.117 16.4992 13.9065C16.6228 13.1165 16.9103 12.6248 17.1607 12.1968L17.1619 12.1949C17.2008 12.1283 17.2389 12.0632 17.2753 11.9988C17.4064 11.7557 17.1483 11.5873 17.1483 11.5873C17.1483 11.5873 18.4341 10.9729 19.3049 10.9729C20.2056 10.9729 19.8128 11.8484 19.8128 11.8484C19.8128 11.8484 17.9638 11.1448 17.9638 14.0723C17.9638 14.3151 18.0161 14.7392 18.2193 15.2186L18.2302 15.2205C18.2612 15.2194 18.2934 15.2163 18.3264 15.212C18.493 15.1868 18.7345 15.1033 19.0156 14.9688C20.1665 14.3673 21.6902 12.7849 21.9465 11.2241C22.3177 8.96016 21.8375 6.13251 21.8375 6.13251C21.8375 6.13251 19.8054 6.53425 16.4997 6.53425Z" fill="#BF5AF2"/>
<path d="M30.1079 8.84273C30.1079 8.84273 27.9845 12.6409 23.5511 13.5029C23.5511 13.5029 22.7494 15.8349 19.5615 16.6165C19.5615 16.6165 20.779 17.5565 22.5658 17.5565C25.5745 17.5565 28.0478 14.5903 28.4751 13.0755C26.8624 14.8203 25.5599 15.0603 25.5599 15.0603C27.7649 13.9178 29.5462 11.5218 30.1079 8.84273Z" fill="#BF5AF2"/>
<path d="M4.52421 13.0755C4.95148 14.5903 7.42474 17.5565 10.4331 17.5565C12.2203 17.5565 13.4378 16.6165 13.4378 16.6165C10.2499 15.8357 9.44797 13.5029 9.44797 13.5029C5.01401 12.6409 2.89136 8.84273 2.89136 8.84273C3.45316 11.5218 5.23416 13.9168 7.43935 15.0612C7.43935 15.0612 7.43856 15.0611 7.437 15.0608C7.37083 15.0466 6.09435 14.7744 4.52421 13.0755Z" fill="#BF5AF2"/>
<path d="M32.0173 6.08003C31.9492 6.69898 31.9072 7.08034 32.0895 7.63338C32.4426 8.70435 33 10.6853 33 13.0818C33 21.7257 26.0688 29.6874 16.5 29.6874C6.93128 29.6874 0 21.7257 0 13.0818C0 10.6853 0.556937 8.70435 0.910289 7.63338C1.09264 7.08071 1.05056 6.69939 0.982253 6.08052C0.918192 5.50013 0.83108 4.71081 0.8844 3.37532C0.8844 4.6672 1.70534 7.15096 1.70534 7.15096C1.70534 7.15096 0.577756 10.1419 0.577756 13.0818C0.577756 22.239 7.96723 29.1068 16.499 29.1068C25.0307 29.1068 32.4215 22.2402 32.4215 13.0818C32.4215 10.1419 31.2939 7.15096 31.2939 7.15096C31.2939 7.15096 32.1149 4.6672 32.1149 3.37532C32.1682 4.71056 32.0813 5.49972 32.0173 6.08003Z" fill="#BF5AF2"/>
</svg>
