<svg width="772" height="167" viewBox="0 0 772 167" fill="none" xmlns="http://www.w3.org/2000/svg">
<path d="M14.7676 0.435059H23.2563V24.8809H40.605C48.4289 24.8809 54.4282 20.6906 58.603 12.3101C59.7163 9.8361 60.2729 6.89827 60.2729 3.49658V0.435059H68.7617V4.19238C68.7617 12.2946 65.9321 19.3145 60.2729 25.252C66.0868 26.1488 71.2975 28.6382 75.9053 32.7202C82.0283 38.6577 85.0898 45.7858 85.0898 54.1045V67H76.6011V55.4497C76.6011 44.7189 71.3903 37.5908 60.9688 34.0654C57.9691 33.6016 55.0158 33.3696 52.1089 33.3696H23.2563V67H14.7676V33.3696H0.851562V24.8809H14.7676V0.435059ZM93.625 0.435059H102.114V25.252H169.375V0.435059H177.863V38.7969C177.863 49.4349 172.653 57.8154 162.231 63.9385C158.304 65.9795 154.222 67 149.985 67H93.625V58.5112H149.66C158.381 58.5112 164.72 53.5324 168.679 43.5747C169.143 41.4409 169.375 39.7401 169.375 38.4722V33.7407H93.625V0.435059ZM200.407 0.342285H239.372V8.87744H208.942V24.9736H239.372C255.051 24.9736 265.302 32.1481 270.126 46.4971C270.59 49.2493 270.822 51.4141 270.822 52.9912V67H200.407V33.5088H186.398V24.9736H200.407V0.342285ZM208.942 33.5088V58.4648H262.287V53.3159C262.287 44.6261 257.277 38.2557 247.258 34.2046C244.382 33.7407 241.985 33.5088 240.068 33.5088H208.942ZM279.172 0.435059H335.532C346.881 0.435059 355.602 6.54264 361.694 18.7578C362.838 22.4378 363.41 25.2674 363.41 27.2466V67H309.045C295.809 67 286.424 60.5522 280.888 47.6567C279.744 44.4097 279.172 41.2399 279.172 38.1475V0.435059ZM287.661 8.92383V37.4517C287.661 47.9351 293.212 54.8467 304.313 58.1865C306.633 58.403 308.442 58.5112 309.741 58.5112H354.921V28.2671C354.921 19.701 350.051 13.4852 340.31 9.61963C338.609 9.15576 337.016 8.92383 335.532 8.92383H287.661ZM385.861 0.435059H394.35V24.8809H411.699C419.523 24.8809 425.522 20.6906 429.697 12.3101C430.81 9.8361 431.367 6.89827 431.367 3.49658V0.435059H439.855V4.19238C439.855 12.2946 437.026 19.3145 431.367 25.252C437.181 26.1488 442.391 28.6382 446.999 32.7202C453.122 38.6577 456.184 45.7858 456.184 54.1045V67H447.695V55.4497C447.695 44.7189 442.484 37.5908 432.062 34.0654C429.063 33.6016 426.11 33.3696 423.203 33.3696H394.35V67H385.861V33.3696H371.945V24.8809H385.861V0.435059ZM529.011 0.435059H586.391V8.22803C586.391 8.69189 586.391 8.92383 586.391 8.92383H529.66C522.424 8.92383 516.656 12.7739 512.358 20.4741C510.997 23.1646 510.317 26.3343 510.317 29.9834V36.7559C510.317 47.8887 515.868 55.0322 526.97 58.1865C529.289 58.403 531.098 58.5112 532.397 58.5112H586.391V67H531.701C518.465 67 509.08 60.5522 503.544 47.6567C502.4 44.4097 501.828 41.2399 501.828 38.1475V29.6587C501.828 17.1034 508.059 7.93424 520.522 2.15137C523.955 1.00716 526.784 0.435059 529.011 0.435059ZM594.602 0.435059H678.84V8.92383H641.127V66.3042C641.127 66.7681 640.896 67 640.432 67H632.639V8.92383H594.602V0.435059ZM687.375 0.481445H771.706V8.97021H687.375V0.481445ZM688.071 24.9272H771.66C771.691 24.9891 771.706 25.221 771.706 25.623V33.416H695.864V67H688.071C687.607 67 687.375 66.7681 687.375 66.3042V25.623C687.437 25.1592 687.669 24.9272 688.071 24.9272ZM216.55 100.435H287.197V133.555H225.085V135.967C225.085 146.111 229.399 153.161 238.027 157.12C240.47 158.016 242.758 158.465 244.892 158.465H287.197V167H243.5C235.182 167 227.791 162.671 221.328 154.012C218.142 149.342 216.55 143.436 216.55 136.292V125.02H278.662V108.97H216.55V100.435ZM329.826 100.435H350.654C362.374 100.435 371.93 106.574 379.321 118.851C381.578 124.108 382.707 129.118 382.707 133.88C382.707 147.765 375.424 158.233 360.859 165.284C356.622 166.428 353.561 167 351.674 167H329.455C321.569 167 314.178 163.707 307.282 157.12C300.912 150.471 297.727 142.616 297.727 133.555C297.727 120.072 304.561 109.836 318.229 102.847C322.435 101.239 326.301 100.435 329.826 100.435ZM306.262 133.88C306.262 144.487 311.952 152.342 323.332 157.444C326.208 158.125 328.373 158.465 329.826 158.465H350.654C359.096 158.465 366.023 153.919 371.435 144.827C373.26 140.931 374.172 137.173 374.172 133.555C374.172 124.278 369.518 116.887 360.209 111.382C356.777 109.774 353.236 108.97 349.587 108.97H329.826C321.538 108.97 314.596 113.408 308.999 122.283C307.174 126.458 306.262 130.324 306.262 133.88ZM390.5 100.435H461.147V133.555H399.035V135.967C399.035 146.111 403.349 153.161 411.977 157.12C414.42 158.016 416.708 158.465 418.842 158.465H461.147V167H417.451C409.132 167 401.741 162.671 395.278 154.012C392.093 149.342 390.5 143.436 390.5 136.292V125.02H452.612V108.97H390.5V100.435ZM471.677 100.481H542.277V125.02H556.286V138.704C556.286 149.435 551.06 157.846 540.607 163.938C536.866 165.979 532.876 167 528.64 167H471.677V158.465H528.64C535.969 158.465 541.891 154.151 546.406 145.523C547.303 142.709 547.751 140.312 547.751 138.333V133.555H489.768V125.02H533.789V109.017H471.677V100.481Z" fill="white"/>
<path d="M14.7676 0.435059V-5.56494H8.76758V0.435059H14.7676ZM23.2563 0.435059H29.2563V-5.56494H23.2563V0.435059ZM23.2563 24.8809H17.2563V30.8809H23.2563V24.8809ZM58.603 12.3101L63.9735 14.9854L64.0261 14.8798L64.0746 14.7722L58.603 12.3101ZM60.2729 0.435059V-5.56494H54.2729V0.435059H60.2729ZM68.7617 0.435059H74.7617V-5.56494H68.7617V0.435059ZM60.2729 25.252L55.9297 21.1123L48.0019 29.43L59.3582 31.1818L60.2729 25.252ZM75.9053 32.7202L80.0821 28.4128L79.9851 28.3187L79.884 28.2291L75.9053 32.7202ZM85.0898 67V73H91.0898V67H85.0898ZM76.6011 67H70.6011V73H76.6011V67ZM60.9688 34.0654L62.8914 28.3818L62.3992 28.2153L61.8857 28.1359L60.9688 34.0654ZM23.2563 33.3696V27.3696H17.2563V33.3696H23.2563ZM23.2563 67V73H29.2563V67H23.2563ZM14.7676 67H8.76758V73H14.7676V67ZM14.7676 33.3696H20.7676V27.3696H14.7676V33.3696ZM0.851562 33.3696H-5.14844V39.3696H0.851562V33.3696ZM0.851562 24.8809V18.8809H-5.14844V24.8809H0.851562ZM14.7676 24.8809V30.8809H20.7676V24.8809H14.7676ZM14.7676 6.43506H23.2563V-5.56494H14.7676V6.43506ZM17.2563 0.435059V24.8809H29.2563V0.435059H17.2563ZM23.2563 30.8809H40.605V18.8809H23.2563V30.8809ZM40.605 30.8809C45.6562 30.8809 50.3298 29.5056 54.4081 26.6571C58.4285 23.8491 61.5608 19.8287 63.9735 14.9854L53.2325 9.63471C51.4704 13.172 49.5157 15.437 47.5367 16.8192C45.6157 18.161 43.3777 18.8809 40.605 18.8809V30.8809ZM64.0746 14.7722C65.6128 11.354 66.2729 7.53824 66.2729 3.49658H54.2729C54.2729 6.25831 53.8198 8.31821 53.1315 9.84787L64.0746 14.7722ZM66.2729 3.49658V0.435059H54.2729V3.49658H66.2729ZM60.2729 6.43506H68.7617V-5.56494H60.2729V6.43506ZM62.7617 0.435059V4.19238H74.7617V0.435059H62.7617ZM62.7617 4.19238C62.7617 10.732 60.5401 16.2753 55.9297 21.1123L64.6162 29.3916C71.3242 22.3537 74.7617 13.8572 74.7617 4.19238H62.7617ZM59.3582 31.1818C63.9794 31.8947 68.1388 33.8557 71.9266 37.2113L79.884 28.2291C74.4563 23.4207 68.1941 20.4029 61.1877 19.3221L59.3582 31.1818ZM71.7284 37.0276C76.7192 41.8672 79.0898 47.4548 79.0898 54.1045H91.0898C91.0898 44.1169 87.3374 35.4482 80.0821 28.4128L71.7284 37.0276ZM79.0898 54.1045V67H91.0898V54.1045H79.0898ZM85.0898 61H76.6011V73H85.0898V61ZM82.6011 67V55.4497H70.6011V67H82.6011ZM82.6011 55.4497C82.6011 49.0912 81.0433 43.3115 77.5368 38.5147C74.0394 33.7305 68.9828 30.4424 62.8914 28.3818L59.0461 39.749C63.3763 41.2138 66.1358 43.2525 67.8492 45.5964C69.5534 47.9277 70.6011 51.0774 70.6011 55.4497H82.6011ZM61.8857 28.1359C58.5959 27.6272 55.336 27.3696 52.1089 27.3696V39.3696C54.6956 39.3696 57.3422 39.5759 60.0518 39.995L61.8857 28.1359ZM52.1089 27.3696H23.2563V39.3696H52.1089V27.3696ZM17.2563 33.3696V67H29.2563V33.3696H17.2563ZM23.2563 61H14.7676V73H23.2563V61ZM20.7676 67V33.3696H8.76758V67H20.7676ZM14.7676 27.3696H0.851562V39.3696H14.7676V27.3696ZM6.85156 33.3696V24.8809H-5.14844V33.3696H6.85156ZM0.851562 30.8809H14.7676V18.8809H0.851562V30.8809ZM20.7676 24.8809V0.435059H8.76758V24.8809H20.7676ZM93.625 0.435059V-5.56494H87.625V0.435059H93.625ZM102.114 0.435059H108.114V-5.56494H102.114V0.435059ZM102.114 25.252H96.1138V31.252H102.114V25.252ZM169.375 25.252V31.252H175.375V25.252H169.375ZM169.375 0.435059V-5.56494H163.375V0.435059H169.375ZM177.863 0.435059H183.863V-5.56494H177.863V0.435059ZM162.231 63.9385L164.998 69.2625L165.136 69.1906L165.27 69.1117L162.231 63.9385ZM93.625 67H87.625V73H93.625V67ZM93.625 58.5112V52.5112H87.625V58.5112H93.625ZM168.679 43.5747L174.254 45.7911L174.437 45.332L174.542 44.8493L168.679 43.5747ZM169.375 33.7407H175.375V27.7407H169.375V33.7407ZM93.625 33.7407H87.625V39.7407H93.625V33.7407ZM93.625 6.43506H102.114V-5.56494H93.625V6.43506ZM96.1138 0.435059V25.252H108.114V0.435059H96.1138ZM102.114 31.252H169.375V19.252H102.114V31.252ZM175.375 25.252V0.435059H163.375V25.252H175.375ZM169.375 6.43506H177.863V-5.56494H169.375V6.43506ZM171.863 0.435059V38.7969H183.863V0.435059H171.863ZM171.863 38.7969C171.863 46.9822 168.078 53.5442 159.192 58.7653L165.27 69.1117C177.227 62.0867 183.863 51.8876 183.863 38.7969H171.863ZM159.464 58.6145C156.352 60.2319 153.215 61 149.985 61V73C155.228 73 160.255 71.7271 164.998 69.2625L159.464 58.6145ZM149.985 61H93.625V73H149.985V61ZM99.625 67V58.5112H87.625V67H99.625ZM93.625 64.5112H149.66V52.5112H93.625V64.5112ZM149.66 64.5112C155.247 64.5112 160.346 62.885 164.661 59.4958C168.895 56.1708 172.009 51.4405 174.254 45.7911L163.103 41.3583C161.39 45.6666 159.355 48.4045 157.249 50.0584C155.225 51.6481 152.794 52.5112 149.66 52.5112V64.5112ZM174.542 44.8493C175.042 42.5505 175.375 40.3675 175.375 38.4722H163.375C163.375 39.1127 163.244 40.3313 162.816 42.3001L174.542 44.8493ZM175.375 38.4722V33.7407H163.375V38.4722H175.375ZM169.375 27.7407H93.625V39.7407H169.375V27.7407ZM99.625 33.7407V0.435059H87.625V33.7407H99.625ZM200.407 0.342285V-5.65771H194.407V0.342285H200.407ZM239.372 0.342285H245.372V-5.65771H239.372V0.342285ZM239.372 8.87744V14.8774H245.372V8.87744H239.372ZM208.942 8.87744V2.87744H202.942V8.87744H208.942ZM208.942 24.9736H202.942V30.9736H208.942V24.9736ZM270.126 46.4971L276.043 45.4999L275.964 45.0334L275.814 44.585L270.126 46.4971ZM270.822 67V73H276.822V67H270.822ZM200.407 67H194.407V73H200.407V67ZM200.407 33.5088H206.407V27.5088H200.407V33.5088ZM186.398 33.5088H180.398V39.5088H186.398V33.5088ZM186.398 24.9736V18.9736H180.398V24.9736H186.398ZM200.407 24.9736V30.9736H206.407V24.9736H200.407ZM208.942 33.5088V27.5088H202.942V33.5088H208.942ZM208.942 58.4648H202.942V64.4648H208.942V58.4648ZM262.287 58.4648V64.4648H268.287V58.4648H262.287ZM247.258 34.2046L249.507 28.6421L248.88 28.3887L248.213 28.2811L247.258 34.2046ZM200.407 6.34229H239.372V-5.65771H200.407V6.34229ZM233.372 0.342285V8.87744H245.372V0.342285H233.372ZM239.372 2.87744H208.942V14.8774H239.372V2.87744ZM202.942 8.87744V24.9736H214.942V8.87744H202.942ZM208.942 30.9736H239.372V18.9736H208.942V30.9736ZM239.372 30.9736C246.294 30.9736 251.492 32.5493 255.379 35.2702C259.249 37.9785 262.348 42.1891 264.439 48.4091L275.814 44.585C273.081 36.4561 268.642 29.905 262.26 25.4388C255.896 20.9852 248.129 18.9736 239.372 18.9736V30.9736ZM264.21 47.4942C264.654 50.1266 264.822 51.9089 264.822 52.9912H276.822C276.822 50.9192 276.527 48.3721 276.043 45.4999L264.21 47.4942ZM264.822 52.9912V67H276.822V52.9912H264.822ZM270.822 61H200.407V73H270.822V61ZM206.407 67V33.5088H194.407V67H206.407ZM200.407 27.5088H186.398V39.5088H200.407V27.5088ZM192.398 33.5088V24.9736H180.398V33.5088H192.398ZM186.398 30.9736H200.407V18.9736H186.398V30.9736ZM206.407 24.9736V0.342285H194.407V24.9736H206.407ZM202.942 33.5088V58.4648H214.942V33.5088H202.942ZM208.942 64.4648H262.287V52.4648H208.942V64.4648ZM268.287 58.4648V53.3159H256.287V58.4648H268.287ZM268.287 53.3159C268.287 47.7297 266.645 42.6334 263.246 38.3118C259.914 34.0745 255.174 30.9334 249.507 28.6421L245.009 39.7671C249.361 41.5269 252.136 43.5966 253.813 45.7297C255.425 47.7786 256.287 50.2124 256.287 53.3159H268.287ZM248.213 28.2811C245.166 27.7896 242.424 27.5088 240.068 27.5088V39.5088C241.546 39.5088 243.598 39.6918 246.302 40.128L248.213 28.2811ZM240.068 27.5088H208.942V39.5088H240.068V27.5088ZM279.172 0.435059V-5.56494H273.172V0.435059H279.172ZM361.694 18.7578L367.423 16.9764L367.279 16.5136L367.063 16.08L361.694 18.7578ZM363.41 67V73H369.41V67H363.41ZM280.888 47.6567L275.229 49.6508L275.296 49.8396L275.375 50.0234L280.888 47.6567ZM287.661 8.92383V2.92383H281.661V8.92383H287.661ZM304.313 58.1865L302.585 63.9322L303.159 64.1049L303.756 64.1606L304.313 58.1865ZM354.921 58.5112V64.5112H360.921V58.5112H354.921ZM340.31 9.61963L342.523 4.04268L342.211 3.91916L341.888 3.83105L340.31 9.61963ZM279.172 6.43506H335.532V-5.56494H279.172V6.43506ZM335.532 6.43506C340.061 6.43506 343.859 7.63069 347.142 9.93032C350.485 12.2714 353.602 15.9766 356.325 21.4357L367.063 16.08C363.694 9.32387 359.404 3.86769 354.026 0.101174C348.589 -3.70678 342.352 -5.56494 335.532 -5.56494V6.43506ZM355.964 20.5392C357.065 24.0796 357.41 26.2026 357.41 27.2466H369.41C369.41 24.3322 368.611 20.796 367.423 16.9764L355.964 20.5392ZM357.41 27.2466V67H369.41V27.2466H357.41ZM363.41 61H309.045V73H363.41V61ZM309.045 61C303.438 61 299.015 59.6494 295.476 57.2187C291.915 54.7718 288.826 50.9379 286.402 45.29L275.375 50.0234C278.486 57.2711 282.858 63.1088 288.682 67.1096C294.529 71.1267 301.417 73 309.045 73V61ZM286.547 45.6626C285.603 42.9841 285.172 40.4883 285.172 38.1475H273.172C273.172 41.9915 273.885 45.8352 275.229 49.6508L286.547 45.6626ZM285.172 38.1475V0.435059H273.172V38.1475H285.172ZM281.661 8.92383V37.4517H293.661V8.92383H281.661ZM281.661 37.4517C281.661 43.7997 283.365 49.5475 287.146 54.255C290.883 58.9087 296.226 62.0193 302.585 63.9322L306.042 52.4409C301.299 51.0139 298.315 48.9987 296.502 46.7408C294.732 44.5367 293.661 41.587 293.661 37.4517H281.661ZM303.756 64.1606C306.14 64.3831 308.165 64.5112 309.741 64.5112V52.5112C308.719 52.5112 307.125 52.4229 304.871 52.2125L303.756 64.1606ZM309.741 64.5112H354.921V52.5112H309.741V64.5112ZM360.921 58.5112V28.2671H348.921V58.5112H360.921ZM360.921 28.2671C360.921 22.7635 359.326 17.7355 355.991 13.48C352.72 9.3049 348.068 6.24321 342.523 4.04268L338.096 15.1966C342.292 16.8616 344.947 18.8406 346.546 20.8814C348.082 22.8416 348.921 25.2046 348.921 28.2671H360.921ZM341.888 3.83105C339.766 3.2523 337.638 2.92383 335.532 2.92383V14.9238C336.394 14.9238 337.451 15.0592 338.731 15.4082L341.888 3.83105ZM335.532 2.92383H287.661V14.9238H335.532V2.92383ZM385.861 0.435059V-5.56494H379.861V0.435059H385.861ZM394.35 0.435059H400.35V-5.56494H394.35V0.435059ZM394.35 24.8809H388.35V30.8809H394.35V24.8809ZM429.697 12.3101L435.067 14.9854L435.12 14.8798L435.168 14.7722L429.697 12.3101ZM431.367 0.435059V-5.56494H425.367V0.435059H431.367ZM439.855 0.435059H445.855V-5.56494H439.855V0.435059ZM431.367 25.252L427.023 21.1123L419.096 29.43L430.452 31.1818L431.367 25.252ZM446.999 32.7202L451.176 28.4128L451.079 28.3187L450.978 28.2291L446.999 32.7202ZM456.184 67V73H462.184V67H456.184ZM447.695 67H441.695V73H447.695V67ZM432.062 34.0654L433.985 28.3818L433.493 28.2153L432.979 28.1359L432.062 34.0654ZM394.35 33.3696V27.3696H388.35V33.3696H394.35ZM394.35 67V73H400.35V67H394.35ZM385.861 67H379.861V73H385.861V67ZM385.861 33.3696H391.861V27.3696H385.861V33.3696ZM371.945 33.3696H365.945V39.3696H371.945V33.3696ZM371.945 24.8809V18.8809H365.945V24.8809H371.945ZM385.861 24.8809V30.8809H391.861V24.8809H385.861ZM385.861 6.43506H394.35V-5.56494H385.861V6.43506ZM388.35 0.435059V24.8809H400.35V0.435059H388.35ZM394.35 30.8809H411.699V18.8809H394.35V30.8809ZM411.699 30.8809C416.75 30.8809 421.424 29.5056 425.502 26.6571C429.522 23.8491 432.655 19.8287 435.067 14.9854L424.326 9.63471C422.564 13.172 420.609 15.437 418.63 16.8192C416.709 18.161 414.471 18.8809 411.699 18.8809V30.8809ZM435.168 14.7722C436.707 11.354 437.367 7.53824 437.367 3.49658H425.367C425.367 6.25831 424.914 8.31821 424.225 9.84787L435.168 14.7722ZM437.367 3.49658V0.435059H425.367V3.49658H437.367ZM431.367 6.43506H439.855V-5.56494H431.367V6.43506ZM433.855 0.435059V4.19238H445.855V0.435059H433.855ZM433.855 4.19238C433.855 10.732 431.634 16.2753 427.023 21.1123L435.71 29.3916C442.418 22.3537 445.855 13.8572 445.855 4.19238H433.855ZM430.452 31.1818C435.073 31.8947 439.233 33.8557 443.02 37.2113L450.978 28.2291C445.55 23.4207 439.288 20.4029 432.281 19.3221L430.452 31.1818ZM442.822 37.0276C447.813 41.8672 450.184 47.4548 450.184 54.1045H462.184C462.184 44.1169 458.431 35.4482 451.176 28.4128L442.822 37.0276ZM450.184 54.1045V67H462.184V54.1045H450.184ZM456.184 61H447.695V73H456.184V61ZM453.695 67V55.4497H441.695V67H453.695ZM453.695 55.4497C453.695 49.0912 452.137 43.3115 448.631 38.5147C445.133 33.7305 440.077 30.4424 433.985 28.3818L430.14 39.749C434.47 41.2138 437.23 43.2525 438.943 45.5964C440.647 47.9277 441.695 51.0774 441.695 55.4497H453.695ZM432.979 28.1359C429.69 27.6272 426.43 27.3696 423.203 27.3696V39.3696C425.789 39.3696 428.436 39.5759 431.146 39.995L432.979 28.1359ZM423.203 27.3696H394.35V39.3696H423.203V27.3696ZM388.35 33.3696V67H400.35V33.3696H388.35ZM394.35 61H385.861V73H394.35V61ZM391.861 67V33.3696H379.861V67H391.861ZM385.861 27.3696H371.945V39.3696H385.861V27.3696ZM377.945 33.3696V24.8809H365.945V33.3696H377.945ZM371.945 30.8809H385.861V18.8809H371.945V30.8809ZM391.861 24.8809V0.435059H379.861V24.8809H391.861ZM586.391 0.435059H592.391V-5.56494H586.391V0.435059ZM586.391 8.92383V14.9238H592.391V8.92383H586.391ZM512.358 20.4741L507.119 17.5496L507.059 17.6567L507.004 17.7663L512.358 20.4741ZM526.97 58.1865L525.33 63.9581L525.862 64.1092L526.412 64.1606L526.97 58.1865ZM586.391 58.5112H592.391V52.5112H586.391V58.5112ZM586.391 67V73H592.391V67H586.391ZM503.544 47.6567L497.885 49.6508L497.952 49.8396L498.031 50.0234L503.544 47.6567ZM520.522 2.15137L518.625 -3.54073L518.304 -3.4337L517.997 -3.29124L520.522 2.15137ZM529.011 6.43506H586.391V-5.56494H529.011V6.43506ZM580.391 0.435059V8.22803H592.391V0.435059H580.391ZM580.391 8.22803C580.391 8.22893 580.391 8.22984 580.391 8.23074C580.391 8.23165 580.391 8.23255 580.391 8.23345C580.391 8.23436 580.391 8.23526 580.391 8.23616C580.391 8.23706 580.391 8.23796 580.391 8.23886C580.391 8.23976 580.391 8.24065 580.391 8.24155C580.391 8.24245 580.391 8.24334 580.391 8.24424C580.391 8.24513 580.391 8.24603 580.391 8.24692C580.391 8.24782 580.391 8.24871 580.391 8.2496C580.391 8.25049 580.391 8.25138 580.391 8.25227C580.391 8.25316 580.391 8.25405 580.391 8.25494C580.391 8.25583 580.391 8.25672 580.391 8.2576C580.391 8.25849 580.391 8.25938 580.391 8.26026C580.391 8.26114 580.391 8.26203 580.391 8.26291C580.391 8.2638 580.391 8.26468 580.391 8.26556C580.391 8.26644 580.391 8.26732 580.391 8.2682C580.391 8.26908 580.391 8.26996 580.391 8.27084C580.391 8.27171 580.391 8.27259 580.391 8.27347C580.391 8.27434 580.391 8.27522 580.391 8.27609C580.391 8.27696 580.391 8.27784 580.391 8.27871C580.391 8.27958 580.391 8.28045 580.391 8.28132C580.391 8.2822 580.391 8.28307 580.391 8.28393C580.391 8.2848 580.391 8.28567 580.391 8.28654C580.391 8.28741 580.391 8.28827 580.391 8.28914C580.391 8.29 580.391 8.29087 580.391 8.29173C580.391 8.29259 580.391 8.29346 580.391 8.29432C580.391 8.29518 580.391 8.29604 580.391 8.2969C580.391 8.29776 580.391 8.29862 580.391 8.29948C580.391 8.30033 580.391 8.30119 580.391 8.30205C580.391 8.30291 580.391 8.30376 580.391 8.30462C580.391 8.30547 580.391 8.30632 580.391 8.30718C580.391 8.30803 580.391 8.30888 580.391 8.30973C580.391 8.31059 580.391 8.31144 580.391 8.31228C580.391 8.31313 580.391 8.31398 580.391 8.31483C580.391 8.31568 580.391 8.31652 580.391 8.31737C580.391 8.31822 580.391 8.31906 580.391 8.3199C580.391 8.32075 580.391 8.32159 580.391 8.32243C580.391 8.32328 580.391 8.32412 580.391 8.32496C580.391 8.3258 580.391 8.32664 580.391 8.32748C580.391 8.32832 580.391 8.32915 580.391 8.32999C580.391 8.33083 580.391 8.33167 580.391 8.3325C580.391 8.33333 580.391 8.33417 580.391 8.335C580.391 8.33584 580.391 8.33667 580.391 8.3375C580.391 8.33833 580.391 8.33916 580.391 8.33999C580.391 8.34082 580.391 8.34165 580.391 8.34248C580.391 8.34331 580.391 8.34414 580.391 8.34496C580.391 8.34579 580.391 8.34661 580.391 8.34744C580.391 8.34826 580.391 8.34909 580.391 8.34991C580.391 8.35073 580.391 8.35155 580.391 8.35238C580.391 8.3532 580.391 8.35402 580.391 8.35484C580.391 8.35565 580.391 8.35647 580.391 8.35729C580.391 8.35811 580.391 8.35892 580.391 8.35974C580.391 8.36056 580.391 8.36137 580.391 8.36218C580.391 8.363 580.391 8.36381 580.391 8.36462C580.391 8.36544 580.391 8.36625 580.391 8.36706C580.391 8.36787 580.391 8.36868 580.391 8.36949C580.391 8.37029 580.391 8.3711 580.391 8.37191C580.391 8.37272 580.391 8.37352 580.391 8.37433C580.391 8.37513 580.391 8.37594 580.391 8.37674C580.391 8.37754 580.391 8.37835 580.391 8.37915C580.391 8.37995 580.391 8.38075 580.391 8.38155C580.391 8.38235 580.391 8.38315 580.391 8.38395C580.391 8.38474 580.391 8.38554 580.391 8.38634C580.391 8.38713 580.391 8.38793 580.391 8.38873C580.391 8.38952 580.391 8.39031 580.391 8.39111C580.391 8.3919 580.391 8.39269 580.391 8.39348C580.391 8.39427 580.391 8.39506 580.391 8.39585C580.391 8.39664 580.391 8.39743 580.391 8.39822C580.391 8.399 580.391 8.39979 580.391 8.40058C580.391 8.40136 580.391 8.40215 580.391 8.40293C580.391 8.40372 580.391 8.4045 580.391 8.40528C580.391 8.40606 580.391 8.40684 580.391 8.40762C580.391 8.4084 580.391 8.40918 580.391 8.40996C580.391 8.41074 580.391 8.41152 580.391 8.41229C580.391 8.41307 580.391 8.41385 580.391 8.41462C580.391 8.4154 580.391 8.41617 580.391 8.41694C580.391 8.41772 580.391 8.41849 580.391 8.41926C580.391 8.42003 580.391 8.4208 580.391 8.42157C580.391 8.42234 580.391 8.42311 580.391 8.42388C580.391 8.42465 580.391 8.42542 580.391 8.42618C580.391 8.42695 580.391 8.42771 580.391 8.42848C580.391 8.42924 580.391 8.43001 580.391 8.43077C580.391 8.43153 580.391 8.43229 580.391 8.43305C580.391 8.43382 580.391 8.43457 580.391 8.43533C580.391 8.43609 580.391 8.43685 580.391 8.43761C580.391 8.43837 580.391 8.43912 580.391 8.43988C580.391 8.44063 580.391 8.44139 580.391 8.44214C580.391 8.4429 580.391 8.44365 580.391 8.4444C580.391 8.44515 580.391 8.4459 580.391 8.44665C580.391 8.4474 580.391 8.44815 580.391 8.4489C580.391 8.44965 580.391 8.4504 580.391 8.45115C580.391 8.45189 580.391 8.45264 580.391 8.45338C580.391 8.45413 580.391 8.45487 580.391 8.45561C580.391 8.45636 580.391 8.4571 580.391 8.45784C580.391 8.45858 580.391 8.45932 580.391 8.46006C580.391 8.4608 580.391 8.46154 580.391 8.46228C580.391 8.46302 580.391 8.46375 580.391 8.46449C580.391 8.46523 580.391 8.46596 580.391 8.4667C580.391 8.46743 580.391 8.46816 580.391 8.4689C580.391 8.46963 580.391 8.47036 580.391 8.47109C580.391 8.47182 580.391 8.47255 580.391 8.47328C580.391 8.47401 580.391 8.47474 580.391 8.47547C580.391 8.47619 580.391 8.47692 580.391 8.47765C580.391 8.47837 580.391 8.4791 580.391 8.47982C580.391 8.48054 580.391 8.48127 580.391 8.48199C580.391 8.48271 580.391 8.48343 580.391 8.48415C580.391 8.48487 580.391 8.48559 580.391 8.48631C580.391 8.48703 580.391 8.48775 580.391 8.48846C580.391 8.48918 580.391 8.48989 580.391 8.49061C580.391 8.49132 580.391 8.49204 580.391 8.49275C580.391 8.49346 580.391 8.49418 580.391 8.49489C580.391 8.4956 580.391 8.49631 580.391 8.49702C580.391 8.49773 580.391 8.49844 580.391 8.49915C580.391 8.49985 580.391 8.50056 580.391 8.50127C580.391 8.50197 580.391 8.50268 580.391 8.50338C580.391 8.50409 580.391 8.50479 580.391 8.50549C580.391 8.50619 580.391 8.5069 580.391 8.5076C580.391 8.5083 580.391 8.509 580.391 8.5097C580.391 8.5104 580.391 8.51109 580.391 8.51179C580.391 8.51249 580.391 8.51318 580.391 8.51388C580.391 8.51457 580.391 8.51527 580.391 8.51596C580.391 8.51666 580.391 8.51735 580.391 8.51804C580.391 8.51873 580.391 8.51942 580.391 8.52011C580.391 8.5208 580.391 8.52149 580.391 8.52218C580.391 8.52287 580.391 8.52356 580.391 8.52424C580.391 8.52493 580.391 8.52562 580.391 8.5263C580.391 8.52699 580.391 8.52767 580.391 8.52835C580.391 8.52904 580.391 8.52972 580.391 8.5304C580.391 8.53108 580.391 8.53176 580.391 8.53244C580.391 8.53312 580.391 8.5338 580.391 8.53448C580.391 8.53515 580.391 8.53583 580.391 8.53651C580.391 8.53718 580.391 8.53786 580.391 8.53853C580.391 8.53921 580.391 8.53988 580.391 8.54055C580.391 8.54122 580.391 8.54189 580.391 8.54257C580.391 8.54324 580.391 8.54391 580.391 8.54457C580.391 8.54524 580.391 8.54591 580.391 8.54658C580.391 8.54725 580.391 8.54791 580.391 8.54858C580.391 8.54924 580.391 8.54991 580.391 8.55057C580.391 8.55124 580.391 8.5519 580.391 8.55256C580.391 8.55322 580.391 8.55388 580.391 8.55454C580.391 8.5552 580.391 8.55586 580.391 8.55652C580.391 8.55718 580.391 8.55783 580.391 8.55849C580.391 8.55915 580.391 8.5598 580.391 8.56046C580.391 8.56111 580.391 8.56177 580.391 8.56242C580.391 8.56307 580.391 8.56372 580.391 8.56438C580.391 8.56503 580.391 8.56568 580.391 8.56633C580.391 8.56698 580.391 8.56763 580.391 8.56827C580.391 8.56892 580.391 8.56957 580.391 8.57021C580.391 8.57086 580.391 8.5715 580.391 8.57215C580.391 8.57279 580.391 8.57343 580.391 8.57408C580.391 8.57472 580.391 8.57536 580.391 8.576C580.391 8.57664 580.391 8.57728 580.391 8.57792C580.391 8.57856 580.391 8.5792 580.391 8.57983C580.391 8.58047 580.391 8.58111 580.391 8.58174C580.391 8.58238 580.391 8.58301 580.391 8.58365C580.391 8.58428 580.391 8.58491 580.391 8.58554C580.391 8.58618 580.391 8.58681 580.391 8.58744C580.391 8.58807 580.391 8.5887 580.391 8.58932C580.391 8.58995 580.391 8.59058 580.391 8.59121C580.391 8.59183 580.391 8.59246 580.391 8.59308C580.391 8.59371 580.391 8.59433 580.391 8.59495C580.391 8.59558 580.391 8.5962 580.391 8.59682C580.391 8.59744 580.391 8.59806 580.391 8.59868C580.391 8.5993 580.391 8.59992 580.391 8.60054C580.391 8.60115 580.391 8.60177 580.391 8.60238C580.391 8.603 580.391 8.60362 580.391 8.60423C580.391 8.60485 580.391 8.60546 580.391 8.60607C580.391 8.60668 580.391 8.60729 580.391 8.6079C580.391 8.60851 580.391 8.60912 580.391 8.60973C580.391 8.61034 580.391 8.61095 580.391 8.61156C580.391 8.61216 580.391 8.61277 580.391 8.61337C580.391 8.61398 580.391 8.61458 580.391 8.61519C580.391 8.61579 580.391 8.61639 580.391 8.61699C580.391 8.6176 580.391 8.6182 580.391 8.6188C580.391 8.6194 580.391 8.62 580.391 8.62059C580.391 8.62119 580.391 8.62179 580.391 8.62239C580.391 8.62298 580.391 8.62358 580.391 8.62417C580.391 8.62477 580.391 8.62536 580.391 8.62595C580.391 8.62654 580.391 8.62714 580.391 8.62773C580.391 8.62832 580.391 8.62891 580.391 8.6295C580.391 8.63009 580.391 8.63068 580.391 8.63126C580.391 8.63185 580.391 8.63244 580.391 8.63302C580.391 8.63361 580.391 8.63419 580.391 8.63478C580.391 8.63536 580.391 8.63594 580.391 8.63653C580.391 8.63711 580.391 8.63769 580.391 8.63827C580.391 8.63885 580.391 8.63943 580.391 8.64001C580.391 8.64059 580.391 8.64117 580.391 8.64174C580.391 8.64232 580.391 8.6429 580.391 8.64347C580.391 8.64405 580.391 8.64462 580.391 8.64519C580.391 8.64577 580.391 8.64634 580.391 8.64691C580.391 8.64748 580.391 8.64805 580.391 8.64862C580.391 8.64919 580.391 8.64976 580.391 8.65033C580.391 8.6509 580.391 8.65146 580.391 8.65203C580.391 8.6526 580.391 8.65316 580.391 8.65373C580.391 8.65429 580.391 8.65486 580.391 8.65542C580.391 8.65598 580.391 8.65654 580.391 8.6571C580.391 8.65766 580.391 8.65822 580.391 8.65878C580.391 8.65934 580.391 8.6599 580.391 8.66046C580.391 8.66102 580.391 8.66157 580.391 8.66213C580.391 8.66268 580.391 8.66324 580.391 8.66379C580.391 8.66435 580.391 8.6649 580.391 8.66545C580.391 8.666 580.391 8.66655 580.391 8.6671C580.391 8.66765 580.391 8.6682 580.391 8.66875C580.391 8.6693 580.391 8.66985 580.391 8.67039C580.391 8.67094 580.391 8.67149 580.391 8.67203C580.391 8.67258 580.391 8.67312 580.391 8.67367C580.391 8.67421 580.391 8.67475 580.391 8.67529C580.391 8.67583 580.391 8.67637 580.391 8.67691C580.391 8.67745 580.391 8.67799 580.391 8.67853C580.391 8.67907 580.391 8.67961 580.391 8.68014C580.391 8.68068 580.391 8.68121 580.391 8.68175C580.391 8.68228 580.391 8.68282 580.391 8.68335C580.391 8.68388 580.391 8.68441 580.391 8.68494C580.391 8.68547 580.391 8.686 580.391 8.68653C580.391 8.68706 580.391 8.68759 580.391 8.68812C580.391 8.68865 580.391 8.68917 580.391 8.6897C580.391 8.69022 580.391 8.69075 580.391 8.69127C580.391 8.6918 580.391 8.69232 580.391 8.69284C580.391 8.69336 580.391 8.69388 580.391 8.6944C580.391 8.69492 580.391 8.69544 580.391 8.69596C580.391 8.69648 580.391 8.697 580.391 8.69751C580.391 8.69803 580.391 8.69855 580.391 8.69906C580.391 8.69958 580.391 8.70009 580.391 8.7006C580.391 8.70112 580.391 8.70163 580.391 8.70214C580.391 8.70265 580.391 8.70316 580.391 8.70367C580.391 8.70418 580.391 8.70469 580.391 8.7052C580.391 8.70571 580.391 8.70621 580.391 8.70672C580.391 8.70723 580.391 8.70773 580.391 8.70823C580.391 8.70874 580.391 8.70924 580.391 8.70975C580.391 8.71025 580.391 8.71075 580.391 8.71125C580.391 8.71175 580.391 8.71225 580.391 8.71275C580.391 8.71325 580.391 8.71375 580.391 8.71424C580.391 8.71474 580.391 8.71524 580.391 8.71573C580.391 8.71623 580.391 8.71672 580.391 8.71722C580.391 8.71771 580.391 8.7182 580.391 8.71869C580.391 8.71919 580.391 8.71968 580.391 8.72017C580.391 8.72066 580.391 8.72115 580.391 8.72164C580.391 8.72212 580.391 8.72261 580.391 8.7231C580.391 8.72359 580.391 8.72407 580.391 8.72456C580.391 8.72504 580.391 8.72552 580.391 8.72601C580.391 8.72649 580.391 8.72697 580.391 8.72746C580.391 8.72794 580.391 8.72842 580.391 8.7289C580.391 8.72938 580.391 8.72985 580.391 8.73033C580.391 8.73081 580.391 8.73129 580.391 8.73176C580.391 8.73224 580.391 8.73271 580.391 8.73319C580.391 8.73366 580.391 8.73413 580.391 8.73461C580.391 8.73508 580.391 8.73555 580.391 8.73602C580.391 8.73649 580.391 8.73696 580.391 8.73743C580.391 8.7379 580.391 8.73837 580.391 8.73884C580.391 8.7393 580.391 8.73977 580.391 8.74023C580.391 8.7407 580.391 8.74117 580.391 8.74163C580.391 8.74209 580.391 8.74256 580.391 8.74302C580.391 8.74348 580.391 8.74394 580.391 8.7444C580.391 8.74486 580.391 8.74532 580.391 8.74578C580.391 8.74623 580.391 8.74669 580.391 8.74715C580.391 8.74761 580.391 8.74806 580.391 8.74852C580.391 8.74897 580.391 8.74942 580.391 8.74988C580.391 8.75033 580.391 8.75078 580.391 8.75123C580.391 8.75169 580.391 8.75214 580.391 8.75258C580.391 8.75303 580.391 8.75348 580.391 8.75393C580.391 8.75438 580.391 8.75483 580.391 8.75527C580.391 8.75572 580.391 8.75616 580.391 8.75661C580.391 8.75705 580.391 8.75749 580.391 8.75794C580.391 8.75838 580.391 8.75882 580.391 8.75926C580.391 8.7597 580.391 8.76014 580.391 8.76058C580.391 8.76102 580.391 8.76146 580.391 8.76189C580.391 8.76233 580.391 8.76277 580.391 8.7632C580.391 8.76364 580.391 8.76407 580.391 8.76451C580.391 8.76494 580.391 8.76537 580.391 8.7658C580.391 8.76624 580.391 8.76667 580.391 8.7671C580.391 8.76753 580.391 8.76796 580.391 8.76838C580.391 8.76881 580.391 8.76924 580.391 8.76966C580.391 8.77009 580.391 8.77052 580.391 8.77094C580.391 8.77137 580.391 8.77179 580.391 8.77221C580.391 8.77264 580.391 8.77306 580.391 8.77348C580.391 8.7739 580.391 8.77432 580.391 8.77474C580.391 8.77516 580.391 8.77558 580.391 8.776C580.391 8.77641 580.391 8.77683 580.391 8.77725C580.391 8.77766 580.391 8.77808 580.391 8.77849C580.391 8.77891 580.391 8.77932 580.391 8.77973C580.391 8.78014 580.391 8.78055 580.391 8.78096C580.391 8.78138 580.391 8.78178 580.391 8.78219C580.391 8.7826 580.391 8.78301 580.391 8.78342C580.391 8.78382 580.391 8.78423 580.391 8.78464C580.391 8.78504 580.391 8.78544 580.391 8.78585C580.391 8.78625 580.391 8.78666 580.391 8.78706C580.391 8.78746 580.391 8.78786 580.391 8.78826C580.391 8.78866 580.391 8.78906 580.391 8.78946C580.391 8.78985 580.391 8.79025 580.391 8.79065C580.391 8.79104 580.391 8.79144 580.391 8.79183C580.391 8.79223 580.391 8.79262 580.391 8.79301C580.391 8.79341 580.391 8.7938 580.391 8.79419C580.391 8.79458 580.391 8.79497 580.391 8.79536C580.391 8.79575 580.391 8.79614 580.391 8.79653C580.391 8.79692 580.391 8.7973 580.391 8.79769C580.391 8.79807 580.391 8.79846 580.391 8.79884C580.391 8.79922 580.391 8.79961 580.391 8.79999C580.391 8.80037 580.391 8.80075 580.391 8.80113C580.391 8.80152 580.391 8.8019 580.391 8.80227C580.391 8.80265 580.391 8.80303 580.391 8.80341C580.391 8.80378 580.391 8.80416 580.391 8.80453C580.391 8.80491 580.391 8.80528 580.391 8.80566C580.391 8.80603 580.391 8.8064 580.391 8.80677C580.391 8.80715 580.391 8.80752 580.391 8.80789C580.391 8.80826 580.391 8.80863 580.391 8.80899C580.391 8.80936 580.391 8.80973 580.391 8.81009C580.391 8.81046 580.391 8.81083 580.391 8.81119C580.391 8.81156 580.391 8.81192 580.391 8.81228C580.391 8.81264 580.391 8.81301 580.391 8.81337C580.391 8.81373 580.391 8.81409 580.391 8.81445C580.391 8.81481 580.391 8.81517 580.391 8.81552C580.391 8.81588 580.391 8.81624 580.391 8.81659C580.391 8.81695 580.391 8.8173 580.391 8.81766C580.391 8.81801 580.391 8.81837 580.391 8.81872C580.391 8.81907 580.391 8.81942 580.391 8.81977C580.391 8.82012 580.391 8.82047 580.391 8.82082C580.391 8.82117 580.391 8.82151 580.391 8.82186C580.391 8.82221 580.391 8.82255 580.391 8.8229C580.391 8.82324 580.391 8.82359 580.391 8.82393C580.391 8.82428 580.391 8.82462 580.391 8.82496C580.391 8.8253 580.391 8.82564 580.391 8.82598C580.391 8.82632 580.391 8.82666 580.391 8.827C580.391 8.82734 580.391 8.82767 580.391 8.82801C580.391 8.82834 580.391 8.82868 580.391 8.82902C580.391 8.82935 580.391 8.82968 580.391 8.83002C580.391 8.83035 580.391 8.83068 580.391 8.83101C580.391 8.83134 580.391 8.83167 580.391 8.832C580.391 8.83233 580.391 8.83266 580.391 8.83298C580.391 8.83331 580.391 8.83364 580.391 8.83397C580.391 8.83429 580.391 8.83462 580.391 8.83494C580.391 8.83526 580.391 8.83559 580.391 8.83591C580.391 8.83623 580.391 8.83655 580.391 8.83687C580.391 8.83719 580.391 8.83751 580.391 8.83783C580.391 8.83815 580.391 8.83847 580.391 8.83878C580.391 8.8391 580.391 8.83941 580.391 8.83973C580.391 8.84005 580.391 8.84036 580.391 8.84067C580.391 8.84099 580.391 8.8413 580.391 8.84161C580.391 8.84192 580.391 8.84223 580.391 8.84254C580.391 8.84285 580.391 8.84316 580.391 8.84347C580.391 8.84377 580.391 8.84408 580.391 8.84439C580.391 8.84469 580.391 8.845 580.391 8.8453C580.391 8.84561 580.391 8.84591 580.391 8.84621C580.391 8.84652 580.391 8.84682 580.391 8.84712C580.391 8.84742 580.391 8.84772 580.391 8.84802C580.391 8.84832 580.391 8.84862 580.391 8.84891C580.391 8.84921 580.391 8.84951 580.391 8.8498C580.391 8.8501 580.391 8.85039 580.391 8.85069C580.391 8.85098 580.391 8.85127 580.391 8.85157C580.391 8.85186 580.391 8.85215 580.391 8.85244C580.391 8.85273 580.391 8.85302 580.391 8.85331C580.391 8.8536 580.391 8.85388 580.391 8.85417C580.391 8.85446 580.391 8.85474 580.391 8.85503C580.391 8.85531 580.391 8.8556 580.391 8.85588C580.391 8.85616 580.391 8.85644 580.391 8.85673C580.391 8.85701 580.391 8.85729 580.391 8.85757C580.391 8.85785 580.391 8.85813 580.391 8.8584C580.391 8.85868 580.391 8.85896 580.391 8.85923C580.391 8.85951 580.391 8.85979 580.391 8.86006C580.391 8.86033 580.391 8.86061 580.391 8.86088C580.391 8.86115 580.391 8.86142 580.391 8.86169C580.391 8.86197 580.391 8.86223 580.391 8.8625C580.391 8.86277 580.391 8.86304 580.391 8.86331C580.391 8.86357 580.391 8.86384 580.391 8.86411C580.391 8.86437 580.391 8.86464 580.391 8.8649C580.391 8.86516 580.391 8.86543 580.391 8.86569C580.391 8.86595 580.391 8.86621 580.391 8.86647C580.391 8.86673 580.391 8.86699 580.391 8.86725C580.391 8.86751 580.391 8.86777 580.391 8.86802C580.391 8.86828 580.391 8.86853 580.391 8.86879C580.391 8.86904 580.391 8.8693 580.391 8.86955C580.391 8.8698 580.391 8.87006 580.391 8.87031C580.391 8.87056 580.391 8.87081 580.391 8.87106C580.391 8.87131 580.391 8.87156 580.391 8.87181C580.391 8.87205 580.391 8.8723 580.391 8.87255C580.391 8.87279 580.391 8.87304 580.391 8.87328C580.391 8.87352 580.391 8.87377 580.391 8.87401C580.391 8.87425 580.391 8.87449 580.391 8.87473C580.391 8.87498 580.391 8.87522 580.391 8.87545C580.391 8.87569 580.391 8.87593 580.391 8.87617C580.391 8.87641 580.391 8.87664 580.391 8.87688C580.391 8.87711 580.391 8.87735 580.391 8.87758C580.391 8.87781 580.391 8.87805 580.391 8.87828C580.391 8.87851 580.391 8.87874 580.391 8.87897C580.391 8.8792 580.391 8.87943 580.391 8.87966C580.391 8.87989 580.391 8.88011 580.391 8.88034C580.391 8.88057 580.391 8.88079 580.391 8.88102C580.391 8.88124 580.391 8.88147 580.391 8.88169C580.391 8.88191 580.391 8.88213 580.391 8.88235C580.391 8.88258 580.391 8.8828 580.391 8.88302C580.391 8.88324 580.391 8.88345 580.391 8.88367C580.391 8.88389 580.391 8.88411 580.391 8.88432C580.391 8.88454 580.391 8.88475 580.391 8.88497C580.391 8.88518 580.391 8.8854 580.391 8.88561C580.391 8.88582 580.391 8.88603 580.391 8.88624C580.391 8.88645 580.391 8.88666 580.391 8.88687C580.391 8.88708 580.391 8.88729 580.391 8.88749C580.391 8.8877 580.391 8.88791 580.391 8.88811C580.391 8.88832 580.391 8.88852 580.391 8.88873C580.391 8.88893 580.391 8.88913 580.391 8.88933C580.391 8.88954 580.391 8.88974 580.391 8.88994C580.391 8.89013 580.391 8.89034 580.391 8.89053C580.391 8.89073 580.391 8.89093 580.391 8.89112C580.391 8.89132 580.391 8.89152 580.391 8.89171C580.391 8.89191 580.391 8.8921 580.391 8.89229C580.391 8.89249 580.391 8.89268 580.391 8.89287C580.391 8.89306 580.391 8.89325 580.391 8.89344C580.391 8.89363 580.391 8.89382 580.391 8.894C580.391 8.89419 580.391 8.89438 580.391 8.89457C580.391 8.89475 580.391 8.89494 580.391 8.89512C580.391 8.8953 580.391 8.89549 580.391 8.89567C580.391 8.89585 580.391 8.89603 580.391 8.89621C580.391 8.89639 580.391 8.89657 580.391 8.89675C580.391 8.89693 580.391 8.89711 580.391 8.89729C580.391 8.89746 580.391 8.89764 580.391 8.89781C580.391 8.89799 580.391 8.89816 580.391 8.89834C580.391 8.89851 580.391 8.89868 580.391 8.89885C580.391 8.89902 580.391 8.8992 580.391 8.89937C580.391 8.89954 580.391 8.89971 580.391 8.89987C580.391 8.90004 580.391 8.90021 580.391 8.90038C580.391 8.90054 580.391 8.90071 580.391 8.90087C580.391 8.90104 580.391 8.9012 580.391 8.90136C580.391 8.90153 580.391 8.90169 580.391 8.90185C580.391 8.90201 580.391 8.90217 580.391 8.90233C580.391 8.90249 580.391 8.90265 580.391 8.9028C580.391 8.90296 580.391 8.90312 580.391 8.90327C580.391 8.90343 580.391 8.90358 580.391 8.90374C580.391 8.90389 580.391 8.90405 580.391 8.9042C580.391 8.90435 580.391 8.9045 580.391 8.90465C580.391 8.9048 580.391 8.90495 580.391 8.9051C580.391 8.90525 580.391 8.9054 580.391 8.90554C580.391 8.90569 580.391 8.90584 580.391 8.90598C580.391 8.90613 580.391 8.90627 580.391 8.90641C580.391 8.90656 580.391 8.9067 580.391 8.90684C580.391 8.90698 580.391 8.90712 580.391 8.90726C580.391 8.9074 580.391 8.90754 580.391 8.90768C580.391 8.90782 580.391 8.90796 580.391 8.90809C580.391 8.90823 580.391 8.90836 580.391 8.9085C580.391 8.90863 580.391 8.90877 580.391 8.9089C580.391 8.90903 580.391 8.90916 580.391 8.90929C580.391 8.90942 580.391 8.90955 580.391 8.90968C580.391 8.90981 580.391 8.90994 580.391 8.91007C580.391 8.9102 580.391 8.91032 580.391 8.91045C580.391 8.91057 580.391 8.9107 580.391 8.91082C580.391 8.91095 580.391 8.91107 580.391 8.91119C580.391 8.91131 580.391 8.91143 580.391 8.91155C580.391 8.91167 580.391 8.91179 580.391 8.91191C580.391 8.91203 580.391 8.91215 580.391 8.91227C580.391 8.91238 580.391 8.9125 580.391 8.91261C580.391 8.91273 580.391 8.91284 580.391 8.91296C580.391 8.91307 580.391 8.91318 580.391 8.91329C580.391 8.9134 580.391 8.91352 580.391 8.91363C580.391 8.91373 580.391 8.91384 580.391 8.91395C580.391 8.91406 580.391 8.91417 580.391 8.91427C580.391 8.91438 580.391 8.91448 580.391 8.91459C580.391 8.91469 580.391 8.9148 580.391 8.9149C580.391 8.915 580.391 8.9151 580.391 8.91521C580.391 8.91531 580.391 8.91541 580.391 8.9155C580.391 8.9156 580.391 8.9157 580.391 8.9158C580.391 8.9159 580.391 8.91599 580.391 8.91609C580.391 8.91618 580.391 8.91628 580.391 8.91637C580.391 8.91647 580.391 8.91656 580.391 8.91665C580.391 8.91674 580.391 8.91683 580.391 8.91692C580.391 8.91702 580.391 8.9171 580.391 8.91719C580.391 8.91728 580.391 8.91737 580.391 8.91746C580.391 8.91754 580.391 8.91763 580.391 8.91771C580.391 8.9178 580.391 8.91788 580.391 8.91796C580.391 8.91805 580.391 8.91813 580.391 8.91821C580.391 8.91829 580.391 8.91837 580.391 8.91845C580.391 8.91853 580.391 8.91861 580.391 8.91869C580.391 8.91877 580.391 8.91884 580.391 8.91892C580.391 8.919 580.391 8.91907 580.391 8.91915C580.391 8.91922 580.391 8.91929 580.391 8.91937C580.391 8.91944 580.391 8.91951 580.391 8.91958C580.391 8.91965 580.391 8.91972 580.391 8.91979C580.391 8.91986 580.391 8.91993 580.391 8.92C580.391 8.92006 580.391 8.92013 580.391 8.92019C580.391 8.92026 580.391 8.92032 580.391 8.92039C580.391 8.92045 580.391 8.92052 580.391 8.92058C580.391 8.92064 580.391 8.9207 580.391 8.92076C580.391 8.92082 580.391 8.92088 580.391 8.92094C580.391 8.921 580.391 8.92105 580.391 8.92111C580.391 8.92117 580.391 8.92122 580.391 8.92128C580.391 8.92133 580.391 8.92139 580.391 8.92144C580.391 8.92149 580.391 8.92155 580.391 8.9216C580.391 8.92165 580.391 8.9217 580.391 8.92175C580.391 8.9218 580.391 8.92184 580.391 8.92189C580.391 8.92194 580.391 8.92199 580.391 8.92203C580.391 8.92208 580.391 8.92212 580.391 8.92217C580.391 8.92221 580.391 8.92226 580.391 8.9223C580.391 8.92234 580.391 8.92238 580.391 8.92242C580.391 8.92246 580.391 8.9225 580.391 8.92254C580.391 8.92258 580.391 8.92262 580.391 8.92266C580.391 8.9227 580.391 8.92273 580.391 8.92277C580.391 8.9228 580.391 8.92284 580.391 8.92287C580.391 8.9229 580.391 8.92294 580.391 8.92297C580.391 8.923 580.391 8.92303 580.391 8.92306C580.391 8.92309 580.391 8.92312 580.391 8.92315C580.391 8.92318 580.391 8.9232 580.391 8.92323C580.391 8.92326 580.391 8.92328 580.391 8.92331C580.391 8.92333 580.391 8.92336 580.391 8.92338C580.391 8.9234 580.391 8.92342 580.391 8.92345C580.391 8.92347 580.391 8.92349 580.391 8.92351C580.391 8.92353 580.391 8.92355 580.391 8.92356C580.391 8.92358 580.391 8.9236 580.391 8.92361C580.391 8.92363 580.391 8.92365 580.391 8.92366C580.391 8.92367 580.391 8.92369 580.391 8.9237C580.391 8.92371 580.391 8.92372 580.391 8.92373C580.391 8.92374 580.391 8.92375 580.391 8.92376C580.391 8.92377 580.391 8.92378 580.391 8.92379C580.391 8.92379 580.391 8.9238 580.391 8.9238C580.391 8.92381 580.391 8.92381 580.391 8.92382C580.391 8.92382 580.391 8.92382 580.391 8.92383C580.391 8.92383 580.391 8.92383 586.391 8.92383C592.391 8.92383 592.391 8.92383 592.391 8.92383C592.391 8.92382 592.391 8.92382 592.391 8.92382C592.391 8.92381 592.391 8.92381 592.391 8.9238C592.391 8.9238 592.391 8.92379 592.391 8.92379C592.391 8.92378 592.391 8.92377 592.391 8.92376C592.391 8.92375 592.391 8.92374 592.391 8.92373C592.391 8.92372 592.391 8.92371 592.391 8.9237C592.391 8.92369 592.391 8.92367 592.391 8.92366C592.391 8.92365 592.391 8.92363 592.391 8.92361C592.391 8.9236 592.391 8.92358 592.391 8.92356C592.391 8.92355 592.391 8.92353 592.391 8.92351C592.391 8.92349 592.391 8.92347 592.391 8.92345C592.391 8.92342 592.391 8.9234 592.391 8.92338C592.391 8.92336 592.391 8.92333 592.391 8.92331C592.391 8.92328 592.391 8.92326 592.391 8.92323C592.391 8.9232 592.391 8.92318 592.391 8.92315C592.391 8.92312 592.391 8.92309 592.391 8.92306C592.391 8.92303 592.391 8.923 592.391 8.92297C592.391 8.92294 592.391 8.9229 592.391 8.92287C592.391 8.92284 592.391 8.9228 592.391 8.92277C592.391 8.92273 592.391 8.9227 592.391 8.92266C592.391 8.92262 592.391 8.92258 592.391 8.92254C592.391 8.9225 592.391 8.92246 592.391 8.92242C592.391 8.92238 592.391 8.92234 592.391 8.9223C592.391 8.92226 592.391 8.92221 592.391 8.92217C592.391 8.92212 592.391 8.92208 592.391 8.92203C592.391 8.92199 592.391 8.92194 592.391 8.92189C592.391 8.92184 592.391 8.9218 592.391 8.92175C592.391 8.9217 592.391 8.92165 592.391 8.9216C592.391 8.92155 592.391 8.92149 592.391 8.92144C592.391 8.92139 592.391 8.92133 592.391 8.92128C592.391 8.92122 592.391 8.92117 592.391 8.92111C592.391 8.92105 592.391 8.921 592.391 8.92094C592.391 8.92088 592.391 8.92082 592.391 8.92076C592.391 8.9207 592.391 8.92064 592.391 8.92058C592.391 8.92052 592.391 8.92045 592.391 8.92039C592.391 8.92032 592.391 8.92026 592.391 8.92019C592.391 8.92013 592.391 8.92006 592.391 8.92C592.391 8.91993 592.391 8.91986 592.391 8.91979C592.391 8.91972 592.391 8.91965 592.391 8.91958C592.391 8.91951 592.391 8.91944 592.391 8.91937C592.391 8.91929 592.391 8.91922 592.391 8.91915C592.391 8.91907 592.391 8.919 592.391 8.91892C592.391 8.91884 592.391 8.91877 592.391 8.91869C592.391 8.91861 592.391 8.91853 592.391 8.91845C592.391 8.91837 592.391 8.91829 592.391 8.91821C592.391 8.91813 592.391 8.91805 592.391 8.91796C592.391 8.91788 592.391 8.9178 592.391 8.91771C592.391 8.91763 592.391 8.91754 592.391 8.91746C592.391 8.91737 592.391 8.91728 592.391 8.91719C592.391 8.9171 592.391 8.91702 592.391 8.91692C592.391 8.91683 592.391 8.91674 592.391 8.91665C592.391 8.91656 592.391 8.91647 592.391 8.91637C592.391 8.91628 592.391 8.91618 592.391 8.91609C592.391 8.91599 592.391 8.9159 592.391 8.9158C592.391 8.9157 592.391 8.9156 592.391 8.9155C592.391 8.91541 592.391 8.91531 592.391 8.91521C592.391 8.9151 592.391 8.915 592.391 8.9149C592.391 8.9148 592.391 8.91469 592.391 8.91459C592.391 8.91448 592.391 8.91438 592.391 8.91427C592.391 8.91417 592.391 8.91406 592.391 8.91395C592.391 8.91384 592.391 8.91373 592.391 8.91363C592.391 8.91352 592.391 8.9134 592.391 8.91329C592.391 8.91318 592.391 8.91307 592.391 8.91296C592.391 8.91284 592.391 8.91273 592.391 8.91261C592.391 8.9125 592.391 8.91238 592.391 8.91227C592.391 8.91215 592.391 8.91203 592.391 8.91191C592.391 8.91179 592.391 8.91167 592.391 8.91155C592.391 8.91143 592.391 8.91131 592.391 8.91119C592.391 8.91107 592.391 8.91095 592.391 8.91082C592.391 8.9107 592.391 8.91057 592.391 8.91045C592.391 8.91032 592.391 8.9102 592.391 8.91007C592.391 8.90994 592.391 8.90981 592.391 8.90968C592.391 8.90955 592.391 8.90942 592.391 8.90929C592.391 8.90916 592.391 8.90903 592.391 8.9089C592.391 8.90877 592.391 8.90863 592.391 8.9085C592.391 8.90836 592.391 8.90823 592.391 8.90809C592.391 8.90796 592.391 8.90782 592.391 8.90768C592.391 8.90754 592.391 8.9074 592.391 8.90726C592.391 8.90712 592.391 8.90698 592.391 8.90684C592.391 8.9067 592.391 8.90656 592.391 8.90641C592.391 8.90627 592.391 8.90613 592.391 8.90598C592.391 8.90584 592.391 8.90569 592.391 8.90554C592.391 8.9054 592.391 8.90525 592.391 8.9051C592.391 8.90495 592.391 8.9048 592.391 8.90465C592.391 8.9045 592.391 8.90435 592.391 8.9042C592.391 8.90405 592.391 8.90389 592.391 8.90374C592.391 8.90358 592.391 8.90343 592.391 8.90327C592.391 8.90312 592.391 8.90296 592.391 8.9028C592.391 8.90265 592.391 8.90249 592.391 8.90233C592.391 8.90217 592.391 8.90201 592.391 8.90185C592.391 8.90169 592.391 8.90153 592.391 8.90136C592.391 8.9012 592.391 8.90104 592.391 8.90087C592.391 8.90071 592.391 8.90054 592.391 8.90038C592.391 8.90021 592.391 8.90004 592.391 8.89987C592.391 8.89971 592.391 8.89954 592.391 8.89937C592.391 8.8992 592.391 8.89902 592.391 8.89885C592.391 8.89868 592.391 8.89851 592.391 8.89834C592.391 8.89816 592.391 8.89799 592.391 8.89781C592.391 8.89764 592.391 8.89746 592.391 8.89729C592.391 8.89711 592.391 8.89693 592.391 8.89675C592.391 8.89657 592.391 8.89639 592.391 8.89621C592.391 8.89603 592.391 8.89585 592.391 8.89567C592.391 8.89549 592.391 8.8953 592.391 8.89512C592.391 8.89494 592.391 8.89475 592.391 8.89457C592.391 8.89438 592.391 8.89419 592.391 8.894C592.391 8.89382 592.391 8.89363 592.391 8.89344C592.391 8.89325 592.391 8.89306 592.391 8.89287C592.391 8.89268 592.391 8.89249 592.391 8.89229C592.391 8.8921 592.391 8.89191 592.391 8.89171C592.391 8.89152 592.391 8.89132 592.391 8.89112C592.391 8.89093 592.391 8.89073 592.391 8.89053C592.391 8.89034 592.391 8.89013 592.391 8.88994C592.391 8.88974 592.391 8.88954 592.391 8.88933C592.391 8.88913 592.391 8.88893 592.391 8.88873C592.391 8.88852 592.391 8.88832 592.391 8.88811C592.391 8.88791 592.391 8.8877 592.391 8.88749C592.391 8.88729 592.391 8.88708 592.391 8.88687C592.391 8.88666 592.391 8.88645 592.391 8.88624C592.391 8.88603 592.391 8.88582 592.391 8.88561C592.391 8.8854 592.391 8.88518 592.391 8.88497C592.391 8.88475 592.391 8.88454 592.391 8.88432C592.391 8.88411 592.391 8.88389 592.391 8.88367C592.391 8.88345 592.391 8.88324 592.391 8.88302C592.391 8.8828 592.391 8.88258 592.391 8.88235C592.391 8.88213 592.391 8.88191 592.391 8.88169C592.391 8.88147 592.391 8.88124 592.391 8.88102C592.391 8.88079 592.391 8.88057 592.391 8.88034C592.391 8.88011 592.391 8.87989 592.391 8.87966C592.391 8.87943 592.391 8.8792 592.391 8.87897C592.391 8.87874 592.391 8.87851 592.391 8.87828C592.391 8.87805 592.391 8.87781 592.391 8.87758C592.391 8.87735 592.391 8.87711 592.391 8.87688C592.391 8.87664 592.391 8.87641 592.391 8.87617C592.391 8.87593 592.391 8.87569 592.391 8.87545C592.391 8.87522 592.391 8.87498 592.391 8.87473C592.391 8.87449 592.391 8.87425 592.391 8.87401C592.391 8.87377 592.391 8.87352 592.391 8.87328C592.391 8.87304 592.391 8.87279 592.391 8.87255C592.391 8.8723 592.391 8.87205 592.391 8.87181C592.391 8.87156 592.391 8.87131 592.391 8.87106C592.391 8.87081 592.391 8.87056 592.391 8.87031C592.391 8.87006 592.391 8.8698 592.391 8.86955C592.391 8.8693 592.391 8.86904 592.391 8.86879C592.391 8.86853 592.391 8.86828 592.391 8.86802C592.391 8.86777 592.391 8.86751 592.391 8.86725C592.391 8.86699 592.391 8.86673 592.391 8.86647C592.391 8.86621 592.391 8.86595 592.391 8.86569C592.391 8.86543 592.391 8.86516 592.391 8.8649C592.391 8.86464 592.391 8.86437 592.391 8.86411C592.391 8.86384 592.391 8.86357 592.391 8.86331C592.391 8.86304 592.391 8.86277 592.391 8.8625C592.391 8.86223 592.391 8.86197 592.391 8.86169C592.391 8.86142 592.391 8.86115 592.391 8.86088C592.391 8.86061 592.391 8.86033 592.391 8.86006C592.391 8.85979 592.391 8.85951 592.391 8.85923C592.391 8.85896 592.391 8.85868 592.391 8.8584C592.391 8.85813 592.391 8.85785 592.391 8.85757C592.391 8.85729 592.391 8.85701 592.391 8.85673C592.391 8.85644 592.391 8.85616 592.391 8.85588C592.391 8.8556 592.391 8.85531 592.391 8.85503C592.391 8.85474 592.391 8.85446 592.391 8.85417C592.391 8.85388 592.391 8.8536 592.391 8.85331C592.391 8.85302 592.391 8.85273 592.391 8.85244C592.391 8.85215 592.391 8.85186 592.391 8.85157C592.391 8.85127 592.391 8.85098 592.391 8.85069C592.391 8.85039 592.391 8.8501 592.391 8.8498C592.391 8.84951 592.391 8.84921 592.391 8.84891C592.391 8.84862 592.391 8.84832 592.391 8.84802C592.391 8.84772 592.391 8.84742 592.391 8.84712C592.391 8.84682 592.391 8.84652 592.391 8.84621C592.391 8.84591 592.391 8.84561 592.391 8.8453C592.391 8.845 592.391 8.84469 592.391 8.84439C592.391 8.84408 592.391 8.84377 592.391 8.84347C592.391 8.84316 592.391 8.84285 592.391 8.84254C592.391 8.84223 592.391 8.84192 592.391 8.84161C592.391 8.8413 592.391 8.84099 592.391 8.84067C592.391 8.84036 592.391 8.84005 592.391 8.83973C592.391 8.83941 592.391 8.8391 592.391 8.83878C592.391 8.83847 592.391 8.83815 592.391 8.83783C592.391 8.83751 592.391 8.83719 592.391 8.83687C592.391 8.83655 592.391 8.83623 592.391 8.83591C592.391 8.83559 592.391 8.83526 592.391 8.83494C592.391 8.83462 592.391 8.83429 592.391 8.83397C592.391 8.83364 592.391 8.83331 592.391 8.83298C592.391 8.83266 592.391 8.83233 592.391 8.832C592.391 8.83167 592.391 8.83134 592.391 8.83101C592.391 8.83068 592.391 8.83035 592.391 8.83002C592.391 8.82968 592.391 8.82935 592.391 8.82902C592.391 8.82868 592.391 8.82834 592.391 8.82801C592.391 8.82767 592.391 8.82734 592.391 8.827C592.391 8.82666 592.391 8.82632 592.391 8.82598C592.391 8.82564 592.391 8.8253 592.391 8.82496C592.391 8.82462 592.391 8.82428 592.391 8.82393C592.391 8.82359 592.391 8.82324 592.391 8.8229C592.391 8.82255 592.391 8.82221 592.391 8.82186C592.391 8.82151 592.391 8.82117 592.391 8.82082C592.391 8.82047 592.391 8.82012 592.391 8.81977C592.391 8.81942 592.391 8.81907 592.391 8.81872C592.391 8.81837 592.391 8.81801 592.391 8.81766C592.391 8.8173 592.391 8.81695 592.391 8.81659C592.391 8.81624 592.391 8.81588 592.391 8.81552C592.391 8.81517 592.391 8.81481 592.391 8.81445C592.391 8.81409 592.391 8.81373 592.391 8.81337C592.391 8.81301 592.391 8.81264 592.391 8.81228C592.391 8.81192 592.391 8.81156 592.391 8.81119C592.391 8.81083 592.391 8.81046 592.391 8.81009C592.391 8.80973 592.391 8.80936 592.391 8.80899C592.391 8.80863 592.391 8.80826 592.391 8.80789C592.391 8.80752 592.391 8.80715 592.391 8.80677C592.391 8.8064 592.391 8.80603 592.391 8.80566C592.391 8.80528 592.391 8.80491 592.391 8.80453C592.391 8.80416 592.391 8.80378 592.391 8.80341C592.391 8.80303 592.391 8.80265 592.391 8.80227C592.391 8.8019 592.391 8.80152 592.391 8.80113C592.391 8.80075 592.391 8.80037 592.391 8.79999C592.391 8.79961 592.391 8.79922 592.391 8.79884C592.391 8.79846 592.391 8.79807 592.391 8.79769C592.391 8.7973 592.391 8.79692 592.391 8.79653C592.391 8.79614 592.391 8.79575 592.391 8.79536C592.391 8.79497 592.391 8.79458 592.391 8.79419C592.391 8.7938 592.391 8.79341 592.391 8.79301C592.391 8.79262 592.391 8.79223 592.391 8.79183C592.391 8.79144 592.391 8.79104 592.391 8.79065C592.391 8.79025 592.391 8.78985 592.391 8.78946C592.391 8.78906 592.391 8.78866 592.391 8.78826C592.391 8.78786 592.391 8.78746 592.391 8.78706C592.391 8.78666 592.391 8.78625 592.391 8.78585C592.391 8.78544 592.391 8.78504 592.391 8.78464C592.391 8.78423 592.391 8.78382 592.391 8.78342C592.391 8.78301 592.391 8.7826 592.391 8.78219C592.391 8.78178 592.391 8.78138 592.391 8.78096C592.391 8.78055 592.391 8.78014 592.391 8.77973C592.391 8.77932 592.391 8.77891 592.391 8.77849C592.391 8.77808 592.391 8.77766 592.391 8.77725C592.391 8.77683 592.391 8.77641 592.391 8.776C592.391 8.77558 592.391 8.77516 592.391 8.77474C592.391 8.77432 592.391 8.7739 592.391 8.77348C592.391 8.77306 592.391 8.77264 592.391 8.77221C592.391 8.77179 592.391 8.77137 592.391 8.77094C592.391 8.77052 592.391 8.77009 592.391 8.76966C592.391 8.76924 592.391 8.76881 592.391 8.76838C592.391 8.76796 592.391 8.76753 592.391 8.7671C592.391 8.76667 592.391 8.76624 592.391 8.7658C592.391 8.76537 592.391 8.76494 592.391 8.76451C592.391 8.76407 592.391 8.76364 592.391 8.7632C592.391 8.76277 592.391 8.76233 592.391 8.76189C592.391 8.76146 592.391 8.76102 592.391 8.76058C592.391 8.76014 592.391 8.7597 592.391 8.75926C592.391 8.75882 592.391 8.75838 592.391 8.75794C592.391 8.75749 592.391 8.75705 592.391 8.75661C592.391 8.75616 592.391 8.75572 592.391 8.75527C592.391 8.75483 592.391 8.75438 592.391 8.75393C592.391 8.75348 592.391 8.75303 592.391 8.75258C592.391 8.75214 592.391 8.75169 592.391 8.75123C592.391 8.75078 592.391 8.75033 592.391 8.74988C592.391 8.74942 592.391 8.74897 592.391 8.74852C592.391 8.74806 592.391 8.74761 592.391 8.74715C592.391 8.74669 592.391 8.74623 592.391 8.74578C592.391 8.74532 592.391 8.74486 592.391 8.7444C592.391 8.74394 592.391 8.74348 592.391 8.74302C592.391 8.74256 592.391 8.74209 592.391 8.74163C592.391 8.74117 592.391 8.7407 592.391 8.74023C592.391 8.73977 592.391 8.7393 592.391 8.73884C592.391 8.73837 592.391 8.7379 592.391 8.73743C592.391 8.73696 592.391 8.73649 592.391 8.73602C592.391 8.73555 592.391 8.73508 592.391 8.73461C592.391 8.73413 592.391 8.73366 592.391 8.73319C592.391 8.73271 592.391 8.73224 592.391 8.73176C592.391 8.73129 592.391 8.73081 592.391 8.73033C592.391 8.72985 592.391 8.72938 592.391 8.7289C592.391 8.72842 592.391 8.72794 592.391 8.72746C592.391 8.72697 592.391 8.72649 592.391 8.72601C592.391 8.72552 592.391 8.72504 592.391 8.72456C592.391 8.72407 592.391 8.72359 592.391 8.7231C592.391 8.72261 592.391 8.72212 592.391 8.72164C592.391 8.72115 592.391 8.72066 592.391 8.72017C592.391 8.71968 592.391 8.71919 592.391 8.71869C592.391 8.7182 592.391 8.71771 592.391 8.71722C592.391 8.71672 592.391 8.71623 592.391 8.71573C592.391 8.71524 592.391 8.71474 592.391 8.71424C592.391 8.71375 592.391 8.71325 592.391 8.71275C592.391 8.71225 592.391 8.71175 592.391 8.71125C592.391 8.71075 592.391 8.71025 592.391 8.70975C592.391 8.70924 592.391 8.70874 592.391 8.70823C592.391 8.70773 592.391 8.70723 592.391 8.70672C592.391 8.70621 592.391 8.70571 592.391 8.7052C592.391 8.70469 592.391 8.70418 592.391 8.70367C592.391 8.70316 592.391 8.70265 592.391 8.70214C592.391 8.70163 592.391 8.70112 592.391 8.7006C592.391 8.70009 592.391 8.69958 592.391 8.69906C592.391 8.69855 592.391 8.69803 592.391 8.69751C592.391 8.697 592.391 8.69648 592.391 8.69596C592.391 8.69544 592.391 8.69492 592.391 8.6944C592.391 8.69388 592.391 8.69336 592.391 8.69284C592.391 8.69232 592.391 8.6918 592.391 8.69127C592.391 8.69075 592.391 8.69022 592.391 8.6897C592.391 8.68917 592.391 8.68865 592.391 8.68812C592.391 8.68759 592.391 8.68706 592.391 8.68653C592.391 8.686 592.391 8.68547 592.391 8.68494C592.391 8.68441 592.391 8.68388 592.391 8.68335C592.391 8.68282 592.391 8.68228 592.391 8.68175C592.391 8.68121 592.391 8.68068 592.391 8.68014C592.391 8.67961 592.391 8.67907 592.391 8.67853C592.391 8.67799 592.391 8.67745 592.391 8.67691C592.391 8.67637 592.391 8.67583 592.391 8.67529C592.391 8.67475 592.391 8.67421 592.391 8.67367C592.391 8.67312 592.391 8.67258 592.391 8.67203C592.391 8.67149 592.391 8.67094 592.391 8.67039C592.391 8.66985 592.391 8.6693 592.391 8.66875C592.391 8.6682 592.391 8.66765 592.391 8.6671C592.391 8.66655 592.391 8.666 592.391 8.66545C592.391 8.6649 592.391 8.66435 592.391 8.66379C592.391 8.66324 592.391 8.66268 592.391 8.66213C592.391 8.66157 592.391 8.66102 592.391 8.66046C592.391 8.6599 592.391 8.65934 592.391 8.65878C592.391 8.65822 592.391 8.65766 592.391 8.6571C592.391 8.65654 592.391 8.65598 592.391 8.65542C592.391 8.65486 592.391 8.65429 592.391 8.65373C592.391 8.65316 592.391 8.6526 592.391 8.65203C592.391 8.65146 592.391 8.6509 592.391 8.65033C592.391 8.64976 592.391 8.64919 592.391 8.64862C592.391 8.64805 592.391 8.64748 592.391 8.64691C592.391 8.64634 592.391 8.64577 592.391 8.64519C592.391 8.64462 592.391 8.64405 592.391 8.64347C592.391 8.6429 592.391 8.64232 592.391 8.64174C592.391 8.64117 592.391 8.64059 592.391 8.64001C592.391 8.63943 592.391 8.63885 592.391 8.63827C592.391 8.63769 592.391 8.63711 592.391 8.63653C592.391 8.63594 592.391 8.63536 592.391 8.63478C592.391 8.63419 592.391 8.63361 592.391 8.63302C592.391 8.63244 592.391 8.63185 592.391 8.63126C592.391 8.63068 592.391 8.63009 592.391 8.6295C592.391 8.62891 592.391 8.62832 592.391 8.62773C592.391 8.62714 592.391 8.62654 592.391 8.62595C592.391 8.62536 592.391 8.62477 592.391 8.62417C592.391 8.62358 592.391 8.62298 592.391 8.62239C592.391 8.62179 592.391 8.62119 592.391 8.62059C592.391 8.62 592.391 8.6194 592.391 8.6188C592.391 8.6182 592.391 8.6176 592.391 8.61699C592.391 8.61639 592.391 8.61579 592.391 8.61519C592.391 8.61458 592.391 8.61398 592.391 8.61337C592.391 8.61277 592.391 8.61216 592.391 8.61156C592.391 8.61095 592.391 8.61034 592.391 8.60973C592.391 8.60912 592.391 8.60851 592.391 8.6079C592.391 8.60729 592.391 8.60668 592.391 8.60607C592.391 8.60546 592.391 8.60485 592.391 8.60423C592.391 8.60362 592.391 8.603 592.391 8.60238C592.391 8.60177 592.391 8.60115 592.391 8.60054C592.391 8.59992 592.391 8.5993 592.391 8.59868C592.391 8.59806 592.391 8.59744 592.391 8.59682C592.391 8.5962 592.391 8.59558 592.391 8.59495C592.391 8.59433 592.391 8.59371 592.391 8.59308C592.391 8.59246 592.391 8.59183 592.391 8.59121C592.391 8.59058 592.391 8.58995 592.391 8.58932C592.391 8.5887 592.391 8.58807 592.391 8.58744C592.391 8.58681 592.391 8.58618 592.391 8.58554C592.391 8.58491 592.391 8.58428 592.391 8.58365C592.391 8.58301 592.391 8.58238 592.391 8.58174C592.391 8.58111 592.391 8.58047 592.391 8.57983C592.391 8.5792 592.391 8.57856 592.391 8.57792C592.391 8.57728 592.391 8.57664 592.391 8.576C592.391 8.57536 592.391 8.57472 592.391 8.57408C592.391 8.57343 592.391 8.57279 592.391 8.57215C592.391 8.5715 592.391 8.57086 592.391 8.57021C592.391 8.56957 592.391 8.56892 592.391 8.56827C592.391 8.56763 592.391 8.56698 592.391 8.56633C592.391 8.56568 592.391 8.56503 592.391 8.56438C592.391 8.56372 592.391 8.56307 592.391 8.56242C592.391 8.56177 592.391 8.56111 592.391 8.56046C592.391 8.5598 592.391 8.55915 592.391 8.55849C592.391 8.55783 592.391 8.55718 592.391 8.55652C592.391 8.55586 592.391 8.5552 592.391 8.55454C592.391 8.55388 592.391 8.55322 592.391 8.55256C592.391 8.5519 592.391 8.55124 592.391 8.55057C592.391 8.54991 592.391 8.54924 592.391 8.54858C592.391 8.54791 592.391 8.54725 592.391 8.54658C592.391 8.54591 592.391 8.54524 592.391 8.54457C592.391 8.54391 592.391 8.54324 592.391 8.54257C592.391 8.54189 592.391 8.54122 592.391 8.54055C592.391 8.53988 592.391 8.53921 592.391 8.53853C592.391 8.53786 592.391 8.53718 592.391 8.53651C592.391 8.53583 592.391 8.53515 592.391 8.53448C592.391 8.5338 592.391 8.53312 592.391 8.53244C592.391 8.53176 592.391 8.53108 592.391 8.5304C592.391 8.52972 592.391 8.52904 592.391 8.52835C592.391 8.52767 592.391 8.52699 592.391 8.5263C592.391 8.52562 592.391 8.52493 592.391 8.52424C592.391 8.52356 592.391 8.52287 592.391 8.52218C592.391 8.52149 592.391 8.5208 592.391 8.52011C592.391 8.51942 592.391 8.51873 592.391 8.51804C592.391 8.51735 592.391 8.51666 592.391 8.51596C592.391 8.51527 592.391 8.51457 592.391 8.51388C592.391 8.51318 592.391 8.51249 592.391 8.51179C592.391 8.51109 592.391 8.5104 592.391 8.5097C592.391 8.509 592.391 8.5083 592.391 8.5076C592.391 8.5069 592.391 8.50619 592.391 8.50549C592.391 8.50479 592.391 8.50409 592.391 8.50338C592.391 8.50268 592.391 8.50197 592.391 8.50127C592.391 8.50056 592.391 8.49985 592.391 8.49915C592.391 8.49844 592.391 8.49773 592.391 8.49702C592.391 8.49631 592.391 8.4956 592.391 8.49489C592.391 8.49418 592.391 8.49346 592.391 8.49275C592.391 8.49204 592.391 8.49132 592.391 8.49061C592.391 8.48989 592.391 8.48918 592.391 8.48846C592.391 8.48775 592.391 8.48703 592.391 8.48631C592.391 8.48559 592.391 8.48487 592.391 8.48415C592.391 8.48343 592.391 8.48271 592.391 8.48199C592.391 8.48127 592.391 8.48054 592.391 8.47982C592.391 8.4791 592.391 8.47837 592.391 8.47765C592.391 8.47692 592.391 8.47619 592.391 8.47547C592.391 8.47474 592.391 8.47401 592.391 8.47328C592.391 8.47255 592.391 8.47182 592.391 8.47109C592.391 8.47036 592.391 8.46963 592.391 8.4689C592.391 8.46816 592.391 8.46743 592.391 8.4667C592.391 8.46596 592.391 8.46523 592.391 8.46449C592.391 8.46375 592.391 8.46302 592.391 8.46228C592.391 8.46154 592.391 8.4608 592.391 8.46006C592.391 8.45932 592.391 8.45858 592.391 8.45784C592.391 8.4571 592.391 8.45636 592.391 8.45561C592.391 8.45487 592.391 8.45413 592.391 8.45338C592.391 8.45264 592.391 8.45189 592.391 8.45115C592.391 8.4504 592.391 8.44965 592.391 8.4489C592.391 8.44815 592.391 8.4474 592.391 8.44665C592.391 8.4459 592.391 8.44515 592.391 8.4444C592.391 8.44365 592.391 8.4429 592.391 8.44214C592.391 8.44139 592.391 8.44063 592.391 8.43988C592.391 8.43912 592.391 8.43837 592.391 8.43761C592.391 8.43685 592.391 8.43609 592.391 8.43533C592.391 8.43457 592.391 8.43382 592.391 8.43305C592.391 8.43229 592.391 8.43153 592.391 8.43077C592.391 8.43001 592.391 8.42924 592.391 8.42848C592.391 8.42771 592.391 8.42695 592.391 8.42618C592.391 8.42542 592.391 8.42465 592.391 8.42388C592.391 8.42311 592.391 8.42234 592.391 8.42157C592.391 8.4208 592.391 8.42003 592.391 8.41926C592.391 8.41849 592.391 8.41772 592.391 8.41694C592.391 8.41617 592.391 8.4154 592.391 8.41462C592.391 8.41385 592.391 8.41307 592.391 8.41229C592.391 8.41152 592.391 8.41074 592.391 8.40996C592.391 8.40918 592.391 8.4084 592.391 8.40762C592.391 8.40684 592.391 8.40606 592.391 8.40528C592.391 8.4045 592.391 8.40372 592.391 8.40293C592.391 8.40215 592.391 8.40136 592.391 8.40058C592.391 8.39979 592.391 8.399 592.391 8.39822C592.391 8.39743 592.391 8.39664 592.391 8.39585C592.391 8.39506 592.391 8.39427 592.391 8.39348C592.391 8.39269 592.391 8.3919 592.391 8.39111C592.391 8.39031 592.391 8.38952 592.391 8.38873C592.391 8.38793 592.391 8.38713 592.391 8.38634C592.391 8.38554 592.391 8.38474 592.391 8.38395C592.391 8.38315 592.391 8.38235 592.391 8.38155C592.391 8.38075 592.391 8.37995 592.391 8.37915C592.391 8.37835 592.391 8.37754 592.391 8.37674C592.391 8.37594 592.391 8.37513 592.391 8.37433C592.391 8.37352 592.391 8.37272 592.391 8.37191C592.391 8.3711 592.391 8.37029 592.391 8.36949C592.391 8.36868 592.391 8.36787 592.391 8.36706C592.391 8.36625 592.391 8.36544 592.391 8.36462C592.391 8.36381 592.391 8.363 592.391 8.36218C592.391 8.36137 592.391 8.36056 592.391 8.35974C592.391 8.35892 592.391 8.35811 592.391 8.35729C592.391 8.35647 592.391 8.35565 592.391 8.35484C592.391 8.35402 592.391 8.3532 592.391 8.35238C592.391 8.35155 592.391 8.35073 592.391 8.34991C592.391 8.34909 592.391 8.34826 592.391 8.34744C592.391 8.34661 592.391 8.34579 592.391 8.34496C592.391 8.34414 592.391 8.34331 592.391 8.34248C592.391 8.34165 592.391 8.34082 592.391 8.33999C592.391 8.33916 592.391 8.33833 592.391 8.3375C592.391 8.33667 592.391 8.33584 592.391 8.335C592.391 8.33417 592.391 8.33333 592.391 8.3325C592.391 8.33167 592.391 8.33083 592.391 8.32999C592.391 8.32915 592.391 8.32832 592.391 8.32748C592.391 8.32664 592.391 8.3258 592.391 8.32496C592.391 8.32412 592.391 8.32328 592.391 8.32243C592.391 8.32159 592.391 8.32075 592.391 8.3199C592.391 8.31906 592.391 8.31822 592.391 8.31737C592.391 8.31652 592.391 8.31568 592.391 8.31483C592.391 8.31398 592.391 8.31313 592.391 8.31228C592.391 8.31144 592.391 8.31059 592.391 8.30973C592.391 8.30888 592.391 8.30803 592.391 8.30718C592.391 8.30632 592.391 8.30547 592.391 8.30462C592.391 8.30376 592.391 8.30291 592.391 8.30205C592.391 8.30119 592.391 8.30033 592.391 8.29948C592.391 8.29862 592.391 8.29776 592.391 8.2969C592.391 8.29604 592.391 8.29518 592.391 8.29432C592.391 8.29346 592.391 8.29259 592.391 8.29173C592.391 8.29087 592.391 8.29 592.391 8.28914C592.391 8.28827 592.391 8.28741 592.391 8.28654C592.391 8.28567 592.391 8.2848 592.391 8.28393C592.391 8.28307 592.391 8.2822 592.391 8.28132C592.391 8.28045 592.391 8.27958 592.391 8.27871C592.391 8.27784 592.391 8.27696 592.391 8.27609C592.391 8.27522 592.391 8.27434 592.391 8.27347C592.391 8.27259 592.391 8.27171 592.391 8.27084C592.391 8.26996 592.391 8.26908 592.391 8.2682C592.391 8.26732 592.391 8.26644 592.391 8.26556C592.391 8.26468 592.391 8.2638 592.391 8.26291C592.391 8.26203 592.391 8.26114 592.391 8.26026C592.391 8.25938 592.391 8.25849 592.391 8.2576C592.391 8.25672 592.391 8.25583 592.391 8.25494C592.391 8.25405 592.391 8.25316 592.391 8.25227C592.391 8.25138 592.391 8.25049 592.391 8.2496C592.391 8.24871 592.391 8.24782 592.391 8.24692C592.391 8.24603 592.391 8.24513 592.391 8.24424C592.391 8.24334 592.391 8.24245 592.391 8.24155C592.391 8.24065 592.391 8.23976 592.391 8.23886C592.391 8.23796 592.391 8.23706 592.391 8.23616C592.391 8.23526 592.391 8.23436 592.391 8.23345C592.391 8.23255 592.391 8.23165 592.391 8.23074C592.391 8.22984 592.391 8.22893 592.391 8.22803H580.391ZM586.391 2.92383H529.66V14.9238H586.391V2.92383ZM529.66 2.92383C519.74 2.92383 512.203 8.44147 507.119 17.5496L517.597 23.3987C521.109 17.1064 525.108 14.9238 529.66 14.9238V2.92383ZM507.004 17.7663C505.138 21.4548 504.317 25.589 504.317 29.9834H516.317C516.317 27.0796 516.856 24.8743 517.712 23.182L507.004 17.7663ZM504.317 29.9834V36.7559H516.317V29.9834H504.317ZM504.317 36.7559C504.317 43.3406 505.974 49.2957 509.742 54.1446C513.494 58.9729 518.891 62.1286 525.33 63.9581L528.61 52.415C523.947 51.0901 521.017 49.0969 519.218 46.7816C517.435 44.487 516.317 41.304 516.317 36.7559H504.317ZM526.412 64.1606C528.796 64.3831 530.821 64.5112 532.397 64.5112V52.5112C531.375 52.5112 529.782 52.4229 527.527 52.2125L526.412 64.1606ZM532.397 64.5112H586.391V52.5112H532.397V64.5112ZM580.391 58.5112V67H592.391V58.5112H580.391ZM586.391 61H531.701V73H586.391V61ZM531.701 61C526.094 61 521.671 59.6494 518.133 57.2187C514.571 54.7718 511.482 50.9379 509.058 45.29L498.031 50.0234C501.142 57.2711 505.514 63.1088 511.338 67.1096C517.185 71.1267 524.073 73 531.701 73V61ZM509.203 45.6626C508.26 42.9841 507.828 40.4883 507.828 38.1475H495.828C495.828 41.9915 496.541 45.8352 497.885 49.6508L509.203 45.6626ZM507.828 38.1475V29.6587H495.828V38.1475H507.828ZM507.828 29.6587C507.828 24.4188 509.112 20.1994 511.464 16.7378C513.839 13.243 517.567 10.1372 523.047 7.59397L517.997 -3.29124C511.015 -0.0515842 505.395 4.31865 501.539 9.99287C497.66 15.7004 495.828 22.3433 495.828 29.6587H507.828ZM522.419 7.84347C525.572 6.79246 527.705 6.43506 529.011 6.43506V-5.56494C525.864 -5.56494 522.337 -4.77814 518.625 -3.54073L522.419 7.84347ZM594.602 0.435059V-5.56494H588.602V0.435059H594.602ZM678.84 0.435059H684.84V-5.56494H678.84V0.435059ZM678.84 8.92383V14.9238H684.84V8.92383H678.84ZM641.127 8.92383V2.92383H635.127V8.92383H641.127ZM632.639 67H626.639V73H632.639V67ZM632.639 8.92383H638.639V2.92383H632.639V8.92383ZM594.602 8.92383H588.602V14.9238H594.602V8.92383ZM594.602 6.43506H678.84V-5.56494H594.602V6.43506ZM672.84 0.435059V8.92383H684.84V0.435059H672.84ZM678.84 2.92383H641.127V14.9238H678.84V2.92383ZM635.127 8.92383V66.3042H647.127V8.92383H635.127ZM635.127 66.3042C635.127 65.6113 635.305 63.9895 636.711 62.5834C638.117 61.1773 639.739 61 640.432 61V73C641.588 73 643.558 72.7067 645.196 71.0687C646.834 69.4306 647.127 67.461 647.127 66.3042H635.127ZM640.432 61H632.639V73H640.432V61ZM638.639 67V8.92383H626.639V67H638.639ZM632.639 2.92383H594.602V14.9238H632.639V2.92383ZM600.602 8.92383V0.435059H588.602V8.92383H600.602ZM687.375 0.481445V-5.51855H681.375V0.481445H687.375ZM771.706 0.481445H777.706V-5.51855H771.706V0.481445ZM771.706 8.97021V14.9702H777.706V8.97021H771.706ZM687.375 8.97021H681.375V14.9702H687.375V8.97021ZM771.66 24.9272L777.026 22.244L775.368 18.9272H771.66V24.9272ZM771.706 33.416V39.416H777.706V33.416H771.706ZM695.864 33.416V27.416H689.864V33.416H695.864ZM695.864 67V73H701.864V67H695.864ZM687.375 25.623L681.428 24.8301L681.375 25.2248V25.623H687.375ZM687.375 6.48145H771.706V-5.51855H687.375V6.48145ZM765.706 0.481445V8.97021H777.706V0.481445H765.706ZM771.706 2.97021H687.375V14.9702H771.706V2.97021ZM693.375 8.97021V0.481445H681.375V8.97021H693.375ZM688.071 30.9272H771.66V18.9272H688.071V30.9272ZM766.293 27.6105C766.035 27.0948 765.913 26.6592 765.863 26.4642C765.803 26.234 765.77 26.0486 765.753 25.9413C765.72 25.7304 765.71 25.5807 765.708 25.5467C765.703 25.4682 765.706 25.4744 765.706 25.623H777.706C777.706 25.3696 777.702 25.0589 777.681 24.7485C777.671 24.5985 777.651 24.354 777.607 24.0697C777.589 23.9587 777.476 23.1438 777.026 22.244L766.293 27.6105ZM765.706 25.623V33.416H777.706V25.623H765.706ZM771.706 27.416H695.864V39.416H771.706V27.416ZM689.864 33.416V67H701.864V33.416H689.864ZM695.864 61H688.071V73H695.864V61ZM688.071 61C688.764 61 690.385 61.1773 691.792 62.5834C693.198 63.9895 693.375 65.6113 693.375 66.3042H681.375C681.375 67.461 681.668 69.4306 683.306 71.0687C684.944 72.7067 686.914 73 688.071 73V61ZM693.375 66.3042V25.623H681.375V66.3042H693.375ZM693.322 26.416C693.251 26.9488 692.977 28.2045 691.838 29.3438C690.585 30.597 689.079 30.9272 688.071 30.9272V18.9272C686.66 18.9272 684.838 19.3735 683.353 20.8586C681.981 22.2298 681.56 23.8335 681.428 24.8301L693.322 26.416ZM216.55 100.435V94.4351H210.55V100.435H216.55ZM287.197 100.435H293.197V94.4351H287.197V100.435ZM287.197 133.555V139.555H293.197V133.555H287.197ZM225.085 133.555V127.555H219.085V133.555H225.085ZM238.027 157.12L235.525 162.573L235.739 162.671L235.959 162.752L238.027 157.12ZM287.197 158.465H293.197V152.465H287.197V158.465ZM287.197 167V173H293.197V167H287.197ZM221.328 154.012L216.371 157.393L216.443 157.498L216.519 157.601L221.328 154.012ZM216.55 125.02V119.02H210.55V125.02H216.55ZM278.662 125.02V131.02H284.662V125.02H278.662ZM278.662 108.97H284.662V102.97H278.662V108.97ZM216.55 108.97H210.55V114.97H216.55V108.97ZM216.55 106.435H287.197V94.4351H216.55V106.435ZM281.197 100.435V133.555H293.197V100.435H281.197ZM287.197 127.555H225.085V139.555H287.197V127.555ZM219.085 133.555V135.967H231.085V133.555H219.085ZM219.085 135.967C219.085 141.893 220.35 147.333 223.202 151.994C226.07 156.681 230.293 160.173 235.525 162.573L240.529 151.666C237.133 150.108 234.885 148.095 233.438 145.731C231.976 143.342 231.085 140.185 231.085 135.967H219.085ZM235.959 162.752C238.924 163.84 241.917 164.465 244.892 164.465V152.465C243.6 152.465 242.016 152.193 240.094 151.487L235.959 162.752ZM244.892 164.465H287.197V152.465H244.892V164.465ZM281.197 158.465V167H293.197V158.465H281.197ZM287.197 161H243.5V173H287.197V161ZM243.5 161C237.62 161 231.837 158.061 226.136 150.423L216.519 157.601C223.744 167.28 232.744 173 243.5 173V161ZM226.284 150.631C223.938 147.192 222.55 142.548 222.55 136.292H210.55C210.55 144.323 212.346 151.493 216.371 157.393L226.284 150.631ZM222.55 136.292V125.02H210.55V136.292H222.55ZM216.55 131.02H278.662V119.02H216.55V131.02ZM284.662 125.02V108.97H272.662V125.02H284.662ZM278.662 102.97H216.55V114.97H278.662V102.97ZM222.55 108.97V100.435H210.55V108.97H222.55ZM379.321 118.851L384.834 116.483L384.672 116.107L384.461 115.756L379.321 118.851ZM360.859 165.284L362.423 171.076L362.967 170.929L363.473 170.684L360.859 165.284ZM307.282 157.12L302.95 161.271L303.042 161.367L303.138 161.458L307.282 157.12ZM318.229 102.847L316.087 97.2429L315.785 97.3581L315.498 97.505L318.229 102.847ZM323.332 157.444L320.877 162.919L321.397 163.152L321.951 163.283L323.332 157.444ZM371.435 144.827L376.591 147.896L376.743 147.641L376.869 147.372L371.435 144.827ZM360.209 111.382L363.264 106.218L363.016 106.071L362.755 105.949L360.209 111.382ZM308.999 122.283L303.923 119.083L303.682 119.466L303.501 119.88L308.999 122.283ZM329.826 106.435H350.654V94.4351H329.826V106.435ZM350.654 106.435C359.776 106.435 367.594 111.004 374.18 121.945L384.461 115.756C376.266 102.143 364.972 94.4351 350.654 94.4351V106.435ZM373.808 121.218C375.807 125.875 376.707 130.078 376.707 133.88H388.707C388.707 128.157 387.349 122.341 384.834 116.483L373.808 121.218ZM376.707 133.88C376.707 139.712 375.199 144.58 372.32 148.718C369.404 152.908 364.845 156.688 358.245 159.883L363.473 170.684C371.438 166.828 377.803 161.849 382.17 155.571C386.574 149.242 388.707 141.933 388.707 133.88H376.707ZM359.294 159.491C355.074 160.631 352.691 161 351.674 161V173C354.43 173 358.17 172.225 362.423 171.076L359.294 159.491ZM351.674 161H329.455V173H351.674V161ZM329.455 161C323.425 161 317.454 158.538 311.426 152.781L303.138 161.458C310.903 168.875 319.714 173 329.455 173V161ZM311.615 152.969C306.295 147.417 303.727 141.041 303.727 133.555H291.727C291.727 144.191 295.529 153.525 302.95 161.271L311.615 152.969ZM303.727 133.555C303.727 127.882 305.146 123.135 307.842 119.098C310.566 115.018 314.816 111.331 320.961 108.189L315.498 97.505C307.974 101.352 301.973 106.278 297.862 112.434C293.724 118.632 291.727 125.746 291.727 133.555H303.727ZM320.372 108.451C324.075 107.036 327.205 106.435 329.826 106.435V94.4351C325.397 94.4351 320.795 95.4425 316.087 97.2429L320.372 108.451ZM300.262 133.88C300.262 140.323 302.014 146.199 305.67 151.246C309.284 156.235 314.497 160.058 320.877 162.919L325.787 151.969C320.787 149.728 317.465 147.073 315.388 144.206C313.355 141.399 312.262 138.044 312.262 133.88H300.262ZM321.951 163.283C324.915 163.984 327.642 164.465 329.826 164.465V152.465C329.103 152.465 327.501 152.265 324.713 151.605L321.951 163.283ZM329.826 164.465H350.654V152.465H329.826V164.465ZM350.654 164.465C361.765 164.465 370.414 158.273 376.591 147.896L366.279 141.758C361.632 149.565 356.427 152.465 350.654 152.465V164.465ZM376.869 147.372C378.997 142.828 380.172 138.203 380.172 133.555H368.172C368.172 136.143 367.523 139.034 366.001 142.283L376.869 147.372ZM380.172 133.555C380.172 121.771 374.039 112.59 363.264 106.218L357.155 116.547C364.997 121.184 368.172 126.785 368.172 133.555H380.172ZM362.755 105.949C358.557 103.983 354.15 102.97 349.587 102.97V114.97C352.322 114.97 354.996 115.566 357.664 116.816L362.755 105.949ZM349.587 102.97H329.826V114.97H349.587V102.97ZM329.826 102.97C318.922 102.97 310.286 108.994 303.923 119.083L314.074 125.484C318.905 117.822 324.154 114.97 329.826 114.97V102.97ZM303.501 119.88C301.434 124.608 300.262 129.299 300.262 133.88H312.262C312.262 131.348 312.914 128.308 314.496 124.686L303.501 119.88ZM390.5 100.435V94.4351H384.5V100.435H390.5ZM461.147 100.435H467.147V94.4351H461.147V100.435ZM461.147 133.555V139.555H467.147V133.555H461.147ZM399.035 133.555V127.555H393.035V133.555H399.035ZM411.977 157.12L409.475 162.573L409.689 162.671L409.909 162.752L411.977 157.12ZM461.147 158.465H467.147V152.465H461.147V158.465ZM461.147 167V173H467.147V167H461.147ZM395.278 154.012L390.321 157.393L390.393 157.498L390.47 157.601L395.278 154.012ZM390.5 125.02V119.02H384.5V125.02H390.5ZM452.612 125.02V131.02H458.612V125.02H452.612ZM452.612 108.97H458.612V102.97H452.612V108.97ZM390.5 108.97H384.5V114.97H390.5V108.97ZM390.5 106.435H461.147V94.4351H390.5V106.435ZM455.147 100.435V133.555H467.147V100.435H455.147ZM461.147 127.555H399.035V139.555H461.147V127.555ZM393.035 133.555V135.967H405.035V133.555H393.035ZM393.035 135.967C393.035 141.893 394.301 147.333 397.153 151.994C400.02 156.681 404.243 160.173 409.475 162.573L414.479 151.666C411.083 150.108 408.835 148.095 407.389 145.731C405.927 143.342 405.035 140.185 405.035 135.967H393.035ZM409.909 162.752C412.874 163.84 415.867 164.465 418.842 164.465V152.465C417.55 152.465 415.966 152.193 414.045 151.487L409.909 162.752ZM418.842 164.465H461.147V152.465H418.842V164.465ZM455.147 158.465V167H467.147V158.465H455.147ZM461.147 161H417.451V173H461.147V161ZM417.451 161C411.57 161 405.788 158.061 400.086 150.423L390.47 157.601C397.694 167.28 406.694 173 417.451 173V161ZM400.234 150.631C397.889 147.192 396.5 142.548 396.5 136.292H384.5C384.5 144.323 386.297 151.493 390.321 157.393L400.234 150.631ZM396.5 136.292V125.02H384.5V136.292H396.5ZM390.5 131.02H452.612V119.02H390.5V131.02ZM458.612 125.02V108.97H446.612V125.02H458.612ZM452.612 102.97H390.5V114.97H452.612V102.97ZM396.5 108.97V100.435H384.5V108.97H396.5ZM471.677 100.481V94.4814H465.677V100.481H471.677ZM542.277 100.481H548.277V94.4814H542.277V100.481ZM542.277 125.02H536.277V131.02H542.277V125.02ZM556.286 125.02H562.286V119.02H556.286V125.02ZM540.607 163.938L543.481 169.206L543.555 169.165L543.629 169.122L540.607 163.938ZM471.677 167H465.677V173H471.677V167ZM471.677 158.465V152.465H465.677V158.465H471.677ZM546.406 145.523L551.722 148.305L551.964 147.842L552.122 147.345L546.406 145.523ZM547.751 133.555H553.751V127.555H547.751V133.555ZM489.768 133.555H483.768V139.555H489.768V133.555ZM489.768 125.02V119.02H483.768V125.02H489.768ZM533.789 125.02V131.02H539.789V125.02H533.789ZM533.789 109.017H539.789V103.017H533.789V109.017ZM471.677 109.017H465.677V115.017H471.677V109.017ZM471.677 106.481H542.277V94.4814H471.677V106.481ZM536.277 100.481V125.02H548.277V100.481H536.277ZM542.277 131.02H556.286V119.02H542.277V131.02ZM550.286 125.02V138.704H562.286V125.02H550.286ZM550.286 138.704C550.286 146.992 546.477 153.573 537.586 158.755L543.629 169.122C555.643 162.12 562.286 151.878 562.286 138.704H550.286ZM537.734 158.671C534.868 160.234 531.866 161 528.64 161V173C533.887 173 538.863 171.725 543.481 169.206L537.734 158.671ZM528.64 161H471.677V173H528.64V161ZM477.677 167V158.465H465.677V167H477.677ZM471.677 164.465H528.64V152.465H471.677V164.465ZM528.64 164.465C538.942 164.465 546.567 158.156 551.722 148.305L541.09 142.741C537.215 150.146 532.996 152.465 528.64 152.465V164.465ZM552.122 147.345C553.124 144.202 553.751 141.154 553.751 138.333H541.751C541.751 139.47 541.481 141.216 540.689 143.701L552.122 147.345ZM553.751 138.333V133.555H541.751V138.333H553.751ZM547.751 127.555H489.768V139.555H547.751V127.555ZM495.768 133.555V125.02H483.768V133.555H495.768ZM489.768 131.02H533.789V119.02H489.768V131.02ZM539.789 125.02V109.017H527.789V125.02H539.789ZM533.789 103.017H471.677V115.017H533.789V103.017ZM477.677 109.017V100.481H465.677V109.017H477.677Z" fill="white"/>
</svg>
