<svg width="766" height="548" viewBox="0 0 766 548" fill="none" xmlns="http://www.w3.org/2000/svg">
<path d="M136.82 397.647C134.519 397.647 132.581 396.079 131.748 393.934C129.907 389.191 125.97 383.587 115.347 383.587C107.403 383.587 95.3979 389.27 95.3979 411.632C95.3979 425.832 101.399 438.99 115.347 438.99C123.174 438.99 129.008 434.96 131.772 427.751C132.642 425.481 134.671 423.736 137.102 423.736H143.256C146.457 423.736 148.893 426.665 147.899 429.708C143.329 443.696 132.52 452.984 115.045 452.984C93.9928 452.984 78.9208 438.668 78.9208 411.404C78.9208 383.682 94.8648 369.623 115.251 369.623C135.447 369.623 145.381 381.499 148.435 392.23C149.249 395.092 146.88 397.647 143.905 397.647H136.82Z" fill="white"/>
<path d="M169.614 400.834C169.614 405.555 175.472 407.748 178.572 404.188L187.483 393.956C188.453 392.842 189.857 392.203 191.334 392.203H196.358C200.791 392.203 203.118 397.464 200.137 400.744L189.81 412.106C188.306 413.76 188.053 416.2 189.186 418.128L203.933 443.223C205.933 446.627 203.478 450.917 199.53 450.917H193.004C191.148 450.917 189.439 449.91 188.538 448.287L179.369 431.757C177.7 428.749 173.595 428.218 171.215 430.702L171.033 430.892C170.123 431.842 169.614 433.108 169.614 434.424V445.81C169.614 448.63 167.328 450.917 164.508 450.917H159.327C156.506 450.917 154.22 448.63 154.22 445.81V397.31C154.22 394.489 156.506 392.203 159.327 392.203H164.508C167.328 392.203 169.614 394.489 169.614 397.31V400.834Z" fill="white"/>
<path d="M264.771 421.444C264.771 442.607 250.575 452.456 234.859 452.456C219.167 452.456 204.855 442.752 204.855 421.58C204.855 400.392 219.167 390.676 234.859 390.676C250.575 390.676 264.771 400.276 264.771 421.444ZM220.683 421.444C220.683 428.965 222.965 439.433 234.859 439.433C246.757 439.433 248.939 429.081 248.939 421.58C248.939 414.034 246.757 403.677 234.859 403.677C222.965 403.677 220.683 413.918 220.683 421.444Z" fill="white"/>
<path d="M317.511 392.198C320.332 392.198 322.618 394.484 322.618 397.304V445.809C322.618 448.629 320.332 450.915 317.511 450.915H312.33C309.51 450.915 307.224 448.629 307.224 445.809V409.661C307.224 406.841 304.937 404.555 302.117 404.555H295.857C293.037 404.555 290.75 406.841 290.75 409.661V422.66C290.75 445.117 283.989 452.201 273.174 452.201C271.404 452.201 268.895 452.013 266.737 451.642C264.947 451.334 263.809 449.711 263.809 447.895V444.031C263.809 442.107 266.44 439.873 268.364 439.873C272.988 439.873 275.381 437.592 275.381 419.713V397.304C275.381 394.484 277.667 392.198 280.488 392.198H317.511Z" fill="white"/>
<path d="M345.874 400.834C345.874 405.555 351.731 407.748 354.832 404.188L363.742 393.956C364.712 392.842 366.117 392.203 367.593 392.203H372.609C377.044 392.203 379.371 397.466 376.387 400.746L366.053 412.105C364.547 413.759 364.294 416.202 365.428 418.13L380.187 443.221C382.189 446.625 379.734 450.917 375.785 450.917H369.266C367.409 450.917 365.698 449.908 364.799 448.284L355.644 431.752C353.979 428.745 349.878 428.209 347.496 430.686L347.3 430.89C346.385 431.842 345.874 433.11 345.874 434.43V445.81C345.874 448.63 343.588 450.917 340.767 450.917H335.586C332.766 450.917 330.48 448.63 330.48 445.81V397.31C330.48 394.489 332.766 392.203 335.586 392.203H340.767C343.588 392.203 345.874 394.489 345.874 397.31V400.834Z" fill="white"/>
<path d="M441.03 421.444C441.03 442.607 426.859 452.456 411.142 452.456C395.426 452.456 381.139 442.752 381.139 421.58C381.139 400.392 395.426 390.676 411.142 390.676C426.859 390.676 441.03 400.276 441.03 421.444ZM396.971 421.444C396.971 428.965 399.248 439.433 411.142 439.433C422.987 439.433 425.247 429.081 425.247 421.58C425.247 414.034 422.987 403.677 411.142 403.677C399.248 403.677 396.971 413.918 396.971 421.444Z" fill="white"/>
<path d="M446.02 397.309C446.02 394.488 448.306 392.202 451.126 392.202H472.527C485.64 392.202 495.232 397.566 495.232 407.369C495.232 412.016 495.874 427.105 496.701 431.678C496.88 432.669 496.976 433.738 496.976 434.889C496.976 445.766 488.744 450.924 475.444 450.924H451.126C448.306 450.924 446.02 448.638 446.02 445.817V397.309ZM461.385 410.867C461.385 413.687 463.671 415.974 466.492 415.974H471.419C476.527 415.974 480.143 413.928 480.143 409.324C480.143 404.534 476.664 402.79 471.535 402.79H466.492C463.671 402.79 461.385 405.077 461.385 407.897V410.867ZM461.385 435.233C461.385 438.054 463.671 440.34 466.492 440.34H472.705C478.391 440.34 481.912 438.592 481.912 432.79C481.912 427.661 478.205 425.289 472.527 425.289H466.492C463.671 425.289 461.385 427.575 461.385 430.395V435.233Z" fill="white"/>
<path d="M558.591 421.444C558.591 442.607 544.441 452.456 528.703 452.456C513.007 452.456 498.675 442.752 498.675 421.58C498.675 400.392 513.007 390.676 528.703 390.676C544.441 390.676 558.591 400.276 558.591 421.444ZM514.507 421.444C514.507 428.965 516.826 439.433 528.703 439.433C540.597 439.433 542.763 429.081 542.763 421.58C542.763 414.034 540.597 403.677 528.703 403.677C516.826 403.677 514.507 413.918 514.507 421.444Z" fill="white"/>
<path d="M190.82 356.35C202.63 356.35 229.991 354.487 252.945 341.252C256.137 339.411 260.378 341.606 260.378 345.291C260.378 347.779 262.395 349.795 264.882 349.795H303.98C306.799 349.795 309.084 347.511 309.087 344.693L309.13 293.068C309.131 291.746 309.645 290.476 310.564 289.525L324.676 274.917C327.06 272.449 331.151 272.988 332.815 275.989L372.28 347.165C373.18 348.788 374.89 349.795 376.746 349.795H423.25C427.199 349.795 429.653 345.505 427.652 342.1L367.014 238.956C365.881 237.028 366.134 234.588 367.637 232.934L422.672 172.355C425.653 169.074 423.325 163.814 418.893 163.814H372.934C371.458 163.814 370.054 164.453 369.084 165.566L318.089 224.082C314.987 227.641 309.132 225.448 309.132 220.727V103.946C309.132 101.126 306.846 98.8397 304.025 98.8397H265.485C262.665 98.8397 260.378 101.126 260.378 103.946V107.304C260.378 111.941 254.459 114.394 250.772 111.582C235.79 100.153 214.26 92.2852 183.944 92.2852C102.719 92.2852 87.4693 141.7 87.4693 169.36C87.4693 207.369 107.901 228.491 143.492 237.121L193.953 249.544C220.568 256.123 239.599 260.954 239.599 280.655C239.599 306.93 211.922 313.142 187.027 313.142C146.428 313.142 135.942 292.082 134.123 277.46C133.775 274.661 131.519 272.373 128.699 272.373H88.7779C85.9576 272.373 83.6564 274.649 83.8127 277.465C85.558 308.906 104.383 356.35 190.82 356.35ZM224.023 206.704L162.867 191.813C152.469 189.4 136.219 185.234 136.219 165.562C136.219 143.085 160.081 135.472 180.125 135.472C220.492 135.472 228.405 156.325 230.632 169.02C231.079 171.568 233.22 173.501 235.806 173.501H255.272C258.092 173.501 260.378 175.788 260.378 178.608V211.384C260.378 215.326 256.063 217.839 252.48 216.195C243.698 212.166 233.996 209.214 224.023 206.704Z" fill="white"/>
</svg>
