<svg width="180" height="220" viewBox="0 0 180 220" fill="none" xmlns="http://www.w3.org/2000/svg">
<g clip-path="url(#clip0_461_6639)">
<path d="M0 0H180V220H0V0Z" fill="#B8B8B8"/>
<mask id="mask0_461_6639" style="mask-type:alpha" maskUnits="userSpaceOnUse" x="-5" y="30" width="190" height="217">
<path d="M-4 235.825V246.497H184.5V239.142V190.539L184.067 186.356L183.346 182.895L181.904 179.001L180.173 175.54C180.173 175.54 178.965 173.689 178.01 172.655C177.09 171.659 176.494 171.168 175.414 170.348C174.245 169.459 172.241 168.328 172.241 168.328L170.51 167.175L164.02 165.877L159.694 164.002L156.521 162.127C156.521 162.127 154.686 161.392 153.492 160.973C151.002 160.1 149.587 159.623 147.002 159.098C141.59 157.999 138.292 159.704 132.868 158.665C129.996 158.115 128.163 158.153 125.657 156.646C121.734 154.288 120.833 151.188 119.023 146.983C118.156 144.971 117.712 143.797 117.292 141.647C116.945 139.87 116.859 137.032 116.859 137.032C116.859 137.032 120.141 135.272 122.051 133.859C125.253 131.49 126.818 129.792 129.262 126.648C131.527 123.735 132.528 121.878 134.166 118.571C136.626 113.608 137.159 110.455 138.781 105.159C140.893 98.2619 142.817 94.4644 143.396 87.2749C143.668 83.9064 144.344 81.6096 143.396 78.6214C142.449 75.6332 140.945 70.9776 140.945 70.9776C140.945 70.9776 138.625 63.8519 136.474 59.5839C135.207 57.0723 134.343 55.6879 132.902 53.3802L132.724 53.0939C130.772 49.966 129.795 48.0978 127.388 45.3058C125.489 43.104 124.294 41.9642 122.051 40.1138C119.677 38.155 118.234 37.169 115.561 35.6428C113.811 34.6436 110.946 33.3353 110.946 33.3353C110.946 33.3353 107.144 31.914 104.6 31.4604C102.044 31.0046 100.561 30.9541 97.966 31.0277C96.1564 31.079 95.0783 30.9194 93.3508 31.4604C92.0287 31.8743 91.3108 32.2495 90.1779 33.0468C89.1026 33.8035 88.954 34.8841 87.7261 35.3544C86.569 35.7976 84.5532 35.3544 84.5532 35.3544C84.5532 35.3544 82.5066 35.5928 81.236 35.9313C79.962 36.2707 78.0631 37.0851 78.0631 37.0851C78.0631 37.0851 75.1029 38.8423 73.3037 40.1138C70.6889 41.9617 69.2533 43.0733 66.9579 45.3058C65.0132 47.1973 63.9593 48.3192 62.3428 50.4978C61.03 52.2671 60.4074 53.3446 59.3141 55.2572C57.3131 58.7578 56.5128 60.8993 54.9874 64.6317C52.9389 69.6439 52.3016 72.6442 50.5164 77.7561C49.0775 81.8766 47.0787 83.931 46.7666 88.2844C46.5394 91.4549 46.9123 93.3019 47.7762 96.3609C49.0089 100.726 50.8032 102.786 53.2567 106.601C56.164 111.121 58.6642 113.028 61.7659 117.418C63.4066 119.739 65.4756 120.651 65.8041 123.475C65.9882 125.057 65.2272 127.513 65.2272 127.513C65.2272 127.513 63.9049 130.389 64.6503 131.984C65.0723 132.887 65.8884 132.993 66.381 133.859C67.276 135.432 66.8137 138.474 66.8137 138.474C66.8137 138.474 68.0078 142.124 67.9675 144.532C67.9417 146.069 68.0763 147.05 67.3906 148.426C66.9433 149.323 66.4913 149.714 65.8041 150.445C64.7613 151.553 64.0139 152.012 62.7754 152.896C60.9673 154.187 57.8718 155.781 57.8718 155.781C57.8718 155.781 55.088 157.081 53.2567 157.8C50.7697 158.776 46.7666 159.963 46.7666 159.963L42.7284 161.117L41.4304 160.973L40.7093 160.396L40.1324 159.963H38.9786L38.1132 160.396L35.2288 160.829L32.777 161.117H30.1809L28.7387 161.261L27.7291 161.838L27.008 162.848L26.7196 164.146L25.4216 164.579L23.5467 165.444C23.5467 165.444 22.4369 166.128 21.6718 166.453C20.44 166.978 18.3546 167.319 18.3546 167.319L15.9028 168.04L13.3068 169.194C13.3068 169.194 11.9461 169.92 11.1435 170.492C10.0385 171.278 9.51928 171.853 8.54744 172.799C7.29063 174.023 6.59573 174.732 5.51874 176.116C4.52131 177.399 3.99801 178.156 3.21117 179.578C1.81276 182.104 1.46177 183.74 0.615149 186.501C-1.12794 192.184 -1.20245 195.606 -1.98087 201.5C-2.80313 207.725 -3.02291 211.296 -3.403 217.47L-3.42311 217.797C-3.85603 224.828 -4 235.825 -4 235.825Z" fill="#484848" stroke="black" stroke-width="0.288447"/>
</mask>
<g mask="url(#mask0_461_6639)">
<rect x="-8.75934" y="23.0947" width="199.028" height="225.277" fill="#484848"/>
</g>
<path d="M48.1653 83.6714C48.1653 83.1561 48.3413 82.8287 48.5555 82.3646C48.8194 81.7928 49.1065 81.2296 49.3297 80.6398C49.7425 79.5487 50.1839 78.454 50.6302 77.3729C51.1303 76.1616 51.5676 74.9223 52.1538 73.7498C52.3743 73.3089 52.695 72.8695 52.8474 72.4121" stroke="#484848" stroke-linecap="round"/>
<path d="M52.7359 73.6943C52.7359 75.255 52.7359 76.8157 52.7359 78.3764C52.7359 78.7267 52.7593 79.0857 52.7359 79.4354C52.6878 80.1575 52.435 78.0126 52.4077 77.2895C52.3822 76.6142 52.3032 75.8198 52.5099 75.1652C52.531 75.0983 52.6215 74.9294 52.5409 74.8649C52.3629 74.7225 52.572 75.3196 52.5966 75.5461C52.6653 76.1781 52.6342 76.8287 52.5254 77.4536C52.4114 78.1079 52.2286 78.746 52.0795 79.3921C52.047 79.533 52.0324 80.0511 51.8875 80.1477C51.807 80.2013 51.839 79.9593 51.8317 79.8628C51.8011 79.454 51.7886 79.0462 51.776 78.6365C51.7692 78.416 51.7524 77.8461 51.7326 77.6085C51.7283 77.556 51.6815 77.4162 51.6645 77.466C51.562 77.7656 51.5184 78.1008 51.4818 78.4136C51.4309 78.8495 51.3425 79.2928 51.3425 79.7327C51.3425 80.0486 51.3388 79.101 51.3425 78.7852C51.3562 77.6127 51.7629 76.5338 52.1847 75.4532C52.2927 75.1768 52.4106 74.8982 52.4882 74.6109C52.4895 74.6063 52.5537 74.3497 52.5656 74.4035C52.6179 74.6386 52.5351 74.9126 52.4882 75.1405C52.4097 75.5219 52.3683 75.8911 52.2312 76.2614C51.9553 77.0064 51.7002 77.7443 51.3982 78.4755C51.1197 79.1498 50.7077 79.7533 50.3268 80.3706C50.1434 80.6679 49.8933 80.9728 49.8933 81.3461C49.8933 81.4586 49.89 81.12 49.9056 81.0085C49.9548 80.658 50.1343 80.3437 50.2927 80.0331C50.6316 79.3683 51.0105 78.7516 51.4416 78.1442C51.5221 78.0306 51.5654 77.9796 51.5654 77.8438C51.5654 77.5253 51.4693 78.0186 51.4539 78.0853C51.1898 79.23 50.4241 80.2433 49.9831 81.3213C49.8576 81.6279 49.5966 82.0688 49.5588 82.3896C49.5448 82.5087 49.2259 82.8235 49.1253 82.7117C49.0277 82.6033 49.1677 82.1432 49.2306 82.0366C49.5351 81.5202 49.9515 81.1546 50.367 80.7391C50.5857 80.5204 50.7931 80.3241 51.0359 80.1353C51.1648 80.035 51.1195 80.4478 51.1195 80.4976C51.1195 81.1015 50.8698 81.7497 50.686 82.3215C50.6011 82.5854 50.4149 82.0214 50.4073 81.9623C50.35 81.5184 50.3685 81.0193 50.4073 80.575C50.4202 80.4274 50.416 80.1828 50.5188 80.061C50.6043 79.9596 50.7036 80.0471 50.7262 80.1415C50.8146 80.5098 50.8415 80.886 50.8997 81.2594C51.0176 82.0164 51.2038 82.7377 51.3858 83.4796C51.4249 83.6391 51.5006 84.1205 51.5097 83.9565C51.5407 83.3988 51.3138 82.8225 51.2929 82.2596C51.2683 81.5939 51.2249 80.8737 51.3146 80.2096C51.3356 80.0543 51.4139 79.8944 51.4787 80.1446C51.6012 80.617 51.5931 81.1648 51.649 81.6495C51.6845 81.957 51.7196 82.5023 51.8999 82.7674C52.0372 82.9694 52.0112 82.2524 52.0113 82.2348C52.0172 81.4301 52.0985 80.6258 52.1786 79.8256C52.1882 79.7295 52.313 78.9731 52.3334 79.0824C52.3636 79.245 52.3431 79.4201 52.3458 79.5841C52.3486 79.7592 52.3169 80.7348 52.4789 80.8011C52.809 80.9361 53.2318 77.412 53.2593 77.1873C53.3422 76.5097 53.4605 75.8132 53.4605 75.1281C53.4605 74.9982 53.3903 74.867 53.3212 74.7596C53.2465 74.6434 53.2426 74.8258 53.2407 74.871C53.2117 75.5521 53.2552 76.2499 53.3181 76.9272C53.5031 78.9189 54.1852 80.7902 54.1852 82.7984C54.1852 83.2357 53.3322 82.9356 53.1261 82.8355C52.755 82.6553 52.4863 82.4297 52.3024 82.0552C52.2435 81.9351 52.1559 81.7207 52.3458 81.7207C52.4745 81.7207 52.5534 81.7209 52.6554 81.8044C52.8335 81.9501 53.1891 81.9027 53.3986 81.8818C53.5945 81.8622 53.8582 81.7695 53.9591 81.5845C54.069 81.3829 53.822 81.4445 53.6711 81.4421C53.5122 81.4395 52.6337 81.1995 52.6245 81.4297C52.6161 81.6382 52.7645 81.2624 52.8041 81.2067C53.015 80.9094 53.3011 80.6872 53.538 80.414C53.561 80.3874 53.7184 80.2342 53.6494 80.2189C53.5095 80.1878 53.2501 80.1843 53.1137 80.2282C52.7775 80.3363 52.9551 80.5793 53.0982 80.7701C53.1701 80.8659 53.2806 80.9219 53.3212 80.7732C53.4529 80.2902 53.4129 79.7125 53.4327 79.2218C53.4619 78.4976 53.5015 77.7727 53.5132 77.048C53.5151 76.9325 53.6279 75.6546 53.4884 75.5988C53.3174 75.5303 53.5247 75.9711 53.5968 76.1407C54.1655 77.4782 55.0613 78.7375 55.3433 80.1786C55.3699 80.3146 55.3367 80.337 55.2008 80.3273C55.0789 80.3186 54.9748 80.2026 54.9036 80.1167C54.3349 79.4308 54.1176 78.5062 53.9591 77.6518C53.7993 76.7906 53.6945 75.7921 53.7981 74.9113C53.8122 74.7909 53.9776 75.4026 53.987 75.4563C54.4431 78.0686 54.5666 80.732 54.8107 83.3681C54.8244 83.5168 54.854 83.9634 54.854 83.8141C54.854 82.9604 54.854 82.1068 54.854 81.2532C54.854 80.4666 54.854 79.6801 54.854 78.8935C54.854 78.7732 54.8304 78.6172 54.8664 78.5003C54.9397 78.2622 54.9553 78.7217 54.9655 78.779C55.0376 79.182 55.1348 79.5744 55.269 79.9619C55.3967 80.3308 55.8016 80.8439 55.8016 81.2439C55.8016 81.3836 55.833 81.7958 55.8604 81.6588C55.9074 81.424 56.1515 81.5234 56.3156 81.4978C56.5182 81.4661 56.8049 81.2839 56.8049 81.0643C56.8049 80.9575 56.8244 80.8886 56.6934 80.8847C56.6321 80.8828 56.4757 80.8504 56.4705 80.9404C56.467 80.9992 56.4878 81.1404 56.5572 81.1603C56.8068 81.2316 57.3071 81.4651 56.9721 80.9961C56.8191 80.7819 56.685 80.5418 56.4983 80.3551C56.3888 80.2456 56.3652 80.0858 56.2599 79.9805C56.0198 79.7404 55.8378 79.4089 55.7427 79.0762C55.6713 78.826 55.3733 78.4728 55.1885 78.2649C55.1108 78.1776 55.0043 77.9324 54.9655 77.8159C54.9182 77.6742 54.7425 77.6488 54.7425 77.4846" stroke="#484848" stroke-linecap="round"/>
</g>
<defs>
<clipPath id="clip0_461_6639">
<rect width="180" height="220" fill="white"/>
</clipPath>
</defs>
</svg>
