<svg width="180" height="220" viewBox="0 0 180 220" fill="none" xmlns="http://www.w3.org/2000/svg">
<g clip-path="url(#clip0_461_6638)">
<path d="M0 0H180V220H0V0Z" fill="#B8B8B8"/>
<mask id="mask0_461_6638" style="mask-type:alpha" maskUnits="userSpaceOnUse" x="-12" y="30" width="203" height="237">
<path d="M-10.196 261.033L-11 266.572L190 266.483L189.017 257.996L188.66 252.011L188.213 247.008L187.32 242.72L185.98 238.789L182.139 231.464L178.208 225.121L175.171 220.476L169.543 214.044L150.693 198.321L141.849 190.46L136.668 186.708L134.792 185.011L131.129 179.651L130.147 179.204L128.896 178.936L127.467 178.489L126.395 177.507L124.787 176.524L122.821 176.167L119.605 175.899L117.461 172.504L116.389 170.628L114.96 168.216L113.531 166.876L112.369 166.608L111.655 164.464L107.456 154.191L106.563 151.511L105.312 149.188L104.061 148.295L105.669 145.079L108.885 136.949L111.655 128.82L112.995 129.892L114.245 130.517L115.764 130.875L117.551 130.517L118.712 129.892L119.784 128.82L120.499 127.748L120.945 126.408L121.392 124.979L122.017 123.907L122.553 123.013L122.732 122.12L124.251 118.368L125.412 114.705L126.305 110.685L126.573 108.452L126.305 106.219L125.68 104.164L125.412 102.824V100.769L125.233 99.9653L124.251 98.7147L123.179 97.9107L122.196 98L123.536 91.6573L124.429 85.5827L125.323 79.8653L124.965 75.6667L126.037 71.9147L125.323 68.0733L123.983 62.624L120.141 55.7453L115.496 50.3853L109.511 43.6853L102.185 38.4147L95.396 34.9307L85.9267 32.2507L74.4027 31L64.1293 31.8933L55.0173 34.484L47.7813 38.3253L39.652 46.008L31.7907 55.656L28.3067 62.7133L26.9667 71.2893L26.4307 79.5973L26.9667 87.28V91.1213L26.4307 95.052L25.6267 98L25.0013 101.573V104.521L25.6267 108.899L26.1627 111.221V113.455L26.9667 116.492V119.083L27.5027 120.869L28.664 122.388L30.0933 123.371L32.0587 123.639L33.488 123.371L34.828 122.388L36.704 131.143L38.58 139.183L40.0987 144.364L43.404 150.26L45.6373 153.119V153.833L42.5107 155.888L38.2227 159.015L30.808 166.34L21.3387 176.256L14.2813 180.097L7.40267 184.385L3.56133 187.333L1.06 190.817L-1.084 197.607L-3.85333 205.021L-5.81867 213.508L-6.444 222.263V231.553V241.469L-7.248 245.132L-8.40933 253.797L-10.196 261.033Z" fill="#484848" stroke="black" stroke-width="0.178667"/>
</mask>
<g mask="url(#mask0_461_6638)">
<rect x="-92.9186" y="28.4092" width="357.333" height="238.163" fill="#484848"/>
</g>
</g>
<defs>
<clipPath id="clip0_461_6638">
<rect width="180" height="220" fill="white"/>
</clipPath>
</defs>
</svg>
