<svg width="180" height="220" viewBox="0 0 180 220" fill="none" xmlns="http://www.w3.org/2000/svg">
<g clip-path="url(#clip0_461_6648)">
<path d="M0 0H180V220H0V0Z" fill="#B8B8B8"/>
<mask id="mask0_461_6648" style="mask-type:alpha" maskUnits="userSpaceOnUse" x="-5" y="21" width="199" height="256">
<path d="M-3.76538 210.614L10.9533 276.073H193L189.514 271.038C189.514 271.038 186.567 261.205 185.253 254.77C182.791 242.707 183.746 235.605 182.155 223.396C181.225 216.269 181.474 212.086 179.443 205.191C178.062 200.503 177.321 197.756 174.795 193.571C172.574 189.89 171.08 187.857 167.823 185.05C164.738 182.391 158.915 179.627 158.915 179.627C158.915 179.627 151.521 176.596 146.52 175.754C140.404 174.725 136.683 177.144 130.639 175.754C124.574 174.359 121.244 172.573 116.308 168.782C114.016 167.022 110.885 163.747 110.885 163.747C110.885 163.747 109.816 159.048 109.336 156C108.486 150.602 108.174 142.056 108.174 142.056L110.885 138.957C110.885 138.957 112.164 135.447 112.822 133.147C114.677 126.668 115.533 116.105 115.533 116.105C115.533 116.105 116.483 111.885 116.695 109.133C116.882 106.72 116.917 105.345 116.695 102.935C116.469 100.483 116.194 99.1101 115.533 96.738C115.148 95.3556 114.595 94.6694 114.371 93.252C114.159 91.9073 114.371 91.1274 114.371 89.766C114.371 88.1021 114.297 87.1675 114.371 85.5053C114.522 82.1501 115.578 80.3423 115.533 76.984C115.492 73.9252 114.371 69.2373 114.371 69.2373L111.66 64.9767C111.66 64.9767 109.594 60.6975 108.174 58.0047C106.722 55.2493 104.301 51.0326 104.301 51.0326C104.301 51.0326 102.986 49.9663 102.364 49.096C101.252 47.539 101.927 46.0049 100.815 44.448C99.6188 42.7738 98.353 42.3476 96.554 41.3493C95.2513 40.6265 94.3067 40.6275 93.068 39.8C91.645 38.8493 91.4706 37.5228 89.9693 36.7013C88.0927 35.6745 86.1178 37.3784 84.5466 35.9266C83.4525 34.9156 83.967 33.5717 82.9973 32.4406C82.3669 31.7053 81.9614 31.2472 81.0606 30.8913C79.9352 30.4467 79.1319 31.2007 77.962 30.8913C76.783 30.5795 76.2743 30.0048 75.2506 29.342C73.981 28.5198 73.1988 28.1098 72.152 27.018C71.0196 25.837 71.2864 24.2736 69.828 23.532C68.4796 22.8464 67.2373 24.3337 65.9546 23.532C65.4104 23.1918 65.3498 22.6884 64.7926 22.37C63.742 21.7696 62.845 21.9967 61.694 22.37C60.855 22.6421 60.5843 23.2253 59.7573 23.532C58.1972 24.1104 55.4966 23.532 55.4966 23.532C55.4966 23.532 52.527 23.2142 51.236 24.3066C50.6586 24.7952 50.074 25.856 50.074 25.856C50.074 25.856 48.7438 27.9076 48.1373 29.342C47.5223 30.7965 47.6931 31.8087 46.9753 33.2153C46.3838 34.3743 45.0386 35.9266 45.0386 35.9266C45.0386 35.9266 43.2458 37.0822 42.7146 38.2506C42.0887 39.6277 42.8686 40.6192 42.7146 42.124C42.4757 44.46 42.6329 46.1009 41.1653 47.934C40.7642 48.435 40.389 48.5831 40.0033 49.096C39.2265 50.1289 38.8413 52.1946 38.8413 52.1946C38.8413 52.1946 37.5593 52.4846 36.9046 52.9693C35.4817 54.0228 35.5266 55.4678 35.3553 57.23C35.1773 59.0616 36.13 61.878 36.13 61.878C36.13 61.878 34.4867 64.3698 33.806 66.1387C33.0811 68.0221 32.8602 69.1675 32.644 71.174C32.4494 72.9787 32.644 75.822 32.644 75.822C32.644 75.822 33.0776 83.4099 33.806 88.2167C34.2904 91.4138 34.4525 93.2456 35.3553 96.3507C36.3591 99.8032 38.8413 104.872 38.8413 104.872C38.8413 104.872 37.5475 105.43 36.9046 106.034C36.0157 106.869 35.3553 108.745 35.3553 108.745C35.3553 108.745 35.1078 110.196 35.3553 111.069C35.7356 112.411 37.6793 113.781 37.6793 113.781C37.6793 113.781 38.3951 115.666 38.8413 116.879C39.7828 119.439 39.7215 121.151 41.1653 123.464C42.3559 125.372 43.4763 126.107 45.0386 127.725C45.9304 128.648 47.3626 130.049 47.3626 130.049H50.4613L54.3346 129.274L57.046 136.246L60.1446 143.993V164.521L57.046 167.62C57.046 167.62 52.485 171.392 49.2993 173.43C45.4237 175.909 42.9943 176.874 38.8413 178.853C35.1117 180.63 33.0757 181.802 29.158 183.113C26.3399 184.057 24.7139 184.473 21.7986 185.05C17.6201 185.877 14.8344 184.457 10.9533 186.212C8.38962 187.371 7.37249 188.756 5.14329 190.473C2.67267 192.375 0.753446 192.967 -1.05404 195.508C-2.82935 198.004 -3.23092 199.851 -3.76538 202.867C-4.29328 205.846 -3.76538 210.614 -3.76538 210.614Z" fill="#484848" stroke="black"/>
</mask>
<g mask="url(#mask0_461_6648)">
<rect x="-190.847" y="-12.877" width="542.267" height="305.219" fill="#484848"/>
</g>
</g>
<defs>
<clipPath id="clip0_461_6648">
<rect width="180" height="220" fill="white"/>
</clipPath>
</defs>
</svg>
