<svg width="54" height="48" viewBox="0 0 54 48" fill="none" xmlns="http://www.w3.org/2000/svg">
<path d="M30.171 15.3771C30.5357 15.3617 30.713 15.3465 31.0724 15.316L31.0879 15.3147V13.6649C31.6016 13.6223 31.8666 13.5928 32.3347 13.5407L32.478 13.5247C32.6673 13.3012 32.8064 13.139 32.9466 12.9753C33.08 12.8196 33.2146 12.6625 33.3948 12.4499C32.478 12.5746 32.0196 12.6196 31.0879 12.6989V11.5294C32.1674 11.4203 32.6992 11.3597 33.7497 11.2022C33.7793 11.2256 33.7978 11.2451 33.8162 11.2646C33.8346 11.2841 33.853 11.3036 33.8827 11.327L33.981 11.3122L33.9915 11.3107L33.9964 11.3099L34.0003 11.3094L34.0108 11.3078C34.344 11.2575 34.5472 11.2269 34.903 11.1713V10.0649C33.38 10.3145 32.741 10.3972 31.2035 10.5373C30.8337 10.9582 30.5408 11.2816 30.171 11.6864V15.3771Z" fill="#999999"/>
<path d="M21.6176 15.0288C23.2702 15.1909 23.8211 15.2075 23.8211 15.2075V14.2848C23.1128 14.2403 22.7492 14.2102 22.0426 14.1506C20.2167 13.9722 20.0118 13.2586 20.0118 12.573C20.0118 11.8737 20.4526 11.2931 21.9796 11.4419C22.412 11.485 22.6226 11.4999 22.9328 11.5218C23.0516 11.5302 23.1857 11.5397 23.3517 11.5521C23.5461 11.3827 23.6901 11.2539 23.8335 11.1255C23.9799 10.9946 24.1261 10.8638 24.3245 10.691C23.2071 10.6314 22.7667 10.5937 21.6489 10.4883C20.5769 10.3691 19.8073 10.5625 19.3823 11.128C19.162 11.4406 19.0359 11.8724 19.0359 12.438C19.0359 13.0036 19.146 13.465 19.3823 13.8368C19.7919 14.5378 20.5629 14.9246 21.6176 15.0288Z" fill="#999999"/>
<path d="M26.6467 15.3775V11.6884C25.4572 11.6884 24.9584 11.6628 23.7689 11.5879L23.8039 11.5563C24.1669 11.2297 24.354 11.0614 24.7281 10.7098C27.2159 10.8305 28.2551 10.8209 30.7276 10.6245C30.3413 11.0327 30.1569 11.2263 29.7705 11.6196C29.7705 11.6196 28.903 11.6731 27.6048 11.6884V15.3775H26.6467Z" fill="#999999"/>
<path fill-rule="evenodd" clip-rule="evenodd" d="M15.765 20.4011C8.2041 19.0917 2.7832 11.9478 2.7832 4.21018C4.0336 9.79304 6.62668 11.7108 6.74232 11.7964L6.74606 11.7991C2.78087 7.6169 3.36291 0.00250655 3.36291 0.00250655C3.36291 0.00250655 4.68727 11.9594 15.9657 16.3773C15.9171 15.4864 15.8797 14.5539 15.8797 13.7811C15.8797 12.3974 15.9287 11.6714 15.9663 11.1146C15.9896 10.7683 16.0085 10.4874 16.0085 10.1545C16.0085 9.86594 15.9337 9.58865 15.8417 9.24723C15.6566 8.56123 15.4016 7.6163 15.5432 5.80046C15.5432 5.80046 20.7796 7.05355 26.999 7.05355C33.219 7.05355 38.455 5.80046 38.455 5.80046C38.5971 7.61839 38.342 8.56454 38.157 9.25074C38.0651 9.59168 37.9904 9.8685 37.9904 10.1561C37.9904 10.4882 38.0093 10.7685 38.0327 11.1143C38.0702 11.671 38.1192 12.3973 38.1192 13.7827C38.1192 14.5556 38.0818 15.488 38.0328 16.3789C49.3125 11.9594 50.637 0 50.637 0C50.637 0 51.2161 7.61589 47.2531 11.7968C47.2531 11.7968 49.9371 9.92108 51.2161 4.21018C51.2161 11.9478 45.7957 19.0917 38.2306 20.4023C38.2306 20.4023 36.9715 24.5525 31.2286 25.5879C31.2286 25.5879 31.2314 25.5918 31.2371 25.5991C31.2414 25.6046 31.2476 25.6123 31.2556 25.6217C31.9354 26.2528 32.8554 26.8322 34.0938 27.2557C34.6131 27.4269 35.1425 27.5661 35.6787 27.6726C35.6787 27.6726 34.3398 28.125 33.1372 28.125C32.4919 28.125 31.4609 27.9365 30.5213 27.3804C29.8768 28.2049 28.8782 29.9411 29.2015 33.8712C29.1466 33.7487 28.6779 32.6635 28.2835 29.8431C28.2835 29.8431 28.1771 31.3847 29.6453 38.8951C28.4879 32.8811 31.6461 28.2208 31.6461 28.2208C32.6489 28.6143 33.854 28.4367 33.854 28.4367C30.8338 31.8794 30.6369 37.2731 30.8504 40.4557L31.4321 40.7772L32.2101 42.4755L31.1575 43.0419L30.2574 43.5163C28.4851 41.0114 27.9556 37.6874 27.9254 37.4823C27.9402 37.6846 28.1996 40.6833 29.9524 43.6847L28.8084 44.2966C28.8084 44.2966 27.7254 42.0165 27.7101 40.6242C27.7101 40.6242 27.6698 42.292 28.4781 44.4955L26.9978 45.2929L25.5172 44.4955C26.3271 42.2916 26.2855 40.6242 26.2855 40.6242C26.2701 42.0165 25.1873 44.2966 25.1873 44.2966L24.0428 43.6847C25.7956 40.6837 26.0549 37.6846 26.0703 37.4823C26.04 37.6874 25.5105 41.0114 23.7378 43.5163L22.8378 43.0419L21.7856 42.4755L22.5634 40.7772L23.1452 40.4557C23.3589 37.2739 23.1619 31.8794 20.1417 28.4367C20.1417 28.4367 21.3475 28.6143 22.3491 28.2208C22.3491 28.2208 25.5093 32.8795 24.3519 38.8938C25.8202 31.3843 25.7138 29.8419 25.7138 29.8419C25.3193 32.6611 24.8506 33.7474 24.7958 33.8699C25.1191 29.9399 24.1205 28.2037 23.476 27.3791C22.5344 27.9353 21.5038 28.1236 20.858 28.1236C19.6558 28.1236 18.3165 27.6714 18.3165 27.6714C18.8528 27.5648 19.382 27.4257 19.9014 27.2545C21.1397 26.8294 22.0598 26.2516 22.7396 25.6204C22.7584 25.5988 22.767 25.5867 22.767 25.5867C17.0237 24.5512 15.765 20.4011 15.765 20.4011ZM26.9994 9.36286C21.5902 9.36286 18.2659 8.70548 18.2659 8.70548C18.2659 8.70548 17.4796 13.3346 18.0863 17.0371C18.5064 19.592 21.0001 22.1806 22.8814 23.1624C23.3413 23.3824 23.7366 23.5188 24.0092 23.5603C24.0632 23.5675 24.1159 23.5741 24.1667 23.5741L24.1845 23.5713C24.5157 22.7872 24.6026 22.093 24.6026 21.6954C24.6026 16.905 21.577 18.0563 21.577 18.0563C21.577 18.0563 20.9349 16.6236 22.4081 16.6236C23.8346 16.6236 25.9366 17.6315 25.9366 17.6315C25.9366 17.6315 25.5151 17.9071 25.7287 18.3048C25.789 18.4117 25.8522 18.5197 25.9168 18.6303C26.3262 19.3304 26.7962 20.1346 26.9986 21.4265C27.2008 20.1338 27.6713 19.3293 28.081 18.6289L28.0829 18.6258C28.1466 18.5167 28.209 18.4102 28.2685 18.3048C28.4831 17.9071 28.0608 17.6315 28.0608 17.6315C28.0608 17.6315 30.1648 16.6261 31.5897 16.6261C33.0636 16.6261 32.4207 18.0588 32.4207 18.0588C32.4207 18.0588 29.3951 16.9074 29.3951 21.6979C29.3951 22.0952 29.4807 22.7892 29.8132 23.5737L29.831 23.5767C29.8818 23.5749 29.9346 23.5699 29.9886 23.5629C30.2611 23.5216 30.6563 23.385 31.1164 23.1648C32.9996 22.1806 35.4929 19.5912 35.9122 17.0371C36.5197 13.3325 35.7339 8.70548 35.7339 8.70548C35.7339 8.70548 32.4087 9.36286 26.9994 9.36286Z" fill="#999999"/>
<path d="M49.2675 13.1401C49.2675 13.1401 45.7929 19.3553 38.5381 20.7659C38.5381 20.7659 37.2263 24.5819 32.0098 25.8609C32.0098 25.8609 34.002 27.3991 36.9259 27.3991C41.8492 27.3991 45.8964 22.5452 46.5956 20.0664C43.9567 22.9217 41.8253 23.3143 41.8253 23.3143C45.4335 21.4448 48.3483 17.524 49.2675 13.1401Z" fill="#999999"/>
<path d="M7.40339 20.0664C8.10255 22.5452 12.1497 27.3991 17.0725 27.3991C19.9971 27.3991 21.9892 25.8609 21.9892 25.8609C16.7727 24.5831 15.4605 20.7659 15.4605 20.7659C8.20488 19.3553 4.73145 13.1401 4.73145 13.1401C5.65075 17.524 8.56513 21.4432 12.1736 23.3159C12.1736 23.3159 12.1723 23.3156 12.1698 23.3151C12.0615 23.292 9.9727 22.8465 7.40339 20.0664Z" fill="#999999"/>
<path d="M52.392 8.61973C52.2805 9.63257 52.2118 10.2566 52.51 11.1616C53.0878 12.9141 54 16.1556 54 20.0771C54 34.2217 42.658 47.25 27 47.25C11.3421 47.25 0 34.2217 0 20.0771C0 16.1556 0.911351 12.9141 1.48956 11.1616C1.78795 10.2572 1.71909 9.63324 1.60732 8.62054C1.5025 7.67081 1.35995 6.37919 1.4472 4.19385C1.4472 6.30783 2.79056 10.3722 2.79056 10.3722C2.79056 10.3722 0.945419 15.2664 0.945419 20.0771C0.945419 35.0617 13.0373 46.2999 26.9984 46.2999C40.9594 46.2999 53.0534 35.0637 53.0534 20.0771C53.0534 15.2664 51.2082 10.3722 51.2082 10.3722C51.2082 10.3722 52.5516 6.30783 52.5516 4.19385C52.6388 6.37878 52.4966 7.67014 52.392 8.61973Z" fill="#999999"/>
</svg>
