<svg width="26" height="17" viewBox="0 0 26 17" fill="none" xmlns="http://www.w3.org/2000/svg">
<g filter="url(#filter0_b_25_462)">
<path d="M25.2895 1.10857C24.9983 2.06699 24.6058 2.90124 24.1141 3.65872L24.1346 3.62485C23.6515 4.46775 23.0746 5.4416 22.4039 6.54641C21.8288 7.41866 21.5244 7.87021 21.4906 7.90107C21.3418 8.09637 21.2383 8.33569 21.2027 8.59872L21.2016 8.60662C21.2307 8.84595 21.3364 9.05479 21.4906 9.21058L21.9219 9.71406C24.2295 12.1969 25.5274 13.9082 25.8157 14.8482C25.8534 14.9521 25.875 15.0717 25.875 15.1971C25.875 15.4161 25.8081 15.6181 25.6949 15.7841L25.6971 15.7807C25.5073 15.985 25.242 16.1115 24.9487 16.1115C24.9164 16.1115 24.883 16.1103 24.8517 16.1069H24.856H22.019C22.0179 16.1069 22.0157 16.1069 22.0136 16.1069C21.6502 16.1069 21.3159 15.9737 21.0539 15.7525L21.0571 15.7547C20.6754 15.4262 20.3357 15.0706 20.0317 14.6845L20.022 14.671C19.5252 14.0832 19.0846 13.5884 18.7 13.1865C17.4189 11.9116 16.4736 11.2742 15.864 11.2742C15.8414 11.2719 15.8155 11.2708 15.7885 11.2708C15.6106 11.2708 15.4446 11.3284 15.3076 11.4266L15.3108 11.4243C15.1987 11.5711 15.1308 11.7607 15.1308 11.9651C15.1308 12.0057 15.1329 12.0441 15.1383 12.0836V12.0791C15.1092 12.4335 15.092 12.8456 15.092 13.2621C15.092 13.3965 15.0941 13.5297 15.0973 13.6629V13.6437V14.9521C15.1081 15.0051 15.1146 15.0661 15.1146 15.1282C15.1146 15.4014 14.996 15.6452 14.8105 15.8067L14.8094 15.8078C14.3921 16.0076 13.9047 16.125 13.3904 16.125C13.2804 16.125 13.1726 16.1194 13.0658 16.1092L13.0798 16.1103C11.3826 16.0765 9.80826 15.556 8.47008 14.6789L8.50782 14.7015C6.87851 13.6652 5.52847 12.3161 4.49977 10.7222L4.47065 10.6747C3.49371 9.31782 2.58254 7.78479 1.80616 6.16823L1.73068 5.99438C1.27671 5.08902 0.806572 3.97593 0.401129 2.83124L0.336431 2.6224C0.17145 2.10763 0.0517586 1.50932 0.00215661 0.889562L0 0.86134C0 0.290876 0.320616 0.00564456 0.961848 0.00564456H3.79779C3.82367 0.00338679 3.85386 0.00225761 3.88513 0.00225761C4.15255 0.00225761 4.39948 0.098213 4.59466 0.259644L4.5925 0.257386C4.80816 0.504612 4.96775 0.808282 5.04647 1.14695L5.0497 1.16049C5.5716 2.70368 6.12477 3.99964 6.76097 5.24141L6.68872 5.08676C7.20847 6.18178 7.7832 7.1244 8.43881 7.99477L8.41401 7.95977C8.98911 8.69881 9.43768 9.06834 9.75974 9.06834C9.76944 9.06947 9.7813 9.06947 9.79424 9.06947C9.95383 9.06947 10.0929 8.97915 10.1684 8.84369L10.1695 8.84143C10.2493 8.62694 10.2957 8.37746 10.2957 8.11782C10.2957 8.0625 10.2935 8.00718 10.2892 7.953V7.95977V3.58082C10.2665 3.06492 10.1458 2.58289 9.94413 2.15053L9.95275 2.17198C9.81904 1.87395 9.65837 1.61656 9.46751 1.3874L9.47075 1.39192C9.29391 1.20678 9.17314 0.964068 9.1354 0.693135L9.13432 0.686362C9.13432 0.494452 9.21843 0.321732 9.34998 0.208844L9.35106 0.207715C9.48153 0.0824087 9.65622 0.00677336 9.84708 0.00677336H9.8557H14.3264C14.3501 0.0033867 14.377 0.00225761 14.4051 0.00225761C14.6153 0.00225761 14.804 0.1016 14.9291 0.257386L14.9302 0.258515C15.0413 0.470745 15.107 0.724745 15.107 0.993419C15.107 1.03632 15.1049 1.07809 15.1017 1.11985V1.11421V6.95393C15.0995 6.98103 15.0984 7.01264 15.0984 7.04424C15.0984 7.25196 15.1534 7.44726 15.2483 7.6132L15.2461 7.60869C15.3249 7.73061 15.4564 7.80963 15.6052 7.80963H15.6063C15.7961 7.79608 15.9686 7.73061 16.1142 7.62675L16.111 7.62901C16.4042 7.41791 16.6566 7.17745 16.8755 6.90539L16.8798 6.89975C17.5343 6.12533 18.1382 5.26964 18.6644 4.35976L18.7064 4.28073C19.0774 3.63727 19.4785 2.84479 19.8419 2.03086L19.9087 1.86492L20.3897 0.857953C20.5568 0.35447 21.0054 0 21.5327 0C21.5532 0 21.5736 -8.18744e-08 21.5941 0.0011288H21.5909H24.4279C25.1942 0.0011288 25.4818 0.370274 25.2906 1.10857H25.2895Z" fill="white"/>
</g>
<defs>
<filter id="filter0_b_25_462" x="-1.5" y="-1.5" width="28.875" height="19.125" filterUnits="userSpaceOnUse" color-interpolation-filters="sRGB">
<feFlood flood-opacity="0" result="BackgroundImageFix"/>
<feGaussianBlur in="BackgroundImageFix" stdDeviation="0.75"/>
<feComposite in2="SourceAlpha" operator="in" result="effect1_backgroundBlur_25_462"/>
<feBlend mode="normal" in="SourceGraphic" in2="effect1_backgroundBlur_25_462" result="shape"/>
</filter>
</defs>
</svg>
