<svg width="180" height="220" viewBox="0 0 180 220" fill="none" xmlns="http://www.w3.org/2000/svg">
<g clip-path="url(#clip0_461_6637)">
<path d="M0 0H180V220H0V0Z" fill="#B8B8B8"/>
<mask id="mask0_461_6637" style="mask-type:alpha" maskUnits="userSpaceOnUse" x="-19" y="19" width="227" height="202">
<path d="M-11.9095 193.145C-15.1953 203.432 -18 220.118 -18 220.118L207.349 220.553C207.349 220.553 204.492 205.97 201.259 197.061C199.881 193.265 199.22 191.066 197.343 187.49C195.854 184.651 192.993 180.529 192.993 180.529C192.993 180.529 190.87 179.739 189.513 179.224C174.14 173.396 166.147 168.575 150.794 162.693C146.227 160.943 143.168 160.98 139.048 158.342C137.618 157.426 136.877 156.815 135.568 155.732C132.976 153.588 129.478 149.642 129.478 149.642L122.517 140.941L118.167 138.331H115.991V135.72C115.991 135.72 117.518 131.533 118.167 128.76C119.14 124.594 119.472 117.884 119.472 117.884C119.472 117.884 121.982 118.486 123.387 117.884C124.712 117.316 125.046 116.357 125.997 115.274C127.118 113.997 127.751 113.261 128.607 111.793C129.8 109.75 130.26 108.446 130.783 106.138C131.347 103.647 130.8 102.132 131.218 99.6124C131.562 97.5393 132.233 96.4734 132.523 94.392C132.897 91.6996 134.697 89.0623 132.523 87.4314C131.663 86.7867 130.985 86.4982 129.913 86.5613C128.999 86.615 127.737 87.4314 127.737 87.4314C127.737 87.4314 128.138 74.7061 128.172 66.5496C128.181 64.5109 128.172 61.3292 128.172 61.3292L131.218 63.5043C131.218 63.5043 131.331 62.1711 131.218 61.3292C130.873 58.7589 128.959 57.9612 127.737 55.6737C127.201 54.6684 126.432 53.0634 126.432 53.0634L129.042 53.4985C129.042 53.4985 129.7 52.4877 129.913 51.7583C130.246 50.6167 130.048 49.8946 129.913 48.7131C129.814 47.8524 129.478 46.5379 129.478 46.5379C129.478 46.5379 125.328 42.7161 122.517 40.4474C119.397 37.9289 117.521 36.678 114.251 34.3569C112.061 32.8018 111.07 31.4874 108.596 30.4415C106.508 29.559 104.835 30.3801 102.94 29.1364C101.008 27.8685 101.164 25.9117 99.46 24.351C97.3301 22.4003 95.7639 21.4499 92.9344 20.8707C90.9371 20.4619 89.7527 20.8707 87.714 20.8707C84.9957 20.8707 83.4621 21.0982 80.7534 20.8707C78.5266 20.6837 77.3323 19.9727 75.0979 20.0006C73.0312 20.0265 71.8883 20.393 69.8775 20.8707C67.264 21.4915 65.661 21.6734 63.3519 23.0459C61.1809 24.3364 60.1327 25.4149 58.5665 27.3963C57.3379 28.9506 55.9563 31.7466 55.9563 31.7466C55.9563 31.7466 54.6973 33.397 53.7811 34.3569C52.1138 36.1035 50.5596 36.4324 48.9957 38.2722C47.4671 40.0705 47.1801 41.478 45.9504 43.4926C44.7964 45.3834 42.9052 48.278 42.9052 48.278L45.9504 45.2328C45.9504 45.2328 45.9816 46.0292 45.9504 46.5379C45.8191 48.6829 44.2103 51.7583 44.2103 51.7583C44.2103 51.7583 41.7151 56.1461 38.9898 57.4138C37.8684 57.9355 35.9446 58.2839 35.9446 58.2839C35.9446 58.2839 36.6385 59.207 37.2497 59.589C38.6904 60.4894 41.6001 59.589 41.6001 59.589L43.3402 61.3292L42.9052 86.1263C42.9052 86.1263 41.0373 86.2195 40.295 86.9963C39.3487 87.9866 39.69 88.6078 39.8599 90.4766L40.295 95.262C40.4648 97.1309 41.6001 95.7795 41.6001 99.1774V107.878C41.6001 111.276 42.5684 110.569 43.3402 112.228C44.2381 114.159 44.2608 115.719 45.9504 117.014C46.9774 117.801 48.9957 118.319 48.9957 118.319H50.3008C50.3008 118.319 50.145 124.28 51.1709 127.89C51.8783 130.379 52.6314 131.662 53.7811 133.98C54.9982 136.435 57.2614 140.071 57.2614 140.071L59.8716 145.726V151.382L55.9563 154.427C55.9563 154.427 50.8707 158.485 47.2555 160.518C41.8652 163.549 38.1825 163.818 32.4643 166.173C26.2756 168.722 23.1521 171.016 16.803 173.134C13.1278 174.359 7.23215 175.744 7.23215 175.744H0.706591L-3.20874 177.484L-7.99415 182.269C-7.99415 182.269 -10.5359 188.845 -11.9095 193.145Z" fill="#484848" stroke="black" stroke-width="0.870074"/>
</mask>
<g mask="url(#mask0_461_6637)">
<rect x="-63.2439" y="11.7343" width="313.227" height="208.818" fill="#484848"/>
</g>
</g>
<defs>
<clipPath id="clip0_461_6637">
<rect width="180" height="220" fill="white"/>
</clipPath>
</defs>
</svg>
