<svg width="983" height="145" viewBox="0 0 983 145" fill="none" xmlns="http://www.w3.org/2000/svg">
<path d="M7.25744 15.5361H11.525V27.8256H20.2466C24.1798 27.8256 27.1959 25.7191 29.2946 21.506C29.8543 20.2623 30.1341 18.7853 30.1341 17.0752V15.5361H34.4017V17.425C34.4017 21.4982 32.9792 25.0273 30.1341 28.0122C33.0569 28.463 35.6765 29.7145 37.9929 31.7667C41.0711 34.7516 42.6102 38.3351 42.6102 42.5171V49H38.3427V43.1934C38.3427 37.7987 35.7231 34.2153 30.4839 32.443C28.9759 32.2098 27.4912 32.0932 26.0299 32.0932H11.525V49H7.25744V32.0932H0.261505V27.8256H7.25744V15.5361ZM46.9011 15.5361H75.2346C80.9402 15.5361 85.3243 18.6065 88.387 24.7474C88.9622 26.5975 89.2498 28.02 89.2498 29.0149V49H61.919C55.2651 49 50.5467 45.7585 47.7639 39.2756C47.1887 37.6433 46.9011 36.0497 46.9011 34.4951V15.5361ZM51.1686 19.8036V34.1453C51.1686 39.4156 53.9592 42.8902 59.5404 44.5692C60.7064 44.6781 61.6159 44.7325 62.2688 44.7325H84.9823V29.528C84.9823 25.2216 82.5337 22.0967 77.6365 20.1534C76.7815 19.9202 75.9808 19.8036 75.2346 19.8036H51.1686ZM93.5406 15.4661H104.478C104.478 15.8237 106.716 24.2344 111.194 40.6982H118.423C118.423 40.4339 120.662 32.0232 125.139 15.4661H136.076V49H131.832V19.8736H128.66C128.38 19.8736 127.207 24.11 125.139 32.5829C124.906 33.1892 123.724 37.3712 121.594 45.1289H107.836L101.12 19.8736H97.9481V49H93.5406V15.4661ZM153.799 15.6061H182.599V19.8736H154.149C150.06 19.8736 146.935 22.26 144.774 27.0328C144.774 27.4059 144.72 27.6857 144.611 27.8723H182.272C182.49 27.9034 182.599 28.02 182.599 28.2221V49H178.355V32.1398H144.448V49H140.18V29.9244C140.18 23.9235 143.305 19.4383 149.555 16.4689C151.28 15.8937 152.695 15.6061 153.799 15.6061ZM186.82 15.5361H191.041V27.5225H225.041V15.5361H229.262V49H225.041V31.7434H191.041V49H186.82V15.5361ZM240.339 15.4895H261.117C267.164 15.4895 271.634 18.2956 274.525 23.9079C275.443 25.6802 275.901 27.7401 275.901 30.0877V49H233.459V44.7092H240.339V15.4895ZM244.63 19.7803V44.7092H271.611V30.4375C271.611 25.1672 268.859 21.677 263.355 19.9669C262.376 19.8425 261.575 19.7803 260.953 19.7803H244.63ZM293.718 15.6061H322.518V19.8736H294.067C289.979 19.8736 286.854 22.26 284.693 27.0328C284.693 27.4059 284.638 27.6857 284.53 27.8723H322.191C322.409 27.9034 322.518 28.02 322.518 28.2221V49H318.273V32.1398H284.366V49H280.099V29.9244C280.099 23.9235 283.224 19.4383 289.473 16.4689C291.199 15.8937 292.614 15.6061 293.718 15.6061Z" fill="white"/>
<path d="M7.25744 15.5361V13.0361H4.75744V15.5361H7.25744ZM11.525 15.5361H14.025V13.0361H11.525V15.5361ZM11.525 27.8256H9.02496V30.3256H11.525V27.8256ZM29.2946 21.506L31.5324 22.6207L31.5543 22.5767L31.5744 22.5319L29.2946 21.506ZM30.1341 15.5361V13.0361H27.6341V15.5361H30.1341ZM34.4017 15.5361H36.9017V13.0361H34.4017V15.5361ZM30.1341 28.0122L28.3245 26.2873L25.0212 29.7531L29.753 30.483L30.1341 28.0122ZM37.9929 31.7667L39.7333 29.9719L39.6929 29.9327L39.6507 29.8954L37.9929 31.7667ZM42.6102 49V51.5H45.1102V49H42.6102ZM38.3427 49H35.8427V51.5H38.3427V49ZM30.4839 32.443L31.285 30.0748L31.08 30.0054L30.866 29.9723L30.4839 32.443ZM11.525 32.0932V29.5932H9.02496V32.0932H11.525ZM11.525 49V51.5H14.025V49H11.525ZM7.25744 49H4.75744V51.5H7.25744V49ZM7.25744 32.0932H9.75744V29.5932H7.25744V32.0932ZM0.261505 32.0932H-2.23849V34.5932H0.261505V32.0932ZM0.261505 27.8256V25.3256H-2.23849V27.8256H0.261505ZM7.25744 27.8256V30.3256H9.75744V27.8256H7.25744ZM7.25744 18.0361H11.525V13.0361H7.25744V18.0361ZM9.02496 15.5361V27.8256H14.025V15.5361H9.02496ZM11.525 30.3256H20.2466V25.3256H11.525V30.3256ZM20.2466 30.3256C22.6879 30.3256 24.9326 29.6625 26.8901 28.2953C28.8234 26.945 30.3474 24.9993 31.5324 22.6207L27.0569 20.3912C26.1431 22.2257 25.1097 23.4399 24.027 24.1962C22.9684 24.9355 21.7385 25.3256 20.2466 25.3256V30.3256ZM31.5744 22.5319C32.3112 20.8947 32.6341 19.052 32.6341 17.0752H27.6341C27.6341 18.5187 27.3975 19.6298 27.0148 20.4801L31.5744 22.5319ZM32.6341 17.0752V15.5361H27.6341V17.0752H32.6341ZM30.1341 18.0361H34.4017V13.0361H30.1341V18.0361ZM31.9017 15.5361V17.425H36.9017V15.5361H31.9017ZM31.9017 17.425C31.9017 20.8471 30.7325 23.7609 28.3245 26.2873L31.9438 29.737C35.2259 26.2936 36.9017 22.1493 36.9017 17.425H31.9017ZM29.753 30.483C32.1788 30.8572 34.3603 31.8885 36.3351 33.638L39.6507 29.8954C36.9926 27.5406 33.935 26.0689 30.5153 25.5414L29.753 30.483ZM36.2526 33.5614C38.859 36.0889 40.1102 39.0305 40.1102 42.5171H45.1102C45.1102 37.6397 43.2832 33.4143 39.7333 29.9719L36.2526 33.5614ZM40.1102 42.5171V49H45.1102V42.5171H40.1102ZM42.6102 46.5H38.3427V51.5H42.6102V46.5ZM40.8427 49V43.1934H35.8427V49H40.8427ZM40.8427 43.1934C40.8427 40.0822 40.0816 37.2898 38.3963 34.9844C36.7148 32.6843 34.2716 31.0851 31.285 30.0748L29.6828 34.8111C31.9355 35.5732 33.4216 36.6518 34.3598 37.9352C35.2941 39.2132 35.8427 40.9099 35.8427 43.1934H40.8427ZM30.866 29.9723C29.2371 29.7204 27.6246 29.5932 26.0299 29.5932V34.5932C27.3578 34.5932 28.7147 34.6991 30.1019 34.9136L30.866 29.9723ZM26.0299 29.5932H11.525V34.5932H26.0299V29.5932ZM9.02496 32.0932V49H14.025V32.0932H9.02496ZM11.525 46.5H7.25744V51.5H11.525V46.5ZM9.75744 49V32.0932H4.75744V49H9.75744ZM7.25744 29.5932H0.261505V34.5932H7.25744V29.5932ZM2.76151 32.0932V27.8256H-2.23849V32.0932H2.76151ZM0.261505 30.3256H7.25744V25.3256H0.261505V30.3256ZM9.75744 27.8256V15.5361H4.75744V27.8256H9.75744ZM46.9011 15.5361V13.0361H44.4011V15.5361H46.9011ZM88.387 24.7474L90.7742 24.0052L90.7143 23.8124L90.6242 23.6317L88.387 24.7474ZM89.2498 49V51.5H91.7498V49H89.2498ZM47.7639 39.2757L45.406 40.1065L45.4337 40.1852L45.4666 40.2618L47.7639 39.2757ZM51.1686 19.8036V17.3036H48.6686V19.8036H51.1686ZM59.5404 44.5692L58.8202 46.9633L59.0594 47.0352L59.3081 47.0584L59.5404 44.5692ZM84.9823 44.7325V47.2325H87.4823V44.7325H84.9823ZM77.6366 20.1534L78.5587 17.8297L78.429 17.7782L78.2943 17.7415L77.6366 20.1534ZM46.9011 18.0361H75.2346V13.0361H46.9011V18.0361ZM75.2346 18.0361C77.61 18.0361 79.6244 18.6657 81.3677 19.8867C83.1358 21.1249 84.7532 23.063 86.1498 25.8632L90.6242 23.6317C88.9581 20.291 86.8521 17.6234 84.236 15.7912C81.5953 13.9417 78.5648 13.0361 75.2346 13.0361V18.0361ZM85.9997 25.4897C86.5568 27.2816 86.7498 28.4096 86.7498 29.0149H91.7498C91.7498 27.6303 91.3675 25.9134 90.7742 24.0052L85.9997 25.4897ZM86.7498 29.0149V49H91.7498V29.0149H86.7498ZM89.2498 46.5H61.919V51.5H89.2498V46.5ZM61.919 46.5C59.0131 46.5 56.6835 45.7985 54.8054 44.5083C52.9174 43.2113 51.3096 41.1977 50.0612 38.2895L45.4666 40.2618C47.0011 43.8365 49.1438 46.6851 51.9742 48.6295C54.8145 50.5808 58.171 51.5 61.919 51.5V46.5ZM50.1218 38.4448C49.6301 37.0493 49.4011 35.7366 49.4011 34.4951H44.4011C44.4011 36.3629 44.7473 38.2372 45.406 40.1065L50.1218 38.4448ZM49.4011 34.4951V15.5361H44.4011V34.4951H49.4011ZM48.6686 19.8036V34.1453H53.6686V19.8036H48.6686ZM48.6686 34.1453C48.6686 37.2414 49.4982 40.0106 51.3124 42.2694C53.1085 44.5059 55.6931 46.0225 58.8202 46.9633L60.2606 42.1752C57.8065 41.437 56.2052 40.3767 55.2107 39.1385C54.2343 37.9228 53.6686 36.3194 53.6686 34.1453H48.6686ZM59.3081 47.0584C60.5011 47.1698 61.5004 47.2325 62.2688 47.2325V42.2325C61.7313 42.2325 60.9117 42.1864 59.7727 42.0801L59.3081 47.0584ZM62.2688 47.2325H84.9823V42.2325H62.2688V47.2325ZM87.4823 44.7325V29.528H82.4823V44.7325H87.4823ZM87.4823 29.528C87.4823 26.8662 86.7127 24.4532 85.1137 22.4126C83.541 20.4055 81.2884 18.9129 78.5587 17.8297L76.7144 22.4772C78.8819 23.3373 80.3021 24.3787 81.178 25.4965C82.0276 26.5808 82.4823 27.8833 82.4823 29.528H87.4823ZM78.2943 17.7415C77.2638 17.4605 76.24 17.3036 75.2346 17.3036V22.3036C75.7217 22.3036 76.2992 22.38 76.9788 22.5653L78.2943 17.7415ZM75.2346 17.3036H51.1686V22.3036H75.2346V17.3036ZM93.5406 15.4661V12.9661H91.0406V15.4661H93.5406ZM104.478 15.4661H106.978V12.9661H104.478V15.4661ZM111.194 40.6982L108.781 41.3542L109.283 43.1982H111.194V40.6982ZM118.423 40.6982V43.1982H120.923V40.6982H118.423ZM125.139 15.4661V12.9661H123.225L122.726 14.8135L125.139 15.4661ZM136.076 15.4661H138.576V12.9661H136.076V15.4661ZM136.076 49V51.5H138.576V49H136.076ZM131.832 49H129.332V51.5H131.832V49ZM131.832 19.8736H134.332V17.3736H131.832V19.8736ZM125.139 32.5829L127.472 33.4803L127.53 33.331L127.568 33.1756L125.139 32.5829ZM121.594 45.1289V47.6289H123.5L124.005 45.7908L121.594 45.1289ZM107.836 45.1289L105.42 45.7714L105.914 47.6289H107.836V45.1289ZM101.12 19.8736L103.536 19.2311L103.042 17.3736H101.12V19.8736ZM97.9481 19.8736V17.3736H95.4481V19.8736H97.9481ZM97.9481 49V51.5H100.448V49H97.9481ZM93.5406 49H91.0406V51.5H93.5406V49ZM93.5406 17.9662H104.478V12.9661H93.5406V17.9662ZM101.978 15.4661C101.978 15.701 102.013 15.8996 102.017 15.9243C102.029 15.9989 102.043 16.0709 102.055 16.1299C102.08 16.2506 102.112 16.3948 102.149 16.5521C102.225 16.8707 102.334 17.3102 102.475 17.8627C102.758 18.9713 103.181 20.5805 103.741 22.6854C104.862 26.8974 106.542 33.1213 108.781 41.3542L113.606 40.0421C111.368 31.8113 109.69 25.5979 108.573 21.3993C108.013 19.2988 107.596 17.7093 107.32 16.6258C107.181 16.0824 107.08 15.6775 107.016 15.4034C106.983 15.2643 106.963 15.175 106.953 15.1252C106.917 14.9505 106.978 15.1783 106.978 15.4661H101.978ZM111.194 43.1982H118.423V38.1982H111.194V43.1982ZM120.923 40.6982C120.923 40.8674 120.904 40.9964 120.902 41.0139C120.896 41.0563 120.891 41.086 120.889 41.0946C120.886 41.1127 120.886 41.1134 120.892 41.0861C120.903 41.0348 120.924 40.9452 120.957 40.8081C121.023 40.5376 121.124 40.1361 121.263 39.5972C121.541 38.5222 121.959 36.9361 122.518 34.835C123.636 30.6346 125.314 24.3965 127.552 16.1188L122.726 14.8135C120.487 23.0928 118.807 29.3386 117.686 33.5489C117.126 35.6531 116.704 37.254 116.422 38.3478C116.281 38.8932 116.173 39.3215 116.099 39.6263C116.062 39.7767 116.03 39.9112 116.007 40.0202C115.995 40.073 115.981 40.138 115.969 40.2045C115.963 40.2372 115.955 40.2871 115.947 40.3457C115.942 40.3794 115.923 40.5207 115.923 40.6982H120.923ZM125.139 17.9662H136.076V12.9661H125.139V17.9662ZM133.576 15.4661V49H138.576V15.4661H133.576ZM136.076 46.5H131.832V51.5H136.076V46.5ZM134.332 49V19.8736H129.332V49H134.332ZM131.832 17.3736H128.66V22.3736H131.832V17.3736ZM128.66 17.3736C127.861 17.3736 127.314 17.7412 127.083 17.9231C126.831 18.122 126.669 18.3268 126.587 18.4368C126.42 18.6623 126.311 18.8812 126.255 18.9991C126.131 19.2617 126.017 19.5672 125.918 19.8566C125.711 20.4595 125.458 21.3125 125.161 22.3834C124.563 24.5401 123.745 27.7479 122.71 31.9902L127.568 33.1756C128.6 28.9449 129.403 25.7981 129.979 23.7184C130.269 22.6711 130.491 21.9355 130.647 21.4793C130.685 21.3686 130.716 21.2844 130.74 21.223C130.765 21.1581 130.775 21.1368 130.771 21.1452C130.769 21.1504 130.757 21.1749 130.736 21.2123C130.717 21.2459 130.675 21.3186 130.607 21.4096C130.551 21.4866 130.411 21.6666 130.18 21.8489C129.97 22.0142 129.442 22.3736 128.66 22.3736V17.3736ZM122.806 31.6854C122.636 32.1267 122.241 33.4792 121.672 35.4944C121.079 37.5944 120.249 40.5863 119.184 44.467L124.005 45.7908C125.07 41.9138 125.895 38.9359 126.484 36.8538C126.778 35.812 127.011 35.001 127.184 34.4164C127.27 34.1237 127.34 33.8948 127.393 33.7256C127.451 33.5379 127.475 33.4743 127.472 33.4803L122.806 31.6854ZM121.594 42.6289H107.836V47.6289H121.594V42.6289ZM110.252 44.4864L103.536 19.2311L98.7035 20.5161L105.42 45.7714L110.252 44.4864ZM101.12 17.3736H97.9481V22.3736H101.12V17.3736ZM95.4481 19.8736V49H100.448V19.8736H95.4481ZM97.9481 46.5H93.5406V51.5H97.9481V46.5ZM96.0406 49V15.4661H91.0406V49H96.0406ZM182.599 15.6061H185.099V13.1061H182.599V15.6061ZM182.599 19.8736V22.3736H185.099V19.8736H182.599ZM144.774 27.0328L142.497 26.0016L142.274 26.4932V27.0328H144.774ZM144.611 27.8723L142.452 26.6126L140.258 30.3723H144.611V27.8723ZM182.272 27.8723L182.626 25.3974L182.45 25.3723H182.272V27.8723ZM182.599 49V51.5H185.099V49H182.599ZM178.355 49H175.855V51.5H178.355V49ZM178.355 32.1398H180.855V29.6398H178.355V32.1398ZM144.448 32.1398V29.6398H141.948V32.1398H144.448ZM144.448 49V51.5H146.948V49H144.448ZM140.18 49H137.68V51.5H140.18V49ZM149.555 16.4689L148.764 14.0972L148.62 14.1454L148.482 14.2108L149.555 16.4689ZM153.799 18.1061H182.599V13.1061H153.799V18.1061ZM180.099 15.6061V19.8736H185.099V15.6061H180.099ZM182.599 17.3736H154.149V22.3736H182.599V17.3736ZM154.149 17.3736C151.58 17.3736 149.238 18.1365 147.221 19.6765C145.239 21.1901 143.693 23.3591 142.497 26.0016L147.052 28.0639C148.016 25.9337 149.113 24.5231 150.256 23.6503C151.364 22.8039 152.629 22.3736 154.149 22.3736V17.3736ZM142.274 27.0328C142.274 27.1052 142.268 27.1021 142.279 27.0453C142.29 26.9927 142.327 26.8253 142.452 26.6126L146.77 29.132C147.211 28.3771 147.274 27.5671 147.274 27.0328H142.274ZM144.611 30.3723H182.272V25.3723H144.611V30.3723ZM181.919 30.3471C181.675 30.3123 181.149 30.1808 180.69 29.6888C180.205 29.1698 180.099 28.5782 180.099 28.2221H185.099C185.099 27.6638 184.938 26.9128 184.345 26.2772C183.777 25.6687 183.088 25.4634 182.626 25.3974L181.919 30.3471ZM180.099 28.2221V49H185.099V28.2221H180.099ZM182.599 46.5H178.355V51.5H182.599V46.5ZM180.855 49V32.1398H175.855V49H180.855ZM178.355 29.6398H144.448V34.6398H178.355V29.6398ZM141.948 32.1398V49H146.948V32.1398H141.948ZM144.448 46.5H140.18V51.5H144.448V46.5ZM142.68 49V29.9244H137.68V49H142.68ZM142.68 29.9244C142.68 27.3827 143.333 25.2712 144.575 23.4889C145.831 21.6859 147.793 20.0739 150.628 18.727L148.482 14.2108C145.067 15.8333 142.341 17.9486 140.473 20.6307C138.589 23.3336 137.68 26.4652 137.68 29.9244H142.68ZM150.345 18.8406C151.959 18.3028 153.081 18.1061 153.799 18.1061V13.1061C152.309 13.1061 150.602 13.4846 148.764 14.0972L150.345 18.8406ZM186.82 15.5361V13.0361H184.32V15.5361H186.82ZM191.041 15.5361H193.541V13.0361H191.041V15.5361ZM191.041 27.5225H188.541V30.0225H191.041V27.5225ZM225.041 27.5225V30.0225H227.541V27.5225H225.041ZM225.041 15.5361V13.0361H222.541V15.5361H225.041ZM229.262 15.5361H231.762V13.0361H229.262V15.5361ZM229.262 49V51.5H231.762V49H229.262ZM225.041 49H222.541V51.5H225.041V49ZM225.041 31.7434H227.541V29.2434H225.041V31.7434ZM191.041 31.7434V29.2434H188.541V31.7434H191.041ZM191.041 49V51.5H193.541V49H191.041ZM186.82 49H184.32V51.5H186.82V49ZM186.82 18.0361H191.041V13.0361H186.82V18.0361ZM188.541 15.5361V27.5225H193.541V15.5361H188.541ZM191.041 30.0225H225.041V25.0225H191.041V30.0225ZM227.541 27.5225V15.5361H222.541V27.5225H227.541ZM225.041 18.0361H229.262V13.0361H225.041V18.0361ZM226.762 15.5361V49H231.762V15.5361H226.762ZM229.262 46.5H225.041V51.5H229.262V46.5ZM227.541 49V31.7434H222.541V49H227.541ZM225.041 29.2434H191.041V34.2434H225.041V29.2434ZM188.541 31.7434V49H193.541V31.7434H188.541ZM191.041 46.5H186.82V51.5H191.041V46.5ZM189.32 49V15.5361H184.32V49H189.32ZM240.339 15.4895V12.9895H237.839V15.4895H240.339ZM274.525 23.9079L272.303 25.053L272.305 25.057L274.525 23.9079ZM275.901 49V51.5H278.401V49H275.901ZM233.459 49H230.959V51.5H233.459V49ZM233.459 44.7092V42.2092H230.959V44.7092H233.459ZM240.339 44.7092V47.2092H242.839V44.7092H240.339ZM244.63 19.7803V17.2803H242.13V19.7803H244.63ZM244.63 44.7092H242.13V47.2092H244.63V44.7092ZM271.611 44.7092V47.2092H274.111V44.7092H271.611ZM263.355 19.9669L264.097 17.5795L263.888 17.5144L263.67 17.4868L263.355 19.9669ZM240.339 17.9895H261.117V12.9895H240.339V17.9895ZM261.117 17.9895C263.74 17.9895 265.894 18.5932 267.675 19.7114C269.462 20.8333 271.022 22.5666 272.303 25.0529L276.748 22.7629C275.137 19.637 273.016 17.161 270.334 15.4768C267.645 13.7888 264.54 12.9895 261.117 12.9895V17.9895ZM272.305 25.057C273.009 26.4165 273.401 28.0696 273.401 30.0877H278.401C278.401 27.4106 277.877 24.9439 276.746 22.7588L272.305 25.057ZM273.401 30.0877V49H278.401V30.0877H273.401ZM275.901 46.5H233.459V51.5H275.901V46.5ZM235.959 49V44.7092H230.959V49H235.959ZM233.459 47.2092H240.339V42.2092H233.459V47.2092ZM242.839 44.7092V15.4895H237.839V44.7092H242.839ZM242.13 19.7803V44.7092H247.13V19.7803H242.13ZM244.63 47.2092H271.611V42.2092H244.63V47.2092ZM274.111 44.7092V30.4375H269.111V44.7092H274.111ZM274.111 30.4375C274.111 27.3491 273.295 24.5835 271.51 22.3193C269.74 20.0746 267.189 18.5403 264.097 17.5795L262.613 22.3543C265.025 23.1035 266.602 24.1694 267.583 25.4149C268.55 26.6409 269.111 28.2555 269.111 30.4375H274.111ZM263.67 17.4868C262.639 17.3559 261.723 17.2803 260.953 17.2803V22.2803C261.427 22.2803 262.112 22.3291 263.04 22.447L263.67 17.4868ZM260.953 17.2803H244.63V22.2803H260.953V17.2803ZM322.518 15.6061H325.018V13.1061H322.518V15.6061ZM322.518 19.8736V22.3736H325.018V19.8736H322.518ZM284.693 27.0328L282.415 26.0016L282.193 26.4932V27.0328H284.693ZM284.53 27.8723L282.37 26.6126L280.177 30.3723H284.53V27.8723ZM322.191 27.8723L322.545 25.3974L322.369 25.3723H322.191V27.8723ZM322.518 49V51.5H325.018V49H322.518ZM318.273 49H315.773V51.5H318.273V49ZM318.273 32.1398H320.773V29.6398H318.273V32.1398ZM284.366 32.1398V29.6398H281.866V32.1398H284.366ZM284.366 49V51.5H286.866V49H284.366ZM280.099 49H277.599V51.5H280.099V49ZM289.473 16.4689L288.683 14.0972L288.538 14.1454L288.401 14.2108L289.473 16.4689ZM293.718 18.1061H322.518V13.1061H293.718V18.1061ZM320.018 15.6061V19.8736H325.018V15.6061H320.018ZM322.518 17.3736H294.067V22.3736H322.518V17.3736ZM294.067 17.3736C291.498 17.3736 289.156 18.1365 287.14 19.6765C285.158 21.1901 283.612 23.3591 282.415 26.0016L286.97 28.0639C287.935 25.9337 289.032 24.5231 290.175 23.6503C291.283 22.8039 292.548 22.3736 294.067 22.3736V17.3736ZM282.193 27.0328C282.193 27.1052 282.187 27.1021 282.198 27.0453C282.208 26.9927 282.246 26.8253 282.37 26.6126L286.689 29.132C287.129 28.3771 287.193 27.5671 287.193 27.0328H282.193ZM284.53 30.3723H322.191V25.3723H284.53V30.3723ZM321.838 30.3471C321.593 30.3123 321.068 30.1808 320.608 29.6888C320.124 29.1698 320.018 28.5782 320.018 28.2221H325.018C325.018 27.6638 324.857 26.9128 324.264 26.2772C323.696 25.6687 323.007 25.4634 322.545 25.3974L321.838 30.3471ZM320.018 28.2221V49H325.018V28.2221H320.018ZM322.518 46.5H318.273V51.5H322.518V46.5ZM320.773 49V32.1398H315.773V49H320.773ZM318.273 29.6398H284.366V34.6398H318.273V29.6398ZM281.866 32.1398V49H286.866V32.1398H281.866ZM284.366 46.5H280.099V51.5H284.366V46.5ZM282.599 49V29.9244H277.599V49H282.599ZM282.599 29.9244C282.599 27.3827 283.252 25.2712 284.494 23.4889C285.75 21.6859 287.712 20.0739 290.546 18.727L288.401 14.2108C284.986 15.8333 282.26 17.9486 280.391 20.6307C278.508 23.3336 277.599 26.4652 277.599 29.9244H282.599ZM290.264 18.8406C291.877 18.3028 293 18.1061 293.718 18.1061V13.1061C292.228 13.1061 290.521 13.4846 288.683 14.0972L290.264 18.8406Z" fill="white"/>
<path d="M28.4169 19.5002H40.7231V54.9395H65.8736C77.216 54.9395 85.9133 48.8648 91.9655 36.7155C93.5794 33.129 94.3864 28.87 94.3864 23.9385V19.5002H106.693V24.9472C106.693 36.6931 102.591 46.8698 94.3864 55.4775C102.815 56.7776 110.369 60.3865 117.049 66.3043C125.925 74.9119 130.364 85.2456 130.364 97.3053V116H118.057V99.2554C118.057 83.6989 110.503 73.3653 95.3951 68.2545C91.0465 67.582 86.7651 67.2458 82.5509 67.2458H40.7231V116H28.4169V67.2458H8.24271V54.9395H28.4169V19.5002ZM148.246 19.5002H229.951C246.405 19.5002 259.047 28.3544 267.879 46.0629C269.538 51.3978 270.367 55.4999 270.367 58.3691V116H191.553C172.365 116 158.759 106.653 150.734 87.9579C149.075 83.2506 148.246 78.6554 148.246 74.1722V19.5002ZM160.552 31.8065V73.1635C160.552 88.3614 168.6 98.3812 184.694 103.223C188.056 103.537 190.679 103.694 192.562 103.694H258.061V59.8486C258.061 47.4302 251 38.4191 236.878 32.8152C234.412 32.1427 232.103 31.8065 229.951 31.8065H160.552ZM288.249 19.2985H319.788C319.788 20.3296 326.244 44.5834 339.156 92.06H360.002C360.002 91.2978 366.458 67.044 379.369 19.2985H410.908V116H398.669V32.0082H389.524C388.717 32.0082 385.332 44.2248 379.369 68.6579C378.697 70.4064 375.29 82.466 369.148 104.837H329.472L310.105 32.0082H300.959V116H288.249V19.2985ZM467.525 19.702H550.575V32.0082H468.534C456.743 32.0082 447.732 38.8898 441.5 52.6531C441.5 53.7291 441.344 54.536 441.03 55.074H549.634C550.262 55.1637 550.575 55.4999 550.575 56.0827V116H538.336V67.3802H440.559V116H428.253V60.9918C428.253 43.6868 437.264 30.7529 455.286 22.1901C460.262 20.5313 464.342 19.702 467.525 19.702ZM568.256 19.5002H580.428V54.0653H678.474V19.5002H690.646V116H678.474V66.237H580.428V116H568.256V19.5002ZM728.097 19.3657H788.015C805.454 19.3657 818.343 27.4578 826.682 43.642C829.327 48.7528 830.649 54.6929 830.649 61.4625V116H708.26V103.627H728.097V19.3657ZM740.471 31.7392V103.627H818.276V62.4712C818.276 47.2733 810.341 37.2087 794.47 32.2772C791.646 31.9185 789.337 31.7392 787.544 31.7392H740.471ZM887.535 19.702H970.586V32.0082H888.544C876.753 32.0082 867.742 38.8898 861.511 52.6531C861.511 53.7291 861.354 54.536 861.04 55.074H969.644C970.272 55.1637 970.586 55.4999 970.586 56.0827V116H958.347V67.3802H860.569V116H848.263V60.9918C848.263 43.6868 857.274 30.7529 875.296 22.1901C880.273 20.5313 884.352 19.702 887.535 19.702Z" fill="white" fill-opacity="0.05"/>
<path d="M28.4169 19.5002V12.291H21.2076V19.5002H28.4169ZM40.7231 19.5002H47.9324V12.291H40.7231V19.5002ZM40.7231 54.9395H33.5139V62.1488H40.7231V54.9395ZM91.9655 36.7155L98.4184 39.9301L98.4816 39.8032L98.5398 39.6739L91.9655 36.7155ZM94.3864 19.5002V12.291H87.1772V19.5002H94.3864ZM106.693 19.5002H113.902V12.291H106.693V19.5002ZM94.3864 55.4775L89.1679 50.5036L79.6423 60.4976L93.2873 62.6025L94.3864 55.4775ZM117.049 66.3043L122.067 61.1288L121.951 61.0157L121.829 60.9081L117.049 66.3043ZM130.364 116V123.209H137.573V116H130.364ZM118.057 116H110.848V123.209H118.057V116ZM95.3951 68.2545L97.7053 61.4254L97.1139 61.2253L96.4969 61.1299L95.3951 68.2545ZM40.7231 67.2458V60.0365H33.5139V67.2458H40.7231ZM40.7231 116V123.209H47.9324V116H40.7231ZM28.4169 116H21.2076V123.209H28.4169V116ZM28.4169 67.2458H35.6261V60.0365H28.4169V67.2458ZM8.24271 67.2458H1.03346V74.455H8.24271V67.2458ZM8.24271 54.9395V47.7303H1.03346V54.9395H8.24271ZM28.4169 54.9395V62.1488H35.6261V54.9395H28.4169ZM28.4169 26.7095H40.7231V12.291H28.4169V26.7095ZM33.5139 19.5002V54.9395H47.9324V19.5002H33.5139ZM40.7231 62.1488H65.8736V47.7303H40.7231V62.1488ZM65.8736 62.1488C72.9136 62.1488 79.3868 60.2364 85.0314 56.2938C90.6065 52.3999 95.0014 46.7893 98.4184 39.9301L85.5126 33.501C82.8773 38.791 79.8975 42.2924 76.7752 44.4732C73.7226 46.6053 70.1759 47.7303 65.8736 47.7303V62.1488ZM98.5398 39.6739C100.664 34.9528 101.596 29.6389 101.596 23.9385H87.1772C87.1772 28.1011 86.4946 31.3052 85.3912 33.7571L98.5398 39.6739ZM101.596 23.9385V19.5002H87.1772V23.9385H101.596ZM94.3864 26.7095H106.693V12.291H94.3864V26.7095ZM99.4834 19.5002V24.9472H113.902V19.5002H99.4834ZM99.4834 24.9472C99.4834 34.8156 96.1118 43.2181 89.1679 50.5036L99.605 60.4514C109.069 50.5216 113.902 38.5706 113.902 24.9472H99.4834ZM93.2873 62.6025C100.283 63.6815 106.573 66.6556 112.268 71.7005L121.829 60.9081C114.164 54.1175 105.347 49.8737 95.4855 48.3525L93.2873 62.6025ZM112.03 71.4798C119.546 78.7683 123.154 87.2509 123.154 97.3053H137.573C137.573 83.2403 132.304 71.0556 122.067 61.1288L112.03 71.4798ZM123.154 97.3053V116H137.573V97.3053H123.154ZM130.364 108.791H118.057V123.209H130.364V108.791ZM125.267 116V99.2554H110.848V116H125.267ZM125.267 99.2554C125.267 90.2839 123.072 82.2314 118.212 75.5833C113.363 68.9504 106.317 64.3387 97.7053 61.4254L93.085 75.0836C99.581 77.281 103.867 80.3915 106.572 84.0923C109.266 87.7779 110.848 92.6705 110.848 99.2554H125.267ZM96.4969 61.1299C91.7997 60.4035 87.1498 60.0365 82.5509 60.0365V74.455C86.3803 74.455 90.2933 74.7605 94.2934 75.379L96.4969 61.1299ZM82.5509 60.0365H40.7231V74.455H82.5509V60.0365ZM33.5139 67.2458V116H47.9324V67.2458H33.5139ZM40.7231 108.791H28.4169V123.209H40.7231V108.791ZM35.6261 116V67.2458H21.2076V116H35.6261ZM28.4169 60.0365H8.24271V74.455H28.4169V60.0365ZM15.452 67.2458V54.9395H1.03346V67.2458H15.452ZM8.24271 62.1488H28.4169V47.7303H8.24271V62.1488ZM35.6261 54.9395V19.5002H21.2076V54.9395H35.6261ZM148.246 19.5002V12.291H141.037V19.5002H148.246ZM267.879 46.0629L274.763 43.9224L274.59 43.3664L274.33 42.8453L267.879 46.0629ZM270.367 116V123.209H277.576V116H270.367ZM150.734 87.9579L143.935 90.3539L144.015 90.5807L144.11 90.8016L150.734 87.9579ZM160.552 31.8065V24.5972H153.343V31.8065H160.552ZM184.694 103.223L182.617 110.127L183.307 110.334L184.024 110.401L184.694 103.223ZM258.061 103.694V110.903H265.27V103.694H258.061ZM236.878 32.8152L239.537 26.1142L239.163 25.9658L238.775 25.8599L236.878 32.8152ZM148.246 26.7095H229.951V12.291H148.246V26.7095ZM229.951 26.7095C236.801 26.7095 242.61 28.525 247.638 32.0459C252.736 35.6167 257.4 41.2054 261.427 49.2804L274.33 42.8453C269.526 33.2119 263.453 25.5193 255.909 20.2358C248.294 14.9026 239.555 12.291 229.951 12.291V26.7095ZM260.995 48.2033C262.601 53.3705 263.158 56.6236 263.158 58.3691H277.576C277.576 54.3762 276.474 49.4251 274.763 43.9224L260.995 48.2033ZM263.158 58.3691V116H277.576V58.3691H263.158ZM270.367 108.791H191.553V123.209H270.367V108.791ZM191.553 108.791C183.174 108.791 176.456 106.768 171.04 103.047C165.595 99.3071 160.959 93.5005 157.359 85.1142L144.11 90.8016C148.534 101.11 154.713 109.324 162.875 114.932C171.066 120.558 180.745 123.209 191.553 123.209V108.791ZM157.534 85.5619C156.116 81.5377 155.455 77.7523 155.455 74.1722H141.037C141.037 79.5585 142.035 84.9635 143.935 90.3539L157.534 85.5619ZM155.455 74.1722V19.5002H141.037V74.1722H155.455ZM153.343 31.8065V73.1635H167.762V31.8065H153.343ZM153.343 73.1635C153.343 82.0918 155.735 90.0772 160.967 96.5911C166.146 103.04 173.599 107.414 182.617 110.127L186.771 96.3194C179.694 94.1905 175.076 91.1331 172.209 87.5625C169.393 84.0566 167.762 79.4331 167.762 73.1635H153.343ZM184.024 110.401C187.464 110.722 190.346 110.903 192.562 110.903V96.4845C191.012 96.4845 188.648 96.3515 185.364 96.045L184.024 110.401ZM192.562 110.903H258.061V96.4845H192.562V110.903ZM265.27 103.694V59.8486H250.852V103.694H265.27ZM265.27 59.8486C265.27 52.1729 263.051 45.2144 258.44 39.3299C253.904 33.5421 247.409 29.2379 239.537 26.1142L234.219 39.5161C240.469 41.9964 244.565 44.9997 247.09 48.223C249.54 51.3497 250.852 55.1059 250.852 59.8486H265.27ZM238.775 25.8599C235.803 25.0495 232.851 24.5972 229.951 24.5972V39.0157C231.356 39.0157 233.021 39.2359 234.981 39.7704L238.775 25.8599ZM229.951 24.5972H160.552V39.0157H229.951V24.5972ZM288.249 19.2985V12.0892H281.04V19.2985H288.249ZM319.788 19.2985H326.998V12.0892H319.788V19.2985ZM339.156 92.06L332.199 93.9519L333.645 99.2692H339.156V92.06ZM360.002 92.06V99.2692H367.211V92.06H360.002ZM379.369 19.2985V12.0892H373.851L372.41 17.4165L379.369 19.2985ZM410.908 19.2985H418.118V12.0892H410.908V19.2985ZM410.908 116V123.209H418.118V116H410.908ZM398.669 116H391.46V123.209H398.669V116ZM398.669 32.0082H405.879V24.799H398.669V32.0082ZM379.369 68.6579L386.098 71.2459L386.264 70.8153L386.373 70.3671L379.369 68.6579ZM369.148 104.837V112.046H374.645L376.1 106.746L369.148 104.837ZM329.472 104.837L322.505 106.69L323.929 112.046H329.472V104.837ZM310.105 32.0082L317.072 30.1555L315.647 24.799H310.105V32.0082ZM300.959 32.0082V24.799H293.75V32.0082H300.959ZM300.959 116V123.209H308.168V116H300.959ZM288.249 116H281.04V123.209H288.249V116ZM288.249 26.5077H319.788V12.0892H288.249V26.5077ZM312.579 19.2985C312.579 19.9756 312.68 20.5484 312.691 20.6197C312.726 20.8348 312.767 21.0424 312.802 21.2126C312.873 21.5606 312.968 21.9765 313.075 22.43C313.291 23.3488 313.607 24.6161 314.014 26.2095C314.83 29.4064 316.048 34.0467 317.663 40.1165C320.897 52.2628 325.742 70.2105 332.199 93.9519L346.112 90.1681C339.657 66.4329 334.82 48.5154 331.597 36.4078C329.985 30.3507 328.782 25.767 327.984 22.6426C327.584 21.0754 327.294 19.9079 327.107 19.1174C327.013 18.7163 326.956 18.459 326.926 18.3153C326.823 17.8114 326.998 18.4684 326.998 19.2985H312.579ZM339.156 99.2692H360.002V84.8507H339.156V99.2692ZM367.211 92.06C367.211 92.548 367.158 92.9199 367.152 92.9704C367.135 93.0927 367.12 93.1785 367.115 93.2031C367.106 93.2554 367.104 93.2575 367.121 93.1786C367.154 93.0307 367.214 92.7725 367.31 92.3769C367.5 91.5971 367.792 90.4393 368.193 88.8851C368.993 85.7853 370.198 81.2113 371.811 75.1524C375.035 63.0397 379.874 45.051 386.329 21.1804L372.41 17.4165C365.954 41.2915 361.109 59.3025 357.877 71.4437C356.262 77.5116 355.046 82.1281 354.232 85.2823C353.826 86.8551 353.514 88.0902 353.3 88.9691C353.194 89.4029 353.103 89.7905 353.034 90.105C353.001 90.2572 352.962 90.4447 352.927 90.6364C352.91 90.7306 352.885 90.8747 352.862 91.0437C352.849 91.1409 352.793 91.5482 352.793 92.06H367.211ZM379.369 26.5077H410.908V12.0892H379.369V26.5077ZM403.699 19.2985V116H418.118V19.2985H403.699ZM410.908 108.791H398.669V123.209H410.908V108.791ZM405.879 116V32.0082H391.46V116H405.879ZM398.669 24.799H389.524V39.2175H398.669V24.799ZM389.524 24.799C387.22 24.799 385.641 25.8592 384.976 26.3835C384.249 26.957 383.78 27.5478 383.546 27.8651C383.065 28.5152 382.751 29.1465 382.589 29.4865C382.229 30.2436 381.902 31.1247 381.616 31.9591C381.02 33.6977 380.288 36.1576 379.432 39.2457C377.709 45.4651 375.351 54.7155 372.366 66.9488L386.373 70.3671C389.35 58.1673 391.666 49.0928 393.327 43.0955C394.164 40.0754 394.803 37.9541 395.254 36.6385C395.364 36.3195 395.452 36.0767 395.521 35.8995C395.593 35.7124 395.623 35.6509 395.612 35.6753C395.605 35.6903 395.571 35.7608 395.51 35.8686C395.455 35.9656 395.333 36.1752 395.139 36.4377C394.975 36.6595 394.572 37.1787 393.905 37.7045C393.301 38.1811 391.777 39.2175 389.524 39.2175V24.799ZM372.641 66.07C372.151 67.3425 371.014 71.2427 369.372 77.0539C367.661 83.1096 365.268 91.7375 362.196 102.928L376.1 106.746C379.169 95.5656 381.551 86.9781 383.247 80.9741C384.096 77.9698 384.768 75.631 385.266 73.9453C385.516 73.1011 385.715 72.4411 385.868 71.9534C386.038 71.4121 386.105 71.2286 386.098 71.2459L372.641 66.07ZM369.148 97.6277H329.472V112.046H369.148V97.6277ZM336.439 102.984L317.072 30.1555L303.138 33.861L322.505 106.69L336.439 102.984ZM310.105 24.799H300.959V39.2175H310.105V24.799ZM293.75 32.0082V116H308.168V32.0082H293.75ZM300.959 108.791H288.249V123.209H300.959V108.791ZM295.459 116V19.2985H281.04V116H295.459ZM550.576 19.702H557.785V12.4927H550.576V19.702ZM550.576 32.0082V39.2175H557.785V32.0082H550.576ZM441.5 52.6531L434.933 49.6796L434.291 51.0971V52.6531H441.5ZM441.03 55.074L434.803 51.4415L428.478 62.2833H441.03V55.074ZM549.634 55.074L550.654 47.9372L550.146 47.8648H549.634V55.074ZM550.576 116V123.209H557.785V116H550.576ZM538.336 116H531.127V123.209H538.336V116ZM538.336 67.3802H545.546V60.171H538.336V67.3802ZM440.559 67.3802V60.171H433.35V67.3802H440.559ZM440.559 116V123.209H447.768V116H440.559ZM428.253 116H421.044V123.209H428.253V116ZM455.286 22.1901L453.006 15.3508L452.589 15.4898L452.192 15.6785L455.286 22.1901ZM467.525 26.9112H550.576V12.4927H467.525V26.9112ZM543.366 19.702V32.0082H557.785V19.702H543.366ZM550.576 24.799H468.534V39.2175H550.576V24.799ZM468.534 24.799C461.125 24.799 454.372 26.999 448.557 31.4399C442.842 35.8045 438.383 42.0593 434.933 49.6796L448.068 55.6266C450.849 49.4837 454.012 45.416 457.308 42.899C460.504 40.4583 464.152 39.2175 468.534 39.2175V24.799ZM434.291 52.6531C434.291 52.8619 434.274 52.8531 434.306 52.6893C434.336 52.5375 434.445 52.055 434.803 51.4415L447.257 58.7065C448.527 56.5298 448.71 54.1939 448.71 52.6531H434.291ZM441.03 62.2833H549.634V47.8648H441.03V62.2833ZM548.615 62.2108C547.91 62.1102 546.394 61.7311 545.07 60.3124C543.673 58.8158 543.366 57.1097 543.366 56.0827H557.785C557.785 54.4729 557.321 52.3073 555.61 50.4744C553.973 48.7195 551.986 48.1275 550.654 47.9372L548.615 62.2108ZM543.366 56.0827V116H557.785V56.0827H543.366ZM550.576 108.791H538.336V123.209H550.576V108.791ZM545.546 116V67.3802H531.127V116H545.546ZM538.336 60.171H440.559V74.5895H538.336V60.171ZM433.35 67.3802V116H447.768V67.3802H433.35ZM440.559 108.791H428.253V123.209H440.559V108.791ZM435.462 116V60.9918H421.044V116H435.462ZM435.462 60.9918C435.462 53.6621 437.346 47.5734 440.926 42.4338C444.549 37.2344 450.205 32.5857 458.38 28.7017L452.192 15.6785C442.345 20.3573 434.485 26.457 429.096 34.1915C423.666 41.9858 421.044 51.0165 421.044 60.9918H435.462ZM457.566 29.0294C462.219 27.4785 465.456 26.9112 467.525 26.9112V12.4927C463.228 12.4927 458.306 13.5841 453.006 15.3508L457.566 29.0294ZM568.256 19.5002V12.291H561.047V19.5002H568.256ZM580.428 19.5002H587.637V12.291H580.428V19.5002ZM580.428 54.0653H573.219V61.2745H580.428V54.0653ZM678.474 54.0653V61.2745H685.684V54.0653H678.474ZM678.474 19.5002V12.291H671.265V19.5002H678.474ZM690.646 19.5002H697.855V12.291H690.646V19.5002ZM690.646 116V123.209H697.855V116H690.646ZM678.474 116H671.265V123.209H678.474V116ZM678.474 66.237H685.684V59.0278H678.474V66.237ZM580.428 66.237V59.0278H573.219V66.237H580.428ZM580.428 116V123.209H587.637V116H580.428ZM568.256 116H561.047V123.209H568.256V116ZM568.256 26.7095H580.428V12.291H568.256V26.7095ZM573.219 19.5002V54.0653H587.637V19.5002H573.219ZM580.428 61.2745H678.474V46.856H580.428V61.2745ZM685.684 54.0653V19.5002H671.265V54.0653H685.684ZM678.474 26.7095H690.646V12.291H678.474V26.7095ZM683.437 19.5002V116H697.855V19.5002H683.437ZM690.646 108.791H678.474V123.209H690.646V108.791ZM685.684 116V66.237H671.265V116H685.684ZM678.474 59.0278H580.428V73.4463H678.474V59.0278ZM573.219 66.237V116H587.637V66.237H573.219ZM580.428 108.791H568.256V123.209H580.428V108.791ZM575.465 116V19.5002H561.047V116H575.465ZM728.097 19.3657V12.1565H720.888V19.3657H728.097ZM826.682 43.642L820.273 46.9439L820.279 46.9556L826.682 43.642ZM830.649 116V123.209H837.859V116H830.649ZM708.26 116H701.05V123.209H708.26V116ZM708.26 103.627V96.4173H701.05V103.627H708.26ZM728.097 103.627V110.836H735.307V103.627H728.097ZM740.471 31.7392V24.53H733.262V31.7392H740.471ZM740.471 103.627H733.262V110.836H740.471V103.627ZM818.276 103.627V110.836H825.485V103.627H818.276ZM794.47 32.2772L796.61 25.3927L796.006 25.205L795.379 25.1254L794.47 32.2772ZM728.097 26.575H788.015V12.1565H728.097V26.575ZM788.015 26.575C795.581 26.575 801.792 28.316 806.928 31.5404C812.081 34.7757 816.579 39.7739 820.273 46.9439L833.091 40.34C828.446 31.3259 822.33 24.1859 814.594 19.3291C806.841 14.4614 797.888 12.1565 788.015 12.1565V26.575ZM820.279 46.9556C822.308 50.876 823.44 55.6431 823.44 61.4625H837.859C837.859 53.7428 836.346 46.6295 833.084 40.3284L820.279 46.9556ZM823.44 61.4625V116H837.859V61.4625H823.44ZM830.649 108.791H708.26V123.209H830.649V108.791ZM715.469 116V103.627H701.05V116H715.469ZM708.26 110.836H728.097V96.4173H708.26V110.836ZM735.307 103.627V19.3657H720.888V103.627H735.307ZM733.262 31.7392V103.627H747.68V31.7392H733.262ZM740.471 110.836H818.276V96.4173H740.471V110.836ZM825.485 103.627V62.4712H811.067V103.627H825.485ZM825.485 62.4712C825.485 53.5653 823.134 45.5903 817.986 39.0608C812.883 32.5878 805.527 28.1635 796.61 25.3927L792.331 39.1617C799.285 41.3224 803.832 44.3961 806.663 47.9878C809.451 51.523 811.067 56.1792 811.067 62.4712H825.485ZM795.379 25.1254C792.406 24.7479 789.763 24.53 787.544 24.53V38.9485C788.911 38.9485 790.886 39.0892 793.562 39.429L795.379 25.1254ZM787.544 24.53H740.471V38.9485H787.544V24.53ZM970.586 19.702H977.795V12.4927H970.586V19.702ZM970.586 32.0082V39.2175H977.795V32.0082H970.586ZM861.51 52.6531L854.943 49.6796L854.301 51.0971V52.6531H861.51ZM861.04 55.074L854.813 51.4415L848.488 62.2833H861.04V55.074ZM969.644 55.074L970.664 47.9372L970.156 47.8648H969.644V55.074ZM970.586 116V123.209H977.795V116H970.586ZM958.347 116H951.137V123.209H958.347V116ZM958.347 67.3802H965.556V60.171H958.347V67.3802ZM860.569 67.3802V60.171H853.36V67.3802H860.569ZM860.569 116V123.209H867.778V116H860.569ZM848.263 116H841.054V123.209H848.263V116ZM875.296 22.1901L873.016 15.3508L872.599 15.4898L872.202 15.6785L875.296 22.1901ZM887.535 26.9112H970.586V12.4927H887.535V26.9112ZM963.376 19.702V32.0082H977.795V19.702H963.376ZM970.586 24.799H888.544V39.2175H970.586V24.799ZM888.544 24.799C881.135 24.799 874.382 26.999 868.567 31.4399C862.852 35.8045 858.393 42.0593 854.943 49.6796L868.078 55.6266C870.859 49.4837 874.022 45.416 877.318 42.899C880.514 40.4583 884.162 39.2175 888.544 39.2175V24.799ZM854.301 52.6531C854.301 52.8619 854.284 52.8531 854.316 52.6893C854.346 52.5375 854.455 52.055 854.813 51.4415L867.267 58.7065C868.537 56.5298 868.72 54.1939 868.72 52.6531H854.301ZM861.04 62.2833H969.644V47.8648H861.04V62.2833ZM968.625 62.2108C967.92 62.1102 966.404 61.7311 965.08 60.3124C963.683 58.8158 963.376 57.1097 963.376 56.0827H977.795C977.795 54.4729 977.331 52.3073 975.621 50.4744C973.983 48.7195 971.996 48.1275 970.664 47.9372L968.625 62.2108ZM963.376 56.0827V116H977.795V56.0827H963.376ZM970.586 108.791H958.347V123.209H970.586V108.791ZM965.556 116V67.3802H951.137V116H965.556ZM958.347 60.171H860.569V74.5895H958.347V60.171ZM853.36 67.3802V116H867.778V67.3802H853.36ZM860.569 108.791H848.263V123.209H860.569V108.791ZM855.472 116V60.9918H841.054V116H855.472ZM855.472 60.9918C855.472 53.6621 857.356 47.5734 860.936 42.4338C864.559 37.2344 870.215 32.5857 878.39 28.7017L872.202 15.6785C862.355 20.3573 854.495 26.457 849.106 34.1915C843.676 41.9858 841.054 51.0165 841.054 60.9918H855.472ZM877.576 29.0294C882.229 27.4785 885.466 26.9112 887.535 26.9112V12.4927C883.238 12.4927 878.316 13.5841 873.016 15.3508L877.576 29.0294Z" fill="white" fill-opacity="0.05"/>
<path d="M331 51.7L336.28 35.28H338.98L333.7 51.7H331ZM347.692 46.64C348.145 46.64 348.565 46.5667 348.952 46.42C349.338 46.26 349.672 46.0467 349.952 45.78C350.232 45.5 350.445 45.1667 350.592 44.78C350.752 44.3933 350.832 43.9667 350.832 43.5C350.832 43.0333 350.752 42.6067 350.592 42.22C350.445 41.8333 350.232 41.5 349.952 41.22C349.672 40.94 349.338 40.7267 348.952 40.58C348.565 40.42 348.145 40.34 347.692 40.34H345.332C344.878 40.34 344.458 40.42 344.072 40.58C343.685 40.7267 343.352 40.94 343.072 41.22C342.792 41.5 342.572 41.8333 342.412 42.22C342.252 42.6067 342.172 43.0333 342.172 43.5C342.172 43.9667 342.245 44.3933 342.392 44.78C342.552 45.1667 342.772 45.5 343.052 45.78C343.332 46.0467 343.665 46.26 344.052 46.42C344.438 46.5667 344.865 46.64 345.332 46.64H347.692ZM345.572 50C344.572 50 343.652 49.8467 342.812 49.54C341.972 49.22 341.245 48.78 340.632 48.22C340.032 47.6467 339.558 46.96 339.212 46.16C338.865 45.36 338.692 44.4733 338.692 43.5C338.692 42.5267 338.865 41.6467 339.212 40.86C339.558 40.06 340.032 39.3733 340.632 38.8C341.245 38.2267 341.972 37.7867 342.812 37.48C343.652 37.16 344.572 37 345.572 37H347.452C348.438 37 349.352 37.16 350.192 37.48C351.032 37.7867 351.752 38.2267 352.352 38.8C352.965 39.3733 353.445 40.06 353.792 40.86C354.138 41.6467 354.312 42.5267 354.312 43.5C354.312 44.4733 354.138 45.36 353.792 46.16C353.445 46.96 352.965 47.6467 352.352 48.22C351.752 48.78 351.032 49.22 350.192 49.54C349.352 49.8467 348.438 50 347.452 50H345.572ZM360.564 46.78V43.68H364.784C365.251 43.68 365.638 43.5267 365.944 43.22C366.264 42.9133 366.424 42.5133 366.424 42.02C366.424 41.5133 366.264 41.1067 365.944 40.8C365.638 40.4933 365.251 40.34 364.784 40.34H359.564V50H356.084V37H364.724C365.484 37 366.178 37.12 366.804 37.36C367.444 37.6 367.991 37.9333 368.444 38.36C368.911 38.7867 369.271 39.3 369.524 39.9C369.778 40.5 369.904 41.1667 369.904 41.9C369.904 42.62 369.778 43.28 369.524 43.88C369.271 44.48 368.911 45 368.444 45.44C367.991 45.8667 367.444 46.2 366.804 46.44C366.178 46.6667 365.484 46.78 364.724 46.78H360.564ZM383.071 37V40.36H375.151V50H371.631V37H383.071ZM394.66 50L389.34 44.54C389.18 44.3533 389.06 44.1867 388.98 44.04C388.9 43.88 388.86 43.6933 388.86 43.48V43.16C388.86 42.7867 389.014 42.4333 389.32 42.1L394.46 37H398.94L392.68 43.28L399.26 50H394.66ZM384.58 50V37H388.08V50H384.58ZM407.77 46.64C408.223 46.64 408.643 46.5667 409.03 46.42C409.417 46.26 409.75 46.0467 410.03 45.78C410.31 45.5 410.523 45.1667 410.67 44.78C410.83 44.3933 410.91 43.9667 410.91 43.5C410.91 43.0333 410.83 42.6067 410.67 42.22C410.523 41.8333 410.31 41.5 410.03 41.22C409.75 40.94 409.417 40.7267 409.03 40.58C408.643 40.42 408.223 40.34 407.77 40.34H405.41C404.957 40.34 404.537 40.42 404.15 40.58C403.763 40.7267 403.43 40.94 403.15 41.22C402.87 41.5 402.65 41.8333 402.49 42.22C402.33 42.6067 402.25 43.0333 402.25 43.5C402.25 43.9667 402.323 44.3933 402.47 44.78C402.63 45.1667 402.85 45.5 403.13 45.78C403.41 46.0467 403.743 46.26 404.13 46.42C404.517 46.5667 404.943 46.64 405.41 46.64H407.77ZM405.65 50C404.65 50 403.73 49.8467 402.89 49.54C402.05 49.22 401.323 48.78 400.71 48.22C400.11 47.6467 399.637 46.96 399.29 46.16C398.943 45.36 398.77 44.4733 398.77 43.5C398.77 42.5267 398.943 41.6467 399.29 40.86C399.637 40.06 400.11 39.3733 400.71 38.8C401.323 38.2267 402.05 37.7867 402.89 37.48C403.73 37.16 404.65 37 405.65 37H407.53C408.517 37 409.43 37.16 410.27 37.48C411.11 37.7867 411.83 38.2267 412.43 38.8C413.043 39.3733 413.523 40.06 413.87 40.86C414.217 41.6467 414.39 42.5267 414.39 43.5C414.39 44.4733 414.217 45.36 413.87 46.16C413.523 46.96 413.043 47.6467 412.43 48.22C411.83 48.78 411.11 49.22 410.27 49.54C409.43 49.8467 408.517 50 407.53 50H405.65ZM431.053 50L429.133 41.64L426.873 48.76C426.633 49.5867 426.086 50 425.233 50H424.173C423.319 50 422.773 49.5867 422.533 48.76L420.273 41.5L418.353 50H414.893L417.533 38.48C417.639 37.9333 417.839 37.5533 418.133 37.34C418.426 37.1133 418.793 37 419.233 37H420.693C421.546 37 422.099 37.42 422.353 38.26L424.713 46.04L427.053 38.26C427.306 37.42 427.853 37 428.693 37H430.153C430.593 37 430.959 37.1133 431.253 37.34C431.546 37.5533 431.753 37.9333 431.873 38.48L434.533 50H431.053ZM439.37 44.58L444.53 37.96C444.81 37.6 445.096 37.3533 445.39 37.22C445.683 37.0733 446.103 37 446.65 37H447.49C448.57 37 449.11 37.4933 449.11 38.48V50H445.61V41.66L439.87 48.9C439.563 49.2867 439.27 49.5667 438.99 49.74C438.71 49.9133 438.343 50 437.89 50H437.19C436.31 50 435.87 49.5533 435.87 48.66V37H439.37V44.58ZM455.399 50V40.34H450.619V37H463.679V40.34H458.899V50H455.399ZM469.846 44.86V42.08H477.526V44.86H469.846ZM465.186 50V37H477.666V40.34H468.686V46.64H477.686V50H465.186ZM483.797 50V40.34H479.017V37H492.077V40.34H487.297V50H483.797Z" fill="white"/>
</svg>
