<svg width="544" height="145" viewBox="0 0 544 145" fill="none" xmlns="http://www.w3.org/2000/svg">
<path d="M0.220863 15.5361H4.48838V17.7515C4.48838 21.8558 6.64935 24.9884 10.9713 27.1494C12.1373 27.6002 13.1633 27.8256 14.0495 27.8256H19.1798V15.5361H23.4474V27.8256H28.741C32.1146 27.8256 34.9596 25.8901 37.276 22.019C37.96 20.6043 38.3021 19.0108 38.3021 17.2385V15.5361H42.5696V17.5883C42.5696 22.8896 40.292 26.9861 35.7369 29.8778C40.292 33.2669 42.5696 37.48 42.5696 42.5171V49H38.3021V42.8436C38.3021 38.0086 35.9623 34.6583 31.2828 32.7927C30.3034 32.3264 28.5389 32.0932 25.9892 32.0932H23.4474V49H19.1798V32.0932H17.1277C11.9352 32.0932 8.52271 33.4068 6.89032 36.0342C5.28903 37.8687 4.48838 39.9675 4.48838 42.3305V49H0.220863V42.3305C0.220863 37.3712 2.49843 33.2203 7.05356 29.8778C4.22409 28.292 2.23414 25.8435 1.0837 22.532C0.508474 21.164 0.220863 19.6326 0.220863 17.938V15.5361ZM46.8604 15.5361H51.1513V27.8956H57.331C57.5331 25.1439 59.1344 22.1667 62.1349 18.9641C65.1354 16.6788 68.338 15.5361 71.7426 15.5361H89.419V34.9382C89.419 40.7526 86.3331 45.1522 80.1611 48.1372C78.4665 48.7124 77.0906 49 76.0335 49H57.1678V32.1864H51.1513V49H46.8604V15.5361ZM61.4353 30.6473V44.7092H75.3339C79.0029 44.7092 81.9256 42.7658 84.1021 38.8792C84.7862 37.6044 85.1282 36.2285 85.1282 34.7516V19.8269H72.0924C66.6978 19.8269 63.2076 22.6875 61.6219 28.4086C61.4975 29.1549 61.4353 29.9011 61.4353 30.6473ZM93.5 15.3496H121.297C127.889 15.3496 132.553 18.5366 135.289 24.9107C135.88 26.2477 136.175 27.7868 136.175 29.528V32.1864H97.9308V49H93.5V27.9189H131.581C131.581 25.8823 130.104 23.698 127.15 21.3661C125.471 20.3089 123.878 19.7803 122.37 19.7803H93.5V15.3496ZM140.14 15.4428H144.43V44.7092H150.074C150.742 43.9318 157.474 34.1764 170.269 15.4428H182.768V49H178.314V19.7337H172.834C172.243 20.2001 165.511 29.9555 152.639 49H140.14V15.4428Z" fill="white"/>
<path d="M0.220863 15.5361V13.0361H-2.27914V15.5361H0.220863ZM4.48838 15.5361H6.98838V13.0361H4.48838V15.5361ZM10.9713 27.1494L9.85325 29.3854L9.95919 29.4384L10.0697 29.4811L10.9713 27.1494ZM19.1798 27.8256V30.3256H21.6798V27.8256H19.1798ZM19.1798 15.5361V13.0361H16.6798V15.5361H19.1798ZM23.4474 15.5361H25.9474V13.0361H23.4474V15.5361ZM23.4474 27.8256H20.9474V30.3256H23.4474V27.8256ZM37.276 22.019L39.4213 23.3027L39.4783 23.2073L39.5267 23.1073L37.276 22.019ZM38.3021 15.5361V13.0361H35.8021V15.5361H38.3021ZM42.5696 15.5361H45.0696V13.0361H42.5696V15.5361ZM35.7369 29.8778L34.397 27.7671L31.3294 29.7145L34.2446 31.8835L35.7369 29.8778ZM42.5696 49V51.5H45.0696V49H42.5696ZM38.3021 49H35.8021V51.5H38.3021V49ZM31.2828 32.7927L30.208 35.0499L30.2814 35.0849L30.357 35.115L31.2828 32.7927ZM23.4474 32.0932V29.5932H20.9474V32.0932H23.4474ZM23.4474 49V51.5H25.9474V49H23.4474ZM19.1798 49H16.6798V51.5H19.1798V49ZM19.1798 32.0932H21.6798V29.5932H19.1798V32.0932ZM6.89032 36.0342L8.77374 37.6782L8.90694 37.5256L9.01384 37.3535L6.89032 36.0342ZM4.48838 49V51.5H6.98838V49H4.48838ZM0.220863 49H-2.27914V51.5H0.220863V49ZM7.05356 29.8778L8.53257 31.8934L11.6638 29.5957L8.2758 27.6969L7.05356 29.8778ZM1.0837 22.532L3.44524 21.7116L3.41912 21.6364L3.38828 21.5631L1.0837 22.532ZM0.220863 18.0361H4.48838V13.0361H0.220863V18.0361ZM1.98838 15.5361V17.7515H6.98838V15.5361H1.98838ZM1.98838 17.7515C1.98838 20.2689 2.65996 22.5819 4.05124 24.5987C5.42727 26.5935 7.41475 28.1662 9.85325 29.3854L12.0893 24.9133C10.2059 23.9716 8.95192 22.8975 8.16698 21.7596C7.39729 20.6438 6.98838 19.3384 6.98838 17.7515H1.98838ZM10.0697 29.4811C11.4142 30.001 12.7564 30.3256 14.0495 30.3256V25.3256C13.5703 25.3256 12.8604 25.1994 11.8729 24.8176L10.0697 29.4811ZM14.0495 30.3256H19.1798V25.3256H14.0495V30.3256ZM21.6798 27.8256V15.5361H16.6798V27.8256H21.6798ZM19.1798 18.0361H23.4474V13.0361H19.1798V18.0361ZM20.9474 15.5361V27.8256H25.9474V15.5361H20.9474ZM23.4474 30.3256H28.741V25.3256H23.4474V30.3256ZM28.741 30.3256C33.2837 30.3256 36.8253 27.6409 39.4213 23.3027L35.1307 20.7353C33.0938 24.1393 30.9454 25.3256 28.741 25.3256V30.3256ZM39.5267 23.1073C40.3947 21.3121 40.8021 19.3392 40.8021 17.2385H35.8021C35.8021 18.6823 35.5254 19.8964 35.0253 20.9308L39.5267 23.1073ZM40.8021 17.2385V15.5361H35.8021V17.2385H40.8021ZM38.3021 18.0361H42.5696V13.0361H38.3021V18.0361ZM40.0696 15.5361V17.5883H45.0696V15.5361H40.0696ZM40.0696 17.5883C40.0696 22.0156 38.2453 25.3242 34.397 27.7671L37.0768 31.9884C42.3387 28.648 45.0696 23.7637 45.0696 17.5883H40.0696ZM34.2446 31.8835C38.2582 34.8698 40.0696 38.3789 40.0696 42.5171H45.0696C45.0696 36.5811 42.3258 31.6641 37.2292 27.872L34.2446 31.8835ZM40.0696 42.5171V49H45.0696V42.5171H40.0696ZM42.5696 46.5H38.3021V51.5H42.5696V46.5ZM40.8021 49V42.8436H35.8021V49H40.8021ZM40.8021 42.8436C40.8021 40.0102 40.1105 37.4406 38.5969 35.2732C37.0885 33.1134 34.8959 31.5418 32.2086 30.4705L30.357 35.115C32.3493 35.9093 33.6662 36.9456 34.4976 38.1361C35.3237 39.319 35.8021 40.842 35.8021 42.8436H40.8021ZM32.3577 30.5356C30.8189 29.8029 28.5385 29.5932 25.9892 29.5932V34.5932C28.5392 34.5932 29.7878 34.8498 30.208 35.0499L32.3577 30.5356ZM25.9892 29.5932H23.4474V34.5932H25.9892V29.5932ZM20.9474 32.0932V49H25.9474V32.0932H20.9474ZM23.4474 46.5H19.1798V51.5H23.4474V46.5ZM21.6798 49V32.0932H16.6798V49H21.6798ZM19.1798 29.5932H17.1277V34.5932H19.1798V29.5932ZM17.1277 29.5932C11.6699 29.5932 7.10071 30.9584 4.7668 34.7149L9.01384 37.3535C9.94471 35.8553 12.2004 34.5932 17.1277 34.5932V29.5932ZM5.0069 34.3902C3.02135 36.6649 1.98838 39.3431 1.98838 42.3305H6.98838C6.98838 40.5919 7.55671 39.0725 8.77374 37.6782L5.0069 34.3902ZM1.98838 42.3305V49H6.98838V42.3305H1.98838ZM4.48838 46.5H0.220863V51.5H4.48838V46.5ZM2.72086 49V42.3305H-2.27914V49H2.72086ZM2.72086 42.3305C2.72086 38.2864 4.51677 34.8401 8.53257 31.8934L5.57455 27.8622C0.480093 31.6005 -2.27914 36.456 -2.27914 42.3305H2.72086ZM8.2758 27.6969C6.02462 26.4353 4.41261 24.4961 3.44524 21.7116L-1.27785 23.3525C0.0556628 27.1908 2.42357 30.1488 5.83132 32.0586L8.2758 27.6969ZM3.38828 21.5631C2.95905 20.5422 2.72086 19.3467 2.72086 17.938H-2.27914C-2.27914 19.9185 -1.9421 21.7857 -1.22089 23.501L3.38828 21.5631ZM2.72086 17.938V15.5361H-2.27914V17.938H2.72086ZM46.8604 15.5361V13.0361H44.3604V15.5361H46.8604ZM51.1513 15.5361H53.6513V13.0361H51.1513V15.5361ZM51.1513 27.8956H48.6513V30.3956H51.1513V27.8956ZM57.331 27.8956V30.3956H59.6541L59.8243 28.0787L57.331 27.8956ZM62.1349 18.9641L60.6201 16.9753L60.4536 17.1021L60.3105 17.2549L62.1349 18.9641ZM89.419 15.5361H91.919V13.0361H89.419V15.5361ZM80.1611 48.1372L80.9647 50.5045L81.1107 50.4549L81.2495 50.3878L80.1611 48.1372ZM57.1678 49H54.6678V51.5H57.1678V49ZM57.1678 32.1864H59.6678V29.6864H57.1678V32.1864ZM51.1513 32.1864V29.6864H48.6513V32.1864H51.1513ZM51.1513 49V51.5H53.6513V49H51.1513ZM46.8604 49H44.3604V51.5H46.8604V49ZM61.4353 44.7092H58.9353V47.2092H61.4353V44.7092ZM84.1021 38.8792L86.2834 40.1007L86.2944 40.0811L86.305 40.0613L84.1021 38.8792ZM85.1282 19.8269H87.6282V17.3269H85.1282V19.8269ZM61.6219 28.4086L59.2127 27.7409L59.1775 27.8678L59.1559 27.9976L61.6219 28.4086ZM46.8604 18.0361H51.1513V13.0361H46.8604V18.0361ZM48.6513 15.5361V27.8956H53.6513V15.5361H48.6513ZM51.1513 30.3956H57.331V25.3956H51.1513V30.3956ZM59.8243 28.0787C59.9661 26.1482 61.1335 23.6895 63.9593 20.6734L60.3105 17.2549C57.1353 20.6439 55.1002 24.1395 54.8377 27.7125L59.8243 28.0787ZM63.6497 20.9529C66.2643 18.9615 68.9444 18.0361 71.7426 18.0361V13.0361C67.7315 13.0361 64.0064 14.3961 60.6201 16.9753L63.6497 20.9529ZM71.7426 18.0361H89.419V13.0361H71.7426V18.0361ZM86.919 15.5361V34.9382H91.919V15.5361H86.919ZM86.919 34.9382C86.919 37.3759 86.2814 39.4187 85.0578 41.1631C83.8181 42.9307 81.8785 44.5296 79.0726 45.8866L81.2495 50.3878C84.6157 48.7598 87.3051 46.6665 89.1513 44.0343C91.0137 41.379 91.919 38.3148 91.919 34.9382H86.919ZM79.3575 45.7698C77.7685 46.3092 76.6924 46.5 76.0335 46.5V51.5C77.4889 51.5 79.1645 51.1156 80.9647 50.5045L79.3575 45.7698ZM76.0335 46.5H57.1678V51.5H76.0335V46.5ZM59.6678 49V32.1864H54.6678V49H59.6678ZM57.1678 29.6864H51.1513V34.6864H57.1678V29.6864ZM48.6513 32.1864V49H53.6513V32.1864H48.6513ZM51.1513 46.5H46.8604V51.5H51.1513V46.5ZM49.3604 49V15.5361H44.3604V49H49.3604ZM58.9353 30.6473V44.7092H63.9353V30.6473H58.9353ZM61.4353 47.2092H75.3339V42.2092H61.4353V47.2092ZM75.3339 47.2092C80.1158 47.2092 83.7767 44.5769 86.2834 40.1007L81.9209 37.6577C80.0745 40.9548 77.8899 42.2092 75.3339 42.2092V47.2092ZM86.305 40.0613C87.1883 38.4152 87.6282 36.6321 87.6282 34.7516H82.6282C82.6282 35.825 82.384 36.7936 81.8992 37.6972L86.305 40.0613ZM87.6282 34.7516V19.8269H82.6282V34.7516H87.6282ZM85.1282 17.3269H72.0924V22.3269H85.1282V17.3269ZM72.0924 17.3269C68.9349 17.3269 66.1193 18.1741 63.8441 20.0388C61.5915 21.8851 60.1002 24.5388 59.2127 27.7409L64.031 29.0764C64.7292 26.5574 65.776 24.9202 67.0135 23.9059C68.2285 22.9101 69.8554 22.3269 72.0924 22.3269V17.3269ZM59.1559 27.9976C59.0092 28.8778 58.9353 29.7615 58.9353 30.6473H63.9353C63.9353 30.0407 63.9858 29.4319 64.0878 28.8196L59.1559 27.9976ZM93.5 15.3496V12.8496H91V15.3496H93.5ZM135.289 24.9107L132.992 25.8968L132.997 25.909L133.002 25.9211L135.289 24.9107ZM136.175 32.1864V34.6864H138.675V32.1864H136.175ZM97.9308 32.1864V29.6864H95.4308V32.1864H97.9308ZM97.9308 49V51.5H100.431V49H97.9308ZM93.5 49H91V51.5H93.5V49ZM93.5 27.9189V25.4189H91V27.9189H93.5ZM131.581 27.9189V30.4189H134.081V27.9189H131.581ZM127.15 21.3661L128.7 19.4038L128.595 19.3214L128.482 19.2505L127.15 21.3661ZM93.5 19.7803H91V22.2803H93.5V19.7803ZM93.5 17.8496H121.297V12.8496H93.5V17.8496ZM121.297 17.8496C124.176 17.8496 126.478 18.5394 128.328 19.8039C130.188 21.0744 131.768 23.0463 132.992 25.8968L137.586 23.9245C136.074 20.4009 133.954 17.5923 131.149 15.6757C128.336 13.7532 125.01 12.8496 121.297 12.8496V17.8496ZM133.002 25.9211C133.428 26.8849 133.675 28.0693 133.675 29.528H138.675C138.675 27.5043 138.331 25.6104 137.576 23.9003L133.002 25.9211ZM133.675 29.528V32.1864H138.675V29.528H133.675ZM136.175 29.6864H97.9308V34.6864H136.175V29.6864ZM95.4308 32.1864V49H100.431V32.1864H95.4308ZM97.9308 46.5H93.5V51.5H97.9308V46.5ZM96 49V27.9189H91V49H96ZM93.5 30.4189H131.581V25.4189H93.5V30.4189ZM134.081 27.9189C134.081 24.6666 131.777 21.8336 128.7 19.4038L125.601 23.3283C128.431 25.5624 129.081 27.0981 129.081 27.9189H134.081ZM128.482 19.2505C126.528 18.0198 124.476 17.2803 122.37 17.2803V22.2803C123.279 22.2803 124.415 22.598 125.818 23.4816L128.482 19.2505ZM122.37 17.2803H93.5V22.2803H122.37V17.2803ZM96 19.7803V15.3496H91V19.7803H96ZM140.14 15.4428V12.9428H137.64V15.4428H140.14ZM144.43 15.4428H146.93V12.9428H144.43V15.4428ZM144.43 44.7092H141.93V47.2092H144.43V44.7092ZM150.074 44.7092V47.2092H151.221L151.969 46.3393L150.074 44.7092ZM170.269 15.4428V12.9428H168.949L168.204 14.0328L170.269 15.4428ZM182.768 15.4428H185.268V12.9428H182.768V15.4428ZM182.768 49V51.5H185.268V49H182.768ZM178.314 49H175.814V51.5H178.314V49ZM178.314 19.7337H180.814V17.2337H178.314V19.7337ZM172.834 19.7337V17.2337H171.966L171.285 17.7715L172.834 19.7337ZM152.639 49V51.5H153.967L154.71 50.4L152.639 49ZM140.14 49H137.64V51.5H140.14V49ZM140.14 17.9428H144.43V12.9428H140.14V17.9428ZM141.93 15.4428V44.7092H146.93V15.4428H141.93ZM144.43 47.2092H150.074V42.2092H144.43V47.2092ZM151.969 46.3393C152.239 46.0259 152.878 45.1313 153.758 43.88C154.689 42.5547 155.997 40.6702 157.682 38.2295C161.051 33.3467 165.935 26.2205 172.333 16.8528L168.204 14.0328C161.807 23.3987 156.929 30.517 153.566 35.3897C151.885 37.8267 150.585 39.6976 149.666 41.0056C149.206 41.6602 148.846 42.1678 148.583 42.5323C148.451 42.7149 148.348 42.8552 148.271 42.9571C148.183 43.0737 148.161 43.0989 148.178 43.0791L151.969 46.3393ZM170.269 17.9428H182.768V12.9428H170.269V17.9428ZM180.268 15.4428V49H185.268V15.4428H180.268ZM182.768 46.5H178.314V51.5H182.768V46.5ZM180.814 49V19.7337H175.814V49H180.814ZM178.314 17.2337H172.834V22.2337H178.314V17.2337ZM171.285 17.7715C171.013 17.9858 170.796 18.251 170.732 18.328C170.613 18.4702 170.479 18.641 170.336 18.8283C170.048 19.2062 169.67 19.7233 169.207 20.3693C168.279 21.6651 166.97 23.5378 165.284 25.9802C161.912 30.8681 157.005 38.076 150.568 47.6L154.71 50.4C161.145 40.8795 166.041 33.6875 169.4 28.8199C171.08 26.3846 172.369 24.5406 173.272 23.281C173.724 22.6493 174.069 22.1789 174.313 21.8597C174.436 21.6984 174.519 21.5932 174.57 21.5319C174.676 21.4055 174.581 21.5399 174.383 21.6959L171.285 17.7715ZM152.639 46.5H140.14V51.5H152.639V46.5ZM142.64 49V15.4428H137.64V49H142.64Z" fill="white"/>
<path d="M6.01108 19.5002H18.3173V25.8887C18.3173 37.7242 24.5489 46.7578 37.0121 52.9893C40.3744 54.2895 43.3333 54.9395 45.8887 54.9395H60.6831V19.5002H72.9893V54.9395H88.2544C97.9829 54.9395 106.187 49.358 112.867 38.1949C114.84 34.1153 115.826 29.5201 115.826 24.4093V19.5002H128.132V25.418C128.132 40.7055 121.564 52.5186 108.429 60.8573C121.564 70.6305 128.132 82.7799 128.132 97.3053V116H115.826V98.2467C115.826 84.3041 109.079 74.643 95.5844 69.2632C92.76 67.9182 87.6716 67.2458 80.3193 67.2458H72.9893V116H60.6831V67.2458H54.7653C39.7916 67.2458 29.9511 71.034 25.2438 78.6105C20.6261 83.9007 18.3173 89.9529 18.3173 96.7673V116H6.01108V96.7673C6.01108 82.466 12.5789 70.496 25.7145 60.8573C17.5552 56.2845 11.8168 49.2235 8.49923 39.6744C6.84046 35.7292 6.01108 31.3133 6.01108 26.4267V19.5002ZM140.506 19.5002H152.879V55.1413H170.7C171.282 47.2061 175.9 38.6208 184.552 29.3856C193.205 22.7953 202.44 19.5002 212.258 19.5002H263.232V75.4499C263.232 92.2169 254.333 104.904 236.535 113.512C231.648 115.171 227.68 116 224.632 116H170.229V67.5147H152.879V116H140.506V19.5002ZM182.535 63.0764V103.627H222.614C233.195 103.627 241.623 98.0226 247.899 86.8147C249.872 83.1385 250.858 79.1709 250.858 74.9119V31.8737H213.267C197.711 31.8737 187.646 40.1227 183.073 56.6207C182.714 58.7726 182.535 60.9245 182.535 63.0764ZM275 18.9622H355.159C374.167 18.9622 387.617 28.1527 395.507 46.5336C397.211 50.3891 398.062 54.8274 398.062 59.8486V67.5147H287.777V116H275V55.2085H384.815C384.815 49.3356 380.556 43.0368 372.038 36.312C367.196 33.2635 362.601 31.7392 358.252 31.7392H275V18.9622ZM409.494 19.2312H421.868V103.627H438.142C440.07 101.385 459.482 73.2532 496.378 19.2312H532.422V116H519.578V31.6047H503.775C502.072 32.9497 482.659 61.0814 445.539 116H409.494V19.2312Z" fill="white" fill-opacity="0.05"/>
<path d="M6.01108 19.5002V12.291H-1.19817V19.5002H6.01108ZM18.3173 19.5002H25.5266V12.291H18.3173V19.5002ZM37.0121 52.9893L33.788 59.4375L34.0935 59.5902L34.4121 59.7134L37.0121 52.9893ZM60.6831 54.9395V62.1488H67.8923V54.9395H60.6831ZM60.6831 19.5002V12.291H53.4738V19.5002H60.6831ZM72.9893 19.5002H80.1986V12.291H72.9893V19.5002ZM72.9893 54.9395H65.7801V62.1488H72.9893V54.9395ZM112.867 38.195L119.053 41.8968L119.218 41.6217L119.357 41.3332L112.867 38.195ZM115.826 19.5002V12.291H108.617V19.5002H115.826ZM128.132 19.5002H135.341V12.291H128.132V19.5002ZM108.429 60.8573L104.565 54.7708L95.7187 60.3865L104.125 66.6412L108.429 60.8573ZM128.132 116V123.209H135.341V116H128.132ZM115.826 116H108.617V123.209H115.826V116ZM95.5844 69.2632L92.4849 75.7721L92.6967 75.873L92.9146 75.9599L95.5844 69.2632ZM72.9893 67.2458V60.0365H65.7801V67.2458H72.9893ZM72.9893 116V123.209H80.1986V116H72.9893ZM60.6831 116H53.4738V123.209H60.6831V116ZM60.6831 67.2458H67.8923V60.0365H60.6831V67.2458ZM25.2438 78.6105L30.675 83.3513L31.0591 82.9113L31.3674 82.4151L25.2438 78.6105ZM18.3173 116V123.209H25.5266V116H18.3173ZM6.01108 116H-1.19817V123.209H6.01108V116ZM25.7145 60.8573L29.9795 66.6696L39.0091 60.0438L29.2391 54.5683L25.7145 60.8573ZM8.49923 39.6744L15.3092 37.3085L15.2339 37.0917L15.1449 36.8802L8.49923 39.6744ZM6.01108 26.7095H18.3173V12.291H6.01108V26.7095ZM11.1081 19.5002V25.8887H25.5266V19.5002H11.1081ZM11.1081 25.8887C11.1081 33.1481 13.0447 39.8181 17.0567 45.6341C21.0248 51.3864 26.7561 55.9215 33.788 59.4375L40.2361 46.5412C34.8049 43.8256 31.1888 40.7282 28.9253 37.4469C26.7057 34.2294 25.5266 30.4648 25.5266 25.8887H11.1081ZM34.4121 59.7134C38.2893 61.2126 42.1599 62.1488 45.8887 62.1488V47.7303C44.5067 47.7303 42.4596 47.3663 39.612 46.2653L34.4121 59.7134ZM45.8887 62.1488H60.6831V47.7303H45.8887V62.1488ZM67.8923 54.9395V19.5002H53.4738V54.9395H67.8923ZM60.6831 26.7095H72.9893V12.291H60.6831V26.7095ZM65.7801 19.5002V54.9395H80.1986V19.5002H65.7801ZM72.9893 62.1488H88.2544V47.7303H72.9893V62.1488ZM88.2544 62.1488C101.354 62.1488 111.567 54.4067 119.053 41.8968L106.681 34.4931C100.807 44.3093 94.6115 47.7303 88.2544 47.7303V62.1488ZM119.357 41.3332C121.86 36.1565 123.035 30.4672 123.035 24.4093H108.617C108.617 28.5729 107.819 32.0741 106.377 35.0567L119.357 41.3332ZM123.035 24.4093V19.5002H108.617V24.4093H123.035ZM115.826 26.7095H128.132V12.291H115.826V26.7095ZM120.923 19.5002V25.418H135.341V19.5002H120.923ZM120.923 25.418C120.923 38.185 115.662 47.7262 104.565 54.7708L112.292 66.9437C127.466 57.3111 135.341 43.226 135.341 25.418H120.923ZM104.125 66.6412C115.699 75.2527 120.923 85.3721 120.923 97.3053H135.341C135.341 80.1877 127.429 66.0084 112.732 55.0733L104.125 66.6412ZM120.923 97.3053V116H135.341V97.3053H120.923ZM128.132 108.791H115.826V123.209H128.132V108.791ZM123.035 116V98.2467H108.617V116H123.035ZM123.035 98.2467C123.035 90.0761 121.041 82.6661 116.676 76.4161C112.326 70.1878 106.003 65.6558 98.2542 62.5665L92.9146 75.9599C98.6598 78.2503 102.457 81.2388 104.855 84.6717C107.237 88.0829 108.617 92.4748 108.617 98.2467H123.035ZM98.6839 62.7542C94.2467 60.6413 87.6706 60.0365 80.3193 60.0365V74.455C87.6727 74.455 91.2733 75.1952 92.4849 75.7721L98.6839 62.7542ZM80.3193 60.0365H72.9893V74.455H80.3193V60.0365ZM65.7801 67.2458V116H80.1986V67.2458H65.7801ZM72.9893 108.791H60.6831V123.209H72.9893V108.791ZM67.8923 116V67.2458H53.4738V116H67.8923ZM60.6831 60.0365H54.7653V74.455H60.6831V60.0365ZM54.7653 60.0365C39.0267 60.0365 25.8505 63.9734 19.1202 74.8059L31.3674 82.4151C34.0517 78.0946 40.5565 74.455 54.7653 74.455V60.0365ZM19.8126 73.8697C14.0868 80.4293 11.1081 88.1523 11.1081 96.7673H25.5266C25.5266 91.7535 27.1655 87.372 30.675 83.3513L19.8126 73.8697ZM11.1081 96.7673V116H25.5266V96.7673H11.1081ZM18.3173 108.791H6.01108V123.209H18.3173V108.791ZM13.2203 116V96.7673H-1.19817V116H13.2203ZM13.2203 96.7673C13.2203 85.1053 18.3992 75.1671 29.9795 66.6696L21.4495 55.045C6.75862 65.825 -1.19817 79.8268 -1.19817 96.7673H13.2203ZM29.2391 54.5683C22.7474 50.9301 18.0988 45.3381 15.3092 37.3085L1.68925 42.0403C5.53469 53.1089 12.363 61.6388 22.19 67.1462L29.2391 54.5683ZM15.1449 36.8802C13.9072 33.9363 13.2203 30.489 13.2203 26.4267H-1.19817C-1.19817 32.1377 -0.226267 37.5221 1.85351 42.4686L15.1449 36.8802ZM13.2203 26.4267V19.5002H-1.19817V26.4267H13.2203ZM140.506 19.5002V12.291H133.296V19.5002H140.506ZM152.879 19.5002H160.088V12.291H152.879V19.5002ZM152.879 55.1413H145.67V62.3505H152.879V55.1413ZM170.7 55.1413V62.3505H177.399L177.889 55.6693L170.7 55.1413ZM184.552 29.3856L180.184 23.6504L179.704 24.0161L179.291 24.4566L184.552 29.3856ZM263.232 19.5002H270.441V12.291H263.232V19.5002ZM236.535 113.512L238.852 120.339L239.273 120.196L239.673 120.002L236.535 113.512ZM170.229 116H163.02V123.209H170.229V116ZM170.229 67.5147H177.438V60.3055H170.229V67.5147ZM152.879 67.5147V60.3055H145.67V67.5147H152.879ZM152.879 116V123.209H160.088V116H152.879ZM140.506 116H133.296V123.209H140.506V116ZM182.535 103.627H175.326V110.836H182.535V103.627ZM247.899 86.8147L254.189 90.3372L254.221 90.2805L254.252 90.2234L247.899 86.8147ZM250.858 31.8737H258.068V24.6645H250.858V31.8737ZM183.073 56.6207L176.126 54.6951L176.024 55.061L175.962 55.4355L183.073 56.6207ZM140.506 26.7095H152.879V12.291H140.506V26.7095ZM145.67 19.5002V55.1413H160.088V19.5002H145.67ZM152.879 62.3505H170.7V47.932H152.879V62.3505ZM177.889 55.6693C178.298 50.1022 181.665 43.0122 189.813 34.3146L179.291 24.4566C170.135 34.2295 164.266 44.3099 163.51 54.6132L177.889 55.6693ZM188.921 35.1207C196.461 29.3779 204.189 26.7095 212.258 26.7095V12.291C200.691 12.291 189.949 16.2127 180.184 23.6504L188.921 35.1207ZM212.258 26.7095H263.232V12.291H212.258V26.7095ZM256.022 19.5002V75.4499H270.441V19.5002H256.022ZM256.022 75.4499C256.022 82.4797 254.184 88.3705 250.655 93.4008C247.08 98.4978 241.487 103.109 233.396 107.022L239.673 120.002C249.38 115.307 257.136 109.271 262.46 101.68C267.83 94.0234 270.441 85.1872 270.441 75.4499H256.022ZM234.217 106.685C229.635 108.241 226.532 108.791 224.632 108.791V123.209C228.829 123.209 233.661 122.101 238.852 120.339L234.217 106.685ZM224.632 108.791H170.229V123.209H224.632V108.791ZM177.438 116V67.5147H163.02V116H177.438ZM170.229 60.3055H152.879V74.724H170.229V60.3055ZM145.67 67.5147V116H160.088V67.5147H145.67ZM152.879 108.791H140.506V123.209H152.879V108.791ZM147.715 116V19.5002H133.296V116H147.715ZM175.326 63.0764V103.627H189.744V63.0764H175.326ZM182.535 110.836H222.614V96.4173H182.535V110.836ZM222.614 110.836C236.404 110.836 246.961 103.245 254.189 90.3372L241.609 83.2922C236.285 92.8001 229.985 96.4173 222.614 96.4173V110.836ZM254.252 90.2234C256.799 85.4765 258.068 80.3346 258.068 74.9119H243.649C243.649 78.0073 242.945 80.8005 241.547 83.406L254.252 90.2234ZM258.068 74.9119V31.8737H243.649V74.9119H258.068ZM250.858 24.6645H213.267V39.083H250.858V24.6645ZM213.267 24.6645C204.162 24.6645 196.042 27.1073 189.481 32.4847C182.985 37.8087 178.685 45.4612 176.126 54.6951L190.02 58.5463C192.034 51.2822 195.052 46.5612 198.621 43.6362C202.125 40.7646 206.816 39.083 213.267 39.083V24.6645ZM175.962 55.4355C175.539 57.9737 175.326 60.522 175.326 63.0764H189.744C189.744 61.3271 189.89 59.5715 190.184 57.8059L175.962 55.4355ZM275 18.9622V11.753H267.791V18.9622H275ZM395.507 46.5336L388.882 49.3774L388.897 49.4124L388.913 49.4473L395.507 46.5336ZM398.062 67.5147V74.724H405.272V67.5147H398.062ZM287.777 67.5147V60.3055H280.568V67.5147H287.777ZM287.777 116V123.209H294.986V116H287.777ZM275 116H267.791V123.209H275V116ZM275 55.2085V47.9993H267.791V55.2085H275ZM384.815 55.2085V62.4177H392.024V55.2085H384.815ZM372.038 36.312L376.505 30.6536L376.204 30.4158L375.879 30.2113L372.038 36.312ZM275 31.7392H267.791V38.9485H275V31.7392ZM275 26.1715H355.159V11.753H275V26.1715ZM355.159 26.1715C363.46 26.1715 370.099 28.1609 375.435 31.8074C380.796 35.4709 385.354 41.1574 388.882 49.3774L402.132 43.6898C397.77 33.5289 391.658 25.4297 383.57 19.9028C375.456 14.3588 365.866 11.753 355.159 11.753V26.1715ZM388.913 49.4473C390.141 52.2267 390.853 55.6421 390.853 59.8486H405.272C405.272 54.0128 404.28 48.5515 402.101 43.6199L388.913 49.4473ZM390.853 59.8486V67.5147H405.272V59.8486H390.853ZM398.062 60.3055H287.777V74.724H398.062V60.3055ZM280.568 67.5147V116H294.986V67.5147H280.568ZM287.777 108.791H275V123.209H287.777V108.791ZM282.209 116V55.2085H267.791V116H282.209ZM275 62.4177H384.815V47.9993H275V62.4177ZM392.024 55.2085C392.024 45.8298 385.38 37.6604 376.505 30.6536L367.571 41.9704C375.731 48.4131 377.605 52.8414 377.605 55.2085H392.024ZM375.879 30.2113C370.242 26.6624 364.327 24.53 358.252 24.53V38.9485C360.875 38.9485 364.15 39.8646 368.197 42.4127L375.879 30.2113ZM358.252 24.53H275V38.9485H358.252V24.53ZM282.209 31.7392V18.9622H267.791V31.7392H282.209ZM409.494 19.2312V12.022H402.285V19.2312H409.494ZM421.868 19.2312H429.077V12.022H421.868V19.2312ZM421.868 103.627H414.659V110.836H421.868V103.627ZM438.142 103.627V110.836H441.45L443.608 108.327L438.142 103.627ZM496.378 19.2312V12.022H492.571L490.425 15.1652L496.378 19.2312ZM532.422 19.2312H539.632V12.022H532.422V19.2312ZM532.422 116V123.209H539.632V116H532.422ZM519.578 116H512.369V123.209H519.578V116ZM519.578 31.6047H526.787V24.3955H519.578V31.6047ZM503.775 31.6047V24.3955H501.272L499.308 25.9463L503.775 31.6047ZM445.539 116V123.209H449.368L451.512 120.037L445.539 116ZM409.494 116H402.285V123.209H409.494V116ZM409.494 26.4405H421.868V12.022H409.494V26.4405ZM414.659 19.2312V103.627H429.077V19.2312H414.659ZM421.868 110.836H438.142V96.4173H421.868V110.836ZM443.608 108.327C444.385 107.424 446.23 104.844 448.765 101.235C451.45 97.4137 455.224 91.9793 460.08 84.941C469.796 70.8606 483.881 50.3108 502.331 23.2972L490.425 15.1652C471.978 42.1736 457.909 62.7006 448.213 76.752C443.364 83.7796 439.617 89.1748 436.967 92.9465C435.641 94.8343 434.601 96.298 433.842 97.349C433.461 97.8757 433.164 98.2803 432.943 98.574C432.691 98.9103 432.627 98.9831 432.676 98.9258L443.608 108.327ZM496.378 26.4405H532.422V12.022H496.378V26.4405ZM525.213 19.2312V116H539.632V19.2312H525.213ZM532.422 108.791H519.578V123.209H532.422V108.791ZM526.787 116V31.6047H512.369V116H526.787ZM519.578 24.3955H503.775V38.814H519.578V24.3955ZM499.308 25.9463C498.525 26.5643 497.899 27.3293 497.713 27.5513C497.371 27.9613 496.985 28.4537 496.573 28.9939C495.742 30.0837 494.651 31.5749 493.316 33.4377C490.639 37.1745 486.865 42.5747 482.005 49.6178C472.278 63.7129 458.13 84.4986 439.566 111.963L451.512 120.037C470.069 92.5828 484.186 71.8433 493.872 57.8067C498.718 50.784 502.436 45.4666 505.038 41.8343C506.343 40.0124 507.337 38.6561 508.039 37.7355C508.394 37.2705 508.635 36.967 508.783 36.7903C509.087 36.4257 508.812 36.8133 508.242 37.2631L499.308 25.9463ZM445.539 108.791H409.494V123.209H445.539V108.791ZM416.704 116V19.2312H402.285V116H416.704Z" fill="white" fill-opacity="0.05"/>
</svg>
