<svg width="19" height="18" viewBox="0 0 19 18" fill="none" xmlns="http://www.w3.org/2000/svg">
<rect x="1.52083" y="2.19722" width="15.1042" height="14.2072" stroke="black" stroke-width="1.04167"/>
<path d="M9.07292 1.67639L11.817 6.35503L17.1458 7.50093L13.513 11.5384L14.0623 16.9252L9.07292 14.7419L4.08358 16.9252L4.63281 11.5384L1 7.50093L6.32878 6.35503L9.07292 1.67639Z" fill="#9E9CFF"/>
<path d="M9.07292 1.67639L9.52217 1.41289L9.07292 0.646921L8.62366 1.41289L9.07292 1.67639ZM11.817 6.35503L11.3678 6.61853L11.4837 6.81607L11.7076 6.86422L11.817 6.35503ZM17.1458 7.50093L17.533 7.8493L18.1345 7.1808L17.2553 6.99174L17.1458 7.50093ZM13.513 11.5384L13.1258 11.19L12.9715 11.3616L12.9949 11.5912L13.513 11.5384ZM14.0623 16.9252L13.8534 17.4024L14.6709 17.7601L14.5804 16.8724L14.0623 16.9252ZM9.07292 14.7419L9.28172 14.2647L9.07292 14.1734L8.86411 14.2647L9.07292 14.7419ZM4.08358 16.9252L3.56543 16.8724L3.47492 17.7601L4.29238 17.4024L4.08358 16.9252ZM4.63281 11.5384L5.15096 11.5912L5.17437 11.3616L5.01999 11.19L4.63281 11.5384ZM1 7.50093L0.890503 6.99174L0.0113205 7.1808L0.612825 7.8493L1 7.50093ZM6.32878 6.35503L6.43828 6.86422L6.66218 6.81607L6.77804 6.61853L6.32878 6.35503ZM8.62366 1.93989L11.3678 6.61853L12.2663 6.09152L9.52217 1.41289L8.62366 1.93989ZM11.7076 6.86422L17.0363 8.01012L17.2553 6.99174L11.9265 5.84583L11.7076 6.86422ZM16.7587 7.15256L13.1258 11.19L13.9002 11.8868L17.533 7.8493L16.7587 7.15256ZM12.9949 11.5912L13.5441 16.9781L14.5804 16.8724L14.0312 11.4856L12.9949 11.5912ZM14.2711 16.4481L9.28172 14.2647L8.86411 15.219L13.8534 17.4024L14.2711 16.4481ZM8.86411 14.2647L3.87478 16.4481L4.29238 17.4024L9.28172 15.219L8.86411 14.2647ZM4.60173 16.9781L5.15096 11.5912L4.11466 11.4856L3.56543 16.8724L4.60173 16.9781ZM5.01999 11.19L1.38718 7.15256L0.612825 7.8493L4.24564 11.8868L5.01999 11.19ZM1.1095 8.01012L6.43828 6.86422L6.21928 5.84583L0.890503 6.99174L1.1095 8.01012ZM6.77804 6.61853L9.52217 1.93989L8.62366 1.41289L5.87952 6.09152L6.77804 6.61853Z" fill="#9E9CFF"/>
</svg>
