<svg width="19" height="18" viewBox="0 0 19 18" fill="none" xmlns="http://www.w3.org/2000/svg">
<rect x="1.52083" y="2.41036" width="15.1042" height="14.2072" stroke="black" stroke-width="1.04167"/>
<path d="M9.07292 1.88953L11.817 6.56816L17.1458 7.71407L13.513 11.7515L14.0623 17.1384L9.07292 14.955L4.08358 17.1384L4.63281 11.7515L1 7.71407L6.32878 6.56816L9.07292 1.88953Z" fill="#D27AFF"/>
<path d="M9.07292 1.88953L9.52217 1.62602L9.07292 0.860056L8.62366 1.62602L9.07292 1.88953ZM11.817 6.56816L11.3678 6.83166L11.4837 7.02921L11.7076 7.07735L11.817 6.56816ZM17.1458 7.71407L17.533 8.06244L18.1345 7.39393L17.2553 7.20487L17.1458 7.71407ZM13.513 11.7515L13.1258 11.4032L12.9715 11.5747L12.9949 11.8044L13.513 11.7515ZM14.0623 17.1384L13.8534 17.6155L14.6709 17.9732L14.5804 17.0855L14.0623 17.1384ZM9.07292 14.955L9.28172 14.4779L9.07292 14.3865L8.86411 14.4779L9.07292 14.955ZM4.08358 17.1384L3.56543 17.0855L3.47492 17.9732L4.29238 17.6155L4.08358 17.1384ZM4.63281 11.7515L5.15096 11.8044L5.17437 11.5747L5.01999 11.4032L4.63281 11.7515ZM1 7.71407L0.890503 7.20487L0.0113205 7.39393L0.612825 8.06244L1 7.71407ZM6.32878 6.56816L6.43828 7.07735L6.66218 7.02921L6.77804 6.83166L6.32878 6.56816ZM8.62366 2.15303L11.3678 6.83166L12.2663 6.30466L9.52217 1.62602L8.62366 2.15303ZM11.7076 7.07735L17.0363 8.22326L17.2553 7.20487L11.9265 6.05897L11.7076 7.07735ZM16.7587 7.3657L13.1258 11.4032L13.9002 12.0999L17.533 8.06244L16.7587 7.3657ZM12.9949 11.8044L13.5441 17.1912L14.5804 17.0855L14.0312 11.6987L12.9949 11.8044ZM14.2711 16.6612L9.28172 14.4779L8.86411 15.4322L13.8534 17.6155L14.2711 16.6612ZM8.86411 14.4779L3.87478 16.6612L4.29238 17.6155L9.28172 15.4322L8.86411 14.4779ZM4.60173 17.1912L5.15096 11.8044L4.11466 11.6987L3.56543 17.0855L4.60173 17.1912ZM5.01999 11.4032L1.38718 7.3657L0.612825 8.06244L4.24564 12.0999L5.01999 11.4032ZM1.1095 8.22326L6.43828 7.07735L6.21928 6.05897L0.890503 7.20487L1.1095 8.22326ZM6.77804 6.83166L9.52217 2.15303L8.62366 1.62602L5.87952 6.30466L6.77804 6.83166Z" fill="#D27AFF"/>
</svg>
