<svg width="19" height="18" viewBox="0 0 19 18" fill="none" xmlns="http://www.w3.org/2000/svg">
<rect x="1.52083" y="1.90096" width="15.1042" height="14.2072" stroke="black" stroke-width="1.04167"/>
<path d="M9.07292 1.38013L11.817 6.05876L17.1458 7.20467L13.513 11.2421L14.0623 16.629L9.07292 14.4456L4.08358 16.629L4.63281 11.2421L1 7.20467L6.32878 6.05876L9.07292 1.38013Z" fill="#79FFA6"/>
<path d="M9.07292 1.38013L9.52217 1.11663L9.07292 0.350657L8.62366 1.11663L9.07292 1.38013ZM11.817 6.05876L11.3678 6.32226L11.4837 6.51981L11.7076 6.56795L11.817 6.05876ZM17.1458 7.20467L17.533 7.55304L18.1345 6.88453L17.2553 6.69547L17.1458 7.20467ZM13.513 11.2421L13.1258 10.8938L12.9715 11.0653L12.9949 11.295L13.513 11.2421ZM14.0623 16.629L13.8534 17.1061L14.6709 17.4638L14.5804 16.5761L14.0623 16.629ZM9.07292 14.4456L9.28172 13.9685L9.07292 13.8771L8.86411 13.9685L9.07292 14.4456ZM4.08358 16.629L3.56543 16.5761L3.47492 17.4638L4.29238 17.1061L4.08358 16.629ZM4.63281 11.2421L5.15096 11.295L5.17437 11.0653L5.01999 10.8938L4.63281 11.2421ZM1 7.20467L0.890503 6.69547L0.0113205 6.88453L0.612825 7.55304L1 7.20467ZM6.32878 6.05876L6.43828 6.56795L6.66218 6.51981L6.77804 6.32226L6.32878 6.05876ZM8.62366 1.64363L11.3678 6.32226L12.2663 5.79526L9.52217 1.11663L8.62366 1.64363ZM11.7076 6.56795L17.0363 7.71386L17.2553 6.69547L11.9265 5.54957L11.7076 6.56795ZM16.7587 6.8563L13.1258 10.8938L13.9002 11.5905L17.533 7.55304L16.7587 6.8563ZM12.9949 11.295L13.5441 16.6818L14.5804 16.5761L14.0312 11.1893L12.9949 11.295ZM14.2711 16.1518L9.28172 13.9685L8.86411 14.9228L13.8534 17.1061L14.2711 16.1518ZM8.86411 13.9685L3.87478 16.1518L4.29238 17.1061L9.28172 14.9228L8.86411 13.9685ZM4.60173 16.6818L5.15096 11.295L4.11466 11.1893L3.56543 16.5761L4.60173 16.6818ZM5.01999 10.8938L1.38718 6.8563L0.612825 7.55304L4.24564 11.5905L5.01999 10.8938ZM1.1095 7.71386L6.43828 6.56795L6.21928 5.54957L0.890503 6.69547L1.1095 7.71386ZM6.77804 6.32226L9.52217 1.64363L8.62366 1.11663L5.87952 5.79526L6.77804 6.32226Z" fill="#79FFA6"/>
</svg>
